<svg width="47" height="47" viewBox="0 0 47 47" fill="none" xmlns="http://www.w3.org/2000/svg">
<path d="M6.43604 32.4475V36.5643H10.8295M35.755 36.5643H40.0004V32.4475M6.43604 7.52341V3H10.8295M40.0004 7.52341V3H35.755" stroke="white" stroke-width="0.5"/>
<g filter="url(#filter0_d_88_2601)">
<rect x="8.4104" y="4.97437" width="29.6156" height="29.6156" fill="url(#paint0_linear_88_2601)"/>
</g>
<path d="M23.4389 9.38393C18.3932 9.38393 14.1666 12.853 13.0095 17.5386C12.4704 20.7499 13.5195 24.0677 15.7369 26.3613C15.5083 27.6514 15.4786 29.1663 15.4786 30.928H16.3274C16.3274 28.3384 16.4231 26.353 17.0033 24.9894C17.5836 23.6258 18.5877 22.8099 20.7003 22.4127L21.4094 22.2794L20.9484 21.7244C20.2052 20.8296 19.7121 19.5377 19.7121 18.0979C19.7121 16.7087 20.1565 15.4582 20.8518 14.5705C21.5471 13.6829 22.4737 13.1629 23.4858 13.1629C24.4979 13.1629 25.4245 13.6829 26.1198 14.5705C26.8151 15.4582 27.2596 16.7087 27.2596 18.0979C27.2596 19.5093 26.8231 20.7801 26.1156 21.6658L25.6598 22.2365L26.3813 22.3499C28.6837 22.7119 29.6594 23.5306 30.1863 24.9116C30.7131 26.2926 30.7092 28.3245 30.7092 30.9279H31.5581C31.5581 29.5612 31.569 28.3362 31.4897 27.2435C33.1653 25.349 34.1823 22.8585 34.1823 20.1274C34.1823 14.1889 29.3774 9.38379 23.4389 9.38379L23.4389 9.38393ZM23.8114 11.3575C25.1795 11.362 26.5594 11.6868 27.8194 12.3565C32.3171 14.7476 33.8404 20.5138 31.477 24.9288C31.3945 25.0829 31.3079 25.2333 31.2182 25.3807C31.1521 25.113 31.0735 24.8558 30.9794 24.6093C30.9387 24.5026 30.8944 24.3987 30.8471 24.2969C32.8204 20.319 31.4101 15.227 27.4209 13.1062C26.2876 12.5038 25.045 12.2121 23.8128 12.208C21.1019 12.1989 18.4409 13.5811 17.1035 16.1051C15.9268 18.3258 16.0788 21.0111 17.3408 23.0472C17.1219 23.2504 16.927 23.4713 16.7546 23.7096C15.2103 21.3981 14.9907 18.2793 16.3534 15.7077C17.8482 12.8867 20.8014 11.3475 23.8114 11.3576L23.8114 11.3575ZM27.7475 15.8497C29.4573 17.5403 30.0289 20.1617 29.23 22.4607C28.9976 22.3131 28.744 22.1796 28.4681 22.0606C28.9304 20.6211 28.7813 19.047 28.0997 17.7455C28.0678 17.0778 27.946 16.4395 27.7475 15.8496L27.7475 15.8497ZM19.0557 16.4377C18.9302 16.9645 18.8631 17.5217 18.8631 18.0979C18.8631 18.4367 18.8873 18.7687 18.9332 19.0915C18.8454 20.0486 19.0717 21.0187 19.5786 21.8203C19.2902 21.9084 19.0198 22.0089 18.7671 22.1218C17.8989 20.6345 17.8112 18.7188 18.6391 17.1156C18.7629 16.8758 18.9025 16.6498 19.0557 16.4377ZM21.8014 17.7704C21.084 17.7797 20.9275 17.9786 20.6865 18.1406C21.2535 18.6852 22.3625 18.6326 22.8553 18.1406C22.6285 17.9569 22.3843 17.7628 21.8014 17.7704H21.8014ZM25.1939 17.7784C24.4766 17.7877 24.32 17.9867 24.079 18.1486C24.646 18.6933 25.7551 18.6407 26.2478 18.1486C26.0211 17.965 25.7768 17.7708 25.1939 17.7784H25.1939Z" fill="#AAAAAA"/>
<g style="mix-blend-mode:overlay">
<path d="M16.3087 21.7565C15.519 21.7565 24.206 4.97437 24.206 4.97437H32.1033L26.8387 16.8206H32.7618L22.2316 34.59H13.676L21.5735 21.7565H16.3087Z" fill="#D9D9D9"/>
</g>
<path d="M20.257 4.97437H15.6501L9.06885 19.4531H13.3467L20.257 4.97437Z" fill="url(#paint1_linear_88_2601)"/>
<defs>
<filter id="filter0_d_88_2601" x="0.4104" y="0.974365" width="45.6155" height="45.6155" filterUnits="userSpaceOnUse" color-interpolation-filters="sRGB">
<feFlood flood-opacity="0" result="BackgroundImageFix"/>
<feColorMatrix in="SourceAlpha" type="matrix" values="0 0 0 0 0 0 0 0 0 0 0 0 0 0 0 0 0 0 127 0" result="hardAlpha"/>
<feOffset dy="4"/>
<feGaussianBlur stdDeviation="4"/>
<feComposite in2="hardAlpha" operator="out"/>
<feColorMatrix type="matrix" values="0 0 0 0 0 0 0 0 0 0 0 0 0 0 0 0 0 0 1 0"/>
<feBlend mode="normal" in2="BackgroundImageFix" result="effect1_dropShadow_88_2601"/>
<feBlend mode="normal" in="SourceGraphic" in2="effect1_dropShadow_88_2601" result="shape"/>
</filter>
<linearGradient id="paint0_linear_88_2601" x1="23.2182" y1="4.97437" x2="23.2182" y2="34.59" gradientUnits="userSpaceOnUse">
<stop stop-color="#111112"/>
<stop offset="1" stop-color="#1D1E1F"/>
</linearGradient>
<linearGradient id="paint1_linear_88_2601" x1="17.6245" y1="5.30343" x2="11.7013" y2="19.124" gradientUnits="userSpaceOnUse">
<stop stop-color="#303234"/>
<stop offset="1" stop-color="#303234" stop-opacity="0"/>
</linearGradient>
</defs>
</svg>
