<svg width="67" height="67" viewBox="0 0 67 67" fill="none" xmlns="http://www.w3.org/2000/svg">
<path d="M4.99976 51.0088V58.0002H12.4609M54.7903 58.0002H61.9999V51.0088M4.99976 8.68182V1H12.4609M61.9999 8.68182V1H54.7903" stroke="white" stroke-width="0.5"/>
<g filter="url(#filter0_d_88_1462)">
<rect x="8.35327" y="4.35352" width="50.2943" height="50.2943" fill="url(#paint0_linear_88_1462)"/>
</g>
<path d="M38.2911 11L32.3405 21.3677L26.2062 14.0141L25.8485 25.3928L15.6985 14.8264L20.5945 29.4463L13.4057 23.9122L15.1475 33.8879L12.3523 32.9295V39.8806H13.0111L14.4141 35.6719H17.9214L19.3243 31.4631H22.8317L24.2346 27.2543H27.7419L29.1449 23.0455H37.2969L38.6999 27.2543H42.2072L43.6101 31.4631H47.1174L48.5204 35.6719H52.0277L53.4306 39.8806H54.0895V26.7532L47.2692 30.2208L52.8619 18.2229L41.8316 25.5671L45.8473 16.82L39.2775 22.6833L38.2911 11ZM30.2823 24.6238L29.4054 27.2543H37.0363L36.1595 24.6238H30.2823ZM25.372 28.8326L24.4952 31.4631H32.1261L31.2492 28.8326H25.372ZM32.9128 28.8326L33.2209 29.7567L33.529 28.8326H32.9128ZM35.1925 28.8326L34.3157 31.4631H41.9466L41.0698 28.8326H35.1925ZM20.4618 33.0414L19.5849 35.6719H27.2158L26.339 33.0414H20.4618ZM28.0025 33.0414L28.3106 33.9655L28.6188 33.0414H28.0025ZM30.2823 33.0414L29.4054 35.6719H37.0363L36.1595 33.0414H30.2823ZM37.823 33.0414L38.1311 33.9655L38.4393 33.0414H37.823ZM40.1028 33.0414L39.226 35.6719H46.8569L45.98 33.0414H40.1028ZM15.5515 37.2501L14.6747 39.8806H22.3056L21.4287 37.2501H15.5515ZM23.0923 37.2501L23.4004 38.1743L23.7085 37.2501H23.0923ZM25.372 37.2501L24.4952 39.8806H32.1261L31.2492 37.2501H25.372ZM32.9128 37.2501L33.2209 38.1743L33.529 37.2501H32.9128ZM35.1925 37.2501L34.3157 39.8806H41.9466L41.0698 37.2501H35.1925ZM42.7333 37.2501L43.0414 38.1743L43.3495 37.2501H42.7333ZM45.0131 37.2501L44.1362 39.8806H51.7671L50.8903 37.2501H45.0131ZM12.3523 41.4589V44.0894H17.3953L16.5185 41.4589H12.3523ZM18.182 41.4589L18.4901 42.3831L18.7982 41.4589H18.182ZM20.4618 41.4589L19.5849 44.0894H27.2158L26.339 41.4589H20.4618ZM28.0025 41.4589L28.3106 42.3831L28.6188 41.4589H28.0025ZM30.2823 41.4589L29.4054 44.0894H37.0363L36.1595 41.4589H30.2823ZM37.823 41.4589L38.1311 42.3831L38.4393 41.4589H37.823ZM40.1028 41.4589L39.226 44.0894H46.8569L45.98 41.4589H40.1028ZM47.6435 41.4589L47.9517 42.3831L48.2598 41.4589H47.6435ZM49.9233 41.4589L49.0465 44.0894H54.0895V41.4589H49.9233ZM13.2717 45.6677L13.5799 46.5919L13.888 45.6677H13.2717ZM15.5515 45.6677L14.6747 48.2982H22.3056L21.4287 45.6677H15.5515ZM23.0923 45.6677L23.4004 46.5919L23.7085 45.6677H23.0923ZM25.372 45.6677L24.4952 48.2982H32.1261L31.2492 45.6677H25.372ZM32.9128 45.6677L33.2209 46.5919L33.529 45.6677H32.9128ZM35.1925 45.6677L34.3157 48.2982H41.9466L41.0698 45.6677H35.1925ZM42.7333 45.6677L43.0265 46.5475L43.0565 46.5466L43.3495 45.6677H42.7333ZM45.0131 45.6677L44.1362 48.2982H51.7671L50.8903 45.6677H45.0131ZM52.5538 45.6677L52.7543 46.2695L52.9715 46.2634L53.17 45.6677H52.5538Z" fill="#9BA1AA"/>
<g style="mix-blend-mode:overlay">
<path d="M21.7646 32.8536C20.4234 32.8536 35.1761 4.35352 35.1761 4.35352H48.5876L39.647 24.4712H49.7059L31.8232 54.6478H17.2937L30.7055 32.8536H21.7646Z" fill="#D9D9D9"/>
</g>
<path d="M28.4695 4.35352H20.646L9.46948 28.9418H16.7342L28.4695 4.35352Z" fill="url(#paint1_linear_88_1462)"/>
<defs>
<filter id="filter0_d_88_1462" x="0.353271" y="0.353516" width="66.2942" height="66.2944" filterUnits="userSpaceOnUse" color-interpolation-filters="sRGB">
<feFlood flood-opacity="0" result="BackgroundImageFix"/>
<feColorMatrix in="SourceAlpha" type="matrix" values="0 0 0 0 0 0 0 0 0 0 0 0 0 0 0 0 0 0 127 0" result="hardAlpha"/>
<feOffset dy="4"/>
<feGaussianBlur stdDeviation="4"/>
<feComposite in2="hardAlpha" operator="out"/>
<feColorMatrix type="matrix" values="0 0 0 0 0 0 0 0 0 0 0 0 0 0 0 0 0 0 1 0"/>
<feBlend mode="normal" in2="BackgroundImageFix" result="effect1_dropShadow_88_1462"/>
<feBlend mode="normal" in="SourceGraphic" in2="effect1_dropShadow_88_1462" result="shape"/>
</filter>
<linearGradient id="paint0_linear_88_1462" x1="33.5004" y1="4.35352" x2="33.5004" y2="54.6478" gradientUnits="userSpaceOnUse">
<stop stop-color="#111112"/>
<stop offset="1" stop-color="#1D1E1F"/>
</linearGradient>
<linearGradient id="paint1_linear_88_1462" x1="23.9989" y1="4.91234" x2="13.9401" y2="28.383" gradientUnits="userSpaceOnUse">
<stop stop-color="#303234"/>
<stop offset="1" stop-color="#303234" stop-opacity="0"/>
</linearGradient>
</defs>
</svg>
