<svg width="67" height="67" viewBox="0 0 67 67" fill="none" xmlns="http://www.w3.org/2000/svg">
<path d="M4.99976 51.0088V58.0002H12.4609M54.7903 58.0002H61.9999V51.0088M4.99976 8.68182V1H12.4609M61.9999 8.68182V1H54.7903" stroke="white" stroke-width="0.5"/>
<g filter="url(#filter0_d_88_1477)">
<rect x="8.35327" y="4.35352" width="50.2943" height="50.2943" fill="url(#paint0_linear_88_1477)"/>
</g>
<path d="M13.9998 10V12.1807L18.5261 16.7862L20.5178 14.7945L15.8033 10.0001H13.9998V10ZM19.2439 10.2804C18.8857 10.2877 18.5711 10.3526 18.2955 10.4604L27.6395 19.8042C27.8715 19.2113 27.8868 18.4216 27.6278 17.4717C27.2582 16.1161 26.3364 14.5375 24.9494 13.1507C23.5623 11.7637 21.9837 10.8417 20.6282 10.4721C20.1199 10.3334 19.6561 10.272 19.244 10.2804H19.2439ZM14.1858 14.5706C13.9537 15.1634 13.9382 15.953 14.1972 16.9028C14.5668 18.2584 15.4888 19.837 16.8758 21.224C18.2628 22.611 19.8413 23.5328 21.1968 23.9025C22.1469 24.1616 22.9366 24.1462 23.5295 23.9143L14.1857 14.5706H14.1858ZM22.77 17.0527L20.7884 19.0344L30.3728 28.6189L32.3545 26.6372L22.77 17.0528V17.0527ZM52.1137 21.5882C51.491 21.8066 50.8573 22.0841 50.2408 22.4401C48.6107 23.3812 47.3741 24.6159 46.7046 25.7783C46.2449 26.5765 46.0679 27.2958 46.1263 27.8921L52.1137 24.4484V21.5882H52.1137ZM31.5033 22.5398C31.1453 22.5471 30.8307 22.612 30.5551 22.7199L36.4575 28.6223C37.3112 28.208 38.1705 27.903 39.0054 27.7117C38.5449 26.9319 37.9427 26.1443 37.2088 25.4103C35.8217 24.0233 34.2431 23.1013 32.8876 22.7317C32.3793 22.593 31.9154 22.5315 31.5033 22.5398ZM26.4783 26.7968C26.2462 27.3896 26.2309 28.1793 26.4901 29.1293C26.8597 30.4848 27.7817 32.0634 29.1687 33.4504C29.6824 33.9642 30.2225 34.4136 30.7677 34.7953C30.892 34.1792 31.1435 33.5574 31.4906 32.9625C31.6273 32.728 31.7808 32.4958 31.9476 32.2658L26.4783 26.7968ZM50.8562 26.8503L39.6023 33.359L40.9191 35.664L51.9735 29.2799V28.7892L50.8562 26.8503ZM41.0122 28.9674C39.6661 28.9734 37.9728 29.4356 36.3414 30.3775C34.71 31.3193 33.463 32.5546 32.7848 33.7174C32.3205 34.5135 32.1383 35.2295 32.1923 35.8228L43.1316 29.507C42.6446 29.1637 41.9336 28.9634 41.0121 28.9674H41.0122ZM52.1137 30.8625L48.932 32.7013C49.1908 32.8865 49.5117 33.0325 49.9118 33.1279C50.5155 33.2716 51.2765 33.2822 52.1137 33.1525V30.8624V30.8625ZM46.0749 34.3615L35.1354 40.6776C35.6223 41.021 36.3334 41.2212 37.255 41.217C38.6011 41.2111 40.2946 40.7488 41.9259 39.807C43.5572 38.8652 44.8042 37.63 45.4825 36.4671C45.9469 35.671 46.1289 34.955 46.0749 34.3616V34.3615ZM36.2486 35.2158L35.3918 35.7103L35.3889 35.7073L34.3683 36.2966L34.3755 36.2972L24.9987 41.711L26.3193 43.9983L37.5693 37.5033L36.2486 35.2159V35.2158ZM47.3922 35.8218C47.2527 36.2945 47.0426 36.7661 46.7769 37.2219C46.5758 37.5666 46.3407 37.9074 46.0759 38.2409L51.5882 43.7532C51.8201 43.1604 51.8354 42.3706 51.5764 41.4207C51.2068 40.0653 50.285 38.4868 48.898 37.0998C48.4135 36.6154 47.9056 36.1891 47.3921 35.8219L47.3922 35.8218ZM26.7007 37.3113C25.3546 37.3173 23.6613 37.7795 22.0299 38.7214C20.3985 39.6631 19.1515 40.8986 18.4732 42.0612C18.009 42.8572 17.8269 43.5733 17.8807 44.1666L28.8201 37.8509C28.3332 37.5075 27.6221 37.3072 26.7006 37.3113L26.7007 37.3113ZM46.7249 41.022L44.747 42.9695L49.7571 48.0201H51.9734V46.2702L46.7249 41.022ZM41.4235 41.7422C40.5725 42.1214 39.7203 42.3924 38.8969 42.55C39.3744 43.4229 40.0332 44.315 40.8578 45.1396C42.2446 46.5266 43.8232 47.4486 45.1787 47.8182C46.1287 48.0774 46.9185 48.0619 47.5114 47.83L41.4235 41.7422ZM31.6434 42.7108L22.4612 48.0122H27.7379C29.2581 47.0833 30.4241 45.9028 31.0653 44.7897C31.5181 44.0032 31.6957 43.2967 31.6433 42.7108H31.6434ZM22.4351 43.2836L14.2168 48.0201H19.4643L23.745 45.5459L22.4351 43.2836Z" fill="#9BA1AA"/>
<g style="mix-blend-mode:overlay">
<path d="M21.7646 32.8536C20.4234 32.8536 35.1761 4.35352 35.1761 4.35352H48.5876L39.647 24.4712H49.7059L31.8232 54.6478H17.2937L30.7055 32.8536H21.7646Z" fill="#D9D9D9"/>
</g>
<path d="M28.4695 4.35352H20.646L9.46948 28.9418H16.7342L28.4695 4.35352Z" fill="url(#paint1_linear_88_1477)"/>
<defs>
<filter id="filter0_d_88_1477" x="0.353271" y="0.353516" width="66.2942" height="66.2944" filterUnits="userSpaceOnUse" color-interpolation-filters="sRGB">
<feFlood flood-opacity="0" result="BackgroundImageFix"/>
<feColorMatrix in="SourceAlpha" type="matrix" values="0 0 0 0 0 0 0 0 0 0 0 0 0 0 0 0 0 0 127 0" result="hardAlpha"/>
<feOffset dy="4"/>
<feGaussianBlur stdDeviation="4"/>
<feComposite in2="hardAlpha" operator="out"/>
<feColorMatrix type="matrix" values="0 0 0 0 0 0 0 0 0 0 0 0 0 0 0 0 0 0 1 0"/>
<feBlend mode="normal" in2="BackgroundImageFix" result="effect1_dropShadow_88_1477"/>
<feBlend mode="normal" in="SourceGraphic" in2="effect1_dropShadow_88_1477" result="shape"/>
</filter>
<linearGradient id="paint0_linear_88_1477" x1="33.5004" y1="4.35352" x2="33.5004" y2="54.6478" gradientUnits="userSpaceOnUse">
<stop stop-color="#111112"/>
<stop offset="1" stop-color="#1D1E1F"/>
</linearGradient>
<linearGradient id="paint1_linear_88_1477" x1="23.9989" y1="4.91234" x2="13.9401" y2="28.383" gradientUnits="userSpaceOnUse">
<stop stop-color="#303234"/>
<stop offset="1" stop-color="#303234" stop-opacity="0"/>
</linearGradient>
</defs>
</svg>
