<svg width="40" height="40" viewBox="0 0 40 40" fill="none" xmlns="http://www.w3.org/2000/svg">
<g filter="url(#filter0_f_370_3707)">
<path d="M31.625 19.8125C31.625 26.3364 26.3364 31.625 19.8125 31.625C13.2886 31.625 8 26.3364 8 19.8125C8 13.2886 13.2886 8 19.8125 8C26.3364 8 31.625 13.2886 31.625 19.8125ZM9.77187 19.8125C9.77187 25.3578 14.2672 29.8531 19.8125 29.8531C25.3578 29.8531 29.8531 25.3578 29.8531 19.8125C29.8531 14.2672 25.3578 9.77187 19.8125 9.77187C14.2672 9.77187 9.77187 14.2672 9.77187 19.8125Z" fill="white" fill-opacity="0.8"/>
</g>
<g filter="url(#filter1_f_370_3707)">
<rect x="19.4062" y="8" width="0.814655" height="1.62931" fill="white"/>
<rect x="19.4062" y="29.9961" width="0.814655" height="1.62931" fill="white"/>
<rect x="24.0703" y="8.78711" width="0.814655" height="1.62931" transform="rotate(23.0976 24.0703 8.78711)" fill="white"/>
<rect x="15.4414" y="29.0195" width="0.814655" height="1.62931" transform="rotate(23.0976 15.4414 29.0195)" fill="white"/>
<rect x="31.625" y="19.4043" width="0.814655" height="1.62931" transform="rotate(90 31.625 19.4043)" fill="white"/>
<rect x="9.62891" y="19.4043" width="0.814655" height="1.62931" transform="rotate(90 9.62891 19.4043)" fill="white"/>
<rect x="30.8203" y="24.1133" width="0.814655" height="1.62931" transform="rotate(113.313 30.8203 24.1133)" fill="white"/>
<rect x="10.6211" y="15.4082" width="0.814655" height="1.62931" transform="rotate(113.313 10.6211 15.4082)" fill="white"/>
<rect x="28.4531" y="27.877" width="0.814655" height="1.62931" transform="rotate(135 28.4531 27.877)" fill="white"/>
<rect x="12.8984" y="12.3242" width="0.814655" height="1.62931" transform="rotate(135 12.8984 12.3242)" fill="white"/>
<rect x="24.5391" y="30.6445" width="0.814655" height="1.62931" transform="rotate(158.398 24.5391 30.6445)" fill="white"/>
<rect x="16.4414" y="10.1943" width="0.814655" height="1.62931" transform="rotate(158.398 16.4414 10.1943)" fill="white"/>
<rect x="11.7461" y="28.4531" width="0.814655" height="1.62931" transform="rotate(-135 11.7461 28.4531)" fill="white"/>
<rect x="27.3008" y="12.9004" width="0.814655" height="1.62931" transform="rotate(-135 27.3008 12.9004)" fill="white"/>
<rect x="9.02344" y="24.6406" width="0.814655" height="1.62931" transform="rotate(-112.135 9.02344 24.6406)" fill="white"/>
<rect x="29.3984" y="16.3525" width="0.814655" height="1.62931" transform="rotate(-112.135 29.3984 16.3525)" fill="white"/>
</g>
<rect x="19.4062" y="8" width="0.814655" height="1.62931" fill="white"/>
<rect x="19.4062" y="29.9961" width="0.814655" height="1.62931" fill="white"/>
<rect x="24.0703" y="8.78711" width="0.814655" height="1.62931" transform="rotate(23.0976 24.0703 8.78711)" fill="white"/>
<rect x="15.4414" y="29.0195" width="0.814655" height="1.62931" transform="rotate(23.0976 15.4414 29.0195)" fill="white"/>
<rect x="31.625" y="19.4043" width="0.814655" height="1.62931" transform="rotate(90 31.625 19.4043)" fill="white"/>
<rect x="9.62891" y="19.4043" width="0.814655" height="1.62931" transform="rotate(90 9.62891 19.4043)" fill="white"/>
<rect x="30.8203" y="24.1133" width="0.814655" height="1.62931" transform="rotate(113.313 30.8203 24.1133)" fill="white"/>
<rect x="10.6211" y="15.4082" width="0.814655" height="1.62931" transform="rotate(113.313 10.6211 15.4082)" fill="white"/>
<rect x="28.4531" y="27.877" width="0.814655" height="1.62931" transform="rotate(135 28.4531 27.877)" fill="white"/>
<rect x="12.8984" y="12.3242" width="0.814655" height="1.62931" transform="rotate(135 12.8984 12.3242)" fill="white"/>
<rect x="24.3516" y="30.8682" width="0.814655" height="1.62931" transform="rotate(158.398 24.3516 30.8682)" fill="white"/>
<rect x="16.4414" y="10.1943" width="0.814655" height="1.62931" transform="rotate(158.398 16.4414 10.1943)" fill="white"/>
<rect x="11.7461" y="28.4531" width="0.814655" height="1.62931" transform="rotate(-135 11.7461 28.4531)" fill="white"/>
<rect x="27.3008" y="12.9004" width="0.814655" height="1.62931" transform="rotate(-135 27.3008 12.9004)" fill="white"/>
<rect x="9.02344" y="24.6406" width="0.814655" height="1.62931" transform="rotate(-112.135 9.02344 24.6406)" fill="white"/>
<rect x="29.3984" y="16.3525" width="0.814655" height="1.62931" transform="rotate(-112.135 29.3984 16.3525)" fill="white"/>
<defs>
<filter id="filter0_f_370_3707" x="0" y="0" width="39.625" height="39.625" filterUnits="userSpaceOnUse" color-interpolation-filters="sRGB">
<feFlood flood-opacity="0" result="BackgroundImageFix"/>
<feBlend mode="normal" in="SourceGraphic" in2="BackgroundImageFix" result="shape"/>
<feGaussianBlur stdDeviation="4" result="effect1_foregroundBlur_370_3707"/>
</filter>
<filter id="filter1_f_370_3707" x="4" y="4" width="31.625" height="31.6255" filterUnits="userSpaceOnUse" color-interpolation-filters="sRGB">
<feFlood flood-opacity="0" result="BackgroundImageFix"/>
<feBlend mode="normal" in="SourceGraphic" in2="BackgroundImageFix" result="shape"/>
<feGaussianBlur stdDeviation="2" result="effect1_foregroundBlur_370_3707"/>
</filter>
</defs>
</svg>
