<svg width="28" height="28" viewBox="0 0 28 28" fill="none" xmlns="http://www.w3.org/2000/svg">
<path d="M25.5373 0.198979L0.19925 25.4605C0.0896625 25.5698 0.097644 25.7565 0.216987 25.8755L1.95288 27.6062C2.07222 27.7251 2.25953 27.7331 2.36912 27.6238L27.7071 2.3623C27.8167 2.25304 27.8087 2.0663 27.6894 1.94732L25.9535 0.216665C25.8342 0.0976829 25.6469 0.0897221 25.5373 0.198979Z" fill="white"/>
<path d="M25.6313 27.8014L0.293295 2.5398C0.183708 2.43054 0.191693 2.2438 0.311035 2.12482L2.04693 0.394169C2.16627 0.275186 2.35357 0.267225 2.46316 0.376483L27.8012 25.638C27.9108 25.7473 27.9028 25.934 27.7834 26.053L26.0476 27.7837C25.9282 27.9027 25.7409 27.9106 25.6313 27.8014Z" fill="white"/>
</svg>
