<svg width="46" height="47" viewBox="0 0 46 47" fill="none" xmlns="http://www.w3.org/2000/svg">
<path d="M6.14502 32.4473V36.5641H10.5384M35.4638 36.5641H39.7091V32.4473M6.14502 7.52338V3H10.5384M39.7091 7.52338V3H35.4638" stroke="white" stroke-width="0.5"/>
<g filter="url(#filter0_d_88_2378)">
<rect x="8.11963" y="4.97461" width="29.6154" height="29.6154" fill="url(#paint0_linear_88_2378)"/>
</g>
<path d="M22.2898 8.87467C21.1619 8.88419 19.7583 9.05964 18.0489 9.45717L18.2795 10.0121C26.2951 8.08814 27.2576 12.5802 21.8988 13.6981C19.3422 14.2294 18.896 12.1842 21.6682 11.8433C22.6958 11.713 23.6733 11.7781 24.4854 12.0188C24.6458 11.8483 24.7762 11.6378 24.8313 11.3706C23.8739 11.1104 22.776 11.0287 21.7083 11.156C17.0764 11.7029 17.6879 15.237 22.2848 14.3949C26.5507 13.6129 28.3905 8.82404 22.2898 8.87467ZM15.6326 9.4717C15.1263 9.47972 14.4551 9.66821 13.7784 10.0236C12.5783 10.6603 11.8198 11.5826 12.0855 12.0839C12.1 12.114 12.1176 12.1391 12.1381 12.1641C12.1467 12.1391 12.1562 12.114 12.1667 12.094C12.9277 10.8016 14.976 9.59151 16.4397 9.79804C16.4397 9.79303 16.4347 9.78802 16.4347 9.78802C16.3194 9.56895 16.0236 9.46569 15.6326 9.4717ZM12.6289 13.0063C13.7794 14.1492 17.6729 11.8333 16.9761 10.7054C16.1991 9.44463 11.7542 12.1341 12.6289 13.0063ZM26.3803 12.0538C26.2851 12.2644 26.1597 12.4799 26.0094 12.6855C25.9793 12.7206 25.9492 12.7607 25.9191 12.7958C26.8916 13.7181 26.9668 15.227 25.3627 17.2322C28.2251 14.9262 27.9343 13.0965 26.3803 12.0538ZM27.433 18.34C25.9642 20.0795 28.5258 21.8691 28.5258 21.8691L28.3404 23.5484L25.6935 22.0295C25.6935 22.0295 26.661 25.4684 26.3953 27.8896C26.3402 28.3909 26.0645 28.7919 25.6585 29.0426C25.2474 29.2932 24.7411 29.3434 24.2849 29.193C23.7485 28.9924 23.2673 28.8471 23.2623 28.8421L23.1821 28.3759L23.6633 28.4561C23.9641 28.5012 24.2799 28.426 24.5305 28.2405C24.7862 28.06 24.9566 27.7843 25.0068 27.4735C25.0268 27.3382 25.0469 27.1778 24.9717 27.0725C24.9165 26.9973 24.8413 26.9472 24.7511 26.9372C23.8037 26.7818 21.1318 26.3607 21.1318 26.3607L21.6281 29.1829L21.583 29.193L25.0719 30.4462L27.4581 30.0953L28.7965 31.2984H34.0801V28.1403L31.8895 26.7366L32.0649 23.7891L30.917 21.1372L27.433 18.34ZM22.0592 18.8363L20.7408 20.3452L24.9416 20.8365C24.9416 20.8365 24.9867 20.4404 25.0368 20.0394C25.0619 19.8138 24.9967 19.5832 24.8514 19.4028C24.706 19.2223 24.5005 19.102 24.2649 19.0769C23.3575 18.9817 22.0592 18.8363 22.0592 18.8363ZM21.222 21.3428L20.8962 23.0371L24.8815 23.8091C24.8815 23.8091 24.9617 23.4131 25.0419 23.007C25.1321 22.5459 24.8313 22.0947 24.3651 21.9944C23.1971 21.7538 21.222 21.3428 21.222 21.3428ZM21.0767 23.8292L20.7258 25.4584L24.5556 26.2855C24.5556 26.2855 24.6358 25.8995 24.721 25.4985C24.8213 25.0323 24.5255 24.5711 24.0593 24.4708C22.9314 24.2252 21.0767 23.8292 21.0767 23.8292Z" fill="#AAAAAA"/>
<g style="mix-blend-mode:overlay">
<path d="M16.0167 21.7567C15.227 21.7567 23.9139 4.97461 23.9139 4.97461H31.8112L26.5466 16.8208H32.4697L21.9396 34.59H13.384L21.2815 21.7567H16.0167Z" fill="#D9D9D9"/>
</g>
<path d="M19.9654 4.97461H15.3585L8.77734 19.4532H13.0551L19.9654 4.97461Z" fill="url(#paint1_linear_88_2378)"/>
<defs>
<filter id="filter0_d_88_2378" x="0.119629" y="0.974609" width="45.6155" height="45.6155" filterUnits="userSpaceOnUse" color-interpolation-filters="sRGB">
<feFlood flood-opacity="0" result="BackgroundImageFix"/>
<feColorMatrix in="SourceAlpha" type="matrix" values="0 0 0 0 0 0 0 0 0 0 0 0 0 0 0 0 0 0 127 0" result="hardAlpha"/>
<feOffset dy="4"/>
<feGaussianBlur stdDeviation="4"/>
<feComposite in2="hardAlpha" operator="out"/>
<feColorMatrix type="matrix" values="0 0 0 0 0 0 0 0 0 0 0 0 0 0 0 0 0 0 1 0"/>
<feBlend mode="normal" in2="BackgroundImageFix" result="effect1_dropShadow_88_2378"/>
<feBlend mode="normal" in="SourceGraphic" in2="effect1_dropShadow_88_2378" result="shape"/>
</filter>
<linearGradient id="paint0_linear_88_2378" x1="22.9273" y1="4.97461" x2="22.9273" y2="34.59" gradientUnits="userSpaceOnUse">
<stop stop-color="#111112"/>
<stop offset="1" stop-color="#1D1E1F"/>
</linearGradient>
<linearGradient id="paint1_linear_88_2378" x1="17.3329" y1="5.30367" x2="11.4098" y2="19.1242" gradientUnits="userSpaceOnUse">
<stop stop-color="#303234"/>
<stop offset="1" stop-color="#303234" stop-opacity="0"/>
</linearGradient>
</defs>
</svg>
