<svg width="47" height="47" viewBox="0 0 47 47" fill="none" xmlns="http://www.w3.org/2000/svg">
<path d="M6.43555 32.4474V36.5642H10.829M35.7545 36.5642H39.9998V32.4474M6.43555 7.5234V3H10.829M39.9998 7.5234V3H35.7545" stroke="white" stroke-width="0.5"/>
<g filter="url(#filter0_d_88_2810)">
<rect x="8.41016" y="4.97437" width="29.6155" height="29.6155" fill="url(#paint0_linear_88_2810)"/>
</g>
<path d="M19.6316 9.25952V12.9602L17.626 11.7602L18.426 13.8981L13.1582 12.9445L17.0168 15.2175H12.3525V16.463L17.3841 17.1405L21.7837 15.8111C21.2688 15.2705 20.9368 14.4109 20.9368 13.4427C20.9368 11.8063 21.8873 10.4793 23.0603 10.4793C24.2333 10.4793 25.184 11.8063 25.184 13.4427C25.184 14.3922 24.8634 15.2361 24.3655 15.7784L28.876 17.1405L34.0001 16.4502V15.2175H29.3958L33.2545 12.9445L27.7689 13.9365L28.583 11.7631L26.3669 13.0897V9.25952H19.6316ZM34.0002 18.4884L28.8761 19.5104L26.3526 18.9126L25.0759 24.3014L25.8316 30.9057H28.1859L26.438 24.3128L28.5573 25.581L27.5867 22.9876L33.2544 24.0125L29.1039 21.5671H34.0002V18.4885L34.0002 18.4884ZM12.3525 18.507V21.5672H17.3087L13.1582 24.0125L18.6066 23.0261L17.6517 25.5781L19.4039 24.5306L18.1015 30.9058H20.2948L20.8826 24.3283L19.8949 18.9155L17.3841 19.5104L12.3525 18.507Z" fill="#AAAAAA"/>
<g style="mix-blend-mode:overlay">
<path d="M16.3075 21.7565C15.5177 21.7565 24.2048 4.97437 24.2048 4.97437H32.102L26.8374 16.8206H32.7605L22.2304 34.5899H13.6748L21.5723 21.7565H16.3075Z" fill="#D9D9D9"/>
</g>
<path d="M20.2555 4.97437H15.6486L9.06738 19.4531H13.3452L20.2555 4.97437Z" fill="url(#paint1_linear_88_2810)"/>
<defs>
<filter id="filter0_d_88_2810" x="0.410156" y="0.974365" width="45.6157" height="45.6155" filterUnits="userSpaceOnUse" color-interpolation-filters="sRGB">
<feFlood flood-opacity="0" result="BackgroundImageFix"/>
<feColorMatrix in="SourceAlpha" type="matrix" values="0 0 0 0 0 0 0 0 0 0 0 0 0 0 0 0 0 0 127 0" result="hardAlpha"/>
<feOffset dy="4"/>
<feGaussianBlur stdDeviation="4"/>
<feComposite in2="hardAlpha" operator="out"/>
<feColorMatrix type="matrix" values="0 0 0 0 0 0 0 0 0 0 0 0 0 0 0 0 0 0 1 0"/>
<feBlend mode="normal" in2="BackgroundImageFix" result="effect1_dropShadow_88_2810"/>
<feBlend mode="normal" in="SourceGraphic" in2="effect1_dropShadow_88_2810" result="shape"/>
</filter>
<linearGradient id="paint0_linear_88_2810" x1="23.2179" y1="4.97437" x2="23.2179" y2="34.5899" gradientUnits="userSpaceOnUse">
<stop stop-color="#111112"/>
<stop offset="1" stop-color="#1D1E1F"/>
</linearGradient>
<linearGradient id="paint1_linear_88_2810" x1="17.623" y1="5.30343" x2="11.6999" y2="19.124" gradientUnits="userSpaceOnUse">
<stop stop-color="#303234"/>
<stop offset="1" stop-color="#303234" stop-opacity="0"/>
</linearGradient>
</defs>
</svg>
