<svg width="46" height="47" viewBox="0 0 46 47" fill="none" xmlns="http://www.w3.org/2000/svg">
<path d="M6.14429 32.4475V36.5643H10.5377M35.4633 36.5643H39.7086V32.4475M6.14429 7.52341V3H10.5377M39.7086 7.52341V3H35.4633" stroke="white" stroke-width="0.5"/>
<g filter="url(#filter0_d_88_2587)">
<rect x="8.28931" y="4.59644" width="29.6156" height="29.6156" fill="url(#paint0_linear_88_2587)"/>
</g>
<path d="M27.3024 8.58541C26.7619 8.58952 26.1985 8.64181 25.5975 8.76703C27.1792 9.09786 28.1733 9.79882 28.7076 10.6196C27.9766 10.4945 27.2604 10.4083 26.5599 10.3583L25.6684 9.53454L24.7577 10.311C24.4017 10.3189 24.0501 10.337 23.7037 10.3656L22.3133 9.60095L21.6092 10.6786C21.2266 10.7624 20.8511 10.8602 20.4829 10.9724L19.0909 10.2653L18.5566 11.7177C18.1417 11.916 17.7389 12.1366 17.3477 12.376L15.8037 12.1252L15.7815 13.4964C15.4833 13.7443 15.1939 14.0069 14.9136 14.2832H13.2457L13.414 16.0146C13.2071 16.2937 13.0076 16.5835 12.8147 16.8825L11.8509 16.7083V18.5741C11.8503 18.575 11.8498 18.5761 11.8494 18.5771V30.9273H12.7232C13.8343 26.5362 17.1899 24.768 20.7043 26.9006C22.6942 28.1082 25.1341 29.8431 27.7452 28.8447C27.7027 29.2204 27.5905 29.5826 27.4189 29.9104L31.9225 30.8167C32.0637 30.4506 32.1862 30.0746 32.2826 29.7037C32.1146 29.8119 31.7937 29.93 31.3483 29.8602C29.3975 29.5546 29.7825 27.3079 31.3233 27.1014C31.8389 27.0326 32.3223 27.2535 32.6251 27.6328L33.4887 25.7966C30.272 26.0837 27.3666 24.3402 24.1613 25.0084C25.8366 25.3586 26.8528 26.125 27.3614 27.0084C27.0151 27.035 26.6801 27.0366 26.3563 27.0158L25.8455 26.5316L25.2019 26.8356C24.9195 26.7639 24.6476 26.6728 24.3842 26.564L24.0196 25.8333L23.5045 26.1153C23.1667 25.9084 22.8468 25.6707 22.5435 25.4039L22.4579 24.1404L21.5399 24.3779C21.1852 24.0175 20.8243 23.7318 20.4594 23.5115L20.3988 22.5786L19.2711 23.023C18.7179 22.8955 18.1632 22.8992 17.6149 23.0112C19.7038 18.7416 23.9472 18.6467 26.1555 19.9616C25.9086 20.2299 25.6176 20.4507 25.2994 20.6125L28.4434 23.9618C28.7707 23.7455 29.0872 23.5101 29.3807 23.2636C29.181 23.2539 28.7124 23.0269 28.5555 22.8829C26.9245 21.3837 28.8909 19.8668 30.1084 20.586C30.5564 20.8507 30.8342 21.2897 30.8613 21.7743L32.5027 20.6466C29.7151 19.0159 28.4831 16.0438 25.4839 14.7304C26.5746 15.9098 26.9816 17.0504 26.9467 18.025C26.5249 17.7061 26.0679 17.4535 25.5843 17.2604L24.9303 16.2567L24.0712 16.8589C23.8265 16.8233 23.5774 16.8001 23.3258 16.7881L22.4239 15.9334L21.7036 16.8634C21.3296 16.9138 20.9533 16.9858 20.5774 17.0789L19.8334 16.4649L19.3729 17.4479C19.0428 17.5685 18.7146 17.7039 18.3912 17.8539L17.2768 17.4628L16.8694 18.6849C16.2902 19.0518 15.7374 19.4638 15.2221 19.9159C16.85 13.411 24.9843 11.8309 29.1608 12.7554C29.1079 13.0765 29.0034 13.386 28.8552 13.6691L33.3587 14.5754C33.5 14.2093 33.6225 13.8334 33.7189 13.4624C33.5508 13.5706 33.3645 13.7142 33.1536 13.6854C30.9663 13.3873 31.0842 11.1005 32.7594 10.8601C33.2744 10.786 33.7584 11.011 34.0613 11.3901C34.1086 10.9091 34.1467 9.706 34.1646 9.22171C31.5511 9.45495 29.6445 8.56798 27.3024 8.58546V8.58541Z" fill="#AAAAAA"/>
<g style="mix-blend-mode:overlay">
<path d="M16.017 21.7565C15.2272 21.7565 23.9143 4.97437 23.9143 4.97437H31.8116L26.547 16.8206H32.4701L21.9399 34.59H13.3843L21.2818 21.7565H16.017Z" fill="#D9D9D9"/>
</g>
<path d="M19.9652 4.97437H15.3583L8.7771 19.4531H13.0549L19.9652 4.97437Z" fill="url(#paint1_linear_88_2587)"/>
<defs>
<filter id="filter0_d_88_2587" x="0.289307" y="0.596436" width="45.6155" height="45.6155" filterUnits="userSpaceOnUse" color-interpolation-filters="sRGB">
<feFlood flood-opacity="0" result="BackgroundImageFix"/>
<feColorMatrix in="SourceAlpha" type="matrix" values="0 0 0 0 0 0 0 0 0 0 0 0 0 0 0 0 0 0 127 0" result="hardAlpha"/>
<feOffset dy="4"/>
<feGaussianBlur stdDeviation="4"/>
<feComposite in2="hardAlpha" operator="out"/>
<feColorMatrix type="matrix" values="0 0 0 0 0 0 0 0 0 0 0 0 0 0 0 0 0 0 1 0"/>
<feBlend mode="normal" in2="BackgroundImageFix" result="effect1_dropShadow_88_2587"/>
<feBlend mode="normal" in="SourceGraphic" in2="effect1_dropShadow_88_2587" result="shape"/>
</filter>
<linearGradient id="paint0_linear_88_2587" x1="23.0971" y1="4.59644" x2="23.0971" y2="34.212" gradientUnits="userSpaceOnUse">
<stop stop-color="#111112"/>
<stop offset="1" stop-color="#1D1E1F"/>
</linearGradient>
<linearGradient id="paint1_linear_88_2587" x1="17.3327" y1="5.30343" x2="11.4096" y2="19.124" gradientUnits="userSpaceOnUse">
<stop stop-color="#303234"/>
<stop offset="1" stop-color="#303234" stop-opacity="0"/>
</linearGradient>
</defs>
</svg>
