<svg width="54" height="54" viewBox="0 0 54 54" fill="none" xmlns="http://www.w3.org/2000/svg">
<path d="M5.93555 38.9048V44.0641H11.4416M42.6792 44.0641H47.9996V38.9048M5.93555 7.66891V2H11.4416M47.9996 7.66891V2H42.6792" stroke="white" stroke-width="0.5"/>
<g filter="url(#filter0_d_88_3026)">
<rect x="8.41016" y="4.47437" width="37.1154" height="37.1154" fill="url(#paint0_linear_88_3026)"/>
</g>
<path d="M26.0568 10.0002C20.8272 9.99801 15.7948 12.5962 13 17.7994C14.2457 20.0767 15.6434 21.5572 16.1886 23.6636V26.5937C15.9093 27.1882 15.4812 27.6026 15.4812 28.2595C15.4812 28.7925 16.1632 29.3205 16.7144 29.3205C17.2538 29.3205 17.9809 28.7531 17.9808 28.1917C17.9808 27.5251 17.5521 27.1473 17.2844 26.6066V24.7136C18.2228 22.8277 22.0553 24.1622 23.4912 27.3891V32.1151C23.1181 32.7295 22.6923 33.1092 22.6923 33.8084C22.6923 34.8572 23.3821 35.2451 24.0959 35.2451C24.7941 35.2451 25.3622 34.9132 25.3622 33.8084C25.3622 33.2631 24.9258 32.8329 24.587 31.9868V27.4038C25.5063 25.265 27.8075 26.223 28.789 29.2363V33.6252C28.4718 34.2408 28.1018 34.7661 28.1018 35.52C28.1018 36.2781 28.6909 36.8212 29.3351 36.8212C29.9651 36.8212 30.6362 36.2507 30.6362 35.4522C30.6362 34.605 30.22 34.0792 29.8848 33.4254V28.4666H29.8719C30.7715 24.5976 32.9384 22.5186 33.9035 25.3824V28.888C33.6421 29.4132 33.3429 29.9068 33.3429 30.6234C33.3429 31.4411 33.9031 32.0272 34.4387 32.0272C34.9863 32.0272 35.4998 31.4676 35.4998 30.6912C35.4998 30.0561 35.2449 29.5762 34.9996 29.0751V24.9755C36.1717 20.8799 38.8961 19.8546 40.2954 17.7993C36.7135 12.6047 31.2863 10.0022 26.0568 10V10.0002ZM26.0824 11.2903C30.8757 11.2547 35.8215 13.5055 38.7563 18.0871C29.9711 24.4442 22.3225 24.4556 14.5393 17.7976C16.9339 13.508 21.4367 11.3248 26.0825 11.2902L26.0824 11.2903ZM26.3574 12.2303C23.7202 12.2303 21.5837 14.3688 21.5837 17.0059C21.5837 19.643 23.7202 21.7797 26.3574 21.7797C28.9945 21.7797 31.1329 19.6431 31.1329 17.0059C31.1329 14.3688 28.9944 12.2304 26.3573 12.2304L26.3574 12.2303ZM26.3263 15.1074C27.2721 15.1074 28.0378 15.8733 28.0378 16.8191C28.0378 17.765 27.2721 18.5325 26.3262 18.5325C25.3803 18.5325 24.6128 17.7649 24.6128 16.819C24.6128 15.8731 25.3803 15.1075 26.3262 15.1075L26.3263 15.1074Z" fill="#AAAAAA"/>
<g style="mix-blend-mode:overlay">
<path d="M18.3072 25.5064C17.3175 25.5064 28.2044 4.47437 28.2044 4.47437H38.1016L31.5038 19.3205H38.9269L25.73 41.5898H15.0078L24.9052 25.5064H18.3072Z" fill="#D9D9D9"/>
</g>
<path d="M23.2557 4.47461H17.4822L9.23438 22.6199H14.5955L23.2557 4.47461Z" fill="url(#paint1_linear_88_3026)"/>
<defs>
<filter id="filter0_d_88_3026" x="0.410156" y="0.474365" width="53.1152" height="53.1155" filterUnits="userSpaceOnUse" color-interpolation-filters="sRGB">
<feFlood flood-opacity="0" result="BackgroundImageFix"/>
<feColorMatrix in="SourceAlpha" type="matrix" values="0 0 0 0 0 0 0 0 0 0 0 0 0 0 0 0 0 0 127 0" result="hardAlpha"/>
<feOffset dy="4"/>
<feGaussianBlur stdDeviation="4"/>
<feComposite in2="hardAlpha" operator="out"/>
<feColorMatrix type="matrix" values="0 0 0 0 0 0 0 0 0 0 0 0 0 0 0 0 0 0 1 0"/>
<feBlend mode="normal" in2="BackgroundImageFix" result="effect1_dropShadow_88_3026"/>
<feBlend mode="normal" in="SourceGraphic" in2="effect1_dropShadow_88_3026" result="shape"/>
</filter>
<linearGradient id="paint0_linear_88_3026" x1="26.9678" y1="4.47437" x2="26.9678" y2="41.5898" gradientUnits="userSpaceOnUse">
<stop stop-color="#111112"/>
<stop offset="1" stop-color="#1D1E1F"/>
</linearGradient>
<linearGradient id="paint1_linear_88_3026" x1="19.9566" y1="4.887" x2="12.5335" y2="22.2075" gradientUnits="userSpaceOnUse">
<stop stop-color="#303234"/>
<stop offset="1" stop-color="#303234" stop-opacity="0"/>
</linearGradient>
</defs>
</svg>
