<svg width="79" height="98" viewBox="0 0 79 98" fill="none" xmlns="http://www.w3.org/2000/svg">
<path d="M3.99976 81.2917V90.0002H13.2934M66.0196 90.0002H75V81.2917M3.99976 28.5686V19H13.2934M75 28.5686V19H66.0196" stroke="#B0E901" stroke-width="0.5"/>
<g filter="url(#filter0_d_88_1469)">
<rect x="8.17651" y="23.1768" width="62.6473" height="62.6473" fill="url(#paint0_linear_88_1469)"/>
</g>
<path d="M27.4303 34.1009C29.4967 36.2491 30.6014 39.4376 30.8367 42.4962C34.2022 38.6622 38.5804 36.1417 43.3167 35.7478C38.0485 33.5372 32.9645 33.1352 27.4303 34.1009ZM36.2788 40.0514C32.9951 42.2609 29.6399 46.2504 26.0902 53.0531C25.4969 53.7998 24.4228 54.2192 23.5963 54.7205C22.6582 55.9071 22.0414 58.2701 22.8874 59.4465L25.8038 59.0885L30.6117 64.3464C31.6551 63.8145 32.8008 63.4462 33.8237 62.8222L34.7648 64.3976C31.4812 66.0445 27.8292 67.6403 24.4637 69.1236C28.5453 70.2079 32.0745 72.6528 34.0385 76.1206L36.9335 66.5048L38.693 67.0368L37.3529 71.4764C44.5852 76.7343 56.1138 79.0871 61.5354 70.8012L54.8556 72.1618C49.1475 70.8012 45.7002 66.4435 42.529 63.2007C47.4597 57.2676 54.4259 53.094 60.0828 49.7592L56.4105 48.102C55.2648 43.0793 50.9377 38.0321 46.4367 37.5891C42.8666 37.2904 38.7237 38.4443 36.2788 40.0514ZM16.0837 44C18.236 53.3088 18.5286 62.8529 17.0995 71.5275C20.3546 69.2054 23.85 64.8681 24.3205 61.1241C22.7022 61.3696 21.7959 61.6254 21.0502 59.9375C19.8625 57.0119 21.8501 53.6464 23.5574 52.5825C22.2992 49.5034 19.394 43.7749 16.0837 44ZM54.2725 48.1838L47.6131 49.5546L43.8896 45.1457C48.2473 43.9181 51.2036 45.8617 54.2725 48.1838ZM36.8619 45.739L38.4782 46.6289L34.7035 53.5134L35.6855 60.6843L33.8647 60.94L32.7906 53.1554L36.8619 45.739ZM61.5047 51.0788C60.0317 51.9687 59.8987 52.0097 58.6303 52.7666L62.9676 59.0885C62.9676 59.0885 61.515 51.0583 61.5047 51.0788ZM58.2313 53.0019C57.0549 53.6975 55.8888 54.4034 54.7431 55.1296L58.886 61.2571L58.2313 53.0019ZM54.518 55.2831C53.6485 55.8355 52.7892 56.4083 51.9606 56.9914L55.541 61.4003L54.518 55.2831ZM51.7765 57.1244C50.9275 57.7279 50.0989 58.3417 49.301 58.9862L53.1677 62.188L51.7765 57.1244ZM49.0248 59.2214C48.2985 59.8148 47.5926 60.4388 46.9175 61.0934L49.5056 62.1573L49.0248 59.2214ZM45.0762 63.1803C46.1094 64.2646 47.0812 65.3387 48.145 66.3309L49.0861 63.5281L45.0762 63.1803ZM63.2028 63.4053L58.5484 69.5328L62.0162 68.8167L63.2028 63.4053ZM52.4516 64.0191L48.5644 66.7197C49.3112 67.3846 50.1193 67.9984 51.04 68.561L52.4516 64.0191ZM59.019 64.0907L54.4873 70.1261C54.6408 70.1772 54.784 70.2284 54.9374 70.2693L58.0165 69.6351L59.019 64.0907ZM55.0704 64.4896L51.3571 68.7451C52.1959 69.2361 53.137 69.6658 54.2009 70.034L55.0704 64.4896Z" fill="#B0E901"/>
<g style="mix-blend-mode:overlay">
<path d="M24.8823 58.6769C23.2117 58.6769 41.5878 23.1768 41.5878 23.1768H58.2933L47.1569 48.2357H59.6863L37.4113 85.824H19.3132L36.0192 58.6769H24.8823Z" fill="#D9D9D9"/>
</g>
<path d="M33.2339 23.1768H23.4887L9.56714 53.8043H18.6162L33.2339 23.1768Z" fill="url(#paint1_linear_88_1469)"/>
<path d="M11.2107 5.15234H14.1326V3.30469L13.6208 2.79297H11.7224L11.2107 3.30469V5.15234ZM14.1326 5.94922H11.2107V8H10.4138V2.97266L11.3904 1.99609H13.9529L14.9294 2.97266V8H14.1326V5.94922ZM21.5532 3.48047V8.50781L20.5766 9.48828H18.0141L17.1548 8.625L17.7212 8.0625L18.3462 8.6875H20.2446L20.7563 8.17969V7.02344L20.1782 7.60156H18.0141L17.0376 6.62109V4.46094L18.0141 3.48047H20.1782L20.7563 4.0625V3.48047H21.5532ZM19.8462 6.80078L20.7563 5.89062V5.19141L19.8462 4.28125H18.3462L17.8344 4.78906V6.29297L18.3462 6.80078H19.8462ZM23.6613 3.48047H24.4621V4.05859L25.0402 3.48047H27.2004L28.3449 4.625L27.7785 5.19141L26.8683 4.28125H25.3683L24.4621 5.1875V8H23.6613V7.25391C23.6613 6.83464 23.6613 6.20573 23.6613 5.36719V3.48047ZM33.8241 8H31.2616L30.2851 7.02344V4.46094L31.2616 3.48047H33.8241L34.8007 4.46094V6.14062H31.0819V6.69141L31.5937 7.19922H33.4921L34.121 6.57422L34.6835 7.13672L33.8241 8ZM31.0819 5.33984H34.0038V4.78906L33.4921 4.28125H31.5937L31.0819 4.78906V5.33984ZM40.6276 4.99609V4.78906L40.1158 4.28125H38.2174L37.7057 4.78906V4.83203L38.2174 5.33984H40.4479L41.4244 6.32031V7.02344L40.4479 8H37.8854L36.9088 7.02344V6.48438H37.7057V6.69141L38.2174 7.19922H40.1158L40.6276 6.69141V6.64844L40.1158 6.14062H37.8854L36.9088 5.16406V4.46094L37.8854 3.48047H40.4479L41.4244 4.46094V4.99609H40.6276ZM47.2513 4.99609V4.78906L46.7396 4.28125H44.8412L44.3294 4.78906V4.83203L44.8412 5.33984H47.0716L48.0482 6.32031V7.02344L47.0716 8H44.5091L43.5326 7.02344V6.48438H44.3294V6.69141L44.8412 7.19922H46.7396L47.2513 6.69141V6.64844L46.7396 6.14062H44.5091L43.5326 5.16406V4.46094L44.5091 3.48047H47.0716L48.0482 4.46094V4.99609H47.2513ZM54.6719 7.19922V8H50.1563V7.19922H52.0157V4.28125H50.1563V3.48047H52.8126V7.19922H54.6719ZM52.8126 1.99609V2.79297H52.0157V1.99609H52.8126ZM58.8426 8L57.9519 7.10938L56.5926 3.48047H57.4402L58.6355 6.66406L59.0379 7.06641L59.4402 6.66406L60.6355 3.48047H61.4832L60.1238 7.10938L59.2332 8H58.8426ZM66.9429 8H64.3804L63.4038 7.02344V4.46094L64.3804 3.48047H66.9429L67.9194 4.46094V6.14062H64.2007V6.69141L64.7124 7.19922H66.6108L67.2398 6.57422L67.8023 7.13672L66.9429 8ZM64.2007 5.33984H67.1226V4.78906L66.6108 4.28125H64.7124L64.2007 4.78906V5.33984Z" fill="#B0E901"/>
<defs>
<filter id="filter0_d_88_1469" x="0.176514" y="19.1768" width="78.6472" height="78.6475" filterUnits="userSpaceOnUse" color-interpolation-filters="sRGB">
<feFlood flood-opacity="0" result="BackgroundImageFix"/>
<feColorMatrix in="SourceAlpha" type="matrix" values="0 0 0 0 0 0 0 0 0 0 0 0 0 0 0 0 0 0 127 0" result="hardAlpha"/>
<feOffset dy="4"/>
<feGaussianBlur stdDeviation="4"/>
<feComposite in2="hardAlpha" operator="out"/>
<feColorMatrix type="matrix" values="0 0 0 0 0 0 0 0 0 0 0 0 0 0 0 0 0 0 1 0"/>
<feBlend mode="normal" in2="BackgroundImageFix" result="effect1_dropShadow_88_1469"/>
<feBlend mode="normal" in="SourceGraphic" in2="effect1_dropShadow_88_1469" result="shape"/>
</filter>
<linearGradient id="paint0_linear_88_1469" x1="39.5001" y1="23.1768" x2="39.5001" y2="85.824" gradientUnits="userSpaceOnUse">
<stop stop-color="#111112"/>
<stop offset="1" stop-color="#1D1E1F"/>
</linearGradient>
<linearGradient id="paint1_linear_88_1469" x1="27.6652" y1="23.8728" x2="15.1358" y2="53.1082" gradientUnits="userSpaceOnUse">
<stop stop-color="#303234"/>
<stop offset="1" stop-color="#303234" stop-opacity="0"/>
</linearGradient>
</defs>
</svg>
