<svg width="277" height="93" viewBox="0 0 277 93" fill="none" xmlns="http://www.w3.org/2000/svg">
<path d="M77.8856 3V2.5H77.6568L77.5072 2.67314L77.8856 3ZM271.333 3C271.333 4.47276 272.527 5.66667 274 5.66667C275.473 5.66667 276.667 4.47276 276.667 3C276.667 1.52724 275.473 0.333333 274 0.333333C272.527 0.333333 271.333 1.52724 271.333 3ZM1.37837 92.3269L2.04117 91.5596L1.28444 90.9059L0.621635 91.6731L1.37837 92.3269ZM3.36679 90.0251L4.6924 88.4907L3.93567 87.8369L2.61005 89.3714L3.36679 90.0251ZM6.01801 86.9562L7.34363 85.4217L6.5869 84.768L5.26128 86.3024L6.01801 86.9562ZM8.66924 83.8872L9.99485 82.3527L9.23812 81.699L7.91251 83.2335L8.66924 83.8872ZM11.3205 80.8182L12.6461 79.2838L11.8894 78.63L10.5637 80.1645L11.3205 80.8182ZM13.9717 77.7493L15.2973 76.2148L14.5406 75.5611L13.215 77.0956L13.9717 77.7493ZM16.6229 74.6803L17.9485 73.1458L17.1918 72.4921L15.8662 74.0266L16.6229 74.6803ZM19.2741 71.6113L20.5998 70.0769L19.843 69.4231L18.5174 70.9576L19.2741 71.6113ZM21.9254 68.5424L23.251 67.0079L22.4943 66.3542L21.1686 67.8887L21.9254 68.5424ZM24.5766 65.4734L25.9022 63.9389L25.1455 63.2852L23.8199 64.8197L24.5766 65.4734ZM27.2278 62.4045L28.5534 60.87L27.7967 60.2162L26.4711 61.7507L27.2278 62.4045ZM29.8791 59.3355L31.2047 57.801L30.4479 57.1473L29.1223 58.6818L29.8791 59.3355ZM32.5303 56.2665L33.8559 54.732L33.0992 54.0783L31.7736 55.6128L32.5303 56.2665ZM35.1815 53.1976L36.5071 51.6631L35.7504 51.0094L34.4248 52.5438L35.1815 53.1976ZM37.8327 50.1286L39.1583 48.5941L38.4016 47.9404L37.076 49.4749L37.8327 50.1286ZM40.484 47.0596L41.8096 45.5251L41.0528 44.8714L39.7272 46.4059L40.484 47.0596ZM43.1352 43.9907L44.4608 42.4562L43.7041 41.8025L42.3785 43.3369L43.1352 43.9907ZM45.7864 40.9217L47.112 39.3872L46.3553 38.7335L45.0297 40.268L45.7864 40.9217ZM48.4376 37.8527L49.7633 36.3183L49.0065 35.6645L47.6809 37.199L48.4376 37.8527ZM51.0889 34.7838L52.4145 33.2493L51.6577 32.5956L50.3321 34.13L51.0889 34.7838ZM53.7401 31.7148L55.0657 30.1803L54.309 29.5266L52.9834 31.0611L53.7401 31.7148ZM56.3913 28.6458L57.7169 27.1114L56.9602 26.4576L55.6346 27.9921L56.3913 28.6458ZM59.0425 25.5769L60.3682 24.0424L59.6114 23.3887L58.2858 24.9231L59.0425 25.5769ZM61.6938 22.5079L63.0194 20.9734L62.2627 20.3197L60.937 21.8542L61.6938 22.5079ZM64.345 19.4389L65.6706 17.9045L64.9139 17.2507L63.5883 18.7852L64.345 19.4389ZM66.9962 16.37L68.3218 14.8355L67.5651 14.1818L66.2395 15.7163L66.9962 16.37ZM69.6475 13.301L70.9731 11.7665L70.2163 11.1128L68.8907 12.6473L69.6475 13.301ZM72.2987 10.2321L73.6243 8.69757L72.8676 8.04385L71.5419 9.57833L72.2987 10.2321ZM74.9499 7.16309L76.2755 5.62861L75.5188 4.97488L74.1932 6.50936L74.9499 7.16309ZM77.6011 4.09413L78.264 3.32686L77.5072 2.67314L76.8444 3.4404L77.6011 4.09413ZM77.8856 3.5H78.8862V2.5H77.8856V3.5ZM80.8873 3.5H82.8885V2.5H80.8873V3.5ZM84.8897 3.5H86.8908V2.5H84.8897V3.5ZM88.892 3.5H90.8932V2.5H88.892V3.5ZM92.8943 3.5H94.8955V2.5H92.8943V3.5ZM96.8967 3.5H98.8979V2.5H96.8967V3.5ZM100.899 3.5H102.9V2.5H100.899V3.5ZM104.901 3.5H106.903V2.5H104.901V3.5ZM108.904 3.5H110.905V2.5H108.904V3.5ZM112.906 3.5H114.907V2.5H112.906V3.5ZM116.908 3.5H118.91V2.5H116.908V3.5ZM120.911 3.5H122.912V2.5H120.911V3.5ZM124.913 3.5H126.914V2.5H124.913V3.5ZM128.915 3.5H130.917V2.5H128.915V3.5ZM132.918 3.5H134.919V2.5H132.918V3.5ZM136.92 3.5H138.921V2.5H136.92V3.5ZM140.922 3.5H142.924V2.5H140.922V3.5ZM144.925 3.5H146.926V2.5H144.925V3.5ZM148.927 3.5H150.928V2.5H148.927V3.5ZM152.929 3.5H154.931V2.5H152.929V3.5ZM156.932 3.5H158.933V2.5H156.932V3.5ZM160.934 3.5H162.935V2.5H160.934V3.5ZM164.936 3.5H166.938V2.5H164.936V3.5ZM168.939 3.5H170.94V2.5H168.939V3.5ZM172.941 3.5H174.942V2.5H172.941V3.5ZM176.943 3.5H178.945V2.5H176.943V3.5ZM180.946 3.5H182.947V2.5H180.946V3.5ZM184.948 3.5H186.949V2.5H184.948V3.5ZM188.95 3.5H190.952V2.5H188.95V3.5ZM192.953 3.5H194.954V2.5H192.953V3.5ZM196.955 3.5H198.956V2.5H196.955V3.5ZM200.957 3.5H202.959V2.5H200.957V3.5ZM204.96 3.5H206.961V2.5H204.96V3.5ZM208.962 3.5H210.963V2.5H208.962V3.5ZM212.964 3.5H214.966V2.5H212.964V3.5ZM216.967 3.5H218.968V2.5H216.967V3.5ZM220.969 3.5H222.97V2.5H220.969V3.5ZM224.971 3.5H226.973V2.5H224.971V3.5ZM228.974 3.5H230.975V2.5H228.974V3.5ZM232.976 3.5H234.977V2.5H232.976V3.5ZM236.979 3.5H238.98V2.5H236.979V3.5ZM240.981 3.5H242.982V2.5H240.981V3.5ZM244.983 3.5H246.984V2.5H244.983V3.5ZM248.986 3.5H250.987V2.5H248.986V3.5ZM252.988 3.5H254.989V2.5H252.988V3.5ZM256.99 3.5H258.991V2.5H256.99V3.5ZM260.993 3.5H262.994V2.5H260.993V3.5ZM264.995 3.5H266.996V2.5H264.995V3.5ZM268.997 3.5H270.998V2.5H268.997V3.5ZM273 3.5H274V2.5H273V3.5Z" fill="white"/>
</svg>
