<svg width="398" height="53" viewBox="0 0 398 53" fill="none" xmlns="http://www.w3.org/2000/svg">
<path d="M151.293 3V2.5H151.214L151.138 2.52463L151.293 3ZM392.333 3C392.333 4.47276 393.527 5.66667 395 5.66667C396.473 5.66667 397.667 4.47276 397.667 3C397.667 1.52724 396.473 0.333333 395 0.333333C393.527 0.333333 392.333 1.52724 392.333 3ZM1.15499 52.4754L2.09432 52.1691L1.78435 51.2184L0.845015 51.5246L1.15499 52.4754ZM3.97299 51.5566L5.85165 50.9441L5.54168 49.9934L3.66302 50.6059L3.97299 51.5566ZM7.73032 50.3316L9.60899 49.7191L9.29902 48.7684L7.42035 49.3809L7.73032 50.3316ZM11.4877 49.1066L13.3663 48.4941L13.0564 47.5434L11.1777 48.1559L11.4877 49.1066ZM15.245 47.8816L17.1237 47.2691L16.8137 46.3184L14.935 46.9309L15.245 47.8816ZM19.0023 46.6566L20.881 46.0441L20.571 45.0934L18.6924 45.7059L19.0023 46.6566ZM22.7597 45.4316L24.6383 44.8191L24.3284 43.8684L22.4497 44.4809L22.7597 45.4316ZM26.517 44.2066L28.3957 43.5941L28.0857 42.6434L26.207 43.2559L26.517 44.2066ZM30.2743 42.9816L32.153 42.3691L31.843 41.4184L29.9644 42.0309L30.2743 42.9816ZM34.0317 41.7566L35.9103 41.1441L35.6004 40.1934L33.7217 40.8059L34.0317 41.7566ZM37.789 40.5316L39.6677 39.9191L39.3577 38.9684L37.479 39.5809L37.789 40.5316ZM41.5463 39.3066L43.425 38.6941L43.115 37.7434L41.2364 38.3559L41.5463 39.3066ZM45.3037 38.0816L47.1823 37.4691L46.8724 36.5184L44.9937 37.1309L45.3037 38.0816ZM49.061 36.8566L50.9397 36.2441L50.6297 35.2934L48.751 35.9059L49.061 36.8566ZM52.8184 35.6316L54.697 35.0191L54.3871 34.0684L52.5084 34.6809L52.8184 35.6316ZM56.5757 34.4066L58.4544 33.7941L58.1444 32.8434L56.2657 33.4559L56.5757 34.4066ZM60.333 33.1816L62.2117 32.5691L61.9017 31.6184L60.0231 32.2309L60.333 33.1816ZM64.0904 31.9566L65.969 31.3441L65.659 30.3934L63.7804 31.0059L64.0904 31.9566ZM67.8477 30.7316L69.7263 30.1191L69.4164 29.1684L67.5377 29.7809L67.8477 30.7316ZM71.605 29.5066L73.4837 28.8941L73.1737 27.9434L71.295 28.5559L71.605 29.5066ZM75.3624 28.2816L77.241 27.6691L76.931 26.7184L75.0524 27.3309L75.3624 28.2816ZM79.1197 27.0566L80.9983 26.4441L80.6884 25.4934L78.8097 26.1059L79.1197 27.0566ZM82.877 25.8316L84.7557 25.2191L84.4457 24.2684L82.567 24.8809L82.877 25.8316ZM86.6343 24.6066L88.513 23.9941L88.203 23.0434L86.3244 23.6559L86.6343 24.6066ZM90.3917 23.3816L92.2703 22.7691L91.9604 21.8184L90.0817 22.4309L90.3917 23.3816ZM94.149 22.1566L96.0277 21.5441L95.7177 20.5934L93.839 21.2059L94.149 22.1566ZM97.9063 20.9316L99.785 20.3191L99.475 19.3684L97.5964 19.9809L97.9063 20.9316ZM101.664 19.7066L103.542 19.0941L103.232 18.1434L101.354 18.7559L101.664 19.7066ZM105.421 18.4816L107.3 17.8691L106.99 16.9184L105.111 17.5309L105.421 18.4816ZM109.178 17.2566L111.057 16.6441L110.747 15.6934L108.868 16.3059L109.178 17.2566ZM112.936 16.0316L114.814 15.4191L114.504 14.4684L112.626 15.0809L112.936 16.0316ZM116.693 14.8066L118.572 14.1941L118.262 13.2434L116.383 13.8559L116.693 14.8066ZM120.45 13.5816L122.329 12.9691L122.019 12.0184L120.14 12.6309L120.45 13.5816ZM124.208 12.3566L126.086 11.7441L125.776 10.7934L123.898 11.4059L124.208 12.3566ZM127.965 11.1316L129.844 10.5191L129.534 9.5684L127.655 10.1809L127.965 11.1316ZM131.722 9.90664L133.601 9.29414L133.291 8.34339L131.412 8.9559L131.722 9.90664ZM135.48 8.68164L137.358 8.06914L137.048 7.11839L135.17 7.73089L135.48 8.68164ZM139.237 7.45664L141.116 6.84413L140.806 5.89339L138.927 6.50589L139.237 7.45664ZM142.994 6.23163L144.873 5.61913L144.563 4.66839L142.684 5.28089L142.994 6.23163ZM146.752 5.00663L148.63 4.39413L148.32 3.44338L146.442 4.05588L146.752 5.00663ZM150.509 3.78163L151.448 3.47537L151.138 2.52463L150.199 2.83088L150.509 3.78163ZM151.293 3.5H152.292V2.5H151.293V3.5ZM154.29 3.5H156.287V2.5H154.29V3.5ZM158.285 3.5H160.283V2.5H158.285V3.5ZM162.28 3.5H164.278V2.5H162.28V3.5ZM166.275 3.5H168.273V2.5H166.275V3.5ZM170.271 3.5H172.268V2.5H170.271V3.5ZM174.266 3.5H176.263V2.5H174.266V3.5ZM178.261 3.5H180.259V2.5H178.261V3.5ZM182.256 3.5H184.254V2.5H182.256V3.5ZM186.251 3.5H188.249V2.5H186.251V3.5ZM190.247 3.5H192.244V2.5H190.247V3.5ZM194.242 3.5H196.239V2.5H194.242V3.5ZM198.237 3.5H200.234V2.5H198.237V3.5ZM202.232 3.5H204.23V2.5H202.232V3.5ZM206.227 3.5H208.225V2.5H206.227V3.5ZM210.222 3.5H212.22V2.5H210.222V3.5ZM214.218 3.5H216.215V2.5H214.218V3.5ZM218.213 3.5H220.21V2.5H218.213V3.5ZM222.208 3.5H224.206V2.5H222.208V3.5ZM226.203 3.5H228.201V2.5H226.203V3.5ZM230.198 3.5H232.196V2.5H230.198V3.5ZM234.194 3.5H236.191V2.5H234.194V3.5ZM238.189 3.5H240.186V2.5H238.189V3.5ZM242.184 3.5H244.182V2.5H242.184V3.5ZM246.179 3.5H248.177V2.5H246.179V3.5ZM250.174 3.5H252.172V2.5H250.174V3.5ZM254.17 3.5H256.167V2.5H254.17V3.5ZM258.165 3.5H260.162V2.5H258.165V3.5ZM262.16 3.5H264.158V2.5H262.16V3.5ZM266.155 3.5H268.153V2.5H266.155V3.5ZM270.15 3.5H272.148V2.5H270.15V3.5ZM274.146 3.5H276.143V2.5H274.146V3.5ZM278.141 3.5H280.138V2.5H278.141V3.5ZM282.136 3.5H284.134V2.5H282.136V3.5ZM286.131 3.5H288.129V2.5H286.131V3.5ZM290.126 3.5H292.124V2.5H290.126V3.5ZM294.121 3.5H296.119V2.5H294.121V3.5ZM298.117 3.5H300.114V2.5H298.117V3.5ZM302.112 3.5H304.109V2.5H302.112V3.5ZM306.107 3.5H308.105V2.5H306.107V3.5ZM310.102 3.5H312.1V2.5H310.102V3.5ZM314.097 3.5H316.095V2.5H314.097V3.5ZM318.093 3.5H320.09V2.5H318.093V3.5ZM322.088 3.5H324.085V2.5H322.088V3.5ZM326.083 3.5H328.081V2.5H326.083V3.5ZM330.078 3.5H332.076V2.5H330.078V3.5ZM334.073 3.5H336.071V2.5H334.073V3.5ZM338.068 3.5H340.066V2.5H338.068V3.5ZM342.064 3.5H344.061V2.5H342.064V3.5ZM346.059 3.5H348.056V2.5H346.059V3.5ZM350.054 3.5H352.052V2.5H350.054V3.5ZM354.049 3.5H356.047V2.5H354.049V3.5ZM358.044 3.5H360.042V2.5H358.044V3.5ZM362.04 3.5H364.037V2.5H362.04V3.5ZM366.035 3.5H368.032V2.5H366.035V3.5ZM370.03 3.5H372.027V2.5H370.03V3.5ZM374.025 3.5H376.023V2.5H374.025V3.5ZM378.02 3.5H380.018V2.5H378.02V3.5ZM382.015 3.5H384.013V2.5H382.015V3.5ZM386.011 3.5H388.008V2.5H386.011V3.5ZM390.006 3.5H392.003V2.5H390.006V3.5ZM394.001 3.5H395V2.5H394.001V3.5Z" fill="white"/>
</svg>
