<svg width="339" height="75" viewBox="0 0 339 75" fill="none" xmlns="http://www.w3.org/2000/svg">
<path d="M138 3V2.5H137.877L137.769 2.55674L138 3ZM333.333 3C333.333 4.47276 334.527 5.66667 336 5.66667C337.473 5.66667 338.667 4.47276 338.667 3C338.667 1.52724 337.473 0.333333 336 0.333333C334.527 0.333333 333.333 1.52724 333.333 3ZM1.23134 74.9433L2.10954 74.4849L1.64687 73.5984L0.768662 74.0567L1.23134 74.9433ZM3.86595 73.5683L5.62236 72.6516L5.15969 71.7651L3.40328 72.6817L3.86595 73.5683ZM7.37877 71.7349L9.13518 70.8183L8.67251 69.9317L6.9161 70.8484L7.37877 71.7349ZM10.8916 69.9016L12.648 68.9849L12.1853 68.0984L10.4289 69.0151L10.8916 69.9016ZM14.4044 68.0683L16.1608 67.1516L15.6981 66.2651L13.9417 67.1817L14.4044 68.0683ZM17.9172 66.2349L19.6736 65.3183L19.211 64.4317L17.4546 65.3484L17.9172 66.2349ZM21.4301 64.4016L23.1865 63.4849L22.7238 62.5984L20.9674 63.5151L21.4301 64.4016ZM24.9429 62.5683L26.6993 61.6516L26.2366 60.7651L24.4802 61.6817L24.9429 62.5683ZM28.4557 60.7349L30.2121 59.8183L29.7494 58.9317L27.993 59.8484L28.4557 60.7349ZM31.9685 58.9016L33.7249 57.9849L33.2622 57.0984L31.5058 58.0151L31.9685 58.9016ZM35.4813 57.0683L37.2377 56.1516L36.7751 55.2651L35.0187 56.1817L35.4813 57.0683ZM38.9942 55.2349L40.7506 54.3183L40.2879 53.4317L38.5315 54.3484L38.9942 55.2349ZM42.507 53.4016L44.2634 52.4849L43.8007 51.5984L42.0443 52.5151L42.507 53.4016ZM46.0198 51.5683L47.7762 50.6516L47.3135 49.7651L45.5571 50.6817L46.0198 51.5683ZM49.5326 49.7349L51.289 48.8183L50.8263 47.9317L49.0699 48.8484L49.5326 49.7349ZM53.0454 47.9016L54.8018 46.9849L54.3392 46.0984L52.5827 47.0151L53.0454 47.9016ZM56.5582 46.0683L58.3147 45.1516L57.852 44.2651L56.0956 45.1817L56.5582 46.0683ZM60.0711 44.2349L61.8275 43.3183L61.3648 42.4318L59.6084 43.3484L60.0711 44.2349ZM63.5839 42.4016L65.3403 41.4849L64.8776 40.5984L63.1212 41.5151L63.5839 42.4016ZM67.0967 40.5683L68.8531 39.6516L68.3904 38.7651L66.634 39.6818L67.0967 40.5683ZM70.6095 38.7349L72.3659 37.8183L71.9032 36.9318L70.1468 37.8484L70.6095 38.7349ZM74.1223 36.9016L75.8787 35.985L75.4161 35.0984L73.6597 36.0151L74.1223 36.9016ZM77.6351 35.0683L79.3916 34.1516L78.9289 33.2651L77.1725 34.1818L77.6351 35.0683ZM81.148 33.2349L82.9044 32.3183L82.4417 31.4318L80.6853 32.3484L81.148 33.2349ZM84.6608 31.4016L86.4172 30.485L85.9545 29.5984L84.1981 30.5151L84.6608 31.4016ZM88.1736 29.5683L89.93 28.6516L89.4673 27.7651L87.7109 28.6818L88.1736 29.5683ZM91.6864 27.735L93.4428 26.8183L92.9801 25.9318L91.2237 26.8484L91.6864 27.735ZM95.1992 25.9016L96.9557 24.985L96.493 24.0984L94.7366 25.0151L95.1992 25.9016ZM98.7121 24.0683L100.468 23.1516L100.006 22.2651L98.2494 23.1818L98.7121 24.0683ZM102.225 22.235L103.981 21.3183L103.519 20.4318L101.762 21.3484L102.225 22.235ZM105.738 20.4016L107.494 19.485L107.031 18.5984L105.275 19.5151L105.738 20.4016ZM109.251 18.5683L111.007 17.6516L110.544 16.7651L108.788 17.6818L109.251 18.5683ZM112.763 16.735L114.52 15.8183L114.057 14.9318L112.301 15.8484L112.763 16.735ZM116.276 14.9016L118.033 13.985L117.57 13.0984L115.813 14.0151L116.276 14.9016ZM119.789 13.0683L121.545 12.1516L121.083 11.2651L119.326 12.1818L119.789 13.0683ZM123.302 11.235L125.058 10.3183L124.596 9.43176L122.839 10.3484L123.302 11.235ZM126.815 9.40162L128.571 8.48494L128.108 7.59842L126.352 8.51509L126.815 9.40162ZM130.327 7.56827L132.084 6.65161L131.621 5.76508L129.865 6.68175L130.327 7.56827ZM133.84 5.73494L135.597 4.81827L135.134 3.93174L133.378 4.84841L133.84 5.73494ZM137.353 3.9016L138.231 3.44326L137.769 2.55674L136.89 3.01507L137.353 3.9016ZM138 3.5H138.99V2.5H138V3.5ZM140.97 3.5H142.95V2.5H140.97V3.5ZM144.93 3.5H146.91V2.5H144.93V3.5ZM148.89 3.5H150.87V2.5H148.89V3.5ZM152.85 3.5H154.83V2.5H152.85V3.5ZM156.81 3.5H158.79V2.5H156.81V3.5ZM160.77 3.5H162.75V2.5H160.77V3.5ZM164.73 3.5H166.71V2.5H164.73V3.5ZM168.69 3.5H170.67V2.5H168.69V3.5ZM172.65 3.5H174.63V2.5H172.65V3.5ZM176.61 3.5H178.59V2.5H176.61V3.5ZM180.57 3.5H182.55V2.5H180.57V3.5ZM184.53 3.5H186.51V2.5H184.53V3.5ZM188.49 3.5H190.47V2.5H188.49V3.5ZM192.45 3.5H194.43V2.5H192.45V3.5ZM196.41 3.5H198.39V2.5H196.41V3.5ZM200.37 3.5H202.35V2.5H200.37V3.5ZM204.33 3.5H206.31V2.5H204.33V3.5ZM208.29 3.5H210.27V2.5H208.29V3.5ZM212.25 3.5H214.23V2.5H212.25V3.5ZM216.21 3.5H218.19V2.5H216.21V3.5ZM220.17 3.5H222.15V2.5H220.17V3.5ZM224.13 3.5H226.11V2.5H224.13V3.5ZM228.09 3.5H230.07V2.5H228.09V3.5ZM232.05 3.5H234.03V2.5H232.05V3.5ZM236.01 3.5H237.99V2.5H236.01V3.5ZM239.97 3.5H241.95V2.5H239.97V3.5ZM243.93 3.5H245.91V2.5H243.93V3.5ZM247.89 3.5H249.87V2.5H247.89V3.5ZM251.85 3.5H253.83V2.5H251.85V3.5ZM255.81 3.5H257.79V2.5H255.81V3.5ZM259.77 3.5H261.75V2.5H259.77V3.5ZM263.73 3.5H265.71V2.5H263.73V3.5ZM267.69 3.5H269.67V2.5H267.69V3.5ZM271.65 3.5H273.63V2.5H271.65V3.5ZM275.61 3.5H277.59V2.5H275.61V3.5ZM279.57 3.5H281.55V2.5H279.57V3.5ZM283.53 3.5H285.51V2.5H283.53V3.5ZM287.49 3.5H289.47V2.5H287.49V3.5ZM291.45 3.5H293.43V2.5H291.45V3.5ZM295.41 3.5H297.39V2.5H295.41V3.5ZM299.37 3.5H301.35V2.5H299.37V3.5ZM303.33 3.5H305.31V2.5H303.33V3.5ZM307.29 3.5H309.27V2.5H307.29V3.5ZM311.25 3.5H313.23V2.5H311.25V3.5ZM315.21 3.5H317.19V2.5H315.21V3.5ZM319.17 3.5H321.15V2.5H319.17V3.5ZM323.13 3.5H325.11V2.5H323.13V3.5ZM327.09 3.5H329.07V2.5H327.09V3.5ZM331.05 3.5H333.03V2.5H331.05V3.5ZM335.01 3.5H336V2.5H335.01V3.5Z" fill="white"/>
</svg>
