<svg width="55" height="43" viewBox="0 0 55 43" fill="none" xmlns="http://www.w3.org/2000/svg">
<path fill-rule="evenodd" clip-rule="evenodd" d="M31.5278 0.958944C31.4307 0.971026 31.3213 1.01671 31.2847 1.06046C31.2482 1.10421 31.1493 1.14002 31.0651 1.14002C30.9809 1.14002 30.8808 1.17726 30.8427 1.22278C30.8047 1.2683 30.6898 1.30554 30.5874 1.30554C30.485 1.30554 30.2567 1.36915 30.08 1.44689C29.3604 1.76358 26.4803 2.72733 24.9784 3.15393C23.4586 3.58571 20.3525 4.34003 20.0945 4.34003C19.9874 4.34003 19.9772 4.27785 20.0693 4.18648C20.211 4.04585 20.0398 4.06174 19.3746 4.25109C18.6741 4.45049 17.6648 4.87493 17.5845 5.00381C17.5529 5.05451 17.4993 5.0234 17.391 4.8917C17.2016 4.66147 17.0909 4.70853 17.1402 4.99829C17.1639 5.13771 17.1518 5.22191 17.1025 5.25992C16.9631 5.3674 16.8378 5.38307 16.7573 5.30323C16.708 5.25424 16.5678 5.22279 16.3989 5.22279C16.1418 5.22279 16.1188 5.23399 16.0857 5.37452C16.0313 5.60591 15.3544 6.05038 15.0564 6.05038C14.866 6.05038 14.823 6.02859 14.7772 5.90914C14.7469 5.82991 14.6968 5.78401 14.6633 5.80459C14.6304 5.82478 14.3364 6.03973 14.01 6.28227C13.1845 6.89573 12.0496 7.52912 11.8779 7.47229C11.7206 7.42026 14.5956 4.94847 16.3552 3.62279C16.6352 3.41181 16.6824 3.22273 16.4627 3.19172C16.3317 3.17324 16.1857 3.26096 14.9962 4.07294C12.8082 5.56652 12.5372 5.7551 11.023 6.83653C9.83014 7.68851 9.83031 7.6884 10.1549 7.37982C10.3175 7.22517 10.4144 7.09866 10.3702 7.09866C10.326 7.09866 9.94276 7.32652 9.51864 7.60509C8.68791 8.15058 7.83028 8.93177 7.62045 9.33409C7.52495 9.51715 7.49922 9.53712 7.46614 9.45365C7.43835 9.38341 7.47554 9.30098 7.5906 9.17778C7.81361 8.93905 7.91711 8.76487 8.13167 8.26749C8.30426 7.86732 8.63989 7.31455 9.06812 6.72531C9.48773 6.14776 9.42131 6.19107 8.74506 6.93579C8.27625 7.45209 8.15574 7.55433 7.95702 7.60398C7.76402 7.65226 7.69632 7.70688 7.57526 7.91196C7.49427 8.04906 7.36848 8.2484 7.29566 8.35488C7.22284 8.46142 7.16326 8.6041 7.16326 8.67202C7.16326 8.73993 7.12512 8.82694 7.07849 8.86534C7.03185 8.90374 6.86737 9.07985 6.71307 9.25668L6.43247 9.57823L6.52824 9.73916C6.6233 9.89889 6.60757 10.078 6.49851 10.078C6.46721 10.078 6.38517 9.99141 6.31607 9.88554C6.24704 9.77972 6.17561 9.69282 6.15738 9.69243C6.12464 9.69177 5.57751 10.2711 4.54261 11.4021C4.25107 11.7207 3.93423 12.0669 3.83846 12.1714C3.74268 12.2759 3.65486 12.3504 3.64324 12.3369C3.63168 12.3235 3.59972 12.2715 3.57226 12.2214C3.53096 12.146 3.3672 12.273 2.61852 12.961C2.12136 13.4179 1.72231 13.7993 1.73171 13.8087C1.74116 13.818 1.88523 13.7896 2.05199 13.7456C2.21869 13.7015 2.39229 13.6652 2.4377 13.6649C2.48311 13.6645 2.1954 13.9931 1.7983 14.3952C0.231672 15.9814 -0.0282464 16.2549 0.00199223 16.2849C0.0857042 16.368 1.23327 16.6457 1.72993 16.703C2.44815 16.7859 4.23356 16.7391 4.93983 16.6189C6.6432 16.329 7.99104 15.8918 10.0537 14.9599C12.2213 13.9807 14.4187 13.5236 17.0575 13.5031C18.0191 13.4956 19.622 13.5988 20.4482 13.7215C21.0588 13.8121 22.4493 14.1183 22.4493 14.162C22.4493 14.1848 22.3305 14.2205 22.1853 14.2415C22.04 14.2624 21.471 14.3906 20.9207 14.5264C16.0903 15.7184 11.8671 18.0517 9.15005 21.0297C7.50255 22.8355 6.36121 24.8341 5.66845 27.1263C4.10688 32.2933 5.86061 36.8317 10.6312 39.9692C11.2716 40.3904 12.7318 41.1661 13.5532 41.5214C14.5645 41.9589 16.2347 42.4618 17.4113 42.6831C18.2693 42.8445 19.7284 42.9759 20.2537 42.9391C20.4982 42.9219 22.0672 42.9031 23.7402 42.8972C25.4132 42.8912 26.8094 42.8696 26.843 42.8491C26.8764 42.8285 26.7082 42.7804 26.4692 42.7422C25.8829 42.6484 25.2937 42.466 25.3983 42.4107C25.4425 42.3873 25.7038 42.3515 25.979 42.331C26.7032 42.2774 27.9362 42.0937 28.2882 41.987L28.5915 41.8951L28.2858 41.801C28.1124 41.7476 28.0161 41.6945 28.0634 41.6782C28.1093 41.6625 28.7472 41.5696 29.4809 41.4719C30.8912 41.2841 32.4727 40.9333 32.978 40.696C33.2635 40.5619 33.2631 40.5598 32.9272 40.4514C32.8348 40.4215 32.8301 40.4078 32.8994 40.3702C32.9453 40.3453 33.0953 40.3071 33.2329 40.2852C34.349 40.1076 36.5174 39.4568 38.0689 38.8337C39.2165 38.3728 41.4021 37.385 41.4033 37.3267C41.4037 37.3079 41.0493 37.4143 40.6157 37.5631C39.5614 37.925 38.1001 38.2825 36.846 38.4852C35.5512 38.6946 35.234 38.7333 35.234 38.682C35.234 38.6595 35.3208 38.536 35.4268 38.4076C35.612 38.1832 35.6296 38.1751 35.8717 38.2022C36.0794 38.2254 36.1623 38.2051 36.3428 38.0866C36.6753 37.8681 36.9594 37.5628 37.0782 37.2963C37.1745 37.0802 37.1965 37.0626 37.3004 37.1177C37.4405 37.1921 37.6366 37.0674 37.8371 36.7764C38.0423 36.4787 37.9457 36.1217 37.6265 35.9981C37.488 35.9444 37.4967 35.9326 38.0627 35.405L38.6402 34.8667L38.5238 34.7069C38.4597 34.619 38.4 34.4749 38.391 34.3866C38.3771 34.2505 38.399 34.2196 38.5366 34.1821C38.6846 34.1417 38.7885 34.0507 38.7906 33.9594C38.7911 33.9396 38.7039 33.8721 38.5969 33.8095C38.3674 33.6751 38.3516 33.6061 38.5397 33.5593C38.6153 33.5404 38.7067 33.4694 38.7428 33.4015C38.8284 33.2407 39.7117 32.0771 40.1767 31.5125C40.9458 30.5789 41.691 29.7672 42.6547 28.8139L43.6552 27.8242L42.9454 28.1925C42.5551 28.3951 42.2183 28.5608 42.1971 28.5608C42.1214 28.5608 42.7187 27.9923 43.1827 27.6227C43.7779 27.1488 44.9322 26.3363 45.7501 25.8157C46.096 25.5956 46.759 25.1735 47.2234 24.8778C48.2247 24.2403 48.7728 23.8188 49.4489 23.1665C49.9346 22.6978 50.5228 21.9697 50.5955 21.747C50.637 21.6198 50.6497 21.606 50.2261 22.1482C49.6458 22.8909 48.3965 23.8679 47.5027 24.2776C46.5166 24.7297 46.0813 24.7954 43.822 24.8327C42.1656 24.86 40.542 24.9568 39.5796 25.0856C38.9488 25.1701 38.8952 25.1466 39.3473 24.984C39.5766 24.9015 39.9143 24.7501 40.0977 24.6477C40.4834 24.4323 41.03 24.0332 40.9915 23.995C40.9771 23.9807 40.7052 24.0337 40.3873 24.1127C39.7593 24.2688 38.5847 24.4228 38.0223 24.4228C37.5322 24.4228 36.608 24.228 36.1941 24.0375C36.0037 23.9498 35.6707 23.7643 35.4541 23.6252C32.6981 21.8556 28.121 21.2478 23.4221 22.0274C21.7433 22.3059 19.8443 23.0499 18.4393 23.9795C16.6575 25.1585 15.4189 26.8752 15.0276 28.7079C14.9238 29.1943 14.9245 30.0388 15.029 30.4786C15.3051 31.6411 16.2886 32.6414 17.8042 33.3012C19.3834 33.9886 21.1209 33.5566 22.0023 32.2574C22.2744 31.8563 22.5412 31.201 22.5886 30.8174C22.6644 30.2037 22.3754 29.4906 21.8329 28.9529C20.9068 28.035 20.3716 26.8222 20.479 25.8849C20.5265 25.4709 20.6326 25.1973 20.8981 24.805C21.1742 24.3967 21.4216 24.1895 21.9443 23.9287C22.8137 23.4948 24.2118 23.2689 25.5621 23.344C26.1679 23.3777 27.767 23.5779 28.4715 23.7082C28.8824 23.7842 29.7062 24.0942 30.1757 24.3495C31.4047 25.0178 32.3602 26.0129 32.8506 27.1351C33.2249 27.9917 33.3117 28.4417 33.312 29.5263C33.3121 30.6109 33.2484 31.0616 32.9492 32.0917C32.5317 33.5286 31.7627 35.1524 30.9566 36.299C30.1982 37.3776 28.838 38.5667 27.5632 39.2655C25.8344 40.2132 23.5565 40.7557 21.3178 40.753C19.1955 40.7504 17.519 40.3081 16.057 39.3651C14.6315 38.4456 13.5826 37.0533 13.0068 35.3162C12.7213 34.4552 12.5956 33.8097 12.4711 32.5662C12.4143 31.9986 12.4307 30.5381 12.4996 30.0229C12.5576 29.5899 12.588 29.5035 12.7373 29.348C12.8955 29.1832 12.9027 29.1591 12.8329 29.0296C12.7434 28.8637 12.7856 28.809 13.0553 28.7412C13.2101 28.7024 13.2535 28.6619 13.2676 28.5432C13.2827 28.4154 13.2608 28.3892 13.1147 28.3602C12.9146 28.3205 12.9066 28.271 13.0541 27.984C13.1165 27.8624 13.1506 27.7171 13.133 27.6475C13.1109 27.5599 13.1385 27.4995 13.23 27.436C13.409 27.3115 13.4828 27.3244 13.5664 27.4946C13.6498 27.6644 13.7166 27.6973 13.8313 27.6253C13.9008 27.5817 13.8978 27.5583 13.8101 27.4621C13.729 27.3732 13.7155 27.3014 13.7451 27.1174C13.8242 26.6264 14.1612 26.187 14.8431 25.6852C15.2071 25.4173 15.2292 25.3899 15.1198 25.3414C14.9425 25.2629 14.9718 25.2117 15.2838 25.0548C15.6207 24.8854 16.0207 24.5319 16.2078 24.2384C16.368 23.9869 16.3411 23.9371 16.0933 24.026C15.8358 24.1185 15.8213 24.1122 15.8624 23.9263C15.8855 23.8222 15.8768 23.7608 15.839 23.7608C15.806 23.7608 15.779 23.6863 15.779 23.5953C15.779 23.4497 15.7597 23.4297 15.6191 23.4297C15.4285 23.4297 15.3189 23.317 15.344 23.1465C15.3562 23.0627 15.4506 22.9769 15.6355 22.8814C15.9197 22.7345 16.1125 22.471 16.1125 22.2296C16.1125 22.125 16.1347 22.109 16.2426 22.1359C16.3911 22.1729 16.4949 22.0502 16.61 21.7017C16.6483 21.5858 16.7175 21.4765 16.7638 21.4589C16.8873 21.4119 17.4226 21.6905 17.7625 21.9787C17.925 22.1166 18.0577 22.2077 18.0573 22.1812C18.0568 22.1548 17.9579 21.9537 17.8373 21.7342C17.6232 21.3442 17.6201 21.3307 17.7009 21.1386C17.7976 20.9089 17.7692 20.8366 17.5823 20.8366C17.396 20.8366 17.407 20.6861 17.5995 20.6018C17.7811 20.5223 17.9085 20.366 17.9471 20.1752C17.9718 20.0535 18.0077 20.0346 18.2427 20.0196L18.5102 20.0027L18.6673 19.661C19.0247 18.8835 20.4916 17.6451 21.8657 16.9609C22.9207 16.4355 24.1725 16.0372 25.3398 15.8555C25.9569 15.7594 26.3418 15.7385 27.5076 15.7374C29.193 15.7359 29.6673 15.7938 30.9539 16.1579C31.5765 16.3341 32.4958 16.6784 33.1773 16.9908C34.8186 17.743 35.3907 17.9811 36.1041 18.2085C36.9014 18.4628 37.9142 18.6651 38.7915 18.7454C39.4891 18.8093 40.1021 18.7975 42.1544 18.6808C43.3039 18.6154 44.3363 18.6483 45.0664 18.7736C45.3228 18.8176 45.5431 18.8432 45.556 18.8304C45.6227 18.7642 44.5743 18.1886 43.8498 17.8937C43.5899 17.788 43.1522 17.6466 42.877 17.5796C42.1111 17.393 42.106 17.3819 42.7675 17.3397C43.3442 17.3029 44.5979 17.1803 45.1143 17.1102C45.2442 17.0926 45.3506 17.0594 45.3506 17.0365C45.3506 17.0136 45.2032 16.9249 45.0231 16.8395C44.7133 16.6925 44.6885 16.689 44.566 16.7742C44.3772 16.9054 44.1486 16.8854 43.7002 16.6984C43.2691 16.5186 43.138 16.527 42.9379 16.7475C42.8796 16.8117 42.7738 16.8642 42.7027 16.8642C42.4707 16.8642 41.7931 16.7325 41.7931 16.6874C41.7931 16.6633 41.9567 16.6435 42.1566 16.6435C42.4799 16.6435 42.552 16.6222 42.809 16.4504C43.1448 16.2259 43.4301 16.1905 43.4768 16.3677C43.5 16.4559 43.5526 16.478 43.7387 16.478C43.8668 16.478 44.0438 16.5204 44.1321 16.5721C44.2691 16.6524 44.3207 16.6563 44.4825 16.5982C44.5921 16.5588 44.7649 16.5448 44.8916 16.5649C45.0633 16.5921 45.1788 16.5678 45.423 16.4532C45.6595 16.3422 45.7817 16.3153 45.9274 16.3424C46.0985 16.3743 46.147 16.3533 46.3667 16.1523C46.5025 16.028 46.6609 15.9272 46.7187 15.9284C46.8393 15.9308 47.153 16.3466 47.0717 16.3965C46.9718 16.4577 47.0175 16.5332 47.1545 16.5332C47.2636 16.5332 47.3018 16.4937 47.3457 16.3359C47.3759 16.2275 47.3882 16.1066 47.373 16.0673C47.3387 15.9786 47.5164 15.928 47.8658 15.927C48.0931 15.9264 48.1299 15.9417 48.1299 16.0366C48.1299 16.2077 48.2383 16.1669 48.3239 15.9637C48.4084 15.7629 48.5968 15.6228 49.2694 15.2609C49.9615 14.8884 50.3187 14.7161 50.4023 14.7142C50.4446 14.7132 50.5578 14.6642 50.654 14.6052C50.7616 14.5392 51.0207 14.4751 51.3276 14.4385C51.9067 14.3696 52.3085 14.2107 52.9102 13.8129C53.3106 13.5482 54.3976 12.5291 54.3403 12.4721C54.325 12.457 54.0408 12.5792 53.7087 12.7438C52.4441 13.3704 51.4482 13.6827 49.5473 14.0486C48.6418 14.2229 46.5582 14.281 45.3745 14.1649C43.3366 13.9652 40.6554 13.2272 38.9304 12.3911C38.2285 12.051 37.513 11.5836 37.513 11.4653C37.513 11.4403 37.5818 11.3886 37.6659 11.3504C37.8167 11.2818 37.8128 11.2788 37.374 11.1178C37.0447 10.9969 36.8741 10.9629 36.7163 10.9866C36.5377 11.0135 36.4662 10.9916 36.2746 10.8518C36.0748 10.706 35.9996 10.6849 35.6811 10.6849C35.3765 10.6849 35.3049 10.6667 35.2469 10.5745C35.1928 10.4885 35.1173 10.4642 34.9045 10.4642C34.6074 10.4642 34.4558 10.4249 34.4558 10.3479C34.4558 10.3208 34.7763 10.2987 35.168 10.2987H35.8802L36.0343 10.4583C36.1649 10.5936 36.2201 10.6137 36.3964 10.5903C36.5418 10.5709 36.6736 10.5976 36.8341 10.6789C36.9605 10.7429 37.0962 10.7958 37.1356 10.7964C37.175 10.7971 37.2698 10.8462 37.3462 10.9056C37.4379 10.9767 37.5731 11.0139 37.7433 11.0147C38.0218 11.016 38.0943 11.089 38.0381 11.3114C38.0015 11.4562 38.1858 11.6453 38.4163 11.6994C38.562 11.7336 38.5691 11.7257 38.5691 11.5317C38.5691 11.4197 38.5291 11.2842 38.4802 11.2305C38.3987 11.1412 38.3987 11.1225 38.4802 11.007C38.6046 10.8308 38.5938 10.8046 38.3885 10.7849C38.2179 10.7686 38.2049 10.7516 38.1566 10.4816C38.1132 10.2395 38.0833 10.19 37.962 10.1599C37.8832 10.1402 37.6273 10.0173 37.3933 9.8867C36.3951 9.32962 35.1147 8.83698 33.8166 8.51069C32.8757 8.27417 32.2861 8.20316 31.2596 8.20266C30.4121 8.20222 29.8258 8.28371 29.1128 8.50109C28.8604 8.578 28.6432 8.63042 28.6301 8.61745C28.6032 8.59069 29.1177 8.25728 29.1861 8.25728C29.2106 8.25728 29.2307 8.22004 29.2307 8.17452C29.2307 8.11014 29.3048 8.09177 29.5643 8.09177C29.7495 8.09177 29.8978 8.06727 29.8978 8.03659C29.8978 8.00509 30.0645 7.98142 30.2869 7.98142C30.6389 7.98142 30.676 7.97094 30.676 7.87107C30.676 7.78098 30.7143 7.76007 30.8844 7.75703L31.0929 7.75334L30.8488 7.6778C30.6209 7.60729 30.5986 7.60972 30.5133 7.71422L30.422 7.82622L30.2158 7.70545C30.0374 7.60095 30.0051 7.59615 29.9765 7.67003C29.9584 7.71703 29.962 7.78506 29.9845 7.82131C30.0143 7.86909 29.9848 7.87703 29.8774 7.85028C29.7927 7.82914 29.5969 7.85154 29.4205 7.90241C29.1112 7.99168 28.8497 7.97331 28.7774 7.85728C28.7519 7.81618 28.6928 7.82765 28.5919 7.89336C28.4838 7.9636 28.3865 7.98004 28.232 7.95411C28.0516 7.92388 28.0152 7.8937 27.9862 7.75003C27.9305 7.47323 27.9423 7.44685 28.1885 7.29954L28.4248 7.15813L27.7577 7.15604C26.5176 7.15212 24.94 7.33938 23.5396 7.65678C21.9375 8.01993 21.1797 8.30672 18.0854 9.72079C17.445 10.0134 16.7876 10.274 16.1532 10.4865C15.5392 10.6923 14.4411 10.9753 14.4032 10.9376C14.3915 10.9261 14.6501 10.8138 14.9779 10.6881C16.1092 10.2544 17.3007 9.62943 19.0864 8.5332C19.3004 8.40184 19.7756 8.122 20.1425 7.9113C21.6132 7.06677 23.9463 5.7402 24.3392 5.52519C25.0555 5.13319 26.5925 4.25319 27.9662 3.4485C28.3254 3.23807 28.6193 3.02985 28.6193 2.98571C28.6193 2.8923 28.7622 2.87768 28.8169 2.96551C28.8404 3.00342 28.9184 2.96563 29.0286 2.86278C29.238 2.66747 29.5329 2.51933 29.7123 2.51933C29.7843 2.51933 29.8842 2.47189 29.9343 2.41384C29.9843 2.3558 30.0569 2.32038 30.0955 2.33506C30.1341 2.34979 30.181 2.31376 30.1998 2.25506C30.2186 2.19635 30.3146 2.12386 30.4133 2.0939L30.5926 2.03944L30.3842 1.9974C30.1246 1.94504 30.1117 1.85726 30.3635 1.85726C30.4667 1.85726 30.5819 1.82052 30.6194 1.77566C30.6695 1.71575 30.7152 1.70868 30.791 1.74896C30.8764 1.79431 30.9346 1.76055 31.1258 1.5547C31.2665 1.40319 31.4055 1.30554 31.4804 1.30554C31.622 1.30554 31.7877 1.14703 31.7877 1.01152C31.7877 0.96082 31.769 0.923302 31.746 0.928157C31.723 0.933012 31.6249 0.946861 31.5278 0.958944ZM32.3148 7.16409C32.2708 7.27764 31.766 7.49783 31.5118 7.51427C31.3869 7.52238 31.2917 7.56785 31.2409 7.64376C31.1655 7.75648 31.1709 7.76073 31.3885 7.76073C31.5128 7.76073 31.6275 7.73965 31.6436 7.71389C31.6776 7.65916 31.8821 7.64172 35.3879 7.39444C35.6712 7.37447 35.8963 7.35179 35.8881 7.34407C35.88 7.33629 35.4031 7.29987 34.8286 7.26307C33.8849 7.20266 33.7744 7.20481 33.6847 7.28536C33.5665 7.39151 33.384 7.40023 33.2334 7.30682C33.1463 7.25287 33.0872 7.25413 32.9423 7.31311C32.6145 7.44658 32.4548 7.45513 32.4539 7.33938C32.4534 7.28288 32.4297 7.20007 32.4012 7.15538C32.3566 7.08514 32.3448 7.08636 32.3148 7.16409Z" fill="#9BA1AA"/>
</svg>
