<svg width="31" height="16" viewBox="0 0 31 16" fill="none" xmlns="http://www.w3.org/2000/svg">
<path d="M30.76 0.787109H0.24C0.108 0.787109 0 0.908579 0 1.05704V3.21651C0 3.36497 0.108 3.48644 0.24 3.48644H30.76C30.892 3.48644 31 3.36497 31 3.21651V1.05704C31 0.908579 30.892 0.787109 30.76 0.787109ZM30.76 12.5468H0.24C0.108 12.5468 0 12.6683 0 12.8167V14.9762C0 15.1247 0.108 15.2461 0.24 15.2461H30.76C30.892 15.2461 31 15.1247 31 14.9762V12.8167C31 12.6683 30.892 12.5468 30.76 12.5468Z" fill="white"/>
</svg>
