<svg width="48" height="48" viewBox="0 0 48 48" fill="none" xmlns="http://www.w3.org/2000/svg">
<g filter="url(#filter0_d_294_3422)">
<path fill-rule="evenodd" clip-rule="evenodd" d="M40 24C40 32.8366 32.8366 40 24 40C15.1634 40 8 32.8366 8 24C8 15.1634 15.1634 8 24 8C32.8366 8 40 15.1634 40 24ZM27.8972 25.12L26.931 24.156L25.9648 23.1921L27.031 22.1138L28.0973 21.0356L27.0323 19.9585L25.9673 18.8816L26.8954 17.9485L27.8236 17.0154L28.8881 18.0794L29.9528 19.1435L31.078 18.0627L32.2033 16.9817L33.1543 17.9305L34.1052 18.8791L33.039 19.9574L31.9728 21.0356L33.039 22.1138L34.1052 23.1921L33.1379 24.1571L32.1706 25.1221L31.1049 24.0507L30.0392 22.9792L28.9683 24.0496L27.8972 25.12ZM14.5795 24.156L15.5457 25.12L16.6167 24.0496L17.6876 22.9792L18.7534 24.0507L19.819 25.1221L20.7863 24.1571L21.7536 23.1921L20.6874 22.1138L19.6212 21.0356L20.6874 19.9574L21.7536 18.8791L20.8028 17.9305L19.8517 16.9817L18.7265 18.0627L17.6012 19.1435L16.5366 18.0794L15.472 17.0154L14.5439 17.9485L13.6158 18.8816L14.6807 19.9585L15.7457 21.0356L14.6795 22.1138L13.6133 23.1921L14.5795 24.156Z" fill="white"/>
</g>
<defs>
<filter id="filter0_d_294_3422" x="0" y="0" width="48" height="48" filterUnits="userSpaceOnUse" color-interpolation-filters="sRGB">
<feBlend mode="normal" in2="BackgroundImageFix" result="effect1_dropShadow_294_3422"/>
</filter>
</defs>
</svg>
