<svg width="145" height="15" viewBox="0 0 145 15" fill="none" xmlns="http://www.w3.org/2000/svg">
<path d="M10.8448 13.1861H7.65875L4.78801 8.09101V13.1861H0.921631V1.57324H5.53473L9.30155 8.0083L13.0684 1.57324H17.6981V13.1861H13.8317V8.05793L10.8448 13.1861Z" fill="white"/>
<path d="M19.5637 1.57324H32.424V4.79904H23.4301V5.82468H31.8598V8.91814H23.4301V9.96032H32.424V13.1861H19.5637V1.57324Z" fill="white"/>
<path d="M34.2942 1.57324H49.6767V5.41112H43.9186V13.1861H40.0688V5.41112H34.2942V1.57324Z" fill="white"/>
<path d="M59.3555 1.60633L64.5826 13.1861H60.1022L59.2227 11.2341H53.4646L52.5852 13.1861H48.138L53.3485 1.60633H59.3555ZM54.8419 7.8925H57.8454L56.3354 4.84867L54.8419 7.8925Z" fill="white"/>
<path d="M76.2448 13.1861H73.0588L70.188 8.09101V13.1861H66.3217V1.57324H70.9348L74.7016 8.0083L78.4684 1.57324H83.0981V13.1861H79.2317V8.05793L76.2448 13.1861Z" fill="white"/>
<path d="M100.037 1.57324H108.6C108.821 1.57324 109.031 1.57876 109.23 1.58978C109.429 1.60081 109.706 1.63941 110.06 1.70558C110.425 1.76072 110.751 1.84344 111.039 1.95372C111.338 2.05298 111.653 2.21289 111.985 2.43346C112.317 2.64299 112.593 2.89665 112.815 3.19441C113.047 3.48115 113.235 3.8506 113.379 4.30277C113.534 4.75493 113.611 5.26775 113.611 5.84122C113.611 7.67193 112.898 8.9788 111.471 9.76181L113.86 13.1861L109.396 13.1696L107.405 10.4401H103.904V13.1861H100.037V1.57324ZM108.235 7.04883C109.197 7.04883 109.678 6.68489 109.678 5.95702C109.678 5.29532 109.175 4.96447 108.168 4.96447H103.904V7.04883H108.235Z" fill="white"/>
<path d="M115.403 1.57324H123.584C123.805 1.57324 124.015 1.57876 124.214 1.58978C124.413 1.60081 124.69 1.63941 125.044 1.70558C125.409 1.76072 125.735 1.84895 126.023 1.97026C126.322 2.08055 126.637 2.24597 126.969 2.46654C127.301 2.68711 127.577 2.95179 127.799 3.26058C128.031 3.55835 128.219 3.94986 128.363 4.43511C128.518 4.90933 128.595 5.4442 128.595 6.03973C128.595 6.62424 128.523 7.15911 128.379 7.64436C128.247 8.12961 128.07 8.53766 127.848 8.86851C127.627 9.18834 127.362 9.47507 127.052 9.72873C126.742 9.97135 126.438 10.1643 126.139 10.3077C125.84 10.4401 125.525 10.5503 125.193 10.6386C124.872 10.7158 124.596 10.7709 124.364 10.804C124.131 10.8261 123.916 10.8371 123.716 10.8371H119.269V13.1861H115.403V1.57324ZM123.468 7.41277C124.485 7.41277 124.994 6.99369 124.994 6.15553C124.994 5.96805 124.967 5.80814 124.911 5.6758C124.867 5.54346 124.795 5.43869 124.695 5.36149C124.596 5.27326 124.496 5.20158 124.397 5.14644C124.297 5.09129 124.176 5.05821 124.032 5.04718C123.899 5.02512 123.788 5.00858 123.7 4.99755C123.611 4.98652 123.512 4.98101 123.401 4.98101H119.269V7.41277H123.468Z" fill="white"/>
<path d="M141.134 1.57324H145V13.1861H141.134V9.14974H134.197V13.1861H130.331V1.57324H134.197V5.59309H141.134V1.57324Z" fill="white"/>
<path fill-rule="evenodd" clip-rule="evenodd" d="M97.9667 7.49971C97.9667 11.2113 94.9485 14.2201 91.2254 14.2201C87.5023 14.2201 84.4841 11.2113 84.4841 7.49971C84.4841 3.78813 87.5023 0.779297 91.2254 0.779297C94.9485 0.779297 97.9667 3.78813 97.9667 7.49971ZM92.8647 7.96983L92.4576 7.56491L92.0505 7.16005L92.4998 6.70714L92.949 6.25428L92.5003 5.80189L92.0516 5.34955L92.4426 4.95763L92.8337 4.5657L93.2822 5.01262L93.7308 5.45953L94.2049 5.00557L94.679 4.55154L95.0797 4.95005L95.4803 5.3485L95.0311 5.80142L94.5819 6.25428L95.0311 6.70714L95.4803 7.16005L95.0728 7.56538L94.6652 7.9707L94.2162 7.5207L93.7672 7.07064L93.316 7.52023L92.8647 7.96983ZM87.2584 7.56491L87.6655 7.96983L88.1167 7.52023L88.5679 7.07064L89.017 7.5207L89.466 7.9707L89.8735 7.56538L90.2811 7.16005L89.8319 6.70714L89.3826 6.25428L89.8319 5.80142L90.2811 5.3485L89.8805 4.95005L89.4798 4.55154L89.0057 5.00557L88.5316 5.45953L88.083 5.01262L87.6345 4.5657L87.2434 4.95763L86.8524 5.34955L87.3011 5.80189L87.7498 6.25428L87.3005 6.70714L86.8513 7.16005L87.2584 7.56491Z" fill="white"/>
</svg>
