<svg width="139" height="15" viewBox="0 0 139 15" fill="none" xmlns="http://www.w3.org/2000/svg">
<path d="M9.568 13.1803H6.496L3.728 8.09077V13.1803H0V1.58008H4.448L8.08 8.00814L11.712 1.58008H16.176V13.1803H12.448V8.05772L9.568 13.1803Z" fill="white"/>
<path d="M17.9749 1.58008H30.3749V4.80237H21.7029V5.8269H29.8309V8.917H21.7029V9.95805H30.3749V13.1803H17.9749V1.58008Z" fill="white"/>
<path d="M32.1781 1.58008H47.0101V5.41378H41.4581V13.1803H37.7461V5.41378H32.1781V1.58008Z" fill="white"/>
<path d="M56.3425 1.61313L61.3825 13.1803H57.0625L56.2145 11.2304H50.6625L49.8145 13.1803H45.5265L50.5505 1.61313H56.3425ZM51.9905 7.89247H54.8865L53.4305 4.85195L51.9905 7.89247Z" fill="white"/>
<path d="M72.6274 13.1803H69.5554L66.7874 8.09077V13.1803H63.0594V1.58008H67.5074L71.1394 8.00814L74.7714 1.58008H79.2354V13.1803H75.5074V8.05772L72.6274 13.1803Z" fill="white"/>
<path d="M95.5684 1.58008H103.824C104.038 1.58008 104.24 1.58559 104.432 1.5966C104.624 1.60762 104.891 1.64618 105.232 1.71228C105.584 1.76736 105.899 1.84998 106.176 1.96014C106.464 2.05929 106.768 2.21903 107.088 2.43936C107.408 2.64867 107.675 2.90205 107.888 3.19949C108.112 3.48591 108.294 3.85496 108.432 4.30664C108.582 4.75831 108.656 5.27057 108.656 5.84342C108.656 7.67214 107.968 8.97759 106.592 9.75975L108.896 13.1803L104.592 13.1638L102.672 10.4373H99.2964V13.1803H95.5684V1.58008ZM103.472 7.04972C104.4 7.04972 104.864 6.68618 104.864 5.95909C104.864 5.29811 104.379 4.96762 103.408 4.96762H99.2964V7.04972H103.472Z" fill="white"/>
<path d="M110.384 1.58008H118.272C118.485 1.58008 118.688 1.58559 118.88 1.5966C119.072 1.60762 119.339 1.64618 119.68 1.71228C120.032 1.76736 120.347 1.85549 120.624 1.97667C120.912 2.08683 121.216 2.25208 121.536 2.47241C121.856 2.69273 122.123 2.95713 122.336 3.26559C122.56 3.56303 122.741 3.95411 122.88 4.43883C123.029 4.91254 123.104 5.44683 123.104 6.04172C123.104 6.62559 123.035 7.15988 122.896 7.6446C122.768 8.12932 122.597 8.53693 122.384 8.86742C122.171 9.1869 121.915 9.47332 121.616 9.7267C121.317 9.96906 121.024 10.1618 120.736 10.3051C120.448 10.4373 120.144 10.5474 119.824 10.6356C119.515 10.7127 119.248 10.7678 119.024 10.8008C118.8 10.8228 118.592 10.8338 118.4 10.8338H114.112V13.1803H110.384V1.58008ZM118.16 7.41326C119.141 7.41326 119.632 6.99464 119.632 6.15739C119.632 5.97011 119.605 5.81037 119.552 5.67818C119.509 5.54598 119.44 5.44132 119.344 5.36421C119.248 5.27608 119.152 5.20447 119.056 5.14939C118.96 5.09431 118.843 5.06126 118.704 5.05024C118.576 5.02821 118.469 5.01168 118.384 5.00067C118.299 4.98965 118.203 4.98414 118.096 4.98414H114.112V7.41326H118.16Z" fill="white"/>
<path d="M135.194 1.58008H138.922V13.1803H135.194V9.14834H128.506V13.1803H124.778V1.58008H128.506V5.59555H135.194V1.58008Z" fill="white"/>
<path fill-rule="evenodd" clip-rule="evenodd" d="M93.5703 7.50022C93.5703 11.2078 90.6602 14.2133 87.0703 14.2133C83.4805 14.2133 80.5703 11.2078 80.5703 7.50022C80.5703 3.79267 83.4805 0.787109 87.0703 0.787109C90.6602 0.787109 93.5703 3.79267 93.5703 7.50022ZM88.6522 7.96983L88.2597 7.56535L87.8672 7.16094L88.3003 6.70851L88.7335 6.25614L88.3008 5.80424L87.8682 5.3524L88.2452 4.9609L88.6223 4.5694L89.0548 5.01583L89.4873 5.46226L89.9444 5.00879L90.4016 4.55526L90.7879 4.95334L91.1742 5.35135L90.7411 5.80378L90.3079 6.25614L90.7411 6.70851L91.1742 7.16094L90.7812 7.56582L90.3883 7.9707L89.9554 7.52119L89.5224 7.07161L89.0873 7.52072L88.6522 7.96983ZM83.2441 7.56535L83.6366 7.96983L84.0717 7.52072L84.5068 7.07161L84.9397 7.52119L85.3727 7.9707L85.7656 7.56582L86.1586 7.16094L85.7254 6.70851L85.2923 6.25614L85.7254 5.80378L86.1586 5.35135L85.7723 4.95334L85.3859 4.55526L84.9288 5.00879L84.4717 5.46226L84.0391 5.01583L83.6067 4.5694L83.2296 4.9609L82.8526 5.3524L83.2852 5.80424L83.7179 6.25614L83.2847 6.70851L82.8516 7.16094L83.2441 7.56535Z" fill="white"/>
</svg>
