<svg width="54" height="54" viewBox="0 0 54 54" fill="none" xmlns="http://www.w3.org/2000/svg">
<path d="M6.31152 38.9048V44.0641H11.8175M43.0552 44.0641H48.3756V38.9048M6.31152 7.66891V2H11.8175M48.3756 7.66891V2H43.0552" stroke="white" stroke-width="0.5"/>
<g filter="url(#filter0_d_88_3012)">
<rect x="8.78613" y="4.47437" width="37.1154" height="37.1154" fill="url(#paint0_linear_88_3012)"/>
</g>
<path d="M27.0672 9.11816C25.5654 9.11816 24.3568 10.3332 24.3568 11.8504C24.3568 13.3678 25.5654 14.5828 27.0672 14.5828C28.569 14.5828 29.7793 13.3678 29.7793 11.8505C29.7793 10.3333 28.569 9.11822 27.0672 9.11822V9.11816ZM34.2671 11.3428L29.6749 14.7807C29.8312 15.1194 29.955 15.4859 30.0414 15.8747L34.0877 12.8455L34.2672 11.3428H34.2671ZM19.2936 11.4179L19.814 13.0251L23.578 15.3341C23.7253 14.9856 23.9013 14.662 24.1021 14.3683L19.2935 11.418L19.2936 11.4179ZM35.3393 11.5976L35.1578 13.1387L37.5878 16.2247C37.8619 15.9781 38.1869 15.7868 38.5443 15.6694L35.3393 11.5976ZM18.2196 11.6563L15.1868 16.3476C15.5589 16.4251 15.9018 16.5807 16.2003 16.7965L18.654 13.0012L18.2197 11.6562L18.2196 11.6563ZM24.7839 14.9109C24.3664 15.5444 24.0635 16.3716 23.9684 17.2967C23.8511 18.4366 24.0731 19.4937 24.4998 20.2618C24.9265 21.0299 25.5304 21.4931 26.2168 21.5647C26.9034 21.6362 27.5893 21.3083 28.1631 20.6447C28.7368 19.9811 29.1692 18.99 29.2864 17.8501C29.3884 16.8577 29.2342 15.9275 28.9107 15.1966C28.3638 15.503 27.7356 15.6786 27.0672 15.6786C26.2116 15.6786 25.4203 15.3928 24.7839 14.9107L24.7839 14.9109ZM39.3709 16.6334C38.4944 16.6334 37.7949 17.333 37.7949 18.2094C37.7949 19.0857 38.4944 19.7853 39.3708 19.7853C40.2472 19.7853 40.9449 19.0857 40.9449 18.2093C40.9449 17.3328 40.2472 16.6333 39.3708 16.6333L39.3709 16.6334ZM14.6443 17.3884C13.7678 17.3884 13.0684 18.086 13.0684 18.9625C13.0684 19.839 13.7678 20.5385 14.6443 20.5385C15.5208 20.5385 16.2184 19.8389 16.2184 18.9625C16.2184 18.086 15.5208 17.3884 14.6443 17.3884V17.3884ZM24.4338 21.5995C23.8462 22.0287 23.4764 22.6245 23.4645 23.214C23.4536 23.7453 23.6961 24.1959 24.148 24.5407C24.5998 24.8855 25.263 25.0984 26.0262 25.0538C27.553 24.9647 28.7371 23.8806 28.7586 22.8181C28.7673 22.3899 28.6107 22.0142 28.3133 21.704C27.6808 22.2229 26.9227 22.5107 26.1272 22.4278C25.4774 22.3601 24.9025 22.0559 24.4338 21.5995V21.5995ZM28.5332 25.2645C27.9963 25.6733 27.333 25.9629 26.6145 26.0874L29.4165 30.8447L30.3474 30.0457L28.5331 25.2646L28.5332 25.2645ZM23.743 25.5908L23.1803 30.9729L24.2669 31.7555L25.7055 26.1552C24.973 26.1359 24.2975 25.9361 23.7429 25.5907L23.743 25.5908ZM31.0804 30.8594L30.1586 31.651L33.9831 34.6435C34.1294 34.0727 34.4614 33.5576 34.9305 33.1903L31.0804 30.8594ZM22.7258 31.9955L19.4475 33.7401C19.7367 34.1014 19.9374 34.5411 20.0063 35.0302C20.0116 35.0682 20.0155 35.1059 20.0192 35.1438L23.8051 32.7743L22.7258 31.9956V31.9955ZM36.5596 33.7217C36.5143 33.7223 36.468 33.7246 36.4223 33.7291C36.3177 33.7394 36.2137 33.7592 36.1089 33.7914C35.2709 34.0485 34.8073 34.9216 35.0644 35.7595C35.3215 36.5975 36.1947 37.0612 37.0326 36.8041C37.8706 36.547 38.3342 35.6739 38.0771 34.8359C37.8662 34.1487 37.2404 33.714 36.5598 33.7217H36.5596ZM17.384 33.8261C17.3045 33.8254 17.2236 33.8312 17.1422 33.8427C16.2743 33.9649 15.6804 34.7542 15.8026 35.6221C15.9248 36.49 16.7141 37.0839 17.582 36.9617C18.4499 36.8395 19.0438 36.0502 18.9216 35.1823C18.8146 34.4229 18.1971 33.8736 17.4629 33.8299C17.4367 33.8283 17.4106 33.8265 17.3841 33.8262L17.384 33.8261Z" fill="#AAAAAA"/>
<g style="mix-blend-mode:overlay">
<path d="M18.6832 25.5064C17.6934 25.5064 28.5804 4.47437 28.5804 4.47437H38.4776L31.8798 19.3205H39.3028L26.106 41.5898H15.3838L25.2812 25.5064H18.6832Z" fill="#D9D9D9"/>
</g>
<path d="M23.6317 4.47461H17.8582L9.61035 22.6199H14.9715L23.6317 4.47461Z" fill="url(#paint1_linear_88_3012)"/>
<defs>
<filter id="filter0_d_88_3012" x="0.786133" y="0.474365" width="53.1152" height="53.1155" filterUnits="userSpaceOnUse" color-interpolation-filters="sRGB">
<feFlood flood-opacity="0" result="BackgroundImageFix"/>
<feColorMatrix in="SourceAlpha" type="matrix" values="0 0 0 0 0 0 0 0 0 0 0 0 0 0 0 0 0 0 127 0" result="hardAlpha"/>
<feOffset dy="4"/>
<feGaussianBlur stdDeviation="4"/>
<feComposite in2="hardAlpha" operator="out"/>
<feColorMatrix type="matrix" values="0 0 0 0 0 0 0 0 0 0 0 0 0 0 0 0 0 0 1 0"/>
<feBlend mode="normal" in2="BackgroundImageFix" result="effect1_dropShadow_88_3012"/>
<feBlend mode="normal" in="SourceGraphic" in2="effect1_dropShadow_88_3012" result="shape"/>
</filter>
<linearGradient id="paint0_linear_88_3012" x1="27.3438" y1="4.47437" x2="27.3438" y2="41.5898" gradientUnits="userSpaceOnUse">
<stop stop-color="#111112"/>
<stop offset="1" stop-color="#1D1E1F"/>
</linearGradient>
<linearGradient id="paint1_linear_88_3012" x1="20.3326" y1="4.887" x2="12.9095" y2="22.2075" gradientUnits="userSpaceOnUse">
<stop stop-color="#303234"/>
<stop offset="1" stop-color="#303234" stop-opacity="0"/>
</linearGradient>
</defs>
</svg>
