<svg width="485" height="170" viewBox="0 0 485 170" fill="none" xmlns="http://www.w3.org/2000/svg">
<path d="M115.972 71.1189H96.3651L78.6988 40.1353V71.1189H54.9053V0.500488H83.2941L106.475 39.6323L129.656 0.500488H158.147V71.1189H134.353V39.9341L115.972 71.1189Z" fill="white"/>
<path d="M169.628 0.500488H248.769V21.6834H193.421V27.7357H245.297V45.1651H193.421V51.5026H248.769V71.1189H169.628V0.500488Z" fill="white"/>
<path d="M248.769 0.500488H358.274L348.918 21.6834H319.506V71.1189H295.815V21.6834H248.769V0.500488Z" fill="white"/>
<path d="M414.504 0.701678L446.671 71.1189H419.099H372.84H345.472L377.537 0.701678H414.504ZM378.468 54.7841H412.315L395.919 20.4185L378.468 54.7841Z" fill="white"/>
<path fill-rule="evenodd" clip-rule="evenodd" d="M196.82 129.097C196.82 151.667 178.247 169.964 155.335 169.964C132.423 169.964 113.85 151.667 113.85 129.097C113.85 106.526 132.423 88.2295 155.335 88.2295C178.247 88.2295 196.82 106.526 196.82 129.097ZM165.422 131.955L162.917 129.493L160.412 127.031L163.176 124.277L165.941 121.523L163.179 118.772L160.418 116.021L162.824 113.638L165.231 111.254L167.991 113.972L170.752 116.69L173.669 113.929L176.587 111.168L179.053 113.592L181.518 116.015L178.754 118.769L175.989 121.523L178.754 124.277L181.518 127.031L179.01 129.496L176.502 131.96L173.739 129.224L170.976 126.487L168.199 129.221L165.422 131.955ZM130.921 129.493L133.426 131.955L136.203 129.221L138.98 126.487L141.743 129.224L144.506 131.96L147.014 129.496L149.522 127.031L146.758 124.277L143.993 121.523L146.758 118.769L149.522 116.015L147.057 113.592L144.591 111.168L141.674 113.929L138.756 116.69L135.995 113.972L133.235 111.254L130.829 113.638L128.422 116.021L131.184 118.772L133.945 121.523L131.18 124.277L128.416 127.031L130.921 129.493Z" fill="white"/>
<path d="M61.0665 164.929H41.4599L23.7935 133.945V164.929H0V94.3105H28.3888L51.5695 133.442L74.7503 94.3105H103.241V164.929H79.4478V133.744L61.0665 164.929Z" fill="white"/>
<path d="M207.484 94.3105H260.177C261.539 94.3105 262.832 94.3441 264.058 94.4111C265.283 94.4782 266.985 94.7129 269.164 95.1153C271.41 95.4506 273.418 95.9536 275.189 96.6243C277.027 97.2278 278.967 98.2003 281.009 99.5415C283.052 100.816 284.754 102.358 286.115 104.169C287.545 105.913 288.702 108.159 289.587 110.909C290.54 113.659 291.017 116.777 291.017 120.264C291.017 131.397 286.626 139.344 277.844 144.106L292.549 164.929L265.079 164.828L252.825 148.23H231.278V164.929H207.484V94.3105ZM257.931 127.608C263.853 127.608 266.815 125.395 266.815 120.968C266.815 116.945 263.717 114.933 257.522 114.933H231.278V127.608H257.931Z" fill="white"/>
<path d="M302.043 94.3105H352.387C353.749 94.3105 355.042 94.3441 356.268 94.4111C357.493 94.4782 359.195 94.7129 361.374 95.1153C363.62 95.4506 365.628 95.9871 367.399 96.7248C369.237 97.3955 371.177 98.4014 373.219 99.7427C375.262 101.084 376.964 102.694 378.325 104.571C379.755 106.382 380.912 108.763 381.797 111.714C382.75 114.597 383.227 117.85 383.227 121.471C383.227 125.026 382.784 128.278 381.899 131.229C381.082 134.18 379.993 136.661 378.632 138.673C377.27 140.618 375.636 142.362 373.73 143.904C371.824 145.38 369.952 146.553 368.113 147.425C366.275 148.23 364.335 148.901 362.293 149.437C360.318 149.907 358.616 150.242 357.187 150.443C355.757 150.577 354.43 150.644 353.204 150.644H325.837V164.929H302.043V94.3105ZM351.672 129.821C357.936 129.821 361.067 127.272 361.067 122.176C361.067 121.036 360.897 120.063 360.557 119.258C360.284 118.454 359.842 117.816 359.229 117.347C358.616 116.811 358.004 116.375 357.391 116.039C356.778 115.704 356.029 115.503 355.144 115.436C354.327 115.302 353.647 115.201 353.102 115.134C352.557 115.067 351.945 115.033 351.264 115.033H325.837V129.821H351.672Z" fill="white"/>
<path d="M460.388 94.3105H484.181V164.929H460.388V140.383H417.703V164.929H393.909V94.3105H417.703V118.755H460.388V94.3105Z" fill="white"/>
</svg>
