<svg width="213" height="27" viewBox="0 0 213 27" fill="none" xmlns="http://www.w3.org/2000/svg">
<path d="M15 20H10.392L6.24 12.608V20H0.648V3.152H7.32L12.768 12.488L18.216 3.152H24.912V20H19.32V12.56L15 20ZM27.6103 3.152H46.2103V7.832H33.2023V9.32H45.3943V13.808H33.2023V15.32H46.2103V20H27.6103V3.152ZM48.9152 3.152H71.1632V8.72H62.8352V20H57.2672V8.72H48.9152V3.152ZM85.1617 3.2L92.7218 20H86.2417L84.9697 17.168H76.6417L75.3697 20H68.9377L76.4737 3.2H85.1617ZM78.6337 12.32H82.9777L80.7937 7.904L78.6337 12.32ZM109.589 20H104.981L100.829 12.608V20H95.2371V3.152H101.909L107.357 12.488L112.805 3.152H119.501V20H113.909V12.56L109.589 20ZM147.189 3.152H159.573C159.893 3.152 160.197 3.16 160.485 3.176C160.773 3.192 161.173 3.248 161.685 3.344C162.213 3.424 162.685 3.544 163.101 3.704C163.533 3.848 163.989 4.08 164.469 4.4C164.949 4.704 165.349 5.072 165.669 5.504C166.005 5.92 166.277 6.456 166.485 7.112C166.709 7.768 166.821 8.512 166.821 9.344C166.821 12 165.789 13.896 163.725 15.032L167.181 20L160.725 19.976L157.845 16.016H152.781V20H147.189V3.152ZM159.045 11.096C160.437 11.096 161.133 10.568 161.133 9.512C161.133 8.552 160.405 8.072 158.949 8.072H152.781V11.096H159.045ZM169.412 3.152H181.244C181.564 3.152 181.868 3.16 182.156 3.176C182.444 3.192 182.844 3.248 183.356 3.344C183.884 3.424 184.356 3.552 184.772 3.728C185.204 3.888 185.66 4.128 186.14 4.448C186.62 4.768 187.02 5.152 187.34 5.6C187.676 6.032 187.948 6.6 188.156 7.304C188.38 7.992 188.492 8.768 188.492 9.632C188.492 10.48 188.388 11.256 188.18 11.96C187.988 12.664 187.732 13.256 187.412 13.736C187.092 14.2 186.708 14.616 186.26 14.984C185.812 15.336 185.372 15.616 184.94 15.824C184.508 16.016 184.052 16.176 183.572 16.304C183.108 16.416 182.708 16.496 182.372 16.544C182.036 16.576 181.724 16.592 181.436 16.592H175.004V20H169.412V3.152ZM181.076 11.624C182.548 11.624 183.284 11.016 183.284 9.8C183.284 9.528 183.244 9.296 183.164 9.104C183.1 8.912 182.996 8.76 182.852 8.648C182.708 8.52 182.564 8.416 182.42 8.336C182.276 8.256 182.1 8.208 181.892 8.192C181.7 8.16 181.54 8.136 181.412 8.12C181.284 8.104 181.14 8.096 180.98 8.096H175.004V11.624H181.076ZM206.627 3.152H212.219V20H206.627V14.144H196.595V20H191.003V3.152H196.595V8.984H206.627V3.152Z" fill="white"/>
<path fill-rule="evenodd" clip-rule="evenodd" d="M144 11C144 17.0751 139.075 22 133 22C126.925 22 122 17.0751 122 11C122 4.92487 126.925 0 133 0C139.075 0 144 4.92487 144 11ZM135.68 11.7705L135.016 11.1078L134.352 10.4451L135.085 9.70377L135.818 8.96252L135.085 8.22205L134.353 7.48166L134.991 6.84016L135.629 6.19865L136.361 6.93017L137.093 7.66168L137.867 6.91863L138.64 6.17548L139.294 6.82776L139.948 7.47995L139.215 8.22128L138.482 8.96252L139.215 9.70377L139.948 10.4451L139.283 11.1085L138.618 11.772L137.885 11.0354L137.153 10.2987L136.416 11.0346L135.68 11.7705ZM126.526 11.1078L127.19 11.7705L127.926 11.0346L128.662 10.2987L129.395 11.0354L130.128 11.772L130.793 11.1085L131.458 10.4451L130.725 9.70377L129.992 8.96252L130.725 8.22128L131.458 7.47995L130.804 6.82776L130.15 6.17548L129.377 6.91863L128.603 7.66168L127.871 6.93017L127.139 6.19865L126.501 6.84016L125.863 7.48166L126.595 8.22205L127.327 8.96252L126.594 9.70377L125.861 10.4451L126.526 11.1078Z" fill="white"/>
</svg>
