<svg width="47" height="47" viewBox="0 0 47 47" fill="none" xmlns="http://www.w3.org/2000/svg">
<path d="M7 32.4474V36.5642H11.3934M36.3189 36.5642H40.5642V32.4474M7 7.5234V3H11.3934M40.5642 7.5234V3H36.3189" stroke="#B0E901" stroke-width="0.5"/>
<g filter="url(#filter0_d_88_2817)">
<rect x="8.97461" y="4.97437" width="29.6155" height="29.6155" fill="url(#paint0_linear_88_2817)"/>
</g>
<path d="M24.2444 10C23.5925 10 22.7072 10.1531 21.9528 10.473C21.1986 10.7929 20.5973 11.2699 20.3774 11.861C20.3432 11.953 20.3143 12.0439 20.2893 12.1339C19.9027 13.1331 20.6214 15.6617 21.4373 17.3117C21.115 16.8396 20.7954 16.3813 20.5058 15.9265C19.7824 14.7903 19.2408 13.6141 19.4382 12.3254C19.1993 12.1902 18.9269 12.1197 18.5918 12.1197C18.0177 12.1197 17.3972 12.419 16.9297 12.8865C16.4621 13.354 16.1629 13.9745 16.1629 14.5486C16.1629 14.8552 16.2705 15.1725 16.4628 15.4963C16.884 16.4536 18.1221 17.9041 19.4707 19.2046C18.8457 18.7563 18.1913 18.2953 17.5931 17.8182C16.4068 16.8721 15.3737 15.842 15.3683 14.5588C15.1979 14.7251 15.0477 14.9416 14.9202 15.2065C14.6743 15.7181 14.5256 16.3809 14.484 17.0463C14.4425 17.7117 14.5075 18.3808 14.6568 18.8987C14.8062 19.4164 15.0492 19.7519 15.2367 19.8456C15.2514 19.853 15.2656 19.8613 15.2793 19.8705C16.8834 20.9398 19.0015 21.1659 21.2663 21.4329C21.1084 21.053 21.0206 20.6371 21.0206 20.2011C21.0206 18.4254 22.4687 16.9773 24.2444 16.9773C26.0201 16.9773 27.4682 18.4254 27.4682 20.2011C27.4682 20.6371 27.3804 21.053 27.2225 21.4329C29.4873 21.1659 31.6055 20.9398 33.2095 19.8705C33.2232 19.8613 33.2374 19.853 33.2522 19.8456C33.4396 19.7519 33.6826 19.4163 33.832 18.8986C33.9813 18.3808 34.0464 17.7116 34.0048 17.0462C33.9632 16.3809 33.8145 15.718 33.5685 15.2065C33.4411 14.9415 33.2909 14.7251 33.1205 14.5587C33.115 15.8419 32.0819 16.872 30.8957 17.8181C30.2974 18.2951 29.6431 18.7561 29.018 19.2044C30.3666 17.9039 31.6047 16.4534 32.0259 15.496C32.2183 15.1722 32.3259 14.8549 32.3259 14.5483C32.3259 13.9742 32.0266 13.3538 31.5591 12.8863C31.0915 12.419 30.4711 12.1197 29.897 12.1197C29.5619 12.1197 29.2895 12.1902 29.0505 12.3254C29.248 13.6141 28.7063 14.7903 27.983 15.9265C27.6934 16.3813 27.3738 16.8396 27.0514 17.3117C27.8674 15.6617 28.586 13.1331 28.1994 12.1339C28.1744 12.0439 28.1455 11.953 28.1112 11.861C27.8916 11.2705 27.2882 10.7931 26.5324 10.4731C25.7767 10.1531 24.8911 10 24.2444 10ZM24.2916 17.8298C23.9683 17.8298 23.6481 17.8934 23.3494 18.0172C23.0507 18.1409 22.7793 18.3222 22.5507 18.5508C22.322 18.7795 22.1407 19.0509 22.0169 19.3496C21.8932 19.6483 21.8295 19.9684 21.8295 20.2918C21.8301 20.7102 21.9374 21.1216 22.1411 21.4871C22.3448 21.8525 22.6384 22.1601 22.994 22.3806C22.8872 22.0818 22.8322 21.7669 22.8312 21.4495C22.8312 21.0842 22.9028 20.7225 23.0419 20.385C23.181 20.0476 23.3849 19.7409 23.6419 19.4827C23.8989 19.2244 24.204 19.0195 24.5398 18.8797C24.8756 18.7399 25.2355 18.668 25.599 18.668C25.8005 18.6687 26.0013 18.6915 26.1979 18.736C25.9672 18.4531 25.6765 18.225 25.3468 18.0682C25.0171 17.9115 24.6567 17.83 24.2916 17.8297V17.8298ZM21.5459 21.9604C19.1699 22.1609 16.9118 22.3048 15.228 23.0968C15.2159 23.1024 15.2036 23.1075 15.191 23.1119C14.975 23.1881 14.7792 23.3951 14.6428 23.7288C14.6421 23.7305 14.6415 23.7324 14.6408 23.7341H14.6614C14.6614 23.9384 14.7962 24.221 15.0581 24.5433C15.2992 24.84 15.6296 25.1589 15.9607 25.4878C16.0046 25.4427 16.0499 25.3984 16.0967 25.355C16.5112 24.9704 17.0516 24.6257 17.646 24.2913C18.454 23.8366 19.3632 23.4024 20.1658 22.9832C18.5962 23.9809 17.014 25.2208 16.4911 26.0135C16.7971 26.2627 17.2407 26.5722 17.7189 26.8284C18.2833 27.1306 18.9128 27.3814 19.4361 27.5008C19.4592 27.3787 19.4921 27.2589 19.5351 27.1428C19.7367 26.5987 20.1125 26.1177 20.546 25.6374C20.9004 25.2446 21.2966 24.8496 21.6865 24.4408H21.6891C21.0094 25.2806 20.3254 26.659 20.2011 27.6263C21.5086 28.2346 23.5515 28.2828 24.2444 28.2828C24.9476 28.2828 27.0152 28.2536 28.2878 27.6268C28.1637 26.6595 27.4795 25.2807 26.7997 24.4408H26.8023C27.1923 24.8495 27.5884 25.2446 27.9428 25.6373C28.3763 26.1177 28.7521 26.5987 28.9537 27.1428C28.9964 27.2581 29.0292 27.3771 29.0521 27.4984C29.5513 27.3787 30.1354 27.1314 30.6755 26.8313C31.1642 26.5598 31.6236 26.2469 31.9725 25.9761C31.4254 25.1821 29.8681 23.9654 28.3229 22.9832C29.1255 23.4025 30.0347 23.8366 30.8427 24.2913C31.4372 24.6258 31.9776 24.9704 32.3921 25.3551C32.4389 25.3985 32.4842 25.4427 32.5281 25.4878C32.8591 25.159 33.1896 24.8401 33.4306 24.5434C33.6925 24.2211 33.8274 23.9385 33.8274 23.7343H33.848C33.8473 23.7325 33.8467 23.7306 33.8459 23.729C33.7095 23.3952 33.5138 23.1883 33.2977 23.112C33.2852 23.1076 33.2728 23.1026 33.2608 23.0969C31.5769 22.3049 29.3189 22.161 26.9428 21.9606C26.7985 22.1811 26.6276 22.3826 26.4352 22.5613C27.0784 22.75 27.6448 23.0397 28.0582 23.4533L27.4963 24.0153C26.9302 23.4491 25.5913 23.0717 24.2444 23.0717C22.8974 23.0717 21.5585 23.4491 20.9925 24.0151L20.4305 23.4531C20.8438 23.0397 21.41 22.7499 22.0531 22.5613C21.8609 22.3826 21.6903 22.1808 21.546 21.9604H21.5459ZM33.9845 25.1195C33.6844 25.4755 33.329 25.8102 33.0043 26.1349C33.0008 26.1384 32.9969 26.142 32.9934 26.1455C33.0607 26.2973 33.1047 26.4569 33.117 26.6254C33.6108 26.3128 33.893 25.7459 33.9845 25.1195H33.9845ZM14.5042 25.1196C14.5957 25.746 14.8779 26.3128 15.3716 26.6254C15.3838 26.4589 15.4269 26.3011 15.4928 26.151C15.4851 26.1406 15.4767 26.1303 15.4694 26.1199C15.1486 25.7999 14.7996 25.4702 14.5042 25.1196ZM32.3251 26.7109C31.9643 26.9813 31.5306 27.2655 31.0616 27.5261C30.4995 27.8384 29.8972 28.1147 29.3051 28.2599C29.4813 28.2998 29.6762 28.3217 29.897 28.3217C30.5101 28.3217 31.149 28.0971 31.611 27.7712C32.0729 27.4453 32.3259 27.0358 32.3259 26.725C32.3259 26.7204 32.3252 26.7155 32.3251 26.7108V26.7109ZM16.1678 26.798C16.2031 27.0979 16.451 27.4702 16.8777 27.7713C17.3396 28.0972 17.9786 28.3217 18.5917 28.3217C18.8087 28.3217 19.0008 28.3005 19.1747 28.2618C18.5638 28.1181 17.9293 27.8428 17.3436 27.5291C16.9023 27.2927 16.5005 27.0485 16.1678 26.798L16.1678 26.798ZM20.3633 28.5452C20.5522 28.8863 21.1537 29.2512 21.9116 29.4779C22.6781 29.7072 23.575 29.8172 24.2444 29.8172C24.9087 29.8172 25.8059 29.7072 26.5737 29.4778C27.325 29.2534 27.9237 28.8931 28.1189 28.5559C26.6412 29.0969 24.8722 29.0776 24.2444 29.0776C23.606 29.0776 21.8495 29.0741 20.3633 28.5451V28.5452Z" fill="#B0E901"/>
<g style="mix-blend-mode:overlay">
<path d="M16.8719 21.7565C16.0822 21.7565 24.7692 4.97437 24.7692 4.97437H32.6665L27.4019 16.8206H33.325L22.7948 34.5899H14.2393L22.1367 21.7565H16.8719Z" fill="#D9D9D9"/>
</g>
<path d="M20.8199 4.97437H16.2131L9.63184 19.4531H13.9096L20.8199 4.97437Z" fill="url(#paint1_linear_88_2817)"/>
<defs>
<filter id="filter0_d_88_2817" x="0.974609" y="0.974365" width="45.6157" height="45.6155" filterUnits="userSpaceOnUse" color-interpolation-filters="sRGB">
<feFlood flood-opacity="0" result="BackgroundImageFix"/>
<feColorMatrix in="SourceAlpha" type="matrix" values="0 0 0 0 0 0 0 0 0 0 0 0 0 0 0 0 0 0 127 0" result="hardAlpha"/>
<feOffset dy="4"/>
<feGaussianBlur stdDeviation="4"/>
<feComposite in2="hardAlpha" operator="out"/>
<feColorMatrix type="matrix" values="0 0 0 0 0 0 0 0 0 0 0 0 0 0 0 0 0 0 1 0"/>
<feBlend mode="normal" in2="BackgroundImageFix" result="effect1_dropShadow_88_2817"/>
<feBlend mode="normal" in="SourceGraphic" in2="effect1_dropShadow_88_2817" result="shape"/>
</filter>
<linearGradient id="paint0_linear_88_2817" x1="23.7824" y1="4.97437" x2="23.7824" y2="34.5899" gradientUnits="userSpaceOnUse">
<stop stop-color="#111112"/>
<stop offset="1" stop-color="#1D1E1F"/>
</linearGradient>
<linearGradient id="paint1_linear_88_2817" x1="18.1874" y1="5.30343" x2="12.2643" y2="19.124" gradientUnits="userSpaceOnUse">
<stop stop-color="#303234"/>
<stop offset="1" stop-color="#303234" stop-opacity="0"/>
</linearGradient>
</defs>
</svg>
