<svg width="54" height="54" viewBox="0 0 54 54" fill="none" xmlns="http://www.w3.org/2000/svg">
<path d="M6 38.9048V44.0641H11.506M42.7437 44.0641H48.0641V38.9048M6 7.66891V2H11.506M48.0641 7.66891V2H42.7437" stroke="white" stroke-width="0.5"/>
<g filter="url(#filter0_d_88_3005)">
<rect x="8.47461" y="4.47437" width="37.1154" height="37.1154" fill="url(#paint0_linear_88_3005)"/>
</g>
<path d="M13.0001 9.35254V15.6198L22.0069 20.4137L17.8636 9.35254H13H13.0001ZM19.4396 9.35254L26.4252 17.8446L26.733 9.35254H19.4396ZM29.13 9.35254L31.5288 17.161L35.0895 9.35254H29.13ZM37.3508 9.35254L36.495 18.4969L40.8784 14.4214V9.35254H37.3508ZM13.0001 18.1872V23.9066L18.8568 24.4893L13.0002 18.1873L13.0001 18.1872ZM37.0081 20.5512C35.9593 20.5457 34.7297 21.083 33.7278 22.085C33.4167 22.3962 33.1516 22.7299 32.9325 23.0728C27.4357 19.761 13.5847 27.5491 22.4358 34.2017H15.4391L13.8869 37.0001H28.9687L23.779 30.9453C25.2022 29.3791 27.7348 28.3825 29.4672 28.3028C30.276 30.9474 31.5938 34.9584 33.6747 37H37.2426C34.717 34.2704 32.7544 30.6028 32.4377 26.4538C32.5325 26.6436 32.6559 26.8167 32.8079 26.9688C33.9023 28.0632 36.0885 27.6519 37.6915 26.0488C39.2946 24.4458 39.7059 22.2596 38.6115 21.1652C38.201 20.7547 37.6372 20.5546 37.008 20.5512L37.0081 20.5512ZM13.0001 27.3316V30.8244L17.5557 29.4206L13 27.3316H13.0001Z" fill="#AAAAAA"/>
<g style="mix-blend-mode:overlay">
<path d="M18.3716 25.5064C17.3819 25.5064 28.2688 4.47437 28.2688 4.47437H38.166L31.5682 19.3205H38.9913L25.7945 41.5898H15.0723L24.9697 25.5064H18.3716Z" fill="#D9D9D9"/>
</g>
<path d="M23.3202 4.47461H17.5467L9.29883 22.6199H14.6599L23.3202 4.47461Z" fill="url(#paint1_linear_88_3005)"/>
<defs>
<filter id="filter0_d_88_3005" x="0.474609" y="0.474365" width="53.1152" height="53.1155" filterUnits="userSpaceOnUse" color-interpolation-filters="sRGB">
<feFlood flood-opacity="0" result="BackgroundImageFix"/>
<feColorMatrix in="SourceAlpha" type="matrix" values="0 0 0 0 0 0 0 0 0 0 0 0 0 0 0 0 0 0 127 0" result="hardAlpha"/>
<feOffset dy="4"/>
<feGaussianBlur stdDeviation="4"/>
<feComposite in2="hardAlpha" operator="out"/>
<feColorMatrix type="matrix" values="0 0 0 0 0 0 0 0 0 0 0 0 0 0 0 0 0 0 1 0"/>
<feBlend mode="normal" in2="BackgroundImageFix" result="effect1_dropShadow_88_3005"/>
<feBlend mode="normal" in="SourceGraphic" in2="effect1_dropShadow_88_3005" result="shape"/>
</filter>
<linearGradient id="paint0_linear_88_3005" x1="27.0323" y1="4.47437" x2="27.0323" y2="41.5898" gradientUnits="userSpaceOnUse">
<stop stop-color="#111112"/>
<stop offset="1" stop-color="#1D1E1F"/>
</linearGradient>
<linearGradient id="paint1_linear_88_3005" x1="20.0211" y1="4.887" x2="12.598" y2="22.2075" gradientUnits="userSpaceOnUse">
<stop stop-color="#303234"/>
<stop offset="1" stop-color="#303234" stop-opacity="0"/>
</linearGradient>
</defs>
</svg>
