<svg width="47" height="47" viewBox="0 0 47 47" fill="none" xmlns="http://www.w3.org/2000/svg">
<path d="M6.3623 32.6071V36.7462H10.7795M35.8401 36.7462H40.1085V32.6071M6.3623 7.54792V3H10.7795M40.1085 7.54792V3H35.8401" stroke="white" stroke-width="0.5"/>
<g filter="url(#filter0_d_88_862)">
<rect x="8.34766" y="4.98535" width="29.7761" height="29.7761" fill="url(#paint0_linear_88_862)"/>
</g>
<path d="M22.5962 8.90763C21.4621 8.9172 20.0509 9.09361 18.3322 9.49329L18.5641 10.0512C26.6232 8.11684 27.5909 12.6333 22.203 13.7572C19.6326 14.2915 19.184 12.2351 21.9712 11.8924C23.0044 11.7613 23.9872 11.8269 24.8037 12.0688C24.965 11.8974 25.096 11.6857 25.1515 11.4171C24.1888 11.1555 23.085 11.0734 22.0115 11.2014C17.3545 11.7513 17.9693 15.3045 22.5911 14.4578C26.8802 13.6715 28.73 8.85672 22.5962 8.90763ZM15.9029 9.5079C15.3939 9.51597 14.719 9.70547 14.0386 10.0628C12.832 10.7029 12.0694 11.6303 12.3365 12.1343C12.3511 12.1645 12.3688 12.1897 12.3895 12.2149C12.398 12.1897 12.4076 12.1645 12.4182 12.1444C13.1833 10.845 15.2427 9.62836 16.7144 9.83601C16.7144 9.83097 16.7093 9.82593 16.7093 9.82593C16.5934 9.60568 16.296 9.50186 15.9029 9.5079ZM12.8829 13.0617C14.0396 14.2108 17.9542 11.8823 17.2537 10.7483C16.4724 9.48069 12.0034 12.1847 12.8829 13.0617ZM26.7089 12.1041C26.6131 12.3157 26.4871 12.5325 26.3359 12.7391C26.3057 12.7744 26.2754 12.8147 26.2452 12.85C27.223 13.7774 27.2986 15.2944 25.6857 17.3105C28.5636 14.992 28.2713 13.1524 26.7089 12.1041ZM27.7673 18.4243C26.2906 20.1733 28.866 21.9726 28.866 21.9726L28.6796 23.661L26.0184 22.1339C26.0184 22.1339 26.9911 25.5914 26.724 28.0257C26.6686 28.5297 26.3914 28.933 25.9831 29.185C25.5698 29.437 25.0608 29.4874 24.6021 29.3362C24.0628 29.1346 23.579 28.9884 23.5739 28.9834L23.4933 28.5146L23.9771 28.5953C24.2796 28.6406 24.5971 28.565 24.8491 28.3785C25.1061 28.1971 25.2775 27.9199 25.3279 27.6074C25.3481 27.4713 25.3682 27.31 25.2926 27.2042C25.2372 27.1286 25.1616 27.0782 25.0708 27.0681C24.1183 26.9119 21.4319 26.4885 21.4319 26.4885L21.9309 29.3261L21.8855 29.3362L25.3934 30.5962L27.7925 30.2434L29.1382 31.453H34.4505V28.2777L32.2479 26.8665L32.4244 23.9029L31.2702 21.2367L27.7673 18.4243ZM22.3643 18.9233L21.0388 20.4404L25.2624 20.9343C25.2624 20.9343 25.3077 20.5361 25.3581 20.1329C25.3833 19.9061 25.3178 19.6743 25.1716 19.4928C25.0255 19.3114 24.8188 19.1904 24.582 19.1652C23.6697 19.0695 22.3643 18.9233 22.3643 18.9233ZM21.5226 21.4434L21.195 23.1469L25.2019 23.9231C25.2019 23.9231 25.2825 23.5249 25.3632 23.1167C25.4539 22.653 25.1515 22.1994 24.6828 22.0986C23.5084 21.8567 21.5226 21.4434 21.5226 21.4434ZM21.3765 23.9433L21.0236 25.5813L24.8743 26.4129C24.8743 26.4129 24.9549 26.0248 25.0406 25.6216C25.1414 25.1529 24.844 24.6892 24.3753 24.5884C23.2413 24.3414 21.3765 23.9433 21.3765 23.9433Z" fill="#AAAAAA"/>
<g style="mix-blend-mode:overlay">
<path d="M16.2876 21.8584C15.4935 21.8584 24.2277 4.98535 24.2277 4.98535H32.1678L26.8746 16.8958H32.8298L22.2426 34.7614H13.6406L21.5809 21.8584H16.2876Z" fill="#D9D9D9"/>
</g>
<path d="M20.2575 4.98535H15.6257L9.00879 19.5425H13.3098L20.2575 4.98535Z" fill="url(#paint1_linear_88_862)"/>
<defs>
<filter id="filter0_d_88_862" x="0.347656" y="0.985352" width="45.7761" height="45.7759" filterUnits="userSpaceOnUse" color-interpolation-filters="sRGB">
<feFlood flood-opacity="0" result="BackgroundImageFix"/>
<feColorMatrix in="SourceAlpha" type="matrix" values="0 0 0 0 0 0 0 0 0 0 0 0 0 0 0 0 0 0 127 0" result="hardAlpha"/>
<feOffset dy="4"/>
<feGaussianBlur stdDeviation="4"/>
<feComposite in2="hardAlpha" operator="out"/>
<feColorMatrix type="matrix" values="0 0 0 0 0 0 0 0 0 0 0 0 0 0 0 0 0 0 1 0"/>
<feBlend mode="normal" in2="BackgroundImageFix" result="effect1_dropShadow_88_862"/>
<feBlend mode="normal" in="SourceGraphic" in2="effect1_dropShadow_88_862" result="shape"/>
</filter>
<linearGradient id="paint0_linear_88_862" x1="23.2357" y1="4.98535" x2="23.2357" y2="34.7614" gradientUnits="userSpaceOnUse">
<stop stop-color="#111112"/>
<stop offset="1" stop-color="#1D1E1F"/>
</linearGradient>
<linearGradient id="paint1_linear_88_862" x1="17.6108" y1="5.3162" x2="11.6555" y2="19.2117" gradientUnits="userSpaceOnUse">
<stop stop-color="#303234"/>
<stop offset="1" stop-color="#303234" stop-opacity="0"/>
</linearGradient>
</defs>
</svg>
