<svg width="47" height="47" viewBox="0 0 47 47" fill="none" xmlns="http://www.w3.org/2000/svg">
<path d="M6.72534 32.6071V36.7462H11.1426M36.2032 36.7462H40.4715V32.6071M6.72534 7.54792V3H11.1426M40.4715 7.54792V3H36.2032" stroke="white" stroke-width="0.5"/>
<g filter="url(#filter0_d_88_869)">
<rect x="8.71069" y="4.98535" width="29.7761" height="29.7761" fill="url(#paint0_linear_88_869)"/>
</g>
<path d="M23.8697 9.52051C17.6249 9.52051 12.5632 14.5822 12.5632 20.827C12.5632 22.0778 12.7667 23.2817 13.1419 24.4065C15.1193 23.2146 16.8855 22.3791 18.4387 21.8443C16.6781 22.1208 15.1686 23.0094 13.0294 22.0413C14.5832 20.674 17.3474 18.7988 19.8515 18.5124C21.1605 17.448 23.2058 16.3475 24.2667 16.6765C25.7682 15.3532 27.6145 13.668 29.5913 12.4537C30.1166 13.2493 30.4346 14.2236 30.21 15.3038C26.2521 16.2988 27.1719 22.6378 30.8732 18.6249C31.1859 19.2682 31.3366 19.938 31.3211 20.6654C29.712 22.3314 28.0232 23.7692 26.3011 24.9944C26.3241 26.1758 26.0251 27.6003 25.3655 29.1711C25.088 29.832 25.0045 30.9639 26.492 31.8289C31.4727 30.6464 35.1777 26.1694 35.1777 20.827C35.1777 14.5822 30.1145 9.52056 23.8696 9.52056L23.8697 9.52051ZM24.0328 17.6153C23.1545 17.7246 22.4179 18.0607 21.7752 18.5493C22.3703 18.5476 23.0365 18.6913 23.6219 18.8525C23.9276 18.5227 24.126 17.9405 24.0329 17.6152L24.0328 17.6153Z" fill="#AAAAAA"/>
<g style="mix-blend-mode:overlay">
<path d="M16.6506 21.8584C15.8566 21.8584 24.5907 4.98535 24.5907 4.98535H32.5308L27.2377 16.8958H33.1929L22.6056 34.7614H14.0037L21.9439 21.8584H16.6506Z" fill="#D9D9D9"/>
</g>
<path d="M20.6206 4.98535H15.9887L9.37183 19.5425H13.6728L20.6206 4.98535Z" fill="url(#paint1_linear_88_869)"/>
<defs>
<filter id="filter0_d_88_869" x="0.710693" y="0.985352" width="45.7761" height="45.7759" filterUnits="userSpaceOnUse" color-interpolation-filters="sRGB">
<feFlood flood-opacity="0" result="BackgroundImageFix"/>
<feColorMatrix in="SourceAlpha" type="matrix" values="0 0 0 0 0 0 0 0 0 0 0 0 0 0 0 0 0 0 127 0" result="hardAlpha"/>
<feOffset dy="4"/>
<feGaussianBlur stdDeviation="4"/>
<feComposite in2="hardAlpha" operator="out"/>
<feColorMatrix type="matrix" values="0 0 0 0 0 0 0 0 0 0 0 0 0 0 0 0 0 0 1 0"/>
<feBlend mode="normal" in2="BackgroundImageFix" result="effect1_dropShadow_88_869"/>
<feBlend mode="normal" in="SourceGraphic" in2="effect1_dropShadow_88_869" result="shape"/>
</filter>
<linearGradient id="paint0_linear_88_869" x1="23.5987" y1="4.98535" x2="23.5987" y2="34.7614" gradientUnits="userSpaceOnUse">
<stop stop-color="#111112"/>
<stop offset="1" stop-color="#1D1E1F"/>
</linearGradient>
<linearGradient id="paint1_linear_88_869" x1="17.9738" y1="5.3162" x2="12.0186" y2="19.2117" gradientUnits="userSpaceOnUse">
<stop stop-color="#303234"/>
<stop offset="1" stop-color="#303234" stop-opacity="0"/>
</linearGradient>
</defs>
</svg>
