<svg width="46" height="47" viewBox="0 0 46 47" fill="none" xmlns="http://www.w3.org/2000/svg">
<path d="M6.0896 32.6071V36.7462H10.5068M35.5674 36.7462H39.8358V32.6071M6.0896 7.54792V3H10.5068M39.8358 7.54792V3H35.5674" stroke="white" stroke-width="0.5"/>
<g filter="url(#filter0_d_88_876)">
<rect x="8.07495" y="4.98535" width="29.7761" height="29.7761" fill="url(#paint0_linear_88_876)"/>
</g>
<path d="M17.5583 8.29341C17.5312 8.29274 17.5062 8.29293 17.4836 8.2937C17.4404 8.29504 17.4124 8.29724 17.3859 8.29849C17.3591 8.29719 17.3313 8.29504 17.2881 8.2937C17.232 8.29193 17.1621 8.29274 17.0788 8.30342H17.0782L17.0776 8.30356C15.4553 8.51435 14.2549 10.0729 14.2549 12.0471C14.2549 12.9033 14.4718 13.759 14.859 14.4479C14.3323 14.6588 13.8903 14.9929 13.5422 15.4107C13.0635 15.9852 12.7483 16.7043 12.5307 17.4935C12.0957 19.0719 12.0457 20.9513 12.0457 22.646V23.0935H14.0589L14.5623 30.9236H17.1871V30.9243H29.4399V30.9237H31.9996L32.5031 23.0935H34.5165V22.646C34.5165 20.9514 34.4663 19.072 34.0313 17.4935C33.8137 16.7044 33.4986 15.9852 33.0199 15.4108C32.6718 14.993 32.2299 14.6589 31.7031 14.448C32.0902 13.7592 32.3072 12.9034 32.3072 12.0473C32.3072 10.073 31.1068 8.51449 29.4845 8.30371L29.4839 8.30361H29.4833C29.4683 8.3017 29.4541 8.3004 29.4399 8.29906V8.29873H29.4367C29.3738 8.29298 29.3192 8.29241 29.2739 8.29384C29.2311 8.29518 29.2038 8.29719 29.1771 8.29854C29.1508 8.29729 29.1232 8.29518 29.0803 8.29384C29.0351 8.29241 28.9805 8.29298 28.9175 8.29873H17.6464C17.6149 8.29585 17.5856 8.29423 17.5583 8.29356V8.29341ZM17.3859 9.19425C17.3972 9.19435 17.4027 9.19473 17.4149 9.19473C17.4692 9.19473 17.5239 9.19832 17.5784 9.20416H28.9837C29.0383 9.19832 29.0928 9.19473 29.1472 9.19473C29.16 9.19473 29.1656 9.19435 29.1772 9.19425C29.1889 9.19435 29.1945 9.19473 29.2072 9.19473C29.4628 9.19473 29.7237 9.2611 29.9674 9.37587L29.9708 9.36855C30.8011 9.76168 31.4125 10.7282 31.4125 12.0472C31.4125 12.9409 31.0836 13.8942 30.6487 14.4181L30.163 15.0031L30.9103 15.1436C31.5237 15.2589 31.9671 15.545 32.3324 15.9835C32.6978 16.422 32.9734 17.0231 33.1686 17.7313C33.5248 19.0234 33.6042 20.6508 33.6161 22.1985H31.6638L31.1606 30.0287H27.1937L27.1936 30.028H19.3702V30.0287H15.4016L14.8982 22.1986H12.9461C12.9579 20.6508 13.0373 19.0234 13.3935 17.7313C13.5887 17.0231 13.8643 16.422 14.2297 15.9836C14.595 15.5451 15.0384 15.2589 15.6518 15.1437L16.3991 15.0031L15.9135 14.4181C15.4785 13.8943 15.1497 12.9409 15.1497 12.0472C15.1497 10.7273 15.7618 9.76057 16.5929 9.36793L16.5966 9.37587C16.8404 9.2611 17.1012 9.19473 17.3568 9.19473C17.3691 9.19473 17.3745 9.19435 17.3859 9.19425ZM19.0445 10.0991C19.2329 10.3582 19.3836 10.6661 19.4836 11.0159H27.0803C27.1804 10.666 27.331 10.3582 27.5194 10.0992H19.0445V10.0991ZM19.6197 11.9109C19.6211 11.9559 19.6221 12.0013 19.6221 12.0472C19.6221 12.3063 19.5936 12.5704 19.5437 12.8277H27.0201C26.9703 12.5704 26.9419 12.3063 26.9419 12.0472C26.9419 12.0013 26.9429 11.9559 26.9443 11.9109H19.6197ZM19.2694 13.7226C19.152 13.9935 19.0119 14.233 18.8582 14.4181L18.6747 14.6394H27.8892L27.7057 14.4181C27.552 14.233 27.412 13.9935 27.2946 13.7226H19.2694H19.2694ZM20.0631 15.5344C20.2388 15.6593 20.3967 15.8092 20.542 15.9835C20.6585 16.1233 20.7658 16.2799 20.8644 16.4511H25.6995C25.7981 16.2799 25.9054 16.1233 26.0219 15.9835C26.1672 15.8092 26.325 15.6593 26.5007 15.5344H20.0631ZM21.2604 17.3461C21.3025 17.4705 21.3418 17.599 21.3782 17.7313C21.4255 17.9027 21.4676 18.0804 21.5055 18.2626H25.0583C25.0964 18.0804 25.1385 17.9027 25.1857 17.7313C25.2222 17.599 25.2615 17.4705 25.3035 17.3461H21.2604ZM21.6542 19.1577C21.693 19.4565 21.7235 19.763 21.7472 20.0743H24.8166C24.8403 19.7631 24.8709 19.4565 24.9097 19.1576H21.6543L21.6542 19.1577ZM21.7982 20.9694C21.8103 21.2751 21.817 21.5812 21.8213 21.8861H24.7425C24.7469 21.5812 24.7536 21.2751 24.7656 20.9693H21.7981L21.7982 20.9694ZM19.8361 22.7812L19.7771 23.6979H26.7868L26.7279 22.7812H19.8361V22.7812ZM19.7196 24.5929L19.6607 25.5096H26.9033L26.8444 24.593H19.7195L19.7196 24.5929ZM19.6032 26.4047L19.5442 27.3213H27.0197L26.9608 26.4047H19.6032ZM19.4867 28.2163L19.4278 29.133H27.1362L27.0773 28.2164H19.4867V28.2163Z" fill="#AAAAAA"/>
<g style="mix-blend-mode:overlay">
<path d="M16.0149 21.8584C15.2208 21.8584 23.955 4.98535 23.955 4.98535H31.8951L26.6019 16.8958H32.5571L21.9699 34.7614H13.3679L21.3082 21.8584H16.0149Z" fill="#D9D9D9"/>
</g>
<path d="M19.9848 4.98535H15.353L8.73608 19.5425H13.0371L19.9848 4.98535Z" fill="url(#paint1_linear_88_876)"/>
<defs>
<filter id="filter0_d_88_876" x="0.0749512" y="0.985352" width="45.7761" height="45.7759" filterUnits="userSpaceOnUse" color-interpolation-filters="sRGB">
<feFlood flood-opacity="0" result="BackgroundImageFix"/>
<feColorMatrix in="SourceAlpha" type="matrix" values="0 0 0 0 0 0 0 0 0 0 0 0 0 0 0 0 0 0 127 0" result="hardAlpha"/>
<feOffset dy="4"/>
<feGaussianBlur stdDeviation="4"/>
<feComposite in2="hardAlpha" operator="out"/>
<feColorMatrix type="matrix" values="0 0 0 0 0 0 0 0 0 0 0 0 0 0 0 0 0 0 1 0"/>
<feBlend mode="normal" in2="BackgroundImageFix" result="effect1_dropShadow_88_876"/>
<feBlend mode="normal" in="SourceGraphic" in2="effect1_dropShadow_88_876" result="shape"/>
</filter>
<linearGradient id="paint0_linear_88_876" x1="22.963" y1="4.98535" x2="22.963" y2="34.7614" gradientUnits="userSpaceOnUse">
<stop stop-color="#111112"/>
<stop offset="1" stop-color="#1D1E1F"/>
</linearGradient>
<linearGradient id="paint1_linear_88_876" x1="17.3381" y1="5.3162" x2="11.3828" y2="19.2117" gradientUnits="userSpaceOnUse">
<stop stop-color="#303234"/>
<stop offset="1" stop-color="#303234" stop-opacity="0"/>
</linearGradient>
</defs>
</svg>
