<svg width="46" height="47" viewBox="0 0 46 47" fill="none" xmlns="http://www.w3.org/2000/svg">
<path d="M6.29175 32.4475V36.5643H10.6852M35.6107 36.5643H39.8561V32.4475M6.29175 7.52341V3H10.6852M39.8561 7.52341V3H35.6107" stroke="white" stroke-width="0.5"/>
<g filter="url(#filter0_d_88_2594)">
<rect x="8.26611" y="4.97437" width="29.6156" height="29.6156" fill="url(#paint0_linear_88_2594)"/>
</g>
<path d="M20.4341 8.58521L19.1267 12.1639L15.0485 10.8082L15.8711 14.8219L11.7276 16.0592L14.2239 18.6885L11.3789 21.0263L15.883 22.2418L12.4115 25.4724L14.8592 26.0971L13.7644 28.5875L16.6903 26.7915L16.0401 30.931L20.8884 27.9933L22.7684 31.6374L24.6475 28.7008L28.3804 30.9231L28.2488 26.4098L32.3486 28.108L30.8429 24.7448L33.179 24.8059L31.1201 22.306L34.1873 21.3616L31.1593 19.598L33.9155 16.0937L30.5084 15.5018L33.7167 10.6738L28.482 12.8098L29.1261 9.66948L25.7078 12.4785L25.0771 9.34586L23.0979 11.8613L20.4342 8.58521H20.4341ZM22.9474 12.9536H22.9497C26.8919 12.9536 29.9882 15.4609 29.9882 18.3937C29.9882 19.3254 29.5445 19.8632 28.751 20.3831C27.9575 20.903 26.8294 21.3223 25.6846 21.837L25.3304 21.9963L26.6202 26.5035C26.2201 26.6301 25.8001 26.74 25.367 26.8321L24.3836 24.6052L24.2514 27.0255C23.8671 27.0775 23.4775 27.1159 23.0865 27.1396L22.58 24.6619L21.9737 27.1672C21.5834 27.1624 21.1957 27.1424 20.8148 27.106L20.6872 24.709L19.7253 26.9526C19.2546 26.8637 18.8015 26.7469 18.3761 26.5992L20.0219 22.1724L19.6944 21.9826C18.7574 21.4393 17.7721 20.9327 17.055 20.3575C16.3379 19.7823 15.9112 19.195 15.9112 18.3936C15.9112 15.4614 19.0062 12.9545 22.9473 12.9535L22.9474 12.9536ZM25.9676 15.6199C24.5491 15.6124 23.2764 16.7929 23.5487 18.7589C24.0425 22.3251 30.1082 19.842 28.5064 17.2052C27.8459 16.1179 26.8768 15.6248 25.9675 15.62L25.9676 15.6199ZM19.2011 15.6432C18.3603 15.656 17.5449 16.1563 17.1497 17.4049C16.3709 19.8662 20.6426 22.1003 21.7304 18.6629C22.2171 17.1246 20.7311 15.6751 19.2825 15.6435C19.2553 15.6429 19.2282 15.6428 19.2011 15.6432ZM19.3754 16.6545C20.1717 16.6545 20.8269 17.3097 20.8269 18.106C20.8269 18.9024 20.1717 19.5575 19.3754 19.5575C18.5791 19.5575 17.9239 18.9024 17.9239 18.106C17.9239 17.3097 18.5791 16.6545 19.3754 16.6545ZM19.3754 17.5519C19.064 17.5519 18.8213 17.7947 18.8213 18.106C18.8213 18.4175 19.064 18.6603 19.3754 18.6603C19.6868 18.6603 19.9297 18.4175 19.9297 18.106C19.9297 17.7946 19.6868 17.552 19.3754 17.552L19.3754 17.5519ZM26.0861 17.5519C26.3976 17.5519 26.6404 17.7946 26.6404 18.106C26.6404 18.4175 26.3976 18.6603 26.0861 18.6603C25.7748 18.6603 25.532 18.4175 25.532 18.106C25.532 17.7947 25.7748 17.552 26.0861 17.552V17.5519ZM22.6957 20.1978L21.6194 22.5948H23.405L22.6957 20.1977V20.1978Z" fill="#AAAAAA"/>
<g style="mix-blend-mode:overlay">
<path d="M16.1644 21.7565C15.3747 21.7565 24.0617 4.97437 24.0617 4.97437H31.959L26.6944 16.8206H32.6175L22.0874 34.59H13.5317L21.4292 21.7565H16.1644Z" fill="#D9D9D9"/>
</g>
<path d="M20.1127 4.97437H15.5058L8.92456 19.4531H13.2024L20.1127 4.97437Z" fill="url(#paint1_linear_88_2594)"/>
<defs>
<filter id="filter0_d_88_2594" x="0.266113" y="0.974365" width="45.6157" height="45.6155" filterUnits="userSpaceOnUse" color-interpolation-filters="sRGB">
<feFlood flood-opacity="0" result="BackgroundImageFix"/>
<feColorMatrix in="SourceAlpha" type="matrix" values="0 0 0 0 0 0 0 0 0 0 0 0 0 0 0 0 0 0 127 0" result="hardAlpha"/>
<feOffset dy="4"/>
<feGaussianBlur stdDeviation="4"/>
<feComposite in2="hardAlpha" operator="out"/>
<feColorMatrix type="matrix" values="0 0 0 0 0 0 0 0 0 0 0 0 0 0 0 0 0 0 1 0"/>
<feBlend mode="normal" in2="BackgroundImageFix" result="effect1_dropShadow_88_2594"/>
<feBlend mode="normal" in="SourceGraphic" in2="effect1_dropShadow_88_2594" result="shape"/>
</filter>
<linearGradient id="paint0_linear_88_2594" x1="23.0739" y1="4.97437" x2="23.0739" y2="34.59" gradientUnits="userSpaceOnUse">
<stop stop-color="#111112"/>
<stop offset="1" stop-color="#1D1E1F"/>
</linearGradient>
<linearGradient id="paint1_linear_88_2594" x1="17.4802" y1="5.30343" x2="11.5571" y2="19.124" gradientUnits="userSpaceOnUse">
<stop stop-color="#303234"/>
<stop offset="1" stop-color="#303234" stop-opacity="0"/>
</linearGradient>
</defs>
</svg>
