<svg width="67" height="67" viewBox="0 0 67 67" fill="none" xmlns="http://www.w3.org/2000/svg">
<path d="M4.99976 51.0088V58.0002H12.4609M54.7903 58.0002H61.9999V51.0088M4.99976 8.68182V1H12.4609M61.9999 8.68182V1H54.7903" stroke="white" stroke-width="0.5"/>
<g filter="url(#filter0_d_88_1449)">
<rect x="8.35327" y="4.35352" width="50.2943" height="50.2943" fill="url(#paint0_linear_88_1449)"/>
</g>
<path d="M20.1852 10L20.1716 22.7891C20.427 22.8306 20.689 22.902 20.9543 23.004C23.9963 24.1742 27.1402 24.8391 30.2784 25.0876L33.8961 20.1458L37.4233 24.9641C40.4913 24.6265 43.4719 23.9414 46.2559 22.9936C46.5688 22.8871 46.8701 22.8153 47.1576 22.7809L47.2846 10.0001L40.9648 17.8159L38.1238 10.0002L33.6458 18.4858L29.1679 10.0002L26.2137 17.8159L20.1852 10ZM33.8961 22.766L31.5092 26.0264L33.8959 29.2868L36.2829 26.0264L33.8961 22.766ZM19.7148 24.2759C19.5337 24.2694 19.3947 24.2983 19.297 24.3382C19.1016 24.4182 19.0326 24.5174 19.0056 24.6815C18.9519 25.0095 19.2411 25.8552 20.9253 26.4286C24.4011 27.6121 27.9487 28.3711 31.4925 28.6235L30.013 26.6028C26.7812 26.3341 23.5374 25.6396 20.3858 24.4273C20.1193 24.3248 19.8959 24.2825 19.7148 24.2759ZM47.4941 24.2915C47.3144 24.2957 47.0734 24.3333 46.7666 24.4379C43.9675 25.3908 40.9747 26.0914 37.8877 26.4538L36.2819 28.6474C39.6516 28.4346 42.9862 27.7242 46.2192 26.4422C47.5456 25.9163 48.008 24.9854 47.9996 24.6131C47.9953 24.4269 47.9765 24.4032 47.8535 24.3453C47.792 24.3164 47.6738 24.2872 47.4941 24.2915ZM45.984 28.1717C42.4415 29.4698 38.794 30.123 35.1264 30.2262L33.8961 31.9069L32.6559 30.2129C28.9063 30.0701 25.1559 29.3761 21.4946 28.2247C20.4294 30.5567 19.9159 33.2257 19.8607 35.8678C22.9881 37.299 25.0398 39.1246 26.1585 41.1543C27.2364 43.1095 27.4266 45.2215 27.0016 47.2141C27.6451 47.6236 28.3458 47.962 29.0838 48.2309L29.547 44.3137L31.0943 44.4899L30.5996 48.6743C31.3972 48.8551 32.2202 48.963 33.0482 49V44.5282H34.6061V48.9853C35.4315 48.9331 36.2485 48.8112 37.0362 48.6185L36.548 44.4899L38.0954 44.3136L38.5485 48.146C39.2776 47.8661 39.9658 47.5208 40.5911 47.108C40.1112 45.1111 40.2769 43.0455 41.3421 41.1378C42.449 39.1556 44.486 37.3752 47.5771 35.8791C47.5255 33.1368 47.0198 30.4708 45.984 28.1717ZM23.7512 32.0166C26.6353 32.0354 29.453 33.0175 32.1996 35.0322C28.315 37.7435 21.3809 37.8437 23.1734 32.0258C23.3663 32.0184 23.5589 32.0152 23.7512 32.0166ZM43.9912 32.0166C44.1835 32.0153 44.3761 32.0184 44.5689 32.0256C46.3614 37.8436 39.4273 37.7434 35.5428 35.0322C38.2892 33.0176 41.1071 32.0354 43.9912 32.0166ZM33.7515 36.1028C34.7326 37.8799 35.3513 39.6571 35.8659 41.4342H31.6369C32.0178 39.6571 32.7846 37.8803 33.7515 36.1028Z" fill="#9BA1AA"/>
<g style="mix-blend-mode:overlay">
<path d="M21.7646 32.8536C20.4234 32.8536 35.1761 4.35352 35.1761 4.35352H48.5876L39.647 24.4712H49.7059L31.8232 54.6478H17.2937L30.7055 32.8536H21.7646Z" fill="#D9D9D9"/>
</g>
<path d="M28.4695 4.35352H20.646L9.46948 28.9418H16.7342L28.4695 4.35352Z" fill="url(#paint1_linear_88_1449)"/>
<defs>
<filter id="filter0_d_88_1449" x="0.353271" y="0.353516" width="66.2942" height="66.2944" filterUnits="userSpaceOnUse" color-interpolation-filters="sRGB">
<feFlood flood-opacity="0" result="BackgroundImageFix"/>
<feColorMatrix in="SourceAlpha" type="matrix" values="0 0 0 0 0 0 0 0 0 0 0 0 0 0 0 0 0 0 127 0" result="hardAlpha"/>
<feOffset dy="4"/>
<feGaussianBlur stdDeviation="4"/>
<feComposite in2="hardAlpha" operator="out"/>
<feColorMatrix type="matrix" values="0 0 0 0 0 0 0 0 0 0 0 0 0 0 0 0 0 0 1 0"/>
<feBlend mode="normal" in2="BackgroundImageFix" result="effect1_dropShadow_88_1449"/>
<feBlend mode="normal" in="SourceGraphic" in2="effect1_dropShadow_88_1449" result="shape"/>
</filter>
<linearGradient id="paint0_linear_88_1449" x1="33.5004" y1="4.35352" x2="33.5004" y2="54.6478" gradientUnits="userSpaceOnUse">
<stop stop-color="#111112"/>
<stop offset="1" stop-color="#1D1E1F"/>
</linearGradient>
<linearGradient id="paint1_linear_88_1449" x1="23.9989" y1="4.91234" x2="13.9401" y2="28.383" gradientUnits="userSpaceOnUse">
<stop stop-color="#303234"/>
<stop offset="1" stop-color="#303234" stop-opacity="0"/>
</linearGradient>
</defs>
</svg>
