<svg width="67" height="67" viewBox="0 0 67 67" fill="none" xmlns="http://www.w3.org/2000/svg">
<path d="M4.99976 51.0088V58.0002H12.4609M54.7903 58.0002H61.9999V51.0088M4.99976 8.68182V1H12.4609M61.9999 8.68182V1H54.7903" stroke="white" stroke-width="0.5"/>
<g filter="url(#filter0_d_88_1455)">
<rect x="8.35327" y="4.35352" width="50.2943" height="50.2943" fill="url(#paint0_linear_88_1455)"/>
</g>
<path d="M22.1024 10.5908C17.21 10.5908 13.2439 14.5569 13.2439 19.4493V24.1075C13.2439 27.5646 18.0259 29.6395 16.4 26.5887C15.5837 25.0568 14.0219 21.2398 16.6027 21.3255C19.0002 21.4052 16.0791 25.6679 18.9853 26.0943C21.3642 26.3656 21.4078 24.1854 21.0745 22.4274C20.9433 21.7353 20.7046 20.9528 21.1545 20.4108C22.0189 19.3695 24.3207 19.57 24.4521 21.2135C25.1615 24.4161 24.5988 27.7273 23.55 30.785C23.0334 33.0012 25.5104 35.219 27.6236 34.184C29.4187 33.4336 29.8963 31.0724 28.9296 29.4919C28.3844 28.2679 28.0178 26.8704 28.0492 25.5046C28.0764 24.32 28.8046 22.7715 29.9239 23.1604C30.6155 23.4007 31.1136 24.2797 30.9862 25.3603C30.7687 27.2033 33.8758 27.9777 34.9723 26.3936C35.986 25.2626 34.6776 22.6769 37.1336 23.1725C39.1652 23.8786 38.8378 26.6977 39.1368 28.4427C39.2935 33.2579 38.7362 38.1004 37.6763 42.7945C37.1134 44.5632 36.3728 46.8909 38.0748 48.294C39.7827 49.925 42.8375 48.5219 42.9101 46.219C42.9285 42.7805 41.661 39.4853 41.5237 36.0516C41.3657 31.9958 41.0378 27.9198 41.3131 23.8638C41.3418 23.4415 41.3266 23.0133 41.4066 22.5977C41.6811 21.1717 43.0559 19.6863 44.394 19.9535C45.0833 20.0911 45.57 20.7356 45.7218 21.422C46.0864 23.0712 45.0049 24.8148 45.1272 26.4318C45.372 29.6679 50.5098 27.389 48.6639 24.8262C47.3524 23.0103 50.4748 19.6207 51.1179 22.7863C51.8732 25.1601 52.0676 27.9848 50.8954 30.1498C50.0187 31.7687 49.4412 34.0513 51.3805 34.8845C52.3599 35.3922 53.016 34.2328 53.016 33.1297V19.4493C53.016 14.5569 49.0499 10.5908 44.1575 10.5908H22.1024ZM18.2011 21.6095C18.0657 20.8919 18.6127 20.867 18.8934 21.5412C19.2919 22.4988 18.7352 23.598 18.8735 24.3795C18.9226 24.6574 19.1639 24.9402 19.3855 25.1148C19.6605 25.3314 19.5124 25.4068 19.1717 25.3266C17.6295 24.9633 18.138 23.7234 18.2691 22.4278C18.2912 22.21 18.2417 21.8246 18.2011 21.6095ZM25.1461 21.4537C25.1461 21.4537 25.1461 21.4537 25.1462 21.4537C26.4086 24.5544 26.3705 27.4262 25.2141 30.4723C24.8024 31.3521 24.3632 32.1581 24.2854 31.1899C24.2397 30.6227 24.3421 30.0272 24.5935 29.4758C24.6219 29.4134 24.6481 29.3492 24.6682 29.2838C25.4429 26.7676 25.6732 24.8101 25.146 21.4537C25.146 21.4537 25.146 21.4537 25.1461 21.4537ZM32.1881 26.0592C31.6817 25.6107 32.2475 25.2543 32.8132 25.6253C33.278 25.9301 33.5679 26.6578 33.0306 26.5153C32.721 26.4331 32.4295 26.2729 32.1881 26.0592ZM45.8342 24.9241C45.9699 24.9234 46.1317 25.1647 46.2556 25.7648C46.4828 26.8659 47.4323 27.5347 46.3745 27.1536C45.9869 27.0139 45.6801 26.6839 45.6082 26.1139C45.4936 25.443 45.6358 24.9251 45.8342 24.9241ZM52.3669 26.1398C52.3669 26.1398 52.367 26.1398 52.3671 26.1398C52.3683 26.1397 52.3695 26.1397 52.3707 26.1397C52.3759 26.1398 52.3797 26.1443 52.3803 26.1495C52.4384 26.6084 52.4833 27.1199 52.4846 27.5925C52.4849 27.7062 52.4922 27.8198 52.502 27.933C52.669 29.8735 51.1693 31.5527 51.8285 33.3639C52.1704 34.3036 52.1377 34.9274 51.2366 34.2084C50.3263 33.3623 50.7759 31.9144 51.2772 30.6794C51.4996 30.1317 51.7918 29.6044 51.9137 29.026C52.1574 27.8692 52.1743 26.1569 52.3667 26.1397C52.3668 26.1397 52.3668 26.1397 52.3669 26.1398ZM39.7884 31.1447C39.7884 31.1447 39.7884 31.1447 39.7884 31.1448C40.1436 32.256 39.9519 33.9285 40.0521 35.2203C39.963 38.9736 39.163 42.52 38.8497 46.1827C38.8004 46.7584 39.9576 48.5689 38.7433 47.913C37.3164 47.1147 37.8779 45.2724 38.1469 44.031C39.2914 39.831 39.6347 35.4784 39.7883 31.1448C39.7883 31.1447 39.7883 31.1447 39.7884 31.1447Z" fill="#9BA1AA"/>
<g style="mix-blend-mode:overlay">
<path d="M21.7646 32.8536C20.4234 32.8536 35.1761 4.35352 35.1761 4.35352H48.5876L39.647 24.4712H49.7059L31.8232 54.6478H17.2937L30.7055 32.8536H21.7646Z" fill="#D9D9D9"/>
</g>
<path d="M28.4695 4.35352H20.646L9.46948 28.9418H16.7342L28.4695 4.35352Z" fill="url(#paint1_linear_88_1455)"/>
<defs>
<filter id="filter0_d_88_1455" x="0.353271" y="0.353516" width="66.2942" height="66.2944" filterUnits="userSpaceOnUse" color-interpolation-filters="sRGB">
<feFlood flood-opacity="0" result="BackgroundImageFix"/>
<feColorMatrix in="SourceAlpha" type="matrix" values="0 0 0 0 0 0 0 0 0 0 0 0 0 0 0 0 0 0 127 0" result="hardAlpha"/>
<feOffset dy="4"/>
<feGaussianBlur stdDeviation="4"/>
<feComposite in2="hardAlpha" operator="out"/>
<feColorMatrix type="matrix" values="0 0 0 0 0 0 0 0 0 0 0 0 0 0 0 0 0 0 1 0"/>
<feBlend mode="normal" in2="BackgroundImageFix" result="effect1_dropShadow_88_1455"/>
<feBlend mode="normal" in="SourceGraphic" in2="effect1_dropShadow_88_1455" result="shape"/>
</filter>
<linearGradient id="paint0_linear_88_1455" x1="33.5004" y1="4.35352" x2="33.5004" y2="54.6478" gradientUnits="userSpaceOnUse">
<stop stop-color="#111112"/>
<stop offset="1" stop-color="#1D1E1F"/>
</linearGradient>
<linearGradient id="paint1_linear_88_1455" x1="23.9989" y1="4.91234" x2="13.9401" y2="28.383" gradientUnits="userSpaceOnUse">
<stop stop-color="#303234"/>
<stop offset="1" stop-color="#303234" stop-opacity="0"/>
</linearGradient>
</defs>
</svg>
