<svg width="53" height="59" viewBox="0 0 53 59" fill="none" xmlns="http://www.w3.org/2000/svg">
<path fill-rule="evenodd" clip-rule="evenodd" d="M0.774759 12.4592C0.490467 12.9294 0.565646 13.0484 1.76127 14.0169C2.31591 14.4662 3.35866 15.3885 4.0783 16.0666C4.79813 16.7446 6.4538 18.0639 7.75751 18.9983C9.06151 19.9328 10.1795 20.7973 10.2424 20.9197C10.3052 21.0419 9.64866 22.9742 8.78332 25.2139C7.91807 27.4533 7.05599 29.912 6.86747 30.6774C6.53504 32.0276 6.54128 32.0814 7.07746 32.4966C7.38142 32.7321 7.89989 32.944 8.22993 32.9679C8.81046 33.0096 8.88956 32.8493 10.6706 28.0336C11.683 25.2962 12.607 22.9764 12.7239 22.8789C12.841 22.7811 13.4058 23.0111 13.979 23.3901C14.5522 23.7688 15.8714 24.6466 16.9105 25.3406C18.8833 26.6579 19.4967 26.7389 19.0641 25.6249C18.8985 25.1985 18.0591 24.4154 16.2333 22.983C14.794 21.8543 13.6164 20.7895 13.5896 20.5932C13.5629 20.3986 14.2198 18.58 15.0487 16.5519C15.8779 14.524 16.655 12.4964 16.7757 12.0462C17.1546 10.6337 16.0475 9.23532 15.1661 10.0131C14.969 10.1869 14.0667 12.2083 13.1608 14.5052C12.2548 16.8023 11.425 18.7246 11.3167 18.7773C11.2083 18.83 9.28022 17.3845 7.03173 15.5649C4.78336 13.7456 2.67526 12.1351 2.34701 11.9862C1.71093 11.6976 1.12952 11.8727 0.774759 12.4592ZM23.2675 3.13195C23.2945 3.33042 23.5324 3.79419 23.796 4.16247C24.2964 4.86122 24.792 5.28963 28.8894 8.56629C30.2558 9.65888 31.4392 10.6802 31.5191 10.8357C31.5991 10.9913 31.4285 12.1927 31.1403 13.5058C30.558 16.1561 29.4769 23.8776 29.6441 24.1921C30.0896 25.0304 31.6964 24.5848 32.0557 23.5231C32.1638 23.2038 32.4744 21.0926 32.746 18.8316C33.3571 13.7439 33.6166 12.46 34.0049 12.604C34.3001 12.7136 38.0762 15.3397 40.1845 16.9017C40.821 17.3733 41.5782 17.8559 41.8673 17.9743C42.4636 18.2184 42.9414 17.8393 42.6797 17.33C42.5853 17.1464 41.0268 15.9099 39.2164 14.5824C37.4058 13.255 35.5221 11.8395 35.0303 11.4366L34.1361 10.7046L34.6448 8.4591C34.9245 7.22424 35.2859 5.82876 35.4476 5.3581C36.6054 1.99074 36.5183 0.590277 35.1291 0.237048C33.7108 -0.123771 33.6046 0.107829 32.729 5.46439C32.2912 8.14418 32.1412 8.65102 31.8239 8.52149C31.6147 8.4363 30.6337 7.63878 29.6436 6.74952C26.4019 3.83733 24.7783 2.55502 24.2884 2.51988C23.6089 2.47099 23.21 2.7101 23.2675 3.13195ZM7.97741 44.6263C7.79806 45.2614 8.82208 46.8262 11.4996 50.0098C14.7981 53.9314 15.5421 54.661 17.4541 55.8486C23.6764 59.7132 30.3536 59.5991 39.7331 55.4685C43.6222 53.7557 44.3068 53.2271 46.4727 50.2657C50.5839 44.6449 52.6931 38.0566 52.941 30.0629C53.007 27.9333 52.7978 26.9755 52.1103 26.2601C51.4494 25.5724 50.6167 25.261 50.239 25.5603C50.083 25.6843 50.0418 26.2153 50.1434 26.7929C50.2414 27.3512 50.2983 28.2466 50.2696 28.7827C50.2408 29.3189 50.2403 29.8023 50.2686 29.8574C50.8016 30.8944 47.9601 41.5825 46.3064 44.7604C44.8587 47.5425 42.6206 50.1066 39.8791 52.1241C38.3578 53.2438 37.7904 53.5339 34.7904 54.7269C28.2267 57.3369 26.2191 57.6241 22.3018 56.5126C20.1884 55.9131 18.4494 54.7904 16.5659 52.8098C14.849 51.0041 11.964 47.4175 10.9664 45.848C9.82806 44.0571 8.31309 43.4378 7.97741 44.6263Z" fill="white"/>
</svg>
