<svg width="54" height="54" viewBox="0 0 54 54" fill="none" xmlns="http://www.w3.org/2000/svg">
<path d="M5.62402 38.9048V44.0641H11.13M42.3677 44.0641H47.6881V38.9048M5.62402 7.66891V2H11.13M47.6881 7.66891V2H42.3677" stroke="white" stroke-width="0.5"/>
<g filter="url(#filter0_d_88_3019)">
<rect x="8.09863" y="4.47437" width="37.1154" height="37.1154" fill="url(#paint0_linear_88_3019)"/>
</g>
<path d="M21.5557 9.00056C21.3071 8.99938 21.0561 9.00009 20.8023 9.00243C41.7356 11.0119 29.579 26.3957 13.0019 22.2363V23.9528C25.2412 27.0038 36.8629 19.0811 32.6598 13.027C37.0141 16.223 33.3006 26.4422 19.9089 28.3483C24.6033 27.3048 28.8077 24.9464 30.98 21.7348V21.7346C26.4777 26.1485 19.2578 27.5829 13 26.6319V28.8924L13.0018 28.8926V30.6508C19.0772 31.7034 26.5168 30.0157 31.5939 24.8927C27.8212 30.2848 19.9253 33.6607 13.0018 33.2573V36.9483C35.2623 36.9411 46.5017 21.8498 38.2493 13.8492C43.5797 22.9764 31.2203 33.7205 20.1808 33.7437C34.9405 31.5165 42.5826 14.9218 30.8128 10.0582C28.2511 9.39791 25.1772 9.01674 21.5557 9.00056Z" fill="#AAAAAA"/>
<g style="mix-blend-mode:overlay">
<path d="M17.9957 25.5064C17.0059 25.5064 27.8929 4.47437 27.8929 4.47437H37.7901L31.1923 19.3205H38.6153L25.4185 41.5898H14.6963L24.5937 25.5064H17.9957Z" fill="#D9D9D9"/>
</g>
<path d="M22.9442 4.47461H17.1707L8.92285 22.6199H14.284L22.9442 4.47461Z" fill="url(#paint1_linear_88_3019)"/>
<defs>
<filter id="filter0_d_88_3019" x="0.0986328" y="0.474365" width="53.1152" height="53.1155" filterUnits="userSpaceOnUse" color-interpolation-filters="sRGB">
<feFlood flood-opacity="0" result="BackgroundImageFix"/>
<feColorMatrix in="SourceAlpha" type="matrix" values="0 0 0 0 0 0 0 0 0 0 0 0 0 0 0 0 0 0 127 0" result="hardAlpha"/>
<feOffset dy="4"/>
<feGaussianBlur stdDeviation="4"/>
<feComposite in2="hardAlpha" operator="out"/>
<feColorMatrix type="matrix" values="0 0 0 0 0 0 0 0 0 0 0 0 0 0 0 0 0 0 1 0"/>
<feBlend mode="normal" in2="BackgroundImageFix" result="effect1_dropShadow_88_3019"/>
<feBlend mode="normal" in="SourceGraphic" in2="effect1_dropShadow_88_3019" result="shape"/>
</filter>
<linearGradient id="paint0_linear_88_3019" x1="26.6563" y1="4.47437" x2="26.6563" y2="41.5898" gradientUnits="userSpaceOnUse">
<stop stop-color="#111112"/>
<stop offset="1" stop-color="#1D1E1F"/>
</linearGradient>
<linearGradient id="paint1_linear_88_3019" x1="19.6451" y1="4.887" x2="12.222" y2="22.2075" gradientUnits="userSpaceOnUse">
<stop stop-color="#303234"/>
<stop offset="1" stop-color="#303234" stop-opacity="0"/>
</linearGradient>
</defs>
</svg>
