<svg width="47" height="47" viewBox="0 0 47 47" fill="none" xmlns="http://www.w3.org/2000/svg">
<path d="M7 32.4474V36.5642H11.3934M36.3189 36.5642H40.5642V32.4474M7 7.5234V3H11.3934M40.5642 7.5234V3H36.3189" stroke="white" stroke-width="0.5"/>
<g filter="url(#filter0_d_88_2789)">
<rect x="8.97437" y="4.97437" width="29.6155" height="29.6155" fill="url(#paint0_linear_88_2789)"/>
</g>
<path d="M23.6385 7.99951V9.548C20.5166 9.73004 17.9806 12.1109 17.5531 15.1608C17.313 15.0071 17.0296 14.9158 16.7222 14.9158C15.8778 14.9158 15.1852 15.6075 15.1852 16.4528C15.1852 17.1637 15.6756 17.7688 16.3341 17.9417L16.4859 19.3923C16.4739 22.4566 16.6117 25.9099 16.3716 29.1087C16.2371 28.7581 16.2256 28.5276 16.1545 28.1049L15.5676 28.2106C15.6732 28.8686 15.8068 29.5074 16.1977 30.0789C17.3466 29.6323 17.6492 27.1539 17.9566 25.5689L16.9528 25.0118L18.1199 24.6756C18.2304 23.9887 18.3024 23.5565 18.3408 23.1194L17.4042 22.3893L18.3744 22.3989C18.3744 22.2116 18.3744 22.0099 18.3696 21.7793C18.3504 21.155 17.8029 19.7621 17.2505 19.4643L17.092 17.9417C17.313 17.8889 17.5099 17.788 17.6828 17.6488C18.3648 20.3721 20.7519 22.423 23.6385 22.5911V23.0521C23.1919 23.2106 22.8701 23.6381 22.8701 24.1376C22.8701 24.6948 23.2687 25.1607 23.797 25.2663C23.1967 25.4392 22.5867 26.1885 22.6539 26.5247C23.0526 28.5228 23.3696 30.7802 24.1333 30.9963C25.0746 30.0501 25.1707 28.1481 25.358 26.3326C25.382 26.1021 24.8009 25.4296 24.2533 25.2663C24.7769 25.1559 25.1755 24.69 25.1755 24.1376C25.1755 23.6381 24.8537 23.2106 24.407 23.0521V22.5911C27.2936 22.423 29.6807 20.3721 30.3628 17.6488C30.5501 17.7977 30.771 17.9081 31.0112 17.9562L31.1697 19.9782C30.6125 20.2376 30.1274 20.9676 30.1082 21.52C30.0794 22.5863 30.1514 23.7486 30.3628 24.8917L31.4771 25.3816L30.4588 25.3672C30.478 25.4585 30.4972 25.5449 30.5213 25.6362L30.8863 26.03L30.6413 26.0973C30.9823 27.3124 31.4963 28.4507 32.2215 29.3537C32.4857 28.8494 32.6922 28.2922 32.8507 27.7015L32.2647 27.6102C32.2359 27.9848 32.2023 28.3595 32.1639 28.7293C31.9237 25.9195 31.9429 22.6199 31.9333 19.911L31.7748 17.9225C32.404 17.7256 32.8603 17.1396 32.8603 16.4528C32.8603 15.6075 32.1687 14.9158 31.3234 14.9158C31.016 14.9158 30.7326 15.0071 30.4924 15.1608C30.065 12.1109 27.529 9.73004 24.407 9.548V7.99951H23.6385ZM24.0228 10.305C27.212 10.305 29.7864 12.8794 29.7864 16.0686C29.7864 19.2578 27.212 21.8322 24.0228 21.8322C20.8336 21.8322 18.2592 19.2578 18.2592 16.0686C18.2592 12.8794 20.8336 10.305 24.0228 10.305ZM23.7922 11.0259C23.4656 11.0408 23.1486 11.0859 22.8412 11.1594C22.6635 11.536 22.5435 11.9313 22.4762 12.3318C22.14 12.0965 21.775 11.9039 21.3859 11.7617C21.1122 11.9298 20.8576 12.1253 20.6174 12.3366C21.3043 12.4855 21.9191 12.8121 22.4138 13.2684C22.433 13.7775 22.5387 14.2867 22.726 14.7718C22.2409 14.5844 21.7317 14.4788 21.2226 14.4596C20.7663 13.9649 20.4397 13.3501 20.2908 12.668C20.0747 12.9034 19.8826 13.1579 19.7145 13.4317C19.8586 13.8208 20.0555 14.1858 20.2908 14.522C19.8874 14.5892 19.4887 14.7093 19.1141 14.887C19.0421 15.1944 18.994 15.5114 18.9796 15.838C19.5656 15.4586 20.2332 15.2521 20.9056 15.228C21.2803 15.5739 21.7125 15.862 22.188 16.0686C21.7125 16.2751 21.2803 16.5633 20.9056 16.9139C20.2332 16.8851 19.5656 16.6834 18.9796 16.3039C18.994 16.6305 19.0421 16.9427 19.1141 17.2501C19.4887 17.4278 19.8874 17.5479 20.2908 17.6151C20.0555 17.9513 19.8586 18.3164 19.7145 18.7054C19.8826 18.9792 20.0747 19.2338 20.2908 19.4691C20.4397 18.7871 20.7663 18.1723 21.2226 17.6776C21.7317 17.6584 22.2409 17.5527 22.726 17.3654C22.5387 17.8505 22.433 18.3548 22.4138 18.8687C21.9191 19.325 21.3043 19.6516 20.6174 19.7957C20.8528 20.0118 21.1122 20.2088 21.3859 20.3769C21.7798 20.2328 22.1448 20.0407 22.4762 19.8053C22.5435 20.2088 22.6635 20.6026 22.8412 20.9772C23.1486 21.0493 23.4608 21.0973 23.7874 21.1117C23.408 20.5258 23.2063 19.8629 23.1775 19.1857C23.5281 18.8111 23.8163 18.3788 24.0228 17.9033C24.2293 18.3788 24.5175 18.8111 24.8633 19.1857C24.8393 19.8581 24.6328 20.5258 24.2533 21.1117C24.5799 21.0973 24.8969 21.0493 25.2043 20.9772C25.382 20.6026 25.5021 20.2088 25.5694 19.8053C25.9056 20.0407 26.2706 20.2328 26.6596 20.3769C26.9334 20.2088 27.1928 20.0118 27.4281 19.7957C26.7413 19.6516 26.1265 19.325 25.6318 18.8687C25.6126 18.3596 25.5117 17.8505 25.3196 17.3654C25.8047 17.5575 26.3138 17.6584 26.8229 17.6776C27.2792 18.1723 27.6058 18.7871 27.7547 19.4691C27.9709 19.2338 28.163 18.9792 28.3311 18.7054C28.187 18.3164 27.9949 17.9513 27.7595 17.6151C28.163 17.5479 28.5568 17.4278 28.9315 17.2501C29.0035 16.9427 29.0515 16.6257 29.0659 16.2991C28.48 16.6786 27.8124 16.8851 27.1399 16.9091C26.7653 16.5633 26.333 16.2751 25.8575 16.0686C26.333 15.862 26.7653 15.5739 27.1399 15.2232C27.8124 15.2521 28.48 15.4538 29.0659 15.8332C29.0515 15.5066 29.0035 15.1944 28.9315 14.887C28.5568 14.7093 28.1582 14.5892 27.7547 14.522C27.9901 14.1858 28.187 13.8208 28.3311 13.4317C28.163 13.1579 27.9661 12.8986 27.7499 12.6632C27.6058 13.3501 27.2792 13.9649 26.8229 14.4596C26.309 14.4788 25.8047 14.5844 25.3196 14.7718C25.5069 14.2867 25.6126 13.7775 25.6318 13.2684C26.1265 12.8121 26.7413 12.4807 27.4281 12.3366C27.188 12.1205 26.9334 11.9298 26.6596 11.7617C26.2706 11.9039 25.9056 12.0965 25.5694 12.3318C25.5021 11.9313 25.382 11.536 25.2043 11.1594C24.8969 11.0859 24.5799 11.0408 24.2533 11.0259C24.6376 11.6119 24.8393 12.279 24.8681 12.9514C24.5175 13.326 24.2293 13.7583 24.0228 14.2338C23.8163 13.7583 23.5281 13.326 23.1775 12.9514C23.2063 12.279 23.408 11.6119 23.7922 11.0259ZM24.0228 14.9158C24.6568 14.9158 25.1755 15.4346 25.1755 16.0686C25.1755 16.7026 24.6568 17.2213 24.0228 17.2213C23.3888 17.2213 22.8701 16.7026 22.8701 16.0686C22.8701 15.4346 23.3888 14.9158 24.0228 14.9158ZM16.7222 15.6843C17.1497 15.6843 17.4907 16.0253 17.4907 16.4528C17.4907 16.8803 17.1497 17.2213 16.7222 17.2213C16.2933 17.2213 15.9537 16.8803 15.9537 16.4528C15.9537 16.0253 16.2933 15.6843 16.7222 15.6843ZM24.0228 15.6843C23.8066 15.6843 23.6385 15.8524 23.6385 16.0686C23.6385 16.2847 23.8066 16.4528 24.0228 16.4528C24.2389 16.4528 24.407 16.2847 24.407 16.0686C24.407 15.8524 24.2389 15.6843 24.0228 15.6843ZM31.3234 15.6843C31.7508 15.6843 32.0918 16.0253 32.0918 16.4528C32.0918 16.8803 31.7508 17.2213 31.3234 17.2213C30.8959 17.2213 30.5549 16.8803 30.5549 16.4528C30.5549 16.0253 30.8959 15.6843 31.3234 15.6843ZM15.9432 19.6084C15.4571 19.8918 15.0488 20.3432 15.0392 20.7083C14.9432 22.764 15.0056 25.0694 15.4571 27.7159L16.1497 27.9848C15.9672 25.1799 15.972 22.3989 15.9432 19.6084ZM32.4761 20.1031C32.4473 22.567 32.4521 25.0262 32.2696 27.5045L32.9612 27.2644C33.3262 25.7418 33.4223 24.0272 33.4079 22.3077L32.7066 22.2933L33.3983 21.8898C33.3983 21.616 33.3935 21.3423 33.379 21.0733C33.3694 20.7515 32.9612 20.3529 32.4761 20.1031ZM24.0228 23.7534C24.2389 23.7534 24.407 23.9215 24.407 24.1376C24.407 24.3538 24.2389 24.5219 24.0228 24.5219C23.8066 24.5219 23.6385 24.3538 23.6385 24.1376C23.6385 23.9215 23.8066 23.7534 24.0228 23.7534ZM23.8211 25.2711C23.8883 25.2855 23.9555 25.2903 24.0228 25.2903C24.0852 25.2903 24.1429 25.2855 24.2005 25.2759L24.09 29.6275L23.8211 25.2711Z" fill="#AAAAAA"/>
<g style="mix-blend-mode:overlay">
<path d="M16.8717 21.7565C16.0819 21.7565 24.769 4.97437 24.769 4.97437H32.6663L27.4017 16.8206H33.3248L22.7946 34.5899H14.239L22.1365 21.7565H16.8717Z" fill="#D9D9D9"/>
</g>
<path d="M20.8199 4.97437H16.2131L9.63184 19.4531H13.9096L20.8199 4.97437Z" fill="url(#paint1_linear_88_2789)"/>
<defs>
<filter id="filter0_d_88_2789" x="0.974365" y="0.974365" width="45.6155" height="45.6155" filterUnits="userSpaceOnUse" color-interpolation-filters="sRGB">
<feFlood flood-opacity="0" result="BackgroundImageFix"/>
<feColorMatrix in="SourceAlpha" type="matrix" values="0 0 0 0 0 0 0 0 0 0 0 0 0 0 0 0 0 0 127 0" result="hardAlpha"/>
<feOffset dy="4"/>
<feGaussianBlur stdDeviation="4"/>
<feComposite in2="hardAlpha" operator="out"/>
<feColorMatrix type="matrix" values="0 0 0 0 0 0 0 0 0 0 0 0 0 0 0 0 0 0 1 0"/>
<feBlend mode="normal" in2="BackgroundImageFix" result="effect1_dropShadow_88_2789"/>
<feBlend mode="normal" in="SourceGraphic" in2="effect1_dropShadow_88_2789" result="shape"/>
</filter>
<linearGradient id="paint0_linear_88_2789" x1="23.7821" y1="4.97437" x2="23.7821" y2="34.5899" gradientUnits="userSpaceOnUse">
<stop stop-color="#111112"/>
<stop offset="1" stop-color="#1D1E1F"/>
</linearGradient>
<linearGradient id="paint1_linear_88_2789" x1="18.1874" y1="5.30343" x2="12.2643" y2="19.124" gradientUnits="userSpaceOnUse">
<stop stop-color="#303234"/>
<stop offset="1" stop-color="#303234" stop-opacity="0"/>
</linearGradient>
</defs>
</svg>
