<svg width="47" height="47" viewBox="0 0 47 47" fill="none" xmlns="http://www.w3.org/2000/svg">
<path d="M6.43555 32.4473V36.5641H10.829M35.7543 36.5641H39.9997V32.4473M6.43555 7.52338V3H10.829M39.9997 7.52338V3H35.7543" stroke="white" stroke-width="0.5"/>
<g filter="url(#filter0_d_88_2392)">
<rect x="8.41016" y="4.97461" width="29.6154" height="29.6154" fill="url(#paint0_linear_88_2392)"/>
</g>
<path d="M17.842 8.26484C17.8151 8.26418 17.7902 8.26437 17.7677 8.26513C17.7248 8.26646 17.697 8.26865 17.6706 8.26989C17.6439 8.26861 17.6163 8.26646 17.5733 8.26513C17.5174 8.26337 17.448 8.26418 17.3651 8.2748H17.3645L17.364 8.27494C15.7504 8.48459 14.5564 10.0347 14.5564 11.9983C14.5564 12.8498 14.7722 13.7009 15.1573 14.3862C14.6334 14.5959 14.1938 14.9282 13.8476 15.3438C13.3715 15.9151 13.0579 16.6304 12.8416 17.4153C12.4089 18.9852 12.3591 20.8545 12.3591 22.54V22.985H14.3615L14.8622 30.7729H17.4728V30.7737H29.6595V30.773H32.2054L32.7062 22.9851H34.7087V22.54C34.7087 20.8546 34.6588 18.9853 34.2261 17.4153C34.0097 16.6305 33.6963 15.9151 33.2202 15.3438C32.874 14.9283 32.4345 14.5959 31.9105 14.3862C32.2956 13.7011 32.5114 12.85 32.5114 11.9984C32.5114 10.0348 31.3174 8.48473 29.7039 8.27508L29.7032 8.27499H29.7027C29.6877 8.27308 29.6736 8.2718 29.6595 8.27046V8.27013H29.6564C29.5938 8.26442 29.5395 8.26384 29.4945 8.26527C29.4519 8.26661 29.4247 8.26861 29.3982 8.26994C29.372 8.2687 29.3445 8.26661 29.3019 8.26527C29.2569 8.26384 29.2026 8.26442 29.1399 8.27013H17.9296C17.8984 8.26727 17.8692 8.26565 17.842 8.26499V8.26484ZM17.6706 9.16082C17.6818 9.16092 17.6872 9.1613 17.6994 9.1613C17.7534 9.1613 17.8078 9.16487 17.8621 9.17068H29.2057C29.26 9.16487 29.3143 9.1613 29.3684 9.1613C29.3811 9.1613 29.3867 9.16092 29.3983 9.16082C29.4099 9.16092 29.4155 9.1613 29.4281 9.1613C29.6823 9.1613 29.9418 9.22731 30.1842 9.34147L30.1876 9.33418C31.0134 9.72519 31.6215 10.6865 31.6215 11.9984C31.6215 12.8872 31.2943 13.8355 30.8618 14.3565L30.3788 14.9384L31.122 15.0781C31.732 15.1927 32.1731 15.4773 32.5364 15.9135C32.8998 16.3496 33.174 16.9474 33.3681 17.6518C33.7224 18.9369 33.8013 20.5555 33.8131 22.0949H31.8714L31.3709 29.8829H27.4255L27.4254 29.8822H19.6442V29.8829H15.697L15.1963 22.095H13.2547C13.2665 20.5556 13.3455 18.9369 13.6997 17.6518C13.8938 16.9475 14.168 16.3496 14.5314 15.9135C14.8948 15.4774 15.3358 15.1928 15.9459 15.0781L16.6891 14.9384L16.2061 14.3565C15.7735 13.8355 15.4465 12.8873 15.4465 11.9984C15.4465 10.6856 16.0553 9.72409 16.8819 9.33356L16.8856 9.34147C17.128 9.22731 17.3874 9.1613 17.6416 9.1613C17.6539 9.1613 17.6592 9.16092 17.6706 9.16082ZM19.3202 10.0608C19.5076 10.3185 19.6575 10.6247 19.7569 10.9726H27.3127C27.4122 10.6246 27.562 10.3185 27.7494 10.0609H19.3202V10.0608ZM19.8923 11.8628C19.8937 11.9076 19.8947 11.9527 19.8947 11.9984C19.8947 12.2561 19.8664 12.5187 19.8168 12.7746H27.2528C27.2033 12.5187 27.175 12.2561 27.175 11.9984C27.175 11.9527 27.176 11.9076 27.1774 11.8628H19.8923ZM19.5439 13.6648C19.4271 13.9342 19.2878 14.1724 19.135 14.3565L18.9524 14.5766H28.1172L27.9347 14.3565C27.7818 14.1724 27.6425 13.9342 27.5258 13.6648H19.5439H19.5439ZM20.3333 15.4667C20.5081 15.591 20.6652 15.7401 20.8097 15.9135C20.9255 16.0525 21.0323 16.2083 21.1303 16.3785H25.9393C26.0374 16.2083 26.1441 16.0525 26.26 15.9135C26.4045 15.7401 26.5614 15.591 26.7362 15.4667H20.3333ZM21.5241 17.2686C21.566 17.3925 21.6051 17.5202 21.6413 17.6518C21.6883 17.8223 21.7302 17.999 21.768 18.1803H25.3016C25.3394 17.999 25.3813 17.8223 25.4283 17.6518C25.4646 17.5202 25.5036 17.3924 25.5454 17.2686H21.5241ZM21.9159 19.0705C21.9544 19.3677 21.9848 19.6726 22.0083 19.9822H25.0611C25.0848 19.6726 25.1151 19.3677 25.1538 19.0705H21.9159L21.9159 19.0705ZM22.059 20.8724C22.0711 21.1765 22.0777 21.481 22.082 21.7842H24.9875C24.9918 21.4809 24.9985 21.1765 25.0105 20.8724H22.0589L22.059 20.8724ZM20.1076 22.6744L20.0488 23.5862H27.0207L26.9622 22.6745H20.1076V22.6744ZM19.9916 24.4764L19.9331 25.3882H27.1366L27.078 24.4765H19.9916L19.9916 24.4764ZM19.8759 26.2784L19.8172 27.19H27.2523L27.1938 26.2784H19.8759ZM19.76 28.0802L19.7015 28.992H27.3682L27.3096 28.0803H19.76V28.0802Z" fill="#AAAAAA"/>
<g style="mix-blend-mode:overlay">
<path d="M16.3072 21.7567C15.5175 21.7567 24.2045 4.97461 24.2045 4.97461H32.1017L26.8371 16.8208H32.7602L22.2301 34.59H13.6746L21.572 21.7567H16.3072Z" fill="#D9D9D9"/>
</g>
<path d="M20.2559 4.97461H15.6491L9.06787 19.4532H13.3456L20.2559 4.97461Z" fill="url(#paint1_linear_88_2392)"/>
<defs>
<filter id="filter0_d_88_2392" x="0.410156" y="0.974609" width="45.6155" height="45.6155" filterUnits="userSpaceOnUse" color-interpolation-filters="sRGB">
<feFlood flood-opacity="0" result="BackgroundImageFix"/>
<feColorMatrix in="SourceAlpha" type="matrix" values="0 0 0 0 0 0 0 0 0 0 0 0 0 0 0 0 0 0 127 0" result="hardAlpha"/>
<feOffset dy="4"/>
<feGaussianBlur stdDeviation="4"/>
<feComposite in2="hardAlpha" operator="out"/>
<feColorMatrix type="matrix" values="0 0 0 0 0 0 0 0 0 0 0 0 0 0 0 0 0 0 1 0"/>
<feBlend mode="normal" in2="BackgroundImageFix" result="effect1_dropShadow_88_2392"/>
<feBlend mode="normal" in="SourceGraphic" in2="effect1_dropShadow_88_2392" result="shape"/>
</filter>
<linearGradient id="paint0_linear_88_2392" x1="23.2178" y1="4.97461" x2="23.2178" y2="34.59" gradientUnits="userSpaceOnUse">
<stop stop-color="#111112"/>
<stop offset="1" stop-color="#1D1E1F"/>
</linearGradient>
<linearGradient id="paint1_linear_88_2392" x1="17.6234" y1="5.30367" x2="11.7003" y2="19.1242" gradientUnits="userSpaceOnUse">
<stop stop-color="#303234"/>
<stop offset="1" stop-color="#303234" stop-opacity="0"/>
</linearGradient>
</defs>
</svg>
