<svg width="46" height="47" viewBox="0 0 46 47" fill="none" xmlns="http://www.w3.org/2000/svg">
<path d="M6.29077 32.4473V36.5641H10.6842M35.6096 36.5641H39.8549V32.4473M6.29077 7.52338V3H10.6842M39.8549 7.52338V3H35.6096" stroke="white" stroke-width="0.5"/>
<g filter="url(#filter0_d_88_2385)">
<rect x="8.26538" y="4.97461" width="29.6154" height="29.6154" fill="url(#paint0_linear_88_2385)"/>
</g>
<path d="M23.3429 9.48511C17.1318 9.48511 12.0974 14.5195 12.0974 20.7306C12.0974 21.9747 12.2998 23.1721 12.6729 24.2908C14.6397 23.1053 16.3964 22.2743 17.9412 21.7424C16.1901 22.0174 14.6887 22.9012 12.5611 21.9383C14.1065 20.5784 16.8558 18.7134 19.3464 18.4285C20.6483 17.3698 22.6826 16.2752 23.7377 16.6025C25.2312 15.2863 27.0674 13.6102 29.0336 12.4025C29.5561 13.1938 29.8724 14.1628 29.649 15.2372C25.7125 16.2268 26.6273 22.5316 30.3086 18.5404C30.6196 19.1802 30.7695 19.8464 30.7541 20.5699C29.1537 22.2269 27.4739 23.6569 25.7612 24.8755C25.784 26.0506 25.4867 27.4673 24.8306 29.0297C24.5546 29.687 24.4715 30.8128 25.951 31.6731C30.9048 30.497 34.5898 26.0441 34.5898 20.7306C34.5898 14.5195 29.5539 9.48516 23.3428 9.48516L23.3429 9.48511ZM23.5051 17.5362C22.6316 17.6449 21.8989 17.9793 21.2597 18.4652C21.8515 18.4635 22.5142 18.6064 23.0964 18.7668C23.4005 18.4387 23.5978 17.8596 23.5052 17.5361L23.5051 17.5362Z" fill="#AAAAAA"/>
<g style="mix-blend-mode:overlay">
<path d="M16.1625 21.7567C15.3727 21.7567 24.0597 4.97461 24.0597 4.97461H31.9569L26.6924 16.8208H32.6154L22.0853 34.59H13.5298L21.4272 21.7567H16.1625Z" fill="#D9D9D9"/>
</g>
<path d="M20.1111 4.97461H15.5043L8.9231 19.4532H13.2009L20.1111 4.97461Z" fill="url(#paint1_linear_88_2385)"/>
<defs>
<filter id="filter0_d_88_2385" x="0.265381" y="0.974609" width="45.6155" height="45.6155" filterUnits="userSpaceOnUse" color-interpolation-filters="sRGB">
<feFlood flood-opacity="0" result="BackgroundImageFix"/>
<feColorMatrix in="SourceAlpha" type="matrix" values="0 0 0 0 0 0 0 0 0 0 0 0 0 0 0 0 0 0 127 0" result="hardAlpha"/>
<feOffset dy="4"/>
<feGaussianBlur stdDeviation="4"/>
<feComposite in2="hardAlpha" operator="out"/>
<feColorMatrix type="matrix" values="0 0 0 0 0 0 0 0 0 0 0 0 0 0 0 0 0 0 1 0"/>
<feBlend mode="normal" in2="BackgroundImageFix" result="effect1_dropShadow_88_2385"/>
<feBlend mode="normal" in="SourceGraphic" in2="effect1_dropShadow_88_2385" result="shape"/>
</filter>
<linearGradient id="paint0_linear_88_2385" x1="23.0731" y1="4.97461" x2="23.0731" y2="34.59" gradientUnits="userSpaceOnUse">
<stop stop-color="#111112"/>
<stop offset="1" stop-color="#1D1E1F"/>
</linearGradient>
<linearGradient id="paint1_linear_88_2385" x1="17.4787" y1="5.30367" x2="11.5556" y2="19.1242" gradientUnits="userSpaceOnUse">
<stop stop-color="#303234"/>
<stop offset="1" stop-color="#303234" stop-opacity="0"/>
</linearGradient>
</defs>
</svg>
