<svg width="46" height="47" viewBox="0 0 46 47" fill="none" xmlns="http://www.w3.org/2000/svg">
<path d="M6.2915 32.4474V36.5642H10.6849M35.6104 36.5642H39.8557V32.4474M6.2915 7.5234V3H10.6849M39.8557 7.5234V3H35.6104" stroke="white" stroke-width="0.5"/>
<g filter="url(#filter0_d_88_2803)">
<rect x="8.26611" y="4.97437" width="29.6155" height="29.6155" fill="url(#paint0_linear_88_2803)"/>
</g>
<path d="M13.0005 13.7594L15.7361 16.8165C20.0523 14.964 23.797 13.3274 27.7964 12.0251C27.2625 10.9643 26.6169 9.94994 25.8136 8.99976C21.3909 9.65978 16.7421 11.4454 13.0005 13.7594ZM28.1607 12.7924C24.1934 14.2959 19.7201 15.7739 16.3145 17.4627L17.0746 18.3121C20.8909 16.7319 24.7572 15.3137 28.6376 13.9502C28.4899 13.5597 28.3309 13.1736 28.1608 12.7924H28.1607ZM28.922 14.7412C25.158 16.0639 21.4141 17.4355 17.7229 18.9539C20.2243 18.8541 22.9233 18.6089 25.1893 18.4818C25.3645 19.1693 25.5753 19.9294 25.4262 20.5853C25.7808 20.4284 26.7272 20.0638 26.8321 19.7312C26.8025 19.1952 26.3301 18.8236 26.299 18.3562C26.3258 18.1378 26.4054 17.9383 26.5497 17.821L29.346 16.0771C29.2143 15.6288 29.0729 15.1834 28.922 14.7413L28.922 14.7412ZM29.8029 16.7827L27.188 18.4136C27.3593 18.7359 27.5361 18.9954 27.6289 19.3222C28.5453 18.8526 29.485 18.3802 30.2553 17.9834C30.1075 17.5949 29.9561 17.1988 29.8029 16.7827V16.7827ZM30.5534 18.7755C29.1339 19.3148 28.0317 20.2186 26.8435 20.8071L26.8433 20.8072C26.5833 20.9432 25.9999 21.2245 25.2819 21.6139C25.2039 21.7462 25.1564 21.905 25.1351 22.0762C25.1015 22.4945 25.3281 23.7671 25.8665 23.792C25.938 23.7921 26.0836 23.7526 26.2848 23.3248L27.0455 23.6827C26.7715 24.2651 26.3493 24.633 25.8659 24.6327C25.1105 24.5278 24.6992 23.9684 24.4569 23.3623L23.3478 25.466C23.453 25.8248 23.4238 26.2242 23.1862 26.6811C22.3026 28.3811 21.0905 29.7034 20.0087 31.1806H26.526C27.21 29.7968 27.5874 27.9456 28.9149 27.029C29.9045 26.3456 31.5402 27.2841 31.8719 26.484C32.0431 26.0712 31.8145 25.674 31.5575 25.2651C31.5575 25.2651 32.036 25.1097 32.0597 24.9052C32.0768 24.758 31.7675 24.5706 31.7675 24.5706L32.1128 24.2705L31.7252 23.6252C32.1041 23.4524 32.7654 23.2225 32.6571 22.9908C32.2929 22.2127 31.6931 21.5083 31.211 20.767C31.1643 20.5996 31.1158 20.4352 31.0659 20.2727C30.6861 20.0114 29.9783 20.1152 29.0343 20.5768C29.5615 20.1236 30.2056 19.561 30.8436 19.5893C30.7502 19.3168 30.6535 19.0455 30.5534 18.7755ZM24.547 19.3634C22.2446 19.5126 20.4528 19.6573 18.3755 19.7657L18.9202 20.3744C21.2117 20.6056 22.7266 20.4762 24.593 20.4392C24.6736 20.0747 24.606 19.6507 24.547 19.3634V19.3634ZM30.6076 20.7377V21.8921L29.1685 21.3394L30.6076 20.7377ZM19.7355 21.2854L21.4361 23.1859C22.2284 22.4646 23.2291 21.8181 24.1406 21.2898C22.7326 21.3284 21.4296 21.4002 19.7355 21.2854ZM24.0574 22.3179C23.2982 22.7839 22.5272 23.3207 21.9377 23.8676C22.2626 24.1095 22.5799 24.3609 22.8359 24.6346L24.0574 22.3179Z" fill="#AAAAAA"/>
<g style="mix-blend-mode:overlay">
<path d="M16.1634 21.7565C15.3737 21.7565 24.0607 4.97437 24.0607 4.97437H31.958L26.6934 16.8206H32.6165L22.0864 34.5899H13.5308L21.4282 21.7565H16.1634Z" fill="#D9D9D9"/>
</g>
<path d="M20.1114 4.97437H15.5046L8.92334 19.4531H13.2011L20.1114 4.97437Z" fill="url(#paint1_linear_88_2803)"/>
<defs>
<filter id="filter0_d_88_2803" x="0.266113" y="0.974365" width="45.6157" height="45.6155" filterUnits="userSpaceOnUse" color-interpolation-filters="sRGB">
<feFlood flood-opacity="0" result="BackgroundImageFix"/>
<feColorMatrix in="SourceAlpha" type="matrix" values="0 0 0 0 0 0 0 0 0 0 0 0 0 0 0 0 0 0 127 0" result="hardAlpha"/>
<feOffset dy="4"/>
<feGaussianBlur stdDeviation="4"/>
<feComposite in2="hardAlpha" operator="out"/>
<feColorMatrix type="matrix" values="0 0 0 0 0 0 0 0 0 0 0 0 0 0 0 0 0 0 1 0"/>
<feBlend mode="normal" in2="BackgroundImageFix" result="effect1_dropShadow_88_2803"/>
<feBlend mode="normal" in="SourceGraphic" in2="effect1_dropShadow_88_2803" result="shape"/>
</filter>
<linearGradient id="paint0_linear_88_2803" x1="23.0739" y1="4.97437" x2="23.0739" y2="34.5899" gradientUnits="userSpaceOnUse">
<stop stop-color="#111112"/>
<stop offset="1" stop-color="#1D1E1F"/>
</linearGradient>
<linearGradient id="paint1_linear_88_2803" x1="17.4789" y1="5.30343" x2="11.5558" y2="19.124" gradientUnits="userSpaceOnUse">
<stop stop-color="#303234"/>
<stop offset="1" stop-color="#303234" stop-opacity="0"/>
</linearGradient>
</defs>
</svg>
