<svg width="46" height="47" viewBox="0 0 46 47" fill="none" xmlns="http://www.w3.org/2000/svg">
<path d="M6.14502 32.4474V36.5642H10.5384M35.4639 36.5642H39.7093V32.4474M6.14502 7.5234V3H10.5384M39.7093 7.5234V3H35.4639" stroke="white" stroke-width="0.5"/>
<g filter="url(#filter0_d_88_2796)">
<rect x="8.11963" y="4.97437" width="29.6155" height="29.6155" fill="url(#paint0_linear_88_2796)"/>
</g>
<path d="M17.5548 8.83276L11.832 11.5771V12.5435L17.4429 9.85139L11.832 14.1162V19.3726L17.8673 17.1898L14.9103 16.756L23.6787 14.6199L11.832 23.1877V25.2166L28.1375 16.3736L24.355 17.2271L29.7279 13.897L34.0002 12.2842V11.3513C31.0479 12.689 28.0629 13.3326 24.938 14.0975L27.0088 12.689L34.0002 9.2931V8.83276H32.9508C29.2382 10.9367 25.3857 12.1508 21.3793 13.5425L28.7858 8.83276H24.9846L16.1369 13.2813L21.8364 8.83276H17.5548ZM34.0002 14.6432L21.6545 21.9331L28.6739 20.1095L14.5708 27.488L19.3458 23.253L11.832 27.0356V31H13.3684C13.3684 31 21.3 26.28 25.6982 24.503L22.4194 26.9423L27.6711 25.3379L17.5875 30.9114L30.9266 26.1494L27.1021 28.8359L34.0002 26.8957V21.8771L27.4752 24.3164L30.866 21.588L24.6302 23.7894L32.8855 18.4211L31.7242 20.4033L34.0002 19.5405V14.6432Z" fill="#AAAAAA"/>
<g style="mix-blend-mode:overlay">
<path d="M16.017 21.7565C15.2272 21.7565 23.9142 4.97437 23.9142 4.97437H31.8115L26.5469 16.8206H32.47L21.9399 34.5899H13.3843L21.2817 21.7565H16.017Z" fill="#D9D9D9"/>
</g>
<path d="M19.9649 4.97437H15.3581L8.77686 19.4531H13.0547L19.9649 4.97437Z" fill="url(#paint1_linear_88_2796)"/>
<defs>
<filter id="filter0_d_88_2796" x="0.119629" y="0.974365" width="45.6157" height="45.6155" filterUnits="userSpaceOnUse" color-interpolation-filters="sRGB">
<feFlood floodOpacity="0" result="BackgroundImageFix"/>
<feColorMatrix in="SourceAlpha" type="matrix" values="0 0 0 0 0 0 0 0 0 0 0 0 0 0 0 0 0 0 127 0" result="hardAlpha"/>
<feOffset dy="4"/>
<feGaussianBlur stdDeviation="4"/>
<feComposite in2="hardAlpha" operator="out"/>
<feColorMatrix type="matrix" values="0 0 0 0 0 0 0 0 0 0 0 0 0 0 0 0 0 0 1 0"/>
<feBlend mode="normal" in2="BackgroundImageFix" result="effect1_dropShadow_88_2796"/>
<feBlend mode="normal" in="SourceGraphic" in2="effect1_dropShadow_88_2796" result="shape"/>
</filter>
<linearGradient id="paint0_linear_88_2796" x1="22.9274" y1="4.97437" x2="22.9274" y2="34.5899" gradientUnits="userSpaceOnUse">
<stop stop-color="#111112"/>
<stop offset="1" stop-color="#1D1E1F"/>
</linearGradient>
<linearGradient id="paint1_linear_88_2796" x1="17.3324" y1="5.30343" x2="11.4093" y2="19.124" gradientUnits="userSpaceOnUse">
<stop stop-color="#303234"/>
<stop offset="1" stop-color="#303234" stop-opacity="0"/>
</linearGradient>
</defs>
</svg>
