<svg width="20" height="23" viewBox="0 0 20 23" fill="white" xmlns="http://www.w3.org/2000/svg">
<path d="M0.185547 19.488V22.0757H2.95123M16.4529 22.0757H19.1253V19.488M0.185547 3.82132V0.978027H2.95123M19.1253 3.82132V0.978027H16.4529" stroke="white" stroke-width="0.168367"/>
<path d="M15.3989 13.2586C15.0538 13.1231 14.7685 12.9017 14.5266 12.6627C14.2846 12.4208 14.0815 12.1556 13.8963 11.8861C13.711 11.615 13.5453 11.3367 13.3839 11.0613C13.2226 10.7859 13.0673 10.5091 12.9 10.257C12.54 9.74703 12.1726 9.22685 11.7469 8.78972C11.3227 8.35113 10.8194 7.99851 10.2443 7.86737C9.95902 7.80181 9.65581 7.78141 9.36903 7.81929C9.07628 7.85572 8.78801 7.9446 8.51169 8.067C7.95755 8.3147 7.45419 8.68772 7.0061 9.11174C6.94934 9.16565 6.89557 9.21956 6.8403 9.27493L6.75517 9.36236L6.66854 9.44541C6.56547 9.54887 6.46689 9.66398 6.37279 9.78346C6.1831 10.0239 6.00536 10.2862 5.81865 10.547C5.63195 10.8093 5.43628 11.073 5.20178 11.3207C4.96877 11.5655 4.68797 11.8015 4.33099 11.9356C4.24137 11.9691 4.1398 11.8831 4.10694 11.7535C4.07408 11.6238 4.09649 11.5072 4.15474 11.4854C4.40567 11.3921 4.6342 11.21 4.84032 10.9943C5.04644 10.7772 5.23166 10.528 5.41388 10.273C5.5976 10.0166 5.77683 9.7514 5.98146 9.49058C6.08452 9.3609 6.19356 9.23122 6.31604 9.10882L6.40267 9.02577L6.48482 8.94126C6.54307 8.88297 6.60132 8.82469 6.66107 8.76786C7.14053 8.3147 7.68122 7.90963 8.30706 7.62987C8.61923 7.49144 8.9538 7.38653 9.30481 7.34282C9.6603 7.29765 10.0128 7.32096 10.3593 7.39965C10.7043 7.47979 11.0315 7.62404 11.3212 7.81055C11.614 7.9956 11.8709 8.21999 12.1039 8.4575C12.3369 8.69646 12.546 8.95 12.7432 9.20791C12.8418 9.33759 12.9373 9.46727 13.0314 9.59695L13.1718 9.7922C13.2152 9.85486 13.2659 9.92188 13.3122 9.99328C13.4975 10.2716 13.6513 10.5499 13.8126 10.8238C13.9724 11.0963 14.1323 11.3644 14.307 11.6194C14.4818 11.8744 14.6685 12.1163 14.8791 12.3261C15.0897 12.5359 15.3257 12.7122 15.5841 12.8142C15.6453 12.839 15.6647 12.957 15.6259 13.0838C15.5886 13.2091 15.4855 13.2922 15.3989 13.2586Z" />
<path d="M15.363 11.9604C14.8178 11.5538 14.4011 11.0307 14.0426 10.4974C13.6827 9.96268 13.3765 9.40899 13.0464 8.88297C12.7163 8.35842 12.3638 7.85135 11.9157 7.45939C11.6931 7.26414 11.4467 7.10094 11.1793 6.98437C10.912 6.86635 10.6252 6.79495 10.3294 6.76581C9.73797 6.70898 9.11811 6.81389 8.5326 6.99166C7.94859 7.17234 7.39444 7.45064 6.93291 7.82949C6.47436 8.20105 6.11589 8.71541 5.73053 9.21665C5.53934 9.46873 5.34666 9.7208 5.14502 9.96997C4.94188 10.2191 4.73875 10.4668 4.48633 10.7014C4.4236 10.7597 4.29514 10.7218 4.2115 10.6184C4.12636 10.5149 4.09798 10.3984 4.14876 10.3517C4.36086 10.1536 4.5625 9.91314 4.75817 9.67272C4.95383 9.43084 5.14353 9.18168 5.33471 8.9296C5.5259 8.67898 5.7141 8.42544 5.92022 8.17337L5.99938 8.07865L6.08004 7.98831C6.13082 7.92857 6.18609 7.86446 6.24584 7.80472C6.36234 7.68232 6.48631 7.56867 6.61626 7.4623C7.13754 7.03537 7.74844 6.7323 8.38473 6.53413C8.70436 6.43505 9.02849 6.36219 9.36157 6.31556C9.69465 6.27039 10.0367 6.25437 10.3802 6.28788C10.7223 6.32139 11.0658 6.4059 11.384 6.54579C11.7021 6.68567 11.9919 6.87946 12.2458 7.10094C12.7551 7.54973 13.1285 8.09323 13.4676 8.63235C13.8066 9.17294 14.1113 9.72226 14.4564 10.2337C14.7999 10.7437 15.1853 11.2231 15.6632 11.5771C15.7215 11.6194 15.7051 11.7403 15.6274 11.8511C15.5482 11.9589 15.4302 12.0099 15.363 11.9604Z" />
<path d="M13.3675 7.66484C13.1763 7.4215 12.9792 7.184 12.7701 6.97126C12.664 6.86489 12.558 6.76727 12.4429 6.68275C12.3205 6.59096 12.195 6.50353 12.068 6.42193C11.5572 6.09263 10.9956 5.84638 10.4056 5.75167C9.81712 5.65258 9.20772 5.71233 8.6252 5.88426C8.47883 5.92652 8.33544 5.97606 8.19205 6.02997L8.08451 6.07223C8.05165 6.08534 8.01878 6.09846 7.98742 6.11303C7.92319 6.14217 7.85747 6.17568 7.79175 6.21211C7.53186 6.35636 7.27794 6.53267 7.03448 6.72064C6.54606 7.09657 6.089 7.51767 5.66182 7.965C5.23613 8.41233 4.84032 8.8888 4.49529 9.39441C4.45347 9.45561 4.328 9.44833 4.21299 9.37693C4.09798 9.30553 4.03973 9.19334 4.08454 9.12777C4.44749 8.59592 4.85824 8.10197 5.30036 7.63715C5.74397 7.1738 6.21596 6.73812 6.72977 6.34179C6.98817 6.14508 7.25404 5.95712 7.54829 5.79392C7.62297 5.75312 7.69765 5.71378 7.77831 5.67736C7.81714 5.65841 7.85896 5.64239 7.89929 5.62636L8.01281 5.58264C8.16665 5.52436 8.32349 5.47045 8.4833 5.42382C9.1196 5.23585 9.81563 5.16446 10.4863 5.27811C11.1584 5.38739 11.7857 5.6657 12.3384 6.02123C12.4773 6.11011 12.6117 6.20483 12.7432 6.30245C12.8836 6.4059 13.009 6.52247 13.1255 6.63904C13.3571 6.87509 13.5617 7.1228 13.7588 7.37342C14.54 8.37882 15.2256 9.42647 15.9829 10.4173C16.0292 10.4785 15.9784 10.5907 15.8694 10.6708C15.7603 10.751 15.6334 10.7655 15.5871 10.7043C14.8193 9.69749 14.1293 8.64401 13.3675 7.66484Z" />
<path d="M15.6259 8.92668C15.5094 8.99517 15.3854 9.00245 15.3466 8.94271C15.0314 8.45021 14.6983 7.96209 14.3563 7.48561C14.0128 7.0106 13.6588 6.53996 13.2749 6.1072C12.5639 5.21691 11.4153 4.82058 10.2652 4.73316C9.68867 4.6909 9.10317 4.72587 8.54007 4.84389C8.25627 4.90364 7.98742 4.98378 7.71707 5.09014C7.44672 5.1936 7.18832 5.31599 6.93888 5.45733C6.4415 5.74001 5.99789 6.10866 5.59909 6.52393C5.19879 6.9392 4.83883 7.39965 4.48932 7.87175C4.44749 7.93003 4.32202 7.914 4.2115 7.83678C4.10097 7.75955 4.0457 7.65027 4.08902 7.59053C4.44451 7.10968 4.81493 6.63467 5.24061 6.19317C5.66332 5.75312 6.14576 5.35097 6.69094 5.0406C6.96129 4.88615 7.24657 4.75064 7.53634 4.6399C7.82312 4.52625 8.1323 4.43445 8.437 4.37034C9.05089 4.24211 9.67971 4.20423 10.3041 4.2494C10.9269 4.29603 11.5497 4.42716 12.1338 4.67341C12.425 4.79727 12.7058 4.95172 12.9642 5.13969C13.0927 5.23294 13.2196 5.34222 13.3302 5.4515C13.4422 5.56079 13.5467 5.67298 13.6483 5.78664C14.0531 6.24271 14.4116 6.72064 14.7611 7.2044C15.1091 7.68961 15.4437 8.18065 15.7663 8.68335C15.8066 8.75183 15.7439 8.85966 15.6259 8.92668Z" />
<path d="M15.3839 6.78329C15.26 6.84012 15.139 6.84158 15.1106 6.78766C14.6431 5.89009 13.9321 5.10472 13.0987 4.50148C12.6804 4.20131 12.2279 3.94778 11.7484 3.77001C11.5094 3.68113 11.2645 3.61119 11.015 3.56748C10.7626 3.52376 10.5042 3.49608 10.2458 3.48588C9.21221 3.44654 8.16068 3.65636 7.22417 4.0862C6.75666 4.30331 6.31603 4.56996 5.93366 4.91092C5.73053 5.0814 5.53486 5.25188 5.35562 5.43111C5.17639 5.61033 5.01508 5.79975 4.89708 6.00083C4.87019 6.04892 4.7507 6.04163 4.62673 5.9848C4.50425 5.92798 4.43106 5.82744 4.46691 5.76332C4.61627 5.50687 4.80447 5.29122 5.00163 5.09452C5.19879 4.89781 5.40641 4.71858 5.61104 4.54665C6.02478 4.178 6.51021 3.88367 7.01357 3.65053C8.02625 3.18717 9.14648 2.96278 10.2667 3.00504C10.546 3.01669 10.8253 3.04438 11.1032 3.09392C11.3854 3.14346 11.6588 3.22214 11.9232 3.31977C12.4519 3.51648 12.9418 3.79187 13.3899 4.11389C13.838 4.43736 14.2488 4.80892 14.6132 5.21983C14.9777 5.63073 15.2973 6.08243 15.5497 6.57201C15.5826 6.6303 15.5064 6.72647 15.3839 6.78329Z" />
<path d="M4.01434 12.8405C4.20403 12.8288 4.40866 12.7472 4.59984 12.6365C4.79252 12.5243 4.97325 12.3815 5.14203 12.2256C5.31082 12.0682 5.46616 11.8963 5.60656 11.7127C5.74248 11.5334 5.86645 11.344 5.95457 11.1517C5.95457 11.1429 5.95458 11.1356 5.95607 11.1269C5.95756 11.108 5.96802 11.0905 5.98295 11.0774C6.02179 10.955 6.10693 10.834 6.2548 10.8661C6.32948 10.8821 6.37578 10.936 6.40416 11.0001C6.40715 11.0074 6.41013 11.0147 6.41163 11.022C6.42657 11.0628 6.43403 11.108 6.43851 11.1488C6.44449 11.1575 6.44747 11.1662 6.44747 11.1735C6.42806 11.36 6.47436 11.5699 6.55801 11.7666C6.64165 11.9647 6.76114 12.1542 6.90304 12.3276C7.18832 12.6729 7.56173 12.9541 7.97845 13.129C8.08301 13.1727 8.18906 13.2106 8.2981 13.2412C8.41012 13.2718 8.51617 13.2965 8.62371 13.3082C8.83879 13.3344 9.05836 13.3184 9.26747 13.2645C9.68718 13.1552 10.0651 12.8856 10.3399 12.5403C10.6147 12.1935 10.794 11.7695 10.8418 11.3353C10.8537 11.2274 10.8567 11.1182 10.8522 11.0089C10.8507 10.955 10.8448 10.8996 10.8388 10.8413C10.8328 10.7845 10.8268 10.7277 10.8179 10.6737C10.7835 10.4523 10.7253 10.2468 10.6177 10.088C10.5132 9.92917 10.3548 9.81552 10.1547 9.73683C10.0576 9.69749 9.94558 9.66543 9.84252 9.64212C9.74095 9.62026 9.63938 9.61298 9.53931 9.61881C9.34215 9.62901 9.14798 9.70332 9.03147 9.8228C8.97322 9.87963 8.94185 9.94665 8.94185 9.986C8.94185 9.9962 8.94185 10.0049 8.94484 10.0122C8.95828 10.0093 8.97322 10.0079 8.98816 10.0093C9.10018 9.9656 9.21818 9.93063 9.34663 9.9146C9.54528 9.88691 9.77979 9.91314 9.97546 10.0297C10.1726 10.1434 10.307 10.3284 10.3787 10.5149C10.4519 10.7029 10.4743 10.8952 10.4639 11.0817C10.443 11.4548 10.2936 11.8088 10.0561 12.093C9.81862 12.3786 9.49002 12.584 9.14051 12.6918C9.05388 12.7195 8.96426 12.7414 8.87613 12.7574C8.77905 12.7749 8.67897 12.7836 8.58189 12.7822C8.38771 12.7778 8.19951 12.7385 8.02476 12.6758C7.67525 12.549 7.37055 12.3305 7.13604 12.0551C6.90154 11.7797 6.74023 11.4431 6.676 11.089C6.61028 10.7349 6.64314 10.3721 6.74023 10.0385C6.74471 10.0253 6.76114 10.0151 6.78504 10.0108C6.79549 9.986 6.80744 9.96268 6.82238 9.93937C6.86868 9.86651 6.95083 9.86069 7.01207 9.89129C7.02999 9.89129 7.04792 9.8942 7.06435 9.89857C7.1465 9.92188 7.19878 9.98891 7.20625 10.0691C7.20774 10.0909 7.20475 10.1128 7.19728 10.1317C7.21073 10.1448 7.21819 10.1565 7.21521 10.1667C7.13455 10.4421 7.11215 10.7291 7.16293 11.0016C7.21222 11.2741 7.3347 11.532 7.51692 11.7447C7.69765 11.9575 7.93664 12.1265 8.19653 12.2212C8.32648 12.2678 8.4624 12.2955 8.59234 12.2984C8.65806 12.2999 8.7208 12.294 8.78353 12.2824C8.85373 12.2693 8.92393 12.2518 8.99114 12.2314C9.26149 12.1483 9.50197 11.9953 9.67523 11.787C9.84999 11.5801 9.95753 11.3163 9.97247 11.0555C9.99039 10.7961 9.8948 10.5368 9.72303 10.4421C9.6588 10.4042 9.58113 10.3852 9.4945 10.3852C9.50347 10.4027 9.51242 10.4217 9.5184 10.4392C9.59607 10.6461 9.58263 10.8471 9.53483 11.0293C9.48554 11.2114 9.39443 11.3834 9.24954 11.5276C9.17636 11.599 9.08972 11.6631 8.98666 11.7068C8.88509 11.752 8.76859 11.7753 8.65507 11.7724C8.42505 11.7666 8.23536 11.6675 8.08899 11.5597C7.94261 11.4504 7.81864 11.3207 7.71856 11.1706C7.51991 10.8734 7.42731 10.5178 7.44523 10.1696C7.46166 9.82134 7.5916 9.47456 7.81565 9.19916C7.92767 9.0622 8.06061 8.94126 8.20698 8.84363C8.28017 8.79409 8.35635 8.75038 8.43402 8.71249C8.5087 8.67606 8.58189 8.64255 8.65955 8.6105C8.96426 8.48519 9.29883 8.39776 9.64536 8.38902C9.99188 8.37882 10.3444 8.4575 10.6536 8.60321C10.9642 8.74892 11.2316 8.95146 11.4646 9.17439C11.6991 9.39733 11.9037 9.63921 12.0919 9.88691C12.2816 10.1332 12.4549 10.3867 12.6297 10.6286L12.7611 10.8078C12.8059 10.8661 12.8567 10.9346 12.9015 10.9987C12.9926 11.1284 13.0762 11.261 13.1569 11.395C13.4751 11.9269 13.7364 12.4733 14.0531 12.9628C14.1382 13.094 14.2054 13.1945 14.2995 13.2907C14.3907 13.3869 14.4937 13.4714 14.6102 13.5486C14.8402 13.7045 15.1181 13.8327 15.3959 13.9959C15.4646 14.0367 15.4586 14.1606 15.3839 14.2728C15.3092 14.3835 15.2017 14.4447 15.1405 14.4083C14.891 14.2597 14.6072 14.1314 14.3294 13.9449C14.1905 13.8517 14.0561 13.7439 13.9381 13.6185C13.8783 13.5559 13.8231 13.4903 13.7723 13.4218C13.72 13.3504 13.6797 13.2863 13.6364 13.2222C13.6334 13.2178 13.6304 13.212 13.6274 13.2076C13.5916 13.3738 13.5423 13.5355 13.481 13.6899C13.2958 14.1548 13.024 14.57 12.7028 14.9445C12.3802 15.3161 12.0023 15.6468 11.5632 15.9018C11.1315 16.1481 10.673 16.336 10.198 16.4715C9.24506 16.7426 8.24283 16.7892 7.27197 16.6799C6.78653 16.626 6.30558 16.5327 5.83509 16.4074C5.36459 16.2807 4.90305 16.1262 4.45347 15.9251C4.3982 15.9004 4.40119 15.7823 4.46243 15.6629C4.52218 15.5434 4.61179 15.4661 4.66108 15.488C5.07631 15.6745 5.51843 15.8231 5.96503 15.9426C6.41312 16.0621 6.86868 16.1495 7.32873 16.2005C8.24582 16.304 9.18233 16.2573 10.0606 16.0082C10.4982 15.8843 10.9224 15.708 11.3138 15.4851C11.6931 15.2651 12.0352 14.9678 12.3264 14.6312C12.6162 14.2946 12.8612 13.9158 13.021 13.5151C13.1001 13.314 13.1569 13.1086 13.1778 12.9046C13.1987 12.702 13.1823 12.5024 13.1136 12.3305C13.1121 12.3261 13.1121 12.3203 13.1121 12.3159C13.0807 12.2576 13.0494 12.2008 13.018 12.144C12.9971 12.345 12.9627 12.5461 12.9105 12.7443C12.788 13.2193 12.5654 13.6739 12.2547 14.063C11.9456 14.4535 11.5527 14.774 11.1226 15.0188C10.6924 15.2651 10.2264 15.437 9.74991 15.5521C8.79548 15.7809 7.80669 15.7896 6.84926 15.6541C5.89184 15.5157 4.95981 15.2301 4.09051 14.8148C4.03674 14.7886 4.04421 14.672 4.10545 14.554C4.16669 14.436 4.2578 14.3587 4.30709 14.3835C5.13009 14.7769 6.01432 15.048 6.91947 15.1791C7.82312 15.3073 8.75216 15.2971 9.62893 15.0858C10.0666 14.9795 10.4893 14.8236 10.8716 14.6035C11.254 14.385 11.5961 14.1052 11.8619 13.7686C12.1293 13.432 12.3205 13.0415 12.4295 12.6263C12.5385 12.211 12.5654 11.7739 12.5356 11.3382C12.5206 11.3163 12.5072 11.2945 12.4922 11.2741C12.4504 11.2143 12.4101 11.1604 12.3623 11.0978L12.2786 10.9841C12.301 11.3498 12.2488 11.7185 12.1382 12.0638C11.9993 12.4995 11.7738 12.9002 11.499 13.2586C11.2211 13.6156 10.8955 13.9347 10.5117 14.1956C10.3205 14.3238 10.1069 14.4418 9.8694 14.5147C9.64984 14.5846 9.42131 14.6341 9.19278 14.6647C8.93289 14.6983 8.67001 14.7085 8.40713 14.691C8.40564 14.6924 8.40414 14.6939 8.40265 14.6939C8.03073 14.7099 7.67824 14.6429 7.34665 14.5598C7.01357 14.4753 6.69691 14.3719 6.38325 14.2786C5.7604 14.0921 5.13307 13.9493 4.53562 14.0455L4.53412 14.044C4.40567 14.0673 4.27722 14.0834 4.14876 14.095C4.13532 14.0965 4.1159 13.9901 4.10545 13.8575C4.09499 13.7249 4.09499 13.6171 4.10545 13.6156C4.47736 13.5836 4.8433 13.502 5.15398 13.3402C5.44674 13.1887 5.67974 12.9599 5.82313 12.6743C5.82164 12.6685 5.82164 12.6612 5.82164 12.651C5.82164 12.6437 5.82164 12.6335 5.82463 12.619C5.82762 12.6088 5.82761 12.6073 5.8321 12.5898C5.83956 12.5723 5.83807 12.5665 5.86496 12.5286C5.87093 12.5213 5.8769 12.5141 5.88288 12.5068L5.89334 12.4966C5.9008 12.4893 5.90827 12.4835 5.91723 12.4776C5.95159 12.4529 5.99341 12.4368 6.03523 12.4325C6.07855 12.4266 6.13232 12.4368 6.16368 12.45C6.18161 12.4572 6.19804 12.4674 6.21447 12.4791C6.22194 12.4849 6.2294 12.4907 6.23687 12.498L6.24434 12.5068C6.25032 12.5126 6.2548 12.517 6.25928 12.5228C6.27123 12.5374 6.27272 12.5417 6.2772 12.5461C6.29961 12.5825 6.3011 12.5898 6.30558 12.6029L6.31604 12.6306L6.31902 12.6379L6.32201 12.6481C6.41312 13.0211 6.6058 13.3606 6.8881 13.6156C7.1689 13.8735 7.53335 14.044 7.9217 14.1358C8.31005 14.2262 8.72378 14.2407 9.12557 14.1883C9.32722 14.162 9.52437 14.1183 9.71705 14.0571C9.8948 14.0032 10.0651 13.91 10.2309 13.7992C10.561 13.5748 10.8567 13.2878 11.1032 12.9701C11.3496 12.651 11.5468 12.297 11.6663 11.9225C11.7857 11.5495 11.8231 11.156 11.7589 10.7772C11.6961 10.3984 11.5318 10.037 11.2973 9.71643C11.2958 9.71352 11.2943 9.70915 11.2928 9.70478C11.2346 9.64358 11.1763 9.58238 11.1166 9.52555C10.909 9.32885 10.6819 9.15982 10.4355 9.04325C10.189 8.92669 9.92318 8.8684 9.65283 8.87569C9.38248 8.88152 9.10914 8.95 8.84775 9.05928C8.78203 9.08697 8.71632 9.11611 8.65358 9.14671C8.59384 9.17585 8.53708 9.20936 8.48331 9.24579C8.37576 9.31865 8.28017 9.40461 8.19952 9.5037C8.0397 9.70041 7.94709 9.9452 7.93514 10.1973C7.9217 10.4494 7.99041 10.7058 8.12931 10.9127C8.26075 11.1123 8.50272 11.3003 8.66404 11.2974C8.74469 11.2988 8.82236 11.2668 8.89555 11.1954C8.96725 11.1254 9.0255 11.0205 9.05388 10.9127C9.08375 10.8049 9.08226 10.6912 9.05238 10.614C9.02699 10.5528 8.99563 10.5208 8.94185 10.5004C8.9314 10.5193 8.91945 10.5368 8.90302 10.5528C8.8134 10.6402 8.65508 10.6446 8.56546 10.5528C8.43551 10.4188 8.39966 10.2643 8.39966 10.0851C8.39966 10.0341 8.41759 9.986 8.44746 9.94665C8.46538 9.75286 8.56397 9.60424 8.673 9.4935C8.90601 9.26473 9.21071 9.16419 9.50496 9.14525C9.65283 9.13651 9.8007 9.14962 9.9411 9.17876C10.0785 9.20936 10.2055 9.24579 10.3369 9.29825C10.4669 9.3507 10.5968 9.41773 10.7163 9.50661C10.8358 9.59549 10.9433 9.70623 11.024 9.83009C11.1913 10.0793 11.2585 10.3532 11.2988 10.6082C11.3093 10.6723 11.3167 10.7364 11.3227 10.8005C11.3287 10.8617 11.3347 10.9273 11.3377 10.9943C11.3436 11.1284 11.3391 11.261 11.3257 11.3936C11.2675 11.9225 11.0539 12.4252 10.7238 12.8434C10.3937 13.2601 9.93214 13.5967 9.38995 13.738C9.12109 13.808 8.83581 13.8284 8.55948 13.7949C8.42057 13.7788 8.28465 13.7482 8.15769 13.7133C8.02775 13.6768 7.90079 13.6331 7.77831 13.5807C7.28541 13.3723 6.84926 13.0459 6.5132 12.6379C6.34591 12.4339 6.20103 12.2081 6.09647 11.9589C6.089 11.9414 6.08153 11.9225 6.07556 11.9035C6.05017 11.94 6.02478 11.9749 5.99789 12.0099C5.84106 12.2139 5.66929 12.4048 5.4796 12.5825C5.28991 12.7589 5.08378 12.9221 4.84928 13.059C4.61627 13.1931 4.3519 13.3082 4.04421 13.33C4.02479 13.3315 4.00538 13.2237 4.0009 13.0911C3.99791 12.9497 4.00239 12.8405 4.01434 12.8405ZM6.02478 13.2528C5.99341 13.2907 5.95905 13.3286 5.9247 13.365C5.84106 13.451 5.74995 13.5267 5.65286 13.5967C5.89633 13.6404 6.13232 13.6987 6.36234 13.7643C6.22791 13.6083 6.11439 13.4349 6.02478 13.2528Z" />
<path d="M4.83733 16.6566C4.91351 16.7003 5.01358 16.7426 5.11366 16.779C5.21522 16.8169 5.31978 16.8504 5.42732 16.8824C5.64091 16.9451 5.85898 16.9976 6.08004 17.0442C6.52216 17.136 6.97174 17.1972 7.42282 17.2336C8.32349 17.3021 9.2376 17.2671 10.1054 17.0631C10.5386 16.9597 10.9583 16.8125 11.3451 16.61C11.4422 16.559 11.5348 16.5065 11.6289 16.4468C11.7245 16.3885 11.8186 16.3273 11.9142 16.2646C12.1039 16.1408 12.2921 16.0111 12.4833 15.8814C12.8686 15.625 13.26 15.3554 13.7379 15.1776C13.9754 15.0917 14.2428 15.0348 14.5176 15.0494C14.7924 15.064 15.0613 15.1558 15.2853 15.2898C15.3421 15.3234 15.3212 15.4414 15.2435 15.5492C15.1659 15.6585 15.0703 15.7255 15.0299 15.7007C14.8597 15.6002 14.6774 15.539 14.4892 15.5288C14.301 15.5171 14.1039 15.5565 13.9097 15.6279C13.5184 15.7721 13.142 16.0228 12.7641 16.2763C12.5744 16.4045 12.3847 16.5357 12.1905 16.6639C12.0934 16.728 11.9949 16.7921 11.8933 16.8533C11.7917 16.916 11.6857 16.9772 11.5781 17.034C11.148 17.2598 10.6894 17.4201 10.2219 17.5309C9.28689 17.7509 8.32498 17.7858 7.38249 17.7144C6.91051 17.678 6.4415 17.6125 5.97698 17.5163C5.74547 17.4682 5.51395 17.4128 5.28393 17.3443C5.16892 17.3108 5.05391 17.2729 4.9389 17.2307C4.8224 17.187 4.70888 17.1418 4.58491 17.0719C4.52068 17.0354 4.53114 16.9028 4.62673 16.8081C4.72381 16.7105 4.80298 16.6362 4.83733 16.6566Z" />
<path d="M5.27497 17.8427C6.02179 18.1326 6.8403 18.2827 7.65732 18.3497C8.47285 18.4109 9.3063 18.392 10.0905 18.2186C10.2861 18.1749 10.4773 18.1195 10.6595 18.051C10.7507 18.0161 10.8388 17.9782 10.9239 17.9359L11.0554 17.866L11.1928 17.7917C11.5587 17.5935 11.9202 17.3895 12.2831 17.1826C12.6476 16.9772 13.0075 16.7659 13.4004 16.5765C13.599 16.4847 13.8051 16.3914 14.0576 16.3462C14.183 16.3244 14.3279 16.32 14.4698 16.355C14.6132 16.3885 14.7432 16.4599 14.8447 16.5415C14.897 16.5823 14.8552 16.6945 14.7596 16.7892C14.664 16.8839 14.5624 16.9378 14.5355 16.916C14.4131 16.8198 14.3055 16.795 14.1412 16.8212C13.9799 16.8475 13.7962 16.9247 13.6169 17.0092C13.257 17.1826 12.894 17.3953 12.5311 17.5993C12.1681 17.8062 11.8022 18.0117 11.4332 18.2128L11.2943 18.2871L11.1495 18.3643C11.0479 18.4153 10.9433 18.4605 10.8388 18.4998C10.6297 18.58 10.4161 18.6397 10.201 18.6878C9.77232 18.784 9.34066 18.832 8.909 18.8524C8.47733 18.8728 8.04567 18.8626 7.617 18.8291C7.18832 18.7956 6.76114 18.7373 6.33844 18.6499C5.91574 18.5625 5.49752 18.4488 5.08976 18.2885C5.03897 18.2681 5.04346 18.153 5.09723 18.0306C5.14951 17.9082 5.23016 17.8237 5.27497 17.8427Z" />
<path d="M6.0412 19.2123C7.3093 19.4892 8.62072 19.6262 9.88434 19.4149C10.1995 19.3624 10.5102 19.2881 10.8179 19.1963C10.9374 19.1599 11.0554 19.1206 11.1734 19.0812C11.2824 19.0375 11.4064 18.9705 11.5273 18.9005C11.6483 18.8291 11.7693 18.7534 11.8903 18.6761L12.6207 18.2011C12.8671 18.0423 13.1166 17.8835 13.3824 17.7378C13.5169 17.6649 13.6543 17.595 13.8126 17.5367C13.8933 17.509 13.9769 17.4813 14.0934 17.4711C14.1218 17.4682 14.1532 17.4682 14.1905 17.4711C14.2323 17.4755 14.2667 17.4828 14.301 17.4944C14.3697 17.5192 14.4325 17.5615 14.4773 17.6168C14.4997 17.6489 14.422 17.7421 14.3115 17.8194C14.2144 17.8878 14.1367 17.9447 14.1382 17.9476C14.1382 17.9476 14.1367 17.9476 14.1427 17.949C14.1442 17.949 14.1367 17.949 14.1293 17.949C14.0979 17.9505 14.0396 17.9651 13.9844 17.9855C13.8694 18.0277 13.7454 18.0889 13.6229 18.156C13.4078 18.274 13.1942 18.408 12.9807 18.545C13.0792 18.5377 13.1793 18.5348 13.2794 18.5406C13.4661 18.5508 13.6513 18.5843 13.8275 18.6397C13.8709 18.6528 13.8679 18.7665 13.8231 18.8918C13.7768 19.0171 13.7125 19.1089 13.6797 19.0987C13.3989 19.0113 13.1121 18.9982 12.8179 19.0521C12.5236 19.1045 12.2219 19.2153 11.9142 19.3275C11.6065 19.4411 11.2899 19.5591 10.9642 19.6568C10.6386 19.7544 10.3055 19.8345 9.96948 19.8899C9.29435 20.0036 8.60877 20.0225 7.93215 19.9773C7.25553 19.9322 6.58937 19.8258 5.93366 19.683C5.89333 19.6742 5.88587 19.5621 5.91574 19.4324C5.9471 19.3027 6.00386 19.2036 6.0412 19.2123Z" />
</svg>
