<svg width="24" height="24" viewBox="0 0 24 24" fill="none" xmlns="http://www.w3.org/2000/svg">
<rect x="11.5938" y="0.1875" width="0.814655" height="1.62931" fill="white"/>
<rect x="11.5938" y="22.1836" width="0.814655" height="1.62931" fill="white"/>
<rect x="16.2578" y="0.974609" width="0.814655" height="1.62931" transform="rotate(23.0976 16.2578 0.974609)" fill="white"/>
<rect x="7.62891" y="21.207" width="0.814655" height="1.62931" transform="rotate(23.0976 7.62891 21.207)" fill="white"/>
<rect x="23.8125" y="11.5918" width="0.814655" height="1.62931" transform="rotate(90 23.8125 11.5918)" fill="white"/>
<rect x="1.81641" y="11.5918" width="0.814655" height="1.62931" transform="rotate(90 1.81641 11.5918)" fill="white"/>
<rect x="23.0078" y="16.3008" width="0.814655" height="1.62931" transform="rotate(113.313 23.0078 16.3008)" fill="white"/>
<rect x="2.80859" y="7.5957" width="0.814655" height="1.62931" transform="rotate(113.313 2.80859 7.5957)" fill="white"/>
<rect x="20.6406" y="20.0645" width="0.814655" height="1.62931" transform="rotate(135 20.6406 20.0645)" fill="white"/>
<rect x="5.08594" y="4.51172" width="0.814655" height="1.62931" transform="rotate(135 5.08594 4.51172)" fill="white"/>
<rect x="16.7266" y="22.832" width="0.814655" height="1.62931" transform="rotate(158.398 16.7266 22.832)" fill="white"/>
<rect x="8.62891" y="2.38184" width="0.814655" height="1.62931" transform="rotate(158.398 8.62891 2.38184)" fill="white"/>
<rect x="3.93359" y="20.6406" width="0.814655" height="1.62931" transform="rotate(-135 3.93359 20.6406)" fill="white"/>
<rect x="19.4883" y="5.08789" width="0.814655" height="1.62931" transform="rotate(-135 19.4883 5.08789)" fill="white"/>
<rect x="1.21094" y="16.8281" width="0.814655" height="1.62931" transform="rotate(-112.135 1.21094 16.8281)" fill="white"/>
<rect x="21.5859" y="8.54004" width="0.814655" height="1.62931" transform="rotate(-112.135 21.5859 8.54004)" fill="white"/>
<rect x="11.5938" y="0.1875" width="0.814655" height="1.62931" fill="white"/>
<rect x="11.5938" y="22.1836" width="0.814655" height="1.62931" fill="white"/>
<rect x="16.2578" y="0.974609" width="0.814655" height="1.62931" transform="rotate(23.0976 16.2578 0.974609)" fill="white"/>
<rect x="7.62891" y="21.207" width="0.814655" height="1.62931" transform="rotate(23.0976 7.62891 21.207)" fill="white"/>
<rect x="23.8125" y="11.5918" width="0.814655" height="1.62931" transform="rotate(90 23.8125 11.5918)" fill="white"/>
<rect x="1.81641" y="11.5918" width="0.814655" height="1.62931" transform="rotate(90 1.81641 11.5918)" fill="white"/>
<rect x="23.0078" y="16.3008" width="0.814655" height="1.62931" transform="rotate(113.313 23.0078 16.3008)" fill="white"/>
<rect x="2.80859" y="7.5957" width="0.814655" height="1.62931" transform="rotate(113.313 2.80859 7.5957)" fill="white"/>
<rect x="20.6406" y="20.0645" width="0.814655" height="1.62931" transform="rotate(135 20.6406 20.0645)" fill="white"/>
<rect x="5.08594" y="4.51172" width="0.814655" height="1.62931" transform="rotate(135 5.08594 4.51172)" fill="white"/>
<rect x="16.5391" y="23.0557" width="0.814655" height="1.62931" transform="rotate(158.398 16.5391 23.0557)" fill="white"/>
<rect x="8.62891" y="2.38184" width="0.814655" height="1.62931" transform="rotate(158.398 8.62891 2.38184)" fill="white"/>
<rect x="3.93359" y="20.6406" width="0.814655" height="1.62931" transform="rotate(-135 3.93359 20.6406)" fill="white"/>
<rect x="19.4883" y="5.08789" width="0.814655" height="1.62931" transform="rotate(-135 19.4883 5.08789)" fill="white"/>
<rect x="1.21094" y="16.8281" width="0.814655" height="1.62931" transform="rotate(-112.135 1.21094 16.8281)" fill="white"/>
<rect x="21.5859" y="8.54004" width="0.814655" height="1.62931" transform="rotate(-112.135 21.5859 8.54004)" fill="white"/>
</svg>
