<svg width="40" height="40" viewBox="0 0 40 40" fill="none" xmlns="http://www.w3.org/2000/svg">
<g filter="url(#filter0_f_433_1404)">
<path d="M31.8125 20C31.8125 26.5239 26.5239 31.8125 20 31.8125C13.4761 31.8125 8.1875 26.5239 8.1875 20C8.1875 13.4761 13.4761 8.1875 20 8.1875C26.5239 8.1875 31.8125 13.4761 31.8125 20ZM9.95937 20C9.95937 25.5453 14.4547 30.0406 20 30.0406C25.5453 30.0406 30.0406 25.5453 30.0406 20C30.0406 14.4547 25.5453 9.95937 20 9.95937C14.4547 9.95937 9.95937 14.4547 9.95937 20Z" fill="white" fill-opacity="0.8"/>
</g>
<g filter="url(#filter1_f_433_1404)">
<rect x="19.5938" y="8.1875" width="0.814655" height="1.62931" fill="white"/>
<rect x="19.5938" y="30.1836" width="0.814655" height="1.62931" fill="white"/>
<rect x="24.2578" y="8.97461" width="0.814655" height="1.62931" transform="rotate(23.0976 24.2578 8.97461)" fill="white"/>
<rect x="15.6289" y="29.207" width="0.814655" height="1.62931" transform="rotate(23.0976 15.6289 29.207)" fill="white"/>
<rect x="31.8125" y="19.5918" width="0.814655" height="1.62931" transform="rotate(90 31.8125 19.5918)" fill="white"/>
<rect x="9.81641" y="19.5918" width="0.814655" height="1.62931" transform="rotate(90 9.81641 19.5918)" fill="white"/>
<rect x="31.0078" y="24.3008" width="0.814655" height="1.62931" transform="rotate(113.313 31.0078 24.3008)" fill="white"/>
<rect x="10.8086" y="15.5957" width="0.814655" height="1.62931" transform="rotate(113.313 10.8086 15.5957)" fill="white"/>
<rect x="28.6406" y="28.0645" width="0.814655" height="1.62931" transform="rotate(135 28.6406 28.0645)" fill="white"/>
<rect x="13.0859" y="12.5117" width="0.814655" height="1.62931" transform="rotate(135 13.0859 12.5117)" fill="white"/>
<rect x="24.7266" y="30.832" width="0.814655" height="1.62931" transform="rotate(158.398 24.7266 30.832)" fill="white"/>
<rect x="16.6289" y="10.3818" width="0.814655" height="1.62931" transform="rotate(158.398 16.6289 10.3818)" fill="white"/>
<rect x="11.9336" y="28.6406" width="0.814655" height="1.62931" transform="rotate(-135 11.9336 28.6406)" fill="white"/>
<rect x="27.4883" y="13.0879" width="0.814655" height="1.62931" transform="rotate(-135 27.4883 13.0879)" fill="white"/>
<rect x="9.21094" y="24.8281" width="0.814655" height="1.62931" transform="rotate(-112.135 9.21094 24.8281)" fill="white"/>
<rect x="29.5859" y="16.54" width="0.814655" height="1.62931" transform="rotate(-112.135 29.5859 16.54)" fill="white"/>
</g>
<rect x="19.5938" y="8.1875" width="0.814655" height="1.62931" fill="white"/>
<rect x="19.5938" y="30.1836" width="0.814655" height="1.62931" fill="white"/>
<rect x="24.2578" y="8.97461" width="0.814655" height="1.62931" transform="rotate(23.0976 24.2578 8.97461)" fill="white"/>
<rect x="15.6289" y="29.207" width="0.814655" height="1.62931" transform="rotate(23.0976 15.6289 29.207)" fill="white"/>
<rect x="31.8125" y="19.5918" width="0.814655" height="1.62931" transform="rotate(90 31.8125 19.5918)" fill="white"/>
<rect x="9.81641" y="19.5918" width="0.814655" height="1.62931" transform="rotate(90 9.81641 19.5918)" fill="white"/>
<rect x="31.0078" y="24.3008" width="0.814655" height="1.62931" transform="rotate(113.313 31.0078 24.3008)" fill="white"/>
<rect x="10.8086" y="15.5957" width="0.814655" height="1.62931" transform="rotate(113.313 10.8086 15.5957)" fill="white"/>
<rect x="28.6406" y="28.0645" width="0.814655" height="1.62931" transform="rotate(135 28.6406 28.0645)" fill="white"/>
<rect x="13.0859" y="12.5117" width="0.814655" height="1.62931" transform="rotate(135 13.0859 12.5117)" fill="white"/>
<rect x="24.5391" y="31.0557" width="0.814655" height="1.62931" transform="rotate(158.398 24.5391 31.0557)" fill="white"/>
<rect x="16.6289" y="10.3818" width="0.814655" height="1.62931" transform="rotate(158.398 16.6289 10.3818)" fill="white"/>
<rect x="11.9336" y="28.6406" width="0.814655" height="1.62931" transform="rotate(-135 11.9336 28.6406)" fill="white"/>
<rect x="27.4883" y="13.0879" width="0.814655" height="1.62931" transform="rotate(-135 27.4883 13.0879)" fill="white"/>
<rect x="9.21094" y="24.8281" width="0.814655" height="1.62931" transform="rotate(-112.135 9.21094 24.8281)" fill="white"/>
<rect x="29.5859" y="16.54" width="0.814655" height="1.62931" transform="rotate(-112.135 29.5859 16.54)" fill="white"/>
<defs>
<filter id="filter0_f_433_1404" x="0.1875" y="0.1875" width="39.625" height="39.625" filterUnits="userSpaceOnUse" color-interpolation-filters="sRGB">
<feFlood flood-opacity="0" result="BackgroundImageFix"/>
<feBlend mode="normal" in="SourceGraphic" in2="BackgroundImageFix" result="shape"/>
<feGaussianBlur stdDeviation="4" result="effect1_foregroundBlur_433_1404"/>
</filter>
<filter id="filter1_f_433_1404" x="4.18701" y="4.1875" width="31.6255" height="31.6255" filterUnits="userSpaceOnUse" color-interpolation-filters="sRGB">
<feFlood flood-opacity="0" result="BackgroundImageFix"/>
<feBlend mode="normal" in="SourceGraphic" in2="BackgroundImageFix" result="shape"/>
<feGaussianBlur stdDeviation="2" result="effect1_foregroundBlur_433_1404"/>
</filter>
</defs>
</svg>
