<svg width="20" height="23" viewBox="0 0 20 23" fill="white" xmlns="http://www.w3.org/2000/svg">
<path d="M0.18457 19.488V22.0757H2.95025M16.4519 22.0757H19.1244V19.488M0.18457 3.82132V0.978027H2.95025M19.1244 3.82132V0.978027H16.4519" stroke="white" stroke-width="0.168367"/>
<path d="M11.8753 18.5589C11.6287 18.2321 11.4139 17.8771 11.2282 17.5066C10.8569 16.764 10.6005 15.9607 10.4301 15.1389C10.3442 14.7273 10.2804 14.3101 10.2347 13.8914C10.2236 13.7854 10.2126 13.6821 10.2056 13.5817C10.1987 13.4799 10.1945 13.3752 10.1932 13.2719C10.189 13.064 10.1932 12.8547 10.2029 12.6425C10.2195 12.2196 10.2555 11.7939 10.2735 11.3569C10.2804 11.1377 10.2874 10.917 10.2624 10.678C10.2472 10.5578 10.2306 10.4333 10.1613 10.2876C10.1433 10.2508 10.1211 10.2141 10.0837 10.1702C10.049 10.1292 10.0089 10.0953 9.96314 10.0698C9.87307 10.0175 9.7636 10.0005 9.66245 10.0203C9.61118 10.0316 9.56269 10.0514 9.51835 10.0797C9.49756 10.0924 9.47262 10.1108 9.45599 10.1236C9.43936 10.1363 9.42551 10.1504 9.41165 10.1646C9.35623 10.2197 9.31604 10.2735 9.2814 10.3286C9.21212 10.4375 9.16085 10.5465 9.11789 10.6554C9.03198 10.8732 8.97379 11.091 8.92529 11.3088C8.83245 11.7458 8.78811 12.1871 8.77148 12.6256C8.741 13.5053 8.82691 14.3822 9.00427 15.2393C9.09295 15.6679 9.20658 16.0908 9.34098 16.5052C9.47539 16.9224 9.64167 17.3298 9.82457 17.723C10.0089 18.1176 10.2112 18.5023 10.4384 18.8757C10.6657 19.2476 10.9123 19.6111 11.213 19.9449C11.2878 20.027 11.4236 20.0156 11.5109 19.9223C11.5982 19.829 11.6148 19.6988 11.5497 19.6281C11.2809 19.3297 11.0453 18.986 10.8292 18.631C10.613 18.2746 10.4176 17.9026 10.2403 17.5235C10.0629 17.1431 9.90632 16.7569 9.77746 16.3581C9.64721 15.9592 9.53913 15.5533 9.45322 15.1431C9.28279 14.3214 9.20103 13.4799 9.23013 12.644C9.24537 12.2267 9.28833 11.8109 9.37285 11.4092C9.41581 11.2098 9.46985 11.0118 9.5419 10.8322C9.57793 10.743 9.61811 10.6568 9.66384 10.5861C9.68601 10.5507 9.70956 10.521 9.73035 10.4998L9.74698 10.4856C9.7442 10.4814 9.75113 10.4899 9.75668 10.5026C9.78023 10.5493 9.80102 10.6398 9.81072 10.7317C9.8315 10.9198 9.82734 11.1306 9.81903 11.3385C9.8024 11.7586 9.76638 12.1885 9.74836 12.6227C9.74005 12.8406 9.73451 13.0598 9.73866 13.2804C9.74143 13.3907 9.74559 13.5025 9.75252 13.6128C9.75945 13.726 9.77192 13.8349 9.783 13.9424C9.83011 14.3751 9.89663 14.8065 9.98531 15.2351C10.1627 16.0894 10.4301 16.9323 10.825 17.7187C11.0218 18.1119 11.2504 18.4895 11.5164 18.8431C11.7839 19.1953 12.0832 19.5234 12.4448 19.8007C12.5349 19.8686 12.6762 19.8332 12.7358 19.7172C12.794 19.6027 12.7926 19.481 12.7164 19.4244C12.4019 19.1882 12.122 18.8842 11.8753 18.5589Z" />
<path d="M14.1616 19.2392C13.3829 18.7314 12.7524 17.9988 12.2938 17.1714C11.8324 16.3411 11.5345 15.4175 11.364 14.4713C11.3211 14.2351 11.2864 13.9961 11.2587 13.7557C11.2338 13.535 11.2365 13.2917 11.2407 13.0499C11.2504 12.5633 11.274 12.0683 11.274 11.569C11.2726 11.0698 11.2573 10.5648 11.1548 10.05C11.1007 9.79401 11.0245 9.53235 10.8721 9.28342C10.7945 9.16037 10.6948 9.04156 10.5659 8.94963C10.534 8.927 10.4994 8.90578 10.4647 8.8874C10.4301 8.8676 10.3927 8.85204 10.3608 8.83789C10.2943 8.81102 10.225 8.78698 10.153 8.77142C10.0089 8.73747 9.85228 8.73182 9.70125 8.76152C9.55021 8.79122 9.40888 8.85345 9.28694 8.93407C9.04307 9.09814 8.86986 9.31595 8.72714 9.53942C8.44724 9.9906 8.27958 10.4771 8.1521 10.9693C8.08975 11.2169 8.03987 11.4658 8.00661 11.7218L7.99552 11.818C7.99137 11.8562 7.98998 11.8844 7.98721 11.9184L7.97474 12.1065C7.96781 12.231 7.96088 12.3554 7.95534 12.4799C7.93594 12.9778 7.93456 13.4784 7.96504 13.9805C7.98028 14.2309 8.00245 14.4812 8.03571 14.7316C8.06619 14.9819 8.11608 15.2337 8.16042 15.4713C8.25187 15.9607 8.35718 16.45 8.50406 16.9323C8.64539 17.4118 8.82414 17.8828 9.02367 18.3396C9.12482 18.5688 9.23152 18.7965 9.35345 19.0185C9.47539 19.242 9.60564 19.4612 9.78023 19.672C9.82319 19.7229 9.88554 19.7512 9.94651 19.7512C10.0075 19.7512 10.0643 19.7229 10.1045 19.6734C10.1821 19.5715 10.1918 19.4442 10.128 19.3665C9.98946 19.201 9.86753 18.9987 9.7539 18.7922C9.64167 18.5843 9.53913 18.3679 9.44213 18.1473C9.24953 17.7046 9.0791 17.2562 8.94192 16.7923C8.80335 16.334 8.69943 15.8602 8.61075 15.3822C8.56641 15.1361 8.52068 14.9055 8.4902 14.6665C8.45833 14.4289 8.43754 14.1885 8.4223 13.948C8.3932 13.4671 8.3932 12.982 8.4126 12.4969L8.43062 12.1334L8.4417 11.9523C8.44447 11.924 8.44586 11.8901 8.44863 11.8689L8.45833 11.7826C8.48881 11.5507 8.53593 11.3159 8.59412 11.0867C8.7119 10.6285 8.87402 10.1759 9.11097 9.79259C9.23013 9.60307 9.37147 9.43334 9.53359 9.32727C9.69571 9.21977 9.86891 9.18583 10.0504 9.22826C10.0962 9.23957 10.1419 9.25372 10.1876 9.27211C10.2112 9.28201 10.2306 9.29049 10.2486 9.30039C10.2666 9.31029 10.2846 9.32161 10.3026 9.33434C10.3719 9.38384 10.4329 9.45315 10.4869 9.53801C10.5922 9.70632 10.6615 9.92413 10.7072 10.1476C10.7987 10.6002 10.8153 11.0853 10.8167 11.569C10.8167 12.0542 10.7931 12.5435 10.7834 13.0414C10.7807 13.2917 10.7751 13.5421 10.8042 13.8108C10.8333 14.0597 10.8693 14.3087 10.9137 14.5562C11.091 15.5448 11.4042 16.5179 11.8961 17.4033C12.3852 18.2859 13.0642 19.0793 13.9164 19.6338C14.0203 19.7017 14.1589 19.6621 14.2212 19.5503C14.2822 19.4372 14.2545 19.3014 14.1616 19.2392Z" />
<path d="M13.4827 17.0851C13.2083 16.6523 12.9866 16.1813 12.8079 15.6948C12.6305 15.2068 12.4947 14.7019 12.4088 14.1899C12.3658 13.9339 12.3354 13.6765 12.3229 13.4219C12.3201 13.3582 12.3187 13.2946 12.3187 13.2323L12.3229 12.6298C12.3243 12.0924 12.3173 11.5507 12.2716 11.0061C12.2259 10.4616 12.1414 9.91423 11.9779 9.38101C11.8254 8.84497 11.5331 8.30043 11.0661 7.93553C10.8347 7.75307 10.5617 7.61729 10.2707 7.55223C9.97976 7.48576 9.67215 7.49283 9.38532 7.57062C9.09711 7.64558 8.82968 7.79126 8.60521 7.97372C8.37796 8.15758 8.1909 8.37398 8.02462 8.60028C7.69761 9.05712 7.45651 9.55922 7.26806 10.0769C7.08239 10.596 6.95075 11.1348 6.88563 11.6864C6.85237 11.9608 6.83713 12.2423 6.84267 12.5195C6.84683 12.7925 6.86068 13.064 6.88147 13.3356C6.96738 14.4176 7.14058 15.4854 7.3803 16.5377C7.50224 17.0639 7.6408 17.5872 7.80846 18.1034C7.97613 18.6197 8.16734 19.1303 8.41953 19.6225C8.48188 19.7441 8.62461 19.7865 8.73407 19.7215C8.84354 19.6564 8.88234 19.5164 8.82552 19.4061C8.59274 18.9492 8.40706 18.457 8.24355 17.9577C8.08282 17.4571 7.94564 16.9465 7.82648 16.4316C7.59092 15.4006 7.42048 14.3511 7.33734 13.2988C7.31795 13.0357 7.30409 12.7727 7.29993 12.5124C7.29439 12.2536 7.30825 12.0004 7.33873 11.743C7.3997 11.231 7.52302 10.7247 7.69623 10.2395C7.87082 9.75441 8.09806 9.28766 8.39043 8.87891C8.53731 8.67666 8.7022 8.48996 8.88511 8.34145C9.07078 8.19153 9.27586 8.08121 9.49617 8.02322C9.93681 7.90158 10.419 8.01473 10.7834 8.30609C10.9663 8.45036 11.1229 8.63423 11.2476 8.84072C11.31 8.94397 11.3654 9.05288 11.4125 9.16603C11.4596 9.27776 11.4998 9.39657 11.5372 9.52103C11.6869 10.0104 11.7672 10.5252 11.8116 11.0471C11.8559 11.569 11.8615 12.098 11.8601 12.6298L11.8559 13.2323C11.8559 13.3031 11.8573 13.3738 11.8601 13.4445C11.8726 13.7245 11.9058 13.9989 11.9515 14.2705C12.0444 14.8136 12.1857 15.344 12.3728 15.8602C12.5612 16.3751 12.7968 16.8743 13.0919 17.3411C13.3871 17.8064 13.7418 18.2406 14.1699 18.5985C14.2753 18.6861 14.4249 18.6678 14.4983 18.5631C14.5718 18.4584 14.5538 18.3156 14.4609 18.2378C14.0826 17.9139 13.757 17.5179 13.4827 17.0851Z" />
<path d="M13.8734 15.4755C13.667 14.9706 13.5035 14.443 13.4078 13.9112C13.3843 13.7783 13.3649 13.6453 13.3524 13.5124C13.3399 13.3823 13.333 13.2437 13.3275 13.1036C13.315 12.8264 13.3108 12.5464 13.3067 12.2663C13.2984 11.7048 13.2956 11.1362 13.2513 10.5634C13.2055 9.99061 13.1169 9.41071 12.9284 8.85204C12.8342 8.57341 12.7178 8.30185 12.5737 8.04302C12.431 7.78702 12.2661 7.5395 12.0679 7.31462C11.8712 7.08974 11.6411 6.88748 11.3806 6.73049C11.1215 6.57208 10.8319 6.46176 10.534 6.40801C10.2361 6.35143 9.93404 6.35002 9.64167 6.38538C9.49479 6.40377 9.35068 6.43064 9.20935 6.46458C9.06524 6.49994 8.9336 6.53813 8.78534 6.59188C8.49713 6.7022 8.23801 6.87051 8.01215 7.06711C7.78629 7.2637 7.59092 7.48717 7.41771 7.72479C7.0713 8.1986 6.8108 8.71909 6.59603 9.25372C6.38402 9.78976 6.21913 10.3414 6.10412 10.9099C6.04731 11.2055 6.02514 11.4969 6.01406 11.7854C6.00297 12.074 6.00713 12.3625 6.01821 12.6482C6.0681 13.7924 6.24269 14.9211 6.48517 16.03C6.73043 17.1388 7.05052 18.2293 7.4385 19.2943C7.48561 19.4244 7.6214 19.4923 7.73918 19.4457C7.85696 19.399 7.91377 19.259 7.86805 19.1317C7.48699 18.085 7.17245 17.0144 6.93274 15.9267C6.69441 14.8391 6.52397 13.733 6.47686 12.6284C6.46578 12.3526 6.463 12.0768 6.4727 11.8024C6.48379 11.5294 6.50596 11.2565 6.55446 11.0005C6.66254 10.4672 6.8205 9.93544 7.02142 9.4291C7.22372 8.92276 7.47175 8.43338 7.78491 8.00342C8.09668 7.57628 8.48604 7.2043 8.94607 7.02892C9.42828 6.85778 9.96175 6.77292 10.4523 6.86626C10.9456 6.95396 11.3876 7.23259 11.7271 7.62437C11.8975 7.81955 12.0458 8.03878 12.176 8.27215C12.3049 8.50269 12.4116 8.74879 12.4961 9.00196C12.6679 9.50972 12.7524 10.05 12.7968 10.5988C12.8397 11.1476 12.8425 11.7062 12.8508 12.2706C12.855 12.552 12.8605 12.8363 12.873 13.122C12.8799 13.2635 12.8855 13.4077 12.9007 13.5562C12.9146 13.7033 12.9353 13.849 12.9617 13.9933C13.0656 14.5689 13.2388 15.1205 13.4563 15.6552C13.6767 16.187 13.9385 16.7032 14.2808 17.1798C14.3653 17.2972 14.5191 17.3213 14.6147 17.2364C14.7103 17.153 14.7228 17.0059 14.648 16.9012C14.3321 16.4698 14.0813 15.979 13.8734 15.4755Z" />
<path d="M6.38541 17.4514C6.22883 16.8857 6.07641 16.3241 5.942 15.757C5.67319 14.6255 5.46811 13.4799 5.44871 12.3286C5.42516 11.1801 5.60806 10.033 6.0293 8.97367C6.23992 8.44329 6.49487 7.93411 6.82189 7.47869C7.14613 7.02326 7.53826 6.61734 7.9886 6.30335C8.43893 5.99077 8.95023 5.77437 9.48232 5.69941C10.0144 5.62303 10.5617 5.69092 11.0675 5.88611C11.3211 5.98228 11.5636 6.10958 11.795 6.2595C11.8518 6.29627 11.91 6.33588 11.9654 6.37548C12.0194 6.41367 12.0707 6.4561 12.122 6.49853C12.2231 6.58481 12.3201 6.67957 12.4102 6.77999C12.7704 7.18591 13.0351 7.68943 13.2333 8.21699C13.4314 8.74738 13.5658 9.30605 13.6531 9.8718C13.6753 10.0132 13.6933 10.1561 13.7085 10.2975L13.7293 10.5125C13.7349 10.5776 13.7376 10.6426 13.739 10.7133C13.7418 10.9948 13.7265 11.289 13.7182 11.5832C13.6988 12.173 13.6905 12.7698 13.739 13.3709C13.764 13.6708 13.8027 13.9735 13.8693 14.2733C13.9358 14.5732 14.0272 14.873 14.1713 15.1601C14.242 15.303 14.4013 15.3511 14.5039 15.2761C14.6078 15.2011 14.6341 15.0583 14.5787 14.9451C14.4582 14.7089 14.3764 14.4445 14.3168 14.1715C14.2572 13.8985 14.2198 13.617 14.1963 13.3328C14.1492 12.7628 14.1575 12.1829 14.1769 11.5987C14.1852 11.306 14.2004 11.0146 14.1977 10.7077C14.1963 10.6313 14.1935 10.5507 14.1866 10.4687L14.1644 10.2452C14.1478 10.0953 14.1284 9.94676 14.1062 9.79825C14.0148 9.20422 13.8748 8.61584 13.6628 8.04868C13.4494 7.48293 13.164 6.92991 12.751 6.46317C12.6471 6.34719 12.5363 6.23687 12.4171 6.13645C12.3575 6.08553 12.2952 6.03744 12.2314 5.99077C12.1691 5.94551 12.1067 5.90308 12.043 5.86206C11.788 5.69658 11.5164 5.55515 11.231 5.44624C10.6601 5.2256 10.031 5.14639 9.42274 5.2355C8.81305 5.32036 8.23524 5.56787 7.73502 5.91581C7.23342 6.26374 6.80664 6.70927 6.45608 7.20147C6.10274 7.69509 5.82977 8.23962 5.60945 8.79688C5.38913 9.35697 5.22563 9.9411 5.12586 10.5366C5.02471 11.1306 4.98591 11.7345 4.99561 12.3342C5.01639 13.5364 5.2284 14.716 5.50137 15.8645C5.63855 16.4387 5.79235 17.0101 5.94893 17.5745C6.10551 18.1402 6.25793 18.7074 6.44222 19.2759C6.48795 19.416 6.6279 19.4937 6.74568 19.4457C6.86207 19.3962 6.91888 19.2575 6.87593 19.126C6.69441 18.5829 6.54199 18.0157 6.38541 17.4514Z" />
<path d="M14.842 8.94114C14.7464 8.36832 14.6064 7.79975 14.4027 7.24956C14.3002 6.97517 14.1824 6.70361 14.0411 6.44337C13.9704 6.31325 13.8942 6.18454 13.8111 6.06007C13.7265 5.9342 13.6337 5.81397 13.5353 5.70082C13.139 5.24823 12.6541 4.89746 12.1372 4.62873C11.619 4.36 11.0633 4.17048 10.4883 4.07147C10.2015 4.02197 9.90771 3.99651 9.61118 4.00358C9.46292 4.00783 9.31466 4.01914 9.16639 4.04177C9.01536 4.06581 8.87541 4.09835 8.73407 4.13512C8.16873 4.28504 7.62833 4.5368 7.14751 4.87059C6.66531 5.20438 6.23853 5.61738 5.87688 6.07705C5.1508 6.9978 4.66998 8.08687 4.37207 9.20846C4.22381 9.77138 4.12127 10.3456 4.06169 10.9227C4.00488 11.5012 3.97993 12.0825 4.01873 12.668C4.05614 13.2479 4.13374 13.8193 4.22658 14.3865C4.31942 14.9536 4.43027 15.5151 4.55359 16.0752C4.80301 17.1926 5.09122 18.3 5.46119 19.3905C5.50691 19.5234 5.6427 19.5956 5.76048 19.5503C5.87965 19.5051 5.93785 19.365 5.89351 19.2363C5.53185 18.1727 5.24641 17.0766 5.00115 15.9734C4.87922 15.4218 4.77114 14.8673 4.67968 14.3101C4.58962 13.7542 4.51341 13.1942 4.47738 12.6383C4.44135 12.0867 4.46352 11.5266 4.51895 10.9722C4.57576 10.4177 4.67414 9.86756 4.81548 9.3301C5.09953 8.258 5.55818 7.22693 6.23437 6.36841C6.57108 5.94127 6.96461 5.5608 7.40524 5.2553C7.84588 4.9498 8.33639 4.72208 8.85047 4.58489C9.11235 4.51417 9.36038 4.47174 9.62365 4.4675C9.88554 4.46184 10.1516 4.48305 10.4135 4.52831C10.9386 4.61883 11.4541 4.79421 11.9294 5.04173C12.4046 5.28924 12.8453 5.61031 13.1931 6.00916C13.5367 6.40235 13.782 6.90021 13.9746 7.41221C14.3529 8.44611 14.5177 9.56771 14.5427 10.6822C14.5455 10.818 14.648 10.9283 14.7741 10.9297C14.9002 10.9297 15.0027 10.8152 14.9999 10.6737C14.9889 10.0939 14.9376 9.51538 14.842 8.94114Z" />
<path d="M4.22935 8.28488C4.35267 8.31316 4.46491 8.28063 4.48154 8.21416C4.62149 7.65973 4.83903 7.11802 5.10369 6.60602C5.36973 6.09402 5.68705 5.60889 6.05563 5.17185C6.42421 4.73623 6.84683 4.34869 7.32349 4.05591C7.79876 3.76173 8.32254 3.56937 8.87541 3.51421C9.99778 3.37985 11.1589 3.52694 12.1663 4.03187C12.6679 4.28221 13.1279 4.61883 13.509 5.03041C13.8887 5.44058 14.1893 5.92995 14.3445 6.45893C14.3639 6.52257 14.4748 6.54945 14.5981 6.51974C14.72 6.49004 14.806 6.40235 14.7838 6.32598C14.6037 5.71073 14.2628 5.16478 13.8429 4.70935C13.4217 4.25251 12.9159 3.88478 12.3686 3.6118C11.8213 3.33741 11.231 3.16062 10.631 3.0701C10.031 2.98099 9.42274 2.97958 8.82414 3.0503C8.52345 3.08141 8.21168 3.15072 7.92209 3.25397C7.62971 3.35722 7.34982 3.49441 7.08793 3.65565C6.56277 3.97954 6.10551 4.40102 5.7106 4.86635C5.31569 5.33309 4.98037 5.8465 4.70047 6.38679C4.42057 6.9285 4.19055 7.49707 4.03952 8.09818C4.02012 8.17456 4.10603 8.258 4.22935 8.28488Z" />
</svg>
