<svg width="20" height="23" viewBox="0 0 20 23" fill="white" xmlns="http://www.w3.org/2000/svg">
<path d="M0.18457 19.488V22.0757H2.95025M16.4519 22.0757H19.1244V19.488M0.18457 3.82132V0.978027H2.95025M19.1244 3.82132V0.978027H16.4519" stroke="white" stroke-width="0.168367"/>
<path d="M3.60114 13.2586C3.94617 13.1231 4.23146 12.9017 4.47343 12.6627C4.7154 12.4208 4.91853 12.1556 5.10374 11.8861C5.28895 11.615 5.45475 11.3367 5.61606 11.0613C5.77737 10.7859 5.93271 10.5091 6.1 10.257C6.45997 9.74703 6.8274 9.22685 7.25309 8.78972C7.67728 8.35113 8.18064 7.99851 8.75569 7.86737C9.04098 7.80181 9.34419 7.78141 9.63097 7.81929C9.92372 7.85572 10.212 7.9446 10.4883 8.067C11.0425 8.3147 11.5458 8.68772 11.9939 9.11174C12.0507 9.16565 12.1044 9.21956 12.1597 9.27493L12.2448 9.36236L12.3315 9.44541C12.4345 9.54887 12.5331 9.66398 12.6272 9.78346C12.8169 10.0239 12.9946 10.2862 13.1813 10.547C13.3681 10.8093 13.5637 11.073 13.7982 11.3207C14.0312 11.5655 14.312 11.8015 14.669 11.9356C14.7586 11.9691 14.8602 11.8831 14.8931 11.7535C14.9259 11.6238 14.9035 11.5072 14.8453 11.4854C14.5943 11.3921 14.3658 11.21 14.1597 10.9943C13.9536 10.7772 13.7683 10.528 13.5861 10.273C13.4024 10.0166 13.2232 9.7514 13.0185 9.49058C12.9155 9.3609 12.8064 9.23122 12.684 9.10882L12.5973 9.02577L12.5152 8.94126C12.4569 8.88297 12.3987 8.82469 12.3389 8.76786C11.8595 8.3147 11.3188 7.90963 10.6929 7.62987C10.3808 7.49144 10.0462 7.38653 9.69519 7.34282C9.3397 7.29765 8.98721 7.32096 8.64068 7.39965C8.29565 7.47979 7.96854 7.62404 7.67878 7.81055C7.38602 7.9956 7.12911 8.21999 6.89611 8.4575C6.6631 8.69646 6.45399 8.95 6.25683 9.20791C6.15825 9.33759 6.06266 9.46727 5.96856 9.59695L5.82816 9.7922C5.78484 9.85486 5.73406 9.92188 5.68775 9.99328C5.50254 10.2716 5.3487 10.5499 5.18739 10.8238C5.02757 11.0963 4.86774 11.3644 4.69299 11.6194C4.51823 11.8744 4.33153 12.1163 4.12093 12.3261C3.91032 12.5359 3.67433 12.7122 3.41593 12.8142C3.35469 12.839 3.33527 12.957 3.37411 13.0838C3.41145 13.2091 3.51451 13.2922 3.60114 13.2586Z" />
<path d="M3.63699 11.9604C4.18217 11.5538 4.59889 11.0307 4.95737 10.4974C5.31733 9.96268 5.62353 9.40899 5.95362 8.88297C6.28372 8.35842 6.63622 7.85135 7.08431 7.45939C7.30686 7.26414 7.55331 7.10094 7.82067 6.98437C8.08803 6.86635 8.37481 6.79495 8.67055 6.76581C9.26203 6.70898 9.88189 6.81389 10.4674 6.99166C11.0514 7.17234 11.6056 7.45064 12.0671 7.82949C12.5256 8.20105 12.8841 8.71541 13.2695 9.21665C13.4607 9.46873 13.6533 9.7208 13.855 9.96997C14.0581 10.2191 14.2612 10.4668 14.5137 10.7014C14.5764 10.7597 14.7049 10.7218 14.7885 10.6184C14.8736 10.5149 14.902 10.3984 14.8512 10.3517C14.6391 10.1536 14.4375 9.91314 14.2418 9.67272C14.0462 9.43084 13.8565 9.18168 13.6653 8.9296C13.4741 8.67898 13.2859 8.42544 13.0798 8.17337L13.0006 8.07865L12.92 7.98831C12.8692 7.92857 12.8139 7.86446 12.7542 7.80472C12.6377 7.68232 12.5137 7.56867 12.3837 7.4623C11.8625 7.03537 11.2516 6.7323 10.6153 6.53413C10.2956 6.43505 9.97151 6.36219 9.63843 6.31556C9.30535 6.27039 8.96331 6.25437 8.61977 6.28788C8.27773 6.32139 7.93419 6.4059 7.61604 6.54579C7.2979 6.68567 7.00813 6.87946 6.75422 7.10094C6.24488 7.54973 5.87147 8.09323 5.53242 8.63235C5.19336 9.17294 4.88866 9.72226 4.54363 10.2337C4.20009 10.7437 3.81473 11.2231 3.33677 11.5771C3.27851 11.6194 3.29494 11.7403 3.37261 11.8511C3.45178 11.9589 3.56978 12.0099 3.63699 11.9604Z" />
<path d="M5.63249 7.66484C5.82368 7.4215 6.02084 7.184 6.22995 6.97126C6.336 6.86489 6.44204 6.76727 6.55705 6.68275C6.67953 6.59096 6.805 6.50353 6.93196 6.42193C7.44278 6.09263 8.00439 5.84638 8.59438 5.75167C9.18288 5.65258 9.79228 5.71233 10.3748 5.88426C10.5212 5.92652 10.6646 5.97606 10.808 6.02997L10.9155 6.07223C10.9484 6.08534 10.9812 6.09846 11.0126 6.11303C11.0768 6.14217 11.1425 6.17568 11.2083 6.21211C11.4681 6.35636 11.7221 6.53267 11.9655 6.72064C12.4539 7.09657 12.911 7.51767 13.3382 7.965C13.7639 8.41233 14.1597 8.8888 14.5047 9.39441C14.5465 9.45561 14.672 9.44833 14.787 9.37693C14.902 9.30553 14.9603 9.19334 14.9155 9.12777C14.5525 8.59592 14.1418 8.10197 13.6996 7.63715C13.256 7.1738 12.784 6.73812 12.2702 6.34179C12.0118 6.14508 11.746 5.95712 11.4517 5.79392C11.377 5.75312 11.3024 5.71378 11.2217 5.67736C11.1829 5.65841 11.141 5.64239 11.1007 5.62636L10.9872 5.58264C10.8333 5.52436 10.6765 5.47045 10.5167 5.42382C9.8804 5.23585 9.18437 5.16446 8.51372 5.27811C7.84159 5.38739 7.21426 5.6657 6.66161 6.02123C6.5227 6.11011 6.38827 6.20483 6.25683 6.30245C6.11643 6.4059 5.99096 6.52247 5.87446 6.63904C5.64295 6.87509 5.43832 7.1228 5.24116 7.37342C4.45998 8.37882 3.77441 9.42647 3.01713 10.4173C2.97083 10.4785 3.02161 10.5907 3.13064 10.6708C3.23968 10.751 3.36664 10.7655 3.41294 10.7043C4.18068 9.69749 4.87073 8.64401 5.63249 7.66484Z" />
<path d="M3.37411 8.92668C3.49061 8.99517 3.61458 9.00245 3.65342 8.94271C3.96857 8.45021 4.30166 7.96209 4.6437 7.48561C4.98724 7.0106 5.34123 6.53996 5.72509 6.1072C6.43607 5.21691 7.58468 4.82058 8.73478 4.73316C9.31133 4.6909 9.89683 4.72587 10.4599 4.84389C10.7437 4.90364 11.0126 4.98378 11.2829 5.09014C11.5533 5.1936 11.8117 5.31599 12.0611 5.45733C12.5585 5.74001 13.0021 6.10866 13.4009 6.52393C13.8012 6.9392 14.1612 7.39965 14.5107 7.87175C14.5525 7.93003 14.678 7.914 14.7885 7.83678C14.899 7.75955 14.9543 7.65027 14.911 7.59053C14.5555 7.10968 14.1851 6.63467 13.7594 6.19317C13.3367 5.75312 12.8542 5.35097 12.3091 5.0406C12.0387 4.88615 11.7534 4.75064 11.4637 4.6399C11.1769 4.52625 10.8677 4.43445 10.563 4.37034C9.94911 4.24211 9.32029 4.20423 8.69595 4.2494C8.0731 4.29603 7.45025 4.42716 6.86624 4.67341C6.57498 4.79727 6.29417 4.95172 6.03577 5.13969C5.90732 5.23294 5.78036 5.34222 5.66983 5.4515C5.55781 5.56079 5.45325 5.67298 5.35168 5.78664C4.94691 6.24271 4.58844 6.72064 4.23893 7.2044C3.89091 7.68961 3.55633 8.18065 3.2337 8.68335C3.19338 8.75183 3.25611 8.85966 3.37411 8.92668Z" />
<path d="M3.61608 6.78329C3.74005 6.84012 3.86104 6.84158 3.88941 6.78766C4.35692 5.89009 5.0679 5.10472 5.90135 4.50148C6.31957 4.20131 6.77214 3.94778 7.25159 3.77001C7.49058 3.68113 7.73553 3.61119 7.98497 3.56748C8.2374 3.52376 8.4958 3.49608 8.7542 3.48588C9.78779 3.44654 10.8393 3.65636 11.7758 4.0862C12.2433 4.30331 12.684 4.56996 13.0663 4.91092C13.2695 5.0814 13.4651 5.25188 13.6444 5.43111C13.8236 5.61033 13.9849 5.79975 14.1029 6.00083C14.1298 6.04892 14.2493 6.04163 14.3733 5.9848C14.4958 5.92798 14.5689 5.82744 14.5331 5.76332C14.3837 5.50687 14.1955 5.29122 13.9984 5.09452C13.8012 4.89781 13.5936 4.71858 13.389 4.54665C12.9752 4.178 12.4898 3.88367 11.9864 3.65053C10.9737 3.18717 9.85352 2.96278 8.73329 3.00504C8.45398 3.01669 8.17466 3.04438 7.89685 3.09392C7.61455 3.14346 7.34122 3.22214 7.07684 3.31977C6.54809 3.51648 6.05818 3.79187 5.61009 4.11389C5.16199 4.43736 4.75124 4.80892 4.38679 5.21983C4.02235 5.63073 3.70271 6.08243 3.45028 6.57201C3.41742 6.6303 3.4936 6.72647 3.61608 6.78329Z" />
<path d="M14.9857 12.8405C14.796 12.8288 14.5913 12.7472 14.4002 12.6365C14.2075 12.5243 14.0267 12.3815 13.858 12.2256C13.6892 12.0682 13.5338 11.8963 13.3934 11.7127C13.2575 11.5334 13.1335 11.344 13.0454 11.1517C13.0454 11.1429 13.0454 11.1356 13.0439 11.1269C13.0424 11.108 13.032 11.0905 13.017 11.0774C12.9782 10.955 12.8931 10.834 12.7452 10.8661C12.6705 10.8821 12.6242 10.936 12.5958 11.0001C12.5929 11.0074 12.5899 11.0147 12.5884 11.022C12.5734 11.0628 12.566 11.108 12.5615 11.1488C12.5555 11.1575 12.5525 11.1662 12.5525 11.1735C12.5719 11.36 12.5256 11.5699 12.442 11.7666C12.3583 11.9647 12.2389 12.1542 12.097 12.3276C11.8117 12.6729 11.4383 12.9541 11.0215 13.129C10.917 13.1727 10.8109 13.2106 10.7019 13.2412C10.5899 13.2718 10.4838 13.2965 10.3763 13.3082C10.1612 13.3344 9.94164 13.3184 9.73253 13.2645C9.31282 13.1552 8.93493 12.8856 8.6601 12.5403C8.38527 12.1935 8.20603 11.7695 8.15824 11.3353C8.14629 11.2274 8.1433 11.1182 8.14778 11.0089C8.14927 10.955 8.15525 10.8996 8.16122 10.8413C8.1672 10.7845 8.17317 10.7277 8.18213 10.6737C8.21649 10.4523 8.27474 10.2468 8.38228 10.088C8.48684 9.92917 8.64516 9.81552 8.84531 9.73683C8.9424 9.69749 9.05442 9.66543 9.15748 9.64212C9.25905 9.62026 9.36062 9.61298 9.46069 9.61881C9.65785 9.62901 9.85202 9.70332 9.96853 9.8228C10.0268 9.87963 10.0581 9.94665 10.0581 9.986C10.0581 9.9962 10.0581 10.0049 10.0552 10.0122C10.0417 10.0093 10.0268 10.0079 10.0118 10.0093C9.89982 9.9656 9.78182 9.93063 9.65337 9.9146C9.45472 9.88691 9.22021 9.91314 9.02454 10.0297C8.82738 10.1434 8.69296 10.3284 8.62126 10.5149C8.54808 10.7029 8.52567 10.8952 8.53613 11.0817C8.55704 11.4548 8.7064 11.8088 8.94389 12.093C9.18138 12.3786 9.50998 12.584 9.85949 12.6918C9.94612 12.7195 10.0357 12.7414 10.1239 12.7574C10.221 12.7749 10.321 12.7836 10.4181 12.7822C10.6123 12.7778 10.8005 12.7385 10.9752 12.6758C11.3248 12.549 11.6295 12.3305 11.864 12.0551C12.0985 11.7797 12.2598 11.4431 12.324 11.089C12.3897 10.7349 12.3569 10.3721 12.2598 10.0385C12.2553 10.0253 12.2389 10.0151 12.215 10.0108C12.2045 9.986 12.1926 9.96268 12.1776 9.93937C12.1313 9.86651 12.0492 9.86069 11.9879 9.89129C11.97 9.89129 11.9521 9.8942 11.9357 9.89857C11.8535 9.92188 11.8012 9.98891 11.7938 10.0691C11.7923 10.0909 11.7952 10.1128 11.8027 10.1317C11.7893 10.1448 11.7818 10.1565 11.7848 10.1667C11.8654 10.4421 11.8879 10.7291 11.8371 11.0016C11.7878 11.2741 11.6653 11.532 11.4831 11.7447C11.3023 11.9575 11.0634 12.1265 10.8035 12.2212C10.6735 12.2678 10.5376 12.2955 10.4077 12.2984C10.3419 12.2999 10.2792 12.294 10.2165 12.2824C10.1463 12.2693 10.0761 12.2518 10.0089 12.2314C9.73851 12.1483 9.49803 11.9953 9.32477 11.787C9.15001 11.5801 9.04247 11.3163 9.02753 11.0555C9.00961 10.7961 9.1052 10.5368 9.27697 10.4421C9.3412 10.4042 9.41887 10.3852 9.5055 10.3852C9.49653 10.4027 9.48758 10.4217 9.4816 10.4392C9.40393 10.6461 9.41737 10.8471 9.46517 11.0293C9.51446 11.2114 9.60557 11.3834 9.75046 11.5276C9.82364 11.599 9.91028 11.6631 10.0133 11.7068C10.1149 11.752 10.2314 11.7753 10.3449 11.7724C10.5749 11.7666 10.7646 11.6675 10.911 11.5597C11.0574 11.4504 11.1814 11.3207 11.2814 11.1706C11.4801 10.8734 11.5727 10.5178 11.5548 10.1696C11.5383 9.82134 11.4084 9.47456 11.1844 9.19916C11.0723 9.0622 10.9394 8.94126 10.793 8.84363C10.7198 8.79409 10.6437 8.75038 10.566 8.71249C10.4913 8.67606 10.4181 8.64255 10.3404 8.6105C10.0357 8.48519 9.70117 8.39776 9.35464 8.38902C9.00812 8.37882 8.65562 8.4575 8.34644 8.60321C8.03576 8.74892 7.7684 8.95146 7.53539 9.17439C7.30089 9.39733 7.09626 9.63921 6.90806 9.88691C6.71837 10.1332 6.5451 10.3867 6.37035 10.6286L6.23891 10.8078C6.1941 10.8661 6.14331 10.9346 6.0985 10.9987C6.00739 11.1284 5.92375 11.261 5.84309 11.395C5.52495 11.9269 5.26356 12.4733 4.94691 12.9628C4.86177 13.094 4.79456 13.1945 4.70046 13.2907C4.60935 13.3869 4.50628 13.4714 4.38978 13.5486C4.15976 13.7045 3.88195 13.8327 3.60413 13.9959C3.53542 14.0367 3.54139 14.1606 3.61608 14.2728C3.69076 14.3835 3.7983 14.4447 3.85954 14.4083C4.10898 14.2597 4.39277 14.1314 4.67059 13.9449C4.80949 13.8517 4.94392 13.7439 5.06192 13.6185C5.12166 13.5559 5.17693 13.4903 5.22771 13.4218C5.27999 13.3504 5.32032 13.2863 5.36364 13.2222C5.36662 13.2178 5.36961 13.212 5.3726 13.2076C5.40845 13.3738 5.45774 13.5355 5.51898 13.6899C5.70419 14.1548 5.97603 14.57 6.29716 14.9445C6.61979 15.3161 6.99768 15.6468 7.43681 15.9018C7.86847 16.1481 8.32702 16.336 8.80199 16.4715C9.75494 16.7426 10.7572 16.7892 11.728 16.6799C12.2135 16.626 12.6944 16.5327 13.1649 16.4074C13.6354 16.2807 14.0969 16.1262 14.5465 15.9251C14.6018 15.9004 14.5988 15.7823 14.5376 15.6629C14.4778 15.5434 14.3882 15.4661 14.3389 15.488C13.9237 15.6745 13.4816 15.8231 13.035 15.9426C12.5869 16.0621 12.1313 16.1495 11.6713 16.2005C10.7542 16.304 9.81767 16.2573 8.93941 16.0082C8.50177 15.8843 8.07758 15.708 7.68624 15.4851C7.30686 15.2651 6.96482 14.9678 6.67356 14.6312C6.38379 14.2946 6.13883 13.9158 5.97902 13.5151C5.89985 13.314 5.8431 13.1086 5.82219 12.9046C5.80127 12.702 5.8177 12.5024 5.88641 12.3305C5.8879 12.3261 5.8879 12.3203 5.8879 12.3159C5.91927 12.2576 5.95063 12.2008 5.982 12.144C6.00291 12.345 6.03727 12.5461 6.08954 12.7443C6.21202 13.2193 6.43458 13.6739 6.74525 14.063C7.05444 14.4535 7.44726 14.774 7.87743 15.0188C8.3076 15.2651 8.77361 15.437 9.25009 15.5521C10.2045 15.7809 11.1933 15.7896 12.1507 15.6541C13.1082 15.5157 14.0402 15.2301 14.9095 14.8148C14.9633 14.7886 14.9558 14.672 14.8946 14.554C14.8333 14.436 14.7422 14.3587 14.6929 14.3835C13.8699 14.7769 12.9857 15.048 12.0805 15.1791C11.1769 15.3073 10.2478 15.2971 9.37107 15.0858C8.93343 14.9795 8.51073 14.8236 8.12836 14.6035C7.74599 14.385 7.40395 14.1052 7.13808 13.7686C6.87072 13.432 6.67953 13.0415 6.5705 12.6263C6.46146 12.211 6.43458 11.7739 6.46445 11.3382C6.47938 11.3163 6.49283 11.2945 6.50777 11.2741C6.54959 11.2143 6.58991 11.1604 6.63771 11.0978L6.72135 10.9841C6.69895 11.3498 6.75123 11.7185 6.86176 12.0638C7.00067 12.4995 7.22621 12.9002 7.50103 13.2586C7.77885 13.6156 8.10446 13.9347 8.48833 14.1956C8.67951 14.3238 8.89311 14.4418 9.1306 14.5147C9.35016 14.5846 9.57869 14.6341 9.80722 14.6647C10.0671 14.6983 10.33 14.7085 10.5929 14.691C10.5944 14.6924 10.5959 14.6939 10.5974 14.6939C10.9693 14.7099 11.3218 14.6429 11.6534 14.5598C11.9864 14.4753 12.3031 14.3719 12.6168 14.2786C13.2396 14.0921 13.8669 13.9493 14.4644 14.0455L14.4659 14.044C14.5943 14.0673 14.7228 14.0834 14.8512 14.095C14.8647 14.0965 14.8841 13.9901 14.8946 13.8575C14.905 13.7249 14.905 13.6171 14.8946 13.6156C14.5226 13.5836 14.1567 13.502 13.846 13.3402C13.5533 13.1887 13.3203 12.9599 13.1769 12.6743C13.1784 12.6685 13.1784 12.6612 13.1784 12.651C13.1784 12.6437 13.1784 12.6335 13.1754 12.619C13.1724 12.6088 13.1724 12.6073 13.1679 12.5898C13.1604 12.5723 13.1619 12.5665 13.135 12.5286C13.1291 12.5213 13.1231 12.5141 13.1171 12.5068L13.1067 12.4966C13.0992 12.4893 13.0917 12.4835 13.0828 12.4776C13.0484 12.4529 13.0066 12.4368 12.9648 12.4325C12.9215 12.4266 12.8677 12.4368 12.8363 12.45C12.8184 12.4572 12.802 12.4674 12.7855 12.4791C12.7781 12.4849 12.7706 12.4907 12.7631 12.498L12.7557 12.5068C12.7497 12.5126 12.7452 12.517 12.7407 12.5228C12.7288 12.5374 12.7273 12.5417 12.7228 12.5461C12.7004 12.5825 12.6989 12.5898 12.6944 12.6029L12.684 12.6306L12.681 12.6379L12.678 12.6481C12.5869 13.0211 12.3942 13.3606 12.1119 13.6156C11.8311 13.8735 11.4666 14.044 11.0783 14.1358C10.69 14.2262 10.2762 14.2407 9.87443 14.1883C9.67278 14.162 9.47563 14.1183 9.28295 14.0571C9.1052 14.0032 8.93493 13.91 8.76913 13.7992C8.43904 13.5748 8.1433 13.2878 7.89685 12.9701C7.6504 12.651 7.45324 12.297 7.33375 11.9225C7.21426 11.5495 7.17692 11.156 7.24114 10.7772C7.30388 10.3984 7.46818 10.037 7.70268 9.71643C7.70417 9.71352 7.70566 9.70915 7.70716 9.70478C7.76541 9.64358 7.82366 9.58238 7.88341 9.52555C8.09102 9.32885 8.31806 9.15982 8.56451 9.04325C8.81096 8.92669 9.07682 8.8684 9.34717 8.87569C9.61752 8.88152 9.89086 8.95 10.1522 9.05928C10.218 9.08697 10.2837 9.11611 10.3464 9.14671C10.4062 9.17585 10.4629 9.20936 10.5167 9.24579C10.6242 9.31865 10.7198 9.40461 10.8005 9.5037C10.9603 9.70041 11.0529 9.9452 11.0649 10.1973C11.0783 10.4494 11.0096 10.7058 10.8707 10.9127C10.7392 11.1123 10.4973 11.3003 10.336 11.2974C10.2553 11.2988 10.1776 11.2668 10.1044 11.1954C10.0328 11.1254 9.9745 11.0205 9.94612 10.9127C9.91625 10.8049 9.91774 10.6912 9.94762 10.614C9.97301 10.5528 10.0044 10.5208 10.0581 10.5004C10.0686 10.5193 10.0806 10.5368 10.097 10.5528C10.1866 10.6402 10.3449 10.6446 10.4345 10.5528C10.5645 10.4188 10.6003 10.2643 10.6003 10.0851C10.6003 10.0341 10.5824 9.986 10.5525 9.94665C10.5346 9.75286 10.436 9.60424 10.327 9.4935C10.094 9.26473 9.78929 9.16419 9.49504 9.14525C9.34717 9.13651 9.1993 9.14962 9.0589 9.17876C8.92149 9.20936 8.79453 9.24579 8.66309 9.29825C8.53314 9.3507 8.40319 9.41773 8.2837 9.50661C8.16421 9.59549 8.05667 9.70623 7.97601 9.83009C7.80872 10.0793 7.74151 10.3532 7.70118 10.6082C7.69073 10.6723 7.68326 10.7364 7.67728 10.8005C7.67131 10.8617 7.66533 10.9273 7.66235 10.9943C7.65637 11.1284 7.66085 11.261 7.6743 11.3936C7.73255 11.9225 7.94614 12.4252 8.27623 12.8434C8.60633 13.2601 9.06786 13.5967 9.61005 13.738C9.87891 13.808 10.1642 13.8284 10.4405 13.7949C10.5794 13.7788 10.7153 13.7482 10.8423 13.7133C10.9723 13.6768 11.0992 13.6331 11.2217 13.5807C11.7146 13.3723 12.1507 13.0459 12.4868 12.6379C12.6541 12.4339 12.799 12.2081 12.9035 11.9589C12.911 11.9414 12.9185 11.9225 12.9244 11.9035C12.9498 11.94 12.9752 11.9749 13.0021 12.0099C13.1589 12.2139 13.3307 12.4048 13.5204 12.5825C13.7101 12.7589 13.9162 12.9221 14.1507 13.059C14.3837 13.1931 14.6481 13.3082 14.9558 13.33C14.9752 13.3315 14.9946 13.2237 14.9991 13.0911C15.0021 12.9497 14.9976 12.8405 14.9857 12.8405ZM12.9752 13.2528C13.0066 13.2907 13.0409 13.3286 13.0753 13.365C13.1589 13.451 13.2501 13.5267 13.3471 13.5967C13.1037 13.6404 12.8677 13.6987 12.6377 13.7643C12.7721 13.6083 12.8856 13.4349 12.9752 13.2528Z" />
<path d="M14.1627 16.6566C14.0865 16.7003 13.9864 16.7426 13.8863 16.779C13.7848 16.8169 13.6802 16.8504 13.5727 16.8824C13.3591 16.9451 13.141 16.9976 12.92 17.0442C12.4778 17.136 12.0283 17.1972 11.5772 17.2336C10.6765 17.3021 9.7624 17.2671 8.8946 17.0631C8.46144 16.9597 8.04173 16.8125 7.65488 16.61C7.55779 16.559 7.46519 16.5065 7.37109 16.4468C7.27549 16.3885 7.18139 16.3273 7.0858 16.2646C6.89611 16.1408 6.70791 16.0111 6.51673 15.8814C6.13137 15.625 5.74003 15.3554 5.26207 15.1776C5.02458 15.0917 4.75722 15.0348 4.48239 15.0494C4.20756 15.064 3.9387 15.1558 3.71466 15.2898C3.6579 15.3234 3.67881 15.4414 3.75648 15.5492C3.83415 15.6585 3.92974 15.7255 3.97007 15.7007C4.14034 15.6002 4.32257 15.539 4.51077 15.5288C4.69897 15.5171 4.89612 15.5565 5.0903 15.6279C5.48163 15.7721 5.85803 16.0228 6.23592 16.2763C6.42561 16.4045 6.6153 16.5357 6.80948 16.6639C6.90656 16.728 7.00514 16.7921 7.10671 16.8533C7.20828 16.916 7.31433 16.9772 7.42187 17.034C7.85204 17.2598 8.31058 17.4201 8.77809 17.5309C9.71311 17.7509 10.675 17.7858 11.6175 17.7144C12.0895 17.678 12.5585 17.6125 13.023 17.5163C13.2545 17.4682 13.486 17.4128 13.7161 17.3443C13.8311 17.3108 13.9461 17.2729 14.0611 17.2307C14.1776 17.187 14.2911 17.1418 14.4151 17.0719C14.4793 17.0354 14.4689 16.9028 14.3733 16.8081C14.2762 16.7105 14.197 16.6362 14.1627 16.6566Z" />
<path d="M13.725 17.8427C12.9782 18.1326 12.1597 18.2827 11.3427 18.3497C10.5271 18.4109 9.6937 18.392 8.90953 18.2186C8.71387 18.1749 8.52268 18.1195 8.34046 18.051C8.24935 18.0161 8.16122 17.9782 8.07609 17.9359L7.94464 17.866L7.80723 17.7917C7.44129 17.5935 7.07983 17.3895 6.71687 17.1826C6.35242 16.9772 5.99246 16.7659 5.59963 16.5765C5.40097 16.4847 5.19485 16.3914 4.94243 16.3462C4.81696 16.3244 4.67208 16.32 4.53018 16.355C4.38679 16.3885 4.25685 16.4599 4.15528 16.5415C4.103 16.5823 4.14482 16.6945 4.24042 16.7892C4.33601 16.8839 4.43758 16.9378 4.46446 16.916C4.58694 16.8198 4.69448 16.795 4.85878 16.8212C5.0201 16.8475 5.20382 16.9247 5.38305 17.0092C5.74302 17.1826 6.10597 17.3953 6.46893 17.5993C6.83188 17.8062 7.19782 18.0117 7.56675 18.2128L7.70566 18.2871L7.85054 18.3643C7.95211 18.4153 8.05666 18.4605 8.16122 18.4998C8.37033 18.58 8.58392 18.6397 8.79901 18.6878C9.22768 18.784 9.65934 18.832 10.091 18.8524C10.5227 18.8728 10.9543 18.8626 11.383 18.8291C11.8117 18.7956 12.2389 18.7373 12.6616 18.6499C13.0843 18.5625 13.5025 18.4488 13.9102 18.2885C13.961 18.2681 13.9565 18.153 13.9028 18.0306C13.8505 17.9082 13.7698 17.8237 13.725 17.8427Z" />
<path d="M12.9588 19.2123C11.6907 19.4892 10.3793 19.6262 9.11566 19.4149C8.8005 19.3624 8.48983 19.2881 8.18214 19.1963C8.06264 19.1599 7.94465 19.1206 7.82665 19.0812C7.71761 19.0375 7.59364 18.9705 7.47266 18.9005C7.35167 18.8291 7.23069 18.7534 7.1097 18.6761L6.37931 18.2011C6.13286 18.0423 5.88342 17.8835 5.61755 17.7378C5.48313 17.6649 5.34572 17.595 5.18739 17.5367C5.10673 17.509 5.02309 17.4813 4.90658 17.4711C4.87821 17.4682 4.84684 17.4682 4.8095 17.4711C4.76768 17.4755 4.73332 17.4828 4.69897 17.4944C4.63026 17.5192 4.56753 17.5615 4.52272 17.6168C4.50031 17.6489 4.57798 17.7421 4.68851 17.8194C4.7856 17.8878 4.86327 17.9447 4.86177 17.9476C4.86177 17.9476 4.86327 17.9476 4.85729 17.949C4.8558 17.949 4.86327 17.949 4.87073 17.949C4.9021 17.9505 4.96035 17.9651 5.01562 17.9855C5.13063 18.0277 5.2546 18.0889 5.37708 18.156C5.59216 18.274 5.80575 18.408 6.01934 18.545C5.92076 18.5377 5.82069 18.5348 5.72062 18.5406C5.53391 18.5508 5.3487 18.5843 5.17245 18.6397C5.12914 18.6528 5.13212 18.7665 5.17693 18.8918C5.22324 19.0171 5.28746 19.1089 5.32032 19.0987C5.60113 19.0113 5.8879 18.9982 6.18215 19.0521C6.4764 19.1045 6.77811 19.2153 7.0858 19.3275C7.39349 19.4411 7.71014 19.5591 8.03576 19.6568C8.36137 19.7544 8.69445 19.8345 9.03052 19.8899C9.70565 20.0036 10.3912 20.0225 11.0678 19.9773C11.7445 19.9322 12.4106 19.8258 13.0663 19.683C13.1067 19.6742 13.1141 19.5621 13.0843 19.4324C13.0529 19.3027 12.9961 19.2036 12.9588 19.2123Z" />
</svg>
