<svg width="20" height="23" viewBox="0 0 20 23" fill="white" xmlns="http://www.w3.org/2000/svg">
<path d="M0.18457 19.488V22.0757H2.95025M16.4519 22.0757H19.1244V19.488M0.18457 3.82132V0.978027H2.95025M19.1244 3.82132V0.978027H16.4519" stroke="white" stroke-width="0.168367"/>
<path d="M13.8819 14.2812C13.6003 14.1634 13.3603 13.9171 13.2003 13.6188C13.0373 13.3205 12.941 12.9717 12.8906 12.6138C12.8654 12.4348 12.8506 12.2512 12.8446 12.0676C12.8417 11.9759 12.8402 11.8825 12.8417 11.7908L12.8461 11.5032C12.8506 11.1161 12.852 10.7306 12.8506 10.3451L12.8476 9.76689C12.8446 9.57261 12.8476 9.38598 12.8357 9.1764C12.812 8.77254 12.738 8.36563 12.6031 7.9786C12.4668 7.59157 12.2668 7.2229 12.006 6.90624C11.7452 6.58805 11.4251 6.3234 11.0725 6.12453C10.7198 5.92719 10.3345 5.79563 9.94336 5.72679C9.74776 5.69314 9.54921 5.67478 9.35214 5.66866C9.24989 5.66713 9.16395 5.66713 9.06467 5.66866C8.9654 5.67019 8.86612 5.67478 8.76684 5.68396C8.37121 5.72068 7.9741 5.82317 7.6081 6.00674C7.24359 6.19031 6.91168 6.45343 6.65237 6.7808C6.39306 7.10817 6.20636 7.49825 6.11597 7.91282C6.09375 8.01684 6.07745 8.12087 6.06559 8.22795C6.05522 8.33197 6.05225 8.44518 6.05225 8.54002L6.0078 11.4144C5.98558 11.7418 5.98854 12.0845 6.02707 12.4241C6.04633 12.5939 6.07596 12.7667 6.12338 12.9381C6.17228 13.1109 6.23599 13.2853 6.34564 13.4521C6.40047 13.5362 6.46567 13.6142 6.55161 13.6861C6.63755 13.7565 6.72646 13.8039 6.81536 13.8422C6.99466 13.9171 7.17839 13.9492 7.3651 13.9508C7.55032 13.9523 7.7385 13.9187 7.91483 13.8452C8.09116 13.7733 8.25563 13.6601 8.38751 13.5179C8.48382 13.4138 8.44974 13.2563 8.33565 13.1828C8.22155 13.1079 8.09116 13.1079 8.03337 13.1675C7.86593 13.3511 7.62292 13.4475 7.36658 13.446C7.24063 13.446 7.11023 13.4215 6.9991 13.3741C6.88204 13.3236 6.81981 13.2716 6.75017 13.1675C6.61533 12.961 6.54716 12.6612 6.51308 12.3644C6.479 12.0615 6.47456 11.7556 6.49678 11.4404L6.54124 8.54614C6.54272 8.44823 6.5442 8.36869 6.55309 8.28149C6.56198 8.19582 6.57532 8.11016 6.5931 8.02602C6.66571 7.68947 6.81832 7.37129 7.03022 7.10205C7.24211 6.83281 7.51475 6.61558 7.82 6.46261C8.12524 6.30963 8.46308 6.22091 8.80833 6.18878C8.89427 6.18113 8.9817 6.17654 9.06912 6.17501H9.34028C9.51513 6.1796 9.68998 6.1949 9.86038 6.22549C10.2027 6.28516 10.5361 6.39989 10.8383 6.56816C11.1406 6.73796 11.4118 6.96284 11.6311 7.23208C11.8533 7.50131 12.0237 7.81491 12.1423 8.14993C12.2593 8.48648 12.326 8.84444 12.3468 9.207C12.3571 9.38292 12.3557 9.58026 12.3586 9.77148L12.3616 10.3467C12.3631 10.7306 12.3616 11.1131 12.3571 11.497L12.3527 11.7862C12.3512 11.8856 12.3527 11.9866 12.3557 12.086C12.3616 12.2864 12.3779 12.4883 12.406 12.6887C12.4638 13.0895 12.5705 13.4964 12.7735 13.8697C12.975 14.2399 13.2862 14.578 13.6981 14.7508C13.8226 14.8044 13.9649 14.7157 13.9812 14.5764C13.996 14.4357 13.9619 14.3149 13.8819 14.2812Z" />
<path d="M13.8819 14.2812C13.6003 14.1634 13.3603 13.9171 13.2003 13.6188C13.0373 13.3205 12.941 12.9717 12.8906 12.6138C12.8654 12.4348 12.8506 12.2512 12.8446 12.0676C12.8417 11.9759 12.8402 11.8825 12.8417 11.7908L12.8461 11.5032C12.8506 11.1161 12.852 10.7306 12.8506 10.3451L12.8476 9.76689C12.8446 9.57261 12.8476 9.38598 12.8357 9.1764C12.812 8.77254 12.738 8.36563 12.6031 7.9786C12.4668 7.59157 12.2668 7.2229 12.006 6.90624C11.7452 6.58805 11.4251 6.3234 11.0725 6.12453C10.7198 5.92719 10.3345 5.79563 9.94336 5.72679C9.74776 5.69314 9.54921 5.67478 9.35214 5.66866C9.24989 5.66713 9.16395 5.66713 9.06467 5.66866C8.9654 5.67019 8.86612 5.67478 8.76684 5.68396C8.37121 5.72068 7.9741 5.82317 7.6081 6.00674C7.24359 6.19031 6.91168 6.45343 6.65237 6.7808C6.39306 7.10817 6.20636 7.49825 6.11597 7.91282C6.09375 8.01684 6.07745 8.12087 6.06559 8.22795C6.05522 8.33197 6.05225 8.44518 6.05225 8.54002L6.0078 11.4144C5.98558 11.7418 5.98854 12.0845 6.02707 12.4241C6.04633 12.5939 6.07596 12.7667 6.12338 12.9381C6.17228 13.1109 6.23599 13.2853 6.34564 13.4521C6.40047 13.5362 6.46567 13.6142 6.55161 13.6861C6.63755 13.7565 6.72646 13.8039 6.81536 13.8422C6.99466 13.9171 7.17839 13.9492 7.3651 13.9508C7.55032 13.9523 7.7385 13.9187 7.91483 13.8452C8.09116 13.7733 8.25563 13.6601 8.38751 13.5179C8.48382 13.4138 8.44974 13.2563 8.33565 13.1828C8.22155 13.1079 8.09116 13.1079 8.03337 13.1675C7.86593 13.3511 7.62292 13.4475 7.36658 13.446C7.24063 13.446 7.11023 13.4215 6.9991 13.3741C6.88204 13.3236 6.81981 13.2716 6.75017 13.1675C6.61533 12.961 6.54716 12.6612 6.51308 12.3644C6.479 12.0615 6.47456 11.7556 6.49678 11.4404L6.54124 8.54614C6.54272 8.44823 6.5442 8.36869 6.55309 8.28149C6.56198 8.19582 6.57532 8.11016 6.5931 8.02602C6.66571 7.68947 6.81832 7.37129 7.03022 7.10205C7.24211 6.83281 7.51475 6.61558 7.82 6.46261C8.12524 6.30963 8.46308 6.22091 8.80833 6.18878C8.89427 6.18113 8.9817 6.17654 9.06912 6.17501H9.34028C9.51513 6.1796 9.68998 6.1949 9.86038 6.22549C10.2027 6.28516 10.5361 6.39989 10.8383 6.56816C11.1406 6.73796 11.4118 6.96284 11.6311 7.23208C11.8533 7.50131 12.0237 7.81491 12.1423 8.14993C12.2593 8.48648 12.326 8.84444 12.3468 9.207C12.3571 9.38292 12.3557 9.58026 12.3586 9.77148L12.3616 10.3467C12.3631 10.7306 12.3616 11.1131 12.3571 11.497L12.3527 11.7862C12.3512 11.8856 12.3527 11.9866 12.3557 12.086C12.3616 12.2864 12.3779 12.4883 12.406 12.6887C12.4638 13.0895 12.5705 13.4964 12.7735 13.8697C12.975 14.2399 13.2862 14.578 13.6981 14.7508C13.8226 14.8044 13.9649 14.7157 13.9812 14.5764C13.996 14.4357 13.9619 14.3149 13.8819 14.2812Z" />
<path d="M8.44085 12.7882C8.57569 12.7897 8.68682 12.7514 8.68682 12.7025L8.70016 11.4925C8.70312 11.0886 8.69423 10.6847 8.69127 10.2809L8.68534 9.68122C8.68682 9.48847 8.69719 9.29725 8.72386 9.11827C8.75202 8.93929 8.79943 8.76949 8.87649 8.65016C8.95205 8.53084 9.04837 8.46965 9.19803 8.436C9.27212 8.41917 9.35658 8.41305 9.44549 8.40999L9.51364 8.40846H9.53439L9.55365 8.40999C9.58329 8.41458 9.61737 8.42223 9.64849 8.43447C9.78036 8.48036 9.90335 8.57827 10.0011 8.70524C10.1997 8.96376 10.3049 9.33091 10.3568 9.70111C10.382 9.88774 10.3968 10.079 10.3997 10.2732C10.4012 10.3681 10.4012 10.4675 10.4012 10.57V12.0799C10.4012 12.1288 10.5109 12.1686 10.6457 12.1686C10.7805 12.1686 10.8902 12.1288 10.8902 12.0799V10.57C10.8902 10.4706 10.8902 10.3681 10.8887 10.2625C10.8843 10.053 10.8695 9.84185 10.8413 9.63074C10.8117 9.41963 10.7672 9.207 10.6961 8.99589C10.625 8.78631 10.5272 8.57827 10.3834 8.39011C10.2397 8.20347 10.0441 8.03979 9.80555 7.95565C9.74628 7.93424 9.68404 7.91894 9.61736 7.90976C9.60107 7.9067 9.58329 7.90517 9.56402 7.90364L9.53142 7.90211H9.51068L9.43215 7.90364C9.32546 7.9067 9.21433 7.91435 9.09727 7.94036C8.98169 7.96483 8.85722 8.00919 8.74461 8.08568C8.632 8.16064 8.53568 8.26313 8.46752 8.37175C8.32972 8.59203 8.27638 8.8215 8.24081 9.03719C8.20673 9.25442 8.19636 9.46859 8.19488 9.67816L8.2008 10.287C8.20377 10.6893 8.21266 11.0901 8.20969 11.4909L8.19636 12.6964C8.19636 12.7453 8.30601 12.7866 8.44085 12.7882Z" />
<path d="M8.44085 12.7882C8.57569 12.7897 8.68682 12.7514 8.68682 12.7025L8.70016 11.4925C8.70312 11.0886 8.69423 10.6847 8.69127 10.2809L8.68534 9.68122C8.68682 9.48847 8.69719 9.29725 8.72386 9.11827C8.75202 8.93929 8.79943 8.76949 8.87649 8.65016C8.95205 8.53084 9.04837 8.46965 9.19803 8.436C9.27212 8.41917 9.35658 8.41305 9.44549 8.40999L9.51364 8.40846H9.53439L9.55365 8.40999C9.58329 8.41458 9.61737 8.42223 9.64849 8.43447C9.78036 8.48036 9.90335 8.57827 10.0011 8.70524C10.1997 8.96376 10.3049 9.33091 10.3568 9.70111C10.382 9.88774 10.3968 10.079 10.3997 10.2732C10.4012 10.3681 10.4012 10.4675 10.4012 10.57V12.0799C10.4012 12.1288 10.5109 12.1686 10.6457 12.1686C10.7805 12.1686 10.8902 12.1288 10.8902 12.0799V10.57C10.8902 10.4706 10.8902 10.3681 10.8887 10.2625C10.8843 10.053 10.8695 9.84185 10.8413 9.63074C10.8117 9.41963 10.7672 9.207 10.6961 8.99589C10.625 8.78631 10.5272 8.57827 10.3834 8.39011C10.2397 8.20347 10.0441 8.03979 9.80555 7.95565C9.74628 7.93424 9.68404 7.91894 9.61736 7.90976C9.60107 7.9067 9.58329 7.90517 9.56402 7.90364L9.53142 7.90211H9.51068L9.43215 7.90364C9.32546 7.9067 9.21433 7.91435 9.09727 7.94036C8.98169 7.96483 8.85722 8.00919 8.74461 8.08568C8.632 8.16064 8.53568 8.26313 8.46752 8.37175C8.32972 8.59203 8.27638 8.8215 8.24081 9.03719C8.20673 9.25442 8.19636 9.46859 8.19488 9.67816L8.2008 10.287C8.20377 10.6893 8.21266 11.0901 8.20969 11.4909L8.19636 12.6964C8.19636 12.7453 8.30601 12.7866 8.44085 12.7882Z" />
<path d="M5.54105 9.26054L5.55142 8.50943L5.55438 8.13464C5.55586 8.01838 5.56327 7.90364 5.57661 7.78891C5.62995 7.32998 5.7885 6.88941 6.0404 6.5085C6.29082 6.12606 6.62866 5.80481 7.01392 5.55699C7.78591 5.06288 8.7372 4.86095 9.64404 4.96957C10.0975 5.02311 10.542 5.15773 10.9465 5.37036C11.351 5.58147 11.7141 5.87365 12.0119 6.22703C12.0845 6.31269 12.2253 6.31575 12.3334 6.23162C12.4401 6.14748 12.4653 5.9945 12.3808 5.89507C12.043 5.49427 11.6281 5.16078 11.1688 4.92061C10.7094 4.67891 10.2086 4.52899 9.70183 4.46933C8.68682 4.35001 7.63477 4.5703 6.75609 5.13019C6.31897 5.41014 5.92778 5.78034 5.63588 6.22703C5.34249 6.67219 5.15431 7.19536 5.09207 7.72925C5.07577 7.86234 5.06837 7.99696 5.0654 8.13005L5.06244 8.50637L5.05206 9.25442L5.02391 10.7536C5.0165 11.2553 5.01502 11.7602 5.02688 12.2635C5.03132 12.3782 5.02688 12.5159 5.03577 12.6474C5.04317 12.7805 5.05651 12.9136 5.07726 13.0467C5.12023 13.3129 5.19135 13.5775 5.30841 13.8299C5.42399 14.0808 5.5855 14.3164 5.78554 14.5091C5.98557 14.7034 6.21969 14.8533 6.46863 14.9604C6.71608 15.066 6.97687 15.1302 7.23766 15.1608C7.36805 15.1761 7.49993 15.1822 7.63329 15.1792L7.68515 15.1776L7.72812 15.1746L7.81703 15.1731C7.88371 15.1715 7.95039 15.1669 8.01707 15.1578C8.28378 15.1272 8.56087 15.0461 8.80388 14.89C9.04837 14.7355 9.24544 14.5107 9.38177 14.2644C9.51957 14.0181 9.60551 13.755 9.6633 13.4949C9.72109 13.2333 9.75221 12.9733 9.76999 12.7147C9.78777 12.4577 9.79073 12.1961 9.78925 11.9483V9.69958C9.78925 9.5772 9.6796 9.47776 9.54476 9.47776C9.40992 9.47776 9.30027 9.5772 9.30027 9.69958V11.9483C9.30175 12.1992 9.29879 12.4394 9.28249 12.6811C9.24989 13.1584 9.16988 13.6356 8.95947 14.012C8.85426 14.1986 8.71646 14.3531 8.54754 14.4617C8.37862 14.5703 8.1771 14.633 7.96372 14.656C7.91038 14.6621 7.85703 14.6667 7.80221 14.6682L7.70886 14.6698L7.66144 14.6728L7.62144 14.6744C7.51327 14.6774 7.40214 14.6713 7.29249 14.6591C7.07319 14.6331 6.85685 14.5795 6.65681 14.4938C6.25525 14.3256 5.93371 14.015 5.75145 13.6127C5.6581 13.4123 5.59735 13.192 5.56179 12.9656C5.54401 12.8524 5.53215 12.7361 5.52474 12.6199C5.51585 12.5021 5.5203 12.3889 5.51585 12.2543C5.504 11.7571 5.50548 11.263 5.51289 10.7643L5.54105 9.26054Z" />
<path d="M5.54105 9.26054L5.55142 8.50943L5.55438 8.13464C5.55586 8.01838 5.56327 7.90364 5.57661 7.78891C5.62995 7.32998 5.7885 6.88941 6.0404 6.5085C6.29082 6.12606 6.62866 5.80481 7.01392 5.55699C7.78591 5.06288 8.7372 4.86095 9.64404 4.96957C10.0975 5.02311 10.542 5.15773 10.9465 5.37036C11.351 5.58147 11.7141 5.87365 12.0119 6.22703C12.0845 6.31269 12.2253 6.31575 12.3334 6.23162C12.4401 6.14748 12.4653 5.9945 12.3808 5.89507C12.043 5.49427 11.6281 5.16078 11.1688 4.92061C10.7094 4.67891 10.2086 4.52899 9.70183 4.46933C8.68682 4.35001 7.63477 4.5703 6.75609 5.13019C6.31897 5.41014 5.92778 5.78034 5.63588 6.22703C5.34249 6.67219 5.15431 7.19536 5.09207 7.72925C5.07577 7.86234 5.06837 7.99696 5.0654 8.13005L5.06244 8.50637L5.05206 9.25442L5.02391 10.7536C5.0165 11.2553 5.01502 11.7602 5.02688 12.2635C5.03132 12.3782 5.02688 12.5159 5.03577 12.6474C5.04317 12.7805 5.05651 12.9136 5.07726 13.0467C5.12023 13.3129 5.19135 13.5775 5.30841 13.8299C5.42399 14.0808 5.5855 14.3164 5.78554 14.5091C5.98557 14.7034 6.21969 14.8533 6.46863 14.9604C6.71608 15.066 6.97687 15.1302 7.23766 15.1608C7.36805 15.1761 7.49993 15.1822 7.63329 15.1792L7.68515 15.1776L7.72812 15.1746L7.81703 15.1731C7.88371 15.1715 7.95039 15.1669 8.01707 15.1578C8.28378 15.1272 8.56087 15.0461 8.80388 14.89C9.04837 14.7355 9.24544 14.5107 9.38177 14.2644C9.51957 14.0181 9.60551 13.755 9.6633 13.4949C9.72109 13.2333 9.75221 12.9733 9.76999 12.7147C9.78777 12.4577 9.79073 12.1961 9.78925 11.9483V9.69958C9.78925 9.5772 9.6796 9.47776 9.54476 9.47776C9.40992 9.47776 9.30027 9.5772 9.30027 9.69958V11.9483C9.30175 12.1992 9.29879 12.4394 9.28249 12.6811C9.24989 13.1584 9.16988 13.6356 8.95947 14.012C8.85426 14.1986 8.71646 14.3531 8.54754 14.4617C8.37862 14.5703 8.1771 14.633 7.96372 14.656C7.91038 14.6621 7.85703 14.6667 7.80221 14.6682L7.70886 14.6698L7.66144 14.6728L7.62144 14.6744C7.51327 14.6774 7.40214 14.6713 7.29249 14.6591C7.07319 14.6331 6.85685 14.5795 6.65681 14.4938C6.25525 14.3256 5.93371 14.015 5.75145 13.6127C5.6581 13.4123 5.59735 13.192 5.56179 12.9656C5.54401 12.8524 5.53215 12.7361 5.52474 12.6199C5.51585 12.5021 5.5203 12.3889 5.51585 12.2543C5.504 11.7571 5.50548 11.263 5.51289 10.7643L5.54105 9.26054Z" />
<path d="M7.21988 17.4662C7.72516 17.5029 8.24525 17.4922 8.75646 17.3805C9.26619 17.2719 9.76406 17.0638 10.1967 16.7502C10.6294 16.4382 10.991 16.0251 11.2592 15.5616C11.5288 15.0981 11.7096 14.5887 11.8148 14.067C11.8682 13.807 11.9022 13.5423 11.9185 13.2777L11.92 13.2517C11.92 13.2456 11.9215 13.2379 11.9215 13.2303V13.0742L11.9378 10.9785C11.9393 10.4721 11.9556 9.9627 11.9215 9.43646C11.9037 9.17487 11.8756 8.90716 11.8074 8.6364C11.7422 8.36716 11.6222 8.0918 11.4503 7.86387C11.3658 7.74914 11.274 7.64664 11.1791 7.55333C11.1317 7.50591 11.0843 7.46154 11.0354 7.41718C10.9806 7.3667 10.9213 7.3208 10.862 7.28103C10.625 7.12041 10.3731 7.01791 10.1138 6.94754C9.5981 6.80833 9.04392 6.80069 8.52086 6.97202C8.26007 7.05769 8.01262 7.19077 7.79628 7.3667C7.76813 7.38811 7.74294 7.41106 7.71627 7.43401C7.68811 7.45848 7.65848 7.48755 7.63181 7.51508C7.57846 7.57168 7.53105 7.63287 7.48956 7.69559C7.40658 7.82103 7.34435 7.95412 7.29545 8.08568C7.19765 8.35033 7.14579 8.61651 7.10727 8.8781C7.07022 9.13969 7.04948 9.39975 7.03466 9.65827C6.98428 10.6909 7.01688 11.7066 7.02428 12.7209C7.02577 12.8448 7.13542 12.9442 7.27174 12.9427C7.40658 12.9411 7.51623 12.8402 7.51475 12.7147C7.50734 11.699 7.47622 10.6817 7.52512 9.68581C7.53846 9.43799 7.5592 9.19017 7.59328 8.95C7.62736 8.70982 7.67626 8.47577 7.75331 8.26466C7.79184 8.16064 7.83926 8.06274 7.89408 7.9786C7.92223 7.9373 7.95187 7.89905 7.98447 7.86387C8.00077 7.84704 8.01706 7.83174 8.03485 7.81492C8.05559 7.79656 8.07633 7.7782 8.09856 7.76137C8.26896 7.6237 8.46308 7.51814 8.672 7.4493C9.08838 7.31162 9.55661 7.31468 9.99077 7.43248C10.2071 7.49061 10.4175 7.57933 10.5924 7.69865C10.6353 7.72925 10.6753 7.75831 10.7124 7.7935C10.7568 7.83327 10.7983 7.87458 10.8398 7.91435C10.9213 7.99696 10.9969 8.07957 11.0621 8.16829C11.1925 8.34268 11.2784 8.54002 11.3347 8.76184C11.391 8.98365 11.4177 9.22382 11.434 9.46859C11.4651 9.95658 11.4503 10.4629 11.4488 10.9723L11.437 12.496L11.4296 13.2425C11.4147 13.4842 11.3836 13.7244 11.3347 13.9615C11.2384 14.4342 11.0754 14.8916 10.8383 15.2985C10.6013 15.7069 10.2886 16.0634 9.9152 16.3326C9.5418 16.6034 9.10912 16.7854 8.6557 16.8818C8.20228 16.9812 7.72812 16.9919 7.25396 16.9583C6.78276 16.9231 6.31749 16.8328 5.88629 16.66C5.45807 16.4902 5.05503 16.2332 4.7735 15.892C4.70682 15.811 4.57642 15.8079 4.45788 15.8737C4.33786 15.941 4.3097 16.1108 4.39861 16.2179C4.75868 16.6508 5.22395 16.9369 5.70996 17.1327C6.19895 17.33 6.71163 17.4279 7.21988 17.4662Z" />
<path d="M7.21988 17.4662C7.72516 17.5029 8.24525 17.4922 8.75646 17.3805C9.26619 17.2719 9.76406 17.0638 10.1967 16.7502C10.6294 16.4382 10.991 16.0251 11.2592 15.5616C11.5288 15.0981 11.7096 14.5887 11.8148 14.067C11.8682 13.807 11.9022 13.5423 11.9185 13.2777L11.92 13.2517C11.92 13.2456 11.9215 13.2379 11.9215 13.2303V13.0742L11.9378 10.9785C11.9393 10.4721 11.9556 9.9627 11.9215 9.43646C11.9037 9.17487 11.8756 8.90716 11.8074 8.6364C11.7422 8.36716 11.6222 8.0918 11.4503 7.86387C11.3658 7.74914 11.274 7.64664 11.1791 7.55333C11.1317 7.50591 11.0843 7.46154 11.0354 7.41718C10.9806 7.3667 10.9213 7.3208 10.862 7.28103C10.625 7.12041 10.3731 7.01791 10.1138 6.94754C9.5981 6.80833 9.04392 6.80069 8.52086 6.97202C8.26007 7.05769 8.01262 7.19077 7.79628 7.3667C7.76813 7.38811 7.74294 7.41106 7.71627 7.43401C7.68811 7.45848 7.65848 7.48755 7.63181 7.51508C7.57846 7.57168 7.53105 7.63287 7.48956 7.69559C7.40658 7.82103 7.34435 7.95412 7.29545 8.08568C7.19765 8.35033 7.14579 8.61651 7.10727 8.8781C7.07022 9.13969 7.04948 9.39975 7.03466 9.65827C6.98428 10.6909 7.01688 11.7066 7.02428 12.7209C7.02577 12.8448 7.13542 12.9442 7.27174 12.9427C7.40658 12.9411 7.51623 12.8402 7.51475 12.7147C7.50734 11.699 7.47622 10.6817 7.52512 9.68581C7.53846 9.43799 7.5592 9.19017 7.59328 8.95C7.62736 8.70982 7.67626 8.47577 7.75331 8.26466C7.79184 8.16064 7.83926 8.06274 7.89408 7.9786C7.92223 7.9373 7.95187 7.89905 7.98447 7.86387C8.00077 7.84704 8.01706 7.83174 8.03485 7.81492C8.05559 7.79656 8.07633 7.7782 8.09856 7.76137C8.26896 7.6237 8.46308 7.51814 8.672 7.4493C9.08838 7.31162 9.55661 7.31468 9.99077 7.43248C10.2071 7.49061 10.4175 7.57933 10.5924 7.69865C10.6353 7.72925 10.6753 7.75831 10.7124 7.7935C10.7568 7.83327 10.7983 7.87458 10.8398 7.91435C10.9213 7.99696 10.9969 8.07957 11.0621 8.16829C11.1925 8.34268 11.2784 8.54002 11.3347 8.76184C11.391 8.98365 11.4177 9.22382 11.434 9.46859C11.4651 9.95658 11.4503 10.4629 11.4488 10.9723L11.437 12.496L11.4296 13.2425C11.4147 13.4842 11.3836 13.7244 11.3347 13.9615C11.2384 14.4342 11.0754 14.8916 10.8383 15.2985C10.6013 15.7069 10.2886 16.0634 9.9152 16.3326C9.5418 16.6034 9.10912 16.7854 8.6557 16.8818C8.20228 16.9812 7.72812 16.9919 7.25396 16.9583C6.78276 16.9231 6.31749 16.8328 5.88629 16.66C5.45807 16.4902 5.05503 16.2332 4.7735 15.892C4.70682 15.811 4.57642 15.8079 4.45788 15.8737C4.33786 15.941 4.3097 16.1108 4.39861 16.2179C4.75868 16.6508 5.22395 16.9369 5.70996 17.1327C6.19895 17.33 6.71163 17.4279 7.21988 17.4662Z" />
<path d="M5.98113 15.9716C6.4138 16.149 6.86871 16.2424 7.32509 16.273C7.44066 16.2806 7.55179 16.2852 7.66885 16.2837C7.77702 16.2791 7.88519 16.2806 8.00373 16.276C8.23637 16.2638 8.47049 16.2301 8.69868 16.1659C9.15654 16.042 9.5907 15.7895 9.92557 15.4362C10.2634 15.0859 10.5005 14.6499 10.6502 14.1971C10.8013 13.7427 10.8709 13.2716 10.8872 12.8019C10.8917 12.6872 10.7805 12.5939 10.6457 12.5954C10.5109 12.5954 10.4012 12.6811 10.3983 12.7851C10.3834 13.2134 10.3197 13.6372 10.1878 14.0334C10.056 14.4281 9.85445 14.7937 9.57884 15.0813C9.30324 15.3704 8.95502 15.5739 8.57273 15.6779C8.38158 15.7314 8.18303 15.7605 7.98151 15.7712C7.88371 15.7758 7.77258 15.7758 7.66441 15.7788C7.56513 15.7804 7.45992 15.7758 7.35768 15.7697C6.94575 15.7421 6.53827 15.658 6.16338 15.5035C5.7885 15.3505 5.44769 15.1226 5.18246 14.8212C4.91574 14.5214 4.72904 14.1512 4.62088 13.7519C4.56605 13.5515 4.53049 13.345 4.50974 13.1339C4.489 12.9304 4.49048 12.7086 4.49048 12.4883C4.49789 11.5995 4.53345 10.6985 4.54086 9.79748L4.54234 9.12133L4.53938 8.78325C4.53789 8.67464 4.53937 8.56603 4.54234 8.45742C4.55419 8.02296 4.60013 7.59157 4.69348 7.17242C4.87426 6.33717 5.26544 5.55393 5.87148 4.98945C6.47159 4.42344 7.2673 4.07313 8.07782 3.9691C8.17562 3.95686 8.24378 3.8406 8.24081 3.70139C8.23785 3.56219 8.13412 3.45357 8.02003 3.46734C7.56068 3.52547 7.11912 3.65397 6.6983 3.84519C6.27896 4.03641 5.88333 4.29494 5.54253 4.61619C5.20024 4.93744 4.91278 5.31988 4.692 5.7375C4.47122 6.15513 4.31563 6.60335 4.21487 7.05922C4.11263 7.51661 4.06373 7.98013 4.05188 8.44212C4.04891 8.55838 4.04743 8.67311 4.04891 8.78784L4.05188 9.12286L4.0504 9.79289C4.04299 10.6878 4.00891 11.5797 4.00002 12.4853C4.00002 12.7132 3.99854 12.9411 4.02224 13.1844C4.04447 13.42 4.08596 13.6555 4.14819 13.8881C4.27414 14.3516 4.4964 14.7998 4.82091 15.1623C5.14097 15.5249 5.54994 15.7957 5.98113 15.9716Z" />
<path d="M5.98113 15.9716C6.4138 16.149 6.86871 16.2424 7.32509 16.273C7.44066 16.2806 7.55179 16.2852 7.66885 16.2837C7.77702 16.2791 7.88519 16.2806 8.00373 16.276C8.23637 16.2638 8.47049 16.2301 8.69868 16.1659C9.15654 16.042 9.5907 15.7895 9.92557 15.4362C10.2634 15.0859 10.5005 14.6499 10.6502 14.1971C10.8013 13.7427 10.8709 13.2716 10.8872 12.8019C10.8917 12.6872 10.7805 12.5939 10.6457 12.5954C10.5109 12.5954 10.4012 12.6811 10.3983 12.7851C10.3834 13.2134 10.3197 13.6372 10.1878 14.0334C10.056 14.4281 9.85445 14.7937 9.57884 15.0813C9.30324 15.3704 8.95502 15.5739 8.57273 15.6779C8.38158 15.7314 8.18303 15.7605 7.98151 15.7712C7.88371 15.7758 7.77258 15.7758 7.66441 15.7788C7.56513 15.7804 7.45992 15.7758 7.35768 15.7697C6.94575 15.7421 6.53827 15.658 6.16338 15.5035C5.7885 15.3505 5.44769 15.1226 5.18246 14.8212C4.91574 14.5214 4.72904 14.1512 4.62088 13.7519C4.56605 13.5515 4.53049 13.345 4.50974 13.1339C4.489 12.9304 4.49048 12.7086 4.49048 12.4883C4.49789 11.5995 4.53345 10.6985 4.54086 9.79748L4.54234 9.12133L4.53938 8.78325C4.53789 8.67464 4.53937 8.56603 4.54234 8.45742C4.55419 8.02296 4.60013 7.59157 4.69348 7.17242C4.87426 6.33717 5.26544 5.55393 5.87148 4.98945C6.47159 4.42344 7.2673 4.07313 8.07782 3.9691C8.17562 3.95686 8.24378 3.8406 8.24081 3.70139C8.23785 3.56219 8.13412 3.45357 8.02003 3.46734C7.56068 3.52547 7.11912 3.65397 6.6983 3.84519C6.27896 4.03641 5.88333 4.29494 5.54253 4.61619C5.20024 4.93744 4.91278 5.31988 4.692 5.7375C4.47122 6.15513 4.31563 6.60335 4.21487 7.05922C4.11263 7.51661 4.06373 7.98013 4.05188 8.44212C4.04891 8.55838 4.04743 8.67311 4.04891 8.78784L4.05188 9.12286L4.0504 9.79289C4.04299 10.6878 4.00891 11.5797 4.00002 12.4853C4.00002 12.7132 3.99854 12.9411 4.02224 13.1844C4.04447 13.42 4.08596 13.6555 4.14819 13.8881C4.27414 14.3516 4.4964 14.7998 4.82091 15.1623C5.14097 15.5249 5.54994 15.7957 5.98113 15.9716Z" />
<path d="M13.2595 14.9849C13.1365 14.9528 13.0032 14.9329 12.8639 14.9421C12.7246 14.9512 12.5824 14.9925 12.4594 15.0583C12.2104 15.1945 12.0489 15.3933 11.9096 15.5754C11.7704 15.762 11.6518 15.9486 11.5303 16.1276C11.2903 16.4856 11.0384 16.8175 10.7346 17.0898C10.4338 17.3621 10.0856 17.5748 9.70924 17.7201C9.52105 17.7951 9.32694 17.8486 9.12246 17.8991C8.91946 17.9496 8.71498 17.9909 8.51049 18.0245C8.10153 18.0903 7.68811 18.1163 7.28063 18.0903C6.87315 18.0628 6.47307 17.9802 6.09818 17.8302C5.7233 17.6803 5.37805 17.4631 5.07281 17.1893C5.03576 17.1572 4.93204 17.2122 4.84165 17.3162C4.75127 17.4203 4.71126 17.535 4.75423 17.5717C5.09652 17.8777 5.49511 18.1301 5.92186 18.2999C6.34861 18.4712 6.79906 18.5645 7.24951 18.5936C7.69997 18.6242 8.14746 18.5936 8.58754 18.5232C8.80684 18.488 9.02466 18.4437 9.23803 18.3901C9.44992 18.3381 9.67219 18.2754 9.88408 18.1913C10.3108 18.0261 10.7153 17.7813 11.0591 17.4692C11.4058 17.1587 11.6874 16.7854 11.9348 16.4167C12.0593 16.2332 12.1778 16.0481 12.2993 15.8844C12.4223 15.7207 12.5527 15.5769 12.6876 15.5065C12.8209 15.4346 12.9676 15.427 13.141 15.4729C13.3114 15.5188 13.4907 15.609 13.6626 15.7161C13.7041 15.7421 13.7974 15.6687 13.8685 15.5509C13.9411 15.4331 13.9619 15.3123 13.913 15.2832C13.713 15.1639 13.504 15.0522 13.2595 14.9849Z" />
<path d="M13.2595 14.9849C13.1365 14.9528 13.0032 14.9329 12.8639 14.9421C12.7246 14.9512 12.5824 14.9925 12.4594 15.0583C12.2104 15.1945 12.0489 15.3933 11.9096 15.5754C11.7704 15.762 11.6518 15.9486 11.5303 16.1276C11.2903 16.4856 11.0384 16.8175 10.7346 17.0898C10.4338 17.3621 10.0856 17.5748 9.70924 17.7201C9.52105 17.7951 9.32694 17.8486 9.12246 17.8991C8.91946 17.9496 8.71498 17.9909 8.51049 18.0245C8.10153 18.0903 7.68811 18.1163 7.28063 18.0903C6.87315 18.0628 6.47307 17.9802 6.09818 17.8302C5.7233 17.6803 5.37805 17.4631 5.07281 17.1893C5.03576 17.1572 4.93204 17.2122 4.84165 17.3162C4.75127 17.4203 4.71126 17.535 4.75423 17.5717C5.09652 17.8777 5.49511 18.1301 5.92186 18.2999C6.34861 18.4712 6.79906 18.5645 7.24951 18.5936C7.69997 18.6242 8.14746 18.5936 8.58754 18.5232C8.80684 18.488 9.02466 18.4437 9.23803 18.3901C9.44992 18.3381 9.67219 18.2754 9.88408 18.1913C10.3108 18.0261 10.7153 17.7813 11.0591 17.4692C11.4058 17.1587 11.6874 16.7854 11.9348 16.4167C12.0593 16.2332 12.1778 16.0481 12.2993 15.8844C12.4223 15.7207 12.5527 15.5769 12.6876 15.5065C12.8209 15.4346 12.9676 15.427 13.141 15.4729C13.3114 15.5188 13.4907 15.609 13.6626 15.7161C13.7041 15.7421 13.7974 15.6687 13.8685 15.5509C13.9411 15.4331 13.9619 15.3123 13.913 15.2832C13.713 15.1639 13.504 15.0522 13.2595 14.9849Z" />
<path d="M13.9886 11.9346C13.9797 11.393 13.956 10.8469 13.95 10.3145C13.9382 9.23912 13.9663 8.13769 13.7707 7.03321C13.7204 6.75785 13.6552 6.4825 13.5648 6.21173C13.4759 5.94249 13.3544 5.67172 13.2106 5.43002C12.9128 4.92367 12.4875 4.52594 12.0237 4.21845C11.5585 3.90944 11.0502 3.68457 10.5212 3.53618C9.99225 3.38932 9.44104 3.3159 8.88241 3.3572C8.81425 3.36179 8.7698 3.48111 8.78462 3.62032C8.79943 3.75953 8.85871 3.86661 8.91798 3.86202C9.40696 3.82531 9.90927 3.89109 10.3923 4.0257C10.8739 4.16185 11.3407 4.36837 11.757 4.64526C12.1734 4.92214 12.5424 5.27246 12.7898 5.69467C13.0476 6.12453 13.1943 6.61558 13.2877 7.12958C13.4714 8.16064 13.4477 9.23759 13.4581 10.3222C13.464 10.8714 13.4877 11.4068 13.4966 11.9483C13.507 12.4868 13.5159 13.0268 13.4966 13.5561C13.4937 13.6203 13.6003 13.6785 13.7352 13.6861C13.87 13.6938 13.9826 13.6448 13.9856 13.5775C14.0093 13.0207 13.9989 12.4791 13.9886 11.9346Z" />
<path d="M13.9886 11.9346C13.9797 11.393 13.956 10.8469 13.95 10.3145C13.9382 9.23912 13.9663 8.13769 13.7707 7.03321C13.7204 6.75785 13.6552 6.4825 13.5648 6.21173C13.4759 5.94249 13.3544 5.67172 13.2106 5.43002C12.9128 4.92367 12.4875 4.52594 12.0237 4.21845C11.5585 3.90944 11.0502 3.68457 10.5212 3.53618C9.99225 3.38932 9.44104 3.3159 8.88241 3.3572C8.81425 3.36179 8.7698 3.48111 8.78462 3.62032C8.79943 3.75953 8.85871 3.86661 8.91798 3.86202C9.40696 3.82531 9.90927 3.89109 10.3923 4.0257C10.8739 4.16185 11.3407 4.36837 11.757 4.64526C12.1734 4.92214 12.5424 5.27246 12.7898 5.69467C13.0476 6.12453 13.1943 6.61558 13.2877 7.12958C13.4714 8.16064 13.4477 9.23759 13.4581 10.3222C13.464 10.8714 13.4877 11.4068 13.4966 11.9483C13.507 12.4868 13.5159 13.0268 13.4966 13.5561C13.4937 13.6203 13.6003 13.6785 13.7352 13.6861C13.87 13.6938 13.9826 13.6448 13.9856 13.5775C14.0093 13.0207 13.9989 12.4791 13.9886 11.9346Z" />
<path d="M4.39713 4.61466C4.50233 4.70339 4.61198 4.74316 4.6431 4.70339C5.16023 4.06395 5.76035 3.49335 6.45233 3.09561C6.79758 2.89674 7.16505 2.74377 7.54587 2.64433C7.92668 2.5449 8.32083 2.50206 8.71794 2.50665C9.10764 2.51736 9.51809 2.56631 9.91075 2.64433C10.3064 2.72235 10.6961 2.83096 11.0695 2.97476C11.4429 3.12009 11.8 3.30213 12.1201 3.53159C12.4401 3.76105 12.7202 4.041 12.9217 4.3699C12.9454 4.40967 13.0595 4.3852 13.1766 4.31483C13.2936 4.24446 13.3647 4.14655 13.3351 4.0976C13.0906 3.7014 12.7617 3.37556 12.4001 3.11703C12.0386 2.85697 11.6444 2.6581 11.2414 2.50053C10.8369 2.3445 10.422 2.22824 10.0026 2.14563C9.58032 2.06455 9.16247 2.01101 8.72238 2.0003C8.28971 1.99571 7.85111 2.04314 7.42584 2.15328C7.00058 2.26342 6.5931 2.43322 6.21228 2.65198C5.45066 3.08949 4.81054 3.70445 4.26525 4.37755C4.23413 4.42191 4.29192 4.52746 4.39713 4.61466Z" />
<path d="M4.39713 4.61466C4.50233 4.70339 4.61198 4.74316 4.6431 4.70339C5.16023 4.06395 5.76035 3.49335 6.45233 3.09561C6.79758 2.89674 7.16505 2.74377 7.54587 2.64433C7.92668 2.5449 8.32083 2.50206 8.71794 2.50665C9.10764 2.51736 9.51809 2.56631 9.91075 2.64433C10.3064 2.72235 10.6961 2.83096 11.0695 2.97476C11.4429 3.12009 11.8 3.30213 12.1201 3.53159C12.4401 3.76105 12.7202 4.041 12.9217 4.3699C12.9454 4.40967 13.0595 4.3852 13.1766 4.31483C13.2936 4.24446 13.3647 4.14655 13.3351 4.0976C13.0906 3.7014 12.7617 3.37556 12.4001 3.11703C12.0386 2.85697 11.6444 2.6581 11.2414 2.50053C10.8369 2.3445 10.422 2.22824 10.0026 2.14563C9.58032 2.06455 9.16247 2.01101 8.72238 2.0003C8.28971 1.99571 7.85111 2.04314 7.42584 2.15328C7.00058 2.26342 6.5931 2.43322 6.21228 2.65198C5.45066 3.08949 4.81054 3.70445 4.26525 4.37755C4.23413 4.42191 4.29192 4.52746 4.39713 4.61466Z" />
<path d="M13.5011 16.3709C13.3736 16.3403 13.2373 16.3403 13.1143 16.3663C12.8654 16.4198 12.6713 16.5514 12.5038 16.6875C12.1749 16.9659 11.9334 17.2964 11.6992 17.6084C11.6414 17.6864 11.5837 17.7629 11.5274 17.8333C11.4992 17.867 11.471 17.9006 11.4488 17.9236L11.351 18.0138C11.2132 18.1393 11.071 18.2586 10.9228 18.3672C10.6279 18.5875 10.3108 18.768 9.97299 18.9041C9.63515 19.0418 9.27804 19.1351 8.9076 19.2254C8.71794 19.2713 8.54457 19.3141 8.3638 19.3447C8.1845 19.3753 8.00225 19.3967 7.82147 19.4059C7.45992 19.4243 7.09837 19.3982 6.75757 19.3095C6.41676 19.2208 6.09967 19.0632 5.83888 18.8353C5.80776 18.8078 5.70848 18.8674 5.61661 18.9699C5.52474 19.0724 5.48177 19.1856 5.52178 19.2208C5.84481 19.5053 6.23599 19.695 6.63459 19.799C7.03466 19.9046 7.44362 19.9321 7.84518 19.9107C8.04522 19.9 8.24526 19.8771 8.44233 19.8434C8.6394 19.8113 8.83796 19.7623 9.02022 19.718C9.39214 19.6277 9.77888 19.5283 10.1523 19.3753C10.5272 19.2239 10.8843 19.0204 11.2073 18.7787C11.3703 18.6578 11.5244 18.5293 11.674 18.3932L11.7289 18.3427L11.7881 18.2861C11.8326 18.2402 11.8682 18.1989 11.9008 18.1576C11.9674 18.075 12.0252 17.9955 12.0845 17.9174C12.3157 17.6069 12.5438 17.304 12.8076 17.0822C12.938 16.9736 13.0788 16.8894 13.2062 16.8634C13.3336 16.8374 13.4447 16.865 13.5633 16.9476C13.59 16.9659 13.6818 16.8986 13.7693 16.7915C13.8552 16.686 13.8908 16.5667 13.8404 16.5315C13.7455 16.4596 13.6285 16.4015 13.5011 16.3709Z" />
<path d="M13.5011 16.3709C13.3736 16.3403 13.2373 16.3403 13.1143 16.3663C12.8654 16.4198 12.6713 16.5514 12.5038 16.6875C12.1749 16.9659 11.9334 17.2964 11.6992 17.6084C11.6414 17.6864 11.5837 17.7629 11.5274 17.8333C11.4992 17.867 11.471 17.9006 11.4488 17.9236L11.351 18.0138C11.2132 18.1393 11.071 18.2586 10.9228 18.3672C10.6279 18.5875 10.3108 18.768 9.97299 18.9041C9.63515 19.0418 9.27804 19.1351 8.9076 19.2254C8.71794 19.2713 8.54457 19.3141 8.3638 19.3447C8.1845 19.3753 8.00225 19.3967 7.82147 19.4059C7.45992 19.4243 7.09837 19.3982 6.75757 19.3095C6.41676 19.2208 6.09967 19.0632 5.83888 18.8353C5.80776 18.8078 5.70848 18.8674 5.61661 18.9699C5.52474 19.0724 5.48177 19.1856 5.52178 19.2208C5.84481 19.5053 6.23599 19.695 6.63459 19.799C7.03466 19.9046 7.44362 19.9321 7.84518 19.9107C8.04522 19.9 8.24526 19.8771 8.44233 19.8434C8.6394 19.8113 8.83796 19.7623 9.02022 19.718C9.39214 19.6277 9.77888 19.5283 10.1523 19.3753C10.5272 19.2239 10.8843 19.0204 11.2073 18.7787C11.3703 18.6578 11.5244 18.5293 11.674 18.3932L11.7289 18.3427L11.7881 18.2861C11.8326 18.2402 11.8682 18.1989 11.9008 18.1576C11.9674 18.075 12.0252 17.9955 12.0845 17.9174C12.3157 17.6069 12.5438 17.304 12.8076 17.0822C12.938 16.9736 13.0788 16.8894 13.2062 16.8634C13.3336 16.8374 13.4447 16.865 13.5633 16.9476C13.59 16.9659 13.6818 16.8986 13.7693 16.7915C13.8552 16.686 13.8908 16.5667 13.8404 16.5315C13.7455 16.4596 13.6285 16.4015 13.5011 16.3709Z" />
<path d="M13.2536 17.5105C13.0625 17.5457 12.8965 17.636 12.7602 17.7354C12.6224 17.8348 12.5068 17.9465 12.4001 18.049L12.3231 18.1224L12.2386 18.2004C12.1793 18.2586 12.126 18.3152 12.0741 18.3733C11.8696 18.5997 11.6815 18.8246 11.4829 19.0342C11.3851 19.1382 11.2843 19.2392 11.1836 19.3279C11.0843 19.4135 10.9717 19.4946 10.8991 19.5176C10.8932 19.5206 10.9124 19.6308 10.9406 19.7669C10.9687 19.9031 11.0176 20.0086 11.0443 19.9994C11.1495 19.9643 11.228 19.9168 11.3006 19.8679C11.3733 19.8189 11.437 19.7669 11.4977 19.7134C11.5614 19.6583 11.6222 19.6002 11.68 19.5436H11.6815C11.9289 19.3294 12.2104 19.207 12.5201 19.2101C12.6757 19.2086 12.8387 19.2346 13.0121 19.2682C13.1869 19.3003 13.3721 19.3462 13.59 19.3524C13.6033 19.3524 13.6152 19.2392 13.6137 19.0999C13.6137 18.9607 13.6063 18.8475 13.5974 18.8475C13.304 18.8414 12.9291 18.7022 12.5157 18.7068C12.4905 18.7068 12.4638 18.7099 12.4386 18.7114C12.4831 18.6624 12.529 18.6135 12.572 18.5722L12.6505 18.5003L12.7335 18.4207C12.8402 18.3182 12.9395 18.2234 13.0402 18.15C13.141 18.0765 13.2432 18.0261 13.3395 18.0092C13.4359 17.9909 13.5337 18.0031 13.6344 18.0459C13.6463 18.0505 13.6996 17.9511 13.7559 17.8241C13.8107 17.6972 13.8389 17.5855 13.8182 17.5763C13.6492 17.5029 13.4447 17.4723 13.2536 17.5105Z" />
<path d="M13.2536 17.5105C13.0625 17.5457 12.8965 17.636 12.7602 17.7354C12.6224 17.8348 12.5068 17.9465 12.4001 18.049L12.3231 18.1224L12.2386 18.2004C12.1793 18.2586 12.126 18.3152 12.0741 18.3733C11.8696 18.5997 11.6815 18.8246 11.4829 19.0342C11.3851 19.1382 11.2843 19.2392 11.1836 19.3279C11.0843 19.4135 10.9717 19.4946 10.8991 19.5176C10.8932 19.5206 10.9124 19.6308 10.9406 19.7669C10.9687 19.9031 11.0176 20.0086 11.0443 19.9994C11.1495 19.9643 11.228 19.9168 11.3006 19.8679C11.3733 19.8189 11.437 19.7669 11.4977 19.7134C11.5614 19.6583 11.6222 19.6002 11.68 19.5436H11.6815C11.9289 19.3294 12.2104 19.207 12.5201 19.2101C12.6757 19.2086 12.8387 19.2346 13.0121 19.2682C13.1869 19.3003 13.3721 19.3462 13.59 19.3524C13.6033 19.3524 13.6152 19.2392 13.6137 19.0999C13.6137 18.9607 13.6063 18.8475 13.5974 18.8475C13.304 18.8414 12.9291 18.7022 12.5157 18.7068C12.4905 18.7068 12.4638 18.7099 12.4386 18.7114C12.4831 18.6624 12.529 18.6135 12.572 18.5722L12.6505 18.5003L12.7335 18.4207C12.8402 18.3182 12.9395 18.2234 13.0402 18.15C13.141 18.0765 13.2432 18.0261 13.3395 18.0092C13.4359 17.9909 13.5337 18.0031 13.6344 18.0459C13.6463 18.0505 13.6996 17.9511 13.7559 17.8241C13.8107 17.6972 13.8389 17.5855 13.8182 17.5763C13.6492 17.5029 13.4447 17.4723 13.2536 17.5105Z" />
</svg>
