<svg width="29" height="50" viewBox="0 0 29 50" fill="white" xmlns="http://www.w3.org/2000/svg">
<path d="M28.6574 34.1145C27.841 33.7873 27.1449 33.1031 26.6808 32.2745C26.2081 31.4459 25.9288 30.477 25.7827 29.4827C25.7096 28.9855 25.6667 28.4756 25.6495 27.9657C25.6409 27.7107 25.6366 27.4515 25.6409 27.1965L25.6538 26.3977C25.6666 25.3226 25.6709 24.2518 25.6666 23.1809L25.6581 21.5747C25.6495 21.035 25.6581 20.5166 25.6237 19.9344C25.5549 18.8126 25.3401 17.6823 24.949 16.6072C24.5537 15.5321 23.9736 14.5081 23.2173 13.6284C22.461 12.7446 21.5328 12.0094 20.5101 11.457C19.4874 10.9089 18.3702 10.5434 17.2357 10.3522C16.6685 10.2587 16.0927 10.2077 15.5212 10.1907C15.2247 10.1865 14.9755 10.1865 14.6876 10.1907C14.3996 10.195 14.1117 10.2077 13.8238 10.2332C12.6765 10.3352 11.5249 10.6199 10.4635 11.1298C9.40641 11.6398 8.44386 12.3706 7.69187 13.28C6.93988 14.1894 6.39844 15.2729 6.13632 16.4245C6.07187 16.7134 6.0246 17.0024 5.99022 17.2999C5.96014 17.5888 5.95154 17.9033 5.95154 18.1667L5.82263 26.1512C5.75817 27.0606 5.76677 28.0124 5.87849 28.9558C5.93436 29.4274 6.02029 29.9076 6.1578 30.3835C6.29961 30.8637 6.48438 31.3481 6.80237 31.8113C6.96136 32.045 7.15044 32.2617 7.39967 32.4615C7.6489 32.6569 7.90673 32.7887 8.16455 32.8949C8.6845 33.1031 9.21734 33.1923 9.75878 33.1966C10.2959 33.2008 10.8416 33.1074 11.353 32.9034C11.8644 32.7037 12.3413 32.3892 12.7238 31.994C13.0031 31.7051 12.9043 31.2674 12.5734 31.0634C12.2425 30.8552 11.8644 30.8552 11.6968 31.0209C11.2112 31.5309 10.5065 31.7986 9.76308 31.7943C9.39782 31.7943 9.01967 31.7263 8.69739 31.5946C8.35792 31.4544 8.17745 31.3099 7.97548 31.0209C7.58444 30.4473 7.38678 29.6144 7.28794 28.79C7.18911 27.9487 7.17621 27.0988 7.24067 26.2235L7.36959 18.1837C7.37389 17.9118 7.37818 17.6908 7.40396 17.4486C7.42974 17.2106 7.46842 16.9727 7.51999 16.7389C7.73055 15.8041 8.17314 14.9202 8.78763 14.1724C9.40211 13.4245 10.1928 12.8211 11.078 12.3961C11.9632 11.9712 12.9429 11.7247 13.9441 11.6355C14.1934 11.6143 14.4469 11.6015 14.7004 11.5973H15.4868C15.9939 11.61 16.5009 11.6525 16.9951 11.7375C17.9877 11.9032 18.9546 12.2219 19.8312 12.6893C20.7078 13.161 21.4942 13.7857 22.1301 14.5335C22.7747 15.2814 23.2689 16.1525 23.6126 17.0831C23.9521 18.018 24.1455 19.0123 24.2056 20.0194C24.2357 20.5081 24.2314 21.0563 24.24 21.5874L24.2486 23.1852C24.2529 24.2518 24.2486 25.3141 24.2357 26.3807L24.2228 27.1838C24.2185 27.46 24.2228 27.7405 24.2314 28.0167C24.2486 28.5733 24.2959 29.1342 24.3775 29.6909C24.5451 30.8042 24.8545 31.9345 25.4432 32.9714C26.0276 33.9997 26.93 34.9388 28.1246 35.419C28.4855 35.5677 28.8981 35.3213 28.9453 34.9346C28.9883 34.5436 28.8895 34.2079 28.6574 34.1145Z" />
<path d="M28.6574 34.1145C27.841 33.7873 27.1449 33.1031 26.6808 32.2745C26.2081 31.4459 25.9288 30.477 25.7827 29.4827C25.7096 28.9855 25.6667 28.4756 25.6495 27.9657C25.6409 27.7107 25.6366 27.4515 25.6409 27.1965L25.6538 26.3977C25.6666 25.3226 25.6709 24.2518 25.6666 23.1809L25.6581 21.5747C25.6495 21.035 25.6581 20.5166 25.6237 19.9344C25.5549 18.8126 25.3401 17.6823 24.949 16.6072C24.5537 15.5321 23.9736 14.5081 23.2173 13.6284C22.461 12.7446 21.5328 12.0094 20.5101 11.457C19.4874 10.9089 18.3702 10.5434 17.2357 10.3522C16.6685 10.2587 16.0927 10.2077 15.5212 10.1907C15.2247 10.1865 14.9755 10.1865 14.6876 10.1907C14.3996 10.195 14.1117 10.2077 13.8238 10.2332C12.6765 10.3352 11.5249 10.6199 10.4635 11.1298C9.40641 11.6398 8.44386 12.3706 7.69187 13.28C6.93988 14.1894 6.39844 15.2729 6.13632 16.4245C6.07187 16.7134 6.0246 17.0024 5.99022 17.2999C5.96014 17.5888 5.95154 17.9033 5.95154 18.1667L5.82263 26.1512C5.75817 27.0606 5.76677 28.0124 5.87849 28.9558C5.93436 29.4274 6.02029 29.9076 6.1578 30.3835C6.29961 30.8637 6.48438 31.3481 6.80237 31.8113C6.96136 32.045 7.15044 32.2617 7.39967 32.4615C7.6489 32.6569 7.90673 32.7887 8.16455 32.8949C8.6845 33.1031 9.21734 33.1923 9.75878 33.1966C10.2959 33.2008 10.8416 33.1074 11.353 32.9034C11.8644 32.7037 12.3413 32.3892 12.7238 31.994C13.0031 31.7051 12.9043 31.2674 12.5734 31.0634C12.2425 30.8552 11.8644 30.8552 11.6968 31.0209C11.2112 31.5309 10.5065 31.7986 9.76308 31.7943C9.39782 31.7943 9.01967 31.7263 8.69739 31.5946C8.35792 31.4544 8.17745 31.3099 7.97548 31.0209C7.58444 30.4473 7.38678 29.6144 7.28794 28.79C7.18911 27.9487 7.17621 27.0988 7.24067 26.2235L7.36959 18.1837C7.37389 17.9118 7.37818 17.6908 7.40396 17.4486C7.42974 17.2106 7.46842 16.9727 7.51999 16.7389C7.73055 15.8041 8.17314 14.9202 8.78763 14.1724C9.40211 13.4245 10.1928 12.8211 11.078 12.3961C11.9632 11.9712 12.9429 11.7247 13.9441 11.6355C14.1934 11.6143 14.4469 11.6015 14.7004 11.5973H15.4868C15.9939 11.61 16.5009 11.6525 16.9951 11.7375C17.9877 11.9032 18.9546 12.2219 19.8312 12.6893C20.7078 13.161 21.4942 13.7857 22.1301 14.5335C22.7747 15.2814 23.2689 16.1525 23.6126 17.0831C23.9521 18.018 24.1455 19.0123 24.2056 20.0194C24.2357 20.5081 24.2314 21.0563 24.24 21.5874L24.2486 23.1852C24.2529 24.2518 24.2486 25.3141 24.2357 26.3807L24.2228 27.1838C24.2185 27.46 24.2228 27.7405 24.2314 28.0167C24.2486 28.5733 24.2959 29.1342 24.3775 29.6909C24.5451 30.8042 24.8545 31.9345 25.4432 32.9714C26.0276 33.9997 26.93 34.9388 28.1246 35.419C28.4855 35.5677 28.8981 35.3213 28.9453 34.9346C28.9883 34.5436 28.8895 34.2079 28.6574 34.1145Z" fill="url(#paint0_linear_369_479)"/>
<path d="M12.8785 29.9671C13.2695 29.9714 13.5918 29.8651 13.5918 29.7292L13.6305 26.3679C13.6391 25.2461 13.6133 24.1243 13.6047 23.0025L13.5875 21.3367C13.5918 20.8013 13.6219 20.2701 13.6992 19.773C13.7809 19.2758 13.9184 18.8041 14.1418 18.4727C14.361 18.1412 14.6403 17.9713 15.0743 17.8778C15.2891 17.831 15.5341 17.814 15.7919 17.8055L15.9896 17.8013H16.0497L16.1056 17.8055C16.1915 17.8183 16.2904 17.8395 16.3806 17.8735C16.763 18.001 17.1197 18.273 17.4033 18.6257C17.9791 19.3438 18.2842 20.3636 18.4346 21.392C18.5077 21.9104 18.5506 22.4416 18.5592 22.9812C18.5635 23.2447 18.5635 23.5209 18.5635 23.8056V27.9997C18.5635 28.1357 18.8815 28.2461 19.2725 28.2461C19.6636 28.2461 19.9816 28.1357 19.9816 27.9997V23.8056C19.9816 23.5294 19.9816 23.2447 19.9773 22.9515C19.9644 22.3693 19.9214 21.7829 19.8398 21.1965C19.7538 20.6101 19.6249 20.0194 19.4187 19.433C19.2124 18.8509 18.9288 18.273 18.512 17.7503C18.0951 17.2319 17.5279 16.7772 16.8361 16.5435C16.6642 16.484 16.4837 16.4415 16.2904 16.416C16.2431 16.4075 16.1915 16.4033 16.1357 16.399L16.0411 16.3948H15.981L15.7532 16.399C15.4438 16.4075 15.1216 16.4288 14.7821 16.501C14.4469 16.569 14.086 16.6922 13.7594 16.9047C13.4328 17.1129 13.1535 17.3976 12.9558 17.6993C12.5562 18.3112 12.4015 18.9486 12.2984 19.5478C12.1995 20.1512 12.1694 20.7461 12.1651 21.3282L12.1823 23.0195C12.1909 24.137 12.2167 25.2504 12.2081 26.3637L12.1694 29.7122C12.1694 29.8481 12.4874 29.9629 12.8785 29.9671Z" />
<path d="M12.8785 29.9671C13.2695 29.9714 13.5918 29.8651 13.5918 29.7292L13.6305 26.3679C13.6391 25.2461 13.6133 24.1243 13.6047 23.0025L13.5875 21.3367C13.5918 20.8013 13.6219 20.2701 13.6992 19.773C13.7809 19.2758 13.9184 18.8041 14.1418 18.4727C14.361 18.1412 14.6403 17.9713 15.0743 17.8778C15.2891 17.831 15.5341 17.814 15.7919 17.8055L15.9896 17.8013H16.0497L16.1056 17.8055C16.1915 17.8183 16.2904 17.8395 16.3806 17.8735C16.763 18.001 17.1197 18.273 17.4033 18.6257C17.9791 19.3438 18.2842 20.3636 18.4346 21.392C18.5077 21.9104 18.5506 22.4416 18.5592 22.9812C18.5635 23.2447 18.5635 23.5209 18.5635 23.8056V27.9997C18.5635 28.1357 18.8815 28.2461 19.2725 28.2461C19.6636 28.2461 19.9816 28.1357 19.9816 27.9997V23.8056C19.9816 23.5294 19.9816 23.2447 19.9773 22.9515C19.9644 22.3693 19.9214 21.7829 19.8398 21.1965C19.7538 20.6101 19.6249 20.0194 19.4187 19.433C19.2124 18.8509 18.9288 18.273 18.512 17.7503C18.0951 17.2319 17.5279 16.7772 16.8361 16.5435C16.6642 16.484 16.4837 16.4415 16.2904 16.416C16.2431 16.4075 16.1915 16.4033 16.1357 16.399L16.0411 16.3948H15.981L15.7532 16.399C15.4438 16.4075 15.1216 16.4288 14.7821 16.501C14.4469 16.569 14.086 16.6922 13.7594 16.9047C13.4328 17.1129 13.1535 17.3976 12.9558 17.6993C12.5562 18.3112 12.4015 18.9486 12.2984 19.5478C12.1995 20.1512 12.1694 20.7461 12.1651 21.3282L12.1823 23.0195C12.1909 24.137 12.2167 25.2504 12.2081 26.3637L12.1694 29.7122C12.1694 29.8481 12.4874 29.9629 12.8785 29.9671Z" fill="url(#paint1_linear_369_479)"/>
<path d="M4.46903 20.1682L4.49912 18.0817L4.50771 17.0407C4.512 16.7177 4.53349 16.399 4.57216 16.0803C4.72686 14.8055 5.18665 13.5817 5.91716 12.5236C6.64337 11.4613 7.62311 10.5689 8.74036 9.88054C10.9791 8.508 13.7379 7.94709 16.3677 8.24879C17.6826 8.39752 18.9718 8.77146 20.1449 9.36212C21.318 9.94852 22.3708 10.7601 23.2345 11.7417C23.445 11.9797 23.8533 11.9882 24.167 11.7545C24.4763 11.5208 24.5494 11.0958 24.3045 10.8196C23.3247 9.70632 22.1215 8.77996 20.7894 8.11281C19.4573 7.44142 18.0049 7.02499 16.5353 6.85926C13.5918 6.52781 10.5408 7.13972 7.99265 8.69497C6.72501 9.4726 5.59057 10.5009 4.74404 11.7417C3.89322 12.9783 3.34749 14.4316 3.16701 15.9146C3.11974 16.2843 3.09826 16.6582 3.08967 17.0279L3.08107 18.0732L3.05098 20.1512L2.96934 24.3155C2.94785 25.7093 2.94356 27.1116 2.97794 28.5096C2.99083 28.8283 2.97794 29.2107 3.00372 29.5762C3.02521 29.9459 3.06388 30.3156 3.12404 30.6853C3.24866 31.4246 3.45492 32.1598 3.79439 32.8609C4.12956 33.5578 4.59795 34.2122 5.17805 34.7476C5.75816 35.2873 6.4371 35.7037 7.15901 36.0012C7.87663 36.2944 8.63292 36.4728 9.38921 36.5578C9.76735 36.6003 10.1498 36.6173 10.5365 36.6088L10.6869 36.6046L10.8115 36.5961L11.0694 36.5918C11.2627 36.5876 11.4561 36.5748 11.6495 36.5493C12.423 36.4643 13.2265 36.2391 13.9313 35.8057C14.6403 35.3765 15.2118 34.7519 15.6071 34.0677C16.0068 33.3836 16.256 32.6527 16.4236 31.9303C16.5912 31.2037 16.6814 30.4813 16.733 29.7631C16.7845 29.0493 16.7931 28.3226 16.7888 27.6342V21.3877C16.7888 21.0478 16.4708 20.7716 16.0798 20.7716C15.6888 20.7716 15.3708 21.0478 15.3708 21.3877V27.6342C15.3751 28.3311 15.3665 28.9983 15.3192 29.6697C15.2247 30.9955 14.9926 32.3212 14.3825 33.3666C14.0774 33.885 13.6777 34.3142 13.1879 34.6159C12.698 34.9176 12.1136 35.0918 11.4948 35.1555C11.3401 35.1725 11.1854 35.1853 11.0264 35.1895L10.7557 35.1938L10.6182 35.2023L10.5022 35.2065C10.1885 35.215 9.8662 35.198 9.54821 35.164C8.91224 35.0918 8.28486 34.9431 7.70475 34.7051C6.54024 34.2377 5.60776 33.3751 5.07922 32.2575C4.8085 31.7008 4.63232 31.0889 4.52919 30.46C4.47762 30.1456 4.44325 29.8226 4.42176 29.4997C4.39598 29.1725 4.40887 28.858 4.39598 28.4841C4.3616 27.1031 4.3659 25.7305 4.38739 24.3452L4.46903 20.1682Z" />
<path d="M4.46903 20.1682L4.49912 18.0817L4.50771 17.0407C4.512 16.7177 4.53349 16.399 4.57216 16.0803C4.72686 14.8055 5.18665 13.5817 5.91716 12.5236C6.64337 11.4613 7.62311 10.5689 8.74036 9.88054C10.9791 8.508 13.7379 7.94709 16.3677 8.24879C17.6826 8.39752 18.9718 8.77146 20.1449 9.36212C21.318 9.94852 22.3708 10.7601 23.2345 11.7417C23.445 11.9797 23.8533 11.9882 24.167 11.7545C24.4763 11.5208 24.5494 11.0958 24.3045 10.8196C23.3247 9.70632 22.1215 8.77996 20.7894 8.11281C19.4573 7.44142 18.0049 7.02499 16.5353 6.85926C13.5918 6.52781 10.5408 7.13972 7.99265 8.69497C6.72501 9.4726 5.59057 10.5009 4.74404 11.7417C3.89322 12.9783 3.34749 14.4316 3.16701 15.9146C3.11974 16.2843 3.09826 16.6582 3.08967 17.0279L3.08107 18.0732L3.05098 20.1512L2.96934 24.3155C2.94785 25.7093 2.94356 27.1116 2.97794 28.5096C2.99083 28.8283 2.97794 29.2107 3.00372 29.5762C3.02521 29.9459 3.06388 30.3156 3.12404 30.6853C3.24866 31.4246 3.45492 32.1598 3.79439 32.8609C4.12956 33.5578 4.59795 34.2122 5.17805 34.7476C5.75816 35.2873 6.4371 35.7037 7.15901 36.0012C7.87663 36.2944 8.63292 36.4728 9.38921 36.5578C9.76735 36.6003 10.1498 36.6173 10.5365 36.6088L10.6869 36.6046L10.8115 36.5961L11.0694 36.5918C11.2627 36.5876 11.4561 36.5748 11.6495 36.5493C12.423 36.4643 13.2265 36.2391 13.9313 35.8057C14.6403 35.3765 15.2118 34.7519 15.6071 34.0677C16.0068 33.3836 16.256 32.6527 16.4236 31.9303C16.5912 31.2037 16.6814 30.4813 16.733 29.7631C16.7845 29.0493 16.7931 28.3226 16.7888 27.6342V21.3877C16.7888 21.0478 16.4708 20.7716 16.0798 20.7716C15.6888 20.7716 15.3708 21.0478 15.3708 21.3877V27.6342C15.3751 28.3311 15.3665 28.9983 15.3192 29.6697C15.2247 30.9955 14.9926 32.3212 14.3825 33.3666C14.0774 33.885 13.6777 34.3142 13.1879 34.6159C12.698 34.9176 12.1136 35.0918 11.4948 35.1555C11.3401 35.1725 11.1854 35.1853 11.0264 35.1895L10.7557 35.1938L10.6182 35.2023L10.5022 35.2065C10.1885 35.215 9.8662 35.198 9.54821 35.164C8.91224 35.0918 8.28486 34.9431 7.70475 34.7051C6.54024 34.2377 5.60776 33.3751 5.07922 32.2575C4.8085 31.7008 4.63232 31.0889 4.52919 30.46C4.47762 30.1456 4.44325 29.8226 4.42176 29.4997C4.39598 29.1725 4.40887 28.858 4.39598 28.4841C4.3616 27.1031 4.3659 25.7305 4.38739 24.3452L4.46903 20.1682Z" fill="url(#paint2_linear_369_479)"/>
<path d="M9.33764 42.9616C10.803 43.0635 12.3112 43.0338 13.7937 42.7236C15.2719 42.4219 16.7158 41.844 17.9705 40.9729C19.2253 40.106 20.2738 38.9587 21.0516 37.6711C21.8336 36.3836 22.3579 34.9686 22.663 33.5196C22.8177 32.7972 22.9165 32.062 22.9638 31.3269L22.9681 31.2547C22.9681 31.2377 22.9724 31.2164 22.9724 31.1952V30.7617L23.0196 24.9402C23.0239 23.5336 23.0712 22.1186 22.9724 20.6568C22.9208 19.9302 22.8392 19.1866 22.6415 18.4344C22.4524 17.6866 22.1043 16.9217 21.6059 16.2885C21.3609 15.9698 21.0945 15.6851 20.8195 15.4259C20.682 15.2942 20.5445 15.1709 20.4027 15.0477C20.2437 14.9075 20.0718 14.78 19.8999 14.6695C19.2124 14.2233 18.4819 13.9386 17.7299 13.7432C16.2345 13.3565 14.6274 13.3352 13.1105 13.8112C12.3542 14.0491 11.6366 14.4188 11.0092 14.9075C10.9276 14.967 10.8545 15.0307 10.7772 15.0945C10.6955 15.1625 10.6096 15.2432 10.5322 15.3197C10.3775 15.4769 10.24 15.6469 10.1197 15.8211C9.87908 16.1695 9.69861 16.5392 9.5568 16.9047C9.27319 17.6398 9.1228 18.3792 9.01107 19.1058C8.90365 19.8325 8.84348 20.5548 8.80051 21.273C8.65441 24.1413 8.74894 26.9628 8.77042 29.7801C8.77472 30.1243 9.09271 30.4005 9.48805 30.3963C9.87908 30.392 10.1971 30.1116 10.1928 29.7631C10.1713 26.9416 10.081 24.1158 10.2228 21.3495C10.2615 20.6611 10.3217 19.9727 10.4205 19.3055C10.5194 18.6384 10.6612 17.9883 10.8846 17.4018C10.9963 17.1129 11.1338 16.8409 11.2928 16.6072C11.3745 16.4925 11.4604 16.3863 11.555 16.2885C11.6022 16.2418 11.6495 16.1993 11.7011 16.1525C11.7612 16.1015 11.8214 16.0506 11.8858 16.0038C12.38 15.6214 12.9429 15.3282 13.5488 15.137C14.7563 14.7545 16.1142 14.763 17.3732 15.0902C18.0006 15.2517 18.6108 15.4981 19.1179 15.8296C19.2425 15.9146 19.3585 15.9953 19.4659 16.0931C19.5948 16.2035 19.7151 16.3183 19.8355 16.4288C20.0718 16.6582 20.291 16.8877 20.48 17.1341C20.8582 17.6186 21.1074 18.1667 21.2707 18.7829C21.434 19.399 21.5113 20.0662 21.5586 20.7461C21.6488 22.1016 21.6059 23.5081 21.6016 24.9232L21.5672 29.1555L21.5457 31.2292C21.5027 31.9006 21.4125 32.5677 21.2707 33.2263C20.9914 34.5394 20.5187 35.8099 19.8312 36.9403C19.1436 38.0748 18.2369 39.0649 17.1541 39.8128C16.0712 40.5649 14.8165 41.0706 13.5015 41.3383C12.1866 41.6145 10.8116 41.6443 9.43648 41.5508C8.07 41.453 6.72071 41.2023 5.47025 40.7222C4.22839 40.2505 3.05959 39.5366 2.24314 38.589C2.04977 38.3638 1.67162 38.3553 1.32785 38.538C0.979786 38.725 0.898144 39.1967 1.15597 39.4941C2.20017 40.6967 3.54945 41.4913 4.9589 42.0352C6.37694 42.5834 7.86374 42.8553 9.33764 42.9616Z" />
<path d="M9.33764 42.9616C10.803 43.0635 12.3112 43.0338 13.7937 42.7236C15.2719 42.4219 16.7158 41.844 17.9705 40.9729C19.2253 40.106 20.2738 38.9587 21.0516 37.6711C21.8336 36.3836 22.3579 34.9686 22.663 33.5196C22.8177 32.7972 22.9165 32.062 22.9638 31.3269L22.9681 31.2547C22.9681 31.2377 22.9724 31.2164 22.9724 31.1952V30.7617L23.0196 24.9402C23.0239 23.5336 23.0712 22.1186 22.9724 20.6568C22.9208 19.9302 22.8392 19.1866 22.6415 18.4344C22.4524 17.6866 22.1043 16.9217 21.6059 16.2885C21.3609 15.9698 21.0945 15.6851 20.8195 15.4259C20.682 15.2942 20.5445 15.1709 20.4027 15.0477C20.2437 14.9075 20.0718 14.78 19.8999 14.6695C19.2124 14.2233 18.4819 13.9386 17.7299 13.7432C16.2345 13.3565 14.6274 13.3352 13.1105 13.8112C12.3542 14.0491 11.6366 14.4188 11.0092 14.9075C10.9276 14.967 10.8545 15.0307 10.7772 15.0945C10.6955 15.1625 10.6096 15.2432 10.5322 15.3197C10.3775 15.4769 10.24 15.6469 10.1197 15.8211C9.87908 16.1695 9.69861 16.5392 9.5568 16.9047C9.27319 17.6398 9.1228 18.3792 9.01107 19.1058C8.90365 19.8325 8.84348 20.5548 8.80051 21.273C8.65441 24.1413 8.74894 26.9628 8.77042 29.7801C8.77472 30.1243 9.09271 30.4005 9.48805 30.3963C9.87908 30.392 10.1971 30.1116 10.1928 29.7631C10.1713 26.9416 10.081 24.1158 10.2228 21.3495C10.2615 20.6611 10.3217 19.9727 10.4205 19.3055C10.5194 18.6384 10.6612 17.9883 10.8846 17.4018C10.9963 17.1129 11.1338 16.8409 11.2928 16.6072C11.3745 16.4925 11.4604 16.3863 11.555 16.2885C11.6022 16.2418 11.6495 16.1993 11.7011 16.1525C11.7612 16.1015 11.8214 16.0506 11.8858 16.0038C12.38 15.6214 12.9429 15.3282 13.5488 15.137C14.7563 14.7545 16.1142 14.763 17.3732 15.0902C18.0006 15.2517 18.6108 15.4981 19.1179 15.8296C19.2425 15.9146 19.3585 15.9953 19.4659 16.0931C19.5948 16.2035 19.7151 16.3183 19.8355 16.4288C20.0718 16.6582 20.291 16.8877 20.48 17.1341C20.8582 17.6186 21.1074 18.1667 21.2707 18.7829C21.434 19.399 21.5113 20.0662 21.5586 20.7461C21.6488 22.1016 21.6059 23.5081 21.6016 24.9232L21.5672 29.1555L21.5457 31.2292C21.5027 31.9006 21.4125 32.5677 21.2707 33.2263C20.9914 34.5394 20.5187 35.8099 19.8312 36.9403C19.1436 38.0748 18.2369 39.0649 17.1541 39.8128C16.0712 40.5649 14.8165 41.0706 13.5015 41.3383C12.1866 41.6145 10.8116 41.6443 9.43648 41.5508C8.07 41.453 6.72071 41.2023 5.47025 40.7222C4.22839 40.2505 3.05959 39.5366 2.24314 38.589C2.04977 38.3638 1.67162 38.3553 1.32785 38.538C0.979786 38.725 0.898144 39.1967 1.15597 39.4941C2.20017 40.6967 3.54945 41.4913 4.9589 42.0352C6.37694 42.5834 7.86374 42.8553 9.33764 42.9616Z" fill="url(#paint3_linear_369_479)"/>
<path d="M5.74528 38.81C7.00003 39.3029 8.31925 39.5621 9.64275 39.6471C9.97793 39.6683 10.3002 39.6811 10.6397 39.6768C10.9534 39.6641 11.2671 39.6683 11.6108 39.6556C12.2855 39.6216 12.9644 39.5281 13.6262 39.3496C14.954 39.0054 16.213 38.3043 17.1842 37.3227C18.1639 36.3496 18.8514 35.1385 19.2854 33.8807C19.7237 32.6187 19.9257 31.3099 19.973 30.0054C19.9859 29.6867 19.6636 29.4274 19.2725 29.4317C18.8815 29.4317 18.5635 29.6697 18.5549 29.9586C18.512 31.1484 18.3272 32.3255 17.9447 33.4261C17.5623 34.5224 16.9779 35.538 16.1786 36.3369C15.3794 37.14 14.3696 37.7051 13.2609 37.9941C12.7066 38.1428 12.1308 38.2236 11.5464 38.2533C11.2628 38.2661 10.9405 38.2661 10.6268 38.2746C10.3389 38.2788 10.0338 38.2661 9.73728 38.2491C8.54268 38.1726 7.36098 37.9389 6.27381 37.5097C5.18665 37.0847 4.19831 36.4516 3.42913 35.6145C2.65565 34.7816 2.11423 33.7533 1.80054 32.6442C1.64155 32.0875 1.53842 31.5139 1.47826 30.9275C1.4181 30.3623 1.42239 29.7461 1.42239 29.1342C1.44388 26.6654 1.54701 24.1625 1.56849 21.6597L1.57278 19.7815L1.56419 18.8424C1.55989 18.5407 1.56419 18.239 1.57278 17.9373C1.60716 16.7305 1.74038 15.5321 2.01109 14.3678C2.53534 12.0477 3.66977 9.87203 5.42728 8.30403C7.16761 6.73178 9.47516 5.75868 11.8257 5.46973C12.1093 5.43573 12.307 5.11278 12.2984 4.72609C12.2898 4.33941 11.989 4.0377 11.6581 4.07595C10.326 4.23742 9.04545 4.59437 7.82507 5.12553C6.60899 5.6567 5.46166 6.37484 4.47333 7.2672C3.4807 8.15956 2.64706 9.22188 2.00679 10.382C1.36652 11.542 0.915328 12.7871 0.623125 14.0534C0.326625 15.3239 0.184818 16.6115 0.150441 17.8948C0.141847 18.2177 0.137555 18.5364 0.141852 18.8551L0.150441 19.7857L0.146153 21.6469C0.124668 24.1328 0.0258358 26.6101 5.31406e-05 29.1257C5.31406e-05 29.7589 -0.00424658 30.392 0.0645071 31.0677C0.128964 31.7221 0.249285 32.3765 0.429763 33.0224C0.795017 34.3099 1.43957 35.555 2.38064 36.5621C3.30881 37.5692 4.49482 38.3213 5.74528 38.81Z" />
<path d="M5.74528 38.81C7.00003 39.3029 8.31925 39.5621 9.64275 39.6471C9.97793 39.6683 10.3002 39.6811 10.6397 39.6768C10.9534 39.6641 11.2671 39.6683 11.6108 39.6556C12.2855 39.6216 12.9644 39.5281 13.6262 39.3496C14.954 39.0054 16.213 38.3043 17.1842 37.3227C18.1639 36.3496 18.8514 35.1385 19.2854 33.8807C19.7237 32.6187 19.9257 31.3099 19.973 30.0054C19.9859 29.6867 19.6636 29.4274 19.2725 29.4317C18.8815 29.4317 18.5635 29.6697 18.5549 29.9586C18.512 31.1484 18.3272 32.3255 17.9447 33.4261C17.5623 34.5224 16.9779 35.538 16.1786 36.3369C15.3794 37.14 14.3696 37.7051 13.2609 37.9941C12.7066 38.1428 12.1308 38.2236 11.5464 38.2533C11.2628 38.2661 10.9405 38.2661 10.6268 38.2746C10.3389 38.2788 10.0338 38.2661 9.73728 38.2491C8.54268 38.1726 7.36098 37.9389 6.27381 37.5097C5.18665 37.0847 4.19831 36.4516 3.42913 35.6145C2.65565 34.7816 2.11423 33.7533 1.80054 32.6442C1.64155 32.0875 1.53842 31.5139 1.47826 30.9275C1.4181 30.3623 1.42239 29.7461 1.42239 29.1342C1.44388 26.6654 1.54701 24.1625 1.56849 21.6597L1.57278 19.7815L1.56419 18.8424C1.55989 18.5407 1.56419 18.239 1.57278 17.9373C1.60716 16.7305 1.74038 15.5321 2.01109 14.3678C2.53534 12.0477 3.66977 9.87203 5.42728 8.30403C7.16761 6.73178 9.47516 5.75868 11.8257 5.46973C12.1093 5.43573 12.307 5.11278 12.2984 4.72609C12.2898 4.33941 11.989 4.0377 11.6581 4.07595C10.326 4.23742 9.04545 4.59437 7.82507 5.12553C6.60899 5.6567 5.46166 6.37484 4.47333 7.2672C3.4807 8.15956 2.64706 9.22188 2.00679 10.382C1.36652 11.542 0.915328 12.7871 0.623125 14.0534C0.326625 15.3239 0.184818 16.6115 0.150441 17.8948C0.141847 18.2177 0.137555 18.5364 0.141852 18.8551L0.150441 19.7857L0.146153 21.6469C0.124668 24.1328 0.0258358 26.6101 5.31406e-05 29.1257C5.31406e-05 29.7589 -0.00424658 30.392 0.0645071 31.0677C0.128964 31.7221 0.249285 32.3765 0.429763 33.0224C0.795017 34.3099 1.43957 35.555 2.38064 36.5621C3.30881 37.5692 4.49482 38.3213 5.74528 38.81Z" fill="url(#paint4_linear_369_479)"/>
<path d="M26.8526 36.0692C26.496 35.9799 26.1092 35.9247 25.7053 35.9502C25.3014 35.9757 24.8889 36.0904 24.5322 36.2731C23.8103 36.6513 23.3419 37.2037 22.938 37.7094C22.534 38.2278 22.1903 38.7462 21.8379 39.2434C21.1418 40.2377 20.4113 41.1598 19.5304 41.9162C18.6581 42.6726 17.6482 43.2633 16.5568 43.6669C16.0111 43.8752 15.4481 44.0239 14.8551 44.1641C14.2664 44.3043 13.6734 44.4191 13.0804 44.5126C11.8944 44.6953 10.6955 44.7675 9.51383 44.6953C8.33212 44.6188 7.1719 44.3893 6.08473 43.9729C4.99757 43.5565 3.99635 42.9531 3.11115 42.1924C3.00372 42.1032 2.70292 42.2562 2.4408 42.5451C2.17868 42.8341 2.06266 43.1528 2.18727 43.2548C3.1799 44.1046 4.33582 44.8058 5.57339 45.2774C6.81096 45.7534 8.11727 46.0126 9.42359 46.0933C10.7299 46.1783 12.0276 46.0933 13.3039 45.8978C13.9398 45.8001 14.5715 45.6769 15.1903 45.5282C15.8048 45.3837 16.4494 45.2095 17.0638 44.9757C18.3014 44.5168 19.4745 43.8369 20.4714 42.9701C21.477 42.1074 22.2934 41.0706 23.011 40.0465C23.372 39.5366 23.7157 39.0224 24.0681 38.5678C24.4248 38.1131 24.8029 37.7136 25.194 37.5182C25.5807 37.3185 26.0061 37.2972 26.5089 37.4247C27.003 37.5522 27.523 37.8029 28.0215 38.1003C28.1418 38.1726 28.4125 37.9686 28.6187 37.6414C28.8293 37.3142 28.8895 36.9785 28.7477 36.8978C28.1676 36.5663 27.5617 36.2561 26.8526 36.0692Z" />
<path d="M26.8526 36.0692C26.496 35.9799 26.1092 35.9247 25.7053 35.9502C25.3014 35.9757 24.8889 36.0904 24.5322 36.2731C23.8103 36.6513 23.3419 37.2037 22.938 37.7094C22.534 38.2278 22.1903 38.7462 21.8379 39.2434C21.1418 40.2377 20.4113 41.1598 19.5304 41.9162C18.6581 42.6726 17.6482 43.2633 16.5568 43.6669C16.0111 43.8752 15.4481 44.0239 14.8551 44.1641C14.2664 44.3043 13.6734 44.4191 13.0804 44.5126C11.8944 44.6953 10.6955 44.7675 9.51383 44.6953C8.33212 44.6188 7.1719 44.3893 6.08473 43.9729C4.99757 43.5565 3.99635 42.9531 3.11115 42.1924C3.00372 42.1032 2.70292 42.2562 2.4408 42.5451C2.17868 42.8341 2.06266 43.1528 2.18727 43.2548C3.1799 44.1046 4.33582 44.8058 5.57339 45.2774C6.81096 45.7534 8.11727 46.0126 9.42359 46.0933C10.7299 46.1783 12.0276 46.0933 13.3039 45.8978C13.9398 45.8001 14.5715 45.6769 15.1903 45.5282C15.8048 45.3837 16.4494 45.2095 17.0638 44.9757C18.3014 44.5168 19.4745 43.8369 20.4714 42.9701C21.477 42.1074 22.2934 41.0706 23.011 40.0465C23.372 39.5366 23.7157 39.0224 24.0681 38.5678C24.4248 38.1131 24.8029 37.7136 25.194 37.5182C25.5807 37.3185 26.0061 37.2972 26.5089 37.4247C27.003 37.5522 27.523 37.8029 28.0215 38.1003C28.1418 38.1726 28.4125 37.9686 28.6187 37.6414C28.8293 37.3142 28.8895 36.9785 28.7477 36.8978C28.1676 36.5663 27.5617 36.2561 26.8526 36.0692Z" fill="url(#paint5_linear_369_479)"/>
<path d="M28.9668 27.596C28.941 26.0917 28.8723 24.5747 28.8551 23.096C28.8207 20.1087 28.9024 17.0491 28.3351 13.9811C28.189 13.2163 28 12.4514 27.7378 11.6992C27.48 10.9514 27.1276 10.1992 26.7108 9.52784C25.8471 8.12131 24.6139 7.01649 23.2689 6.16237C21.9196 5.30401 20.4457 4.67935 18.9116 4.26717C17.3775 3.85923 15.779 3.65526 14.159 3.77C13.9613 3.78274 13.8324 4.11419 13.8754 4.50088C13.9184 4.88757 14.0903 5.18502 14.2621 5.17228C15.6802 5.07029 17.1369 5.25302 18.5377 5.62696C19.9343 6.00515 21.2879 6.5788 22.4954 7.34793C23.7029 8.11706 24.7728 9.09016 25.4905 10.263C26.2381 11.457 26.6636 12.8211 26.9343 14.2488C27.4671 17.1129 27.3984 20.1044 27.4285 23.1172C27.4456 24.6427 27.5144 26.13 27.5402 27.6342C27.5703 29.13 27.596 30.63 27.5402 32.1003C27.5316 32.2787 27.841 32.4402 28.232 32.4615C28.623 32.4827 28.9496 32.3467 28.9582 32.1598C29.027 30.613 28.9969 29.1087 28.9668 27.596Z" />
<path d="M28.9668 27.596C28.941 26.0917 28.8723 24.5747 28.8551 23.096C28.8207 20.1087 28.9024 17.0491 28.3351 13.9811C28.189 13.2163 28 12.4514 27.7378 11.6992C27.48 10.9514 27.1276 10.1992 26.7108 9.52784C25.8471 8.12131 24.6139 7.01649 23.2689 6.16237C21.9196 5.30401 20.4457 4.67935 18.9116 4.26717C17.3775 3.85923 15.779 3.65526 14.159 3.77C13.9613 3.78274 13.8324 4.11419 13.8754 4.50088C13.9184 4.88757 14.0903 5.18502 14.2621 5.17228C15.6802 5.07029 17.1369 5.25302 18.5377 5.62696C19.9343 6.00515 21.2879 6.5788 22.4954 7.34793C23.7029 8.11706 24.7728 9.09016 25.4905 10.263C26.2381 11.457 26.6636 12.8211 26.9343 14.2488C27.4671 17.1129 27.3984 20.1044 27.4285 23.1172C27.4456 24.6427 27.5144 26.13 27.5402 27.6342C27.5703 29.13 27.596 30.63 27.5402 32.1003C27.5316 32.2787 27.841 32.4402 28.232 32.4615C28.623 32.4827 28.9496 32.3467 28.9582 32.1598C29.027 30.613 28.9969 29.1087 28.9668 27.596Z" fill="url(#paint6_linear_369_479)"/>
<path d="M1.15167 7.26294C1.45676 7.5094 1.77475 7.61989 1.86499 7.50941C3.36468 5.73319 5.105 4.14819 7.11175 3.04336C8.11297 2.49095 9.17866 2.06602 10.283 1.78981C11.3874 1.51361 12.5304 1.39462 13.682 1.40737C14.8122 1.43711 16.0025 1.5731 17.1412 1.78981C18.2885 2.00653 19.4187 2.30822 20.5015 2.70766C21.5844 3.11135 22.62 3.61702 23.5482 4.25442C24.4763 4.89182 25.2885 5.66945 25.8729 6.58305C25.9417 6.69354 26.2725 6.62555 26.612 6.43008C26.9515 6.23461 27.1577 5.96265 27.0718 5.82667C26.3628 4.7261 25.4088 3.82099 24.3603 3.10285C23.3118 2.38047 22.1688 1.82805 21 1.39037C19.8269 0.956942 18.6237 0.63399 17.4076 0.404526C16.1829 0.179312 14.9712 0.0305864 13.6949 0.00084108C12.4402 -0.0119069 11.1682 0.119822 9.93495 0.425774C8.70168 0.731726 7.51998 1.2034 6.41562 1.81105C4.20691 3.02636 2.35056 4.73459 0.769221 6.6043C0.678982 6.72753 0.846575 7.02073 1.15167 7.26294Z" />
<path d="M1.15167 7.26294C1.45676 7.5094 1.77475 7.61989 1.86499 7.50941C3.36468 5.73319 5.105 4.14819 7.11175 3.04336C8.11297 2.49095 9.17866 2.06602 10.283 1.78981C11.3874 1.51361 12.5304 1.39462 13.682 1.40737C14.8122 1.43711 16.0025 1.5731 17.1412 1.78981C18.2885 2.00653 19.4187 2.30822 20.5015 2.70766C21.5844 3.11135 22.62 3.61702 23.5482 4.25442C24.4763 4.89182 25.2885 5.66945 25.8729 6.58305C25.9417 6.69354 26.2725 6.62555 26.612 6.43008C26.9515 6.23461 27.1577 5.96265 27.0718 5.82667C26.3628 4.7261 25.4088 3.82099 24.3603 3.10285C23.3118 2.38047 22.1688 1.82805 21 1.39037C19.8269 0.956942 18.6237 0.63399 17.4076 0.404526C16.1829 0.179312 14.9712 0.0305864 13.6949 0.00084108C12.4402 -0.0119069 11.1682 0.119822 9.93495 0.425774C8.70168 0.731726 7.51998 1.2034 6.41562 1.81105C4.20691 3.02636 2.35056 4.73459 0.769221 6.6043C0.678982 6.72753 0.846575 7.02073 1.15167 7.26294Z" fill="url(#paint7_linear_369_479)"/>
<path d="M27.5531 39.919C27.1835 39.8341 26.7882 39.8341 26.4315 39.9063C25.7096 40.055 25.1467 40.4205 24.6611 40.7987C23.7072 41.572 23.0067 42.4899 22.3278 43.3568C22.1602 43.5735 21.9926 43.7859 21.8293 43.9814C21.7477 44.0749 21.666 44.1684 21.6016 44.2321L21.318 44.4828C20.9183 44.8313 20.5058 45.1627 20.0761 45.4644C19.221 46.0763 18.3014 46.5777 17.3217 46.9559C16.3419 47.3384 15.3063 47.5976 14.2321 47.8483C13.682 47.9758 13.1793 48.0948 12.655 48.1797C12.1351 48.2647 11.6065 48.3242 11.0823 48.3497C10.0338 48.4007 8.98528 48.3285 7.99695 48.082C7.00862 47.8355 6.08903 47.3979 5.33274 46.7647C5.2425 46.6882 4.9546 46.8539 4.68818 47.1386C4.42176 47.4234 4.29715 47.7378 4.41317 47.8355C5.34994 48.6259 6.48438 49.1528 7.6403 49.4418C8.80052 49.735 9.98651 49.8115 11.151 49.752C11.7311 49.7222 12.3112 49.6585 12.8828 49.565C13.4543 49.4758 14.0301 49.3398 14.5586 49.2166C15.6372 48.9659 16.7587 48.6897 17.8416 48.2647C18.9288 47.844 19.9644 47.2789 20.9011 46.6075C21.3738 46.2718 21.8207 45.9148 22.2547 45.5367L22.4137 45.3964L22.5856 45.2392C22.7145 45.1117 22.8177 44.997 22.9122 44.8823C23.1056 44.6528 23.2732 44.4318 23.445 44.2151C24.1154 43.3525 24.7771 42.5111 25.542 41.895C25.9202 41.5933 26.3284 41.3596 26.6979 41.2873C27.0675 41.2151 27.3898 41.2916 27.7335 41.521C27.8109 41.572 28.0773 41.3851 28.3308 41.0876C28.5801 40.7944 28.6832 40.463 28.5371 40.3652C28.2621 40.1655 27.9226 40.004 27.5531 39.919Z" />
<path d="M27.5531 39.919C27.1835 39.8341 26.7882 39.8341 26.4315 39.9063C25.7096 40.055 25.1467 40.4205 24.6611 40.7987C23.7072 41.572 23.0067 42.4899 22.3278 43.3568C22.1602 43.5735 21.9926 43.7859 21.8293 43.9814C21.7477 44.0749 21.666 44.1684 21.6016 44.2321L21.318 44.4828C20.9183 44.8313 20.5058 45.1627 20.0761 45.4644C19.221 46.0763 18.3014 46.5777 17.3217 46.9559C16.3419 47.3384 15.3063 47.5976 14.2321 47.8483C13.682 47.9758 13.1793 48.0948 12.655 48.1797C12.1351 48.2647 11.6065 48.3242 11.0823 48.3497C10.0338 48.4007 8.98528 48.3285 7.99695 48.082C7.00862 47.8355 6.08903 47.3979 5.33274 46.7647C5.2425 46.6882 4.9546 46.8539 4.68818 47.1386C4.42176 47.4234 4.29715 47.7378 4.41317 47.8355C5.34994 48.6259 6.48438 49.1528 7.6403 49.4418C8.80052 49.735 9.98651 49.8115 11.151 49.752C11.7311 49.7222 12.3112 49.6585 12.8828 49.565C13.4543 49.4758 14.0301 49.3398 14.5586 49.2166C15.6372 48.9659 16.7587 48.6897 17.8416 48.2647C18.9288 47.844 19.9644 47.2789 20.9011 46.6075C21.3738 46.2718 21.8207 45.9148 22.2547 45.5367L22.4137 45.3964L22.5856 45.2392C22.7145 45.1117 22.8177 44.997 22.9122 44.8823C23.1056 44.6528 23.2732 44.4318 23.445 44.2151C24.1154 43.3525 24.7771 42.5111 25.542 41.895C25.9202 41.5933 26.3284 41.3596 26.6979 41.2873C27.0675 41.2151 27.3898 41.2916 27.7335 41.521C27.8109 41.572 28.0773 41.3851 28.3308 41.0876C28.5801 40.7944 28.6832 40.463 28.5371 40.3652C28.2621 40.1655 27.9226 40.004 27.5531 39.919Z" fill="url(#paint8_linear_369_479)"/>
<path d="M26.8354 43.0848C26.2811 43.1825 25.7999 43.4332 25.4045 43.7094C25.0049 43.9857 24.6697 44.2959 24.3603 44.5806L24.1369 44.7845L23.8919 45.0012C23.72 45.1627 23.5654 45.3199 23.415 45.4814C22.822 46.1103 22.2762 46.735 21.7004 47.3171C21.4168 47.6061 21.1246 47.8865 20.8324 48.133C20.5445 48.371 20.2179 48.5962 20.0074 48.6599C19.9902 48.6684 20.046 48.9744 20.1277 49.3526C20.2093 49.7307 20.3511 50.024 20.4285 49.9985C20.7336 49.9007 20.9613 49.769 21.1719 49.633C21.3824 49.497 21.5672 49.3526 21.7434 49.2038C21.9282 49.0508 22.1043 48.8894 22.2719 48.7322H22.2762C22.9938 48.1372 23.8103 47.7973 24.7084 47.8058C25.1596 47.8016 25.6323 47.8738 26.135 47.9673C26.6421 48.0565 27.1792 48.184 27.8109 48.201C27.8496 48.201 27.8839 47.8865 27.8796 47.4998C27.8796 47.1132 27.8582 46.7987 27.8324 46.7987C26.9816 46.7817 25.8944 46.395 24.6955 46.4078C24.6224 46.4078 24.5451 46.4163 24.472 46.4205C24.601 46.2845 24.7342 46.1486 24.8588 46.0338L25.0865 45.8341L25.3272 45.6131C25.6366 45.3284 25.9245 45.065 26.2167 44.861C26.5089 44.6571 26.8054 44.5168 27.0847 44.4701C27.364 44.4191 27.6476 44.4531 27.9398 44.5721C27.9742 44.5848 28.1289 44.3086 28.2922 43.9559C28.4512 43.6032 28.5328 43.293 28.4726 43.2675C27.9828 43.0636 27.3898 42.9786 26.8354 43.0848Z" />
<path d="M26.8354 43.0848C26.2811 43.1825 25.7999 43.4332 25.4045 43.7094C25.0049 43.9857 24.6697 44.2959 24.3603 44.5806L24.1369 44.7845L23.8919 45.0012C23.72 45.1627 23.5654 45.3199 23.415 45.4814C22.822 46.1103 22.2762 46.735 21.7004 47.3171C21.4168 47.6061 21.1246 47.8865 20.8324 48.133C20.5445 48.371 20.2179 48.5962 20.0074 48.6599C19.9902 48.6684 20.046 48.9744 20.1277 49.3526C20.2093 49.7307 20.3511 50.024 20.4285 49.9985C20.7336 49.9007 20.9613 49.769 21.1719 49.633C21.3824 49.497 21.5672 49.3526 21.7434 49.2038C21.9282 49.0508 22.1043 48.8894 22.2719 48.7322H22.2762C22.9938 48.1372 23.8103 47.7973 24.7084 47.8058C25.1596 47.8016 25.6323 47.8738 26.135 47.9673C26.6421 48.0565 27.1792 48.184 27.8109 48.201C27.8496 48.201 27.8839 47.8865 27.8796 47.4998C27.8796 47.1132 27.8582 46.7987 27.8324 46.7987C26.9816 46.7817 25.8944 46.395 24.6955 46.4078C24.6224 46.4078 24.5451 46.4163 24.472 46.4205C24.601 46.2845 24.7342 46.1486 24.8588 46.0338L25.0865 45.8341L25.3272 45.6131C25.6366 45.3284 25.9245 45.065 26.2167 44.861C26.5089 44.6571 26.8054 44.5168 27.0847 44.4701C27.364 44.4191 27.6476 44.4531 27.9398 44.5721C27.9742 44.5848 28.1289 44.3086 28.2922 43.9559C28.4512 43.6032 28.5328 43.293 28.4726 43.2675C27.9828 43.0636 27.3898 42.9786 26.8354 43.0848Z" fill="url(#paint9_linear_369_479)"/>
<defs>
<linearGradient id="paint0_linear_369_479" x1="12" y1="3.85319e-08" x2="12.5" y2="50" gradientUnits="userSpaceOnUse">
<stop stop-color="#FBBF9A"/>
<stop offset="0.128125" stop-color="#FFE876"/>
<stop offset="0.294792" stop-color="#12F9F8"/>
<stop offset="0.539583" stop-color="#9CFD82"/>
<stop offset="0.753125" stop-color="#FCF16E"/>
<stop offset="1" stop-color="#FED292"/>
</linearGradient>
<linearGradient id="paint1_linear_369_479" x1="12" y1="3.85319e-08" x2="12.5" y2="50" gradientUnits="userSpaceOnUse">
<stop stop-color="#FBBF9A"/>
<stop offset="0.128125" stop-color="#FFE876"/>
<stop offset="0.294792" stop-color="#12F9F8"/>
<stop offset="0.539583" stop-color="#9CFD82"/>
<stop offset="0.753125" stop-color="#FCF16E"/>
<stop offset="1" stop-color="#FED292"/>
</linearGradient>
<linearGradient id="paint2_linear_369_479" x1="12" y1="3.85319e-08" x2="12.5" y2="50" gradientUnits="userSpaceOnUse">
<stop stop-color="#FBBF9A"/>
<stop offset="0.128125" stop-color="#FFE876"/>
<stop offset="0.294792" stop-color="#12F9F8"/>
<stop offset="0.539583" stop-color="#9CFD82"/>
<stop offset="0.753125" stop-color="#FCF16E"/>
<stop offset="1" stop-color="#FED292"/>
</linearGradient>
<linearGradient id="paint3_linear_369_479" x1="12" y1="3.85319e-08" x2="12.5" y2="50" gradientUnits="userSpaceOnUse">
<stop stop-color="#FBBF9A"/>
<stop offset="0.128125" stop-color="#FFE876"/>
<stop offset="0.294792" stop-color="#12F9F8"/>
<stop offset="0.539583" stop-color="#9CFD82"/>
<stop offset="0.753125" stop-color="#FCF16E"/>
<stop offset="1" stop-color="#FED292"/>
</linearGradient>
<linearGradient id="paint4_linear_369_479" x1="12" y1="3.85319e-08" x2="12.5" y2="50" gradientUnits="userSpaceOnUse">
<stop stop-color="#FBBF9A"/>
<stop offset="0.128125" stop-color="#FFE876"/>
<stop offset="0.294792" stop-color="#12F9F8"/>
<stop offset="0.539583" stop-color="#9CFD82"/>
<stop offset="0.753125" stop-color="#FCF16E"/>
<stop offset="1" stop-color="#FED292"/>
</linearGradient>
<linearGradient id="paint5_linear_369_479" x1="12" y1="3.85319e-08" x2="12.5" y2="50" gradientUnits="userSpaceOnUse">
<stop stop-color="#FBBF9A"/>
<stop offset="0.128125" stop-color="#FFE876"/>
<stop offset="0.294792" stop-color="#12F9F8"/>
<stop offset="0.539583" stop-color="#9CFD82"/>
<stop offset="0.753125" stop-color="#FCF16E"/>
<stop offset="1" stop-color="#FED292"/>
</linearGradient>
<linearGradient id="paint6_linear_369_479" x1="12" y1="3.85319e-08" x2="12.5" y2="50" gradientUnits="userSpaceOnUse">
<stop stop-color="#FBBF9A"/>
<stop offset="0.128125" stop-color="#FFE876"/>
<stop offset="0.294792" stop-color="#12F9F8"/>
<stop offset="0.539583" stop-color="#9CFD82"/>
<stop offset="0.753125" stop-color="#FCF16E"/>
<stop offset="1" stop-color="#FED292"/>
</linearGradient>
<linearGradient id="paint7_linear_369_479" x1="12" y1="3.85319e-08" x2="12.5" y2="50" gradientUnits="userSpaceOnUse">
<stop stop-color="#FBBF9A"/>
<stop offset="0.128125" stop-color="#FFE876"/>
<stop offset="0.294792" stop-color="#12F9F8"/>
<stop offset="0.539583" stop-color="#9CFD82"/>
<stop offset="0.753125" stop-color="#FCF16E"/>
<stop offset="1" stop-color="#FED292"/>
</linearGradient>
<linearGradient id="paint8_linear_369_479" x1="12" y1="3.85319e-08" x2="12.5" y2="50" gradientUnits="userSpaceOnUse">
<stop stop-color="#FBBF9A"/>
<stop offset="0.128125" stop-color="#FFE876"/>
<stop offset="0.294792" stop-color="#12F9F8"/>
<stop offset="0.539583" stop-color="#9CFD82"/>
<stop offset="0.753125" stop-color="#FCF16E"/>
<stop offset="1" stop-color="#FED292"/>
</linearGradient>
<linearGradient id="paint9_linear_369_479" x1="12" y1="3.85319e-08" x2="12.5" y2="50" gradientUnits="userSpaceOnUse">
<stop stop-color="#FBBF9A"/>
<stop offset="0.128125" stop-color="#FFE876"/>
<stop offset="0.294792" stop-color="#12F9F8"/>
<stop offset="0.539583" stop-color="#9CFD82"/>
<stop offset="0.753125" stop-color="#FCF16E"/>
<stop offset="1" stop-color="#FED292"/>
</linearGradient>
</defs>
</svg>
