<svg width="23" height="30" viewBox="0 0 23 30" fill="none" xmlns="http://www.w3.org/2000/svg">
<path fill-rule="evenodd" clip-rule="evenodd" d="M16.8724 0.0148038C16.8058 0.0216308 16.6753 0.0407789 16.5826 0.0573924C16.4898 0.0739912 16.3238 0.110954 16.2138 0.139537C16.1037 0.16812 15.9131 0.227146 15.7901 0.270702C15.6671 0.314272 15.4686 0.394043 15.3489 0.447986C15.2291 0.501914 15.0378 0.596511 14.9238 0.658189C14.8097 0.719867 14.645 0.815285 14.5577 0.870239C14.4704 0.925192 14.3244 1.02269 14.2333 1.0869C14.1423 1.15112 13.9978 1.25925 13.9123 1.3272C13.8269 1.39515 13.6965 1.50438 13.6225 1.56995C13.5486 1.63553 13.4018 1.77849 13.2964 1.88765C13.191 1.99682 13.0364 2.16854 12.9529 2.26926C12.8694 2.36998 12.7281 2.5557 12.6391 2.68196C12.55 2.80823 12.4306 2.98953 12.3738 3.08485C12.317 3.18018 12.235 3.32363 12.1916 3.40364C12.1481 3.48366 12.0696 3.64015 12.0171 3.75142C11.9646 3.86268 11.884 4.04704 11.8381 4.16109C11.7921 4.27516 11.7178 4.48454 11.673 4.62642C11.6281 4.76828 11.5692 4.97844 11.5422 5.09344C11.5151 5.20845 11.478 5.39634 11.4598 5.51098C11.4415 5.62562 11.4193 5.8028 11.4103 5.9047C11.4006 6.01552 11.3969 6.20981 11.4011 6.38817C11.405 6.55216 11.4159 6.7303 11.4253 6.784L11.4423 6.88165L11.5607 6.89949C11.6384 6.9112 11.7695 6.91458 11.9418 6.90935C12.1192 6.90398 12.2607 6.89101 12.3771 6.86946C12.472 6.85189 12.6304 6.8154 12.729 6.78837C12.8277 6.76134 12.983 6.71193 13.0741 6.67858C13.1651 6.64524 13.3078 6.58838 13.3911 6.55222C13.4743 6.51606 13.6391 6.43509 13.7572 6.37227C13.8753 6.30946 14.0555 6.20514 14.1578 6.14044C14.2601 6.07576 14.4214 5.96506 14.5163 5.89445C14.6111 5.82385 14.7633 5.70334 14.8544 5.62667C14.9455 5.54999 15.1415 5.35819 15.29 5.20045C15.4558 5.02426 15.6279 4.82326 15.7362 4.67925C15.8331 4.55032 15.9831 4.33276 16.0693 4.19578C16.1556 4.0588 16.2675 3.87091 16.3178 3.77825C16.3682 3.68558 16.461 3.49769 16.5239 3.36071C16.5869 3.22373 16.6758 3.01277 16.7214 2.8919C16.7671 2.77104 16.8358 2.56889 16.8741 2.44268C16.9125 2.31646 16.9657 2.11868 16.9924 2.00317C17.019 1.88765 17.0535 1.71731 17.069 1.62464C17.0844 1.53198 17.1067 1.38365 17.1186 1.29501C17.1311 1.20134 17.1434 0.971282 17.1479 0.745623C17.1531 0.487879 17.1504 0.313071 17.1397 0.225535C17.1309 0.153015 17.1201 0.0722625 17.1157 0.0460677C17.1082 0.000944531 17.1048 -0.00144348 17.0507 0.000431768C17.0192 0.0015159 16.939 0.00799136 16.8724 0.0148038ZM16.338 7.26055C16.2962 7.26317 16.1751 7.27552 16.0689 7.28802C15.9626 7.3005 15.7856 7.32698 15.6755 7.34683C15.5655 7.36669 15.3512 7.41552 15.1994 7.45536C15.0476 7.49518 14.8147 7.56383 14.6818 7.60788C14.5489 7.65195 14.3222 7.73379 14.1781 7.78974C14.0339 7.8457 13.6986 7.98202 13.4329 8.09269C13.1672 8.20336 12.8691 8.32519 12.7704 8.36345C12.6718 8.40168 12.5289 8.45324 12.453 8.478C12.3771 8.50274 12.2636 8.53682 12.2007 8.55371C12.1379 8.5706 12.0261 8.59407 11.9523 8.60588C11.8785 8.61769 11.7569 8.62739 11.6819 8.62743C11.607 8.62747 11.4797 8.61722 11.399 8.60463C11.3183 8.59204 11.1902 8.5654 11.1143 8.54542C11.0384 8.52543 10.9266 8.49219 10.8659 8.47155C10.8052 8.45091 10.6934 8.41094 10.6175 8.38274C10.5416 8.35455 10.2136 8.21958 9.88874 8.08283C9.56384 7.94607 9.19432 7.79475 9.06759 7.74656C8.94085 7.69838 8.72227 7.62366 8.58185 7.58054C8.44142 7.53744 8.25359 7.48488 8.16444 7.46377C8.07528 7.44264 7.9045 7.40909 7.78491 7.38921C7.66533 7.36932 7.45368 7.34593 7.31458 7.33725C7.1313 7.3258 6.98502 7.32595 6.78324 7.3378C6.6301 7.3468 6.40544 7.36751 6.28399 7.38383C6.16254 7.40017 5.98244 7.42994 5.88376 7.45001C5.78508 7.47008 5.60498 7.51324 5.48353 7.54593C5.36208 7.57861 5.17267 7.63692 5.0626 7.67549C4.95254 7.71408 4.78486 7.77859 4.68998 7.81886C4.5951 7.85914 4.43362 7.93289 4.33115 7.98274C4.22868 8.0326 4.09205 8.10347 4.02753 8.14025C3.96301 8.17702 3.84191 8.24989 3.75841 8.30216C3.67492 8.35445 3.53556 8.44681 3.44873 8.5074C3.36191 8.56801 3.20665 8.68501 3.10371 8.76742C3.00077 8.84982 2.84203 8.98528 2.75094 9.06842C2.65986 9.15156 2.48569 9.32536 2.36391 9.45463C2.24212 9.58389 2.07174 9.77867 1.98529 9.88745C1.89884 9.99623 1.77245 10.1643 1.70443 10.261C1.6364 10.3577 1.52689 10.5225 1.46106 10.6273C1.39525 10.732 1.30043 10.8903 1.25036 10.9789C1.20029 11.0675 1.11206 11.2357 1.05428 11.3525C0.996509 11.4693 0.911523 11.6502 0.865428 11.7544C0.819347 11.8586 0.741454 12.0496 0.692336 12.1789C0.643205 12.3081 0.563353 12.5393 0.51487 12.6926C0.466387 12.8459 0.398942 13.0801 0.364991 13.2131C0.331041 13.346 0.287706 13.5273 0.268675 13.616C0.249643 13.7046 0.218094 13.8628 0.198566 13.9676C0.179023 14.0723 0.147585 14.2635 0.128705 14.3924C0.109825 14.5214 0.0820441 14.7488 0.0669597 14.8979C0.0518752 15.0469 0.0330921 15.2612 0.0252118 15.374C0.0173452 15.4868 0.00707731 15.7769 0.00241259 16.0186C-0.00266616 16.2817 0.000439053 16.6111 0.0101687 16.839C0.019098 17.0485 0.0356453 17.3386 0.0469207 17.4837C0.0582099 17.6287 0.0800292 17.8627 0.0954173 18.0038C0.110805 18.1448 0.141844 18.3937 0.164381 18.557C0.186918 18.7203 0.230239 18.9972 0.260642 19.1723C0.291046 19.3475 0.344138 19.6259 0.378613 19.7911C0.413102 19.9563 0.47228 20.22 0.510136 20.3771C0.547978 20.5342 0.594708 20.7221 0.613988 20.7946C0.633255 20.8672 0.685367 21.0551 0.729792 21.2122C0.774231 21.3693 0.857989 21.6462 0.91594 21.8275C0.97389 22.0088 1.06699 22.2857 1.12283 22.4428C1.17868 22.5999 1.26411 22.8308 1.31268 22.9559C1.36126 23.081 1.45291 23.3085 1.51638 23.4614C1.57983 23.6143 1.72951 23.947 1.84895 24.2009C1.96841 24.4547 2.13269 24.7876 2.21399 24.9407C2.2953 25.0938 2.42095 25.3212 2.4932 25.4461C2.56546 25.571 2.69294 25.782 2.7765 25.9149C2.86005 26.0479 3.0153 26.2852 3.12147 26.4424C3.22764 26.5995 3.43023 26.8929 3.57166 27.0943C3.71309 27.2957 3.92874 27.5924 4.0509 27.7536C4.17306 27.9147 4.3466 28.1356 4.43655 28.2444C4.52649 28.3531 4.69956 28.5476 4.82111 28.6765C4.94269 28.8055 5.12257 28.9822 5.22086 29.0692C5.31916 29.1563 5.45884 29.2727 5.53127 29.3278C5.60368 29.3829 5.72194 29.4662 5.79405 29.5128C5.86616 29.5593 6.00731 29.6394 6.10772 29.6908C6.20812 29.7421 6.3727 29.8129 6.47345 29.848C6.57418 29.8832 6.72365 29.9258 6.80558 29.9425C6.8875 29.9593 7.0439 29.9808 7.15309 29.9902C7.30512 30.0033 7.40515 30.0033 7.57997 29.99C7.70554 29.9805 7.88142 29.9596 7.97081 29.9436C8.06019 29.9275 8.21024 29.8941 8.30426 29.8694C8.39827 29.8446 8.5751 29.7878 8.69722 29.7433C8.81935 29.6988 9.14301 29.5632 9.41646 29.4421C9.68991 29.321 10.004 29.1869 10.1144 29.1442C10.2248 29.1015 10.4111 29.0371 10.5284 29.0011C10.6457 28.9651 10.8212 28.9183 10.9184 28.8971C11.0155 28.8759 11.1801 28.8457 11.2841 28.8301C11.3881 28.8144 11.6014 28.7937 11.7581 28.7841C11.9793 28.7705 12.1068 28.7706 12.3275 28.7842C12.484 28.7939 12.6818 28.8115 12.7671 28.8234C12.8524 28.8352 12.975 28.8552 13.0396 28.8677C13.1041 28.8802 13.2314 28.9102 13.3225 28.9344C13.4136 28.9586 13.55 28.9985 13.6256 29.0231C13.7012 29.0478 13.8409 29.0993 13.9361 29.1375C14.0313 29.1758 14.2986 29.293 14.5301 29.398C14.7616 29.503 15.0357 29.6225 15.1392 29.6636C15.2427 29.7047 15.4023 29.761 15.494 29.7887C15.5857 29.8165 15.7245 29.8528 15.8026 29.8696C15.8808 29.8863 16.013 29.9099 16.0965 29.9221C16.18 29.9342 16.3756 29.9483 16.5312 29.9532C16.7131 29.9591 16.8683 29.9561 16.9659 29.945C17.0494 29.9355 17.1954 29.9113 17.2903 29.8911C17.3851 29.871 17.5495 29.8239 17.6554 29.7866C17.7719 29.7455 17.9413 29.669 18.0836 29.5932C18.2132 29.5241 18.3997 29.4104 18.4982 29.3404C18.5967 29.2705 18.7351 29.164 18.8058 29.104C18.8764 29.0439 18.9944 28.9386 19.068 28.8701C19.1415 28.8016 19.2826 28.6575 19.3814 28.5499C19.4803 28.4423 19.6308 28.2697 19.7158 28.1663C19.8008 28.0629 19.9407 27.8849 20.0268 27.7707C20.1128 27.6566 20.2485 27.4708 20.3282 27.358C20.4079 27.2452 20.56 27.0243 20.6661 26.8672C20.7722 26.7101 20.9342 26.4662 21.0261 26.3252C21.118 26.1842 21.2688 25.9414 21.3613 25.7856C21.4537 25.6299 21.6012 25.3695 21.6891 25.207C21.7771 25.0444 21.9285 24.7463 22.0258 24.5446C22.123 24.3429 22.2498 24.0693 22.3076 23.9366C22.3653 23.804 22.4562 23.5871 22.5096 23.4546C22.5629 23.3222 22.6468 23.1046 22.6959 22.9712C22.745 22.8377 22.8305 22.5868 22.8858 22.4135C22.9412 22.2403 22.9907 22.0777 22.996 22.0522C23.0042 22.0122 23.0012 22.0044 22.9736 21.9954C22.9561 21.9896 22.8548 21.94 22.7485 21.8851C22.6423 21.8301 22.4684 21.7311 22.3621 21.665C22.2558 21.5989 22.1037 21.4986 22.024 21.4421C21.9443 21.3856 21.8105 21.2854 21.7266 21.2195C21.6428 21.1535 21.497 21.031 21.4026 20.9471C21.3082 20.8633 21.1481 20.7093 21.0468 20.6049C20.9455 20.5006 20.802 20.3424 20.728 20.2533C20.654 20.1643 20.5469 20.0288 20.49 19.9523C20.4332 19.8757 20.3383 19.7406 20.2793 19.6519C20.2202 19.5633 20.1219 19.4018 20.0607 19.293C19.9996 19.1842 19.9114 19.0161 19.8648 18.9194C19.8181 18.8227 19.7531 18.6784 19.7204 18.5988C19.6876 18.5192 19.6301 18.3676 19.5925 18.2619C19.5549 18.1562 19.4972 17.9708 19.4643 17.8499C19.4314 17.7291 19.3885 17.5542 19.3689 17.4613C19.3494 17.3685 19.3212 17.2169 19.3064 17.1244C19.2915 17.0319 19.2698 16.8673 19.258 16.7585C19.2462 16.6497 19.23 16.4202 19.2221 16.2484C19.2119 16.0277 19.212 15.8449 19.2225 15.6257C19.2307 15.4551 19.2496 15.2132 19.2644 15.0883C19.2793 14.9634 19.3041 14.7887 19.3197 14.7001C19.3353 14.6115 19.3725 14.4347 19.4024 14.3074C19.4323 14.18 19.4904 13.9691 19.5314 13.8386C19.5724 13.7081 19.644 13.5071 19.6903 13.3921C19.7367 13.277 19.8095 13.1088 19.8522 13.0185C19.8948 12.9281 19.967 12.7849 20.0126 12.7003C20.0582 12.6157 20.1529 12.4542 20.2229 12.3414C20.293 12.2286 20.4154 12.0473 20.495 11.9385C20.5746 11.8297 20.6944 11.6748 20.7612 11.5942C20.8281 11.5136 20.9734 11.352 21.0842 11.2349C21.195 11.1179 21.3633 10.9526 21.4581 10.8677C21.553 10.7827 21.6959 10.6602 21.7756 10.5954C21.8553 10.5307 21.9966 10.4237 22.0895 10.3578C22.1825 10.2918 22.2586 10.2307 22.2586 10.222C22.2586 10.2133 22.2127 10.1395 22.1565 10.0578C22.1004 9.9762 21.9871 9.82382 21.9047 9.71919C21.8223 9.61457 21.6744 9.44101 21.5761 9.33352C21.4779 9.22602 21.3288 9.07394 21.2449 8.99555C21.1611 8.91717 21.0458 8.81348 20.9889 8.76511C20.932 8.71677 20.8202 8.62714 20.7405 8.56596C20.6608 8.50478 20.5087 8.39672 20.4025 8.32582C20.2963 8.25494 20.0975 8.13612 19.9609 8.06177C19.8242 7.98741 19.6223 7.8858 19.5122 7.83596C19.4021 7.7861 19.1848 7.70031 19.0292 7.64529C18.8736 7.59026 18.6314 7.51525 18.4909 7.47859C18.3505 7.44194 18.1269 7.39233 17.9941 7.36835C17.8613 7.34438 17.6687 7.3148 17.5663 7.30264C17.4638 7.29048 17.2775 7.27377 17.1522 7.26552C17.027 7.25727 16.8096 7.2517 16.6692 7.25317C16.5288 7.25462 16.3797 7.25794 16.338 7.26055Z" fill="white"/>
</svg>
