<svg width="20" height="20" viewBox="0 0 20 20" fill="none" xmlns="http://www.w3.org/2000/svg">
<rect x="9.71826" width="0.994006" height="1.491" fill="white"/>
<rect x="9.71826" y="18.509" width="0.994006" height="1.491" fill="white"/>
<rect width="0.994005" height="1.491" transform="matrix(0.919839 0.392296 -0.3923 0.919837 13.6431 0.662354)" fill="white"/>
<rect width="0.994005" height="1.491" transform="matrix(0.919839 0.392296 -0.3923 0.919837 6.38184 17.6873)" fill="white"/>
<rect x="20" y="9.59631" width="0.994" height="1.49101" transform="rotate(90 20 9.59631)" fill="white"/>
<rect x="1.49121" y="9.59631" width="0.994" height="1.49101" transform="rotate(90 1.49121 9.59631)" fill="white"/>
<rect width="0.994001" height="1.49101" transform="matrix(-0.395751 0.918358 -0.918359 -0.395748 19.3228 13.5588)" fill="white"/>
<rect width="0.994001" height="1.49101" transform="matrix(-0.395751 0.918358 -0.918359 -0.395748 2.32568 6.23389)" fill="white"/>
<rect width="0.994003" height="1.491" transform="matrix(-0.707109 0.707105 -0.707109 -0.707105 17.3311 16.7258)" fill="white"/>
<rect width="0.994003" height="1.491" transform="matrix(-0.707109 0.707105 -0.707109 -0.707105 4.24219 3.63867)" fill="white"/>
<rect width="0.994005" height="1.491" transform="matrix(-0.929767 0.368149 -0.368152 -0.929765 14.5151 19.2783)" fill="white"/>
<rect width="0.994005" height="1.491" transform="matrix(-0.929767 0.368149 -0.368152 -0.929765 7.22363 1.84656)" fill="white"/>
<rect width="0.994003" height="1.491" transform="matrix(-0.707109 -0.707105 0.707109 -0.707105 3.27246 17.2106)" fill="white"/>
<rect width="0.994003" height="1.491" transform="matrix(-0.707109 -0.707105 0.707109 -0.707105 16.3613 4.12354)" fill="white"/>
<rect width="0.994001" height="1.49101" transform="matrix(-0.376789 -0.926299 0.9263 -0.376786 0.981445 14.0027)" fill="white"/>
<rect width="0.994001" height="1.49101" transform="matrix(-0.376789 -0.926299 0.9263 -0.376786 18.1265 7.02832)" fill="white"/>
</svg>
