<svg width="36" height="36" viewBox="0 0 36 36" fill="none" xmlns="http://www.w3.org/2000/svg">
<path d="M28.3963 8.46241C26.4842 7.58506 24.4337 6.93866 22.2899 6.56845C22.2508 6.5613 22.2118 6.57916 22.1917 6.61487C21.928 7.08389 21.6359 7.69576 21.4314 8.17669C19.1255 7.83148 16.8315 7.83148 14.5729 8.17669C14.3683 7.68507 14.0656 7.08389 13.8007 6.61487C13.7806 6.58035 13.7416 6.56249 13.7026 6.56845C11.5599 6.93748 9.50945 7.58388 7.59617 8.46241C7.57961 8.46955 7.56541 8.48147 7.55599 8.49693C3.66674 14.3074 2.60131 19.975 3.12398 25.5724C3.12634 25.5998 3.14171 25.626 3.163 25.6426C5.72901 27.527 8.21463 28.671 10.6541 29.4293C10.6931 29.4412 10.7345 29.427 10.7594 29.3948C11.3364 28.6068 11.8508 27.7759 12.2918 26.9021C12.3179 26.8509 12.293 26.7902 12.2398 26.7699C11.4239 26.4604 10.647 26.0831 9.89966 25.6545C9.84055 25.62 9.83582 25.5355 9.8902 25.495C10.0475 25.3771 10.2048 25.2545 10.3549 25.1307C10.3821 25.1081 10.42 25.1033 10.4519 25.1176C15.3616 27.3592 20.6769 27.3592 25.5287 25.1176C25.5606 25.1021 25.5985 25.1069 25.6268 25.1295C25.7771 25.2533 25.9343 25.3771 26.0928 25.495C26.1472 25.5355 26.1436 25.62 26.0845 25.6545C25.3372 26.0914 24.5602 26.4604 23.7431 26.7688C23.6899 26.789 23.6663 26.8509 23.6923 26.9021C24.1428 27.7746 24.6572 28.6056 25.2236 29.3936C25.2473 29.427 25.2898 29.4412 25.3289 29.4293C27.7802 28.671 30.2658 27.527 32.8318 25.6426C32.8543 25.626 32.8685 25.6009 32.8708 25.5736C33.4964 19.1024 31.8231 13.4812 28.4353 8.49812C28.427 8.48147 28.4128 8.46955 28.3963 8.46241ZM13.025 22.1642C11.5469 22.1642 10.3289 20.8071 10.3289 19.1405C10.3289 17.4739 11.5233 16.1168 13.025 16.1168C14.5386 16.1168 15.7448 17.4858 15.7211 19.1405C15.7211 20.8071 14.5268 22.1642 13.025 22.1642ZM22.9934 22.1642C21.5153 22.1642 20.2974 20.8071 20.2974 19.1405C20.2974 17.4739 21.4917 16.1168 22.9934 16.1168C24.507 16.1168 25.7132 17.4858 25.6896 19.1405C25.6896 20.8071 24.507 22.1642 22.9934 22.1642Z" fill="white"/>
</svg>
