<svg width="35" height="50" viewBox="0 0 35 50" fill="white" xmlns="http://www.w3.org/2000/svg">
<path d="M33.2467 30.1725C32.2403 29.7739 31.4082 29.1225 30.7025 28.4197C29.9968 27.7083 29.4043 26.9283 28.8641 26.1355C28.3239 25.3383 27.8403 24.5198 27.3698 23.7098C26.8993 22.8998 26.4463 22.0856 25.9583 21.3442C24.9084 19.8442 23.8367 18.3143 22.5952 17.0286C21.3579 15.7386 19.8898 14.7015 18.2126 14.3158C17.3805 14.123 16.4961 14.063 15.6597 14.1744C14.8058 14.2815 13.965 14.5429 13.1591 14.9029C11.5428 15.6315 10.0747 16.7286 8.76779 17.9757C8.60225 18.1343 8.44541 18.2928 8.28422 18.4557L8.0359 18.7128L7.78323 18.9571C7.48263 19.2614 7.1951 19.5999 6.92065 19.9514C6.36738 20.6585 5.84896 21.4299 5.30441 22.197C4.75985 22.9684 4.18915 23.7441 3.50519 24.4726C2.82558 25.1926 2.00658 25.8869 0.965389 26.2812C0.704002 26.3797 0.407761 26.1269 0.31192 25.7455C0.21608 25.364 0.281429 25.0212 0.451328 24.9569C1.18321 24.6826 1.84975 24.1469 2.45094 23.5127C3.05213 22.8741 3.59233 22.1413 4.12381 21.3913C4.65966 20.637 5.18242 19.8571 5.77926 19.09C6.07985 18.7085 6.39788 18.3271 6.75511 17.9671L7.00778 17.7228L7.24738 17.4743C7.41728 17.3029 7.58719 17.1314 7.76145 16.9643C9.15987 15.6315 10.7369 14.4401 12.5623 13.6173C13.4728 13.2101 14.4486 12.9016 15.4724 12.773C16.5092 12.6401 17.5373 12.7087 18.548 12.9401C19.5544 13.1758 20.5084 13.6001 21.3536 14.1487C22.2074 14.6929 22.9567 15.3529 23.6364 16.0515C24.316 16.7543 24.9259 17.5 25.5009 18.2585C25.7884 18.64 26.0673 19.0214 26.3417 19.4028L26.7512 19.9771C26.8776 20.1613 27.0257 20.3585 27.1607 20.5685C27.7009 21.387 28.1496 22.2056 28.6201 23.0113C29.0863 23.8127 29.5524 24.6012 30.0621 25.3512C30.5718 26.1012 31.1164 26.8126 31.7306 27.4297C32.3449 28.0468 33.0332 28.5654 33.7869 28.8654C33.9655 28.9382 34.0221 29.2854 33.9089 29.6582C33.7999 30.0268 33.4994 30.271 33.2467 30.1725Z" />
<path d="M33.1421 26.354C31.552 25.1583 30.3366 23.6198 29.291 22.0513C28.2411 20.4785 27.348 18.85 26.3853 17.3029C25.4225 15.7601 24.3944 14.2687 23.0874 13.1158C22.4383 12.5416 21.7195 12.0616 20.9397 11.7187C20.1599 11.3716 19.3235 11.1616 18.4609 11.0759C16.7357 10.9088 14.9278 11.2173 13.2201 11.7402C11.5167 12.2716 9.90046 13.0901 8.55431 14.2044C7.21688 15.2972 6.17134 16.81 5.04737 18.2843C4.48975 19.0257 3.92776 19.7671 3.33964 20.4999C2.74717 21.2327 2.1547 21.9613 1.41846 22.6513C1.23549 22.8227 0.860821 22.7113 0.616859 22.407C0.368542 22.1027 0.285778 21.7599 0.433895 21.6227C1.05251 21.0399 1.64063 20.3328 2.21132 19.6256C2.78202 18.9142 3.33529 18.1814 3.89292 17.44C4.45054 16.7029 4.99945 15.9572 5.60064 15.2158L5.83153 14.9372L6.06678 14.6715C6.2149 14.4958 6.3761 14.3072 6.55036 14.1315C6.89016 13.7715 7.25174 13.4373 7.63075 13.1244C9.15115 11.8687 10.9329 10.9773 12.7888 10.3945C13.7211 10.1031 14.6664 9.8888 15.6379 9.75166C16.6094 9.61881 17.607 9.57167 18.609 9.67023C19.6066 9.7688 20.6086 10.0174 21.5365 10.4288C22.4645 10.8402 23.3096 11.4102 24.0502 12.0616C25.5358 13.3816 26.6249 14.9801 27.6138 16.5657C28.6027 18.1557 29.4914 19.7714 30.4978 21.2756C31.4997 22.7756 32.6237 24.1855 34.0178 25.2269C34.1877 25.3512 34.1397 25.7069 33.9132 26.0326C33.6823 26.3497 33.3382 26.4997 33.1421 26.354Z" />
<path d="M27.3219 13.7201C26.7643 13.0044 26.1892 12.3059 25.5793 11.6802C25.27 11.3673 24.9607 11.0802 24.6253 10.8316C24.268 10.5616 23.9021 10.3045 23.5318 10.0645C22.0419 9.09597 20.4039 8.3717 18.6831 8.09314C16.9666 7.80172 15.1892 7.97743 13.4902 8.48313C13.0632 8.60741 12.645 8.75312 12.2268 8.91169L11.9131 9.03597C11.8173 9.07454 11.7214 9.11311 11.63 9.15596C11.4426 9.24168 11.2509 9.34024 11.0593 9.44738C10.3012 9.87166 9.56066 10.3902 8.85056 10.9431C7.426 12.0487 6.09292 13.2873 4.84698 14.6029C3.60539 15.9186 2.45093 17.32 1.44459 18.8071C1.32261 18.9871 0.956665 18.9657 0.621216 18.7557C0.28577 18.5457 0.115875 18.2157 0.246571 18.0228C1.30519 16.4586 2.5032 15.0058 3.79271 13.6387C5.08658 12.2759 6.46322 10.9945 7.96184 9.8288C8.7155 9.25025 9.49096 8.69741 10.3492 8.21742C10.567 8.09743 10.7848 7.98171 11.0201 7.87457C11.1333 7.81886 11.2553 7.77172 11.3729 7.72458L11.704 7.59601C12.1527 7.42459 12.6102 7.26602 13.0763 7.12888C14.9322 6.57604 16.9623 6.36605 18.9183 6.70032C20.8787 7.02174 22.7084 7.84029 24.3203 8.88597C24.7255 9.14739 25.1175 9.42596 25.5009 9.71309C25.9104 10.0174 26.2764 10.3602 26.6162 10.7031C27.2914 11.3973 27.8882 12.1259 28.4633 12.863C30.7417 15.82 32.7413 18.9014 34.95 21.8156C35.0851 21.9956 34.937 22.3256 34.619 22.5613C34.3009 22.797 33.9306 22.8398 33.7956 22.6598C31.5564 19.6985 29.5437 16.6 27.3219 13.7201Z" />
<path d="M33.9089 17.4314C33.5691 17.6328 33.2075 17.6543 33.0942 17.4786C32.175 16.03 31.2035 14.5944 30.2059 13.193C29.2039 11.7959 28.1714 10.4116 27.0518 9.13882C24.9781 6.52033 21.628 5.35465 18.2736 5.09752C16.592 4.97323 14.8842 5.07609 13.2419 5.42322C12.4141 5.59893 11.63 5.83464 10.8414 6.14748C10.0529 6.45176 9.29927 6.81175 8.57174 7.22745C7.12105 8.05885 5.82718 9.14311 4.66401 10.3645C3.49648 11.5859 2.44658 12.9401 1.42717 14.3287C1.30519 14.5001 0.939236 14.4529 0.616859 14.2258C0.294483 13.9987 0.133305 13.6773 0.25964 13.5015C1.29648 12.0873 2.37687 10.6902 3.61846 9.39167C4.85134 8.09743 6.25847 6.9146 7.84857 6.00177C8.63709 5.5475 9.46917 5.14894 10.3143 4.82324C11.1508 4.48896 12.0525 4.21897 12.9413 4.03041C14.7318 3.65327 16.5658 3.54185 18.3868 3.6747C20.2035 3.81184 22.0201 4.19754 23.7235 4.92181C24.573 5.28608 25.392 5.74035 26.1457 6.29319C26.5203 6.56747 26.8906 6.88889 27.213 7.21031C27.5397 7.53173 27.8447 7.86172 28.1409 8.19599C29.3215 9.53738 30.3671 10.9431 31.3865 12.3659C32.4015 13.793 33.3774 15.2372 34.3184 16.7157C34.436 16.9172 34.253 17.2343 33.9089 17.4314Z" />
<path d="M33.2031 11.1273C32.8415 11.2945 32.4886 11.2988 32.4059 11.1402C31.0423 8.50027 28.9686 6.19034 26.5377 4.41611C25.3179 3.53328 23.9979 2.78759 22.5995 2.26474C21.9025 2.00332 21.188 1.79762 20.4605 1.66905C19.7243 1.54048 18.9706 1.45905 18.2169 1.42905C15.2023 1.31334 12.1353 1.93047 9.40383 3.19472C8.04026 3.83327 6.7551 4.61753 5.63985 5.62036C5.04737 6.12177 4.47668 6.62318 3.9539 7.15031C3.43113 7.67744 2.96064 8.23456 2.61648 8.82597C2.53807 8.9674 2.18954 8.94597 1.82795 8.77883C1.47072 8.6117 1.25727 8.31599 1.36182 8.12742C1.79747 7.37316 2.34637 6.73889 2.92142 6.16034C3.49648 5.58179 4.10203 5.05466 4.69886 4.54896C5.9056 3.46471 7.32144 2.59902 8.78957 1.91333C11.7432 0.55051 15.0106 -0.10947 18.2779 0.014812C19.0926 0.0490967 19.9072 0.130523 20.7175 0.276233C21.5409 0.421943 22.3381 0.653364 23.1092 0.940498C24.6514 1.51905 26.0803 2.32903 27.3872 3.27614C28.6942 4.22754 29.8922 5.32037 30.9552 6.5289C32.0182 7.73744 32.9504 9.06597 33.6867 10.5059C33.7825 10.6773 33.5603 10.9602 33.2031 11.1273Z" />
<path d="M0.0418205 28.9425C0.595089 28.9082 1.19191 28.6682 1.74954 28.3425C2.31152 28.0125 2.83865 27.5926 3.33093 27.134C3.82321 26.6712 4.27629 26.1655 4.6858 25.6255C5.08223 25.0983 5.44381 24.5412 5.70084 23.9755C5.70084 23.9498 5.70085 23.9284 5.7052 23.9027C5.70956 23.847 5.74005 23.7955 5.78362 23.757C5.89688 23.397 6.1452 23.0413 6.57649 23.1355C6.79432 23.1827 6.92937 23.3412 7.01214 23.5298C7.02085 23.5512 7.02956 23.5727 7.03391 23.5941C7.07748 23.7141 7.09926 23.8469 7.11233 23.9669C7.12975 23.9927 7.13847 24.0184 7.13847 24.0398C7.08183 24.5884 7.21689 25.2055 7.46085 25.784C7.70481 26.3669 8.05333 26.924 8.46719 27.434C9.29927 28.4497 10.3884 29.2768 11.6038 29.7911C11.9088 29.9196 12.2181 30.031 12.5361 30.121C12.8628 30.211 13.1722 30.2839 13.4858 30.3182C14.1131 30.3953 14.7535 30.3482 15.3634 30.1896C16.5876 29.8682 17.6898 29.0754 18.4914 28.0597C19.293 27.0397 19.8157 25.7926 19.9551 24.5155C19.99 24.1984 19.9987 23.8769 19.9856 23.5555C19.9813 23.397 19.9639 23.2341 19.9464 23.0627C19.929 22.8956 19.9116 22.7284 19.8854 22.5698C19.7852 21.9184 19.6153 21.3142 19.3017 20.847C18.9967 20.3799 18.5349 20.0456 17.9512 19.8142C17.668 19.6985 17.3413 19.6042 17.0407 19.5357C16.7444 19.4714 16.4482 19.4499 16.1563 19.4671C15.5813 19.4971 15.0149 19.7156 14.6751 20.0671C14.5052 20.2342 14.4137 20.4313 14.4137 20.547C14.4137 20.577 14.4137 20.6028 14.4224 20.6242C14.4617 20.6156 14.5052 20.6113 14.5488 20.6156C14.8755 20.4871 15.2197 20.3842 15.5943 20.3371C16.1737 20.2556 16.8577 20.3328 17.4284 20.6756C18.0035 21.0099 18.3955 21.5542 18.6046 22.1027C18.8181 22.6556 18.8835 23.2213 18.853 23.7698C18.792 24.8669 18.3563 25.9083 17.6636 26.744C16.971 27.584 16.0126 28.1882 14.9931 28.5054C14.7405 28.5868 14.4791 28.6511 14.2221 28.6982C13.9389 28.7497 13.647 28.7754 13.3638 28.7711C12.7975 28.7582 12.2486 28.6425 11.7389 28.4582C10.7195 28.0854 9.83076 27.4426 9.1468 26.6326C8.46283 25.8226 7.99233 24.8326 7.805 23.7912C7.61332 22.7498 7.70917 21.6827 7.99234 20.7013C8.00541 20.6628 8.05332 20.6328 8.12303 20.6199C8.15352 20.5471 8.18837 20.4785 8.23194 20.4099C8.36699 20.1956 8.60659 20.1785 8.7852 20.2685C8.83748 20.2685 8.88976 20.2771 8.93768 20.2899C9.17729 20.3585 9.32977 20.5556 9.35155 20.7913C9.35591 20.8556 9.34719 20.9199 9.32541 20.9756C9.36462 21.0142 9.3864 21.0485 9.37769 21.0785C9.14244 21.8884 9.07709 22.7327 9.22521 23.5341C9.36897 24.3355 9.7262 25.0941 10.2577 25.7197C10.7848 26.3454 11.4819 26.8426 12.2399 27.1211C12.6189 27.2583 13.0153 27.3397 13.3943 27.3483C13.586 27.3526 13.769 27.3354 13.952 27.3011C14.1567 27.2626 14.3615 27.2111 14.5575 27.1511C15.346 26.9069 16.0474 26.4569 16.5528 25.844C17.0625 25.2355 17.3761 24.4598 17.4197 23.6927C17.472 22.9298 17.1932 22.167 16.6922 21.8884C16.5048 21.777 16.2783 21.7213 16.0256 21.7213C16.0518 21.7727 16.0779 21.8284 16.0953 21.8799C16.3219 22.4884 16.2827 23.0798 16.1433 23.6155C15.9995 24.1512 15.7337 24.6569 15.3112 25.0812C15.0977 25.2912 14.845 25.4798 14.5444 25.6083C14.2482 25.7412 13.9084 25.8097 13.5773 25.8012C12.9064 25.784 12.3531 25.4926 11.9262 25.1755C11.4993 24.8541 11.1377 24.4726 10.8458 24.0312C10.2664 23.157 9.99631 22.1113 10.0486 21.087C10.0965 20.0628 10.4755 19.0428 11.129 18.2328C11.4557 17.83 11.8434 17.4743 12.2704 17.1872C12.4838 17.0414 12.706 16.9129 12.9326 16.8014C13.1504 16.6943 13.3638 16.5957 13.5904 16.5015C14.4791 16.1329 15.4549 15.8758 16.4656 15.85C17.4763 15.82 18.5044 16.0515 19.4062 16.48C20.3124 16.9086 21.0922 17.5043 21.7718 18.16C22.4557 18.8157 23.0526 19.5271 23.6015 20.2556C24.1548 20.9799 24.6601 21.7256 25.1698 22.437L25.5532 22.9641C25.6839 23.1355 25.832 23.337 25.9627 23.5255C26.2284 23.9069 26.4724 24.2969 26.7076 24.6912C27.6356 26.2554 28.3979 27.8625 29.3215 29.3025C29.5698 29.6882 29.7659 29.9839 30.0403 30.2668C30.3061 30.5496 30.6067 30.7982 30.9465 31.0253C31.6174 31.4839 32.4277 31.861 33.238 32.341C33.4384 32.461 33.4209 32.8252 33.2031 33.1552C32.9853 33.4809 32.6716 33.6609 32.493 33.5538C31.7655 33.1167 30.9378 32.7395 30.1275 32.191C29.7223 31.9167 29.3302 31.5996 28.9861 31.231C28.8118 31.0467 28.6506 30.8539 28.5025 30.6525C28.35 30.4425 28.2324 30.2539 28.1061 30.0653C28.0973 30.0525 28.0886 30.0353 28.0799 30.0225C27.9754 30.511 27.8316 30.9867 27.653 31.441C27.1128 32.8081 26.3199 34.0295 25.3833 35.1309C24.4423 36.2237 23.3401 37.1965 22.0593 37.9465C20.8003 38.6708 19.4629 39.2236 18.0775 39.6222C15.2981 40.4193 12.3749 40.5564 9.54323 40.235C8.12739 40.0765 6.72461 39.8022 5.35233 39.4336C3.98005 39.0608 2.63391 38.6065 1.32262 38.0151C1.16143 37.9422 1.17014 37.5951 1.34875 37.2437C1.52301 36.8923 1.78439 36.6651 1.92815 36.7294C3.13925 37.278 4.42876 37.7151 5.73134 38.0665C7.03828 38.4179 8.36699 38.6751 9.70878 38.8251C12.3836 39.1293 15.1151 38.9922 17.6767 38.2594C18.9532 37.8951 20.1904 37.3765 21.3318 36.7208C22.4383 36.0737 23.436 35.1995 24.2855 34.2095C25.1306 33.2195 25.8451 32.1053 26.3112 30.9267C26.5421 30.3353 26.7076 29.7311 26.7686 29.1311C26.8296 28.5354 26.7817 27.9483 26.5813 27.4426C26.5769 27.4297 26.577 27.4126 26.577 27.3997C26.4855 27.2283 26.394 27.0611 26.3025 26.894C26.2415 27.4854 26.1413 28.0768 25.9888 28.6597C25.6316 30.0568 24.9825 31.3939 24.0763 32.5381C23.1746 33.6867 22.0288 34.6295 20.7742 35.3495C19.5195 36.0737 18.1603 36.5794 16.7706 36.918C13.9868 37.5908 11.1028 37.6165 8.31035 37.218C5.51787 36.8108 2.79944 35.9709 0.263988 34.7495C0.107155 34.6723 0.128941 34.3295 0.307556 33.9824C0.486172 33.6352 0.751915 33.4081 0.895679 33.4809C3.29608 34.6381 5.8751 35.4352 8.51511 35.8209C11.1508 36.198 13.8605 36.168 16.4177 35.5466C17.6942 35.2337 18.927 34.7752 20.0423 34.1281C21.1575 33.4852 22.1551 32.6624 22.9306 31.6724C23.7104 30.6825 24.268 29.5339 24.5861 28.3125C24.9041 27.0911 24.9825 25.8055 24.8954 24.5241C24.8518 24.4598 24.8126 24.3955 24.769 24.3355C24.647 24.1598 24.5294 24.0012 24.39 23.817L24.146 23.4827C24.2114 24.5584 24.0589 25.6426 23.7365 26.6583C23.3314 27.9397 22.6736 29.1182 21.872 30.1725C21.0617 31.2224 20.112 32.161 18.9924 32.9281C18.4347 33.3052 17.8118 33.6524 17.1191 33.8666C16.4787 34.0724 15.8122 34.2181 15.1456 34.3081C14.3876 34.4066 13.6209 34.4366 12.8541 34.3852C12.8498 34.3895 12.8454 34.3938 12.8411 34.3938C11.7563 34.4409 10.7282 34.2438 9.76106 33.9995C8.78957 33.7509 7.866 33.4467 6.95114 33.1724C5.1345 32.6238 3.3048 32.2038 1.56221 32.4867L1.55785 32.4824C1.1832 32.551 0.808552 32.5981 0.433895 32.6324C0.394688 32.6367 0.338051 32.3238 0.307556 31.9338C0.277061 31.5439 0.277061 31.2267 0.307556 31.2224C1.39231 31.1282 2.45964 30.8882 3.36578 30.4125C4.21964 29.9668 4.89925 29.2939 5.31747 28.454C5.31312 28.4368 5.31311 28.4154 5.31311 28.3854C5.31311 28.364 5.31312 28.334 5.32183 28.2911C5.33055 28.2611 5.33054 28.2568 5.34361 28.2054C5.36539 28.154 5.36104 28.1368 5.43945 28.0254C5.45688 28.004 5.4743 27.9825 5.49173 27.9611L5.52223 27.9311C5.54401 27.9097 5.56579 27.8925 5.59193 27.8754C5.69213 27.8025 5.81411 27.7554 5.93609 27.7425C6.06243 27.7254 6.21926 27.7554 6.31074 27.794C6.36302 27.8154 6.41094 27.8454 6.45886 27.8797C6.48064 27.8968 6.50242 27.914 6.5242 27.9354L6.546 27.9611C6.56342 27.9783 6.57649 27.9911 6.58956 28.0083C6.62441 28.0511 6.62877 28.064 6.64184 28.0768C6.70718 28.184 6.71154 28.2054 6.72461 28.244L6.75511 28.3254L6.76382 28.3468L6.77253 28.3768C7.03827 29.4739 7.60025 30.4725 8.42362 31.2224C9.24264 31.981 10.3056 32.4824 11.4383 32.7524C12.571 33.0181 13.7777 33.061 14.9496 32.9067C15.5377 32.8295 16.1128 32.701 16.6747 32.521C17.1932 32.3624 17.6898 32.0881 18.1734 31.7624C19.1361 31.1024 19.9987 30.2582 20.7175 29.3239C21.4363 28.3854 22.0114 27.344 22.3599 26.2426C22.7084 25.1455 22.8173 23.9884 22.63 22.8741C22.447 21.7599 21.9678 20.697 21.2839 19.7542C21.2795 19.7456 21.2751 19.7328 21.2708 19.7199C21.1009 19.5399 20.931 19.3599 20.7567 19.1928C20.1512 18.6143 19.489 18.1171 18.7702 17.7743C18.0514 17.4314 17.2759 17.26 16.4874 17.2814C15.6989 17.2986 14.9017 17.5 14.1393 17.8214C13.9476 17.9028 13.7559 17.9886 13.573 18.0786C13.3987 18.1643 13.2331 18.2628 13.0763 18.37C12.7626 18.5843 12.4838 18.8371 12.2486 19.1285C11.7824 19.7071 11.5124 20.4271 11.4775 21.1685C11.4383 21.9099 11.6387 22.6641 12.0438 23.2727C12.4272 23.8598 13.1329 24.4126 13.6034 24.4041C13.8387 24.4084 14.0652 24.3141 14.2787 24.1041C14.4878 23.8984 14.6577 23.5898 14.7405 23.2727C14.8276 22.9555 14.8232 22.6213 14.7361 22.3941C14.6621 22.2141 14.5706 22.1199 14.4137 22.0599C14.3832 22.1156 14.3484 22.167 14.3005 22.2141C14.0391 22.4713 13.5773 22.4841 13.3159 22.2141C12.9369 21.8199 12.8323 21.3656 12.8323 20.8385C12.8323 20.6885 12.8846 20.547 12.9718 20.4313C13.024 19.8614 13.3116 19.4242 13.6296 19.0985C14.3092 18.4257 15.1979 18.13 16.0561 18.0743C16.4874 18.0486 16.9187 18.0871 17.3282 18.1728C17.729 18.2628 18.0993 18.37 18.4827 18.5243C18.8617 18.6785 19.2407 18.8757 19.5892 19.1371C19.9377 19.3985 20.2514 19.7242 20.4866 20.0885C20.9746 20.8213 21.1706 21.627 21.2882 22.377C21.3187 22.5656 21.3405 22.7541 21.3579 22.9427C21.3753 23.1227 21.3928 23.3155 21.4015 23.5127C21.4189 23.9069 21.4058 24.2969 21.3666 24.6869C21.1967 26.2426 20.5738 27.7211 19.611 28.9511C18.6482 30.1768 17.3021 31.1667 15.7207 31.5824C14.9365 31.7881 14.1044 31.8481 13.2985 31.7496C12.8933 31.7024 12.4969 31.6124 12.1266 31.5096C11.7476 31.4024 11.3773 31.2739 11.0201 31.1196C9.58244 30.5067 8.31035 29.5468 7.33015 28.3468C6.84223 27.7468 6.41966 27.0826 6.11471 26.3497C6.09293 26.2983 6.07114 26.2426 6.05371 26.1869C5.97965 26.294 5.9056 26.3969 5.82718 26.4997C5.36976 27.0997 4.86876 27.6611 4.31549 28.184C3.76223 28.7025 3.16104 29.1825 2.47707 29.5853C1.79747 29.9796 1.02637 30.3182 0.128941 30.3825C0.0723076 30.3868 0.0156822 30.0696 0.00261307 29.6796C-0.0060997 29.2639 0.00696564 28.9425 0.0418205 28.9425ZM5.9056 30.1553C5.81411 30.2668 5.71391 30.3782 5.61371 30.4853C5.36975 30.7382 5.10401 30.961 4.82084 31.1667C5.53095 31.2953 6.21926 31.4667 6.89016 31.6596C6.49808 31.201 6.16698 30.691 5.9056 30.1553Z" />
<path d="M2.44222 40.1665C2.66439 40.295 2.95628 40.4193 3.24816 40.5264C3.5444 40.6379 3.84936 40.7364 4.16302 40.8307C4.78599 41.015 5.42203 41.1693 6.06679 41.3064C7.35629 41.5764 8.66758 41.7564 9.98323 41.8635C12.6102 42.065 15.2763 41.9621 17.8074 41.3621C19.0708 41.0579 20.295 40.625 21.4233 40.0293C21.7064 39.8793 21.9765 39.725 22.251 39.5493C22.5298 39.3779 22.8043 39.1979 23.0831 39.0136C23.6363 38.6494 24.1853 38.2679 24.7429 37.8865C25.8668 37.1323 27.0082 36.3394 28.4023 35.8166C29.095 35.5637 29.8748 35.3966 30.6764 35.4395C31.478 35.4823 32.2621 35.7523 32.9156 36.1466C33.0811 36.2451 33.0201 36.5923 32.7936 36.9094C32.5671 37.2308 32.2883 37.428 32.1706 37.3551C31.674 37.0594 31.1425 36.8794 30.5936 36.8494C30.0447 36.8151 29.4696 36.9308 28.9033 37.1408C27.7619 37.5651 26.6641 38.3022 25.5619 39.0479C25.0086 39.425 24.4554 39.8108 23.889 40.1879C23.6059 40.3764 23.3183 40.565 23.0221 40.745C22.7259 40.9293 22.4165 41.1093 22.1029 41.2764C20.8482 41.9407 19.5108 42.4121 18.1472 42.7378C15.4201 43.3849 12.6145 43.4878 9.86561 43.2778C8.48897 43.1707 7.12105 42.9778 5.76619 42.695C5.09094 42.5535 4.4157 42.3907 3.7448 42.1893C3.40936 42.0907 3.07391 41.9793 2.73846 41.855C2.39866 41.7264 2.06756 41.5936 1.70597 41.3878C1.51865 41.2807 1.54914 40.8907 1.82796 40.6122C2.11113 40.325 2.34202 40.1065 2.44222 40.1665Z" />
<path d="M3.71867 43.6549C5.89689 44.5078 8.28422 44.9492 10.6672 45.1463C13.0458 45.3263 15.4767 45.2706 17.7639 44.7606C18.3346 44.632 18.8922 44.4692 19.4237 44.2678C19.6894 44.1649 19.9464 44.0535 20.1947 43.9292L20.5781 43.7235L20.9789 43.5049C22.0462 42.9221 23.1005 42.3221 24.1591 41.7136C25.2221 41.1093 26.272 40.4879 27.4177 39.9308C27.9972 39.6608 28.5983 39.3865 29.3346 39.2536C29.7005 39.1893 30.1231 39.1765 30.537 39.2793C30.9552 39.3779 31.3342 39.5879 31.6304 39.8279C31.7829 39.9479 31.6609 40.2779 31.3821 40.5564C31.1033 40.835 30.8071 40.9936 30.7287 40.9293C30.3714 40.6464 30.0578 40.5736 29.5785 40.6507C29.108 40.7279 28.5722 40.955 28.0494 41.2036C26.9995 41.7136 25.9409 42.3392 24.8823 42.9392C23.8237 43.5478 22.7563 44.1521 21.6803 44.7435L21.2752 44.962L20.8526 45.1892C20.5563 45.3392 20.2514 45.472 19.9464 45.5877C19.3365 45.8234 18.7136 45.9991 18.0862 46.1406C16.8359 46.4234 15.5769 46.5648 14.3179 46.6248C13.0589 46.6848 11.7999 46.6548 10.5496 46.5563C9.29928 46.4577 8.05333 46.2863 6.82046 46.0291C5.58758 45.772 4.36777 45.4377 3.17846 44.9663C3.03034 44.9063 3.04342 44.5678 3.20025 44.2078C3.35272 43.8478 3.58797 43.5992 3.71867 43.6549Z" />
<path d="M5.95351 47.6834C9.65213 48.4976 13.4771 48.9005 17.1627 48.2791C18.0819 48.1248 18.988 47.9062 19.8854 47.6362C20.234 47.5291 20.5781 47.4134 20.9223 47.2977C21.2403 47.1691 21.6019 46.972 21.9548 46.7663C22.3076 46.5563 22.6605 46.3334 23.0134 46.1063L25.1437 44.7092C25.8625 44.2421 26.59 43.7749 27.3655 43.3464C27.7575 43.1321 28.1583 42.9264 28.6201 42.755C28.8554 42.6735 29.0993 42.5921 29.4391 42.5621C29.5219 42.5535 29.6134 42.5535 29.7223 42.5621C29.8443 42.575 29.9445 42.5964 30.0447 42.6307C30.2451 42.7035 30.428 42.8278 30.5587 42.9907C30.6241 43.0849 30.3976 43.3592 30.0752 43.5864C29.792 43.7878 29.5655 43.9549 29.5698 43.9635C29.5698 43.9635 29.5655 43.9635 29.5829 43.9678C29.5873 43.9678 29.5655 43.9678 29.5437 43.9678C29.4522 43.9721 29.2823 44.0149 29.1211 44.0749C28.7857 44.1992 28.4241 44.3792 28.0668 44.5763C27.4395 44.9235 26.8166 45.3177 26.1936 45.7206C26.4811 45.6991 26.773 45.6906 27.0649 45.7077C27.6094 45.7377 28.1496 45.8363 28.6637 45.9991C28.79 46.0377 28.7813 46.372 28.6506 46.7405C28.5156 47.1091 28.3282 47.3791 28.2324 47.3491C27.4134 47.092 26.577 47.0534 25.7187 47.212C24.8605 47.3662 23.9805 47.6919 23.0831 48.0219C22.1856 48.3562 21.2621 48.7033 20.3124 48.9905C19.3627 49.2776 18.3912 49.5133 17.411 49.6762C15.4419 50.0104 13.4422 50.0662 11.4688 49.9333C9.4953 49.8005 7.55232 49.4876 5.63984 49.0676C5.52222 49.0419 5.50044 48.7119 5.58757 48.3305C5.67905 47.9491 5.8446 47.6577 5.95351 47.6834Z" />
</svg>
