<svg width="33" height="51" viewBox="0 0 33 51" fill="white" xmlns="http://www.w3.org/2000/svg">
<path d="M23.626 46.4879C22.886 45.5269 22.2417 44.4828 21.6847 43.3929C20.5706 41.209 19.8016 38.8461 19.2903 36.4292C19.0326 35.2187 18.8413 33.9915 18.7042 32.7602C18.6709 32.4482 18.6377 32.1445 18.6169 31.8492C18.5961 31.5497 18.5836 31.2418 18.5795 30.9382C18.567 30.3266 18.5795 29.711 18.6086 29.087C18.6584 27.8432 18.7665 26.591 18.8206 25.3056C18.8413 24.6609 18.8621 24.0119 18.7873 23.3089C18.7416 22.9553 18.6917 22.5892 18.4839 22.1607C18.4298 22.0526 18.3633 21.9444 18.2511 21.8155C18.1471 21.6948 18.0266 21.595 17.8894 21.5201C17.6192 21.3662 17.2908 21.3163 16.9874 21.3745C16.8336 21.4078 16.6881 21.466 16.555 21.5492C16.4927 21.5867 16.4179 21.6408 16.368 21.6782C16.3181 21.7156 16.2765 21.7572 16.235 21.7988C16.0687 21.9611 15.9481 22.1191 15.8442 22.2814C15.6364 22.6017 15.4826 22.922 15.3537 23.2423C15.096 23.8829 14.9214 24.5236 14.7759 25.1642C14.4974 26.4496 14.3643 27.7475 14.3145 29.0371C14.223 31.6245 14.4807 34.2037 15.0128 36.7246C15.2789 37.985 15.6197 39.2288 16.023 40.4477C16.4262 41.6749 16.925 42.8729 17.4737 44.0294C18.0266 45.19 18.6335 46.3215 19.3152 47.4197C19.997 48.5138 20.7369 49.5829 21.639 50.5646C21.8634 50.8059 22.2708 50.7726 22.5327 50.498C22.7946 50.2235 22.8445 49.8408 22.6491 49.6328C21.8426 48.755 21.136 47.7442 20.4875 46.7C19.839 45.6517 19.2529 44.5577 18.7208 43.4428C18.1887 42.3238 17.719 41.1882 17.3324 40.0151C16.9416 38.842 16.6174 37.6481 16.3597 36.4417C15.8484 34.0248 15.6031 31.5497 15.6904 29.0912C15.7361 27.864 15.865 26.641 16.1186 25.4596C16.2474 24.873 16.4095 24.2906 16.6257 23.7623C16.7338 23.5002 16.8543 23.2465 16.9915 23.0385C17.058 22.9345 17.1287 22.8471 17.191 22.7847L17.2409 22.7431C17.2326 22.7307 17.2534 22.7556 17.27 22.7931C17.3407 22.9303 17.403 23.1966 17.4321 23.467C17.4945 24.0202 17.482 24.6401 17.4571 25.2516C17.4072 26.4871 17.2991 27.7517 17.2451 29.0288C17.2201 29.6694 17.2035 30.3142 17.216 30.9631C17.2243 31.2876 17.2368 31.6162 17.2576 31.9407C17.2783 32.2735 17.3158 32.5938 17.349 32.9099C17.4903 34.1829 17.6899 35.4516 17.9559 36.7121C18.488 39.2247 19.2903 41.704 20.475 44.0169C21.0653 45.1734 21.7512 46.284 22.5493 47.324C23.3516 48.3598 24.2495 49.3249 25.3345 50.1403C25.6047 50.34 26.0287 50.236 26.2074 49.8949C26.382 49.5579 26.3779 49.2001 26.1492 49.0338C25.2056 48.339 24.3659 47.4447 23.626 46.4879Z" />
<path d="M30.4849 48.4888C28.1487 46.9954 26.2573 44.8406 24.8814 42.407C23.4971 39.9652 22.6034 37.2487 22.0921 34.4658C21.9632 33.771 21.8593 33.068 21.7761 32.3608C21.7013 31.7119 21.7096 30.9964 21.7221 30.285C21.7512 28.854 21.8219 27.3981 21.8219 25.9296C21.8177 24.4612 21.772 22.9761 21.4644 21.4619C21.3022 20.7089 21.0736 19.9394 20.6164 19.2072C20.3836 18.8453 20.0843 18.4959 19.6977 18.2255C19.6021 18.1589 19.4981 18.0965 19.3942 18.0424C19.2903 17.9842 19.1781 17.9384 19.0824 17.8968C18.8829 17.8178 18.6751 17.7471 18.4589 17.7013C18.0266 17.6015 17.5569 17.5848 17.1038 17.6722C16.6506 17.7596 16.2266 17.9426 15.8608 18.1797C15.1292 18.6623 14.6096 19.3029 14.1814 19.9602C13.3417 21.2872 12.8387 22.7182 12.4563 24.1658C12.2692 24.8938 12.1196 25.6259 12.0198 26.3789L11.9866 26.6618C11.9741 26.7741 11.9699 26.8573 11.9616 26.9571L11.9242 27.5104C11.9034 27.8765 11.8827 28.2425 11.866 28.6086C11.8078 30.0729 11.8037 31.5455 11.8951 33.0223C11.9408 33.7586 12.0074 34.4949 12.1071 35.2312C12.1986 35.9675 12.3482 36.7079 12.4812 37.4068C12.7556 38.8461 13.0715 40.2855 13.5122 41.704C13.9362 43.1142 14.4724 44.4995 15.071 45.8431C15.3745 46.517 15.6946 47.1868 16.0604 47.8399C16.4262 48.4971 16.8169 49.1419 17.3407 49.7617C17.4696 49.9115 17.6566 49.9947 17.8395 49.9947C18.0224 49.9947 18.1929 49.9115 18.3134 49.7659C18.5462 49.4664 18.5753 49.092 18.3841 48.8632C17.9684 48.3765 17.6026 47.7816 17.2617 47.1743C16.925 46.5628 16.6174 45.9263 16.3264 45.2774C15.7486 43.9753 15.2373 42.6566 14.8258 41.2922C14.4101 39.9444 14.0983 38.5508 13.8323 37.1447C13.6992 36.4209 13.5621 35.7428 13.4706 35.0398C13.375 34.341 13.3126 33.6338 13.2669 32.9266C13.1796 31.5122 13.1796 30.0854 13.2378 28.6585L13.2919 27.5894L13.3251 27.057C13.3334 26.9738 13.3376 26.8739 13.3459 26.8115L13.375 26.5578C13.4664 25.8755 13.6078 25.185 13.7824 24.5111C14.1357 23.1633 14.6221 21.8321 15.3329 20.7048C15.6904 20.1474 16.1144 19.6482 16.6008 19.3362C17.0871 19.02 17.6067 18.9202 18.1513 19.045C18.2885 19.0783 18.4257 19.1199 18.5628 19.1739C18.6335 19.2031 18.6917 19.228 18.7457 19.2571C18.7998 19.2862 18.8538 19.3195 18.9079 19.357C19.1157 19.5026 19.2986 19.7064 19.4607 19.956C19.7767 20.451 19.9845 21.0917 20.1217 21.7489C20.396 23.0801 20.4459 24.5069 20.4501 25.9296C20.4501 27.3565 20.3794 28.7958 20.3503 30.2601C20.342 30.9964 20.3254 31.7327 20.4127 32.5231C20.5 33.2552 20.608 33.9874 20.7411 34.7153C21.2731 37.6231 22.2126 40.4851 23.6883 43.0892C25.1557 45.685 27.1926 48.0187 29.7491 49.6494C30.0609 49.8491 30.4766 49.7326 30.6636 49.404C30.8465 49.0712 30.7634 48.6718 30.4849 48.4888Z" />
<path d="M28.448 42.1533C27.6249 40.8803 26.9598 39.4951 26.4236 38.0641C25.8915 36.6289 25.4841 35.1438 25.2264 33.6379C25.0975 32.885 25.0061 32.1279 24.9687 31.3791C24.9603 31.1919 24.9562 31.0047 24.9562 30.8217L24.9687 29.0496C24.9728 27.4688 24.952 25.8755 24.8148 24.274C24.6777 22.6724 24.4241 21.0625 23.9336 19.4942C23.4763 17.9176 22.5992 16.3161 21.1983 15.2428C20.5041 14.7062 19.6852 14.3068 18.8122 14.1155C17.9393 13.92 17.0165 13.9408 16.156 14.1696C15.2913 14.39 14.489 14.8185 13.8156 15.3551C13.1339 15.8959 12.5727 16.5324 12.0739 17.198C11.0928 18.5416 10.3695 20.0184 9.80419 21.5409C9.24716 23.0676 8.85225 24.6525 8.65688 26.2749C8.55711 27.0819 8.51138 27.9097 8.52801 28.7251C8.54048 29.5279 8.58205 30.3266 8.64441 31.1253C8.90214 34.3077 9.42175 37.4484 10.1409 40.5434C10.5067 42.0909 10.9224 43.63 11.4254 45.1484C11.9284 46.6668 12.502 48.1685 13.2586 49.6161C13.4457 49.9739 13.8738 50.0987 14.2022 49.9073C14.5306 49.716 14.647 49.3041 14.4766 48.9797C13.7782 47.636 13.2212 46.1884 12.7307 44.7199C12.2485 43.2473 11.8369 41.7456 11.4794 40.2314C10.7728 37.1988 10.2615 34.1122 10.012 31.0172C9.95384 30.2434 9.91227 29.4697 9.8998 28.7043C9.88317 27.943 9.92474 27.1984 10.0162 26.4413C10.1991 24.9354 10.5691 23.4462 11.0887 22.0193C11.6125 20.5925 12.2942 19.2197 13.1713 18.0175C13.6119 17.4226 14.1066 16.8735 14.6553 16.4367C15.2123 15.9958 15.8276 15.6713 16.4885 15.5007C17.8104 15.143 19.257 15.4758 20.3503 16.3327C20.899 16.757 21.3688 17.2978 21.7429 17.9052C21.9299 18.2088 22.0962 18.5291 22.2376 18.8619C22.3789 19.1906 22.4994 19.54 22.6117 19.9061C23.0606 21.3454 23.3017 22.8596 23.4347 24.3946C23.5678 25.9296 23.5844 27.4854 23.5802 29.0496L23.5678 30.8217C23.5678 31.0297 23.5719 31.2377 23.5802 31.4457C23.6177 32.2693 23.7174 33.0763 23.8546 33.875C24.1331 35.4725 24.5571 37.0324 25.1183 38.5508C25.6836 40.065 26.3903 41.5334 27.2757 42.9062C28.1612 44.2748 29.2253 45.5519 30.5098 46.6044C30.8258 46.8623 31.2747 46.8082 31.495 46.5004C31.7153 46.1925 31.6613 45.7724 31.3828 45.5436C30.248 44.591 29.2711 43.4262 28.448 42.1533Z" />
<path d="M29.6203 37.4193C29.0009 35.9342 28.5104 34.3826 28.2235 32.8184C28.1529 32.4274 28.0947 32.0364 28.0573 31.6453C28.0198 31.2626 27.9991 30.855 27.9824 30.4431C27.945 29.6278 27.9325 28.8041 27.9201 27.9805C27.8951 26.329 27.8868 24.6567 27.7538 22.9719C27.6166 21.2872 27.3506 19.5816 26.7852 17.9384C26.5026 17.1189 26.1534 16.3202 25.7211 15.559C25.2929 14.806 24.7982 14.078 24.2038 13.4166C23.6135 12.7552 22.9234 12.1603 22.1419 11.6986C21.3646 11.2327 20.4958 10.9082 19.6021 10.7501C18.7083 10.5837 17.8021 10.5796 16.925 10.6836C16.4844 10.7376 16.052 10.8167 15.628 10.9165C15.1957 11.0205 14.8008 11.1328 14.356 11.2909C13.4914 11.6154 12.714 12.1104 12.0365 12.6886C11.3589 13.2669 10.7728 13.9241 10.2531 14.623C9.21391 16.0166 8.4324 17.5474 7.78808 19.1199C7.15207 20.6965 6.6574 22.3188 6.31237 23.9911C6.14194 24.8605 6.07543 25.7175 6.04217 26.5661C6.00891 27.4147 6.02139 28.2633 6.05464 29.1036C6.20429 32.469 6.72806 35.7886 7.45553 39.05C8.1913 42.3113 9.15155 45.5186 10.3155 48.651C10.4568 49.0337 10.8642 49.2334 11.2175 49.0961C11.5709 48.9589 11.7413 48.547 11.6041 48.1726C10.461 45.0943 9.51736 41.9453 8.79821 38.7463C8.08322 35.5473 7.57192 32.2943 7.43058 29.0454C7.39733 28.2342 7.38901 27.423 7.41811 26.616C7.45137 25.8131 7.51788 25.0103 7.66337 24.2573C7.98761 22.6891 8.4615 21.1249 9.06426 19.6357C9.67117 18.1464 10.4153 16.7071 11.3547 15.4425C12.29 14.1862 13.4581 13.0921 14.8382 12.5763C16.2848 12.073 17.8853 11.8234 19.3568 12.0979C20.8367 12.3558 22.1627 13.1753 23.1812 14.3276C23.6925 14.9017 24.1373 15.5465 24.528 16.2329C24.9146 16.9109 25.2347 17.6348 25.4883 18.3794C26.0037 19.8728 26.2573 21.4619 26.3903 23.0759C26.5192 24.69 26.5275 26.3331 26.5524 27.9929C26.5649 28.8208 26.5815 29.6569 26.619 30.4972C26.6397 30.9132 26.6564 31.3375 26.7021 31.7743C26.7437 32.2069 26.806 32.6354 26.885 33.0597C27.1968 34.7528 27.7164 36.3751 28.369 37.9476C29.03 39.5117 29.8156 41.0301 30.8424 42.432C31.096 42.7772 31.5574 42.848 31.8442 42.5984C32.131 42.3529 32.1684 41.9203 31.944 41.6125C30.9962 40.3437 30.2438 38.9002 29.6203 37.4193Z" />
<path d="M7.15623 43.2307C6.68649 41.5667 6.22923 39.9152 5.82601 38.2471C5.01957 34.9192 4.40434 31.5497 4.34614 28.1635C4.27548 24.7856 4.82419 21.412 6.0879 18.2962C6.71975 16.7362 7.48462 15.2387 8.46566 13.8992C9.43838 12.5597 10.6148 11.3658 11.9658 10.4423C13.3168 9.52295 14.8507 8.88648 16.447 8.66601C18.0432 8.44137 19.6852 8.64105 21.2025 9.21511C21.9632 9.49799 22.6907 9.87238 23.3849 10.3133C23.5553 10.4215 23.7299 10.538 23.8962 10.6544C24.0583 10.7668 24.2121 10.8916 24.3659 11.0164C24.6694 11.2701 24.9603 11.5488 25.2305 11.8442C26.3113 13.0381 27.1053 14.519 27.6998 16.0706C28.2942 17.6306 28.6974 19.2738 28.9593 20.9377C29.0258 21.3537 29.0799 21.7739 29.1256 22.1899L29.1879 22.8222C29.2046 23.0135 29.2129 23.2049 29.217 23.4129C29.2253 24.2407 29.1796 25.106 29.1547 25.9712C29.0965 27.7059 29.0715 29.4614 29.217 31.2293C29.2919 32.1112 29.4083 33.0015 29.6078 33.8834C29.8073 34.7653 30.0817 35.6472 30.514 36.4916C30.726 36.9118 31.204 37.0532 31.5117 36.8327C31.8234 36.6123 31.9024 36.1921 31.7361 35.8593C31.3745 35.1646 31.1292 34.3867 30.9505 33.5839C30.7717 32.781 30.6595 31.9532 30.5888 31.117C30.4475 29.4406 30.4724 27.735 30.5306 26.017C30.5556 25.1559 30.6013 24.2989 30.593 23.3962C30.5888 23.1716 30.5805 22.9345 30.5597 22.6932L30.4932 22.036C30.4433 21.595 30.3851 21.1582 30.3186 20.7214C30.0443 18.9743 29.6244 17.2437 28.9884 15.5756C28.3482 13.9116 27.4919 12.2851 26.2531 10.9124C25.9414 10.5712 25.6088 10.2468 25.2513 9.95142C25.0726 9.80166 24.8855 9.66022 24.6943 9.52295C24.5072 9.38983 24.3202 9.26503 24.129 9.14439C23.3641 8.65769 22.5493 8.24169 21.693 7.92138C19.9803 7.27244 18.0931 7.03948 16.2682 7.30156C14.4392 7.55115 12.7057 8.27913 11.2051 9.30247C9.70027 10.3258 8.41993 11.6362 7.36823 13.0838C6.30821 14.5356 5.4893 16.1372 4.82835 17.7762C4.1674 19.4235 3.67688 21.1416 3.37758 22.8929C3.07412 24.6401 2.95773 26.4163 2.98683 28.1801C3.04918 31.7161 3.68519 35.1854 4.50411 38.5633C4.91564 40.2522 5.37706 41.9328 5.8468 43.5926C6.31653 45.2566 6.77379 46.9247 7.32666 48.597C7.46384 49.0088 7.88369 49.2376 8.23703 49.0961C8.58621 48.9506 8.75664 48.5429 8.62778 48.156C8.08322 46.5586 7.62596 44.8905 7.15623 43.2307Z" />
<path d="M32.5259 18.2005C32.2391 16.5158 31.8193 14.8435 31.2082 13.2253C30.9006 12.4182 30.5473 11.6195 30.1232 10.8541C29.9112 10.4714 29.6826 10.0929 29.4332 9.72678C29.1796 9.35655 28.9011 9.00296 28.606 8.67017C27.4171 7.33899 25.9622 6.30734 24.4116 5.51695C22.8569 4.72657 21.19 4.16914 19.4649 3.87795C18.6044 3.73235 17.7231 3.65748 16.8336 3.67828C16.3888 3.69076 15.944 3.72403 15.4992 3.79059C15.0461 3.86131 14.6262 3.95699 14.2022 4.06515C12.5062 4.5061 10.885 5.24656 9.44254 6.2283C7.99593 7.21004 6.71559 8.42473 5.63063 9.7767C3.45241 12.4848 2.00995 15.6879 1.11621 18.9867C0.671422 20.6424 0.363809 22.3313 0.185061 24.0285C0.0146272 25.7299 -0.0601975 27.4397 0.0561965 29.1619C0.168434 30.8674 0.401221 32.548 0.679735 34.2162C0.95825 35.8843 1.2908 37.5358 1.66077 39.1831C2.40902 42.4694 3.27366 45.7266 4.38356 48.9339C4.52074 49.3249 4.92811 49.5371 5.28145 49.404C5.63895 49.2709 5.81354 48.859 5.68052 48.4805C4.59556 45.3522 3.73923 42.1283 3.00346 38.8836C2.63765 37.2612 2.31341 35.6305 2.03905 33.9915C1.76885 32.3567 1.54022 30.7094 1.43214 29.0745C1.32406 27.4522 1.39057 25.8048 1.55685 24.1741C1.72728 22.5435 2.02242 20.9253 2.44643 19.3445C3.2986 16.1913 4.67454 13.1587 6.70312 10.6336C7.71326 9.37735 8.89382 8.25833 10.2157 7.35979C11.5376 6.46125 13.0092 5.79151 14.5514 5.388C15.3371 5.18 16.0811 5.0552 16.871 5.04273C17.6566 5.02609 18.4548 5.08848 19.2404 5.2216C20.8159 5.48784 22.3623 6.00366 23.7881 6.73165C25.2139 7.45963 26.5358 8.40393 27.5792 9.57703C28.6101 10.7335 29.3459 12.1978 29.9237 13.7037C31.0586 16.7445 31.5532 20.0434 31.6281 23.3214C31.6364 23.7207 31.944 24.0452 32.3223 24.0493C32.7005 24.0493 33.0081 23.7124 32.9998 23.2964C32.9666 21.5908 32.8128 19.8894 32.5259 18.2005Z" />
<path d="M0.688049 16.2703C1.05802 16.3535 1.39473 16.2578 1.44461 16.0623C1.86446 14.4316 2.5171 12.8384 3.31107 11.3325C4.1092 9.82662 5.06114 8.39977 6.16688 7.11436C7.27262 5.83311 8.54048 4.69329 9.97046 3.83219C11.3963 2.96693 12.9676 2.40118 14.6262 2.23895C17.9933 1.84376 21.4768 2.27639 24.4989 3.76147C26.0037 4.49778 27.3838 5.48784 28.527 6.69837C29.666 7.90474 30.568 9.34407 31.0336 10.8999C31.0918 11.0871 31.4244 11.1661 31.7943 11.0788C32.1601 10.9914 32.4179 10.7335 32.3514 10.5088C31.811 8.69928 30.7884 7.09356 29.5288 5.75407C28.2651 4.41042 26.7478 3.32884 25.1058 2.52598C23.4638 1.71896 21.693 1.19897 19.893 0.932736C18.0931 0.670662 16.2682 0.666502 14.4724 0.874497C13.5704 0.966015 12.6351 1.16985 11.7663 1.47352C10.8891 1.7772 10.0494 2.18071 9.26379 2.65494C7.68831 3.60756 6.31653 4.84721 5.1318 6.21582C3.94708 7.58859 2.9411 9.09864 2.1014 10.6877C1.26171 12.281 0.571655 13.9532 0.11855 15.7212C0.0603534 15.9458 0.318083 16.1913 0.688049 16.2703Z" />
</svg>
