<svg width="32" height="51" viewBox="0 0 32 51" fill="white" xmlns="http://www.w3.org/2000/svg">
<path d="M31.1364 33.7202C29.3226 33.6986 27.5174 33.3326 25.8551 32.6308C24.1928 31.9289 22.6734 30.8954 21.4007 29.6123C20.128 28.3291 19.102 26.8048 18.3618 25.1513C17.6215 23.4978 17.1626 21.7151 16.9765 19.9023C16.9722 19.8593 16.9202 19.8248 16.838 19.799C16.8077 19.4803 16.5912 19.1789 16.1713 19.1789C15.5869 19.1789 15.3878 19.7645 15.5653 20.1736C15.7731 22.0811 16.2622 23.9628 17.0501 25.7283C17.8553 27.5282 18.9765 29.1989 20.3747 30.6113C21.773 32.0236 23.4482 33.169 25.288 33.9398C27.1278 34.7148 29.1191 35.1153 31.1061 35.1411C31.2273 35.1411 31.3269 34.8268 31.3269 34.4306C31.3356 34.0388 31.2447 33.7202 31.1364 33.7202Z" />
<path d="M31.2273 29.7415C29.7122 29.8017 28.1754 29.5434 26.7902 28.9578C25.4006 28.3765 24.1755 27.4507 23.2058 26.2881C22.721 25.7068 22.2968 25.0738 21.9331 24.4021C21.8422 24.2341 21.7513 24.0619 21.6777 23.9026C21.5998 23.7389 21.5262 23.5624 21.4569 23.3858C21.3141 23.0285 21.1842 22.6581 21.0587 22.2835C20.8076 21.5343 20.5782 20.7721 20.3574 20.0057L20.0371 18.8517L19.721 17.646L19.6431 17.4565L19.5782 17.3058C19.5349 17.2068 19.4873 17.1077 19.4353 17.0044C19.3314 16.8063 19.2189 16.6126 19.089 16.4231C18.8293 16.0485 18.5089 15.6954 18.115 15.4069C17.7254 15.1184 17.2622 14.9031 16.773 14.8041C16.2839 14.7007 15.7731 14.7136 15.2969 14.8256C14.3358 15.0495 13.5393 15.6351 12.9722 16.3413C12.3965 17.0518 12.0372 17.8914 11.8554 18.744C11.4874 20.4664 11.8034 22.2103 12.4008 23.7389C12.9722 25.2374 13.6649 26.6885 14.4874 28.0707C16.128 30.8309 18.3011 33.3197 20.9721 35.1842C22.3054 36.1143 23.7643 36.8807 25.3054 37.4319C26.8465 37.9874 28.4698 38.3189 30.1018 38.4137C30.4092 38.4309 30.6602 38.1209 30.6689 37.729C30.6776 37.3329 30.4611 37.0099 30.1841 36.9927C27.1798 36.8248 24.2578 35.7483 21.7903 34.0173C19.3098 32.2906 17.2665 29.9568 15.7168 27.343C14.9376 26.0383 14.2796 24.6561 13.7385 23.2308C13.2017 21.8615 12.9636 20.3932 13.2536 19.0411C13.3965 18.3694 13.6779 17.7364 14.0891 17.2283C14.496 16.7202 15.0415 16.3413 15.6215 16.2078C16.2016 16.07 16.786 16.1949 17.2665 16.5523C17.509 16.7288 17.7254 16.9614 17.9072 17.2283C17.9981 17.3618 18.0847 17.5039 18.1626 17.6546C18.2016 17.7278 18.2362 17.8053 18.2708 17.8828L18.3228 17.9991L18.3574 18.0809L18.6561 19.2177L18.9808 20.3932C19.2059 21.1769 19.4397 21.9563 19.7037 22.7356C19.8336 23.1275 19.9721 23.515 20.128 23.9069C20.2059 24.1049 20.2881 24.2987 20.3834 24.5011C20.4786 24.7078 20.5782 24.8929 20.6777 25.0781C21.0847 25.823 21.5608 26.5378 22.1106 27.1966C23.2102 28.5186 24.6344 29.5951 26.2361 30.2668C27.8335 30.9428 29.5694 31.2313 31.2923 31.1624C31.6039 31.1495 31.8291 30.805 31.7858 30.4175C31.7425 30.0257 31.4957 29.7285 31.2273 29.7415Z" />
<path d="M29.5304 40.5796C26.8897 40.093 24.2967 39.361 21.9201 38.1984C19.5436 37.0444 17.4137 35.4253 15.7298 33.4058C14.0372 31.3949 12.7774 29.031 11.8424 26.5421C11.3619 25.2934 10.9939 24.0403 10.7645 22.7486C10.535 21.4611 10.4398 20.1521 10.561 18.8818C10.6822 17.6158 11.0372 16.38 11.6995 15.3552C12.0329 14.8342 12.4311 14.395 12.9116 13.9773C13.3835 13.5682 13.8943 13.2195 14.4354 12.9826C14.9765 12.7458 15.5479 12.6252 16.1107 12.6511C16.6735 12.6726 17.2319 12.8405 17.747 13.1247C18.786 13.6974 19.6301 14.6792 20.2838 15.7729C20.6128 16.3241 20.8985 16.9054 21.1453 17.5039C21.392 18.0981 21.6041 18.7354 21.8206 19.377C22.2535 20.6559 22.6431 21.9907 23.3097 23.2911C23.643 23.937 24.0673 24.57 24.5954 25.1211C25.1235 25.6723 25.7599 26.133 26.4352 26.4689C27.7988 27.1449 29.2707 27.3732 30.6819 27.455C31.0325 27.4765 31.3182 27.1622 31.3269 26.7703C31.3356 26.3742 31.0802 26.0555 30.7641 26.034C29.4611 25.9608 28.1711 25.7412 27.0759 25.1944C26.5304 24.9231 26.0456 24.57 25.63 24.1394C25.2145 23.7045 24.8681 23.1964 24.5781 22.6366C23.9937 21.5127 23.6084 20.2253 23.1755 18.9292C22.9591 18.279 22.7426 17.6245 22.4656 16.9613C22.1929 16.3068 21.8812 15.6609 21.5089 15.0409C20.7686 13.8137 19.799 12.6338 18.431 11.876C17.7514 11.5014 16.9678 11.2602 16.1627 11.2301C15.3618 11.1956 14.561 11.3679 13.851 11.6822C13.1411 11.9923 12.5134 12.4229 11.9549 12.9094C11.4052 13.3831 10.8814 13.9601 10.4788 14.5888C9.6606 15.8547 9.25801 17.3187 9.11949 18.7483C8.98096 20.1865 9.09351 21.6161 9.34026 23.0026C9.58701 24.3891 9.9896 25.7541 10.4874 27.0459C11.4658 29.6467 12.7947 32.1614 14.6172 34.3273C16.4267 36.4975 18.7384 38.2543 21.2751 39.4815C23.8119 40.7217 26.5304 41.4838 29.2577 41.9876C29.591 42.0479 29.9157 41.7809 29.9806 41.3934C30.0585 40.9929 29.8507 40.6355 29.5304 40.5796Z" />
<path d="M28.0629 43.2105C25.0326 42.6594 22.037 41.8757 19.3228 40.5408C17.9678 39.8734 16.6908 39.0639 15.535 38.1079C14.3791 37.152 13.3445 36.0497 12.4354 34.8483C11.6346 33.7891 10.9333 32.6523 10.3013 31.4725C10.2364 31.339 10.1757 31.2055 10.1022 31.0763C10.0978 31.0677 10.0892 31.0591 10.0762 31.0548C10.0632 31.0332 10.0502 31.0074 10.0372 30.9859C9.68658 30.3141 9.36191 29.6123 9.0459 28.9147C8.73854 28.2387 8.48314 27.5325 8.26669 26.8177C7.62168 24.6389 7.3403 22.3395 7.4312 20.066C7.46584 19.6181 7.51345 19.1703 7.58272 18.7311C7.58705 18.701 7.57406 18.6708 7.53943 18.6407C7.5654 18.3909 7.59138 18.1412 7.62601 17.8957C7.85111 16.4188 8.24937 14.9677 8.88573 13.6414C9.51775 12.3195 10.4052 11.1268 11.548 10.2828C12.6865 9.43021 14.0718 8.96086 15.5133 8.88336C16.2319 8.8403 16.9678 8.88766 17.6951 9.00392C17.8769 9.03406 18.0587 9.06852 18.2362 9.10296C18.4094 9.13741 18.5739 9.18047 18.7427 9.23214C19.076 9.33118 19.3964 9.46466 19.6994 9.62398C20.9245 10.2613 21.8595 11.398 22.5825 12.6855C23.3097 13.9773 23.8552 15.4112 24.4093 16.8623C24.972 18.3134 25.5175 19.8076 26.3833 21.2286C26.8205 21.9347 27.3529 22.6237 28.0586 23.1792C28.7598 23.7389 29.6429 24.1136 30.5347 24.2255C30.9806 24.2858 31.3269 23.9542 31.3182 23.5667C31.3096 23.1706 31.0369 22.8605 30.7252 22.8175C30.0672 22.7313 29.4611 22.4773 28.9417 22.0639C28.4179 21.6548 27.9763 21.0994 27.5954 20.4836C26.8378 19.2435 26.2967 17.801 25.7383 16.3542C25.1798 14.9031 24.6214 13.4132 23.8205 11.9923C23.4179 11.2818 22.9547 10.5885 22.3833 9.95985C21.8162 9.33118 21.1323 8.77571 20.3574 8.37094C19.9721 8.16856 19.5652 8.00063 19.1496 7.87576C18.9418 7.81548 18.7297 7.7595 18.5219 7.71644C18.3185 7.67338 18.115 7.63893 17.9115 7.60448C17.0977 7.4753 16.2622 7.41932 15.4224 7.46669C14.5826 7.51406 13.7428 7.67338 12.9333 7.95327C12.1281 8.23315 11.3662 8.64222 10.6822 9.15032C9.30996 10.1665 8.29699 11.5574 7.58705 13.0343C6.8771 14.5199 6.44421 16.1002 6.20179 17.6934C6.08491 18.4684 6.01564 19.2435 5.98534 20.0229C5.86413 21.5989 5.91175 23.1619 5.98101 24.6992C6.07625 26.7273 6.22776 28.7252 6.18447 30.6931C6.14118 32.6523 5.89876 34.6072 5.09791 36.3037C4.70398 37.1477 4.16719 37.9142 3.50486 38.5687C2.93345 39.1371 2.26679 39.615 1.54819 40.0241C0.777639 40.1447 0.816599 41.3891 1.6694 41.3891C1.67373 41.3891 1.67373 41.3891 1.67806 41.3891C1.76031 41.4623 1.8339 41.4924 1.88585 41.4666C2.83388 40.9714 3.73863 40.347 4.51351 39.5763C5.29271 38.8055 5.92907 37.8926 6.38793 36.9066C6.85113 35.9248 7.1455 34.8828 7.32731 33.8407C7.50913 32.7987 7.58272 31.7566 7.60869 30.7232C7.61735 30.2323 7.61735 29.7415 7.60869 29.2549C7.64332 29.3367 7.67795 29.4185 7.71691 29.5046C8.04591 30.2194 8.37491 30.9342 8.74287 31.6404C8.82945 31.804 8.92036 31.9676 9.00694 32.1356C9.4658 33.1303 9.6303 34.2455 9.4961 35.3478C9.34892 36.5922 8.85109 37.8065 8.13249 38.8744C7.41389 39.9466 6.47884 40.8853 5.40959 41.6044C4.42693 42.2632 3.31872 42.7369 2.18021 42.9134C2.14991 42.9091 2.11961 42.9048 2.08498 42.9048C1.24516 42.9048 1.19322 44.1191 1.92913 44.2698C1.96377 44.3387 1.9984 44.3774 2.0287 44.3731C3.55681 44.2052 4.9767 43.6067 6.20612 42.7842C7.43986 41.9575 8.49612 40.8939 9.32295 39.6667C10.1454 38.4395 10.7342 37.0271 10.916 35.5201C10.929 35.4296 10.9333 35.3435 10.9376 35.2531C11.0459 35.4038 11.1541 35.5588 11.2666 35.7095C12.232 36.9927 13.3445 38.1811 14.5913 39.2103C15.838 40.2437 17.2146 41.1135 18.6604 41.824C21.5565 43.2493 24.6733 44.0545 27.7815 44.6186C28.1625 44.6875 28.5261 44.4248 28.591 44.0373C28.6819 43.6411 28.4352 43.2751 28.0629 43.2105Z" />
<path d="M2.12827 36.6568C2.388 36.3468 2.58713 36.0196 2.75596 35.688C3.08929 35.0206 3.30573 34.3445 3.47889 33.6685C3.82088 32.3164 3.98538 30.9686 4.11092 29.6252C4.34901 26.9383 4.37498 24.2686 4.43559 21.6161C4.46589 20.2899 4.49619 18.9679 4.58277 17.6675C4.62606 17.0173 4.68666 16.3714 4.79056 15.76C4.89878 15.1615 5.06328 14.5199 5.24942 13.917C5.99833 11.4842 7.32731 9.22352 9.2104 7.54419C11.0762 5.86056 13.496 4.78407 15.9938 4.65489C17.2406 4.5903 18.4916 4.75393 19.6648 5.1587C20.8379 5.55915 21.9245 6.20073 22.8552 7.02317C23.7859 7.84561 24.5608 8.84891 25.1625 9.95124C25.4655 10.5024 25.7253 11.0794 25.946 11.6736C26.0543 11.9707 26.1582 12.2722 26.2491 12.5736L26.5261 13.5209C26.8941 14.8041 27.2923 16.1131 27.8724 17.379C28.1625 18.012 28.4958 18.6364 28.907 19.2263C29.3183 19.8162 29.8118 20.376 30.4135 20.841C30.7122 21.0735 31.1451 20.9487 31.3399 20.6085C31.5347 20.2683 31.5044 19.8808 31.2923 19.7129C30.3789 19.0067 29.6992 17.9302 29.1797 16.7891C28.6516 15.6351 28.2707 14.395 27.907 13.1247L27.6257 12.1602C27.5261 11.8286 27.4135 11.4971 27.2923 11.1741C27.0499 10.5196 26.7642 9.88233 26.4265 9.26658C25.7556 8.03507 24.8811 6.89829 23.8119 5.95529C22.747 5.01228 21.4916 4.27166 20.1409 3.81093C18.7903 3.34588 17.3488 3.15211 15.9289 3.22962C13.0761 3.37602 10.3489 4.60322 8.26236 6.48062C6.1585 8.35802 4.70398 10.8555 3.89014 13.4907C3.68668 14.1582 3.51785 14.804 3.38798 15.5102C3.26677 16.2078 3.2105 16.8881 3.16288 17.5599C3.07197 18.9119 3.04167 20.2425 3.0157 21.573C2.95942 24.2298 2.92912 26.878 2.69535 29.4831C2.57415 30.7835 2.40965 32.0796 2.10229 33.3025C1.94645 33.9139 1.75165 34.5082 1.48758 35.0292C1.22352 35.5502 0.881533 35.9937 0.4876 36.1961C0.392364 36.2478 0.336088 36.3511 0.297128 36.4975C0.258167 36.6439 0.236522 36.8291 0.275483 37.0228C0.314443 37.2123 0.422667 37.3759 0.587166 37.462C0.751665 37.5482 0.972441 37.5525 1.16724 37.4491C1.54819 37.2597 1.86853 36.9669 2.12827 36.6568Z" />
<path d="M29.8897 7.06623C29.249 5.86056 28.4222 4.7324 27.4135 3.78078C26.4092 2.82485 25.2361 2.05408 23.9807 1.49C22.7253 0.921613 21.4007 0.546993 20.0674 0.318777C18.7297 0.0905612 17.3877 -0.0041659 16.0414 0.000140066C14.6952 0.008752 13.3402 0.133621 12.0069 0.426426C10.6736 0.719232 9.36624 1.18428 8.15847 1.8474C6.94636 2.50622 5.84249 3.36741 4.90744 4.375C3.96806 5.37829 3.19318 6.52368 2.57415 7.72935C1.33174 10.1493 0.678073 12.7802 0.32743 15.4026C0.154273 16.7159 0.0590364 18.0378 0.020076 19.3555C-0.0145555 20.6817 0.00708921 21.9692 0.00276028 23.2696V31.0591C0.00276028 31.3777 0.323101 31.6318 0.717034 31.6318C1.11097 31.6318 1.43131 31.3734 1.43131 31.0591V23.2696C1.43564 21.9735 1.41399 20.6645 1.44862 19.3942C1.48758 18.1196 1.57849 16.8451 1.74732 15.5877C2.08498 13.0774 2.70834 10.5928 3.84685 8.37525C4.41394 7.26862 5.11523 6.23949 5.95504 5.34385C6.79485 4.4439 7.76886 3.68605 8.84677 3.09613C11.0069 1.90768 13.5307 1.43833 16.0501 1.42541C18.5782 1.42111 21.1366 1.76559 23.3876 2.7861C24.5088 3.2942 25.5434 3.97454 26.4265 4.81421C27.314 5.65387 28.0456 6.64855 28.6213 7.73796C29.7815 9.92109 30.3269 12.4272 30.5737 14.9461C30.604 15.2519 30.9416 15.4801 31.3356 15.4499C31.7295 15.4198 32.0282 15.1356 31.9979 14.8084C31.7381 12.1688 31.1711 9.49049 29.8897 7.06623Z" />
<path d="M27.2534 46.1989C24.4266 46.074 21.5478 45.1525 18.8812 44.132C17.6302 43.5636 16.4484 42.7024 15.3358 41.7809C14.7774 41.3159 14.2406 40.8293 13.7168 40.3255C13.4571 40.0715 13.1973 39.8174 12.9463 39.5548L12.6086 39.1974C12.4831 39.0596 12.3575 38.9218 12.232 38.7668L11.4788 37.841L10.8381 39.2749L10.3749 40.2954C10.1584 40.7604 9.93333 41.2125 9.68658 41.6431C9.19741 42.5086 8.62166 43.2751 7.89007 43.8779C6.54377 45.0018 4.72995 45.5487 2.88583 45.8845C2.78626 45.8199 2.66505 45.7812 2.51787 45.7812C1.66507 45.7812 1.62611 47.0342 2.40099 47.1462C2.47458 47.2926 2.56982 47.3787 2.65639 47.3658C3.72131 47.1935 4.79056 46.961 5.83816 46.595C6.88143 46.229 7.91605 45.7123 8.80781 44.9717C9.69956 44.2353 10.3965 43.3009 10.9333 42.345C11.206 41.8671 11.4441 41.3805 11.6736 40.8982L11.864 40.4891L11.9116 40.5365C12.1757 40.8121 12.4441 41.0791 12.7168 41.346C13.2623 41.8714 13.8294 42.3838 14.4138 42.8703C15.5912 43.8392 16.8293 44.7564 18.2925 45.4281C18.4786 45.5099 18.6648 45.5874 18.8596 45.6563C18.9548 45.6907 19.0544 45.7252 19.1539 45.7553L19.2275 45.7769L19.2535 45.7855L19.3834 45.8328C19.7384 45.962 20.0977 46.0912 20.457 46.2118C21.1756 46.4529 21.9028 46.6768 22.6387 46.8706C24.1149 47.2581 25.63 47.5509 27.1971 47.6155C27.3616 47.6198 27.5001 47.3055 27.5045 46.9136C27.5131 46.5261 27.4006 46.2032 27.2534 46.1989Z" />
<path d="M25.3183 49.0063C23.4785 48.9891 21.6474 48.6576 19.9115 48.0461C18.1713 47.439 16.5306 46.5519 15.0112 45.4841C14.6302 45.2171 14.2579 44.9415 13.89 44.653L13.3445 44.2138L13.0761 43.9899L12.9419 43.8736L12.8727 43.8177C12.7991 43.7488 12.6173 43.6368 12.4398 43.6153C12.2536 43.5851 12.1151 43.6196 12.0069 43.654C11.9549 43.6712 11.916 43.6885 11.8727 43.71C11.8381 43.7272 11.8078 43.7445 11.7731 43.766C11.6606 43.8392 11.5913 43.8995 11.5264 43.9597C11.4052 44.076 11.3143 44.1793 11.2277 44.2827C11.0588 44.4851 10.9117 44.6745 10.7645 44.8597C10.4701 45.23 10.1844 45.5874 9.87705 45.919C9.271 46.5864 8.60002 47.1677 7.84678 47.5768C7.09788 47.9901 6.27538 48.2226 5.42258 48.2485C5.40959 48.2485 5.39228 48.2571 5.37929 48.27C5.02432 48.2959 4.73861 48.5973 4.73861 48.9547V49.0236C4.73861 49.3982 5.05462 49.7125 5.43124 49.7125C5.52648 49.7125 5.61738 49.691 5.70396 49.6565C6.69529 49.592 7.67795 49.2991 8.53941 48.8212C9.47013 48.3131 10.2623 47.6155 10.9376 46.8749C11.2796 46.5046 11.5913 46.117 11.89 45.7381C12.0372 45.553 12.18 45.3721 12.3142 45.2085L12.4311 45.3075C12.6216 45.4625 12.8121 45.6175 13.0025 45.7683C13.3878 46.0697 13.7817 46.3625 14.1843 46.6467C15.7947 47.7748 17.5566 48.7265 19.4353 49.3853C21.3141 50.0484 23.3054 50.4058 25.301 50.4273C25.4222 50.4273 25.5218 50.1087 25.5218 49.7168C25.5218 49.325 25.4309 49.0063 25.3183 49.0063Z" />
<path d="M16.9808 49.5833C16.9765 49.5833 16.9722 49.5833 16.9678 49.5833C16.9592 49.5833 16.9505 49.579 16.9375 49.579C16.9289 49.579 16.9245 49.5833 16.9159 49.5833C15.3272 49.579 13.6519 49.3853 11.9116 49.5575C11.8381 49.5274 11.7558 49.5101 11.6692 49.5101C11.2277 49.5144 10.9117 49.8288 10.9073 50.268C10.903 50.6426 11.2277 50.9569 11.6 50.9569C11.6606 50.9569 11.7168 50.9483 11.7688 50.9311C11.7775 50.9699 11.7904 50.9914 11.7948 50.9914C13.4268 50.7847 15.1583 50.9957 16.9722 51C16.9808 51 16.9852 50.9828 16.9895 50.9483C17.8163 50.8924 17.812 49.6264 16.9808 49.5833Z" />
</svg>
