<svg width="33" height="54" viewBox="0 0 33 54" fill="white" xmlns="http://www.w3.org/2000/svg">
<path d="M15.7987 27.5281C15.8708 27.6783 16.1096 27.7843 16.2763 27.7269C16.3079 27.7357 16.3349 27.7402 16.3665 27.7402C16.5918 27.7402 16.7675 27.6871 16.9703 27.5899C17.0514 27.5502 17.11 27.4795 17.146 27.3955C17.1685 27.3911 17.1821 27.3823 17.1821 27.3778V27.2585C17.1821 27.2453 17.1821 27.232 17.1821 27.2188V20.5733C17.1821 20.5645 17.1595 20.5556 17.1235 20.5512C17.0153 20.2684 16.799 20.074 16.4746 20.0343C16.1547 19.9945 15.9204 20.2684 15.8077 20.5424C15.7356 20.5512 15.6905 20.5645 15.6905 20.5777V27.3822C15.6905 27.3911 15.7131 27.3999 15.7491 27.4043C15.7626 27.4441 15.7807 27.4883 15.7987 27.5281Z" />
<path d="M12.3876 26.5295C12.3876 26.7371 12.4011 26.9448 12.4326 27.1525C12.5453 27.9832 12.9013 28.7829 13.469 29.428C14.0323 30.0731 14.8254 30.5503 15.7041 30.7182C15.9204 30.7624 16.1457 30.7845 16.3665 30.7889C16.5827 30.7934 16.7765 30.7845 16.9883 30.7668C17.4029 30.7271 17.8354 30.6387 18.2545 30.4575C18.6736 30.2808 19.0656 30.0024 19.372 29.6622C19.6829 29.322 19.9037 28.9376 20.0569 28.5487C20.3634 27.7711 20.4535 27.0023 20.4805 26.2555C20.4805 26.2467 20.485 26.2379 20.485 26.2334V20.4496C20.485 20.264 20.476 20.0387 20.449 19.8354C20.3453 19.0047 20.0029 18.1961 19.4486 17.5466C18.8944 16.8971 18.1148 16.4022 17.2406 16.2211C16.371 16.0355 15.4382 16.1636 14.6541 16.5701C13.8701 16.9766 13.2527 17.6262 12.8697 18.3817C12.6805 18.7573 12.5408 19.1594 12.4642 19.5747C12.3831 19.9812 12.3876 20.4319 12.3876 20.7545V26.5295ZM13.9242 19.8222C13.9737 19.5438 14.0683 19.2743 14.1945 19.0224C14.4514 18.5231 14.8569 18.1034 15.3436 17.8515C15.8257 17.5996 16.3935 17.5245 16.9252 17.635C17.4524 17.7455 17.9436 18.0459 18.3086 18.4701C18.6736 18.8943 18.9034 19.4333 18.971 19.9945C18.989 20.1403 18.9935 20.2684 18.9935 20.4319V26.1672C18.9935 26.1716 18.989 26.176 18.989 26.1804C18.971 26.8255 18.8808 27.4662 18.6691 27.9964C18.4528 28.5311 18.1238 28.9066 17.6507 29.1055C17.4119 29.2071 17.137 29.269 16.8441 29.2999C16.6999 29.3131 16.5377 29.322 16.3935 29.3176C16.2583 29.3176 16.1231 29.2999 15.9879 29.2778C15.4562 29.1806 14.9606 28.8846 14.5956 28.4648C14.2261 28.0494 13.9827 27.5104 13.9061 26.9492C13.8881 26.8078 13.8791 26.6665 13.8791 26.5251V20.7412C13.8746 20.3612 13.8701 20.1094 13.9242 19.8222Z" />
<path d="M12.9238 33.6963C13.9917 34.3945 15.2895 34.7833 16.5827 34.7656C17.8129 34.7612 19.1062 34.5314 20.2507 33.8996C20.823 33.5859 21.3412 33.1749 21.7738 32.6889C22.2063 32.2029 22.5488 31.6505 22.8057 31.0761C23.2788 30.0024 23.468 28.8757 23.5176 27.7711C23.5311 27.7357 23.5356 27.696 23.5356 27.6606L23.4816 20.9224C23.4771 20.6528 23.4816 20.3435 23.459 20.0298C23.4365 19.7205 23.396 19.4157 23.3374 19.1108C23.2157 18.501 23.0265 17.9045 22.7561 17.3434C22.2244 16.2122 21.3998 15.2092 20.3543 14.4802C19.3089 13.7467 18.0337 13.3137 16.736 13.2783C15.4427 13.2341 14.1359 13.592 13.05 14.2681C11.9595 14.9397 11.0808 15.9029 10.495 17.0076C9.90472 18.1122 9.60281 19.3538 9.60281 20.5866V27.3292C9.58479 28.5399 9.85966 29.8036 10.4274 30.9127C10.9907 32.0217 11.8468 33.0026 12.9238 33.6963ZM11.0853 20.5866C11.0853 19.5747 11.3332 18.5673 11.8063 17.6792C12.2794 16.7911 12.9824 16.0222 13.834 15.5008C14.6857 14.975 15.6815 14.7011 16.6819 14.732C17.6822 14.7585 18.6601 15.0899 19.4802 15.6643C20.3048 16.2343 20.9672 17.0385 21.3952 17.9487C21.6115 18.4038 21.7647 18.8854 21.8639 19.3803C21.9134 19.6278 21.945 19.8796 21.963 20.1315C21.981 20.3789 21.981 20.6352 21.981 20.9224L22.0441 27.4441C22.0441 27.4574 22.0396 27.4662 22.0396 27.4795C22.0126 28.5355 21.8459 29.5783 21.4403 30.4929C21.0393 31.4075 20.3814 32.1587 19.5207 32.627C18.6601 33.1042 17.6237 33.3031 16.5737 33.3075C15.5689 33.3163 14.582 33.0203 13.7394 32.4768C12.8968 31.9333 12.2118 31.1513 11.7522 30.2543C11.2926 29.3529 11.0673 28.3587 11.0853 27.3248V20.5866Z" />
<path d="M1.0052 27.3292C1.41525 27.3292 1.7487 27.0818 1.7487 26.7725V18.7396C1.75321 18.5894 1.7487 18.4392 1.75771 18.2934C1.76673 17.9973 1.78926 17.6968 1.8208 17.4008C1.88388 16.8087 1.99203 16.2211 2.14073 15.6467C2.43813 14.4934 2.90677 13.38 3.5241 12.3504C4.75426 10.287 6.57022 8.56818 8.69259 7.37518C10.815 6.17776 13.2437 5.51057 15.695 5.41336C18.1509 5.31174 20.6247 5.7801 22.8417 6.79636C25.0632 7.80378 27.0234 9.36352 28.4518 11.3032C29.8802 13.2386 30.7499 15.5583 30.8941 17.9399C30.9121 18.2403 30.9211 18.5275 30.9211 18.8413V25.4602C30.9211 25.7695 31.2546 26.0169 31.6646 26.0169C32.0747 26.0169 32.4081 25.7651 32.4081 25.4602V18.8413C32.4081 18.5231 32.4036 18.1785 32.3811 17.8515C32.2234 15.1916 31.2456 12.5979 29.6594 10.4505C28.0778 8.29866 25.9103 6.58427 23.4726 5.47522C21.0303 4.35734 18.3176 3.8492 15.6365 3.95525C12.9553 4.05687 10.2877 4.79035 7.95359 6.11148C5.61943 7.42378 3.60972 9.32375 2.24437 11.617C1.56395 12.7614 1.03674 14.003 0.70329 15.2932C0.536564 15.9383 0.419406 16.5922 0.347309 17.255C0.31126 17.5864 0.288729 17.9178 0.279717 18.2492C0.270705 18.4127 0.275211 18.5806 0.270705 18.744V26.7769C0.261693 27.0818 0.595143 27.3292 1.0052 27.3292Z" />
<path d="M3.07349 7.95401C4.94802 6.09381 7.08842 4.5164 9.5172 3.52665C11.937 2.52806 14.582 2.13481 17.2406 2.19667C18.5744 2.22318 19.8902 2.34248 21.1654 2.62085C22.4407 2.89922 23.6663 3.33665 24.8018 3.95082C27.0774 5.17033 28.9249 7.08798 30.3443 9.27073C30.43 9.40328 30.7859 9.34142 31.1329 9.12933C31.4844 8.91724 31.6917 8.63004 31.597 8.48423C30.8355 7.31774 29.9613 6.20869 28.9475 5.21452C27.9381 4.22035 26.7845 3.34991 25.5183 2.66945C24.2566 1.98458 22.8868 1.49855 21.4899 1.19367C20.093 0.888791 18.6736 0.76065 17.2677 0.734139C14.4604 0.663442 11.5765 1.08321 8.94042 2.17458C6.29535 3.24828 3.97922 4.96709 2.01907 6.91565C1.8974 7.03495 2.0416 7.36192 2.33449 7.64029C2.62739 7.93633 2.95633 8.06889 3.07349 7.95401Z" />
<path d="M0.401382 31.2043C0.401382 31.2573 0.405888 31.2926 0.419406 31.2971C1.1584 31.4296 1.87938 31.2131 2.42462 30.895C2.97886 30.5724 3.42046 30.1482 3.78545 29.6843C4.14594 29.2159 4.43433 28.699 4.6326 28.1422C4.83087 27.5855 4.94352 26.9802 4.89395 26.3439C4.89395 26.3439 4.89395 26.3439 4.88945 26.3439V21.9696C4.89395 21.4393 4.88043 20.8914 4.89846 20.401C4.96605 18.3817 5.49777 16.3801 6.46658 14.6039C7.43088 12.8276 8.83227 11.2767 10.5356 10.1765C12.2344 9.07631 14.2396 8.44005 16.2718 8.39586C18.3041 8.34284 20.3363 8.87747 22.0847 9.90257C23.8375 10.9233 25.302 12.4123 26.3384 14.1488C27.3793 15.8853 27.9922 17.8647 28.1409 19.8796C28.1814 20.3877 28.1814 20.8782 28.1769 21.4217V26.1981C28.1769 26.2467 28.1904 26.2953 28.213 26.3395C28.1949 26.9095 28.2896 27.4529 28.4518 27.9611C28.6365 28.5222 28.8979 29.0524 29.2358 29.5385C29.5783 30.0245 29.9929 30.4752 30.5381 30.8287C30.8085 31.0054 31.1194 31.1601 31.4664 31.2485C31.8133 31.3412 32.2008 31.3722 32.5749 31.3015C32.5884 31.2971 32.5974 31.2661 32.5974 31.2131C33.2192 30.948 33.1201 29.8566 32.3045 29.8566C32.2414 29.8566 32.1873 29.8655 32.1333 29.8743C31.8944 29.8699 31.6331 29.7815 31.3672 29.6092C31.0338 29.3927 30.7274 29.0701 30.4705 28.7078C29.9658 27.9832 29.6459 27.0641 29.7045 26.2688C29.7045 26.2644 29.6865 26.2555 29.6594 26.2511C29.6639 26.2334 29.6684 26.2113 29.6684 26.1937V21.404C29.6684 20.8826 29.6729 20.3126 29.6279 19.7559C29.4657 17.5245 28.7852 15.3285 27.6272 13.3932C26.4736 11.4579 24.8289 9.78769 22.8507 8.63004C20.8725 7.46797 18.5519 6.85821 16.2403 6.92007C13.9287 6.96867 11.6396 7.69331 9.72448 8.93934C7.80038 10.1809 6.23677 11.9174 5.15981 13.8969C4.08286 15.8764 3.49256 18.0989 3.41595 20.3303C3.39793 20.9003 3.40694 21.4172 3.40694 21.9519V26.7416C3.40694 26.7548 3.41145 26.7725 3.41595 26.7857C3.3754 27.4706 3.05997 28.2041 2.60486 28.7918C2.339 29.1364 2.01907 29.4324 1.6766 29.6313C1.41075 29.7859 1.14038 29.8655 0.901557 29.8699C0.865509 29.8655 0.82946 29.8566 0.793411 29.8566H0.74835C0.734832 29.8522 0.716808 29.8566 0.698784 29.8522L0.694277 29.8566C0.31126 29.8699 0.000339738 30.1836 0.000339738 30.5592C-0.00867244 30.8464 0.162559 31.0894 0.401382 31.2043Z" />
<path d="M32.3045 33.3296C32.2324 33.3296 32.1693 33.3384 32.1107 33.3561C31.4664 33.3782 30.7274 33.1352 30.074 32.7729C29.344 32.3663 28.6816 31.8096 28.1319 31.1645C27.1811 30.0555 26.5772 28.6725 26.4961 27.2541C26.5097 27.2232 26.5232 27.1878 26.5232 27.1525V20.4408C26.5187 19.9636 26.4781 19.4864 26.4105 19.0136C26.2753 18.068 26.014 17.1357 25.64 16.2564C24.8875 14.489 23.6438 12.9116 22.0396 11.7893C20.44 10.6626 18.4618 10.0219 16.4791 10.044C14.4964 10.0484 12.5273 10.7112 10.9456 11.8556C9.35498 12.9955 8.13383 14.5906 7.39934 16.3625C7.02984 17.2506 6.782 18.1829 6.65583 19.1285C6.59275 19.6012 6.5612 20.0784 6.5567 20.5556V26.2909C6.54318 26.2997 6.53417 26.3086 6.53417 26.3174C6.67836 28.0318 6.10609 29.7594 4.99759 31.0938C4.44334 31.761 3.76743 32.3354 3.01942 32.7508C2.32098 33.1396 1.51889 33.3826 0.82946 33.3384C0.793411 33.334 0.757363 33.3296 0.716808 33.3296C-0.121325 33.3296 -0.202434 34.474 0.468973 34.7037C0.477985 34.7523 0.496009 34.7789 0.514034 34.7833C1.12236 34.8584 1.69914 34.7833 2.23536 34.6419C2.77158 34.5005 3.27176 34.2884 3.74039 34.0277C4.67315 33.5107 5.48425 32.8215 6.14664 32.0173C6.80904 31.2131 7.33175 30.2896 7.65168 29.2955C7.85896 28.668 7.98062 28.0141 8.02118 27.3557C8.0347 27.3292 8.0392 27.2983 8.0392 27.2674V20.5645C8.04371 20.1491 8.07075 19.7294 8.12482 19.3184C8.23296 18.4922 8.44926 17.6836 8.76919 16.9148C9.40455 15.3771 10.4635 14.0074 11.8153 13.0353C13.1671 12.0588 14.8119 11.5065 16.4791 11.5021C18.1464 11.4844 19.8001 12.0146 21.1654 12.9735C22.5308 13.9279 23.6032 15.2843 24.2566 16.8176C24.5856 17.582 24.8064 18.3906 24.928 19.2168C24.9866 19.6277 25.0226 20.0431 25.0272 20.4628V26.4588C25.0136 26.4676 25.0046 26.4765 25.0046 26.4809C24.9415 27.5016 25.0993 28.5355 25.4462 29.4899C25.7932 30.4487 26.3204 31.328 26.9828 32.0968C27.6407 32.8656 28.4293 33.5328 29.335 34.0365C29.7901 34.2884 30.2767 34.4961 30.7995 34.6419C31.3222 34.7833 31.8899 34.8584 32.4892 34.7833C32.5118 34.7789 32.5253 34.7479 32.5343 34.6993C33.2237 34.4828 33.1471 33.3296 32.3045 33.3296Z" />
<path d="M31.944 36.2281H31.8719C31.8223 36.2281 31.7728 36.2326 31.7277 36.2458C31.0563 36.2856 30.3894 36.2281 29.7585 36.0558C29.7585 36.0558 29.7585 36.0514 29.754 36.0514C29.6189 36.0028 29.4837 35.963 29.344 35.9277C28.6591 35.6802 28.0237 35.2958 27.483 34.801C26.9017 34.2663 26.424 33.6124 26.059 32.901C25.8788 32.5431 25.7256 32.1719 25.6084 31.7964C25.5363 31.5578 25.4778 31.3192 25.4417 31.085C25.4552 31.0187 25.4597 30.9524 25.4327 30.8861C25.4282 30.8685 25.4192 30.8508 25.4102 30.8331C25.4057 30.7889 25.4012 30.7403 25.4012 30.6961C25.4012 30.6873 25.3786 30.6785 25.3381 30.6696C25.248 30.5017 25.1263 30.3515 24.9596 30.2366C24.6577 30.0289 24.2566 30.1615 24.0403 30.4178C23.9637 30.5106 23.9187 30.6254 23.9187 30.7359C23.9187 30.7403 23.9142 30.7403 23.9142 30.7403C23.9187 30.8552 23.9277 30.9657 23.9412 31.0761C23.9232 31.0806 23.9051 31.0894 23.9051 31.0938C23.7655 31.9157 23.4635 32.7022 23.0174 33.3959C22.5713 34.094 21.9765 34.6993 21.2871 35.1854C19.9443 36.1309 18.259 36.6346 16.5782 36.6832L16.5737 36.6788C14.8434 36.6567 13.095 36.1486 11.7072 35.1721C11.0177 34.6861 10.4229 34.0807 9.97682 33.3826C9.53072 32.6845 9.23332 31.9024 9.08912 31.0806C9.08912 31.0717 9.0711 31.0673 9.05307 31.0629C9.06659 30.9524 9.0756 30.842 9.08011 30.7271C9.08011 30.6961 9.01252 30.6696 8.90888 30.6475C8.89987 30.3692 8.78271 30.1085 8.46278 30.0334C8.42673 30.0245 8.39518 30.0245 8.36364 30.0201C8.21945 29.9892 8.06624 30.0157 7.9671 30.1217C7.8184 30.2101 7.69674 30.3515 7.61563 30.4973C7.55705 30.6034 7.54804 30.7182 7.57958 30.8287C7.55254 31.1336 7.48045 31.4605 7.38582 31.7831C7.26866 32.1587 7.11996 32.5298 6.93521 32.8877C6.57022 33.5991 6.08807 34.2531 5.51129 34.7877C4.97056 35.287 4.3397 35.667 3.65478 35.9144C3.51509 35.9542 3.3754 35.9939 3.24022 36.0426L3.23571 36.047C2.69498 36.1928 2.13172 36.2591 1.55945 36.2502C1.46482 36.1972 1.34766 36.1619 1.21248 36.1619C0.716808 36.1619 0.486997 36.5639 0.51854 36.9395C0.482491 37.3151 0.712302 37.7172 1.21248 37.7172C1.25754 37.7172 1.29809 37.7128 1.34315 37.7039C2.22184 37.7393 3.12757 37.6376 3.97922 37.3593C4.0423 37.3372 4.10088 37.3151 4.16397 37.293C5.0021 37.0897 5.87628 37.1516 6.74595 37.4388C7.76433 37.7702 8.75567 38.3402 9.76503 38.9323C10.7744 39.5244 11.8108 40.1562 12.9553 40.6555C13.9377 41.0841 15.0191 41.4111 16.1366 41.4994C16.1502 41.5171 16.1592 41.5259 16.1727 41.5259C16.2583 41.5259 16.3394 41.5171 16.4205 41.5127C16.5061 41.5171 16.5873 41.5215 16.6729 41.5259C16.6864 41.5259 16.6999 41.5127 16.7089 41.4994C17.8399 41.4066 18.9259 41.0797 19.9218 40.6511C21.0753 40.1518 22.1252 39.5288 23.1481 38.9367C24.171 38.349 25.1759 37.779 26.2078 37.4476C27.0909 37.1604 27.9741 37.0942 28.8213 37.2974C28.8844 37.3195 28.9429 37.3416 29.006 37.3637C29.9613 37.6774 30.9707 37.7702 31.944 37.6907C31.9575 37.6907 31.971 37.6686 31.9801 37.6332C32.3495 37.6067 32.6515 37.3018 32.6515 36.9307C32.665 36.5507 32.3405 36.2281 31.944 36.2281ZM25.7616 36.0602C24.5135 36.4623 23.441 37.0853 22.4046 37.6774C21.3682 38.2739 20.3679 38.866 19.3315 39.3123C18.3852 39.7232 17.4119 39.9971 16.4295 40.0546C15.4562 39.9971 14.4964 39.7276 13.5637 39.3211C12.5408 38.8748 11.554 38.2827 10.5356 37.6818C9.51269 37.0853 8.45376 36.4579 7.21459 36.0514C6.98928 35.9763 6.75497 35.9188 6.52065 35.8658C6.52516 35.8614 6.52966 35.857 6.53867 35.8526C7.26415 35.1854 7.84093 34.3944 8.27803 33.5417C8.29154 33.5107 8.30506 33.4798 8.32309 33.4489C8.44475 33.6963 8.57993 33.9349 8.72863 34.1691C9.28288 35.0351 10.0174 35.7819 10.851 36.3695C12.4867 37.5183 14.4559 38.0928 16.425 38.1414C16.434 38.1546 16.4431 38.159 16.4476 38.159C18.4663 38.1325 20.4895 37.5537 22.1658 36.3784C22.9994 35.7907 23.7339 35.044 24.2882 34.1779C24.4369 33.9482 24.572 33.7052 24.6937 33.4577C24.7072 33.4886 24.7207 33.5196 24.7388 33.5505C25.1759 34.4033 25.7526 35.1942 26.4781 35.8614C26.4826 35.8658 26.4871 35.8658 26.4916 35.8702C26.2348 35.9233 25.9915 35.9851 25.7616 36.0602Z" />
<path d="M31.4483 39.679C31.4483 39.6392 31.4438 39.6083 31.4258 39.5951C31.0563 39.3565 30.6237 39.2151 30.2137 39.1709C29.8036 39.1223 29.4116 39.1532 29.0466 39.2151C28.3166 39.3432 27.6722 39.5906 27.0594 39.8602C26.4511 40.1297 25.8743 40.4346 25.311 40.735C24.7433 41.0355 24.2161 41.3315 23.6663 41.5569C22.5308 42.0562 21.3727 42.4627 20.1831 42.772C19.1107 43.0459 18.0157 43.2492 16.9568 43.2713L16.9522 43.2668C15.7311 43.2403 14.4514 43.0194 13.2077 42.7455C11.964 42.4627 10.7158 42.1092 9.56676 41.6408L9.12967 41.4552C8.99449 41.3978 8.85931 41.3315 8.71962 41.2608C8.44024 41.1194 8.15636 40.9692 7.86797 40.8146C7.29119 40.5053 6.70089 40.1916 6.07455 39.9044C5.4482 39.6216 4.79031 39.3609 4.0423 39.2195C3.6683 39.1488 3.26725 39.1134 2.84368 39.1576C2.49671 39.193 2.13172 39.2946 1.79827 39.4669C1.7487 39.489 1.69914 39.5155 1.65858 39.5465C1.63605 39.5597 1.61352 39.5685 1.59099 39.5818C1.57747 39.5906 1.56846 39.6083 1.56395 39.6304C1.21248 40.0281 1.38822 40.8234 2.08666 40.8234C2.18579 40.8234 2.27141 40.8057 2.34801 40.7748C2.37505 40.7969 2.39758 40.8057 2.40659 40.8013C2.73103 40.5848 3.21769 40.545 3.76743 40.6511C4.31267 40.7527 4.88494 40.9736 5.45271 41.2299C6.02047 41.4862 6.58373 41.7866 7.16051 42.0959C7.4489 42.2506 7.7418 42.4052 8.04821 42.5599C8.20142 42.635 8.35913 42.7101 8.52586 42.7852L8.99449 42.9841C10.2742 43.5054 11.5675 43.8678 12.8832 44.1682C14.0864 44.4289 15.294 44.6454 16.5647 44.7117C16.5737 44.725 16.5872 44.7338 16.6008 44.7338C17.9886 44.7559 19.2999 44.5084 20.5751 44.1859C21.8459 43.8545 23.0895 43.4171 24.2746 42.8957C24.901 42.635 25.4778 42.3124 26.032 42.0208C26.5863 41.7248 27.136 41.4376 27.6812 41.1946C28.2265 40.9515 28.7807 40.7483 29.3079 40.6599C29.7495 40.5848 30.1371 40.6069 30.439 40.7394C30.5111 40.8676 30.6282 40.956 30.7995 40.9515C30.8986 41.009 31.0203 41.0443 31.1644 41.0443C31.971 41.0355 32.0702 39.9441 31.4483 39.679Z" />
<path d="M29.1322 43.0194C28.9565 43.0194 28.8123 43.0724 28.7041 43.152C28.6726 43.1652 28.641 43.174 28.614 43.1961C27.5506 43.501 26.5322 43.9075 25.5589 44.3361L24.0223 45.021L23.2698 45.3524C23.0355 45.4496 22.7876 45.538 22.5308 45.6219C21.5124 45.9533 20.4355 46.2096 19.363 46.4172C18.5519 46.5719 17.7183 46.7045 16.9117 46.7752C15.8978 46.8414 14.7983 46.7 13.7259 46.4968C12.6489 46.2891 11.5765 46.0063 10.5536 45.6484C10.0354 45.4717 9.57127 45.264 9.03955 45.0298L7.48946 44.3405C6.51614 43.9119 5.50227 43.5099 4.44785 43.2006C4.3352 43.0901 4.17298 43.0194 3.9702 43.0194C3.10954 43.0194 3.04646 44.2212 3.77194 44.4068C3.77194 44.4775 3.78095 44.5261 3.80348 44.5305C4.84438 44.8133 5.85826 45.2198 6.88114 45.6705L8.42673 46.3598C8.93141 46.5852 9.49917 46.837 10.0534 47.0226C11.1664 47.4114 12.2929 47.703 13.442 47.9284C14.3207 48.0919 15.2129 48.2244 16.1411 48.2421C16.1547 48.2598 16.1682 48.2774 16.1817 48.2774C16.4656 48.2686 16.745 48.2509 17.0198 48.2288C17.9211 48.1537 18.7817 48.0123 19.6514 47.8488C20.7779 47.6279 21.8954 47.3672 23.0084 47.0049C23.2878 46.9121 23.5672 46.8105 23.8511 46.6956L24.6396 46.351L26.1717 45.6705C27.1856 45.2242 28.1904 44.8266 29.2223 44.5438C29.2358 44.5394 29.2449 44.5173 29.2494 44.4819C29.2989 44.4643 29.3395 44.4333 29.38 44.398C30.0514 44.1726 29.9748 43.0194 29.1322 43.0194Z" />
<path d="M28.4383 50.8711C26.6629 51.7106 24.6622 52.1127 22.6479 52.232C21.3592 52.3027 20.0614 52.263 18.7772 52.1171C20.1155 52.0067 21.4358 51.7416 22.7065 51.3306C24.8244 50.6546 26.78 49.6163 28.5915 48.4321C28.6275 48.41 28.641 48.3526 28.6365 48.2863C28.8438 48.1626 28.988 47.9372 28.988 47.6854C28.988 47.301 28.6591 46.9784 28.267 46.9784H28.1949C27.9246 46.9784 27.6903 47.1286 27.5686 47.3496C25.8923 48.4277 24.1214 49.3467 22.2469 49.9476C20.3048 50.5751 18.2455 50.8314 16.2223 50.6811C14.6181 50.5618 13.059 50.0316 11.4909 49.3997C11.3737 49.3379 11.2611 49.276 11.1439 49.2142C10.2111 48.7237 9.26035 48.2421 8.23747 47.84C7.72378 47.6412 7.19206 47.4644 6.61528 47.3496C6.14664 47.2568 5.63295 47.1993 5.08771 47.2744C4.82636 47.2391 4.56501 47.217 4.29915 47.1993C4.20452 47.1507 4.09637 47.1198 3.96119 47.1198C3.08701 47.1198 3.03294 48.3658 3.79897 48.5205C3.83502 48.5956 3.87107 48.6398 3.91613 48.6398C4.29915 48.6486 4.67766 48.6839 5.05617 48.7414C5.06969 48.7502 5.08321 48.7546 5.09673 48.7546C5.10123 48.7546 5.10574 48.7546 5.11475 48.7502C6.67836 48.9977 8.21945 49.6163 9.77405 50.2702C10.1255 50.416 10.486 50.5662 10.842 50.712C11.6215 51.1274 12.4011 51.556 13.2077 51.9713C13.6808 52.2143 14.1585 52.4529 14.6677 52.6695C15.1678 52.8815 15.7176 53.0936 16.2989 53.2041C18.4122 53.6327 20.5751 53.8094 22.7426 53.6901C24.901 53.562 27.0864 53.1334 29.0916 52.1878C29.2133 52.1304 29.1637 51.7902 28.9745 51.4323C28.7807 51.07 28.5464 50.8225 28.4383 50.8711Z" />
</svg>
