<svg width="35" height="50" viewBox="0 0 35 50" fill="white" xmlns="http://www.w3.org/2000/svg">
<path d="M1.75332 30.1725C2.75966 29.7739 3.59175 29.1225 4.2975 28.4197C5.00324 27.7083 5.59571 26.9283 6.13591 26.1355C6.67611 25.3383 7.15968 24.5198 7.63018 23.7098C8.10067 22.8998 8.55374 22.0856 9.04166 21.3442C10.0916 19.8442 11.1633 18.3143 12.4048 17.0286C13.6421 15.7386 15.1102 14.7015 16.7874 14.3158C17.6195 14.123 18.5039 14.063 19.3403 14.1744C20.1942 14.2815 21.035 14.5429 21.8409 14.9029C23.4572 15.6315 24.9253 16.7286 26.2322 17.9757C26.3978 18.1343 26.5546 18.2928 26.7158 18.4557L26.9641 18.7128L27.2168 18.9571C27.5174 19.2614 27.8049 19.5999 28.0794 19.9514C28.6326 20.6585 29.151 21.4299 29.6956 22.197C30.2401 22.9684 30.8108 23.7441 31.4948 24.4726C32.1744 25.1926 32.9934 25.8869 34.0346 26.2812C34.296 26.3797 34.5922 26.1269 34.6881 25.7455C34.7839 25.364 34.7186 25.0212 34.5487 24.9569C33.8168 24.6826 33.1503 24.1469 32.5491 23.5127C31.9479 22.8741 31.4077 22.1413 30.8762 21.3913C30.3403 20.637 29.8176 19.8571 29.2207 19.09C28.9201 18.7085 28.6021 18.3271 28.2449 17.9671L27.9922 17.7228L27.7526 17.4743C27.5827 17.3029 27.4128 17.1314 27.2385 16.9643C25.8401 15.6315 24.2631 14.4401 22.4377 13.6173C21.5272 13.2101 20.5514 12.9016 19.5276 12.773C18.4908 12.6401 17.4627 12.7087 16.452 12.9401C15.4456 13.1758 14.4916 13.6001 13.6464 14.1487C12.7926 14.6929 12.0433 15.3529 11.3636 16.0515C10.684 16.7543 10.0741 17.5 9.49909 18.2585C9.21156 18.64 8.93275 19.0214 8.65829 19.4028L8.24879 19.9771C8.12245 20.1613 7.97433 20.3585 7.83928 20.5685C7.29908 21.387 6.85038 22.2056 6.37988 23.0113C5.91374 23.8127 5.44759 24.6012 4.93788 25.3512C4.42818 26.1012 3.88363 26.8126 3.26937 27.4297C2.65511 28.0468 1.96679 28.5654 1.21312 28.8654C1.03451 28.9382 0.977876 29.2854 1.09114 29.6582C1.20005 30.0268 1.50064 30.271 1.75332 30.1725Z" />
<path d="M1.85789 26.354C3.44799 25.1583 4.66344 23.6198 5.70899 22.0513C6.75889 20.4785 7.65195 18.85 8.61473 17.3029C9.57751 15.7601 10.6056 14.2687 11.9126 13.1158C12.5617 12.5416 13.2805 12.0616 14.0603 11.7187C14.8401 11.3716 15.6765 11.1616 16.5391 11.0759C18.2643 10.9088 20.0722 11.2173 21.7799 11.7402C23.4833 12.2716 25.0995 13.0901 26.4457 14.2044C27.7831 15.2972 28.8287 16.81 29.9526 18.2843C30.5103 19.0257 31.0722 19.7671 31.6604 20.4999C32.2528 21.2327 32.8453 21.9613 33.5815 22.6513C33.7645 22.8227 34.1392 22.7113 34.3831 22.407C34.6315 22.1027 34.7142 21.7599 34.5661 21.6227C33.9475 21.0399 33.3594 20.3328 32.7887 19.6256C32.218 18.9142 31.6647 18.1814 31.1071 17.44C30.5495 16.7029 30.0006 15.9572 29.3994 15.2158L29.1685 14.9372L28.9332 14.6715C28.7851 14.4958 28.6239 14.3072 28.4496 14.1315C28.1098 13.7715 27.7483 13.4373 27.3693 13.1244C25.8489 11.8687 24.0671 10.9773 22.2112 10.3945C21.2789 10.1031 20.3336 9.8888 19.3621 9.75166C18.3906 9.61881 17.393 9.57167 16.391 9.67023C15.3934 9.7688 14.3914 10.0174 13.4635 10.4288C12.5355 10.8402 11.6904 11.4102 10.9498 12.0616C9.46424 13.3816 8.37514 14.9801 7.38622 16.5657C6.39731 18.1557 5.50858 19.7714 4.50224 21.2756C3.50026 22.7756 2.3763 24.1855 0.982235 25.2269C0.812334 25.3512 0.86025 25.7069 1.08679 26.0326C1.31768 26.3497 1.66185 26.4997 1.85789 26.354Z" />
<path d="M7.6781 13.7201C8.23573 13.0044 8.81078 12.3059 9.42068 11.6802C9.72999 11.3673 10.0393 11.0802 10.3747 10.8316C10.732 10.5616 11.0979 10.3045 11.4682 10.0645C12.9581 9.09597 14.5961 8.3717 16.3169 8.09314C18.0334 7.80172 19.8108 7.97743 21.5098 8.48313C21.9368 8.60741 22.355 8.75312 22.7732 8.91169L23.0869 9.03597C23.1827 9.07454 23.2786 9.11311 23.37 9.15596C23.5574 9.24168 23.7491 9.34024 23.9407 9.44738C24.6988 9.87166 25.4393 10.3902 26.1494 10.9431C27.574 12.0487 28.9071 13.2873 30.153 14.6029C31.3946 15.9186 32.5491 17.32 33.5554 18.8071C33.6774 18.9871 34.0433 18.9657 34.3788 18.7557C34.7142 18.5457 34.8841 18.2157 34.7534 18.0228C33.6948 16.4586 32.4968 15.0058 31.2073 13.6387C29.9134 12.2759 28.5368 10.9945 27.0382 9.8288C26.2845 9.25025 25.509 8.69741 24.6508 8.21742C24.433 8.09743 24.2152 7.98171 23.9799 7.87457C23.8667 7.81886 23.7447 7.77172 23.6271 7.72458L23.296 7.59601C22.8473 7.42459 22.3898 7.26602 21.9237 7.12888C20.0678 6.57604 18.0377 6.36605 16.0817 6.70032C14.1213 7.02174 12.2916 7.84029 10.6797 8.88597C10.2745 9.14739 9.88246 9.42596 9.49909 9.71309C9.08959 10.0174 8.72365 10.3602 8.38384 10.7031C7.70859 11.3973 7.11176 12.1259 6.53671 12.863C4.25829 15.82 2.25869 18.9014 0.0499653 21.8156C-0.0850846 21.9956 0.0630256 22.3256 0.381046 22.5613C0.699067 22.797 1.06937 22.8398 1.20442 22.6598C3.44364 19.6985 5.45631 16.6 7.6781 13.7201Z" />
<path d="M1.09115 17.4314C1.43095 17.6328 1.79253 17.6543 1.9058 17.4786C2.82501 16.03 3.7965 14.5944 4.79413 13.193C5.79611 11.7959 6.82859 10.4116 7.94819 9.13882C10.0219 6.52033 13.372 5.35465 16.7264 5.09752C18.408 4.97323 20.1158 5.07609 21.7581 5.42322C22.5859 5.59893 23.37 5.83464 24.1586 6.14748C24.9471 6.45176 25.7007 6.81175 26.4283 7.22745C27.879 8.05885 29.1728 9.14311 30.336 10.3645C31.5035 11.5859 32.5534 12.9401 33.5728 14.3287C33.6948 14.5001 34.0608 14.4529 34.3831 14.2258C34.7055 13.9987 34.8667 13.6773 34.7404 13.5015C33.7035 12.0873 32.6231 10.6902 31.3815 9.39167C30.1487 8.09743 28.7415 6.9146 27.1514 6.00177C26.3629 5.5475 25.5308 5.14894 24.6857 4.82324C23.8492 4.48896 22.9475 4.21897 22.0587 4.03041C20.2682 3.65327 18.4342 3.54185 16.6132 3.6747C14.7965 3.81184 12.9799 4.19754 11.2765 4.92181C10.427 5.28608 9.60801 5.74035 8.85434 6.29319C8.47969 6.56747 8.10938 6.88889 7.78701 7.21031C7.46027 7.53173 7.15532 7.86172 6.85908 8.19599C5.67848 9.53738 4.63294 10.9431 3.61353 12.3659C2.59848 13.793 1.62263 15.2372 0.681638 16.7157C0.564014 16.9172 0.746986 17.2343 1.09115 17.4314Z" />
<path d="M1.79689 11.1273C2.15847 11.2945 2.51135 11.2988 2.59413 11.1402C3.95769 8.50027 6.03136 6.19034 8.46226 4.41611C9.68207 3.53328 11.0021 2.78759 12.4005 2.26474C13.0975 2.00332 13.812 1.79762 14.5395 1.66905C15.2757 1.54048 16.0294 1.45905 16.7831 1.42905C19.7977 1.31334 22.8647 1.93047 25.5962 3.19472C26.9597 3.83327 28.2449 4.61753 29.3602 5.62036C29.9526 6.12177 30.5233 6.62318 31.0461 7.15031C31.5689 7.67744 32.0394 8.23456 32.3835 8.82597C32.4619 8.9674 32.8105 8.94597 33.172 8.77883C33.5293 8.6117 33.7427 8.31599 33.6382 8.12742C33.2025 7.37316 32.6536 6.73889 32.0786 6.16034C31.5035 5.58179 30.898 5.05466 30.3011 4.54896C29.0944 3.46471 27.6786 2.59902 26.2104 1.91333C23.2568 0.55051 19.9894 -0.10947 16.7221 0.014812C15.9074 0.0490967 15.0928 0.130523 14.2825 0.276233C13.4591 0.421943 12.6619 0.653364 11.8908 0.940498C10.3486 1.51905 8.91969 2.32903 7.61275 3.27614C6.30582 4.22754 5.10779 5.32037 4.04482 6.5289C2.98184 7.73744 2.04957 9.06597 1.31333 10.5059C1.21749 10.6773 1.43966 10.9602 1.79689 11.1273Z" />
<path d="M34.9582 28.9425C34.4049 28.9082 33.8081 28.6682 33.2505 28.3425C32.6885 28.0125 32.1613 27.5926 31.6691 27.134C31.1768 26.6712 30.7237 26.1655 30.3142 25.6255C29.9178 25.0983 29.5562 24.5412 29.2992 23.9755C29.2992 23.9498 29.2992 23.9284 29.2948 23.9027C29.2904 23.847 29.2599 23.7955 29.2164 23.757C29.1031 23.397 28.8548 23.0413 28.4235 23.1355C28.2057 23.1827 28.0706 23.3412 27.9879 23.5298C27.9791 23.5512 27.9704 23.5727 27.9661 23.5941C27.9225 23.7141 27.9007 23.8469 27.8877 23.9669C27.8702 23.9927 27.8615 24.0184 27.8615 24.0398C27.9182 24.5884 27.7831 25.2055 27.5391 25.784C27.2952 26.3669 26.9467 26.924 26.5328 27.434C25.7007 28.4497 24.6116 29.2768 23.3962 29.7911C23.0912 29.9196 22.7819 30.031 22.4639 30.121C22.1372 30.211 21.8278 30.2839 21.5142 30.3182C20.8869 30.3953 20.2465 30.3482 19.6366 30.1896C18.4124 29.8682 17.3102 29.0754 16.5086 28.0597C15.707 27.0397 15.1843 25.7926 15.0449 24.5155C15.01 24.1984 15.0013 23.8769 15.0144 23.5555C15.0187 23.397 15.0361 23.2341 15.0536 23.0627C15.071 22.8956 15.0884 22.7284 15.1146 22.5698C15.2148 21.9184 15.3847 21.3142 15.6983 20.847C16.0033 20.3799 16.4651 20.0456 17.0488 19.8142C17.332 19.6985 17.6587 19.6042 17.9593 19.5357C18.2556 19.4714 18.5518 19.4499 18.8437 19.4671C19.4187 19.4971 19.9851 19.7156 20.3249 20.0671C20.4948 20.2342 20.5863 20.4313 20.5863 20.547C20.5863 20.577 20.5863 20.6028 20.5776 20.6242C20.5383 20.6156 20.4948 20.6113 20.4512 20.6156C20.1245 20.4871 19.7803 20.3842 19.4057 20.3371C18.8263 20.2556 18.1423 20.3328 17.5716 20.6756C16.9965 21.0099 16.6045 21.5542 16.3954 22.1027C16.1819 22.6556 16.1165 23.2213 16.147 23.7698C16.208 24.8669 16.6437 25.9083 17.3364 26.744C18.029 27.584 18.9874 28.1882 20.0069 28.5054C20.2595 28.5868 20.5209 28.6511 20.7779 28.6982C21.0611 28.7497 21.353 28.7754 21.6362 28.7711C22.2025 28.7582 22.7514 28.6425 23.2611 28.4582C24.2805 28.0854 25.1692 27.4426 25.8532 26.6326C26.5372 25.8226 27.0077 24.8326 27.195 23.7912C27.3867 22.7498 27.2908 21.6827 27.0077 20.7013C26.9946 20.6628 26.9467 20.6328 26.877 20.6199C26.8465 20.5471 26.8116 20.4785 26.7681 20.4099C26.633 20.1956 26.3934 20.1785 26.2148 20.2685C26.1625 20.2685 26.1102 20.2771 26.0623 20.2899C25.8227 20.3585 25.6702 20.5556 25.6485 20.7913C25.6441 20.8556 25.6528 20.9199 25.6746 20.9756C25.6354 21.0142 25.6136 21.0485 25.6223 21.0785C25.8576 21.8884 25.9229 22.7327 25.7748 23.5341C25.631 24.3355 25.2738 25.0941 24.7423 25.7197C24.2152 26.3454 23.5181 26.8426 22.7601 27.1211C22.3811 27.2583 21.9847 27.3397 21.6057 27.3483C21.414 27.3526 21.231 27.3354 21.048 27.3011C20.8433 27.2626 20.6385 27.2111 20.4425 27.1511C19.654 26.9069 18.9526 26.4569 18.4472 25.844C17.9375 25.2355 17.6239 24.4598 17.5803 23.6927C17.528 22.9298 17.8068 22.167 18.3078 21.8884C18.4952 21.777 18.7217 21.7213 18.9744 21.7213C18.9482 21.7727 18.9221 21.8284 18.9047 21.8799C18.6781 22.4884 18.7173 23.0798 18.8567 23.6155C19.0005 24.1512 19.2663 24.6569 19.6888 25.0812C19.9023 25.2912 20.155 25.4798 20.4556 25.6083C20.7518 25.7412 21.0916 25.8097 21.4227 25.8012C22.0936 25.784 22.6469 25.4926 23.0738 25.1755C23.5007 24.8541 23.8623 24.4726 24.1542 24.0312C24.7336 23.157 25.0037 22.1113 24.9514 21.087C24.9035 20.0628 24.5245 19.0428 23.871 18.2328C23.5443 17.83 23.1566 17.4743 22.7296 17.1872C22.5162 17.0414 22.294 16.9129 22.0674 16.8014C21.8496 16.6943 21.6362 16.5957 21.4096 16.5015C20.5209 16.1329 19.5451 15.8758 18.5344 15.85C17.5237 15.82 16.4956 16.0515 15.5938 16.48C14.6876 16.9086 13.9078 17.5043 13.2282 18.16C12.5443 18.8157 11.9474 19.5271 11.3985 20.2556C10.8452 20.9799 10.3399 21.7256 9.83018 22.437L9.44681 22.9641C9.31612 23.1355 9.168 23.337 9.03731 23.5255C8.77156 23.9069 8.52761 24.2969 8.29236 24.6912C7.36443 26.2554 6.60205 27.8625 5.67849 29.3025C5.43017 29.6882 5.23413 29.9839 4.95968 30.2668C4.69393 30.5496 4.39333 30.7982 4.05353 31.0253C3.38263 31.4839 2.57234 31.861 1.76204 32.341C1.56165 32.461 1.57907 32.8252 1.79689 33.1552C2.01471 33.4809 2.32838 33.6609 2.50699 33.5538C3.23452 33.1167 4.06224 32.7395 4.87254 32.191C5.27769 31.9167 5.66977 31.5996 6.01393 31.231C6.18819 31.0467 6.34938 30.8539 6.4975 30.6525C6.64998 30.4425 6.7676 30.2539 6.89394 30.0653C6.90265 30.0525 6.91137 30.0353 6.92008 30.0225C7.02463 30.511 7.1684 30.9867 7.34701 31.441C7.88721 32.8081 8.68009 34.0295 9.61672 35.1309C10.5577 36.2237 11.6599 37.1965 12.9407 37.9465C14.1997 38.6708 15.5371 39.2236 16.9225 39.6222C19.7019 40.4193 22.6251 40.5564 25.4568 40.235C26.8726 40.0765 28.2754 39.8022 29.6477 39.4336C31.0199 39.0608 32.3661 38.6065 33.6774 38.0151C33.8386 37.9422 33.8299 37.5951 33.6512 37.2437C33.477 36.8923 33.2156 36.6651 33.0718 36.7294C31.8608 37.278 30.5712 37.7151 29.2687 38.0665C27.9617 38.4179 26.633 38.6751 25.2912 38.8251C22.6164 39.1293 19.8849 38.9922 17.3233 38.2594C16.0468 37.8951 14.8096 37.3765 13.6682 36.7208C12.5617 36.0737 11.564 35.1995 10.7145 34.2095C9.86939 33.2195 9.15494 32.1053 8.6888 30.9267C8.4579 30.3353 8.29236 29.7311 8.23137 29.1311C8.17038 28.5354 8.2183 27.9483 8.4187 27.4426C8.42305 27.4297 8.42305 27.4126 8.42305 27.3997C8.51453 27.2283 8.60602 27.0611 8.6975 26.894C8.75849 27.4854 8.85869 28.0768 9.01117 28.6597C9.3684 30.0568 10.0175 31.3939 10.9237 32.5381C11.8254 33.6867 12.9712 34.6295 14.2258 35.3495C15.4805 36.0737 16.8397 36.5794 18.2294 36.918C21.0132 37.5908 23.8972 37.6165 26.6896 37.218C29.4821 36.8108 32.2006 35.9709 34.736 34.7495C34.8928 34.6723 34.8711 34.3295 34.6924 33.9824C34.5138 33.6352 34.2481 33.4081 34.1043 33.4809C31.7039 34.6381 29.1249 35.4352 26.4849 35.8209C23.8492 36.198 21.1395 36.168 18.5823 35.5466C17.3058 35.2337 16.073 34.7752 14.9577 34.1281C13.8425 33.4852 12.8449 32.6624 12.0694 31.6724C11.2896 30.6825 10.732 29.5339 10.4139 28.3125C10.0959 27.0911 10.0175 25.8055 10.1046 24.5241C10.1482 24.4598 10.1874 24.3955 10.231 24.3355C10.353 24.1598 10.4706 24.0012 10.61 23.817L10.854 23.4827C10.7886 24.5584 10.9411 25.6426 11.2635 26.6583C11.6686 27.9397 12.3264 29.1182 13.128 30.1725C13.9383 31.2224 14.888 32.161 16.0076 32.9281C16.5653 33.3052 17.1882 33.6524 17.8809 33.8666C18.5213 34.0724 19.1878 34.2181 19.8544 34.3081C20.6124 34.4066 21.3791 34.4366 22.1459 34.3852C22.1502 34.3895 22.1546 34.3938 22.1589 34.3938C23.2437 34.4409 24.2718 34.2438 25.2389 33.9995C26.2104 33.7509 27.134 33.4467 28.0489 33.1724C29.8655 32.6238 31.6952 32.2038 33.4378 32.4867L33.4421 32.4824C33.8168 32.551 34.1914 32.5981 34.5661 32.6324C34.6053 32.6367 34.6619 32.3238 34.6924 31.9338C34.7229 31.5439 34.7229 31.2267 34.6924 31.2224C33.6077 31.1282 32.5404 30.8882 31.6342 30.4125C30.7804 29.9668 30.1007 29.2939 29.6825 28.454C29.6869 28.4368 29.6869 28.4154 29.6869 28.3854C29.6869 28.364 29.6869 28.334 29.6782 28.2911C29.6695 28.2611 29.6695 28.2568 29.6564 28.2054C29.6346 28.154 29.639 28.1368 29.5605 28.0254C29.5431 28.004 29.5257 27.9825 29.5083 27.9611L29.4778 27.9311C29.456 27.9097 29.4342 27.8925 29.4081 27.8754C29.3079 27.8025 29.1859 27.7554 29.0639 27.7425C28.9376 27.7254 28.7807 27.7554 28.6893 27.794C28.637 27.8154 28.5891 27.8454 28.5411 27.8797C28.5194 27.8968 28.4976 27.914 28.4758 27.9354L28.454 27.9611C28.4366 27.9783 28.4235 27.9911 28.4104 28.0083C28.3756 28.0511 28.3712 28.064 28.3582 28.0768C28.2928 28.184 28.2885 28.2054 28.2754 28.244L28.2449 28.3254L28.2362 28.3468L28.2275 28.3768C27.9617 29.4739 27.3997 30.4725 26.5764 31.2224C25.7574 31.981 24.6944 32.4824 23.5617 32.7524C22.429 33.0181 21.2223 33.061 20.0504 32.9067C19.4623 32.8295 18.8872 32.701 18.3253 32.521C17.8068 32.3624 17.3102 32.0881 16.8266 31.7624C15.8639 31.1024 15.0013 30.2582 14.2825 29.3239C13.5637 28.3854 12.9886 27.344 12.6401 26.2426C12.2916 25.1455 12.1827 23.9884 12.37 22.8741C12.553 21.7599 13.0322 20.697 13.7161 19.7542C13.7205 19.7456 13.7249 19.7328 13.7292 19.7199C13.8991 19.5399 14.069 19.3599 14.2433 19.1928C14.8488 18.6143 15.511 18.1171 16.2298 17.7743C16.9486 17.4314 17.7241 17.26 18.5126 17.2814C19.3011 17.2986 20.0983 17.5 20.8607 17.8214C21.0524 17.9028 21.2441 17.9886 21.427 18.0786C21.6013 18.1643 21.7669 18.2628 21.9237 18.37C22.2374 18.5843 22.5162 18.8371 22.7514 19.1285C23.2176 19.7071 23.4876 20.4271 23.5225 21.1685C23.5617 21.9099 23.3613 22.6641 22.9562 23.2727C22.5728 23.8598 21.8671 24.4126 21.3966 24.4041C21.1613 24.4084 20.9348 24.3141 20.7213 24.1041C20.5122 23.8984 20.3423 23.5898 20.2595 23.2727C20.1724 22.9555 20.1768 22.6213 20.2639 22.3941C20.3379 22.2141 20.4294 22.1199 20.5863 22.0599C20.6168 22.1156 20.6516 22.167 20.6995 22.2141C20.9609 22.4713 21.4227 22.4841 21.6841 22.2141C22.0631 21.8199 22.1677 21.3656 22.1677 20.8385C22.1677 20.6885 22.1154 20.547 22.0282 20.4313C21.976 19.8614 21.6884 19.4242 21.3704 19.0985C20.6908 18.4257 19.8021 18.13 18.9439 18.0743C18.5126 18.0486 18.0813 18.0871 17.6718 18.1728C17.271 18.2628 16.9007 18.37 16.5173 18.5243C16.1383 18.6785 15.7593 18.8757 15.4108 19.1371C15.0623 19.3985 14.7486 19.7242 14.5134 20.0885C14.0254 20.8213 13.8294 21.627 13.7118 22.377C13.6813 22.5656 13.6595 22.7541 13.6421 22.9427C13.6247 23.1227 13.6072 23.3155 13.5985 23.5127C13.5811 23.9069 13.5942 24.2969 13.6334 24.6869C13.8033 26.2426 14.4262 27.7211 15.389 28.9511C16.3518 30.1768 17.6979 31.1667 19.2793 31.5824C20.0635 31.7881 20.8956 31.8481 21.7015 31.7496C22.1067 31.7024 22.5031 31.6124 22.8734 31.5096C23.2524 31.4024 23.6227 31.2739 23.9799 31.1196C25.4176 30.5067 26.6896 29.5468 27.6698 28.3468C28.1578 27.7468 28.5803 27.0826 28.8853 26.3497C28.9071 26.2983 28.9289 26.2426 28.9463 26.1869C29.0203 26.294 29.0944 26.3969 29.1728 26.4997C29.6302 27.0997 30.1312 27.6611 30.6845 28.184C31.2378 28.7025 31.839 29.1825 32.5229 29.5853C33.2025 29.9796 33.9736 30.3182 34.8711 30.3825C34.9277 30.3868 34.9843 30.0696 34.9974 29.6796C35.0061 29.2639 34.993 28.9425 34.9582 28.9425ZM29.0944 30.1553C29.1859 30.2668 29.2861 30.3782 29.3863 30.4853C29.6303 30.7382 29.896 30.961 30.1792 31.1667C29.4691 31.2953 28.7807 31.4667 28.1098 31.6596C28.5019 31.201 28.833 30.691 29.0944 30.1553Z" />
<path d="M32.5578 40.1665C32.3356 40.295 32.0437 40.4193 31.7518 40.5264C31.4556 40.6379 31.1506 40.7364 30.837 40.8307C30.214 41.015 29.578 41.1693 28.9332 41.3064C27.6437 41.5764 26.3324 41.7564 25.0168 41.8635C22.3898 42.065 19.7237 41.9621 17.1926 41.3621C15.9292 41.0579 14.705 40.625 13.5767 40.0293C13.2936 39.8793 13.0235 39.725 12.749 39.5493C12.4702 39.3779 12.1957 39.1979 11.9169 39.0136C11.3637 38.6494 10.8147 38.2679 10.2571 37.8865C9.13315 37.1323 7.99177 36.3394 6.5977 35.8166C5.90503 35.5637 5.12522 35.3966 4.32363 35.4395C3.52205 35.4823 2.73788 35.7523 2.08441 36.1466C1.91887 36.2451 1.97986 36.5923 2.20639 36.9094C2.43293 37.2308 2.71174 37.428 2.82936 37.3551C3.326 37.0594 3.8575 36.8794 4.40641 36.8494C4.95532 36.8151 5.53036 36.9308 6.0967 37.1408C7.23809 37.5651 8.33592 38.3022 9.4381 39.0479C9.99137 39.425 10.5446 39.8108 11.111 40.1879C11.3941 40.3764 11.6817 40.565 11.9779 40.745C12.2741 40.9293 12.5835 41.1093 12.8971 41.2764C14.1518 41.9407 15.4892 42.4121 16.8528 42.7378C19.5799 43.3849 22.3855 43.4878 25.1344 43.2778C26.511 43.1707 27.879 42.9778 29.2338 42.695C29.9091 42.5535 30.5843 42.3907 31.2552 42.1893C31.5906 42.0907 31.9261 41.9793 32.2615 41.855C32.6013 41.7264 32.9324 41.5936 33.294 41.3878C33.4813 41.2807 33.4509 40.8907 33.172 40.6122C32.8889 40.325 32.658 40.1065 32.5578 40.1665Z" />
<path d="M31.2813 43.6549C29.1031 44.5078 26.7158 44.9492 24.3328 45.1463C21.9542 45.3263 19.5233 45.2706 17.2361 44.7606C16.6654 44.632 16.1078 44.4692 15.5763 44.2678C15.3106 44.1649 15.0536 44.0535 14.8053 43.9292L14.4219 43.7235L14.0211 43.5049C12.9538 42.9221 11.8995 42.3221 10.8409 41.7136C9.77791 41.1093 8.728 40.4879 7.58225 39.9308C7.00284 39.6608 6.40166 39.3865 5.66542 39.2536C5.29947 39.1893 4.87689 39.1765 4.46303 39.2793C4.04481 39.3779 3.66581 39.5879 3.36957 39.8279C3.2171 39.9479 3.33907 40.2779 3.61788 40.5564C3.89669 40.835 4.19293 40.9936 4.27135 40.9293C4.62857 40.6464 4.94225 40.5736 5.42145 40.6507C5.89195 40.7279 6.4278 40.955 6.95057 41.2036C8.00048 41.7136 9.05909 42.3392 10.1177 42.9392C11.1763 43.5478 12.2437 44.1521 13.3197 44.7435L13.7248 44.962L14.1474 45.1892C14.4437 45.3392 14.7486 45.472 15.0536 45.5877C15.6635 45.8234 16.2864 45.9991 16.9138 46.1406C18.1641 46.4234 19.4231 46.5648 20.6821 46.6248C21.9411 46.6848 23.2001 46.6548 24.4504 46.5563C25.7007 46.4577 26.9467 46.2863 28.1795 46.0291C29.4124 45.772 30.6322 45.4377 31.8215 44.9663C31.9697 44.9063 31.9566 44.5678 31.7998 44.2078C31.6473 43.8478 31.412 43.5992 31.2813 43.6549Z" />
<path d="M29.0465 47.6834C25.3479 48.4976 21.5229 48.9005 17.8373 48.2791C16.9181 48.1248 16.012 47.9062 15.1146 47.6362C14.766 47.5291 14.4219 47.4134 14.0777 47.2977C13.7597 47.1691 13.3981 46.972 13.0452 46.7663C12.6924 46.5563 12.3395 46.3334 11.9866 46.1063L9.85633 44.7092C9.13751 44.2421 8.40998 43.7749 7.63453 43.3464C7.24245 43.1321 6.84167 42.9264 6.37989 42.755C6.14464 42.6735 5.90067 42.5921 5.56087 42.5621C5.4781 42.5535 5.38662 42.5535 5.27771 42.5621C5.15572 42.575 5.05552 42.5964 4.95532 42.6307C4.75492 42.7035 4.57195 42.8278 4.44126 42.9907C4.37591 43.0849 4.60244 43.3592 4.92482 43.5864C5.20799 43.7878 5.43453 43.9549 5.43017 43.9635C5.43017 43.9635 5.43453 43.9635 5.4171 43.9678C5.41274 43.9678 5.43453 43.9678 5.45631 43.9678C5.54779 43.9721 5.7177 44.0149 5.87888 44.0749C6.21433 44.1992 6.57592 44.3792 6.93315 44.5763C7.56048 44.9235 8.18345 45.3177 8.80642 45.7206C8.51889 45.6991 8.22701 45.6906 7.93513 45.7077C7.39057 45.7377 6.85038 45.8363 6.33632 45.9991C6.20998 46.0377 6.21869 46.372 6.34939 46.7405C6.48444 47.1091 6.67176 47.3791 6.7676 47.3491C7.58662 47.092 8.42305 47.0534 9.28127 47.212C10.1395 47.3662 11.0195 47.6919 11.9169 48.0219C12.8144 48.3562 13.7379 48.7033 14.6876 48.9905C15.6373 49.2776 16.6088 49.5133 17.589 49.6762C19.5581 50.0104 21.5578 50.0662 23.5312 49.9333C25.5047 49.8005 27.4477 49.4876 29.3602 49.0676C29.4778 49.0419 29.4996 48.7119 29.4124 48.3305C29.3209 47.9491 29.1554 47.6577 29.0465 47.6834Z" />
</svg>
