<svg width="142" height="59" viewBox="0 0 142 59" fill="none" xmlns="http://www.w3.org/2000/svg">
<path d="M10 54H6.928L4.16 49.072V54H0.432V42.768H4.88L8.512 48.992L12.144 42.768H16.608V54H12.88V49.04L10 54ZM18.4069 42.768H30.8069V45.888H22.1349V46.88H30.2629V49.872H22.1349V50.88H30.8069V54H18.4069V42.768ZM32.6101 42.768H47.4421V46.48H41.8901V54H38.1781V46.48H32.6101V42.768ZM56.7745 42.8L61.8145 54H57.4945L56.6465 52.112H51.0945L50.2465 54H45.9585L50.9825 42.8H56.7745ZM52.4225 48.88H55.3185L53.8625 45.936L52.4225 48.88ZM73.0594 54H69.9874L67.2194 49.072V54H63.4914V42.768H67.9394L71.5714 48.992L75.2034 42.768H79.6674V54H75.9394V49.04L73.0594 54ZM88.6224 42.592C89.6357 42.592 90.5317 42.6507 91.3104 42.768C92.089 42.8747 92.809 43.0613 93.4704 43.328C94.1317 43.5947 94.6704 43.9467 95.0864 44.384C95.513 44.8107 95.8437 45.3547 96.0784 46.016C96.313 46.6667 96.4304 47.4347 96.4304 48.32C96.4304 49.1947 96.3237 49.952 96.1104 50.592C95.9077 51.232 95.609 51.776 95.2144 52.224C94.8304 52.6613 94.3184 53.0187 93.6784 53.296C93.049 53.5627 92.3344 53.7547 91.5344 53.872C90.7344 53.9893 89.801 54.048 88.7344 54.048C86.089 54.048 84.1637 53.568 82.9584 52.608C81.7637 51.6373 81.1664 50.1387 81.1664 48.112C81.1664 46.2347 81.7797 44.848 83.0064 43.952C84.233 43.0453 86.105 42.592 88.6224 42.592ZM88.7664 51.104C89.897 51.104 90.7717 50.8747 91.3904 50.416C92.009 49.9573 92.3184 49.2587 92.3184 48.32C92.3184 47.4133 91.993 46.7253 91.3424 46.256C90.6917 45.776 89.817 45.536 88.7184 45.536C88.1424 45.536 87.6357 45.6 87.1984 45.728C86.761 45.8453 86.3984 46.0267 86.1104 46.272C85.833 46.5173 85.625 46.8107 85.4864 47.152C85.3477 47.4933 85.2784 47.8827 85.2784 48.32C85.2784 49.1627 85.5717 49.84 86.1584 50.352C86.745 50.8533 87.6144 51.104 88.7664 51.104ZM97.9195 42.768H106.176C106.389 42.768 106.592 42.7733 106.784 42.784C106.976 42.7947 107.242 42.832 107.584 42.896C107.936 42.9493 108.25 43.0293 108.528 43.136C108.816 43.232 109.12 43.3867 109.44 43.6C109.76 43.8027 110.026 44.048 110.24 44.336C110.464 44.6133 110.645 44.9707 110.784 45.408C110.933 45.8453 111.008 46.3413 111.008 46.896C111.008 48.6667 110.32 49.9307 108.944 50.688L111.248 54L106.944 53.984L105.024 51.344H101.648V54H97.9195V42.768ZM105.824 48.064C106.752 48.064 107.216 47.712 107.216 47.008C107.216 46.368 106.73 46.048 105.76 46.048H101.648V48.064H105.824ZM112.735 42.768H120.623C120.836 42.768 121.039 42.7733 121.231 42.784C121.423 42.7947 121.69 42.832 122.031 42.896C122.383 42.9493 122.698 43.0347 122.975 43.152C123.263 43.2587 123.567 43.4187 123.887 43.632C124.207 43.8453 124.474 44.1013 124.687 44.4C124.911 44.688 125.092 45.0667 125.231 45.536C125.38 45.9947 125.455 46.512 125.455 47.088C125.455 47.6533 125.386 48.1707 125.247 48.64C125.119 49.1093 124.948 49.504 124.735 49.824C124.522 50.1333 124.266 50.4107 123.967 50.656C123.668 50.8907 123.375 51.0773 123.087 51.216C122.799 51.344 122.495 51.4507 122.175 51.536C121.866 51.6107 121.599 51.664 121.375 51.696C121.151 51.7173 120.943 51.728 120.751 51.728H116.463V54H112.735V42.768ZM120.511 48.416C121.492 48.416 121.983 48.0107 121.983 47.2C121.983 47.0187 121.956 46.864 121.903 46.736C121.86 46.608 121.791 46.5067 121.695 46.432C121.599 46.3467 121.503 46.2773 121.407 46.224C121.311 46.1707 121.194 46.1387 121.055 46.128C120.927 46.1067 120.82 46.0907 120.735 46.08C120.65 46.0693 120.554 46.064 120.447 46.064H116.463V48.416H120.511ZM137.545 42.768H141.273V54H137.545V50.096H130.857V54H127.129V42.768H130.857V46.656H137.545V42.768Z" fill="white"/>
<path fill-rule="evenodd" clip-rule="evenodd" d="M88 15C88 23.2843 81.2843 30 73 30C64.7157 30 58 23.2843 58 15C58 6.71573 64.7157 0 73 0C81.2843 0 88 6.71573 88 15ZM76.6515 16.0503L75.7456 15.1465L74.8398 14.2429L75.8394 13.232L76.839 12.2212L75.8406 11.2114L74.8422 10.2018L75.7123 9.32705L76.5824 8.45226L77.5804 9.44979L78.5786 10.4473L79.6335 9.43405L80.6884 8.42067L81.58 9.31014L82.4714 10.1995L81.4719 11.2104L80.4723 12.2212L81.4719 13.232L82.4714 14.2429L81.5646 15.1476L80.6577 16.0522L79.6587 15.0478L78.6595 14.0433L77.6555 15.0468L76.6515 16.0503ZM64.1714 15.1465L65.0772 16.0503L66.0813 15.0468L67.0853 14.0433L68.0845 15.0478L69.0835 16.0522L69.9904 15.1476L70.8972 14.2429L69.8976 13.232L68.8981 12.2212L69.8976 11.2104L70.8972 10.1995L70.0058 9.31014L69.1142 8.42067L68.0593 9.43405L67.0043 10.4473L66.0062 9.44979L65.0082 8.45226L64.1381 9.32705L63.268 10.2018L64.2664 11.2114L65.2648 12.2212L64.2652 13.232L63.2656 14.2429L64.1714 15.1465Z" fill="white"/>
</svg>
