<svg width="213" height="83" viewBox="0 0 213 83" fill="none" xmlns="http://www.w3.org/2000/svg">
<path d="M15 76H10.392L6.24 68.608V76H0.648V59.152H7.32L12.768 68.488L18.216 59.152H24.912V76H19.32V68.56L15 76ZM27.6103 59.152H46.2103V63.832H33.2023V65.32H45.3943V69.808H33.2023V71.32H46.2103V76H27.6103V59.152ZM48.9152 59.152H71.1632V64.72H62.8352V76H57.2672V64.72H48.9152V59.152ZM85.1617 59.2L92.7218 76H86.2417L84.9697 73.168H76.6417L75.3697 76H68.9377L76.4737 59.2H85.1617ZM78.6337 68.32H82.9777L80.7937 63.904L78.6337 68.32ZM109.589 76H104.981L100.829 68.608V76H95.2371V59.152H101.909L107.357 68.488L112.805 59.152H119.501V76H113.909V68.56L109.589 76ZM132.934 58.888C134.454 58.888 135.798 58.976 136.966 59.152C138.134 59.312 139.214 59.592 140.206 59.992C141.198 60.392 142.006 60.92 142.63 61.576C143.27 62.216 143.766 63.032 144.118 64.024C144.47 65 144.646 66.152 144.646 67.48C144.646 68.792 144.486 69.928 144.166 70.888C143.862 71.848 143.414 72.664 142.822 73.336C142.246 73.992 141.478 74.528 140.518 74.944C139.574 75.344 138.502 75.632 137.302 75.808C136.102 75.984 134.702 76.072 133.102 76.072C129.134 76.072 126.246 75.352 124.438 73.912C122.646 72.456 121.75 70.208 121.75 67.168C121.75 64.352 122.67 62.272 124.51 60.928C126.35 59.568 129.158 58.888 132.934 58.888ZM133.15 71.656C134.846 71.656 136.158 71.312 137.086 70.624C138.014 69.936 138.478 68.888 138.478 67.48C138.478 66.12 137.99 65.088 137.014 64.384C136.038 63.664 134.726 63.304 133.078 63.304C132.214 63.304 131.454 63.4 130.798 63.592C130.142 63.768 129.598 64.04 129.166 64.408C128.75 64.776 128.438 65.216 128.23 65.728C128.022 66.24 127.918 66.824 127.918 67.48C127.918 68.744 128.358 69.76 129.238 70.528C130.118 71.28 131.422 71.656 133.15 71.656ZM146.879 59.152H159.263C159.583 59.152 159.887 59.16 160.175 59.176C160.463 59.192 160.863 59.248 161.375 59.344C161.903 59.424 162.375 59.544 162.791 59.704C163.223 59.848 163.679 60.08 164.159 60.4C164.639 60.704 165.039 61.072 165.359 61.504C165.695 61.92 165.967 62.456 166.175 63.112C166.399 63.768 166.511 64.512 166.511 65.344C166.511 68 165.479 69.896 163.415 71.032L166.871 76L160.415 75.976L157.535 72.016H152.471V76H146.879V59.152ZM158.735 67.096C160.127 67.096 160.823 66.568 160.823 65.512C160.823 64.552 160.095 64.072 158.639 64.072H152.471V67.096H158.735ZM169.103 59.152H180.935C181.255 59.152 181.559 59.16 181.847 59.176C182.135 59.192 182.535 59.248 183.047 59.344C183.575 59.424 184.047 59.552 184.463 59.728C184.895 59.888 185.351 60.128 185.831 60.448C186.311 60.768 186.711 61.152 187.031 61.6C187.367 62.032 187.639 62.6 187.847 63.304C188.071 63.992 188.183 64.768 188.183 65.632C188.183 66.48 188.079 67.256 187.871 67.96C187.679 68.664 187.423 69.256 187.103 69.736C186.783 70.2 186.399 70.616 185.951 70.984C185.503 71.336 185.063 71.616 184.631 71.824C184.199 72.016 183.743 72.176 183.263 72.304C182.799 72.416 182.399 72.496 182.063 72.544C181.727 72.576 181.415 72.592 181.127 72.592H174.695V76H169.103V59.152ZM180.767 67.624C182.239 67.624 182.975 67.016 182.975 65.8C182.975 65.528 182.935 65.296 182.855 65.104C182.791 64.912 182.687 64.76 182.543 64.648C182.399 64.52 182.255 64.416 182.111 64.336C181.967 64.256 181.791 64.208 181.583 64.192C181.391 64.16 181.231 64.136 181.103 64.12C180.975 64.104 180.831 64.096 180.671 64.096H174.695V67.624H180.767ZM206.317 59.152H211.909V76H206.317V70.144H196.285V76H190.693V59.152H196.285V64.984H206.317V59.152Z" fill="url(#paint0_linear_433_498)"/>
<path fill-rule="evenodd" clip-rule="evenodd" d="M127 21C127 32.598 117.598 42 106 42C94.402 42 85 32.598 85 21C85 9.40202 94.402 0 106 0C117.598 0 127 9.40202 127 21ZM111.114 22.4699L109.846 21.2046L108.578 19.9395L109.978 18.5243L111.377 17.1092L109.979 15.6955L108.581 14.2821L109.8 13.0574L111.018 11.8327L112.415 13.2292L113.812 14.6257L115.289 13.2072L116.766 11.7884L118.014 13.0337L119.262 14.2788L117.863 15.6941L116.464 17.1092L117.863 18.5243L119.262 19.9395L117.993 21.2061L116.723 22.4727L115.325 21.0665L113.926 19.6601L112.52 21.065L111.114 22.4699ZM93.6392 21.2046L94.9073 22.4699L96.3131 21.065L97.7186 19.6601L99.1175 21.0665L100.516 22.4727L101.786 21.2061L103.055 19.9395L101.656 18.5243L100.257 17.1092L101.656 15.6941L103.055 14.2788L101.807 13.0337L100.559 11.7884L99.0822 13.2072L97.6053 14.6257L96.2079 13.2292L94.8107 11.8327L93.5925 13.0574L92.3744 14.2821L93.7721 15.6955L95.1699 17.1092L93.7705 18.5243L92.3711 19.9395L93.6392 21.2046Z" fill="url(#paint1_linear_433_498)"/>
<defs>
<linearGradient id="paint0_linear_433_498" x1="-70" y1="70.6506" x2="308.835" y2="62.3543" gradientUnits="userSpaceOnUse">
<stop stop-color="#FBBF9A"/>
<stop offset="0.128125" stop-color="#FFE876"/>
<stop offset="0.294792" stop-color="#12F9F8"/>
<stop offset="0.539583" stop-color="#9CFD82"/>
<stop offset="0.753125" stop-color="#FCF16E"/>
<stop offset="1" stop-color="#FED292"/>
</linearGradient>
<linearGradient id="paint1_linear_433_498" x1="71.1972" y1="21.253" x2="145.932" y2="21.0609" gradientUnits="userSpaceOnUse">
<stop stop-color="#FBBF9A"/>
<stop offset="0.128125" stop-color="#FFE876"/>
<stop offset="0.294792" stop-color="#12F9F8"/>
<stop offset="0.539583" stop-color="#9CFD82"/>
<stop offset="0.753125" stop-color="#FCF16E"/>
<stop offset="1" stop-color="#FED292"/>
</linearGradient>
</defs>
</svg>
