<svg version="1.2" baseProfile="tiny-ps" xmlns="http://www.w3.org/2000/svg" viewBox="0 0 35 40" width="35" height="40">
	<title>eternal-svg</title>
	<defs>
		<linearGradient id="grd1" gradientUnits="userSpaceOnUse"  x1="-6.683" y1="20" x2="185.738" y2="20">
			<stop offset="0" stop-color="#ffe876"  />
			<stop offset="0.3" stop-color="#12f9f8"  />
			<stop offset="0.711" stop-color="#9cfd82"  />
			<stop offset="1" stop-color="#fcf16e"  />
		</linearGradient>
	</defs>
	<style>
		tspan { white-space:pre }
		.shp0 { fill: url(#grd1) } 
	</style>
	<path id="Layer" fill-rule="evenodd" class="shp0" d="M0.5 0.5L10.25 0.5L10.25 1.5L1.5 1.5L1.5 10.42L0.5 10.42L0.5 0.5ZM25.06 0.5L34.5 0.5L34.5 10.42L33.5 10.42L33.5 1.5L25.06 1.5L25.06 0.5ZM10.25 38.5L10.25 39.5L0.5 39.5L0.5 30.43L1.5 30.43L1.5 38.5L10.25 38.5ZM33.5 38.5L33.5 30.43L34.5 30.43L34.5 39.5L25.06 39.5L25.06 38.5L33.5 38.5ZM8.14 32.67L8.14 8.24L16.11 8.24L16.11 32.67L8.14 32.67ZM18.89 32.67L18.89 8.24L26.86 8.24L26.86 32.67L18.89 32.67ZM66.2 13.86L55.36 13.86L55.36 15.1L65.52 15.1L65.52 18.84L55.36 18.84L55.36 20.1L66.2 20.1L66.2 24L50.7 24L50.7 9.96L66.2 9.96L66.2 13.86ZM86 14.6L79.06 14.6L79.06 24L74.42 24L74.42 14.6L67.46 14.6L67.46 9.96L86 9.96L86 14.6ZM102.76 13.86L91.92 13.86L91.92 15.1L102.08 15.1L102.08 18.84L91.92 18.84L91.92 20.1L102.76 20.1L102.76 24L87.26 24L87.26 9.96L102.76 9.96L102.76 13.86ZM115.31 9.98C115.55 9.99 115.89 10.04 116.31 10.12C116.75 10.19 117.15 10.29 117.49 10.42C117.85 10.54 118.23 10.73 118.63 11C119.03 11.25 119.37 11.56 119.63 11.92C119.91 12.27 120.14 12.71 120.31 13.26C120.5 13.81 120.59 14.43 120.59 15.12C120.59 17.33 119.73 18.91 118.01 19.86L120.89 24L115.51 23.98L113.11 20.68L108.89 20.68L108.89 24L104.23 24L104.23 9.96L114.55 9.96C114.82 9.96 115.07 9.97 115.31 9.98ZM114.03 14.06L108.89 14.06L108.89 16.58L114.11 16.58C115.27 16.58 115.85 16.14 115.85 15.26C115.85 14.46 115.25 14.06 114.03 14.06ZM126.63 15.54L126.63 24L121.97 24L121.97 9.96L128.47 9.96L135.23 18.28L135.23 9.96L139.87 9.96L139.87 24L133.51 24L126.63 15.54ZM155.02 24L153.96 21.64L147.02 21.64L145.96 24L140.6 24L146.88 10L154.12 10L160.42 24L155.02 24ZM150.48 13.92L148.68 17.6L152.3 17.6L150.48 13.92ZM175.91 24L161.07 24L161.07 9.96L165.73 9.96L165.73 19.34L175.91 19.34L175.91 24Z" />
</svg>