<svg width="87" height="96" viewBox="0 0 87 96" fill="none" xmlns="http://www.w3.org/2000/svg">
<path fill-rule="evenodd" clip-rule="evenodd" d="M1.21033 16.5106C0.604775 17.2473 0.703625 17.4506 2.50829 19.172C3.34547 19.9706 4.89986 21.5988 5.96212 22.7906C7.02471 23.9823 9.52931 26.3303 11.5278 28.0083C13.5267 29.6865 15.2245 31.2288 15.3015 31.4363C15.3784 31.6435 13.7667 34.7296 11.7198 38.2947C9.67323 41.8593 7.57683 45.783 7.06103 47.0135C6.15133 49.1845 6.14848 49.2732 6.96263 50.0138C7.42411 50.4339 8.2591 50.84 8.81858 50.9169C9.80277 51.0516 9.9787 50.7984 14.2433 43.1238C16.6675 38.7613 18.8351 35.0719 19.06 34.9258C19.2851 34.7792 20.1949 35.2202 21.0817 35.9058C21.9684 36.5911 24.0077 38.1782 25.6133 39.4326C28.6619 41.8137 29.6925 42.0165 29.2318 40.1444C29.0555 39.4278 27.8145 38.0505 25.0468 35.4979C22.865 33.4865 21.1154 31.6097 21.1189 31.2855C21.1223 30.964 22.7058 28.0641 24.6369 24.841C26.5685 21.6182 28.4108 18.39 28.7309 17.6673C29.7359 15.3998 28.1912 12.9853 26.4852 14.1568C26.1036 14.4187 24.0485 17.6224 21.9177 21.2762C19.7868 24.9306 17.8806 27.9806 17.6819 28.0543C17.4829 28.1281 14.5433 25.5425 11.149 22.3081C7.75479 19.0742 4.54835 16.198 4.02342 15.9168C3.00621 15.3719 1.96592 15.5917 1.21033 16.5106ZM42.0996 3.82692C42.0959 4.15471 42.3867 4.94069 42.7456 5.57338C43.427 6.77385 44.1682 7.5315 50.3635 13.3614C52.4295 15.3054 54.2 17.1118 54.2978 17.3754C54.3955 17.639 53.8007 19.5851 52.9761 21.7003C51.3108 25.9696 47.5136 38.4783 47.7208 39.012C48.2731 40.4345 51.1384 39.8894 52.0214 38.1935C52.287 37.6836 53.351 34.2652 54.3858 30.5972C56.7145 22.3438 57.4826 20.273 58.1116 20.5529C58.5898 20.7661 64.3985 25.4949 67.6174 28.2918C68.5893 29.1362 69.7652 30.0125 70.2307 30.2393C71.1908 30.707 72.1051 30.1414 71.7849 29.2783C71.6694 28.967 69.3104 26.7657 66.5428 24.3865C63.7748 22.0075 60.9038 19.4759 60.1625 18.7606L58.8148 17.4605L60.252 13.8452C61.0423 11.8569 62.013 9.61529 62.4086 8.8638C65.2405 3.48733 65.4441 1.18618 63.1527 0.449198C60.8136 -0.303523 60.5732 0.0632145 57.7238 8.72637C56.2986 13.0604 55.914 13.8724 55.4028 13.6242C55.0658 13.4608 53.5859 12.0437 52.1133 10.4755C47.2924 5.33988 44.8335 3.05607 44.0029 2.94247C42.851 2.78466 42.1072 3.13017 42.0996 3.82692ZM5.44939 69.9614C4.98214 70.9797 6.34256 73.6572 10.1285 79.1722C14.7925 85.9657 15.8835 87.2445 18.8604 89.4065C28.5485 96.4416 40.0182 97.0196 57.1299 91.336C64.225 88.9792 65.5311 88.1929 69.9882 83.596C78.4482 74.871 83.7216 64.3341 86.1599 51.2846C86.8094 47.808 86.6921 46.2172 85.6943 44.9681C84.7352 43.7672 83.3867 43.1625 82.6642 43.6089C82.3657 43.7939 82.1614 44.6578 82.1899 45.6145C82.2172 46.539 82.0892 48.0105 81.9051 48.8843C81.7206 49.7581 81.598 50.5491 81.6326 50.6423C82.2847 52.4 74.7238 69.5605 71.0899 74.5701C67.9085 78.9559 63.4279 82.8945 58.2224 85.8813C55.3337 87.5388 54.2885 87.9485 48.8476 89.5567C36.9436 93.075 33.4314 93.3149 26.9993 91.048C23.5292 89.8252 20.8324 87.7892 18.104 84.3332C15.6169 81.1825 11.5772 74.9843 10.2631 72.3024C8.76374 69.242 6.32394 68.0553 5.44939 69.9614Z" fill="white"/>
</svg>
