<svg width="20" height="23" viewBox="0 0 20 23" fill="white" xmlns="http://www.w3.org/2000/svg">
<path d="M0.18457 19.488V22.0757H2.95025M16.4519 22.0757H19.1244V19.488M0.18457 3.82132V0.978027H2.95025M19.1244 3.82132V0.978027H16.4519" stroke="white" stroke-width="0.168367"/>
<path d="M14.7031 13.9012C14.0796 13.8936 13.4591 13.7645 12.8877 13.5167C12.3163 13.269 11.794 12.9043 11.3565 12.4514C10.919 11.9985 10.5663 11.4605 10.3119 10.8769C10.0574 10.2933 9.89966 9.66416 9.83567 9.02435C9.83418 9.00915 9.81633 8.99699 9.78805 8.98788C9.77764 8.87541 9.70323 8.76903 9.55889 8.76903C9.358 8.76903 9.28955 8.97572 9.35056 9.12009C9.42199 9.79334 9.59014 10.4575 9.86097 11.0806C10.1377 11.7158 10.5232 12.3055 11.0038 12.804C11.4845 13.3025 12.0603 13.7067 12.6928 13.9787C13.3252 14.2523 14.0097 14.3936 14.6927 14.4028C14.7344 14.4028 14.7686 14.2918 14.7686 14.152C14.7716 14.0137 14.7403 13.9012 14.7031 13.9012Z" />
<path d="M14.7344 12.497C14.2136 12.5183 13.6853 12.4271 13.2091 12.2204C12.7315 12.0152 12.3103 11.6885 11.977 11.2781C11.8103 11.073 11.6645 10.8496 11.5395 10.6125C11.5083 10.5532 11.477 10.4924 11.4517 10.4362C11.4249 10.3785 11.3996 10.3161 11.3758 10.2538C11.3267 10.1277 11.2821 9.99699 11.2389 9.86477C11.1526 9.60034 11.0737 9.33134 10.9979 9.06082L10.8877 8.65353L10.7791 8.228L10.7523 8.16113L10.73 8.10794C10.7151 8.07298 10.6988 8.03803 10.6809 8.00155C10.6452 7.93165 10.6065 7.86326 10.5618 7.79639C10.4726 7.66417 10.3624 7.53955 10.227 7.43773C10.0931 7.3359 9.93388 7.25992 9.76573 7.22496C9.59758 7.18849 9.42199 7.19305 9.2583 7.23256C8.92795 7.31159 8.65414 7.51828 8.45921 7.76752C8.26129 8.01827 8.13778 8.31462 8.07528 8.61554C7.9488 9.22344 8.05743 9.83894 8.26278 10.3784C8.45921 10.9073 8.6973 11.4195 8.98003 11.9073C9.54401 12.8815 10.291 13.7599 11.2092 14.418C11.6675 14.7462 12.169 15.0167 12.6987 15.2113C13.2285 15.4073 13.7865 15.5243 14.3475 15.5578C14.4531 15.5638 14.5395 15.4544 14.5424 15.3161C14.5454 15.1763 14.471 15.0623 14.3758 15.0562C13.3431 14.997 12.3386 14.617 11.4904 14.0061C10.6377 13.3967 9.93537 12.573 9.40264 11.6505C9.13479 11.19 8.9086 10.7022 8.72259 10.1991C8.53807 9.71584 8.45623 9.1976 8.55593 8.7204C8.60504 8.48332 8.70176 8.25992 8.84313 8.08058C8.98301 7.90125 9.1705 7.76752 9.3699 7.7204C9.56931 7.67177 9.7702 7.71584 9.93537 7.84198C10.0187 7.90429 10.0931 7.98636 10.1556 8.08058C10.1869 8.1277 10.2166 8.17785 10.2434 8.23104C10.2568 8.25687 10.2687 8.28423 10.2806 8.31158L10.2985 8.35262L10.3104 8.38149L10.413 8.78271L10.5246 9.1976C10.602 9.4742 10.6824 9.74927 10.7732 10.0243C10.8178 10.1626 10.8654 10.2994 10.919 10.4377C10.9458 10.5076 10.974 10.576 11.0068 10.6474C11.0395 10.7204 11.0737 10.7857 11.108 10.8511C11.2478 11.114 11.4115 11.3663 11.6005 11.5988C11.9785 12.0654 12.4681 12.4453 13.0187 12.6824C13.5677 12.921 14.1645 13.0228 14.7567 12.9985C14.8639 12.9939 14.9412 12.8724 14.9264 12.7356C14.9115 12.5973 14.8267 12.4924 14.7344 12.497Z" />
<path d="M14.1511 16.3222C13.2434 16.1505 12.352 15.8921 11.535 15.4818C10.7181 15.0745 9.98597 14.5031 9.40711 13.7903C8.82527 13.0806 8.39224 12.2462 8.07082 11.3678C7.90564 10.9271 7.77916 10.4848 7.70029 10.0289C7.62142 9.57449 7.58868 9.11249 7.63035 8.66417C7.67202 8.21736 7.79404 7.78119 8.02171 7.41949C8.13629 7.2356 8.2732 7.08058 8.43837 6.93317C8.60057 6.78879 8.77617 6.66569 8.96217 6.5821C9.14818 6.49852 9.34461 6.45596 9.53806 6.46508C9.73151 6.47268 9.92347 6.53195 10.1005 6.63226C10.4577 6.83438 10.7479 7.18089 10.9726 7.5669C11.0856 7.76143 11.1839 7.9666 11.2687 8.17784C11.3535 8.38757 11.4264 8.61249 11.5008 8.83894C11.6496 9.2903 11.7836 9.76143 12.0127 10.2204C12.1273 10.4484 12.2731 10.6718 12.4547 10.8663C12.6362 11.0608 12.855 11.2234 13.0871 11.342C13.5558 11.5806 14.0618 11.6611 14.5469 11.69C14.6674 11.6976 14.7656 11.5867 14.7686 11.4484C14.7716 11.3085 14.6838 11.1961 14.5752 11.1885C14.1273 11.1626 13.6838 11.0851 13.3073 10.8921C13.1198 10.7964 12.9532 10.6718 12.8103 10.5198C12.6675 10.3663 12.5484 10.187 12.4487 9.98939C12.2478 9.59274 12.1154 9.13833 11.9666 8.68088C11.8922 8.4514 11.8178 8.2204 11.7225 7.98636C11.6288 7.75536 11.5217 7.52739 11.3937 7.30854C11.1392 6.87541 10.8059 6.459 10.3357 6.19152C10.102 6.05931 9.83269 5.9742 9.55591 5.96356C9.28062 5.9514 9.00533 6.0122 8.76128 6.12314C8.51724 6.23256 8.30147 6.38454 8.10951 6.55627C7.92052 6.72344 7.74047 6.92709 7.60208 7.14897C7.32083 7.59578 7.18244 8.1125 7.13482 8.61705C7.08721 9.12465 7.1259 9.62921 7.21072 10.1186C7.29554 10.6079 7.43393 11.0897 7.60505 11.5456C7.94136 12.4635 8.39819 13.3511 9.02467 14.1155C9.64669 14.8815 10.4413 15.5015 11.3133 15.9347C12.1853 16.3724 13.1198 16.6413 14.0573 16.8192C14.1719 16.8404 14.2835 16.7462 14.3058 16.6094C14.3326 16.4681 14.2612 16.342 14.1511 16.3222Z" />
<path d="M13.6466 17.2508C12.605 17.0562 11.5752 16.7796 10.6422 16.3085C10.1764 16.073 9.73746 15.7872 9.34014 15.4499C8.94283 15.1125 8.58718 14.7234 8.27468 14.2994C7.99939 13.9256 7.75833 13.5243 7.54107 13.1079C7.51875 13.0608 7.49791 13.0137 7.47262 12.9681C7.47113 12.9651 7.46815 12.962 7.46369 12.9605C7.45922 12.9529 7.45476 12.9438 7.45029 12.9362C7.32976 12.6991 7.21816 12.4514 7.10953 12.2052C7.00387 11.9666 6.91608 11.7174 6.84167 11.4651C6.61995 10.6961 6.52323 9.88453 6.55448 9.0821C6.56638 8.92405 6.58275 8.76599 6.60656 8.61098C6.60805 8.60034 6.60358 8.5897 6.59168 8.57906C6.60061 8.49092 6.60954 8.40277 6.62144 8.31614C6.69882 7.79487 6.83572 7.28271 7.05447 6.81463C7.27173 6.34806 7.57678 5.92709 7.96963 5.62922C8.36099 5.32831 8.83718 5.16266 9.3327 5.1353C9.57972 5.1201 9.83269 5.13682 10.0827 5.17786C10.1452 5.18849 10.2077 5.20065 10.2687 5.21281C10.3282 5.22497 10.3848 5.24016 10.4428 5.2584C10.5574 5.29336 10.6675 5.34047 10.7717 5.3967C11.1928 5.62162 11.5142 6.02284 11.7627 6.47724C12.0127 6.93317 12.2002 7.43925 12.3907 7.9514C12.5841 8.46356 12.7716 8.99091 13.0692 9.49243C13.2195 9.74167 13.4026 9.98483 13.6451 10.1809C13.8862 10.3784 14.1898 10.5107 14.4963 10.5502C14.6496 10.5715 14.7686 10.4544 14.7656 10.3177C14.7627 10.1778 14.6689 10.0684 14.5618 10.0532C14.3356 10.0228 14.1273 9.93316 13.9487 9.78726C13.7686 9.64289 13.6169 9.44684 13.4859 9.22952C13.2255 8.79183 13.0395 8.28271 12.8475 7.77207C12.6556 7.25992 12.4636 6.73408 12.1883 6.23256C12.0499 5.9818 11.8907 5.73712 11.6943 5.51524C11.4993 5.29336 11.2642 5.09731 10.9979 4.95445C10.8654 4.88302 10.7255 4.82375 10.5827 4.77968C10.5113 4.7584 10.4383 4.73865 10.3669 4.72345C10.297 4.70825 10.227 4.69609 10.1571 4.68394C9.87734 4.63834 9.59014 4.61859 9.30145 4.6353C9.01277 4.65202 8.72408 4.70825 8.44581 4.80704C8.16903 4.90582 7.90713 5.0502 7.67202 5.22953C7.2003 5.58819 6.85209 6.07907 6.60805 6.60034C6.364 7.12466 6.2152 7.68241 6.13186 8.24472C6.09169 8.51827 6.06788 8.79183 6.05746 9.0669C6.0158 9.62313 6.03216 10.1748 6.05597 10.7174C6.08871 11.4332 6.14079 12.1383 6.12591 12.8328C6.11103 13.5243 6.0277 14.2143 5.75241 14.8131C5.61699 15.111 5.43247 15.3815 5.2048 15.6125C5.00837 15.8131 4.77921 15.9818 4.53219 16.1262C4.26731 16.1687 4.28071 16.6079 4.57386 16.6079C4.57534 16.6079 4.57534 16.6079 4.57683 16.6079C4.60511 16.6337 4.6304 16.6444 4.64826 16.6353C4.97415 16.4605 5.28515 16.2401 5.55152 15.9681C5.81937 15.6961 6.03812 15.3739 6.19585 15.0259C6.35508 14.6793 6.45626 14.3116 6.51876 13.9438C6.58126 13.576 6.60656 13.2082 6.61549 12.8435C6.61846 12.6702 6.61846 12.497 6.61549 12.3253C6.62739 12.3541 6.6393 12.383 6.65269 12.4134C6.76578 12.6657 6.87888 12.918 7.00536 13.1672C7.03512 13.2249 7.06637 13.2827 7.09613 13.342C7.25387 13.693 7.31042 14.0866 7.26429 14.4757C7.21369 14.9149 7.04256 15.3435 6.79554 15.7204C6.54852 16.0988 6.2271 16.4301 5.85955 16.6839C5.52176 16.9164 5.14081 17.0836 4.74945 17.1459C4.73903 17.1444 4.72861 17.1429 4.71671 17.1429C4.42802 17.1429 4.41017 17.5714 4.66314 17.6246C4.67504 17.6489 4.68695 17.6626 4.69737 17.6611C5.22265 17.6018 5.71074 17.3906 6.13335 17.1003C6.55745 16.8085 6.92054 16.4331 7.20476 16C7.4875 15.5669 7.68987 15.0684 7.75237 14.5365C7.75684 14.5046 7.75832 14.4742 7.75981 14.4423C7.79701 14.4955 7.83422 14.5502 7.87291 14.6034C8.20475 15.0562 8.58718 15.4757 9.01574 15.8389C9.44431 16.2037 9.91751 16.5107 10.4145 16.7614C11.41 17.2644 12.4815 17.5486 13.5499 17.7477C13.6808 17.772 13.8058 17.6793 13.8282 17.5426C13.8594 17.4027 13.7746 17.2736 13.6466 17.2508Z" />
<path d="M4.73159 14.9377C4.82088 14.8283 4.88933 14.7128 4.94736 14.5958C5.06194 14.3602 5.13635 14.1216 5.19587 13.883C5.31343 13.4058 5.36997 12.9301 5.41313 12.4559C5.49497 11.5076 5.5039 10.5654 5.52473 9.62921C5.53515 9.16113 5.54557 8.69456 5.57533 8.2356C5.59021 8.00611 5.61104 7.77815 5.64675 7.56235C5.68396 7.3511 5.7405 7.12466 5.80449 6.91189C6.06193 6.05323 6.51876 5.25536 7.16607 4.66266C7.80743 4.06843 8.63926 3.6885 9.49788 3.6429C9.92644 3.62011 10.3565 3.67786 10.7598 3.82072C11.163 3.96205 11.5365 4.18849 11.8565 4.47877C12.1764 4.76904 12.4428 5.12315 12.6496 5.5122C12.7538 5.70673 12.8431 5.91038 12.919 6.1201C12.9562 6.22497 12.9919 6.33135 13.0231 6.43773L13.1184 6.77207C13.2448 7.22496 13.3817 7.68697 13.5811 8.13377C13.6808 8.35718 13.7954 8.57754 13.9368 8.78575C14.0782 8.99395 14.2478 9.19152 14.4546 9.35565C14.5573 9.43772 14.7061 9.39365 14.7731 9.27359C14.84 9.15353 14.8296 9.01675 14.7567 8.95748C14.4427 8.70824 14.2091 8.3283 14.0305 7.92556C13.849 7.51827 13.718 7.08059 13.593 6.63226L13.4963 6.29183C13.4621 6.17481 13.4234 6.05779 13.3817 5.94381C13.2984 5.71281 13.2002 5.48788 13.0841 5.27056C12.8535 4.83591 12.5529 4.43469 12.1853 4.10187C11.8193 3.76904 11.3877 3.50765 10.9234 3.34503C10.4592 3.1809 9.96364 3.11251 9.47556 3.13987C8.49492 3.19154 7.55744 3.62466 6.84019 4.28728C6.11698 4.94989 5.61699 5.83135 5.33724 6.76143C5.2673 6.997 5.20926 7.22496 5.16462 7.4742C5.12295 7.7204 5.10361 7.96052 5.08724 8.1976C5.05599 8.6748 5.04557 9.14441 5.03665 9.61401C5.0173 10.5517 5.00688 11.4863 4.92653 12.4058C4.88486 12.8648 4.82832 13.3222 4.72266 13.7538C4.66909 13.9696 4.60213 14.1794 4.51136 14.3632C4.42058 14.5471 4.30303 14.7037 4.16761 14.7751C4.13488 14.7933 4.11553 14.8298 4.10214 14.8815C4.08874 14.9331 4.0813 14.9985 4.0947 15.0669C4.10809 15.1338 4.14529 15.1915 4.20184 15.2219C4.25838 15.2523 4.33428 15.2538 4.40124 15.2173C4.53219 15.1505 4.64231 15.0471 4.73159 14.9377Z" />
<path d="M14.2746 4.49396C14.0543 4.06843 13.7701 3.67026 13.4234 3.33439C13.0782 2.99701 12.6749 2.72497 12.2434 2.52588C11.8118 2.32528 11.3565 2.19306 10.8982 2.11251C10.4383 2.03196 9.97704 1.99853 9.51425 2.00005C9.05146 2.00309 8.58569 2.04716 8.12737 2.1505C7.66904 2.25385 7.21964 2.41798 6.80447 2.65202C6.38781 2.88455 6.00835 3.1885 5.68693 3.54412C5.36402 3.89822 5.09766 4.30248 4.88486 4.72801C4.45779 5.58211 4.23309 6.51067 4.11255 7.4362C4.05303 7.89973 4.02029 8.3663 4.0069 8.83134C3.995 9.29942 4.00244 9.75383 4.00095 10.2128V12.962C4.00095 13.0745 4.11107 13.1642 4.24648 13.1642C4.38189 13.1642 4.49201 13.073 4.49201 12.962V10.2128C4.4935 9.75535 4.48606 9.29334 4.49796 8.84502C4.51136 8.39517 4.54261 7.94532 4.60064 7.50156C4.71671 6.61554 4.93099 5.73864 5.32235 4.95597C5.51729 4.56539 5.75836 4.20217 6.04704 3.88606C6.33573 3.56843 6.67055 3.30096 7.04108 3.09275C7.78362 2.6733 8.65117 2.50765 9.51722 2.50309C10.3863 2.50157 11.2657 2.62315 12.0395 2.98333C12.4249 3.16266 12.7806 3.40278 13.0841 3.69913C13.3892 3.99548 13.6407 4.34655 13.8386 4.73105C14.2374 5.50156 14.4249 6.38605 14.5097 7.27511C14.5201 7.38301 14.6362 7.46356 14.7716 7.45292C14.907 7.44228 15.0097 7.34198 14.9993 7.22648C14.91 6.29487 14.7151 5.34959 14.2746 4.49396Z" />
<path d="M13.3683 18.3055C12.3966 18.2614 11.4071 17.9362 10.4904 17.576C10.0604 17.3754 9.65413 17.0714 9.27169 16.7462C9.07973 16.5821 8.89521 16.4103 8.71515 16.2325C8.62587 16.1429 8.53659 16.0532 8.45028 15.9605L8.33421 15.8344C8.29105 15.7857 8.2479 15.7371 8.20475 15.6824L7.94582 15.3556L7.72559 15.8617L7.56636 16.2219C7.49196 16.386 7.41458 16.5456 7.32976 16.6976C7.16161 17.003 6.9637 17.2736 6.71221 17.4863C6.24942 17.883 5.62592 18.076 4.992 18.1945C4.95778 18.1717 4.91611 18.1581 4.86552 18.1581C4.57237 18.1581 4.55897 18.6003 4.82534 18.6398C4.85064 18.6915 4.88337 18.7219 4.91314 18.7173C5.2792 18.6565 5.64675 18.5745 6.00687 18.4453C6.36549 18.3161 6.72114 18.1337 7.02768 17.8723C7.33423 17.6125 7.5738 17.2827 7.75832 16.9453C7.85207 16.7766 7.93392 16.6049 8.01278 16.4347L8.07826 16.2903L8.09463 16.307C8.1854 16.4043 8.27766 16.4985 8.37141 16.5927C8.55891 16.7781 8.75384 16.959 8.95473 17.1307C9.35949 17.4727 9.78508 17.7964 10.288 18.0334C10.352 18.0623 10.416 18.0897 10.483 18.114C10.5157 18.1261 10.5499 18.1383 10.5842 18.1489L10.6095 18.1565L10.6184 18.1596L10.663 18.1763C10.7851 18.2219 10.9086 18.2675 11.0321 18.31C11.2791 18.3951 11.5291 18.4742 11.7821 18.5426C12.2895 18.6793 12.8103 18.7827 13.349 18.8055C13.4055 18.807 13.4532 18.6961 13.4547 18.5578C13.4576 18.421 13.4189 18.307 13.3683 18.3055Z" />
<path d="M12.7032 19.2964C12.0708 19.2903 11.4413 19.1733 10.8446 18.9574C10.2464 18.7432 9.6824 18.4301 9.16009 18.0532C9.02914 17.959 8.90116 17.8617 8.77468 17.7599L8.58718 17.6049L8.49492 17.5258L8.44879 17.4848L8.42498 17.4651C8.39968 17.4407 8.33718 17.4012 8.27617 17.3936C8.21219 17.383 8.16457 17.3951 8.12737 17.4073C8.10951 17.4134 8.09612 17.4195 8.08124 17.4271C8.06933 17.4331 8.05892 17.4392 8.04701 17.4468C8.00832 17.4727 7.98451 17.4939 7.96219 17.5152C7.92052 17.5562 7.88928 17.5927 7.85951 17.6292C7.80148 17.7006 7.75088 17.7675 7.70029 17.8328C7.5991 17.9635 7.50089 18.0897 7.39524 18.2067C7.18691 18.4423 6.95626 18.6474 6.69733 18.7918C6.4399 18.9377 6.15716 19.0198 5.86401 19.0289C5.85955 19.0289 5.8536 19.0319 5.84913 19.0365C5.72711 19.0456 5.6289 19.152 5.6289 19.2781V19.3024C5.6289 19.4347 5.73753 19.5456 5.86699 19.5456C5.89973 19.5456 5.93098 19.538 5.96074 19.5258C6.3015 19.503 6.6393 19.3997 6.93542 19.231C7.25536 19.0517 7.52767 18.8055 7.75981 18.5441C7.87737 18.4134 7.98451 18.2766 8.08719 18.1429C8.13778 18.0775 8.18689 18.0137 8.23302 17.9559L8.2732 17.9909C8.33867 18.0456 8.40415 18.1003 8.46962 18.1535C8.60206 18.2599 8.73747 18.3632 8.87587 18.4635C9.42943 18.8617 10.0351 19.1976 10.6809 19.4301C11.3267 19.6641 12.0112 19.7903 12.6972 19.7979C12.7389 19.7979 12.7731 19.6854 12.7731 19.5471C12.7731 19.4088 12.7419 19.2964 12.7032 19.2964Z" />
<path d="M9.83716 19.5C9.83567 19.5 9.83418 19.5 9.83269 19.5C9.82972 19.5 9.82674 19.4985 9.82228 19.4985C9.8193 19.4985 9.81781 19.5 9.81484 19.5C9.26872 19.4985 8.69283 19.4301 8.09463 19.4909C8.06933 19.4802 8.04106 19.4742 8.0113 19.4742C7.85951 19.4757 7.75088 19.5866 7.7494 19.7416C7.74791 19.8739 7.85951 19.9848 7.98749 19.9848C8.00832 19.9848 8.02767 19.9818 8.04552 19.9757C8.0485 19.9894 8.05296 19.997 8.05445 19.997C8.61545 19.924 9.21068 19.9985 9.83418 20C9.83716 20 9.83865 19.9939 9.84013 19.9818C10.1244 19.962 10.1229 19.5152 9.83716 19.5Z" />
</svg>
