<svg width="110" height="110" viewBox="0 0 110 110" fill="none" xmlns="http://www.w3.org/2000/svg">
<path d="M0.791016 95.999V109.28H14.9644M95.3754 109.28H109.071V95.999M0.791016 15.5927V1H14.9644M109.071 15.5927V1H95.3754" stroke="url(#paint0_linear_331_10445)"/>
<path d="M0.791016 95.999V109.28H14.9644M95.3754 109.28H109.071V95.999M0.791016 15.5927V1H14.9644M109.071 15.5927V1H95.3754" stroke="url(#paint1_linear_331_10445)"/>
<rect x="5.14648" y="7.36914" width="95.5412" height="95.5412" fill="url(#paint2_linear_331_10445)"/>
<path d="M36.523 24.0299C39.6743 27.306 41.3592 32.1688 41.718 36.8334C46.8506 30.9862 53.5277 27.1422 60.7508 26.5416C52.7165 23.1703 44.963 22.5572 36.523 24.0299ZM50.0176 33.1048C45.0098 36.4745 39.8928 42.5588 34.4793 52.9332C33.5745 54.0721 31.9364 54.7117 30.6759 55.4762C29.2453 57.2858 28.3046 60.8896 29.5948 62.6837L34.0425 62.1376L41.3748 70.1564C42.9661 69.3451 44.7134 68.7835 46.2734 67.8319L47.7087 70.2344C42.7009 72.7461 37.1314 75.1798 31.9988 77.4419C38.2235 79.0956 43.6057 82.8241 46.601 88.1127L51.016 73.4481L53.6993 74.2594L51.6557 81.03C62.6853 89.0488 80.2673 92.6369 88.5356 80.0004L78.3484 82.0753C69.6432 80.0004 64.3858 73.3545 59.5496 68.4091C67.0691 59.3607 77.6932 52.9956 86.3203 47.9098L80.7197 45.3825C78.9724 37.7226 72.3733 30.0252 65.509 29.3497C60.0644 28.8942 53.7461 30.6539 50.0176 33.1048ZM19.2188 39.1267C22.5011 53.3233 22.9473 67.8787 20.7679 81.108C25.732 77.5667 31.0628 70.952 31.7804 65.2422C29.3124 65.6166 27.9302 66.0066 26.7929 63.4325C24.9816 58.9707 28.0128 53.8381 30.6166 52.2156C28.6977 47.5198 24.2671 38.7834 19.2188 39.1267ZM77.4592 45.5073L67.3031 47.5978L61.6245 40.8739C68.2704 39.0018 72.779 41.966 77.4592 45.5073ZM50.9068 41.7788L53.3717 43.136L47.6151 53.6353L49.1127 64.5713L46.3358 64.9614L44.6978 53.0892L50.9068 41.7788ZM88.4888 49.9223C86.2423 51.2796 86.0395 51.342 84.105 52.4964L90.7197 62.1376C90.7197 62.1376 88.5044 49.8911 88.4888 49.9223ZM83.4966 52.8552C81.7025 53.9161 79.9241 54.9925 78.1768 56.1002L84.4951 65.445L83.4966 52.8552ZM77.8336 56.3342C76.5075 57.1766 75.1971 58.0503 73.9334 58.9395L79.3936 65.6634L77.8336 56.3342ZM73.6526 59.1423C72.3577 60.0627 71.0941 60.9988 69.8772 61.9816L75.7743 66.8646L73.6526 59.1423ZM69.456 62.3404C68.3484 63.2453 67.2719 64.1969 66.2423 65.1954L70.1892 66.8178L69.456 62.3404ZM63.4342 68.3779C65.0098 70.0316 66.4919 71.6696 68.1144 73.1829L69.5496 68.9083L63.4342 68.3779ZM91.0785 68.7211L83.9802 78.0659L89.2689 76.9739L91.0785 68.7211ZM74.6822 69.6572L68.754 73.7757C69.8928 74.7898 71.1253 75.7258 72.5293 76.5839L74.6822 69.6572ZM84.6979 69.7664L77.7868 78.9708C78.0208 79.0488 78.2392 79.1268 78.4732 79.1892L83.169 78.2219L84.6979 69.7664ZM78.676 70.3748L73.013 76.8647C74.2922 77.6135 75.7275 78.2687 77.3499 78.8303L78.676 70.3748Z" fill="url(#paint3_linear_331_10445)"/>
<g opacity="0.5">
<g style="mix-blend-mode:overlay">
<path d="M32.6377 61.5092C30.0899 61.5092 58.1147 7.36914 58.1147 7.36914H83.5918L66.6079 45.5856H85.7162L51.7453 102.91H24.1445L49.6222 61.5092H32.6377Z" fill="#D9D9D9"/>
</g>
<path d="M45.3746 7.36914H30.5126L9.28125 54.0782H23.0816L45.3746 7.36914Z" fill="url(#paint4_linear_331_10445)"/>
</g>
<defs>
<linearGradient id="paint0_linear_331_10445" x1="54.931" y1="1" x2="54.931" y2="109.28" gradientUnits="userSpaceOnUse">
<stop stop-color="#E31212"/>
<stop offset="0.576042" stop-color="#E312C2"/>
<stop offset="1" stop-color="#E36A12"/>
</linearGradient>
<linearGradient id="paint1_linear_331_10445" x1="54.931" y1="1" x2="54.931" y2="109.28" gradientUnits="userSpaceOnUse">
<stop stop-color="#F85656"/>
<stop offset="0.576042" stop-color="#FA5BE1"/>
<stop offset="1" stop-color="#E36A12"/>
</linearGradient>
<linearGradient id="paint2_linear_331_10445" x1="52.9171" y1="7.36914" x2="52.9171" y2="102.91" gradientUnits="userSpaceOnUse">
<stop stop-color="#111112"/>
<stop offset="1" stop-color="#1D1E1F"/>
</linearGradient>
<linearGradient id="paint3_linear_331_10445" x1="55.1486" y1="23.2773" x2="55.1486" y2="88.2903" gradientUnits="userSpaceOnUse">
<stop stop-color="#F85656"/>
<stop offset="0.576042" stop-color="#FA5BE1"/>
<stop offset="1" stop-color="#E36A12"/>
</linearGradient>
<linearGradient id="paint4_linear_331_10445" x1="36.882" y1="8.43071" x2="17.7738" y2="53.0166" gradientUnits="userSpaceOnUse">
<stop stop-color="#303234"/>
<stop offset="1" stop-color="#303234" stop-opacity="0"/>
</linearGradient>
</defs>
</svg>
