<svg width="89" height="89" viewBox="0 0 89 89" fill="none" xmlns="http://www.w3.org/2000/svg">
<path d="M0.860352 76.9419V87.6041H12.239M76.7943 87.6041H87.7894V76.9419M0.860352 12.3903V0.675049H12.239M87.7894 12.3903V0.675049H76.7943" stroke="white" stroke-width="0.955526"/>
<rect x="5.97461" y="5.78931" width="76.7021" height="76.7021" fill="url(#paint0_linear_331_10437)"/>
<path d="M51.6306 15.927L42.5556 31.7384L33.2005 20.5237L32.6549 37.8769L17.1754 21.7625L24.6422 44.0589L13.6788 35.619L16.3352 50.8326L12.0723 49.3709V59.9719H13.0771L15.2166 53.5532H20.5655L22.7051 47.1345H28.054L30.1936 40.7158H35.5425L37.682 34.2972H50.1145L52.2541 40.7158H57.603L59.7425 47.1345H65.0914L67.231 53.5532H72.5799L74.7195 59.9719H75.7243V39.9516L65.3229 45.24L73.8521 26.9424L57.0302 38.1428L63.1543 24.8028L53.135 33.7449L51.6306 15.927ZM39.4167 36.7042L38.0795 40.7158H49.7171L48.3798 36.7042H39.4167ZM31.9282 43.1229L30.591 47.1345H42.2286L40.8914 43.1229H31.9282ZM43.4284 43.1229L43.8983 44.5323L44.3682 43.1229H43.4284ZM46.9052 43.1229L45.5679 47.1345H57.2055L55.8683 43.1229H46.9052ZM24.4397 49.5415L23.1025 53.5532H34.7401L33.4029 49.5415H24.4397ZM35.9399 49.5415L36.4098 50.951L36.8797 49.5415H35.9399ZM39.4167 49.5415L38.0795 53.5532H49.7171L48.3798 49.5415H39.4167ZM50.9168 49.5415L51.3867 50.951L51.8566 49.5415H50.9168ZM54.3936 49.5415L53.0564 53.5532H64.694L63.3568 49.5415H54.3936ZM16.9513 55.9602L15.614 59.9719H27.2517L25.9144 55.9602H16.9513ZM28.4514 55.9602L28.9213 57.3697L29.3912 55.9602H28.4514ZM31.9282 55.9602L30.591 59.9719H42.2286L40.8914 55.9602H31.9282ZM43.4284 55.9602L43.8983 57.3697L44.3682 55.9602H43.4284ZM46.9052 55.9602L45.5679 59.9719H57.2055L55.8683 55.9602H46.9052ZM58.4053 55.9602L58.8752 57.3697L59.3451 55.9602H58.4053ZM61.8821 55.9602L60.5449 59.9719H72.1825L70.8453 55.9602H61.8821ZM12.0723 62.3789V66.3906H19.7632L18.426 62.3789H12.0723ZM20.963 62.3789L21.4329 63.7884L21.9028 62.3789H20.963ZM24.4397 62.3789L23.1025 66.3906H34.7401L33.4029 62.3789H24.4397ZM35.9399 62.3789L36.4098 63.7884L36.8797 62.3789H35.9399ZM39.4167 62.3789L38.0795 66.3906H49.7171L48.3798 62.3789H39.4167ZM50.9168 62.3789L51.3867 63.7884L51.8566 62.3789H50.9168ZM54.3936 62.3789L53.0564 66.3906H64.694L63.3568 62.3789H54.3936ZM65.8938 62.3789L66.3637 63.7884L66.8336 62.3789H65.8938ZM69.3706 62.3789L68.0333 66.3906H75.7243V62.3789H69.3706ZM13.4745 68.7976L13.9444 70.2071L14.4143 68.7976H13.4745ZM16.9513 68.7976L15.614 72.8093H27.2517L25.9144 68.7976H16.9513ZM28.4514 68.7976L28.9213 70.2071L29.3912 68.7976H28.4514ZM31.9282 68.7976L30.591 72.8093H42.2286L40.8914 68.7976H31.9282ZM43.4284 68.7976L43.8983 70.2071L44.3682 68.7976H43.4284ZM46.9052 68.7976L45.5679 72.8093H57.2055L55.8683 68.7976H46.9052ZM58.4053 68.7976L58.8525 70.1393L58.8982 70.1379L59.3451 68.7976H58.4053ZM61.8821 68.7976L60.5449 72.8093H72.1825L70.8453 68.7976H61.8821ZM73.3822 68.7976L73.6881 69.7154L74.0193 69.706L74.3221 68.7976H73.3822Z" fill="#AAAAAA"/>
<g opacity="0.5">
<g style="mix-blend-mode:overlay">
<path d="M26.4278 49.2538C24.3824 49.2538 46.8812 5.78931 46.8812 5.78931H67.3346L53.6997 36.4702H69.0401L41.7678 82.4914H19.6094L40.0633 49.2538H26.4278Z" fill="#D9D9D9"/>
</g>
<path d="M36.6541 5.78931H24.7226L7.67773 43.2881H18.7569L36.6541 5.78931Z" fill="url(#paint1_linear_331_10437)"/>
</g>
<defs>
<linearGradient id="paint0_linear_331_10437" x1="44.3257" y1="5.78931" x2="44.3257" y2="82.4914" gradientUnits="userSpaceOnUse">
<stop stop-color="#111112"/>
<stop offset="1" stop-color="#1D1E1F"/>
</linearGradient>
<linearGradient id="paint1_linear_331_10437" x1="29.8361" y1="6.64155" x2="14.4957" y2="42.4359" gradientUnits="userSpaceOnUse">
<stop stop-color="#303234"/>
<stop offset="1" stop-color="#303234" stop-opacity="0"/>
</linearGradient>
</defs>
</svg>
