<svg width="89" height="89" viewBox="0 0 89 89" fill="none" xmlns="http://www.w3.org/2000/svg">
<path d="M1.07031 76.9419V87.6041H12.449M77.0042 87.6041H87.9994V76.9419M1.07031 12.3903V0.675049H12.449M87.9994 12.3903V0.675049H77.0042" stroke="white" stroke-width="0.955526"/>
<rect x="6.18359" y="5.78931" width="76.7021" height="76.7021" fill="url(#paint0_linear_331_10453)"/>
<path d="M14.7969 14.4006V17.7264L21.6999 24.7501L24.7374 21.7125L17.5474 14.4008H14.7969V14.4006ZM22.7946 14.8283C22.2483 14.8393 21.7685 14.9384 21.3481 15.1027L35.5984 29.3527C35.9521 28.4486 35.9756 27.2442 35.5806 25.7954C35.0169 23.7281 33.611 21.3207 31.4957 19.2056C29.3805 17.0903 26.973 15.6842 24.9057 15.1206C24.1305 14.909 23.4232 14.8155 22.7947 14.8283H22.7946ZM15.0805 21.371C14.7267 22.2751 14.703 23.4794 15.098 24.9279C15.6617 26.9952 17.0678 29.4028 19.1831 31.518C21.2984 33.6333 23.7056 35.0391 25.7729 35.6029C27.2218 35.998 28.4261 35.9746 29.3303 35.6208L15.0804 21.371H15.0805ZM28.1721 25.1565L25.15 28.1787L39.7669 42.7957L42.789 39.7735L28.1721 25.1567V25.1565ZM72.9231 32.0734C71.9736 32.4065 71.0071 32.8298 70.0669 33.3726C67.5809 34.8078 65.695 36.6908 64.674 38.4636C63.9729 39.6809 63.7029 40.778 63.7921 41.6873L72.9232 36.4354V32.0734H72.9231ZM41.491 33.5247C40.9449 33.5357 40.4652 33.6348 40.0449 33.7994L49.0465 42.8009C50.3484 42.169 51.6589 41.7039 52.9322 41.4122C52.2299 40.2228 51.3115 39.0218 50.1921 37.9024C48.0769 35.7871 45.6694 34.381 43.6021 33.8173C42.8269 33.6058 42.1195 33.512 41.491 33.5247ZM33.8274 40.0168C33.4736 40.9209 33.4502 42.1253 33.8454 43.574C34.4091 45.6413 35.8152 48.0488 37.9305 50.1641C38.714 50.9476 39.5376 51.633 40.3692 52.2152C40.5587 51.2755 40.9423 50.3273 41.4716 49.42C41.68 49.0624 41.9142 48.7082 42.1685 48.3575L33.8274 40.0168ZM71.0054 40.0985L53.8424 50.0247L55.8507 53.54L72.7094 43.8038V43.0555L71.0054 40.0985ZM55.9927 43.3272C53.9397 43.3363 51.3574 44.0412 48.8694 45.4777C46.3815 46.914 44.4797 48.7979 43.4453 50.5712C42.7373 51.7854 42.4594 52.8773 42.5417 53.7821L59.2249 44.1501C58.4822 43.6265 57.3979 43.3211 55.9925 43.3272H55.9927ZM72.9231 46.2173L68.0709 49.0217C68.4656 49.3041 68.9549 49.5267 69.5651 49.6722C70.4858 49.8914 71.6464 49.9075 72.9231 49.7097V46.2172V46.2173ZM63.7137 51.5535L47.0301 61.186C47.7727 61.7097 48.8572 62.015 50.2627 62.0087C52.3156 61.9996 54.8982 61.2946 57.3862 59.8583C59.874 58.422 61.7757 56.5382 62.8101 54.7647C63.5184 53.5506 63.796 52.4587 63.7137 51.5537V51.5535ZM48.7278 52.8565L47.4212 53.6105L47.4167 53.606L45.8602 54.5047L45.8712 54.5057L31.5709 62.762L33.585 66.2504L50.742 56.345L48.7278 52.8566V52.8565ZM65.7226 53.7806C65.5098 54.5015 65.1895 55.2207 64.7842 55.9158C64.4775 56.4416 64.119 56.9612 63.7152 57.4699L72.1217 65.8765C72.4754 64.9724 72.4988 63.768 72.1038 62.3194C71.5401 60.2523 70.1342 57.8449 68.019 55.7297C67.2802 54.9909 66.5056 54.3407 65.7225 53.7807L65.7226 53.7806ZM34.1666 56.0521C32.1137 56.0613 29.5313 56.7662 27.0434 58.2026C24.5554 59.6388 22.6536 61.523 21.6192 63.2962C20.9113 64.5101 20.6335 65.6022 20.7156 66.507L37.3988 56.8751C36.6563 56.3514 35.5719 56.0459 34.1665 56.0523L34.1666 56.0521ZM64.7049 61.7113L61.6885 64.6813L69.3292 72.3838H72.7093V69.7151L64.7049 61.7113ZM56.6199 62.8095C55.3221 63.3879 54.0224 63.8012 52.7667 64.0415C53.4949 65.3728 54.4996 66.7333 55.7572 67.9909C57.8722 70.1062 60.2796 71.5123 62.3468 72.0759C63.7957 72.4712 65.0001 72.4476 65.9044 72.0939L56.6199 62.8095ZM41.7046 64.2868L27.7012 72.3717H35.7484C38.0669 70.9551 39.8451 69.1548 40.8229 67.4573C41.5135 66.2578 41.7843 65.1804 41.7045 64.2868H41.7046ZM27.6613 65.1603L15.1279 72.3838H23.1307L29.659 68.6105L27.6613 65.1603Z" fill="#AAAAAA"/>
<g opacity="0.5">
<g style="mix-blend-mode:overlay">
<path d="M26.6368 49.2538C24.5914 49.2538 47.0902 5.78931 47.0902 5.78931H67.5436L53.9087 36.4702H69.2491L41.9767 82.4914H19.8184L40.2723 49.2538H26.6368Z" fill="#D9D9D9"/>
</g>
<path d="M36.8631 5.78931H24.9316L7.88672 43.2881H18.9659L36.8631 5.78931Z" fill="url(#paint1_linear_331_10453)"/>
</g>
<defs>
<linearGradient id="paint0_linear_331_10453" x1="44.5347" y1="5.78931" x2="44.5347" y2="82.4914" gradientUnits="userSpaceOnUse">
<stop stop-color="#111112"/>
<stop offset="1" stop-color="#1D1E1F"/>
</linearGradient>
<linearGradient id="paint1_linear_331_10453" x1="30.0451" y1="6.64155" x2="14.7047" y2="42.4359" gradientUnits="userSpaceOnUse">
<stop stop-color="#303234"/>
<stop offset="1" stop-color="#303234" stop-opacity="0"/>
</linearGradient>
</defs>
</svg>
