<svg width="89" height="89" viewBox="0 0 89 89" fill="none" xmlns="http://www.w3.org/2000/svg">
<path d="M1 76.9419V87.6041H12.3787M76.9339 87.6041H87.9291V76.9419M1 12.3903V0.675049H12.3787M87.9291 12.3903V0.675049H76.9339" stroke="white" stroke-width="0.955526"/>
<rect x="6.11426" y="5.78931" width="76.7021" height="76.7021" fill="url(#paint0_linear_331_10422)"/>
<path d="M24.1585 14.4016L24.1377 33.9058C24.5272 33.9691 24.9268 34.078 25.3313 34.2335C29.9706 36.0182 34.7653 37.0322 39.5513 37.4112L45.0685 29.8746L50.4477 37.2228C55.1267 36.708 59.6722 35.6632 63.918 34.2177C64.3952 34.0553 64.8546 33.9458 65.2932 33.8934L65.4868 14.4017L55.8487 26.3214L51.516 14.402L44.6867 27.343L37.8577 14.402L33.3524 26.3214L24.1585 14.4016ZM45.0685 33.8705L41.4283 38.8429L45.0682 43.8152L48.7085 38.8429L45.0685 33.8705ZM23.4411 36.1733C23.1649 36.1634 22.953 36.2075 22.804 36.2684C22.5059 36.3903 22.4006 36.5416 22.3596 36.7918C22.2776 37.292 22.7187 38.5819 25.2871 39.4564C30.5879 41.2612 35.9983 42.4188 41.4029 42.8036L39.1465 39.7219C34.2178 39.3122 29.2707 38.2531 24.4644 36.4042C24.058 36.2479 23.7173 36.1833 23.4411 36.1733ZM65.8064 36.197C65.5323 36.2035 65.1647 36.2609 64.6969 36.4203C60.428 37.8736 55.8638 38.942 51.1559 39.4948L48.7071 42.8402C53.8461 42.5156 58.9316 41.4322 63.8621 39.4771C65.8849 38.675 66.5901 37.2554 66.5774 36.6875C66.5707 36.4036 66.542 36.3674 66.3545 36.2791C66.2607 36.2351 66.0804 36.1905 65.8064 36.197ZM63.5034 42.1147C58.1009 44.0944 52.5382 45.0906 46.9447 45.2479L45.0685 47.811L43.1772 45.2276C37.4588 45.0099 31.7391 43.9514 26.1554 42.1955C24.5309 45.752 23.7478 49.8224 23.6635 53.8517C28.433 56.0343 31.562 58.8186 33.2681 61.9139C34.912 64.8958 35.2021 68.1168 34.554 71.1555C35.5354 71.7801 36.6039 72.2962 37.7294 72.7064L38.4358 66.7323L40.7955 67.001L40.0411 73.3825C41.2576 73.6582 42.5126 73.8228 43.7754 73.8792V67.0594H46.1512V73.8568C47.4101 73.7772 48.6561 73.5913 49.8574 73.2974L49.1128 67.001L51.4727 66.7322L52.1637 72.5768C53.2756 72.1499 54.3252 71.6233 55.2788 70.9937C54.5469 67.9483 54.7996 64.7982 56.4242 61.8889C58.1123 58.8658 61.2188 56.1506 65.933 53.869C65.8542 49.6868 65.083 45.621 63.5034 42.1147ZM29.5968 47.9784C33.9953 48.0071 38.2926 49.5048 42.4812 52.5774C36.557 56.7123 25.9821 56.8651 28.7156 47.9924C29.0099 47.9812 29.3035 47.9763 29.5968 47.9784ZM60.4642 47.9784C60.7575 47.9764 61.0511 47.9812 61.3452 47.9922C64.079 56.865 53.504 56.7122 47.5798 52.5774C51.7683 49.5049 56.0657 48.007 60.4642 47.9784ZM44.848 54.2102C46.3442 56.9203 47.2878 59.6306 48.0726 62.3408H41.623C42.204 59.6306 43.3735 56.9209 44.848 54.2102Z" fill="#AAAAAA"/>
<g opacity="0.5">
<g style="mix-blend-mode:overlay">
<path d="M26.5665 49.2538C24.5211 49.2538 47.0199 5.78931 47.0199 5.78931H67.4733L53.8384 36.4702H69.1788L41.9064 82.4914H19.748L40.2019 49.2538H26.5665Z" fill="#D9D9D9"/>
</g>
<path d="M36.7928 5.78931H24.8613L7.81641 43.2881H18.8956L36.7928 5.78931Z" fill="url(#paint1_linear_331_10422)"/>
</g>
<defs>
<linearGradient id="paint0_linear_331_10422" x1="44.4653" y1="5.78931" x2="44.4653" y2="82.4914" gradientUnits="userSpaceOnUse">
<stop stop-color="#111112"/>
<stop offset="1" stop-color="#1D1E1F"/>
</linearGradient>
<linearGradient id="paint1_linear_331_10422" x1="29.9748" y1="6.64155" x2="14.6344" y2="42.4359" gradientUnits="userSpaceOnUse">
<stop stop-color="#303234"/>
<stop offset="1" stop-color="#303234" stop-opacity="0"/>
</linearGradient>
</defs>
</svg>
