<svg width="89" height="89" viewBox="0 0 89 89" fill="none" xmlns="http://www.w3.org/2000/svg">
<path d="M0.929688 76.9419V87.6041H12.3084M76.8636 87.6041H87.8587V76.9419M0.929688 12.3903V0.675049H12.3084M87.8587 12.3903V0.675049H76.8636" stroke="white" stroke-width="0.955526"/>
<rect x="6.04395" y="5.78931" width="76.7021" height="76.7021" fill="url(#paint0_linear_331_10429)"/>
<path d="M21.9665 15.302C17.2916 15.302 13.502 19.0917 13.502 23.7665V39.0589C13.502 42.4218 16.5644 45.6427 18.2054 42.7073C18.7194 41.788 18.8473 40.6981 18.3152 39.6998C17.0703 37.3637 14.6884 31.5424 18.6244 31.6732C22.2808 31.7946 17.8258 38.2955 22.258 38.9459C26.1586 39.3907 25.9423 35.5139 25.3211 32.762C25.1728 32.1055 24.9834 31.4084 25.2506 30.7906C26.176 28.6515 30.3755 28.754 30.5952 31.5023C31.6771 36.3865 30.8189 41.4362 29.2194 46.0994C28.4315 49.4793 32.2092 52.8616 35.432 51.2831C38.1696 50.1388 38.898 46.5377 37.4237 44.1275C36.4559 41.9545 35.857 39.4232 36.155 37.0271C36.2947 35.9035 36.8307 34.6807 37.9329 34.4217C39.4555 34.064 40.8126 35.686 40.5601 37.8265C40.2284 40.6371 44.9669 41.8181 46.6393 39.4022C48.1852 37.6774 46.1897 33.734 49.9353 34.4899C53.0337 35.5667 52.5343 39.8661 52.9904 42.5272C53.2293 49.8709 52.3795 57.2559 50.763 64.4148C49.9045 67.1122 48.7751 70.6621 51.3708 72.8018C53.9754 75.2892 58.6341 73.1494 58.745 69.6373C58.773 64.3934 56.8399 59.368 56.6306 54.1314C56.3849 47.8256 55.87 41.4879 56.335 35.183C56.3647 34.7797 56.3557 34.3733 56.3984 33.9712C56.6611 31.4938 59.2643 28.6962 61.5791 29.7681C62.1886 30.0504 62.631 30.6123 62.8636 31.2424C63.8536 33.9251 61.9252 36.8047 62.1261 39.4606C62.4995 44.3958 70.3349 40.9204 67.5198 37.0118C65.5197 34.2426 70.2815 29.0731 71.2623 33.901C72.4143 37.5212 72.7107 41.8289 70.923 45.1307C69.586 47.5997 68.7053 51.0808 71.6629 52.3515C73.1564 53.1258 74.1571 51.3577 74.1571 49.6753V23.7665C74.1571 19.0917 70.3674 15.302 65.6926 15.302H21.9665ZM21.0621 32.1062C20.8556 31.0118 21.6898 30.9738 22.1178 32.002C22.7256 33.4625 21.8765 35.1388 22.0874 36.3307C22.1624 36.7544 22.5303 37.1858 22.8683 37.452C23.2877 37.7824 23.0619 37.8974 22.5423 37.775C20.1903 37.221 20.9657 35.3301 21.1657 33.3541C21.1994 33.022 21.124 32.4342 21.0621 32.1062ZM31.6535 31.8686C31.6536 31.8686 31.6537 31.8686 31.6537 31.8686C33.5791 36.5974 33.5209 40.977 31.7574 45.6226C31.1295 46.9643 30.4596 48.1936 30.3409 46.717C30.2714 45.852 30.4275 44.9437 30.8108 44.1028C30.8542 44.0077 30.8941 43.9099 30.9248 43.81C32.1062 39.9726 32.4574 36.9874 31.6535 31.8687C31.6535 31.8686 31.6535 31.8686 31.6535 31.8686ZM42.3932 38.8922C41.6208 38.2083 42.4837 37.6648 43.3464 38.2306C44.0553 38.6955 44.4974 39.8052 43.6781 39.5879C43.2059 39.4626 42.7613 39.2183 42.3932 38.8922ZM63.2044 37.1612C63.4113 37.1602 63.658 37.5282 63.847 38.4433C64.1935 40.1226 65.6415 41.1426 64.0283 40.5613C63.4372 40.3483 62.9693 39.8451 62.8597 38.9757C62.6849 37.9525 62.9018 37.1627 63.2044 37.1612ZM73.1671 39.0152C73.1672 39.0152 73.1673 39.0152 73.1674 39.0152C73.1692 39.0151 73.1711 39.015 73.1729 39.015C73.1809 39.0152 73.1866 39.022 73.1876 39.03C73.2762 39.7298 73.3446 40.51 73.3467 41.2307C73.3472 41.404 73.3583 41.5773 73.3732 41.75C73.6279 44.7094 71.3407 47.2703 72.3461 50.0324C72.8675 51.4656 72.8176 52.417 71.4433 51.3205C69.9383 49.9214 70.8709 47.4436 71.6989 45.4705C71.9174 44.9497 72.2016 44.451 72.3562 43.9078C72.8451 42.1891 72.8447 39.0439 73.1669 39.0151C73.167 39.0151 73.167 39.0151 73.1671 39.0152ZM53.984 46.6481C53.984 46.6481 53.984 46.6481 53.984 46.6481C54.5259 48.3429 54.2334 50.8936 54.3862 52.8636C54.2504 58.5876 53.0304 63.9961 52.5525 69.582C52.4773 70.46 54.2422 73.221 52.3902 72.2207C50.2141 71.0033 51.0704 68.1937 51.4807 66.3005C53.2261 59.8952 53.7497 53.2572 53.9839 46.6481C53.9839 46.6481 53.984 46.648 53.984 46.6481Z" fill="#AAAAAA"/>
<g opacity="0.5">
<g style="mix-blend-mode:overlay">
<path d="M26.4962 49.2538C24.4508 49.2538 46.9496 5.78931 46.9496 5.78931H67.403L53.7681 36.4702H69.1085L41.8361 82.4914H19.6777L40.1316 49.2538H26.4962Z" fill="#D9D9D9"/>
</g>
<path d="M36.7224 5.78931H24.791L7.74609 43.2881H18.8253L36.7224 5.78931Z" fill="url(#paint1_linear_331_10429)"/>
</g>
<defs>
<linearGradient id="paint0_linear_331_10429" x1="44.395" y1="5.78931" x2="44.395" y2="82.4914" gradientUnits="userSpaceOnUse">
<stop stop-color="#111112"/>
<stop offset="1" stop-color="#1D1E1F"/>
</linearGradient>
<linearGradient id="paint1_linear_331_10429" x1="29.9045" y1="6.64155" x2="14.5641" y2="42.4359" gradientUnits="userSpaceOnUse">
<stop stop-color="#303234"/>
<stop offset="1" stop-color="#303234" stop-opacity="0"/>
</linearGradient>
</defs>
</svg>
