<svg width="16" height="16" viewBox="0 0 16 16" fill="none" xmlns="http://www.w3.org/2000/svg">
<path fill-rule="evenodd" clip-rule="evenodd" d="M16 8C16 12.4183 12.4183 16 8 16C3.58172 16 0 12.4183 0 8C0 3.58172 3.58172 0 8 0C12.4183 0 16 3.58172 16 8ZM9.94796 8.56006L9.46487 8.07805L8.98177 7.59611L9.51487 7.05695L10.048 6.51787L9.51549 5.97934L8.98301 5.44088L9.44707 4.97433L9.91113 4.50778L10.4434 5.03979L10.9757 5.5718L11.5384 5.0314L12.101 4.49093L12.5765 4.96532L13.0519 5.43963L12.5188 5.97879L11.9857 6.51787L12.5188 7.05695L13.0519 7.59611L12.5683 8.07861L12.0847 8.5611L11.5518 8.02542L11.0189 7.48966L10.4835 8.02486L9.94796 8.56006ZM3.28927 8.07805L3.77237 8.56006L4.30789 8.02486L4.84333 7.48966L5.37623 8.02542L5.90906 8.5611L6.3927 8.07861L6.87635 7.59611L6.34325 7.05695L5.81015 6.51787L6.34325 5.97879L6.87635 5.43963L6.40091 4.96532L5.9254 4.49093L5.36278 5.0314L4.80016 5.5718L4.26781 5.03979L3.73554 4.50778L3.27148 4.97433L2.80742 5.44088L3.3399 5.97934L3.87238 6.51787L3.33928 7.05695L2.80618 7.59611L3.28927 8.07805Z" fill="#222325"/>
</svg>
