<svg width="20" height="23" viewBox="0 0 20 23" fill="white" xmlns="http://www.w3.org/2000/svg">
<path d="M0.185547 19.488V22.0757H2.95123M16.4529 22.0757H19.1253V19.488M0.185547 3.82132V0.978027H2.95123M19.1253 3.82132V0.978027H16.4529" stroke="white" stroke-width="0.168367"/>
<path d="M9.26623 11.1024C9.29026 11.1534 9.36987 11.1894 9.42544 11.1699C9.43596 11.1729 9.44497 11.1744 9.45548 11.1744C9.53059 11.1744 9.58917 11.1564 9.65676 11.1234C9.68379 11.1099 9.70332 11.0859 9.71534 11.0574C9.72285 11.0559 9.72735 11.0529 9.72735 11.0514V11.0109C9.72735 11.0064 9.72735 11.0019 9.72735 10.9974V8.74041C9.72735 8.7374 9.71984 8.7344 9.70783 8.7329C9.67178 8.63686 9.59968 8.57083 9.49153 8.55733C9.38489 8.54382 9.30678 8.63686 9.26923 8.7299C9.2452 8.7329 9.23018 8.7374 9.23018 8.74191V11.0529C9.23018 11.0559 9.23769 11.0589 9.24971 11.0604C9.25421 11.0739 9.26022 11.0889 9.26623 11.1024Z" />
<path d="M8.12919 10.7633C8.12919 10.8338 8.1337 10.9043 8.14421 10.9748C8.18176 11.257 8.30042 11.5286 8.48968 11.7477C8.67743 11.9668 8.94179 12.1288 9.23469 12.1859C9.30678 12.2009 9.38189 12.2084 9.45548 12.2099C9.52758 12.2114 9.59217 12.2084 9.66276 12.2024C9.80095 12.1889 9.94515 12.1588 10.0848 12.0973C10.2245 12.0373 10.3552 11.9427 10.4573 11.8272C10.561 11.7117 10.6346 11.5811 10.6856 11.449C10.7878 11.1849 10.8178 10.9238 10.8268 10.6702C10.8268 10.6672 10.8283 10.6642 10.8283 10.6627V8.69839C10.8283 8.63536 10.8253 8.55883 10.8163 8.4898C10.7818 8.20768 10.6676 7.93306 10.4829 7.71247C10.2981 7.49188 10.0383 7.32381 9.74688 7.26228C9.45699 7.19926 9.14607 7.24278 8.88471 7.38083C8.62336 7.51889 8.41758 7.73948 8.28991 7.99609C8.22682 8.12364 8.18026 8.2602 8.15473 8.40126C8.12769 8.53932 8.12919 8.69238 8.12919 8.80193V10.7633ZM8.64138 8.4853C8.65791 8.39076 8.68945 8.29922 8.73151 8.21368C8.81712 8.04411 8.9523 7.90155 9.11452 7.81602C9.27524 7.73048 9.4645 7.70497 9.64174 7.74248C9.81747 7.78 9.98119 7.88204 10.1029 8.0261C10.2245 8.17016 10.3011 8.35324 10.3237 8.54382C10.3297 8.59334 10.3312 8.63686 10.3312 8.69238V10.6402C10.3312 10.6417 10.3297 10.6432 10.3297 10.6447C10.3237 10.8638 10.2936 11.0814 10.223 11.2615C10.1509 11.443 10.0413 11.5706 9.88356 11.6381C9.80396 11.6726 9.71233 11.6936 9.6147 11.7041C9.56663 11.7087 9.51256 11.7117 9.4645 11.7102C9.41944 11.7102 9.37438 11.7041 9.32931 11.6966C9.15207 11.6636 8.98685 11.5631 8.86519 11.4205C8.74202 11.2795 8.66091 11.0964 8.63538 10.9058C8.62937 10.8578 8.62636 10.8098 8.62636 10.7618V8.79743C8.62486 8.66837 8.62336 8.58284 8.64138 8.4853Z" />
<path d="M8.30793 13.1973C8.66392 13.4344 9.0965 13.5664 9.52758 13.5604C9.93764 13.5589 10.3687 13.4809 10.7502 13.2663C10.941 13.1598 11.1137 13.0202 11.2579 12.8551C11.4021 12.6901 11.5163 12.5025 11.6019 12.3074C11.7596 11.9427 11.8227 11.5601 11.8392 11.1849C11.8437 11.1729 11.8452 11.1594 11.8452 11.1474L11.8272 8.85895C11.8257 8.76742 11.8272 8.66237 11.8197 8.55583C11.8122 8.45078 11.7987 8.34724 11.7791 8.2437C11.7386 8.03661 11.6755 7.83402 11.5854 7.64345C11.4081 7.25928 11.1333 6.91864 10.7848 6.67103C10.4363 6.42193 10.0112 6.27487 9.57865 6.26286C9.14757 6.24786 8.71198 6.36941 8.34999 6.59901C7.9865 6.8271 7.6936 7.15424 7.49834 7.5294C7.30157 7.90455 7.20094 8.32623 7.20094 8.74491V11.0349C7.19493 11.446 7.28655 11.8752 7.47581 12.2519C7.66356 12.6285 7.94895 12.9617 8.30793 13.1973ZM7.69511 8.74491C7.69511 8.40126 7.77772 8.05912 7.93543 7.75749C8.09314 7.45587 8.32746 7.19475 8.61134 7.01768C8.89523 6.83911 9.22718 6.74607 9.56063 6.75657C9.89408 6.76558 10.22 6.87812 10.4934 7.0732C10.7683 7.26679 10.9891 7.5399 11.1318 7.84903C11.2038 8.0036 11.2549 8.16717 11.288 8.33524C11.3045 8.41927 11.315 8.50481 11.321 8.59034C11.327 8.67438 11.327 8.76141 11.327 8.85895L11.348 11.0739C11.348 11.0784 11.3465 11.0814 11.3465 11.0859C11.3375 11.4445 11.282 11.7987 11.1468 12.1093C11.0131 12.42 10.7938 12.6751 10.5069 12.8341C10.22 12.9962 9.87455 13.0637 9.52458 13.0652C9.18963 13.0682 8.86068 12.9677 8.5798 12.7831C8.29892 12.5985 8.07061 12.3329 7.91741 12.0283C7.7642 11.7222 7.6891 11.3845 7.69511 11.0334V8.74491Z" />
<path d="M4.33507 11.0349C4.47175 11.0349 4.5829 10.9508 4.5829 10.8458V8.11764C4.5844 8.06662 4.5829 8.0156 4.5859 7.96608C4.58891 7.86554 4.59642 7.76349 4.60693 7.66295C4.62796 7.46187 4.66401 7.26228 4.71358 7.0672C4.81271 6.67554 4.96892 6.29738 5.1747 5.94773C5.58475 5.24694 6.19007 4.66319 6.89753 4.25802C7.60498 3.85135 8.41458 3.62476 9.23168 3.59174C10.0503 3.55723 10.8749 3.71629 11.6139 4.06144C12.3544 4.40358 13.0078 4.9333 13.4839 5.59208C13.9601 6.24936 14.25 7.03719 14.298 7.84603C14.304 7.94807 14.307 8.04561 14.307 8.15216V10.4001C14.307 10.5051 14.4182 10.5892 14.5549 10.5892C14.6916 10.5892 14.8027 10.5036 14.8027 10.4001V8.15216C14.8027 8.04411 14.8012 7.92706 14.7937 7.81602C14.7411 6.91264 14.4152 6.03177 13.8865 5.30246C13.3593 4.57165 12.6368 3.98941 11.8242 3.61275C11.0101 3.23309 10.1059 3.06052 9.21216 3.09653C8.31845 3.13105 7.42925 3.38015 6.6512 3.82884C5.87314 4.27453 5.20324 4.9198 4.74812 5.69863C4.52132 6.08729 4.34558 6.50897 4.23443 6.94715C4.17885 7.16624 4.1398 7.38834 4.11577 7.61343C4.10375 7.72598 4.09624 7.83853 4.09324 7.95107C4.09024 8.0066 4.09174 8.06362 4.09024 8.11914V10.8473C4.08723 10.9508 4.19838 11.0349 4.33507 11.0349Z" />
<path d="M5.0245 4.4546C5.64934 3.82284 6.36281 3.28711 7.1724 2.95097C7.97899 2.61183 8.86068 2.47827 9.74688 2.49928C10.1915 2.50829 10.6301 2.5488 11.0551 2.64334C11.4802 2.73788 11.8888 2.88644 12.2673 3.09503C13.0258 3.50921 13.6416 4.16048 14.1148 4.90179C14.1433 4.94681 14.262 4.9258 14.3776 4.85377C14.4948 4.78174 14.5639 4.6842 14.5323 4.63468C14.2785 4.23851 13.9871 3.86185 13.6492 3.52421C13.3127 3.18657 12.9282 2.89095 12.5061 2.65985C12.0855 2.42725 11.6289 2.26218 11.1633 2.15864C10.6977 2.0551 10.2245 2.01158 9.75589 2.00257C8.82013 1.97856 7.85883 2.12112 6.98014 2.49178C6.09845 2.85643 5.32641 3.44018 4.67302 4.10196C4.63247 4.14247 4.68053 4.25352 4.77816 4.34806C4.8758 4.4486 4.98544 4.49362 5.0245 4.4546Z" />
<path d="M4.13379 12.3509C4.13379 12.3689 4.1353 12.3809 4.1398 12.3824C4.38613 12.4275 4.62646 12.3539 4.80821 12.2459C4.99295 12.1363 5.14015 11.9923 5.26182 11.8347C5.38198 11.6756 5.47811 11.5001 5.5442 11.311C5.61029 11.1219 5.64784 10.9163 5.63132 10.7002C5.63132 10.7002 5.63132 10.7002 5.62982 10.7002V9.2146C5.63132 9.03453 5.62681 8.84845 5.63282 8.68188C5.65535 7.99609 5.83259 7.3163 6.15553 6.71305C6.47696 6.1098 6.94409 5.58308 7.51186 5.20942C8.07812 4.83576 8.74653 4.61967 9.42394 4.60467C10.1014 4.58666 10.7788 4.76823 11.3616 5.11638C11.9458 5.46303 12.434 5.96874 12.7795 6.55849C13.1264 7.14823 13.3307 7.82052 13.3803 8.5048C13.3938 8.67738 13.3938 8.84395 13.3923 9.02852V10.6507C13.3923 10.6672 13.3968 10.6837 13.4043 10.6987C13.3983 10.8923 13.4299 11.0769 13.4839 11.2495C13.5455 11.44 13.6326 11.6201 13.7453 11.7852C13.8594 11.9503 13.9976 12.1033 14.1794 12.2234C14.2695 12.2834 14.3731 12.3359 14.4888 12.3659C14.6044 12.3974 14.7336 12.4079 14.8583 12.3839C14.8628 12.3824 14.8658 12.3719 14.8658 12.3539C15.0731 12.2639 15.04 11.8932 14.7682 11.8932C14.7471 11.8932 14.7291 11.8962 14.7111 11.8992C14.6315 11.8977 14.5444 11.8677 14.4557 11.8092C14.3446 11.7357 14.2425 11.6261 14.1568 11.5031C13.9886 11.257 13.882 10.9448 13.9015 10.6747C13.9015 10.6732 13.8955 10.6702 13.8865 10.6687C13.888 10.6627 13.8895 10.6552 13.8895 10.6492V9.02252C13.8895 8.84545 13.891 8.65187 13.876 8.46279C13.8219 7.70497 13.5951 6.95916 13.2091 6.30188C12.8245 5.6446 12.2763 5.07737 11.6169 4.6842C10.9575 4.28953 10.184 4.08245 9.41343 4.10346C8.64289 4.11996 7.87986 4.36607 7.24149 4.78924C6.60013 5.21092 6.07892 5.80067 5.71994 6.47295C5.36095 7.14523 5.16419 7.90005 5.13865 8.65787C5.13264 8.85145 5.13565 9.02702 5.13565 9.2086V10.8353C5.13565 10.8398 5.13715 10.8458 5.13865 10.8503C5.12513 11.0829 5.01999 11.332 4.86829 11.5316C4.77967 11.6486 4.67302 11.7492 4.55887 11.8167C4.47025 11.8692 4.38013 11.8962 4.30052 11.8977C4.2885 11.8962 4.27649 11.8932 4.26447 11.8932H4.24945C4.24494 11.8917 4.23894 11.8932 4.23293 11.8917L4.23143 11.8932C4.10375 11.8977 4.00011 12.0043 4.00011 12.1318C3.99711 12.2294 4.05419 12.3119 4.13379 12.3509Z" />
<path d="M14.7682 13.0727C14.7441 13.0727 14.7231 13.0757 14.7036 13.0817C14.4888 13.0892 14.2425 13.0067 14.0247 12.8836C13.7813 12.7456 13.5605 12.5565 13.3773 12.3374C13.0604 11.9608 12.8591 11.4911 12.832 11.0094C12.8366 10.9989 12.8411 10.9868 12.8411 10.9748V8.69539C12.8396 8.53332 12.826 8.37125 12.8035 8.21068C12.7584 7.88955 12.6713 7.57291 12.5467 7.27429C12.2958 6.67404 11.8813 6.13831 11.3465 5.75715C10.8133 5.37449 10.1539 5.1569 9.49304 5.1644C8.83214 5.1659 8.17576 5.391 7.64854 5.77966C7.11833 6.16682 6.71128 6.70855 6.46645 7.3103C6.34328 7.61193 6.26067 7.92856 6.21861 8.2497C6.19758 8.41027 6.18707 8.57233 6.18557 8.7344V10.6822C6.18106 10.6852 6.17806 10.6882 6.17806 10.6912C6.22612 11.2735 6.03536 11.8602 5.66586 12.3134C5.48111 12.54 5.25581 12.7351 5.00647 12.8761C4.77366 13.0082 4.5063 13.0907 4.27649 13.0757C4.26447 13.0742 4.25245 13.0727 4.23894 13.0727C3.95956 13.0727 3.93252 13.4614 4.15632 13.5394C4.15933 13.5559 4.16534 13.5649 4.17134 13.5664C4.37412 13.5919 4.56638 13.5664 4.74512 13.5184C4.92386 13.4704 5.09059 13.3984 5.2468 13.3098C5.55772 13.1342 5.82808 12.9002 6.04888 12.627C6.26968 12.3539 6.44392 12.0403 6.55056 11.7026C6.61965 11.4896 6.66021 11.2675 6.67373 11.0439C6.67823 11.0349 6.67973 11.0244 6.67973 11.0139V8.7374C6.68124 8.59634 6.69025 8.45378 6.70827 8.31422C6.74432 8.03361 6.81642 7.75899 6.92306 7.49788C7.13485 6.97566 7.48783 6.51047 7.93843 6.18033C8.38904 5.84869 8.93728 5.66111 9.49304 5.65961C10.0488 5.65361 10.6 5.83368 11.0551 6.15932C11.5103 6.48346 11.8677 6.94415 12.0855 7.46487C12.1952 7.72448 12.2688 7.99909 12.3093 8.27971C12.3289 8.41927 12.3409 8.56033 12.3424 8.70289V10.7392C12.3379 10.7422 12.3349 10.7452 12.3349 10.7467C12.3138 11.0934 12.3664 11.4445 12.4821 11.7687C12.5977 12.0943 12.7735 12.3929 12.9943 12.654C13.2136 12.9152 13.4764 13.1418 13.7783 13.3128C13.93 13.3984 14.0922 13.4689 14.2665 13.5184C14.4407 13.5664 14.63 13.5919 14.8297 13.5664C14.8373 13.5649 14.8418 13.5544 14.8448 13.5379C15.0746 13.4644 15.049 13.0727 14.7682 13.0727Z" />
<path d="M14.648 14.0571H14.624C14.6074 14.0571 14.5909 14.0586 14.5759 14.0631C14.3521 14.0766 14.1298 14.0571 13.9195 13.9986C13.9195 13.9986 13.9195 13.9971 13.918 13.9971C13.873 13.9806 13.8279 13.9671 13.7813 13.9551C13.553 13.8711 13.3412 13.7405 13.161 13.5724C12.9672 13.3909 12.808 13.1688 12.6863 12.9272C12.6263 12.8056 12.5752 12.6796 12.5361 12.552C12.5121 12.471 12.4926 12.3899 12.4806 12.3104C12.4851 12.2879 12.4866 12.2654 12.4776 12.2429C12.4761 12.2369 12.4731 12.2309 12.4701 12.2249C12.4686 12.2099 12.4671 12.1934 12.4671 12.1783C12.4671 12.1753 12.4595 12.1723 12.446 12.1693C12.416 12.1123 12.3754 12.0613 12.3199 12.0223C12.2192 11.9518 12.0855 11.9968 12.0134 12.0838C11.9879 12.1153 11.9729 12.1543 11.9729 12.1919C11.9729 12.1934 11.9714 12.1934 11.9714 12.1934C11.9729 12.2324 11.9759 12.2699 11.9804 12.3074C11.9744 12.3089 11.9684 12.3119 11.9684 12.3134C11.9218 12.5925 11.8212 12.8596 11.6725 13.0952C11.5238 13.3323 11.3255 13.5379 11.0957 13.703C10.6481 14.0241 10.0863 14.1952 9.52608 14.2117L9.52458 14.2102C8.9478 14.2027 8.36501 14.0301 7.90239 13.6985C7.67258 13.5334 7.47431 13.3278 7.32561 13.0907C7.17691 12.8536 7.07777 12.588 7.02971 12.3089C7.02971 12.3059 7.0237 12.3044 7.01769 12.3029C7.0222 12.2654 7.0252 12.2279 7.0267 12.1889C7.0267 12.1783 7.00417 12.1693 6.96963 12.1618C6.96662 12.0673 6.92757 11.9788 6.82093 11.9533C6.80891 11.9503 6.79839 11.9503 6.78788 11.9488C6.73982 11.9382 6.68875 11.9473 6.6557 11.9833C6.60613 12.0133 6.56558 12.0613 6.53854 12.1108C6.51902 12.1468 6.51601 12.1859 6.52653 12.2234C6.51751 12.3269 6.49348 12.438 6.46194 12.5475C6.42289 12.6751 6.37332 12.8011 6.31174 12.9227C6.19007 13.1643 6.02936 13.3864 5.8371 13.5679C5.65685 13.7375 5.44657 13.8666 5.21826 13.9506C5.1717 13.9641 5.12513 13.9776 5.08007 13.9941L5.07857 13.9956C4.89833 14.0451 4.71057 14.0676 4.51982 14.0646C4.48827 14.0466 4.44922 14.0346 4.40416 14.0346C4.23894 14.0346 4.16233 14.1712 4.17285 14.2987C4.16083 14.4263 4.23743 14.5629 4.40416 14.5629C4.41918 14.5629 4.4327 14.5613 4.44772 14.5583C4.74061 14.5704 5.04252 14.5358 5.32641 14.4413C5.34743 14.4338 5.36696 14.4263 5.38799 14.4188C5.66737 14.3498 5.95876 14.3708 6.24865 14.4683C6.58811 14.5809 6.91856 14.7744 7.25501 14.9755C7.59147 15.1766 7.93693 15.3912 8.31845 15.5608C8.64589 15.7063 9.00638 15.8174 9.37888 15.8474C9.38339 15.8534 9.38639 15.8564 9.3909 15.8564C9.41944 15.8564 9.44647 15.8534 9.47351 15.8519C9.50205 15.8534 9.52908 15.8549 9.55762 15.8564C9.56213 15.8564 9.56663 15.8519 9.56964 15.8474C9.94665 15.8159 10.3086 15.7048 10.6406 15.5593C11.0251 15.3897 11.3751 15.1781 11.716 14.977C12.057 14.7774 12.392 14.5839 12.7359 14.4713C13.0303 14.3738 13.3247 14.3513 13.6071 14.4203C13.6281 14.4278 13.6476 14.4353 13.6687 14.4428C13.9871 14.5493 14.3236 14.5809 14.648 14.5538C14.6525 14.5538 14.657 14.5463 14.66 14.5343C14.7832 14.5253 14.8838 14.4218 14.8838 14.2957C14.8883 14.1667 14.7802 14.0571 14.648 14.0571ZM12.5872 14.0001C12.1712 14.1367 11.8137 14.3483 11.4682 14.5493C11.1227 14.7519 10.7893 14.953 10.4438 15.1046C10.1284 15.2441 9.80396 15.3372 9.47651 15.3567C9.15207 15.3372 8.83214 15.2456 8.52122 15.1076C8.18026 14.956 7.85132 14.7549 7.51186 14.5508C7.1709 14.3483 6.81792 14.1352 6.40486 13.9971C6.32976 13.9716 6.25166 13.9521 6.17355 13.9341C6.17505 13.9326 6.17655 13.9311 6.17956 13.9296C6.42139 13.703 6.61365 13.4344 6.75934 13.1448C6.76385 13.1342 6.76835 13.1237 6.77436 13.1132C6.81492 13.1973 6.85998 13.2783 6.90954 13.3578C7.09429 13.652 7.33913 13.9056 7.617 14.1052C8.16224 14.4953 8.81862 14.6904 9.47501 14.7069C9.47801 14.7114 9.48102 14.7129 9.48252 14.7129C10.1554 14.7039 10.8298 14.5073 11.3886 14.1082C11.6665 13.9086 11.9113 13.655 12.0961 13.3608C12.1456 13.2828 12.1907 13.2003 12.2312 13.1162C12.2357 13.1267 12.2402 13.1373 12.2463 13.1478C12.392 13.4374 12.5842 13.706 12.826 13.9326C12.8275 13.9341 12.829 13.9341 12.8305 13.9356C12.7449 13.9536 12.6638 13.9746 12.5872 14.0001Z" />
<path d="M14.4828 15.2291C14.4828 15.2156 14.4813 15.2051 14.4753 15.2006C14.3521 15.1196 14.2079 15.0716 14.0712 15.0566C13.9345 15.0401 13.8039 15.0506 13.6822 15.0716C13.4389 15.1151 13.2241 15.1991 13.0198 15.2907C12.817 15.3822 12.6248 15.4857 12.437 15.5878C12.2478 15.6898 12.072 15.7904 11.8888 15.8669C11.5103 16.0365 11.1242 16.1745 10.7277 16.2796C10.3702 16.3726 10.0052 16.4416 9.65225 16.4491L9.65075 16.4476C9.2437 16.4386 8.81712 16.3636 8.40256 16.2706C7.988 16.1745 7.57194 16.0545 7.18892 15.8954L7.04323 15.8324C6.99816 15.8129 6.9531 15.7904 6.90654 15.7664C6.81341 15.7183 6.71879 15.6673 6.62266 15.6148C6.4304 15.5097 6.23363 15.4032 6.02485 15.3057C5.81607 15.2096 5.59677 15.1211 5.34743 15.0731C5.22277 15.0491 5.08908 15.0371 4.94789 15.0521C4.83224 15.0641 4.71057 15.0986 4.59942 15.1571C4.5829 15.1646 4.56638 15.1736 4.55286 15.1841C4.54535 15.1886 4.53784 15.1916 4.53033 15.1961C4.52582 15.1991 4.52282 15.2051 4.52132 15.2126C4.40416 15.3477 4.46274 15.6178 4.69555 15.6178C4.7286 15.6178 4.75714 15.6118 4.78267 15.6013C4.79168 15.6088 4.79919 15.6118 4.8022 15.6103C4.91034 15.5368 5.07256 15.5233 5.25581 15.5593C5.43756 15.5938 5.62831 15.6688 5.81757 15.7559C6.00682 15.8429 6.19458 15.9449 6.38684 16.05C6.48297 16.1025 6.5806 16.155 6.68274 16.2075C6.73381 16.2331 6.78638 16.2586 6.84195 16.2841L6.99816 16.3516C7.42474 16.5287 7.85582 16.6517 8.29442 16.7538C8.69546 16.8423 9.098 16.9158 9.52157 16.9383C9.52458 16.9428 9.52908 16.9459 9.53359 16.9459C9.99621 16.9534 10.4333 16.8693 10.8584 16.7598C11.282 16.6472 11.6965 16.4987 12.0915 16.3216C12.3003 16.2331 12.4926 16.1235 12.6773 16.0245C12.8621 15.9239 13.0453 15.8264 13.2271 15.7438C13.4088 15.6613 13.5936 15.5923 13.7693 15.5623C13.9165 15.5368 14.0457 15.5443 14.1463 15.5893C14.1704 15.6328 14.2094 15.6628 14.2665 15.6613C14.2995 15.6808 14.3401 15.6928 14.3881 15.6928C14.657 15.6898 14.6901 15.3192 14.4828 15.2291Z" />
<path d="M13.7107 16.3636C13.6522 16.3636 13.6041 16.3816 13.568 16.4086C13.5575 16.4131 13.547 16.4161 13.538 16.4236C13.1835 16.5272 12.8441 16.6652 12.5196 16.8108L12.0074 17.0434L11.7566 17.1559C11.6785 17.189 11.5959 17.219 11.5103 17.2475C11.1708 17.36 10.8118 17.4471 10.4543 17.5176C10.184 17.5701 9.90609 17.6151 9.63723 17.6391C9.29927 17.6617 8.93278 17.6136 8.5753 17.5446C8.21631 17.4741 7.85883 17.378 7.51787 17.2565C7.34513 17.1965 7.19042 17.1259 7.01318 17.0464L6.49649 16.8123C6.17205 16.6667 5.83409 16.5302 5.48262 16.4251C5.44507 16.3876 5.39099 16.3636 5.3234 16.3636C5.03651 16.3636 5.01549 16.7718 5.25731 16.8348C5.25731 16.8588 5.26032 16.8753 5.26783 16.8768C5.6148 16.9729 5.95275 17.1109 6.29371 17.264L6.80891 17.4981C6.97714 17.5746 7.16639 17.6602 7.35114 17.7232C7.72214 17.8552 8.09765 17.9543 8.48067 18.0308C8.77356 18.0863 9.07097 18.1313 9.38038 18.1374C9.38489 18.1434 9.3894 18.1494 9.3939 18.1494C9.48853 18.1464 9.58166 18.1404 9.67328 18.1328C9.97368 18.1073 10.2606 18.0593 10.5505 18.0038C10.926 17.9288 11.2985 17.8402 11.6695 17.7172C11.7626 17.6857 11.8557 17.6511 11.9504 17.6121L12.2132 17.4951L12.7239 17.264C13.0619 17.1124 13.3968 16.9774 13.7408 16.8813C13.7453 16.8798 13.7483 16.8723 13.7498 16.8603C13.7663 16.8543 13.7798 16.8438 13.7933 16.8318C14.0171 16.7553 13.9916 16.3636 13.7107 16.3636Z" />
<path d="M13.4794 19.0302C12.8876 19.3153 12.2207 19.4519 11.5493 19.4924C11.1197 19.5164 10.6871 19.5029 10.2591 19.4534C10.7052 19.4159 11.1453 19.3259 11.5688 19.1863C12.2748 18.9567 12.9267 18.604 13.5305 18.2019C13.5425 18.1944 13.547 18.1749 13.5455 18.1524C13.6146 18.1103 13.6627 18.0338 13.6627 17.9483C13.6627 17.8177 13.553 17.7082 13.4223 17.7082H13.3983C13.3082 17.7082 13.2301 17.7592 13.1895 17.8342C12.6308 18.2004 12.0405 18.5125 11.4156 18.7166C10.7683 18.9297 10.0818 19.0167 9.40742 18.9657C8.8727 18.9252 8.353 18.7451 7.83029 18.5305C7.79124 18.5095 7.75369 18.4885 7.71463 18.4675C7.40371 18.3009 7.08678 18.1374 6.74582 18.0008C6.57459 17.9333 6.39735 17.8732 6.20509 17.8342C6.04888 17.8027 5.87765 17.7832 5.6959 17.8087C5.60879 17.7967 5.52167 17.7892 5.43305 17.7832C5.40151 17.7667 5.36546 17.7562 5.3204 17.7562C5.029 17.7562 5.01098 18.1794 5.26632 18.2319C5.27834 18.2574 5.29036 18.2724 5.30538 18.2724C5.43305 18.2754 5.55922 18.2874 5.68539 18.3069C5.6899 18.3099 5.6944 18.3114 5.69891 18.3114C5.70041 18.3114 5.70191 18.3114 5.70492 18.3099C6.22612 18.394 6.73982 18.604 7.25802 18.8261C7.37517 18.8757 7.49534 18.9267 7.614 18.9762C7.87385 19.1173 8.1337 19.2628 8.40256 19.4039C8.56028 19.4864 8.71949 19.5675 8.88922 19.641C9.05594 19.713 9.23919 19.785 9.43295 19.8226C10.1374 19.9681 10.8584 20.0281 11.5809 19.9876C12.3003 19.9441 13.0288 19.7985 13.6972 19.4774C13.7378 19.4579 13.7212 19.3424 13.6582 19.2208C13.5936 19.0978 13.5155 19.0137 13.4794 19.0302Z" />
</svg>
