<svg width="20" height="23" viewBox="0 0 20 23" fill="white" xmlns="http://www.w3.org/2000/svg">
<path d="M0.18457 19.488V22.0757H2.95025M16.4519 22.0757H19.1244V19.488M0.18457 3.82132V0.978027H2.95025M19.1244 3.82132V0.978027H16.4519" stroke="white" stroke-width="0.168367"/>
<path d="M9.92468 10.7313C9.84977 10.6162 9.75989 10.544 9.66101 10.5194C9.61158 10.5072 9.54866 10.5072 9.49772 10.5241C9.44679 10.5394 9.40334 10.564 9.3614 10.6008C9.2775 10.6745 9.21159 10.8066 9.15916 10.9386C9.13069 11.0092 9.1247 11.0292 9.10972 11.0676L8.99886 11.3715C8.95092 11.5036 8.90149 11.6341 8.84755 11.76C8.63632 12.262 8.3472 12.7242 7.93073 12.9959C7.81987 13.0328 7.71051 13.0711 7.60265 13.1141C7.59965 13.1157 7.59815 13.1203 7.59665 13.1264C7.41539 13.2354 7.45584 13.5855 7.7165 13.5855C7.73448 13.5855 7.74946 13.5839 7.76594 13.5809C7.77193 13.5855 7.77642 13.5885 7.77942 13.587C8.39963 13.3429 9.05279 13.1955 9.70895 13.1909C10.3501 13.1848 10.9883 13.3199 11.5861 13.5686C11.622 13.5947 11.6669 13.61 11.7209 13.61C11.992 13.61 12.025 13.2308 11.8198 13.1387C11.8198 13.1249 11.8183 13.1172 11.8123 13.1141C11.7389 13.0819 11.664 13.0527 11.5876 13.0251C11.5935 12.999 10.831 12.4401 10.5614 12.0287C10.425 11.8229 10.3052 11.6018 10.1898 11.3731L10.1449 11.284C10.1719 11.218 9.93367 10.7436 9.92468 10.7313ZM10.1554 12.3158C10.2528 12.4616 10.3591 12.6044 10.4775 12.738C10.2228 12.7011 9.96513 12.6812 9.70596 12.6842C9.42432 12.6858 9.14418 12.7134 8.86853 12.7595C9.0468 12.5077 9.18462 12.2359 9.30147 11.9611C9.3599 11.8245 9.41233 11.6847 9.46177 11.5481L9.53517 11.3454L9.57113 11.2472C9.57263 11.2503 9.57412 11.2533 9.57712 11.2579L9.7524 11.608C9.87225 11.846 10.0026 12.0855 10.1554 12.3158Z" />
<path d="M5.6087 14.241C5.90682 14.1044 6.18396 13.9248 6.43414 13.719C6.936 13.3045 7.33299 12.7917 7.67456 12.2605C8.01612 11.7277 8.30075 11.1673 8.58988 10.6285C8.60786 10.5962 8.62284 10.5655 8.64232 10.5333L8.70074 10.4335L8.8161 10.2354C8.894 10.1049 8.97189 9.97748 9.05279 9.85772C9.13369 9.73797 9.22058 9.62589 9.31046 9.53684C9.40035 9.4478 9.49473 9.39099 9.56214 9.38331C9.5966 9.37871 9.62955 9.38331 9.67 9.39713C9.70895 9.41248 9.7539 9.43858 9.79884 9.4739C9.88872 9.54605 9.97861 9.65046 10.0595 9.76407C10.1404 9.87768 10.2153 10.0036 10.2872 10.1325L10.3996 10.3383C10.4385 10.4089 10.479 10.4765 10.5209 10.544C10.8505 11.0844 11.222 11.5911 11.6295 12.0701C12.0385 12.5461 12.4864 12.9959 12.9972 13.3767C13.2534 13.567 13.5246 13.739 13.8167 13.8802C14.1088 14.02 14.4219 14.129 14.753 14.1766C14.8339 14.1888 14.9103 14.0798 14.9208 13.9417C14.9313 13.8019 14.8878 13.6853 14.8219 13.6745C14.2781 13.5947 13.7568 13.3152 13.2894 12.9683C12.819 12.6167 12.3935 12.1929 12.0025 11.7369C11.613 11.281 11.255 10.7897 10.9419 10.2769C10.9029 10.2124 10.8655 10.1479 10.8295 10.0834L10.7202 9.88383C10.6423 9.74258 10.5584 9.60133 10.461 9.46468C10.3621 9.32804 10.2528 9.19293 10.1044 9.07318C10.0295 9.01484 9.94266 8.95803 9.84079 8.91965C9.73892 8.88127 9.61607 8.86284 9.50072 8.87973C9.38387 8.89508 9.2805 8.93961 9.19511 8.99181C9.10822 9.04555 9.03632 9.10696 8.9719 9.16991C8.84306 9.29734 8.74269 9.43091 8.64981 9.56601C8.55693 9.70112 8.47453 9.83623 8.39514 9.97134L8.27679 10.174L8.21836 10.2738C8.19739 10.3091 8.17791 10.346 8.15844 10.3813C7.86481 10.9309 7.58767 11.4744 7.26258 11.9795C6.939 12.4846 6.57047 12.956 6.12703 13.3214C5.6851 13.6883 5.16227 13.9355 4.60498 14.0107C4.53757 14.02 4.49262 14.1382 4.50611 14.2779C4.51809 14.4176 4.593 14.5235 4.6739 14.5128C4.99299 14.4713 5.31058 14.3777 5.6087 14.241Z" />
<path d="M4.72333 13.1387C5.01995 13.0128 5.30608 12.8562 5.57424 12.6673C5.8409 12.4785 6.08658 12.2574 6.30381 12.0133C6.74125 11.5235 7.06184 10.957 7.34648 10.3951C7.48879 10.1141 7.62362 9.83009 7.75845 9.55066L7.96219 9.13306L8.01312 9.0302C8.0281 8.99949 8.04458 8.97032 8.06106 8.94114C8.09552 8.8828 8.13147 8.826 8.17342 8.7738C8.4955 8.34237 9.03931 8.0998 9.58311 8.09365C9.85427 8.08905 10.1269 8.14432 10.3606 8.25947C10.419 8.28864 10.4745 8.32088 10.5269 8.35773C10.5838 8.39918 10.6408 8.44063 10.6947 8.48669C10.8026 8.57728 10.9059 8.67554 11.0018 8.78454C11.3898 9.21443 11.6804 9.75486 12.0145 10.2922C12.0984 10.4273 12.1853 10.5609 12.2782 10.6929L12.2946 10.716L12.3021 10.7267L12.3336 10.7789L12.3995 10.8818C12.4445 10.9493 12.4909 11.0154 12.5373 11.0814C12.7246 11.3439 12.9283 11.5911 13.1456 11.826C13.3628 12.0609 13.5965 12.2835 13.8512 12.4846C14.1073 12.6842 14.3845 12.8669 14.7066 12.9898C14.7875 13.0205 14.8848 12.9299 14.9193 12.7948C14.9552 12.6597 14.9358 12.5368 14.8758 12.5138C14.6242 12.4186 14.38 12.262 14.1508 12.0824C13.9216 11.9028 13.7058 11.697 13.5021 11.4775C13.2999 11.2579 13.1081 11.0261 12.9343 10.7835C12.8909 10.7221 12.8489 10.6622 12.8085 10.5993L12.7486 10.5056L12.7201 10.4596L12.7126 10.4458C12.7081 10.4381 12.7006 10.4273 12.6961 10.4197L12.6797 10.3966C12.5943 10.2753 12.5119 10.1479 12.431 10.0189C12.1074 9.50307 11.8078 8.93347 11.3643 8.44064C11.2535 8.31781 11.1336 8.20113 11.0063 8.09365C10.9419 8.03992 10.8745 7.98925 10.807 7.94012C10.7336 7.88792 10.6557 7.8434 10.5778 7.80348C10.2602 7.64688 9.91569 7.5824 9.57712 7.58547C9.23855 7.59007 8.89998 7.6653 8.58838 7.81116C8.27828 7.95701 7.99515 8.17963 7.78242 8.4606C7.72999 8.53122 7.68055 8.60491 7.6371 8.68014C7.61463 8.71853 7.59366 8.75691 7.57418 8.79683L7.52175 8.90276L7.31501 9.32497C7.17869 9.60593 7.04536 9.8869 6.90754 10.1602C6.63039 10.7068 6.32927 11.2334 5.93977 11.6694C5.55327 12.107 5.07238 12.4432 4.53457 12.6689C4.47015 12.6965 4.45517 12.8239 4.50311 12.9545C4.55105 13.0865 4.64992 13.1694 4.72333 13.1387Z" />
<path d="M14.9567 11.0215C14.4759 10.759 14.1088 10.3045 13.7897 9.80245C13.4676 9.30041 13.18 8.74616 12.7875 8.23643C12.3845 7.73132 11.9111 7.30297 11.3658 6.9652C10.8235 6.63357 10.2018 6.3956 9.54117 6.37564C9.21309 6.36489 8.87901 6.41402 8.56591 6.52303C8.25132 6.63203 7.96069 6.80092 7.70452 7.00665C7.19816 7.41965 6.81316 7.93552 6.4716 8.45906C6.13153 8.9826 5.83191 9.51689 5.49484 10.0097C5.15927 10.501 4.77876 10.9493 4.30986 11.2656C4.25443 11.304 4.26342 11.4299 4.33383 11.5512C4.40424 11.6709 4.5166 11.7354 4.58251 11.6894C5.12482 11.3239 5.54578 10.8188 5.89933 10.303C6.25437 9.78403 6.55399 9.24667 6.88207 8.74155C7.20865 8.23951 7.56969 7.76509 8.00863 7.40737C8.44157 7.05425 8.97789 6.86387 9.52619 6.88383C10.076 6.89918 10.6213 7.10184 11.1097 7.40122C11.5965 7.70215 12.0385 8.10286 12.398 8.55271C12.7546 9.01177 13.0362 9.55374 13.3748 10.0819C13.544 10.346 13.7298 10.6085 13.95 10.8495C14.1702 11.0906 14.4279 11.3086 14.72 11.4683C14.792 11.5082 14.8998 11.4345 14.9567 11.3071C15.0152 11.1796 15.0137 11.0537 14.9567 11.0215Z" />
<path d="M4.4372 10.0573C4.67839 9.82088 4.87913 9.56295 5.06639 9.30194C5.25366 9.0394 5.42743 8.7738 5.59672 8.50819C5.93678 7.97697 6.26486 7.44575 6.62889 6.94984C6.99143 6.45701 7.38992 5.99028 7.86331 5.65865C7.98166 5.57574 8.10451 5.50358 8.23035 5.44217C8.35768 5.37922 8.48502 5.33623 8.63034 5.29171C8.91348 5.2042 9.2011 5.14125 9.48424 5.11976C9.76738 5.09826 10.046 5.12283 10.3067 5.21034C10.5674 5.29632 10.81 5.44217 11.0393 5.62487C11.2685 5.80758 11.4857 6.02098 11.7044 6.24053L12.3591 6.90225C12.5568 7.11566 12.7366 7.36438 12.9119 7.61771C13.0871 7.87257 13.2579 8.13511 13.4332 8.39765C13.6085 8.66019 13.7882 8.92426 13.983 9.18219C14.1792 9.43859 14.389 9.69192 14.6511 9.91454C14.717 9.96981 14.8384 9.91914 14.9163 9.80553C14.9957 9.69038 15.0167 9.56755 14.9657 9.52457C14.7515 9.34186 14.5568 9.11156 14.3725 8.87052C14.1882 8.62794 14.0144 8.37154 13.8407 8.11208C13.6669 7.85261 13.4946 7.58854 13.3133 7.326C13.1306 7.06346 12.9418 6.80246 12.7141 6.55527L12.049 5.88281C11.8272 5.65865 11.598 5.43296 11.3389 5.22723C11.0812 5.0215 10.7846 4.83879 10.455 4.73132C10.1269 4.62078 9.77786 4.59161 9.44529 4.61771C9.11272 4.64228 8.79213 4.71597 8.48502 4.80962C8.33521 4.85568 8.16743 4.91249 8.01612 4.98618C7.86332 5.05988 7.718 5.14585 7.58018 5.24258C7.03188 5.62948 6.60792 6.13459 6.2289 6.64892C5.84989 7.16632 5.51732 7.70676 5.17875 8.23337C5.00947 8.49744 4.84018 8.75691 4.66191 9.00563C4.48364 9.25435 4.29638 9.49232 4.09114 9.69345C4.0417 9.74258 4.07166 9.86387 4.16005 9.97134C4.25293 10.0742 4.37727 10.1172 4.4372 10.0573Z" />
<path d="M4.44768 8.55578C4.72783 7.99693 5.00946 7.44422 5.32106 6.913C5.63117 6.38178 5.96824 5.86899 6.35475 5.40686C6.74125 4.94473 7.17869 4.53019 7.67905 4.24002C7.92923 4.0957 8.19439 3.98362 8.46854 3.91453C8.60786 3.87922 8.74119 3.85619 8.8895 3.84084C9.03482 3.82548 9.18013 3.81474 9.32544 3.8132C9.9082 3.80399 10.488 3.91453 11.0258 4.14022C11.5651 4.36438 12.0609 4.70061 12.4999 5.10286C12.9403 5.50665 13.3268 5.97492 13.6639 6.48004C13.998 6.98516 14.2916 7.52712 14.5148 8.08751C14.5418 8.15506 14.6646 8.17042 14.7934 8.12282C14.9223 8.07523 15.0032 7.9739 14.9747 7.89867C14.7335 7.29376 14.4279 6.7303 14.0729 6.19447C13.7163 5.66172 13.3059 5.16121 12.831 4.72518C12.3561 4.29068 11.8138 3.92068 11.2145 3.67042C10.6168 3.41863 9.96512 3.29427 9.31945 3.30501C9.15766 3.30655 8.99736 3.3173 8.83707 3.33572C8.67977 3.35261 8.51049 3.38025 8.35019 3.4217C8.0281 3.50307 7.721 3.63357 7.43636 3.79785C6.86709 4.12948 6.3907 4.58547 5.98023 5.07677C5.15778 6.06858 4.57053 7.20624 4.00875 8.32395C3.97429 8.39304 4.0447 8.49897 4.16604 8.56346C4.28739 8.62794 4.41323 8.62487 4.44768 8.55578Z" />
<path d="M4.50311 5.90123C4.62895 5.95496 4.75179 5.95036 4.77576 5.89202C5.19073 4.92938 5.84689 4.07113 6.66784 3.44319C7.07832 3.12999 7.52924 2.87359 8.00713 2.70624C8.24533 2.62334 8.49101 2.56346 8.7367 2.53122C8.85954 2.51586 8.98238 2.50819 9.10672 2.50819C9.23706 2.50819 9.36739 2.51126 9.49623 2.5174C10.5314 2.56499 11.5591 2.82446 12.4415 3.35875C13.3238 3.88843 14.0459 4.68833 14.4998 5.62794C14.5283 5.68475 14.6496 5.68321 14.7725 5.62334C14.8968 5.56499 14.9732 5.46366 14.9418 5.40071C14.4459 4.37513 13.6564 3.49846 12.6916 2.91965C11.7269 2.3347 10.6153 2.05834 9.5187 2.00921C9.38087 2.00307 9.24455 2 9.10672 2C8.96291 2 8.81909 2.00921 8.67677 2.0261C8.39214 2.06141 8.11499 2.1305 7.84683 2.22415C7.31202 2.41146 6.81765 2.69396 6.36972 3.0348C5.47686 3.71955 4.77127 4.64381 4.32184 5.68475C4.29638 5.7523 4.37727 5.84749 4.50311 5.90123Z" />
<path d="M14.72 14.9872C14.6826 14.9872 14.6511 14.9949 14.6227 15.0072C14.6167 15.001 14.6122 14.9979 14.6077 14.9995C14.5642 15.0164 14.4878 15.021 14.4084 15.0102C14.326 14.9995 14.2451 14.978 14.1508 14.9427L13.5515 14.7293C13.1515 14.5865 12.7486 14.4422 12.3381 14.3132C11.9276 14.1842 11.5082 14.0706 11.0812 13.9877C10.6542 13.9048 10.2213 13.8511 9.78835 13.828C9.3584 13.805 8.91647 13.8019 8.47753 13.8587C8.03859 13.9125 7.60415 14.0246 7.19217 14.1781C6.7802 14.3286 6.3922 14.5143 6.00869 14.6679C5.63567 14.8183 5.26264 14.9319 4.87763 14.9887C4.87314 14.9887 4.86865 14.9872 4.86415 14.9872C4.55405 14.9872 4.55405 15.4785 4.86415 15.4785C4.86565 15.4785 4.86565 15.4785 4.86715 15.4785C4.88063 15.4923 4.89561 15.4985 4.91059 15.4969C5.35253 15.4355 5.78547 15.3035 6.18846 15.1407C6.59294 14.9795 6.97495 14.7968 7.35996 14.6556C7.74497 14.5128 8.13597 14.413 8.53895 14.3623C8.94044 14.3101 9.34792 14.3117 9.76289 14.3347C10.5883 14.3761 11.3988 14.5435 12.1943 14.7984C12.5928 14.9243 12.9898 15.0655 13.3897 15.2083L13.9905 15.4217C14.0953 15.4601 14.2197 15.4954 14.347 15.5123C14.4774 15.5276 14.6167 15.5307 14.7755 15.4754C14.78 15.4739 14.783 15.4708 14.7875 15.4678C15.0271 15.4033 15.0047 14.9872 14.72 14.9872Z" />
<path d="M14.3635 16.3275C13.6309 15.9729 12.8729 15.652 12.0909 15.4002C11.3089 15.153 10.4969 14.958 9.64903 14.955C8.82808 14.955 7.99664 15.0486 7.19517 15.2774C6.39369 15.5046 5.62967 15.8654 4.93756 16.3337C4.89561 16.3628 4.92258 16.4795 4.99898 16.5962C5.07538 16.7129 5.16976 16.7851 5.20871 16.7574C5.86037 16.3168 6.57496 15.979 7.327 15.7656C7.67156 15.6673 8.02361 15.5967 8.37865 15.5476C8.38165 15.5491 8.38465 15.5522 8.38764 15.5522C9.38087 15.5844 10.3606 15.8378 11.2565 16.2784C11.7059 16.4979 12.1358 16.762 12.5508 17.0537C12.7591 17.1996 12.9643 17.3516 13.1725 17.5066C13.3823 17.6617 13.5875 17.8199 13.8317 17.9657C13.8631 17.9841 13.9395 17.8966 14.004 17.7738C14.0669 17.6494 14.0998 17.5389 14.0774 17.5251C13.8766 17.4069 13.6714 17.2503 13.4646 17.0967C13.2579 16.9417 13.0467 16.7851 12.831 16.6346C12.3995 16.3321 11.9471 16.0542 11.4707 15.8209C11.3449 15.7579 11.216 15.6996 11.0857 15.6443C11.3733 15.7119 11.6595 15.7932 11.9426 15.8838C12.6976 16.1264 13.4302 16.4381 14.1523 16.7866C14.1972 16.8081 14.2811 16.7221 14.338 16.5947C14.3965 16.4688 14.4084 16.349 14.3635 16.3275Z" />
<path d="M12.7276 17.9933C12.398 17.7799 12.0654 17.5742 11.7164 17.3838L11.5831 17.3132C11.5396 17.2902 11.4827 17.2641 11.4392 17.2456L11.1771 17.129L10.6482 16.8879C10.467 16.8081 10.2797 16.7329 10.091 16.6684C9.90071 16.6039 9.71644 16.5471 9.5157 16.4964C8.72321 16.3091 7.90526 16.3183 7.11727 16.4887C6.33227 16.6607 5.56825 17.0138 4.95254 17.5681C4.91509 17.6018 4.96003 17.7139 5.05291 17.8168C5.14579 17.9197 5.24766 17.9795 5.27912 17.9488C5.82142 17.4606 6.50455 17.1412 7.22064 16.9831C7.77493 16.8618 8.35319 16.8326 8.91497 16.9033C8.6588 16.9232 8.40262 16.9585 8.15095 17.0123C7.06633 17.241 6.03266 17.7968 5.27313 18.6443C5.24916 18.6704 5.31357 18.7671 5.41544 18.8608C5.51731 18.9544 5.61619 19.0113 5.63716 18.9882C6.31879 18.2267 7.25659 17.7185 8.24982 17.5097C9.24605 17.2963 10.2977 17.3808 11.261 17.7216C11.2625 17.7216 11.2655 17.7216 11.2685 17.7216C11.3014 17.7354 11.3269 17.7492 11.3613 17.7661L11.4842 17.8306C11.8138 18.0102 12.1403 18.2114 12.4609 18.4186C12.78 18.6274 13.1006 18.8439 13.3897 19.0742C13.4242 19.1018 13.5216 19.0374 13.61 18.9299C13.6983 18.8224 13.7373 18.7073 13.6968 18.6766C13.3793 18.4248 13.0572 18.2083 12.7276 17.9933Z" />
<path d="M13.0317 19.3045C13.0332 19.2876 13.0302 19.2738 13.0227 19.2692C12.0714 18.6259 10.9748 18.2144 9.83629 18.1039C9.26702 18.0502 8.68426 18.0778 8.11949 18.216C7.59216 18.3449 7.08131 18.5768 6.64087 18.913C6.60642 18.9268 6.57796 18.9498 6.55698 18.9775C6.55399 18.9806 6.55099 18.9821 6.54799 18.9836C6.5435 18.9867 6.542 18.9928 6.54051 19.0005C6.45362 19.1448 6.51803 19.3859 6.73525 19.3859C6.76372 19.3859 6.78919 19.3797 6.81316 19.3721C6.83263 19.3828 6.84911 19.3874 6.8566 19.3813C7.25659 19.0558 7.73298 18.8316 8.23634 18.7088C8.73969 18.5844 9.27001 18.5583 9.79284 18.6075C10.8295 18.7073 11.8467 19.085 12.7201 19.6714C12.7591 19.7206 12.8175 19.7543 12.8984 19.7543C13.153 19.7559 13.1965 19.4227 13.0317 19.3045Z" />
<path d="M11.4362 19.5148C11.4362 19.5072 11.4332 19.501 11.4302 19.4995C10.9254 19.3721 10.4086 19.2891 9.88423 19.263C9.41533 19.2416 8.93894 19.2661 8.47004 19.369C8.45206 19.3644 8.43259 19.3613 8.41311 19.3613C8.28278 19.3613 8.17342 19.4734 8.17342 19.607V19.6315C8.17342 19.7651 8.28128 19.8756 8.41161 19.8772C8.4191 19.891 8.42509 19.9002 8.42959 19.8987C8.8895 19.7789 9.37638 19.7467 9.86325 19.7697C10.3501 19.7927 10.837 19.871 11.3134 19.9908C11.3149 19.9908 11.3164 19.9893 11.3164 19.9893C11.3389 19.9954 11.3613 20 11.3883 20C11.6789 20.0015 11.6954 19.564 11.4362 19.5148Z" />
</svg>
