<svg width="31" height="50" viewBox="0 0 31 50" fill="white" xmlns="http://www.w3.org/2000/svg">
<path d="M16.6968 24.4952C16.4857 24.1817 16.2324 23.9853 15.9538 23.9184C15.8144 23.885 15.6371 23.885 15.4936 23.9309C15.35 23.9727 15.2276 24.0396 15.1094 24.1399C14.873 24.3405 14.6872 24.6999 14.5394 25.0594C14.4592 25.2516 14.4423 25.306 14.4001 25.4105L14.0877 26.238C13.9526 26.5974 13.8133 26.9527 13.6613 27.2954C13.066 28.6621 12.2512 29.9201 11.0775 30.6599C10.7651 30.7602 10.4569 30.8647 10.1529 30.9817C10.1445 30.9859 10.1402 30.9984 10.136 31.0151C9.62518 31.3119 9.73918 32.2648 10.4738 32.2648C10.5244 32.2648 10.5667 32.2606 10.6131 32.2522C10.63 32.2648 10.6427 32.2731 10.6511 32.269C12.3989 31.6044 14.2397 31.2032 16.0889 31.1907C17.8958 31.1739 19.6943 31.5417 21.3789 32.2188C21.4802 32.2899 21.6069 32.3316 21.7588 32.3316C22.523 32.3316 22.6159 31.2993 22.0375 31.0486C22.0375 31.0109 22.0333 30.99 22.0164 30.9817C21.8095 30.8939 21.5984 30.8145 21.3831 30.7393C21.4 30.6682 19.2511 29.1469 18.4911 28.0268C18.1069 27.4668 17.7692 26.8649 17.4441 26.2422L17.3174 25.9998C17.3934 25.82 16.7221 24.5286 16.6968 24.4952ZM17.347 28.8084C17.6214 29.2054 17.9212 29.5941 18.2547 29.9577C17.537 29.8574 16.8108 29.8031 16.0804 29.8114C15.2867 29.8156 14.4972 29.8908 13.7204 30.0162C14.2228 29.3308 14.6112 28.591 14.9405 27.8429C15.1052 27.4709 15.2529 27.0906 15.3923 26.7186L15.5991 26.1669L15.7005 25.8995C15.7047 25.9078 15.7089 25.9162 15.7173 25.9287L16.2113 26.8816C16.5491 27.5294 16.9164 28.1814 17.347 28.8084Z" />
<path d="M4.53361 34.0494C5.37376 33.6774 6.15481 33.1884 6.85986 32.6284C8.27419 31.4999 9.39298 30.104 10.3556 28.6579C11.3182 27.2076 12.1203 25.6821 12.9351 24.2151C12.9858 24.1274 13.028 24.0438 13.0829 23.956L13.2475 23.6843L13.5726 23.1452C13.7922 22.7899 14.0117 22.443 14.2397 22.117C14.4677 21.791 14.7125 21.4859 14.9658 21.2435C15.2192 21.0011 15.4851 20.8465 15.6751 20.8256C15.7722 20.813 15.8651 20.8256 15.9791 20.8632C16.0889 20.905 16.2155 20.976 16.3422 21.0722C16.5955 21.2686 16.8488 21.5528 17.0768 21.8621C17.3048 22.1714 17.5159 22.5141 17.7185 22.8652L18.0352 23.4252C18.1449 23.6175 18.2589 23.8014 18.3771 23.9852C19.3059 25.4564 20.353 26.8356 21.5013 28.1396C22.6539 29.4353 23.9162 30.6598 25.3559 31.6964C26.0778 32.2146 26.842 32.6827 27.6652 33.0672C28.4885 33.4475 29.3709 33.7443 30.3039 33.8739C30.5319 33.9073 30.7472 33.6105 30.7768 33.2344C30.8063 32.8541 30.6839 32.5364 30.4981 32.5072C28.9656 32.2898 27.4964 31.5292 26.1791 30.5846C24.8535 29.6275 23.6545 28.474 22.5526 27.2327C21.4549 25.9914 20.4458 24.654 19.5635 23.258C19.4537 23.0825 19.3482 22.9069 19.2468 22.7314L18.9386 22.1881C18.7191 21.8036 18.4827 21.4191 18.2082 21.0471C17.9296 20.6751 17.6214 20.3073 17.2034 19.9813C16.9924 19.8225 16.7475 19.6679 16.4604 19.5634C16.1733 19.4589 15.8271 19.4087 15.502 19.4547C15.1727 19.4965 14.8814 19.6177 14.6408 19.7598C14.3959 19.9061 14.1933 20.0733 14.0117 20.2446C13.6486 20.5915 13.3658 20.9551 13.104 21.3229C12.8422 21.6907 12.6101 22.0585 12.3863 22.4263L12.0528 22.978L11.8881 23.2497C11.829 23.3458 11.7741 23.4461 11.7192 23.5422C10.8917 25.0385 10.1107 26.518 9.19456 27.893C8.28263 29.2681 7.24404 30.5512 5.99437 31.5459C4.74892 32.5448 3.27548 33.2177 1.70495 33.4225C1.51496 33.4476 1.3883 33.7694 1.4263 34.1497C1.46008 34.53 1.67118 34.8184 1.89916 34.7892C2.79842 34.6763 3.69345 34.4214 4.53361 34.0494Z" />
<path d="M2.03847 31.0486C2.8744 30.7058 3.68078 30.2795 4.43649 29.7655C5.18799 29.2514 5.88037 28.6495 6.49254 27.985C7.72533 26.6518 8.62882 25.1095 9.43098 23.5798C9.83205 22.815 10.212 22.0418 10.592 21.2811L11.1662 20.1443L11.3097 19.8643C11.3519 19.7807 11.3984 19.7013 11.4448 19.6219C11.5419 19.4631 11.6432 19.3084 11.7614 19.1663C12.6691 17.9919 14.2017 17.3316 15.7342 17.3148C16.4984 17.3023 17.2668 17.4528 17.9254 17.7662C18.09 17.8456 18.2462 17.9334 18.394 18.0337C18.5544 18.1466 18.7149 18.2594 18.8669 18.3848C19.1708 18.6314 19.4621 18.8989 19.7323 19.1956C20.8258 20.3658 21.6449 21.837 22.5863 23.2998C22.8228 23.6676 23.0676 24.0312 23.3294 24.3907L23.3758 24.4534L23.3969 24.4826L23.4856 24.6247L23.6713 24.9047C23.798 25.0886 23.9289 25.2684 24.0598 25.4481C24.5875 26.1628 25.1617 26.8357 25.7738 27.4751C26.386 28.1146 27.0446 28.7206 27.7623 29.2681C28.4843 29.8114 29.2653 30.3088 30.173 30.6431C30.401 30.7267 30.6754 30.4801 30.7725 30.1123C30.8739 29.7446 30.819 29.4102 30.6501 29.3475C29.9408 29.0884 29.2527 28.6621 28.6067 28.1731C27.9608 27.6841 27.3528 27.124 26.7786 26.5264C26.2087 25.9287 25.6683 25.2976 25.1786 24.6373C25.0561 24.4701 24.9379 24.3071 24.8239 24.1357L24.655 23.8808L24.5748 23.7554L24.5537 23.7178C24.5411 23.6969 24.5199 23.6676 24.5073 23.6467L24.4608 23.584C24.2202 23.2539 23.988 22.907 23.76 22.5559C22.8481 21.1516 22.0037 19.601 20.754 18.2594C20.4416 17.925 20.1039 17.6074 19.745 17.3148C19.5635 17.1686 19.3735 17.0306 19.1835 16.8969C18.9766 16.7548 18.7571 16.6336 18.5376 16.5249C17.6425 16.0986 16.6715 15.9231 15.7173 15.9314C14.7632 15.944 13.809 16.1488 12.9309 16.5458C12.057 16.9429 11.259 17.5489 10.6595 18.3137C10.5118 18.506 10.3725 18.7066 10.25 18.9114C10.1867 19.0159 10.1276 19.1204 10.0727 19.229L9.92493 19.5174L9.34231 20.6668C8.95812 21.4316 8.58238 22.1964 8.19397 22.9404C7.41292 24.4283 6.56432 25.8618 5.46663 27.0488C4.37739 28.24 3.02217 29.1552 1.50651 29.7696C1.32497 29.8449 1.28276 30.1918 1.41786 30.547C1.55296 30.9064 1.8316 31.1321 2.03847 31.0486Z" />
<path d="M30.8781 25.2851C29.5229 24.5704 28.4885 23.3333 27.5892 21.9666C26.6815 20.5999 25.871 19.0911 24.7648 17.7035C23.6291 16.3285 22.295 15.1624 20.7583 14.2429C19.2299 13.3402 17.4779 12.6924 15.616 12.638C14.6914 12.6088 13.7499 12.7425 12.8676 13.0392C11.981 13.336 11.1619 13.7957 10.44 14.3558C9.01301 15.4801 7.928 16.8844 6.96541 18.3095C6.00704 19.7347 5.16266 21.1892 4.21274 22.5308C3.26704 23.8682 2.19468 25.0886 0.873238 25.9496C0.717029 26.0541 0.742362 26.3968 0.94079 26.727C1.13922 27.053 1.45586 27.2285 1.64162 27.1031C3.16994 26.1084 4.35629 24.7334 5.35265 23.3291C6.35323 21.9164 7.19761 20.4536 8.1222 19.0786C9.04257 17.7119 10.06 16.4204 11.297 15.4466C12.5172 14.4853 14.0286 13.9671 15.5738 14.0214C17.1232 14.0632 18.66 14.6149 20.0363 15.4299C21.4084 16.2491 22.6539 17.3399 23.6671 18.5645C24.6719 19.8141 25.4656 21.2895 26.4198 22.7272C26.8969 23.4461 27.4204 24.1608 28.041 24.817C28.6616 25.4731 29.3878 26.0666 30.211 26.5013C30.4137 26.61 30.7177 26.4093 30.8781 26.0624C31.0427 25.7155 31.0385 25.3728 30.8781 25.2851Z" />
<path d="M1.2321 22.6604C1.91182 22.0167 2.47756 21.3146 3.00529 20.6041C3.53303 19.8894 4.02277 19.1663 4.49984 18.4433C5.45821 16.9972 6.38279 15.5511 7.4087 14.2011C8.4304 12.8595 9.55341 11.589 10.8875 10.6862C11.2211 10.4605 11.5672 10.2641 11.9219 10.0969C12.2807 9.92556 12.6396 9.80853 13.0491 9.68733C13.8471 9.4491 14.6577 9.27774 15.4556 9.21923C16.2535 9.16072 17.0388 9.22759 17.7734 9.46582C18.508 9.69987 19.1919 10.0969 19.8379 10.5943C20.4838 11.0916 21.096 11.6726 21.7124 12.2702L23.5574 14.0716C24.1147 14.6525 24.6213 15.3296 25.1152 16.0192C25.6092 16.713 26.0905 17.4277 26.5845 18.1424C27.0784 18.8571 27.585 19.5759 28.1339 20.2781C28.6869 20.976 29.278 21.6657 30.0168 22.2717C30.2026 22.4221 30.5446 22.2842 30.7641 21.9749C30.9879 21.6615 31.047 21.3271 30.9034 21.2101C30.2997 20.7127 29.7509 20.0858 29.2316 19.4296C28.7123 18.7693 28.2225 18.0713 27.7328 17.365C27.2431 16.6587 26.7575 15.9398 26.2467 15.2251C25.7316 14.5104 25.1997 13.7999 24.5579 13.127L22.6834 11.2964C22.0586 10.6862 21.4127 10.0718 20.6823 9.5118C19.9561 8.95175 19.1202 8.45439 18.1914 8.16183C17.2668 7.86091 16.2831 7.7815 15.3458 7.85255C14.4086 7.91942 13.5051 8.12004 12.6396 8.37498C12.2174 8.50037 11.7446 8.655 11.3182 8.85562C10.8875 9.05623 10.478 9.29028 10.0896 9.55358C8.54439 10.6068 7.34959 11.9818 6.28146 13.382C5.21332 14.7904 4.27608 16.2616 3.32193 17.6952C2.84486 18.414 2.36779 19.1204 1.86538 19.7974C1.36298 20.4745 0.835248 21.1223 0.256851 21.6698C0.11753 21.8036 0.201963 22.1338 0.451054 22.4263C0.71281 22.7063 1.06323 22.8234 1.2321 22.6604Z" />
<path d="M1.26166 18.5729C2.05115 17.0515 2.84485 15.5469 3.723 14.1008C4.59693 12.6547 5.54686 11.2588 6.6361 10.0008C7.72535 8.74277 8.95813 7.61431 10.3682 6.82439C11.0733 6.43152 11.8206 6.12642 12.5932 5.93835C12.9858 5.84222 13.3615 5.77952 13.7795 5.73773C14.189 5.69594 14.5985 5.66668 15.0081 5.6625C16.6504 5.63743 18.2842 5.93835 19.7999 6.55273C21.3198 7.16293 22.7172 8.07823 23.9542 9.17325C25.1954 10.2724 26.2847 11.5472 27.2346 12.9222C28.1761 14.2973 29.0036 15.7726 29.6326 17.2981C29.7086 17.482 30.0548 17.5238 30.4179 17.3943C30.781 17.2647 31.009 16.9888 30.9287 16.7841C30.249 15.1373 29.3878 13.6035 28.3872 12.1448C27.3824 10.6946 26.2256 9.33207 24.8872 8.1451C23.5489 6.96232 22.0206 5.95507 20.3319 5.27382C18.6473 4.58838 16.8108 4.24985 14.9912 4.2791C14.5352 4.28328 14.0835 4.31254 13.6317 4.3627C13.1884 4.40867 12.7114 4.4839 12.2596 4.59675C11.3519 4.81826 10.4865 5.1735 9.68429 5.62071C8.07998 6.52347 6.73743 7.76478 5.58064 9.1022C3.26283 11.8021 1.60785 14.8991 0.02465 17.9418C-0.0724531 18.1298 0.12597 18.4182 0.467941 18.5938C0.809913 18.7693 1.16455 18.7609 1.26166 18.5729Z" />
<path d="M1.41786 11.3466C1.77249 11.4929 2.11869 11.4803 2.18624 11.3215C3.3557 8.70097 5.20488 6.36465 7.51847 4.65525C8.67526 3.80264 9.94604 3.10468 11.2928 2.64912C11.9641 2.42343 12.6565 2.26042 13.3489 2.17265C13.6951 2.13086 14.0413 2.10996 14.3917 2.10996C14.759 2.10996 15.1263 2.11832 15.4894 2.13504C18.4067 2.2646 21.3029 2.97093 23.7896 4.42539C26.2762 5.8673 28.3112 8.0448 29.5904 10.6026C29.6706 10.7573 30.0126 10.7531 30.3588 10.5901C30.7092 10.4313 30.9245 10.1554 30.8359 9.98406C29.4384 7.19218 27.2135 4.80571 24.4946 3.23005C21.7757 1.63768 18.6431 0.885381 15.5527 0.751638C15.1643 0.73492 14.7801 0.726562 14.3917 0.726562C13.9864 0.726562 13.5811 0.751645 13.18 0.797619C12.3778 0.893747 11.5968 1.08181 10.8411 1.33676C9.33387 1.84665 7.94064 2.61567 6.67831 3.54351C4.16207 5.40755 2.17357 7.92359 0.907013 10.7573C0.835241 10.9412 1.06322 11.2003 1.41786 11.3466Z" />
<path d="M30.211 36.0806C30.1055 36.0806 30.0168 36.1015 29.9366 36.1349C29.9197 36.1182 29.9071 36.1099 29.8944 36.114C29.772 36.16 29.5566 36.1726 29.3329 36.1433C29.1007 36.114 28.8727 36.0555 28.6067 35.9594L26.918 35.3785C25.7907 34.9898 24.6551 34.5969 23.4983 34.2458C22.3415 33.8948 21.1593 33.5855 19.9561 33.3598C18.7529 33.1341 17.5327 32.9878 16.3126 32.9251C15.101 32.8624 13.8555 32.8541 12.6185 33.0087C11.3815 33.155 10.1571 33.4601 8.99613 33.878C7.83511 34.2876 6.74165 34.7933 5.66085 35.2113C4.60961 35.6209 3.55835 35.9301 2.47333 36.0848C2.46067 36.0848 2.448 36.0806 2.43534 36.0806C1.56141 36.0806 1.56141 37.418 2.43534 37.418C2.43956 37.418 2.43955 37.418 2.44378 37.418C2.48177 37.4557 2.52399 37.4724 2.56621 37.4682C3.81167 37.301 5.03179 36.9416 6.16747 36.4986C7.30738 36.0597 8.38396 35.5624 9.46898 35.1778C10.554 34.7892 11.6559 34.5175 12.7916 34.3796C13.923 34.2375 15.0714 34.2416 16.2409 34.3043C18.5671 34.4172 20.8511 34.8727 23.093 35.5665C24.216 35.9093 25.3348 36.2938 26.462 36.6824L28.155 37.2634C28.4505 37.3679 28.8009 37.464 29.1598 37.51C29.5271 37.5518 29.9197 37.5601 30.3672 37.4097C30.3799 37.4055 30.3883 37.3971 30.401 37.3888C31.0765 37.2132 31.0132 36.0806 30.211 36.0806Z" />
<path d="M29.2062 39.7293C27.1417 38.7638 25.0055 37.8903 22.8016 37.2049C20.5978 36.532 18.3096 36.0012 15.92 35.9928C13.6064 35.9928 11.2633 36.2478 9.00457 36.8705C6.74586 37.4891 4.59271 38.4713 2.6422 39.746C2.52399 39.8254 2.59999 40.1431 2.8153 40.4607C3.03062 40.7783 3.29659 40.9748 3.40636 40.8995C5.24287 39.7 7.25671 38.7805 9.37609 38.1996C10.3471 37.9321 11.3393 37.7399 12.3398 37.6061C12.3483 37.6103 12.3567 37.6187 12.3652 37.6187C15.1643 37.7064 17.9254 38.396 20.4501 39.5955C21.7166 40.1932 22.9283 40.9121 24.0978 41.7062C24.6846 42.1032 25.263 42.517 25.8498 42.9391C26.4409 43.3612 27.0193 43.7917 27.7075 44.1888C27.7961 44.2389 28.0114 44.0007 28.193 43.6663C28.3703 43.3278 28.4632 43.0269 28.3998 42.9893C27.8341 42.6674 27.2557 42.2411 26.6731 41.8232C26.0905 41.4011 25.4952 40.9748 24.8872 40.5652C23.6713 39.7418 22.3963 38.9853 21.0538 38.3501C20.6992 38.1787 20.3361 38.0199 19.9688 37.8694C20.7794 38.0533 21.5857 38.2748 22.3837 38.5214C24.5115 39.1818 26.576 40.0302 28.6109 40.9789C28.7376 41.0375 28.974 40.8034 29.1344 40.4565C29.2991 40.1138 29.3329 39.7878 29.2062 39.7293Z" />
<path d="M24.5959 44.264C23.6671 43.6831 22.7299 43.123 21.7462 42.6048L21.3704 42.4125C21.248 42.3498 21.0876 42.2788 20.9651 42.2286L20.2263 41.911L18.736 41.2548C18.2251 41.0374 17.6974 40.8327 17.1655 40.6571C16.6293 40.4816 16.11 40.3269 15.5442 40.189C13.3109 39.6791 11.0057 39.7042 8.78503 40.1681C6.57277 40.6362 4.41961 41.5975 2.68442 43.1063C2.57888 43.1982 2.70554 43.5033 2.96729 43.7834C3.22905 44.0634 3.51613 44.2264 3.60479 44.1428C5.13311 42.8137 7.05829 41.9444 9.07634 41.5139C10.6384 41.1837 12.2681 41.1043 13.8513 41.2966C13.1293 41.3509 12.4074 41.447 11.6981 41.5933C8.64149 42.2161 5.7284 43.729 3.58791 46.0361C3.52036 46.1071 3.70189 46.3704 3.98898 46.6254C4.27607 46.8803 4.55472 47.035 4.61382 46.9723C6.53477 44.8993 9.17767 43.5159 11.9768 42.9475C14.7843 42.3665 17.7481 42.5964 20.4627 43.5242C20.467 43.5242 20.4754 43.5242 20.4838 43.5242C20.5767 43.5618 20.6485 43.5995 20.7456 43.6454L21.0918 43.821C22.0206 44.31 22.941 44.8575 23.8444 45.4217C24.7437 45.9901 25.6472 46.5794 26.462 47.2063C26.5591 47.2816 26.8335 47.106 27.0826 46.8135C27.3317 46.5209 27.4415 46.2074 27.3275 46.1238C26.4324 45.4384 25.5247 44.8491 24.5959 44.264Z" />
<path d="M25.453 47.8333C25.4572 47.7873 25.4488 47.7497 25.4276 47.7371C22.7468 45.9859 19.6563 44.8658 16.4477 44.5649C14.8434 44.4186 13.2011 44.4939 11.6095 44.87C10.1234 45.2211 8.6837 45.8522 7.44247 46.7675C7.34536 46.8051 7.26515 46.8678 7.20604 46.943C7.1976 46.9514 7.18916 46.9556 7.18071 46.9597C7.16805 46.9681 7.16383 46.9848 7.15961 47.0057C6.91474 47.3986 7.09627 48.0548 7.70845 48.0548C7.78866 48.0548 7.86044 48.038 7.92799 48.0172C7.98288 48.0464 8.02931 48.0589 8.05042 48.0422C9.17766 47.1562 10.5202 46.546 11.9388 46.2116C13.3573 45.8731 14.8519 45.802 16.3253 45.9358C19.2468 46.2075 22.1135 47.2356 24.5748 48.8321C24.6846 48.9659 24.8493 49.0578 25.0772 49.0578C25.795 49.062 25.9174 48.1551 25.453 47.8333Z" />
<path d="M20.9567 48.4059C20.9567 48.385 20.9482 48.3682 20.9398 48.3641C19.517 48.0172 18.0605 47.7915 16.5828 47.7204C15.2614 47.6619 13.9188 47.7288 12.5974 48.0088C12.5467 47.9963 12.4918 47.9879 12.4369 47.9879C12.0696 47.9879 11.7614 48.293 11.7614 48.6566V48.7235C11.7614 49.0871 12.0654 49.388 12.4327 49.3922C12.4538 49.4298 12.4707 49.4549 12.4834 49.4507C13.7795 49.1247 15.1516 49.0369 16.5237 49.0996C17.8958 49.1623 19.2679 49.3755 20.6105 49.7015C20.6147 49.7015 20.6189 49.6973 20.6189 49.6973C20.6823 49.714 20.7456 49.7266 20.8216 49.7266C21.6406 49.7307 21.6871 48.5396 20.9567 48.4059Z" />
</svg>
