<svg width="20" height="23" viewBox="0 0 20 23" fill="white" xmlns="http://www.w3.org/2000/svg">
<path d="M0.185547 19.488V22.0757H2.95123M16.4529 22.0757H19.1253V19.488M0.185547 3.82132V0.978027H2.95123M19.1253 3.82132V0.978027H16.4529" stroke="white" stroke-width="0.168367"/>
<path d="M14.8982 12.0971C14.8935 12.0941 14.8888 12.0941 14.8847 12.0929C14.8523 12.0874 14.8199 12.0789 14.7876 12.0649C14.6987 12.0284 14.6134 11.9627 14.5345 11.8861C14.3768 11.7298 14.2433 11.5346 14.115 11.3357C13.859 10.9337 13.6278 10.5074 13.3736 10.092C13.1199 9.67727 12.8475 9.2698 12.5345 8.89275C12.2208 8.51751 11.8625 8.1739 11.4511 7.90388C11.0416 7.63264 10.5797 7.44289 10.1007 7.3541C9.62876 7.26531 9.138 7.22882 8.65254 7.3097C8.4107 7.35045 8.17062 7.42161 7.94583 7.53047C7.72105 7.63811 7.51216 7.78346 7.33092 7.95922C7.14909 8.13376 6.99492 8.33689 6.86841 8.55339C6.74131 8.77051 6.64009 9.00161 6.55948 9.23757C6.55771 9.24487 6.55595 9.25217 6.55477 9.25825C6.55301 9.26981 6.54771 9.28562 6.54183 9.29535C6.53771 9.30082 6.53535 9.30751 6.533 9.31359C6.4771 9.51185 6.41767 9.71984 6.38295 9.93452C6.34764 10.148 6.33352 10.3688 6.34705 10.5865C6.36 10.8048 6.39825 11.0213 6.45886 11.2293C6.52005 11.4379 6.59949 11.6374 6.69717 11.8302C6.89842 12.2236 7.21735 12.5423 7.58865 12.7558C7.95996 12.9692 8.38834 13.0818 8.81848 13.0532C9.03209 13.038 9.24628 12.9875 9.44399 12.8975C9.64347 12.8081 9.8253 12.681 9.97888 12.5259C10.1348 12.3702 10.2619 12.1902 10.3649 11.9974C10.4155 11.9007 10.4614 11.804 10.5002 11.6982C10.5379 11.593 10.5673 11.4829 10.5832 11.3722C10.6179 11.149 10.6056 10.9167 10.5444 10.6984C10.5138 10.5895 10.4714 10.4837 10.4179 10.3852C10.3643 10.286 10.3013 10.1942 10.2301 10.1079C10.1589 10.0215 10.076 9.94182 9.98241 9.87614C9.88885 9.81046 9.78234 9.75816 9.66524 9.73262C9.60581 9.71984 9.5452 9.71376 9.48165 9.71802C9.41869 9.72228 9.35337 9.73566 9.28747 9.77093C9.25451 9.78978 9.22215 9.81289 9.19096 9.85181C9.15919 9.89195 9.13977 9.94243 9.138 9.99473C9.13683 10.0203 9.14036 10.047 9.14801 10.0714C9.15448 10.0963 9.16684 10.1212 9.17743 10.1395C9.18626 10.1541 9.19626 10.1681 9.20685 10.1802C9.21744 10.193 9.23039 10.2076 9.23451 10.2118C9.23921 10.2161 9.24569 10.2198 9.24863 10.2222C9.24981 10.224 9.25157 10.2252 9.25334 10.2264C9.26393 10.2356 9.27511 10.2416 9.28688 10.2447C9.30335 10.2496 9.32983 10.2538 9.34455 10.2629C9.41633 10.3055 9.48342 10.3688 9.53991 10.4411C9.62287 10.5469 9.68525 10.6734 9.72879 10.806C9.81471 11.0712 9.82177 11.368 9.72762 11.6228C9.68054 11.7493 9.60816 11.8654 9.5146 11.9609C9.42222 12.0582 9.30865 12.1342 9.18449 12.192C9.06033 12.2486 8.92617 12.2875 8.78788 12.3124C8.75199 12.3179 8.72198 12.3234 8.68903 12.3264C8.65608 12.3276 8.62312 12.3289 8.59017 12.3276C8.52427 12.3264 8.45718 12.3173 8.39069 12.3045C8.12589 12.2474 7.87404 12.1044 7.6675 11.9147C7.46096 11.7237 7.29738 11.4823 7.19676 11.2147C7.09496 10.9477 7.05671 10.6564 7.07495 10.3675C7.09378 10.078 7.16792 9.79161 7.27796 9.51976C7.27914 9.51672 7.28031 9.51368 7.28031 9.51003C7.2809 9.50456 7.28384 9.49604 7.28796 9.48996C7.28973 9.48631 7.29208 9.48266 7.29326 9.4784C7.45979 9.08188 7.75695 8.74496 8.10942 8.50231C8.46189 8.25843 8.87497 8.10822 9.29806 8.07112C9.72114 8.03341 10.1513 8.11187 10.545 8.28398C10.9386 8.45548 11.2958 8.71638 11.6088 9.02532C11.9219 9.33427 12.1926 9.69065 12.4303 10.0695C12.4903 10.1644 12.5474 10.2605 12.6009 10.3578C12.6551 10.4551 12.7075 10.5561 12.7604 10.657C12.8652 10.8583 12.9693 11.0633 13.0817 11.264C13.1923 11.4659 13.3106 11.6647 13.4424 11.8575C13.5742 12.0491 13.7178 12.2346 13.8867 12.4012C14.0532 12.5672 14.2462 12.715 14.4698 12.8129C14.5816 12.8598 14.7005 12.8944 14.8217 12.9115C14.8488 12.9151 14.877 12.9169 14.9047 12.9194C14.9106 12.92 14.9176 12.9176 14.9217 12.9151C14.93 12.9078 14.9412 12.8963 14.9488 12.892C14.9529 12.8884 14.9582 12.8841 14.9623 12.8811C14.9841 12.8567 15 12.8294 15 12.7941C15 12.7643 14.9941 12.7381 14.9823 12.712C14.9753 12.6968 14.9641 12.6871 14.9517 12.681C14.9294 12.6706 14.907 12.6719 14.9053 12.6712C14.9041 12.6706 14.9029 12.6706 14.9017 12.6706C14.7858 12.6603 14.6717 12.6317 14.5622 12.5837C14.3739 12.504 14.2038 12.3732 14.0509 12.2224C13.8984 12.0704 13.7619 11.8964 13.6372 11.7146C13.5118 11.5309 13.3965 11.3382 13.2871 11.1411C13.1788 10.9447 13.0746 10.7428 12.9699 10.5403C12.9175 10.4387 12.8646 10.3365 12.8081 10.2356C12.7516 10.1328 12.6916 10.0337 12.631 9.93574C12.3844 9.54348 12.1037 9.1725 11.7724 8.84713C11.4435 8.52177 11.0628 8.24262 10.6367 8.05713C10.2125 7.87104 9.74056 7.78407 9.27746 7.82603C8.81378 7.86556 8.36245 8.03037 7.97584 8.29736C7.78284 8.43054 7.60513 8.58867 7.45214 8.7705C7.29855 8.95234 7.16851 9.15669 7.07377 9.3811C7.07201 9.38596 7.07083 9.39083 7.06965 9.39509C7.06789 9.40299 7.06495 9.41272 7.062 9.41698C7.06024 9.41941 7.05847 9.42184 7.05671 9.42489C6.93843 9.71619 6.85664 10.0294 6.83604 10.3511C6.81486 10.6722 6.85782 11.0018 6.97256 11.3047C7.08731 11.6076 7.27149 11.8825 7.50686 12.0984C7.74165 12.3149 8.02586 12.4778 8.34067 12.5466C8.42011 12.5624 8.50073 12.5727 8.58193 12.5752C8.62312 12.5764 8.66431 12.5752 8.7055 12.5715C8.74611 12.5697 8.78965 12.5624 8.82672 12.5563C8.97971 12.5277 9.13389 12.4845 9.28041 12.417C9.42575 12.3495 9.5658 12.2577 9.68172 12.1379C9.79823 12.0169 9.89061 11.8715 9.94887 11.7122C10.0083 11.5528 10.0336 11.3844 10.0324 11.2177C10.0312 11.0511 10.0042 10.8863 9.95416 10.7288C9.90179 10.5713 9.82765 10.4211 9.72526 10.2879C9.67407 10.2216 9.61405 10.1595 9.5452 10.1066C9.50283 10.0738 9.45635 10.0434 9.40574 10.0203C9.39044 10.0124 9.38162 10.002 9.3875 9.99777C9.39044 9.99473 9.39456 9.99291 9.39927 9.98987C9.42281 9.97649 9.4587 9.96736 9.49577 9.96493C9.53343 9.9625 9.57345 9.96615 9.61346 9.97588C9.69466 9.99291 9.7741 10.0318 9.84825 10.0823C9.9218 10.134 9.9877 10.1985 10.0483 10.2708C10.1695 10.4162 10.2625 10.5871 10.3131 10.7695C10.3643 10.952 10.3749 11.1466 10.3461 11.3357C10.3314 11.4306 10.3084 11.5236 10.2754 11.6137C10.2431 11.7024 10.1995 11.7949 10.1536 11.8812C10.0618 12.0546 9.94769 12.2151 9.81235 12.3507C9.67642 12.4851 9.51931 12.5952 9.3469 12.6731C9.17508 12.7509 8.98972 12.7959 8.80083 12.8093C8.0441 12.861 7.26207 12.4116 6.90666 11.7183C6.72777 11.3619 6.60597 10.9714 6.58419 10.5743C6.57242 10.376 6.58419 10.1766 6.61715 9.97892C6.64951 9.78127 6.70423 9.58787 6.7619 9.38536C6.76308 9.38049 6.76367 9.37623 6.76425 9.37137C6.76484 9.36285 6.77014 9.35008 6.77602 9.34096C6.77897 9.33549 6.7825 9.3294 6.78426 9.32272C6.86076 9.10013 6.9555 8.88362 7.0726 8.68415C7.18911 8.48406 7.32974 8.29979 7.49333 8.14228C7.65691 7.98476 7.84403 7.85462 8.04646 7.7567C8.24947 7.65879 8.46719 7.59371 8.69079 7.55662C9.138 7.4812 9.60287 7.51405 10.0571 7.6004C10.5073 7.68372 10.9374 7.8607 11.3229 8.11552C11.7095 8.36912 12.0513 8.6957 12.3526 9.05756C12.6557 9.42002 12.9222 9.81715 13.1706 10.227C13.2965 10.432 13.4165 10.6394 13.5389 10.8486C13.6613 11.0572 13.7825 11.267 13.9149 11.4744C13.9814 11.5766 14.0503 11.6793 14.1244 11.7797C14.1986 11.8794 14.2774 11.9773 14.3704 12.068C14.4622 12.158 14.5675 12.2425 14.6993 12.2966C14.7364 12.3118 14.774 12.324 14.8141 12.3319C14.847 12.3398 14.8841 12.3453 14.8953 12.3465C14.907 12.3477 14.9164 12.3453 14.917 12.3453C14.9176 12.3453 14.9359 12.3416 14.9523 12.3282C14.9676 12.3136 14.9759 12.2911 14.9794 12.2851C14.9812 12.2814 14.9829 12.2772 14.9841 12.2741C14.9859 12.2632 14.9882 12.2528 14.9888 12.2419C14.99 12.2249 14.9876 12.1908 14.9806 12.1683C14.9753 12.1549 14.9688 12.1434 14.957 12.133C14.95 12.1269 14.9429 12.1209 14.9341 12.1178C14.9212 12.1081 14.9041 12.102 14.8982 12.0971Z" />
<path d="M4.22163 12.2607C4.23398 12.2565 4.22574 12.2595 4.22692 12.2583C4.3146 12.2157 4.38874 12.1604 4.45759 12.105C4.52702 12.0485 4.58999 11.9871 4.65059 11.9244C4.77064 11.7985 4.88008 11.6647 4.98306 11.5273C5.18842 11.2524 5.37025 10.9635 5.5356 10.6637C5.69978 10.3633 5.84924 10.0531 5.96693 9.72532C5.99576 9.64382 6.02341 9.55868 6.04695 9.47597C6.06931 9.39691 6.0952 9.31785 6.12168 9.24001C6.17523 9.08371 6.23584 8.93045 6.30528 8.78145C6.44238 8.48224 6.61185 8.20005 6.8131 7.94523C7.01493 7.69102 7.24913 7.46479 7.51098 7.28173C7.77283 7.09806 8.06234 6.95636 8.36598 6.86575C8.66961 6.77574 8.98736 6.73499 9.30453 6.7429C9.62288 6.7502 9.93887 6.80493 10.246 6.89798C10.552 6.98981 10.8486 7.11996 11.1322 7.27626C11.4164 7.43316 11.6859 7.61804 11.9419 7.82117C12.0696 7.92334 12.1938 8.03037 12.315 8.14106C12.4362 8.24931 12.5456 8.36608 12.6504 8.49197C12.8593 8.74192 13.047 9.0162 13.2247 9.29778C13.4036 9.57997 13.5713 9.86945 13.7402 10.1614C13.9108 10.4527 14.0785 10.7464 14.2662 11.0323C14.3621 11.1746 14.4604 11.3163 14.5781 11.4495C14.6381 11.5157 14.7017 11.5802 14.7764 11.638C14.7876 11.6459 14.7988 11.6532 14.8105 11.6611C14.8288 11.6745 14.8576 11.7 14.88 11.7049C14.8923 11.7085 14.9064 11.7085 14.9212 11.7049C14.9406 11.6994 14.9541 11.6878 14.9641 11.6714C14.9818 11.6465 14.9776 11.6167 14.9776 11.6161C14.9776 11.6149 14.9782 11.6137 14.9782 11.6118V11.6045C14.9782 11.5966 14.9771 11.5912 14.9753 11.5839C14.9735 11.5735 14.9676 11.5589 14.9653 11.5492C14.9641 11.5425 14.9629 11.5376 14.9606 11.5316C14.9565 11.5243 14.9535 11.5163 14.95 11.5097C14.9494 11.5084 14.9488 11.5072 14.9482 11.506C14.9453 11.5018 14.9435 11.4957 14.94 11.492C14.9347 11.4829 14.9253 11.4665 14.9182 11.4549C14.9106 11.4434 14.9 11.4324 14.8953 11.4294C14.8906 11.4257 14.8858 11.4221 14.8841 11.4197C14.8823 11.4178 14.8847 11.4209 14.88 11.4154C14.877 11.4099 14.8682 11.3929 14.8576 11.3813C14.847 11.3698 14.8164 11.3473 14.7946 11.3242C14.7823 11.3102 14.7693 11.2962 14.7558 11.2816C14.6516 11.1636 14.5563 11.0298 14.4651 10.8924C14.2833 10.6169 14.1156 10.325 13.9461 10.0343C13.7772 9.74234 13.6078 9.44982 13.4265 9.16277C13.2447 8.87511 13.0517 8.59292 12.831 8.32959C12.721 8.19762 12.6004 8.0699 12.4733 7.95557C12.3491 7.84124 12.2202 7.73116 12.0872 7.62595C11.8224 7.41492 11.5418 7.22274 11.2464 7.05914C10.9492 6.89494 10.6373 6.75871 10.3125 6.66019C9.98947 6.56288 9.65112 6.50389 9.311 6.49599C8.97089 6.48747 8.62842 6.53065 8.30066 6.62856C7.97231 6.72587 7.66044 6.87852 7.37799 7.07678C7.09613 7.27504 6.84369 7.51709 6.62892 7.78833C6.41414 8.05957 6.23525 8.35939 6.08991 8.67442C6.01694 8.83132 5.9528 8.99248 5.89749 9.1573C5.86924 9.2394 5.84335 9.3215 5.81864 9.40482C5.79628 9.4857 5.77098 9.56172 5.74332 9.63957C5.63211 9.94912 5.48794 10.2502 5.32906 10.5409C5.16842 10.831 4.9913 11.1131 4.79535 11.3759C4.69649 11.5066 4.59293 11.6343 4.4823 11.7487C4.42699 11.8064 4.36932 11.8612 4.30989 11.911C4.27282 11.9408 4.23516 11.97 4.19691 11.9931C4.19573 11.9944 4.19456 11.9956 4.19279 11.9968C4.19044 11.9992 4.18808 12.0011 4.18691 12.0017C4.18632 12.0017 4.18573 12.0011 4.18514 12.0017C4.12395 12.0564 4.04215 12.1111 4.05333 12.2309C4.05451 12.2437 4.06216 12.2547 4.06981 12.2656C4.08687 12.2942 4.12983 12.2881 4.22163 12.2607Z" />
<path d="M4.35873 10.2836C4.36108 10.2812 4.39168 10.2757 4.41463 10.2489C4.42993 10.2319 4.74004 9.1652 4.87832 8.85869C5.15783 8.23958 5.5003 7.64906 5.91926 7.12665C6.12933 6.86575 6.35941 6.62248 6.61244 6.40902C6.86429 6.19495 7.13909 6.01128 7.43331 5.87505C7.57983 5.80694 7.73223 5.75038 7.88699 5.70903C7.96525 5.68835 8.04293 5.67071 8.12178 5.65733C8.2018 5.64456 8.28418 5.63179 8.36598 5.62145C8.69315 5.57827 9.02267 5.55638 9.35161 5.56124C10.0083 5.56976 10.6632 5.69017 11.2705 5.94195C11.8795 6.19191 12.4344 6.57079 12.9146 7.03299C13.3965 7.4958 13.8078 8.03646 14.1632 8.61299C14.2709 8.78753 14.3739 8.96633 14.4716 9.14878C14.4892 9.17919 14.5039 9.2102 14.5069 9.21872C14.5087 9.22358 14.5104 9.22845 14.5122 9.23271C14.514 9.24244 14.5181 9.25034 14.5234 9.25764C14.531 9.27041 14.5434 9.28014 14.5457 9.28379C14.5457 9.28623 14.5569 9.28744 14.5569 9.28683C14.5569 9.28623 14.5863 9.29717 14.6169 9.28197C14.6187 9.28197 14.6205 9.28075 14.621 9.28014C14.6516 9.26372 14.6752 9.20716 14.6769 9.17189C14.6852 9.03749 14.5451 8.79362 14.461 8.65617C14.4463 8.62759 14.428 8.599 14.4092 8.57164C14.4086 8.57103 13.7984 7.52864 13.0776 6.85237C12.5727 6.37861 11.9984 5.97418 11.3599 5.71268C10.7227 5.44934 10.0371 5.32284 9.35573 5.31433C9.01502 5.30946 8.67432 5.33197 8.33714 5.37636C8.25182 5.38731 8.16944 5.40008 8.08412 5.41346C7.99821 5.42806 7.91229 5.44752 7.82756 5.47002C7.65927 5.51563 7.4945 5.57645 7.33621 5.65003C7.01905 5.7966 6.7266 5.99304 6.4618 6.21806C6.19583 6.44368 5.95574 6.6979 5.73743 6.96853C5.30082 7.51161 4.94952 8.11977 4.66295 8.75409C4.64412 8.79544 4.66236 8.75409 4.64412 8.79544C4.63706 8.81125 4.64118 8.79422 4.63706 8.81125C4.63706 8.81186 4.64118 8.79422 4.5894 8.94018C4.5894 8.9414 4.58822 8.94322 4.58763 8.94626C4.58763 8.94809 4.63765 8.80943 4.63706 8.81125C4.57233 9.00647 4.50819 9.15729 4.47759 9.26251C4.4417 9.38718 4.39992 9.55321 4.36991 9.6791C4.32872 9.85303 4.25399 10.0422 4.28518 10.2216C4.28871 10.2423 4.29753 10.2575 4.30989 10.2666C4.33166 10.2836 4.35638 10.286 4.35873 10.2836Z" />
<path d="M5.7239 5.36724C5.90573 5.21338 6.09756 5.07228 6.2988 4.94578C6.77544 4.64535 7.29973 4.42702 7.84345 4.28897C8.38775 4.15031 8.95029 4.0901 9.51343 4.09254C9.65406 4.09314 9.79588 4.0974 9.93533 4.10592C10.0742 4.11382 10.2131 4.12842 10.3508 4.14909C10.6262 4.18984 10.8998 4.25552 11.1663 4.34127C11.7001 4.51399 12.209 4.76942 12.6804 5.08445C12.8369 5.18905 12.9887 5.30034 13.1376 5.41833C13.1641 5.43961 13.3053 5.58679 13.3247 5.61172C13.3736 5.67558 13.4907 5.61233 13.4689 5.53935C13.4171 5.36724 13.2247 5.19574 13.0952 5.07897C13.0929 5.07654 13.0893 5.0735 13.0852 5.07167C13.0799 5.06742 13.0729 5.06377 13.0705 5.06194C13.0688 5.06073 13.067 5.05951 13.0652 5.05769C12.9817 4.99565 12.8963 4.93545 12.8098 4.87767C12.3214 4.55109 11.7936 4.28593 11.237 4.10592C10.9586 4.01591 10.6744 3.94719 10.3849 3.90461C10.2396 3.88272 10.0948 3.86752 9.94769 3.859C9.80294 3.8511 9.65818 3.84623 9.51343 3.84562C8.93382 3.8438 8.35185 3.90522 7.78637 4.04936C7.22088 4.19288 6.67305 4.42094 6.17464 4.73536C6.07814 4.79618 5.98399 4.86064 5.89161 4.92754C5.88631 4.93119 5.88101 4.93605 5.87572 4.94214C5.86689 4.95065 5.6986 5.0735 5.67388 5.09843C5.65094 5.12094 5.35025 5.43353 5.62387 5.43596C5.65623 5.43596 5.69742 5.38974 5.7239 5.36724Z" />
<path d="M14.8917 13.8857C14.8911 13.8857 14.8905 13.8851 14.8905 13.8851C14.8882 13.8851 14.8847 13.8857 14.8811 13.8857C14.8788 13.8857 14.8758 13.8857 14.8735 13.8863C14.7582 13.9058 14.6428 13.918 14.5298 13.9149C14.4174 13.9107 14.3092 13.8912 14.2197 13.8462C14.1974 13.8353 14.1762 13.8219 14.1568 13.8073C14.1468 13.8006 14.1374 13.7933 14.1273 13.7848L14.115 13.7726C14.1097 13.769 14.1068 13.7665 14.0968 13.7562C14.0756 13.7331 14.0567 13.7069 14.0391 13.6765C14.0203 13.6461 14.0014 13.6078 13.9814 13.5908C13.962 13.5713 13.9438 13.564 13.9296 13.5598C13.9149 13.5555 13.9043 13.5543 13.8937 13.5543C13.8884 13.5543 13.8843 13.5543 13.8726 13.5567C13.862 13.5592 13.8578 13.5598 13.8508 13.5622C13.8384 13.5683 13.8272 13.5725 13.8149 13.5847C13.8072 13.592 13.7996 13.5999 13.7931 13.6109C13.7831 13.6261 13.7731 13.6486 13.7696 13.6595C13.7666 13.6668 13.7637 13.6735 13.7613 13.682L13.7502 13.7301C13.7349 13.7921 13.7072 13.8669 13.7019 13.8815C13.6919 13.9095 13.6807 13.9368 13.669 13.9642C13.5754 14.1819 13.4406 14.3875 13.2906 14.579C13.1394 14.77 12.9711 14.9482 12.7928 15.1142C12.4332 15.4475 12.036 15.7406 11.6141 15.9839C11.5088 16.0453 11.4017 16.1025 11.2929 16.1554C11.184 16.2083 11.0745 16.2557 10.961 16.3014C10.735 16.392 10.5049 16.4698 10.2713 16.5355C9.33631 16.7988 8.35244 16.8645 7.38447 16.7739C6.90018 16.7283 6.41884 16.6456 5.94692 16.5252C5.71096 16.4643 5.47793 16.3938 5.24786 16.3141C5.01778 16.2338 4.79123 16.1432 4.57586 16.0368C4.52349 16.0107 4.45759 16.0368 4.4264 16.097C4.3958 16.1578 4.41522 16.2308 4.4723 16.2594C4.70061 16.3719 4.93481 16.4656 5.17136 16.5483C5.40791 16.631 5.6474 16.7033 5.88984 16.7648C6.37412 16.8888 6.86664 16.974 7.36328 17.0208C8.35539 17.1139 9.36808 17.047 10.3343 16.7733C10.5761 16.7052 10.815 16.6255 11.0481 16.5312C11.164 16.4844 11.2811 16.4351 11.3964 16.3792C11.51 16.3239 11.6224 16.2636 11.7307 16.201C12.1702 15.948 12.5798 15.6464 12.9534 15.2985C13.1388 15.1252 13.3165 14.9373 13.4771 14.7353C13.6366 14.5316 13.7831 14.3121 13.889 14.0639C13.9014 14.0335 13.9137 14.0025 13.9261 13.9703C13.9261 13.9703 13.929 13.9624 13.9326 13.9545C13.9343 13.9459 13.9414 13.9423 13.9449 13.9472C13.9496 13.9502 13.9544 13.9545 13.9544 13.9545C13.9608 13.9605 13.9673 13.9678 13.9755 13.9733C13.9891 13.9861 14.005 13.9983 14.0197 14.0092C14.0514 14.0311 14.0832 14.0499 14.1162 14.0676C14.2486 14.1333 14.3886 14.1558 14.5222 14.1594C14.6381 14.1637 14.7505 14.1539 14.8617 14.1363C14.8682 14.1363 14.8753 14.1327 14.88 14.1272C14.89 14.1199 14.8994 14.1077 14.9064 14.1029C14.9111 14.0998 14.9147 14.0962 14.9188 14.0913C14.957 14.0499 14.9735 13.9995 14.9618 13.9423C14.9576 13.9253 14.9488 13.9131 14.937 13.9022C14.9159 13.8876 14.8923 13.8857 14.8917 13.8857Z" />
<path d="M9.08916 15.8629C9.50342 15.8148 9.91415 15.7345 10.3172 15.6153C10.7197 15.4974 11.1128 15.3405 11.4829 15.1331C11.8525 14.9257 12.2026 14.6642 12.4856 14.3309C12.6274 14.1643 12.751 13.98 12.8475 13.7781C12.944 13.5768 13.0099 13.3591 13.0411 13.1353C13.0487 13.0799 12.9981 13.0295 12.9334 13.0252C12.8675 13.0185 12.8104 13.0532 12.8045 13.1012C12.7775 13.2977 12.7186 13.4898 12.6327 13.6698C12.5474 13.8493 12.4368 14.0159 12.3067 14.1685C12.0466 14.4726 11.7195 14.7183 11.3688 14.9154C11.0175 15.1142 10.6397 15.2638 10.2513 15.3788C9.86296 15.4925 9.46459 15.571 9.0621 15.6178C8.2577 15.712 7.43919 15.6829 6.6401 15.5454C5.841 15.4055 5.05897 15.1544 4.33107 14.7895C4.28635 14.767 4.22692 14.798 4.1975 14.8594C4.16749 14.9196 4.18102 14.9883 4.22633 15.0114C4.97718 15.3873 5.7798 15.6464 6.60067 15.7887C7.42154 15.9298 8.26182 15.959 9.08916 15.8629Z" />
<path d="M14.7028 15.4092C14.7005 15.4092 14.6981 15.4092 14.6958 15.4098C14.644 15.4177 14.5928 15.4293 14.5428 15.4438C14.4233 15.4767 14.3092 15.5241 14.2015 15.5782C13.9861 15.6877 13.7925 15.8239 13.6054 15.959C13.4165 16.0958 13.2341 16.2363 13.0493 16.3701C12.8634 16.5033 12.6757 16.6322 12.4838 16.7532C12.292 16.8742 12.0955 16.9874 11.8954 17.092C11.7942 17.1443 11.6948 17.1941 11.5924 17.2391C11.4912 17.2847 11.3864 17.3267 11.2817 17.3662C10.8615 17.5213 10.4226 17.6247 9.9777 17.6916C9.53343 17.7597 9.08269 17.792 8.63136 17.8011C8.18003 17.8084 7.72752 17.7913 7.27678 17.7542C6.82604 17.7165 6.37589 17.66 5.92926 17.5846C5.70625 17.5469 5.48382 17.5037 5.26316 17.4563C5.15312 17.4319 5.04308 17.4052 4.93422 17.3784C4.84654 17.3559 4.75828 17.3316 4.67354 17.3042C4.67296 17.3042 4.67237 17.3042 4.67119 17.3036C4.6706 17.3036 4.66884 17.303 4.66766 17.3024C4.66707 17.3024 4.66648 17.3024 4.66589 17.3024C4.64059 17.2902 4.61352 17.2866 4.58822 17.3024C4.55998 17.3188 4.54115 17.3583 4.55291 17.3918C4.57174 17.4447 4.60117 17.48 4.64412 17.5128C4.65942 17.525 4.67649 17.5341 4.69414 17.5426C4.70355 17.5469 4.71356 17.5517 4.72356 17.5566C4.72768 17.5578 4.7318 17.559 4.73592 17.5615C4.74298 17.5651 4.75592 17.5754 4.76593 17.5827C4.77299 17.5888 4.77946 17.5913 4.78594 17.5931C4.81595 17.6022 4.84596 17.6101 4.87538 17.6168C4.98836 17.646 5.10075 17.6721 5.21314 17.6971C5.43792 17.7463 5.66388 17.7901 5.89043 17.8278C6.34294 17.9045 6.79897 17.9616 7.25678 17.9999C7.71458 18.0364 8.17415 18.0553 8.6343 18.0462C9.09387 18.0383 9.55521 18.0054 10.0112 17.9355C10.469 17.8668 10.9221 17.7597 11.3617 17.598C11.3658 17.5961 11.3711 17.5937 11.3752 17.5913C11.3841 17.5894 11.3776 17.5919 11.3629 17.6004C11.2493 17.6545 11.1357 17.7056 11.0198 17.7542C10.8245 17.8351 10.6262 17.9032 10.4214 17.9616C10.2178 18.0206 10.0107 18.0687 9.80294 18.1112C8.96853 18.2742 8.1106 18.3095 7.26031 18.2621C6.83428 18.2377 6.40943 18.1927 5.98752 18.1271C5.77686 18.0942 5.56679 18.0571 5.35789 18.0127C5.24197 17.9896 5.12605 17.9628 5.01131 17.9349C4.97777 17.9257 4.92304 17.9026 4.89185 17.9178C4.85302 17.9367 4.82654 17.9902 4.85302 18.0334C4.86184 18.0456 4.87126 18.0571 4.88185 18.0681C4.90009 18.0857 4.92422 18.1039 4.93363 18.1131C4.93893 18.1198 4.94481 18.1246 4.95011 18.1301C4.96423 18.1423 4.97835 18.1538 4.99365 18.1629C5.01954 18.1787 5.04955 18.1903 5.05779 18.1958C5.06368 18.2 5.06956 18.2012 5.07486 18.2025C5.15312 18.2219 5.23079 18.2383 5.30964 18.256C5.52266 18.3004 5.73685 18.3381 5.95104 18.3715C6.38001 18.4378 6.81251 18.484 7.24618 18.509C8.11295 18.5564 8.98795 18.5217 9.84707 18.3533C10.0613 18.3113 10.2743 18.2596 10.4843 18.2C10.6956 18.1398 10.9057 18.0674 11.1081 17.9823C11.5153 17.8138 11.9013 17.6028 12.2785 17.3857C12.6563 17.1686 13.0258 16.9417 13.4071 16.7599C13.5978 16.6699 13.7931 16.5921 13.992 16.5458C14.1385 16.5118 14.2874 16.4947 14.4339 16.5039C14.4375 16.5045 14.4428 16.5033 14.4463 16.5014C14.4545 16.5002 14.4881 16.4935 14.5151 16.4753C14.5322 16.4649 14.5451 16.4497 14.5569 16.4321C14.5746 16.4053 14.5857 16.3585 14.5734 16.3287C14.564 16.3087 14.5563 16.2922 14.5375 16.2807C14.5345 16.2789 14.5322 16.2789 14.5298 16.2776C14.5245 16.2752 14.5187 16.2685 14.5122 16.2661C14.5098 16.2636 14.5057 16.2624 14.501 16.2618C14.3109 16.243 14.1197 16.2618 13.9391 16.3044C13.7166 16.3567 13.5089 16.4412 13.3077 16.5343C13.2312 16.572 13.1541 16.6109 13.0782 16.6498C13.0623 16.6571 13.0611 16.6565 13.0758 16.6456C13.1123 16.6212 13.1476 16.5951 13.1835 16.5683C13.3712 16.4339 13.5554 16.2928 13.7402 16.1578C13.9249 16.024 14.1109 15.8951 14.3051 15.7972C14.4145 15.7406 14.5287 15.6968 14.644 15.6683C14.6493 15.6677 14.6528 15.6664 14.6575 15.6634C14.6634 15.6585 14.6758 15.6524 14.6846 15.6494C14.6905 15.6476 14.6952 15.6458 14.7011 15.6433C14.7817 15.5935 14.7817 15.4992 14.7817 15.4889C14.7817 15.4688 14.7735 15.4469 14.7587 15.4329C14.7387 15.4086 14.7064 15.4092 14.7028 15.4092Z" />
<path d="M13.2306 18.6142C13.0411 18.6081 12.9222 18.6245 12.7386 18.6507C12.3709 18.7042 12.019 18.8027 11.6695 18.9C11.3217 18.9979 10.9763 19.0977 10.6273 19.1828C10.2796 19.2686 9.92945 19.3428 9.57757 19.3975C9.07622 19.4766 8.56958 19.5161 8.06293 19.521C7.99703 19.5149 7.81932 19.5203 7.80226 19.5197C7.6828 19.5179 7.56335 19.5143 7.44449 19.5094C6.90077 19.4832 6.35941 19.4176 5.82217 19.3227C5.78863 19.316 5.74979 19.3051 5.73508 19.302C5.72626 19.3002 5.71684 19.299 5.70743 19.299C5.68506 19.2996 5.668 19.3069 5.65682 19.3197C5.63564 19.3428 5.63034 19.3884 5.63269 19.4072C5.63387 19.4182 5.63681 19.4297 5.64387 19.4407C5.70801 19.5544 5.85395 19.586 5.97575 19.5879C5.97634 19.5879 5.97634 19.5879 5.97693 19.5879C5.97752 19.5879 5.98634 19.5933 5.99811 19.5988C6.00635 19.6012 6.01341 19.6037 6.02047 19.6049C6.48887 19.6797 6.9602 19.7332 7.43448 19.7557C7.64338 19.7654 7.85286 19.7685 8.06176 19.7673C9.00384 19.8433 9.94769 19.8056 10.8821 19.7283C11.387 19.6882 11.8884 19.6341 12.3868 19.597C12.4397 19.5927 12.4397 19.5921 12.4909 19.5897C12.4962 19.5897 12.555 19.5848 12.5609 19.5818C12.5709 19.5781 12.5798 19.5739 12.5821 19.5745C12.5833 19.5745 12.5845 19.5751 12.5862 19.5751C12.5927 19.5757 12.6009 19.5751 12.6074 19.5745C12.6192 19.5733 12.6557 19.5708 12.6892 19.5635C12.7628 19.5465 12.8246 19.5045 12.8381 19.4188C12.8416 19.3993 12.8381 19.3817 12.831 19.3677C12.8175 19.3428 12.7934 19.33 12.7881 19.3282C12.7834 19.3263 12.771 19.3233 12.7581 19.3233C12.7457 19.3233 12.7298 19.3263 12.7233 19.3276C12.7169 19.3288 12.6839 19.3324 12.6498 19.3342C12.5568 19.3385 12.4627 19.3446 12.3709 19.3507C11.8648 19.389 11.3652 19.4425 10.8633 19.4826C10.6597 19.5003 10.4555 19.5143 10.2513 19.5264C10.2348 19.5276 10.2348 19.5252 10.2507 19.5228C10.3961 19.4905 10.5397 19.4577 10.6838 19.423C11.0369 19.3342 11.3864 19.2345 11.7324 19.1366C12.0796 19.0405 12.4256 18.9462 12.7728 18.8945C12.8946 18.8769 13.0187 18.8654 13.14 18.8617C13.1435 18.8617 13.1464 18.8611 13.1488 18.8605C13.1541 18.8593 13.1864 18.866 13.2188 18.855C13.2376 18.8477 13.2847 18.8453 13.3047 18.8349C13.403 18.7906 13.3671 18.7066 13.3659 18.6902C13.3647 18.6756 13.3612 18.6622 13.3536 18.6519C13.3412 18.6343 13.2353 18.6142 13.2306 18.6142Z" />
<path d="M4.08158 14.0226C4.09099 14.0262 4.101 14.0287 4.11218 14.0287C4.11218 14.0287 4.11394 14.0287 4.11571 14.0287C4.11806 14.0287 4.12218 14.0311 4.1263 14.0329C4.12924 14.0341 4.13101 14.0347 4.13454 14.0347C4.51467 14.0603 4.88891 14.1211 5.25139 14.2354C5.44204 14.2932 5.62975 14.3644 5.81923 14.4373C5.91455 14.4738 6.00929 14.5128 6.10697 14.5486C6.20406 14.5833 6.30174 14.618 6.39943 14.6496C6.7925 14.7791 7.20205 14.8722 7.6169 14.9075C7.82344 14.9257 8.03116 14.9312 8.23652 14.9293C8.44247 14.9275 8.64843 14.919 8.85438 14.902C9.2657 14.8661 9.67701 14.7937 10.076 14.6678C10.4738 14.5407 10.8604 14.3577 11.2005 14.0992C11.5412 13.842 11.8319 13.5087 12.036 13.1249C12.2408 12.74 12.3638 12.3124 12.3915 11.8733C12.3956 11.8192 12.3426 11.7742 12.2767 11.7724C12.2102 11.7718 12.1561 11.8095 12.1526 11.8581C12.1273 12.2577 12.0137 12.6536 11.8272 13.0045C11.6394 13.3573 11.3741 13.6613 11.0587 13.8997C10.7433 14.1375 10.382 14.3115 10.0042 14.4313C9.62582 14.5511 9.23157 14.6204 8.83378 14.6551C8.63489 14.6715 8.43482 14.6812 8.23476 14.6818C8.0341 14.6836 7.83462 14.6794 7.63691 14.6611C7.24206 14.6271 6.85252 14.5389 6.4718 14.4148C6.37648 14.3826 6.28174 14.3492 6.18759 14.3145C6.09344 14.281 5.99929 14.2433 5.90396 14.2056C5.71272 14.1327 5.51913 14.0591 5.32023 13.9976C5.12134 13.9368 4.91716 13.887 4.71238 13.8529C4.51996 13.8207 4.32637 13.8 4.13336 13.7866C4.12748 13.786 4.12277 13.7866 4.11865 13.7878C4.11041 13.7903 4.10217 13.7957 4.09805 13.7963C4.09393 13.7976 4.06098 13.8024 4.03509 13.8255C4.01214 13.8456 3.99743 13.8748 4.00037 13.9076C4.00273 13.9374 4.01332 13.9685 4.03627 13.9885C4.0398 13.9916 4.04333 13.9928 4.04627 13.9958C4.05039 14.0007 4.0651 14.0153 4.08158 14.0226Z" />
<path d="M4.22398 11.6854C4.23398 11.6726 4.24045 11.6599 4.24222 11.658C4.24281 11.6568 4.2434 11.655 4.24457 11.6538C4.4417 11.3734 4.62 11.076 4.77417 10.7665C4.92834 10.4575 5.05544 10.1358 5.17724 9.81776C5.29846 9.49908 5.41791 9.18527 5.55914 8.88241C5.70036 8.58015 5.86277 8.28884 6.04519 8.01091C6.2276 7.73238 6.42885 7.46722 6.64186 7.21118C6.84369 6.96853 7.11026 6.78121 7.39506 6.63343C7.68104 6.48686 7.98761 6.37922 8.30184 6.30441C8.61606 6.229 8.93794 6.18522 9.25981 6.1767C9.42045 6.17244 9.58051 6.17731 9.74115 6.19251C9.89826 6.20772 10.0601 6.23569 10.2172 6.26853C10.5344 6.33482 10.8427 6.43334 11.1357 6.56957C11.4288 6.70519 11.7048 6.87852 11.9625 7.07921C12.2208 7.2799 12.4615 7.50614 12.6963 7.74332C12.7545 7.80231 12.8128 7.86191 12.8699 7.92212C12.9275 7.98294 12.987 8.04375 13.0405 8.10275C13.1476 8.22316 13.2459 8.35452 13.3412 8.49075C13.5301 8.76321 13.7037 9.05208 13.8743 9.34278C14.045 9.63348 14.2121 9.92844 14.3868 10.2204C14.4892 10.39 14.5928 10.5591 14.7034 10.7251C14.7223 10.7537 14.7446 10.7926 14.7552 10.8103C14.7611 10.8206 14.7693 10.831 14.7776 10.8401C14.7793 10.8419 14.7805 10.8425 14.7811 10.8437C14.7829 10.8462 14.787 10.8516 14.7911 10.8553C14.9211 11.0073 15.0559 10.8796 14.7811 10.4107C14.7799 10.4077 14.7752 10.404 14.7729 10.4022C14.7711 10.3998 14.7664 10.3876 14.7605 10.3754C14.7587 10.3675 14.7546 10.3596 14.7511 10.3523C14.7487 10.3475 14.747 10.3426 14.7434 10.3383C14.7381 10.3317 14.7305 10.3231 14.7281 10.3189C14.7276 10.3158 14.7264 10.3134 14.7246 10.3104C14.6793 10.2374 14.6346 10.1644 14.5899 10.0908C14.4169 9.80195 14.2503 9.5076 14.0785 9.21507C13.9061 8.92133 13.7307 8.62941 13.5342 8.34662C13.4365 8.20492 13.3312 8.06686 13.2153 7.9355C13.1564 7.8686 13.0982 7.81022 13.0399 7.7488C12.9817 7.68798 12.9222 7.62716 12.8628 7.56635C12.6245 7.32612 12.375 7.09198 12.1055 6.88217C11.8366 6.67235 11.5441 6.48808 11.2334 6.34455C10.9233 6.20042 10.5961 6.09642 10.2654 6.02709C10.0983 5.99304 9.93475 5.96385 9.76292 5.94682C9.59228 5.9304 9.42222 5.92553 9.25334 5.92979C8.9144 5.93952 8.57781 5.98513 8.2477 6.06419C7.91818 6.14386 7.59513 6.25637 7.28855 6.41328C7.13556 6.49234 6.98727 6.58295 6.84722 6.68756C6.70777 6.79277 6.57537 6.91258 6.46121 7.05063C6.24231 7.31214 6.03577 7.58581 5.84747 7.87286C5.65858 8.16052 5.4897 8.46278 5.34377 8.77598C5.19725 9.08796 5.07486 9.41029 4.95423 9.72714C4.83301 10.0446 4.70944 10.356 4.56056 10.654C4.46759 10.8419 4.36579 11.0237 4.25575 11.2001C4.25281 11.205 4.24928 11.2117 4.24693 11.219C4.24222 11.2293 4.22633 11.264 4.21103 11.295C4.18808 11.3418 4.1669 11.3886 4.14748 11.4373C4.13336 11.4726 4.11924 11.506 4.111 11.5449C4.10982 11.5504 4.10865 11.5547 4.10806 11.5601C4.10629 11.568 4.09982 11.5814 4.09629 11.5905C4.09393 11.5954 4.09158 11.6015 4.09099 11.6076C4.0904 11.6106 4.08982 11.6137 4.08923 11.6173C4.07687 11.6818 4.14101 11.7468 4.20279 11.7067C4.21103 11.7 4.21809 11.6939 4.22398 11.6854Z" />
<path d="M12.0213 20.0257C11.8083 20.0172 11.65 20.0099 11.4382 20.0111C10.7497 20.013 10.0666 20.0756 9.38986 20.1139C9.22039 20.1236 9.0515 20.1322 8.8838 20.1346C8.79965 20.1352 8.7161 20.1352 8.63254 20.134C8.55075 20.1315 8.46601 20.1255 8.38069 20.1218C8.04234 20.1017 7.70575 20.0719 7.36976 20.0306C7.12967 20.0008 6.89018 19.9631 6.65245 19.9187C6.61891 19.9126 6.57419 19.898 6.55183 19.8877C6.53771 19.881 6.52417 19.8761 6.51005 19.8706C6.49828 19.8676 6.48769 19.867 6.47769 19.8682C6.45945 19.8694 6.44415 19.8798 6.44062 19.8798C6.4365 19.8816 6.42237 19.9023 6.41708 19.9302C6.41178 19.957 6.41355 20.0026 6.42296 20.0288C6.42826 20.044 6.43767 20.0574 6.45238 20.0677C6.54359 20.1315 6.6501 20.1656 6.75837 20.1814C6.7925 20.1875 6.83075 20.1954 6.84546 20.1978C6.86017 20.2003 6.88312 20.2021 6.89783 20.2082C6.90783 20.2124 6.91725 20.2136 6.9249 20.2155C7.06377 20.2374 7.20264 20.2574 7.3421 20.2757C7.6828 20.3183 8.02586 20.3474 8.36833 20.3681C8.45365 20.3724 8.53898 20.3785 8.62724 20.3797C8.71374 20.3821 8.80083 20.3821 8.88733 20.3809C9.06033 20.3791 9.23215 20.3706 9.4028 20.3608C10.0866 20.3219 10.7633 20.2599 11.44 20.2568C11.6012 20.2568 11.7624 20.2587 11.9237 20.2678C11.9301 20.2678 11.9378 20.2672 11.9454 20.2653C11.9584 20.2623 11.9925 20.2653 12.0219 20.2611C12.0525 20.2574 12.0884 20.2501 12.1061 20.2501C12.1155 20.2501 12.1255 20.2489 12.1355 20.2465C12.1461 20.2453 12.1567 20.241 12.1673 20.2355C12.1832 20.2276 12.2038 20.2143 12.2143 20.2088C12.2196 20.2045 12.2249 20.2009 12.2291 20.1954C12.2367 20.1863 12.2432 20.1765 12.2461 20.1662C12.2526 20.1474 12.2573 20.1145 12.2532 20.0944C12.2479 20.0738 12.2544 20.0348 12.0213 20.0257Z" />
<path d="M11.0528 20.5646C11.0198 20.5743 10.9857 20.5792 10.9769 20.5792C10.971 20.5792 10.9663 20.5792 10.9598 20.5804C10.6003 20.6686 10.4832 20.744 9.92827 20.7798C9.84472 20.7859 9.73233 20.8005 9.64818 20.8072C9.627 20.8078 9.44517 20.7944 9.26805 20.7865C9.23392 20.7847 9.1792 20.7823 9.14507 20.7774C9.0262 20.7567 8.26359 20.6588 8.02998 20.5895C7.93407 20.5597 7.89346 20.7136 7.9882 20.7434C8.14826 20.7902 8.3089 20.8352 8.47131 20.8632C8.87556 20.9562 9.28158 21 9.67642 21C10.1713 21 10.6744 20.899 11.1599 20.6977C11.2105 20.6819 11.2599 20.6667 11.3099 20.6473C11.4023 20.6132 11.3629 20.4581 11.2676 20.4934C11.1964 20.5208 11.1252 20.5433 11.0528 20.5646Z" />
<path d="M5.15665 6.90893C5.1743 6.87852 5.20431 6.83108 5.22608 6.80371C5.43321 6.53856 5.66565 6.29468 5.91809 6.07453C6.14934 5.87201 6.39707 5.68835 6.6554 5.52232C6.78426 5.439 6.91666 5.36055 7.05082 5.28514L7.15145 5.2298C7.1844 5.21216 7.21794 5.19513 7.25148 5.17871C7.31856 5.14587 7.38741 5.11668 7.45743 5.0887C7.73753 4.9768 8.03175 4.89896 8.33067 4.84605C8.62901 4.79435 8.93264 4.76759 9.23627 4.76516C9.84354 4.7603 10.452 4.85091 11.0322 5.0364C11.6124 5.22128 12.1626 5.50104 12.658 5.86472C13.0464 6.14873 13.3989 6.48321 13.7137 6.85298C13.736 6.87913 13.7896 6.93447 13.8355 7.00258C13.9037 7.10536 13.9543 7.22213 13.9555 7.22395C13.9555 7.22578 13.9602 7.22943 13.9608 7.23064C13.9749 7.25497 13.9673 7.23794 13.9891 7.23916C14.0232 7.24281 14.0626 7.21726 14.075 7.20328C14.0832 7.19476 14.0862 7.18382 14.0897 7.17226C14.1238 7.04455 14.0097 6.84568 13.8802 6.6687C13.8596 6.64073 13.8202 6.60181 13.7984 6.57505C13.7949 6.5714 13.7931 6.56714 13.789 6.56349C13.766 6.53734 13.7402 6.51727 13.7378 6.51301C13.7355 6.51058 13.7331 6.50815 13.7307 6.50572C13.4477 6.19495 13.1347 5.91094 12.7957 5.66281C12.2803 5.28453 11.7065 4.99261 11.1022 4.80043C10.4979 4.60765 9.8659 4.51277 9.23451 4.51764C8.91793 4.52068 8.60253 4.54805 8.29007 4.60217C7.9782 4.65691 7.66986 4.73901 7.37093 4.8576C7.2962 4.88801 7.22265 4.91963 7.14968 4.95552C7.1132 4.97254 7.0773 4.9914 7.04141 5.01086L6.93667 5.06742C6.79839 5.14465 6.66187 5.22615 6.52829 5.3119C6.26114 5.4834 6.004 5.67497 5.76274 5.88661C5.60268 6.02709 5.45028 6.17609 5.30611 6.33361C5.29493 6.34638 5.28022 6.3707 5.27434 6.38712C5.27375 6.38834 5.27375 6.38956 5.27375 6.39077C5.27316 6.39321 5.29611 6.35976 5.27434 6.38712C5.22079 6.45524 5.10075 6.57748 4.97306 6.78547C4.8489 6.98677 5.05367 7.06036 5.11193 6.97826C5.1284 6.95575 5.14312 6.93264 5.15665 6.90893Z" />
<path d="M7.00434 3.18394C7.0061 3.18394 7.00963 3.18394 7.01257 3.18273H7.01316C7.01375 3.18273 7.02258 3.18212 7.03317 3.17908C7.04376 3.17543 7.07789 3.16266 7.11084 3.15232C7.15556 3.13894 7.20146 3.12556 7.24677 3.11279C7.97643 2.91514 8.74375 2.86953 9.5046 2.87196C10.2584 2.87926 11.0051 3.06049 11.6989 3.36822C11.7842 3.40592 11.8272 3.42538 11.9101 3.46674C11.9407 3.48194 11.9631 3.49046 11.9696 3.49776C11.9743 3.50201 12.0272 3.53607 12.0313 3.54033C12.0443 3.55796 12.0619 3.56648 12.0778 3.56709C12.1078 3.56769 12.1602 3.54154 12.1796 3.51235C12.1926 3.49167 12.1949 3.4637 12.1749 3.43572C12.0855 3.31409 11.9684 3.2405 11.8454 3.17361C11.8154 3.15719 11.7677 3.12799 11.7389 3.11036C11.7112 3.09394 11.6018 3.05988 11.57 3.04711C11.2799 2.93156 10.981 2.83608 10.6779 2.76614C10.2937 2.67795 9.90179 2.6293 9.50872 2.62444C9.11917 2.62322 8.73198 2.63478 8.34362 2.67187C8.03292 2.70167 7.72223 2.74668 7.41624 2.81722C7.3827 2.82452 7.35269 2.83121 7.34916 2.83182C7.34681 2.83182 7.34445 2.83243 7.3421 2.83304C7.20676 2.86527 7.03023 2.94555 6.92019 3.02947C6.88194 3.05927 6.86664 3.14137 6.8843 3.17482C6.89842 3.20584 6.99963 3.18394 7.00434 3.18394Z" />
<path d="M9.25628 2.25224C9.76351 2.29542 10.2707 2.34651 10.7627 2.47605C10.7833 2.48152 10.8039 2.48395 10.8221 2.49186C11.2434 2.68586 11.2787 2.50463 11.2016 2.43895C10.9886 2.25772 10.6897 2.19447 10.3684 2.13C10.3549 2.12818 10.2084 2.10385 10.1919 2.10081C9.88473 2.04973 9.5758 2.01749 9.2657 2.00533C9.13447 2.00046 9.00325 1.99864 8.87262 2.00107C8.85556 2.00107 8.14531 2.02357 7.91465 2.19143C7.75459 2.3088 7.86345 2.43895 8.09471 2.34043C8.10707 2.33434 8.81966 2.21515 9.25628 2.25224Z" />
<path d="M6.20583 4.28654C6.22525 4.2762 6.24114 4.26465 6.24173 4.26404C6.2429 4.26343 6.24349 4.26343 6.24467 4.26282C6.25938 4.25431 6.2735 4.24518 6.2888 4.23667C6.70894 3.99462 7.15498 3.79697 7.61631 3.65466C8.07705 3.51235 8.55428 3.42356 9.02973 3.42417C9.15683 3.42417 9.27629 3.42052 9.39633 3.42295C9.51696 3.42417 9.63582 3.42903 9.75586 3.43937C9.99477 3.45822 10.2325 3.49593 10.4667 3.54945C10.9351 3.65649 11.3917 3.82555 11.8277 4.03841C12.1655 4.202 12.4915 4.39175 12.8057 4.59974C12.8081 4.60096 12.8098 4.60157 12.811 4.60217C12.814 4.604 12.8893 4.6563 12.9222 4.65691C13.0099 4.66117 13.0464 4.58271 12.954 4.48176C12.8587 4.37898 12.6468 4.21478 12.5886 4.17889C12.558 4.16187 12.5268 4.1418 12.518 4.1345C12.5127 4.12903 12.5062 4.12477 12.5015 4.12173C12.3144 4.01226 12.1243 3.90948 11.9301 3.81461C11.48 3.59567 11.0075 3.41869 10.5173 3.30801C10.2731 3.25206 10.0242 3.21314 9.7741 3.19307C9.64994 3.18273 9.52402 3.17725 9.39986 3.17543C9.27511 3.17361 9.14919 3.17725 9.03091 3.17725C8.52486 3.17604 8.02645 3.27091 7.54805 3.41748C7.19146 3.52816 6.84428 3.66986 6.51005 3.83893C6.5077 3.83954 6.50476 3.84197 6.50122 3.84441C6.49652 3.84745 6.19347 4.00192 6.09815 4.15883C6.09285 4.16734 6.08814 4.17768 6.08579 4.18011C6.0852 4.18194 6.08344 4.18376 6.08285 4.18558C6.05166 4.24458 6.10285 4.32546 6.16994 4.30296C6.18229 4.29809 6.19465 4.29262 6.20583 4.28654Z" />
<path d="M14.9229 13.2393C14.9217 13.2393 14.9188 13.2381 14.9135 13.2381C14.9111 13.2381 14.9088 13.2381 14.9053 13.2381C14.8035 13.2691 14.6964 13.2751 14.5887 13.2599C14.4586 13.2417 14.328 13.193 14.2038 13.1274C13.9561 12.9942 13.7355 12.7965 13.5389 12.5776C13.4253 12.4493 13.3188 12.3136 13.2194 12.1713C13.2094 12.1567 13.1947 12.1318 13.187 12.116C13.1806 12.105 13.1747 12.0935 13.1688 12.0813C13.1641 12.0722 13.1594 12.0661 13.1529 12.0607C13.1429 12.0497 13.1258 12.0315 13.1164 12.0169C13.0817 11.964 13.0482 11.9104 13.0158 11.8557C12.9387 11.7274 12.8669 11.5948 12.7993 11.461C12.7657 11.3929 12.7328 11.3254 12.7016 11.2561L12.6086 11.045C12.4762 10.7586 12.322 10.4861 12.1502 10.2258C11.9778 9.96493 11.7877 9.7168 11.5741 9.48813C11.3611 9.26007 11.1252 9.05148 10.8609 8.87997C10.5991 8.70847 10.3072 8.57589 9.99771 8.509C9.6876 8.44149 9.36396 8.44392 9.05621 8.51386C8.90204 8.54792 8.75258 8.5984 8.60841 8.65982L8.55428 8.68293C8.53545 8.69144 8.5172 8.70057 8.49837 8.70969C8.46189 8.72793 8.426 8.74861 8.39069 8.7699C8.32067 8.81247 8.25476 8.86173 8.19239 8.91525C7.94348 9.13054 7.76577 9.41516 7.64867 9.7168C7.53275 10.0203 7.47273 10.3438 7.47744 10.671C7.48038 10.8352 7.4998 10.9994 7.54276 11.1606C7.5863 11.3211 7.65397 11.4811 7.76048 11.6179C7.78696 11.6526 7.8152 11.6854 7.84698 11.7164C7.87934 11.7481 7.90935 11.7724 7.94289 11.7998C8.00821 11.8508 8.08059 11.8971 8.15826 11.9335C8.31302 12.0059 8.49543 12.0345 8.66726 11.9998C8.83967 11.9664 8.99619 11.8776 9.11976 11.759C9.24333 11.6392 9.33925 11.4896 9.39339 11.3205C9.41987 11.2366 9.43575 11.1478 9.43693 11.056C9.43752 10.9647 9.4234 10.8711 9.39103 10.7835C9.35926 10.6959 9.30924 10.6144 9.24804 10.5482C9.18684 10.4807 9.11447 10.4259 9.03974 10.384C9.03856 10.3833 9.03738 10.3821 9.03562 10.3815C9.03326 10.3809 9.03091 10.3797 9.03032 10.3791C9.02973 10.3785 9.02914 10.3779 9.02855 10.3773C8.94147 10.3085 8.86732 10.2258 8.83143 10.1364C8.79495 10.0476 8.79789 9.95581 8.84026 9.87006C8.88203 9.7837 8.96089 9.70768 9.05209 9.65295C9.14389 9.59699 9.24922 9.5599 9.35749 9.54287C9.46576 9.52645 9.57757 9.52827 9.68525 9.55078C9.73939 9.56172 9.7894 9.57753 9.84648 9.59882C9.90238 9.6195 9.95711 9.64139 10.0112 9.66511C10.226 9.75998 10.4208 9.89317 10.5567 10.075C10.6956 10.255 10.7709 10.4819 10.8039 10.7203C10.8139 10.7805 10.8192 10.8407 10.8245 10.9015C10.8274 10.9617 10.8315 11.0256 10.8315 11.0839C10.8321 11.2031 10.8215 11.323 10.7997 11.4409C10.7127 11.9153 10.4608 12.3544 10.1219 12.6913C9.78234 13.027 9.34572 13.266 8.88321 13.3268C8.65255 13.3585 8.41776 13.3439 8.19357 13.2831C8.13708 13.2691 8.08235 13.2508 8.02704 13.2301C7.97114 13.2095 7.91582 13.187 7.86169 13.1626C7.75283 13.1152 7.64691 13.0599 7.54511 12.996C7.3421 12.8707 7.15615 12.7169 6.99021 12.5417C6.82428 12.3666 6.67834 12.1701 6.55065 11.9603C6.42296 11.7493 6.31469 11.5273 6.21524 11.2968C6.16405 11.1813 6.11815 11.0651 6.06166 10.9435L6.04989 10.9191L6.0293 10.8796C6.014 10.8516 5.99752 10.8243 5.98046 10.8018C5.94398 10.7537 5.90396 10.7251 5.85748 10.7166C5.83512 10.7118 5.80746 10.7136 5.78451 10.7197C5.76156 10.727 5.74155 10.7379 5.72272 10.7543C5.68448 10.7859 5.65329 10.8407 5.63034 10.8991C5.62446 10.9137 5.61504 10.972 5.61504 10.9733C5.61504 10.9751 5.61386 10.98 5.61151 10.983C5.60974 10.9848 5.60916 10.9866 5.60798 10.9885C5.57209 11.0414 5.54502 11.0919 5.51854 11.1411L5.36496 11.4312C5.26316 11.6203 5.15312 11.8016 5.0219 11.9609C4.89126 12.1209 4.74004 12.2601 4.56821 12.3574C4.44288 12.4286 4.30577 12.4779 4.16455 12.5034C4.16396 12.5034 4.16278 12.504 4.1616 12.5046C4.15984 12.5052 4.13748 12.5046 4.11571 12.5156C4.09335 12.5265 4.07393 12.5496 4.06804 12.5575C4.06392 12.5612 4.06098 12.5673 4.05745 12.5721C4.03568 12.6092 4.03568 12.6536 4.04215 12.6944C4.04804 12.729 4.08452 12.7533 4.11688 12.7533C4.11688 12.7533 4.12218 12.7533 4.12748 12.7533C4.13336 12.7533 4.1416 12.7552 4.14513 12.7558C4.14748 12.7564 4.14984 12.7564 4.15278 12.7558C4.33755 12.7284 4.51996 12.6682 4.68414 12.5733C4.88715 12.459 5.06073 12.2978 5.2049 12.1209C5.35024 11.9433 5.46793 11.7493 5.57385 11.5516L5.72743 11.2609C5.75215 11.2141 5.77804 11.1685 5.80334 11.1308C5.8157 11.1119 5.82688 11.0876 5.83747 11.0876C5.89631 11.0864 5.99929 11.607 6.81839 12.7163C6.97433 12.9273 7.20029 13.072 7.42154 13.2089C7.53275 13.2776 7.64691 13.3378 7.76518 13.3907C7.82403 13.4162 7.88405 13.4406 7.94525 13.4631C8.00585 13.4856 8.06941 13.5056 8.13237 13.5233C8.38657 13.5914 8.65313 13.6066 8.91322 13.5713C9.17213 13.5373 9.42398 13.4533 9.65524 13.3323C9.88767 13.2113 10.0995 13.0532 10.2866 12.8689C10.4726 12.6828 10.6338 12.4712 10.7621 12.2382C10.8898 12.0059 10.9857 11.7517 11.0339 11.4859C11.0587 11.3534 11.0716 11.2184 11.071 11.0815C11.0704 11.0128 11.0663 10.9483 11.0616 10.8814C11.0575 10.8151 11.0504 10.7489 11.0404 10.682C11.0216 10.5488 10.991 10.415 10.9433 10.2854C10.8963 10.1565 10.8298 10.0312 10.7462 9.92054C10.6632 9.80924 10.5614 9.71315 10.452 9.63409C10.3425 9.55382 10.226 9.48996 10.1066 9.43583C10.0477 9.40907 9.98653 9.38536 9.92592 9.36346C9.86825 9.34218 9.79882 9.31967 9.73174 9.3069C9.59757 9.27893 9.45752 9.27528 9.32219 9.29717C9.18626 9.31907 9.05327 9.36407 8.93146 9.43827C8.81142 9.51185 8.69844 9.61402 8.62783 9.75694C8.59252 9.82749 8.57075 9.90837 8.56781 9.99169C8.56487 10.075 8.58193 10.1583 8.61135 10.2307C8.67255 10.3785 8.77553 10.4861 8.88262 10.5725C8.88674 10.5749 8.89027 10.578 8.8938 10.5804C8.90028 10.584 8.90969 10.5901 8.91499 10.5932C8.91852 10.5956 8.92146 10.5974 8.92558 10.5999C9.03856 10.6631 9.12565 10.7561 9.16743 10.8705C9.20979 10.9848 9.20509 11.1186 9.16566 11.2433C9.08622 11.4945 8.86909 11.7104 8.62253 11.7572C8.50014 11.7815 8.37245 11.762 8.25476 11.7073C8.19592 11.6812 8.14002 11.6453 8.08706 11.6033C8.03233 11.5601 7.98585 11.5163 7.94642 11.4634C7.86581 11.3594 7.80873 11.2299 7.77225 11.0937C7.73576 10.9568 7.71811 10.8121 7.71576 10.6661C7.71164 10.3748 7.76577 10.0793 7.86993 9.80803C7.97526 9.53679 8.13355 9.28683 8.34538 9.10378C8.39775 9.05877 8.45365 9.01742 8.5125 8.98093C8.54192 8.96329 8.57134 8.94626 8.60253 8.93106C8.61783 8.92315 8.63313 8.91586 8.64901 8.90856L8.69844 8.88666C8.83025 8.83071 8.96677 8.7851 9.10564 8.75409C9.38338 8.69205 9.67054 8.68962 9.9471 8.74922C10.2243 8.80882 10.4902 8.92924 10.7327 9.08736C10.9333 9.21811 11.1187 9.37441 11.2911 9.54591C11.3034 9.55807 11.3152 9.57753 11.3199 9.58848C11.3217 9.59517 11.3252 9.60186 11.3299 9.60733C11.4676 9.80803 11.5847 10.0227 11.6718 10.2489C11.7589 10.4752 11.8148 10.7136 11.8354 10.9544C11.8554 11.1958 11.8383 11.4397 11.7895 11.6775C11.7395 11.9153 11.6565 12.1458 11.5482 12.3635C11.3311 12.7996 11.0163 13.1839 10.6456 13.4959C10.4608 13.6516 10.2607 13.7897 10.0507 13.904C9.83883 14.0159 9.61758 14.1053 9.38868 14.1552C8.92323 14.2549 8.436 14.2494 7.96643 14.1576C7.49745 14.0633 7.04259 13.8815 6.65069 13.6048C6.45474 13.4679 6.27644 13.3049 6.12521 13.1201C6.04989 13.027 5.98164 12.9285 5.9222 12.8263L5.91044 12.805L5.89043 12.7704L5.86866 12.729C5.8616 12.7156 5.85395 12.701 5.84571 12.6907C5.83688 12.6792 5.82923 12.6664 5.81982 12.656C5.81099 12.6469 5.80216 12.6378 5.79275 12.6317C5.77333 12.6177 5.75509 12.6098 5.73155 12.605C5.70742 12.6007 5.68095 12.6037 5.66094 12.6098C5.64034 12.6165 5.62034 12.6275 5.60092 12.6451C5.56208 12.6792 5.52972 12.7381 5.49794 12.7917L5.47264 12.8361L5.44969 12.8744C5.43439 12.9005 5.41909 12.9255 5.40262 12.9498C5.37025 12.9972 5.33612 13.0422 5.29846 13.0836C5.22314 13.1675 5.13547 13.2356 5.0372 13.2843C4.92775 13.3402 4.80712 13.3731 4.68119 13.3883C4.66472 13.3907 4.63706 13.3907 4.62 13.3895C4.48701 13.381 4.35285 13.3779 4.21809 13.3834C4.18397 13.3852 4.13513 13.3731 4.10688 13.3767C4.08982 13.3785 4.07452 13.3858 4.06216 13.3992C4.05392 13.4071 4.04804 13.4169 4.04451 13.4278C4.03803 13.4448 4.03568 13.4698 4.03215 13.4831C4.03038 13.4898 4.0298 13.4971 4.02921 13.5056C4.02803 13.5306 4.03803 13.5561 4.04863 13.578C4.05686 13.5944 4.06922 13.6109 4.08452 13.62C4.08864 13.6224 4.09158 13.6242 4.09511 13.6255C4.101 13.6273 4.11041 13.6327 4.1163 13.6358C4.12041 13.6376 4.12453 13.6382 4.12865 13.6376C4.18161 13.6327 4.37756 13.6127 4.62294 13.6419C4.64 13.6443 4.66766 13.6407 4.68472 13.6425C4.81948 13.6546 4.95364 13.6723 5.0878 13.6954C5.43027 13.7556 5.7698 13.8468 6.10874 13.9447C6.44768 14.0433 6.78603 14.1503 7.13203 14.2458C7.47744 14.3388 7.82991 14.4246 8.19886 14.4489C8.19945 14.4489 8.20063 14.4489 8.2018 14.4483C8.20357 14.4477 8.21887 14.4489 8.23593 14.4495C8.6343 14.4963 9.04091 14.4823 9.43575 14.3972C9.69113 14.3419 9.9318 14.2446 10.1578 14.1229C10.3843 14.0013 10.5979 13.8541 10.7939 13.6881C11.1881 13.3566 11.5229 12.9486 11.7583 12.4772C11.876 12.2419 11.9654 11.9913 12.0196 11.7304C12.0743 11.4713 12.092 11.2007 12.0696 10.9343C12.0566 10.7634 12.0255 10.5938 11.9796 10.429C11.9743 10.4119 11.9784 10.4101 11.9878 10.4253C12.1373 10.6576 12.2732 10.9003 12.3879 11.1508L12.4309 11.2475C12.4374 11.264 12.4415 11.2859 12.4415 11.2974C12.4415 11.3041 12.4421 11.3108 12.4438 11.3181C12.5462 11.7706 12.5745 12.2413 12.4791 12.6895C12.4338 12.9133 12.3562 13.128 12.2514 13.3287C12.1455 13.5294 12.0131 13.7155 11.8595 13.8815C11.5524 14.2141 11.1669 14.4678 10.7538 14.6569C10.3396 14.846 9.89885 14.9719 9.45046 15.0528C9.00149 15.1337 8.54368 15.1677 8.08647 15.1641C7.62926 15.1604 7.17204 15.1191 6.72012 15.0431C5.84865 14.8947 4.99542 14.6204 4.20927 14.2093C4.17926 14.1941 4.14807 14.1728 4.13866 14.1679C4.13277 14.1643 4.12689 14.1612 4.12041 14.1612C4.11983 14.1612 4.11865 14.1612 4.11747 14.1612C4.11571 14.1612 4.11453 14.1612 4.11335 14.1606C4.11276 14.1606 4.11218 14.16 4.11159 14.16C4.111 14.16 4.11041 14.16 4.10982 14.16C4.10923 14.16 4.07864 14.1552 4.0498 14.1728C4.03333 14.1831 4.02038 14.2008 4.01508 14.2239C4.00685 14.2598 4.01744 14.2932 4.03156 14.3248C4.0398 14.3437 4.05098 14.3613 4.0651 14.3784C4.08746 14.4051 4.11512 14.4276 4.12277 14.4367C4.12689 14.4416 4.13218 14.4471 4.13807 14.4501C4.93834 14.8624 5.80099 15.1386 6.6807 15.2876C7.14438 15.3654 7.61337 15.408 8.08412 15.4122C8.55369 15.4165 9.02502 15.3812 9.49048 15.2973C9.95475 15.2146 10.4137 15.0832 10.8498 14.8837C11.284 14.6836 11.6959 14.4148 12.0313 14.0524C12.1979 13.873 12.345 13.6698 12.4603 13.4485C12.5756 13.2277 12.661 12.9881 12.7133 12.743C12.7645 12.4973 12.7828 12.2467 12.7745 11.9974C12.7739 11.9846 12.7734 11.9706 12.7722 11.9567C12.771 11.9396 12.7781 11.9372 12.7869 11.9518C12.7934 11.9633 12.7998 11.9749 12.8075 11.9871C12.861 12.0765 12.9175 12.1646 12.9746 12.2516C12.984 12.265 12.9987 12.2899 13.0064 12.3063C13.0905 12.4821 13.1553 12.6658 13.19 12.8555C13.2318 13.083 13.2294 13.3159 13.1794 13.5397C13.1305 13.7623 13.0346 13.9751 12.9069 14.1698C12.7804 14.3631 12.6251 14.5395 12.4533 14.6976C12.1078 15.0157 11.703 15.2663 11.2811 15.473C10.8562 15.681 10.4131 15.8422 9.95652 15.959C9.04444 16.1913 8.09118 16.2411 7.15439 16.1481C6.68541 16.1007 6.21995 16.0173 5.76274 15.8994C5.53384 15.8398 5.30729 15.7723 5.08545 15.6944C4.86302 15.6166 4.64353 15.5284 4.43523 15.4262C4.38462 15.4007 4.31931 15.428 4.28871 15.4876C4.25811 15.5485 4.27635 15.6208 4.33107 15.6482C4.55291 15.7583 4.77946 15.8483 5.00836 15.9273C5.23727 16.0082 5.4697 16.0782 5.70448 16.1378C6.17288 16.2594 6.6501 16.3439 7.13085 16.3926C8.09118 16.4887 9.07151 16.4376 10.0136 16.1968C10.4838 16.0776 10.9433 15.9097 11.3817 15.695C11.8207 15.4816 12.2426 15.2194 12.6115 14.8813C12.7951 14.711 12.9646 14.5213 13.1047 14.3054C13.2447 14.0919 13.3547 13.8499 13.4112 13.5938C13.4654 13.35 13.4712 13.0945 13.4312 12.85C13.4283 12.8336 13.4348 12.8294 13.4465 12.8415C13.6348 13.038 13.8431 13.2162 14.0879 13.3481C14.2303 13.4235 14.3863 13.4825 14.551 13.5044C14.6628 13.5208 14.7787 13.5172 14.8917 13.4935C14.8929 13.4935 14.8935 13.4929 14.8935 13.4929C14.8941 13.4929 14.8982 13.4929 14.9023 13.4929C14.9041 13.4929 14.9053 13.4923 14.9082 13.4923C14.9259 13.4892 14.9453 13.4758 14.9582 13.4631C14.9647 13.457 14.9694 13.4491 14.9735 13.4387C14.9794 13.4248 14.9812 13.4053 14.9841 13.4004C14.9859 13.3962 14.9871 13.3931 14.9888 13.3901C14.9959 13.3682 14.9959 13.342 14.9959 13.3189C14.9959 13.2758 14.9606 13.2387 14.9182 13.2387C14.9235 13.2387 14.9235 13.2387 14.9229 13.2393ZM6.48181 13.7957C6.38059 13.7659 6.2788 13.7355 6.177 13.7051C5.87101 13.6163 5.56149 13.5342 5.2455 13.4722C5.22844 13.4698 5.22667 13.46 5.24197 13.4497C5.32788 13.3943 5.40673 13.3275 5.47499 13.252C5.52148 13.201 5.56444 13.1462 5.6021 13.0897C5.62092 13.0605 5.63917 13.0325 5.65623 13.0045L5.68153 12.9613C5.68153 12.9613 5.68624 12.9534 5.69213 12.9431C5.69801 12.9328 5.70625 12.9303 5.71037 12.9382L5.7186 12.9522C5.7851 13.0684 5.86042 13.1772 5.94456 13.28C6.10227 13.4734 6.28703 13.6431 6.48651 13.7872C6.49946 13.797 6.49828 13.8012 6.48181 13.7957Z" />
<path d="M14.88 14.5316C14.8617 14.5152 14.837 14.5103 14.8341 14.5085C14.8311 14.5073 14.8282 14.5067 14.8252 14.5067C14.7452 14.5067 14.664 14.5176 14.5887 14.5371C14.4616 14.5705 14.3451 14.6228 14.2356 14.6818C14.0179 14.8035 13.8255 14.9518 13.6378 15.1027C13.2659 15.4037 12.9128 15.7187 12.5368 15.9991C12.162 16.2807 11.7677 16.5288 11.347 16.7143C10.9257 16.9022 10.4802 17.0305 10.0265 17.1169C9.57227 17.2033 9.11094 17.247 8.64784 17.2592C8.18415 17.272 7.71987 17.2531 7.25736 17.2087C6.79485 17.1643 6.33411 17.095 5.87807 17.002C5.65094 16.9545 5.42439 16.9016 5.20019 16.8402C5.08839 16.8098 4.97718 16.7775 4.86714 16.7417C4.75828 16.7058 4.64883 16.6687 4.54703 16.6249C4.54056 16.6219 4.53408 16.62 4.5282 16.6188C4.51761 16.617 4.49937 16.6139 4.48701 16.6103C4.47995 16.6079 4.4723 16.6067 4.46406 16.6067C4.40522 16.6054 4.36991 16.6681 4.38521 16.7228C4.39463 16.7563 4.4164 16.7873 4.44464 16.8116C4.47053 16.8341 4.50172 16.8566 4.51231 16.8688C4.51879 16.8755 4.52702 16.8809 4.53467 16.8846C4.62235 16.9192 4.70944 16.9484 4.79711 16.9776C4.91068 17.0141 5.02484 17.047 5.14017 17.0792C5.36966 17.1412 5.60033 17.1953 5.83217 17.2434C6.29645 17.3383 6.76426 17.4088 7.23559 17.4544C7.70634 17.4994 8.18003 17.5189 8.65431 17.5061C9.128 17.4933 9.60287 17.4483 10.0701 17.3596C10.5385 17.2708 11.0004 17.1364 11.4411 16.9417C11.8825 16.7471 12.2932 16.4868 12.6769 16.1986C13.0629 15.9115 13.4201 15.5922 13.7849 15.2967C13.9679 15.1495 14.1532 15.0084 14.3492 14.9014C14.4945 14.8205 14.6487 14.7621 14.7982 14.7548C14.8046 14.7542 14.8099 14.7524 14.8158 14.7487C14.8241 14.7445 14.8464 14.7372 14.8647 14.7262C14.8758 14.7195 14.8847 14.7104 14.8905 14.6976C14.9017 14.6697 14.9058 14.6393 14.907 14.6088C14.907 14.6052 14.907 14.6034 14.907 14.5991C14.907 14.5973 14.907 14.5961 14.907 14.5942C14.907 14.5924 14.9064 14.5857 14.9058 14.5803C14.9053 14.576 14.9047 14.5724 14.9041 14.5699C14.9 14.5547 14.8917 14.5413 14.88 14.5316Z" />
<path d="M14.2533 17.1139C14.2503 17.1139 14.2468 17.1139 14.2456 17.1139C14.245 17.1139 14.2444 17.1139 14.2439 17.1139C14.2433 17.1139 14.2415 17.1132 14.2403 17.1132C14.2386 17.1132 14.238 17.1126 14.2362 17.1126C14.2339 17.1126 14.2327 17.1132 14.2297 17.1132C14.228 17.1132 14.2256 17.1132 14.2239 17.1132C14.1344 17.123 14.0473 17.1388 13.9614 17.1583C13.7625 17.2051 13.573 17.2683 13.3853 17.3352C13.0117 17.4715 12.6498 17.6271 12.2879 17.7828C11.9266 17.9385 11.5677 18.0966 11.2046 18.2408C11.0239 18.3125 10.8421 18.38 10.6591 18.4403C10.4767 18.4999 10.073 18.6154 10.056 18.6197C9.90886 18.6507 9.76116 18.6793 9.61287 18.7054C8.84732 18.8386 8.06823 18.8842 7.29444 18.8337C6.63892 18.7906 5.98693 18.6805 5.34671 18.5199C5.31317 18.512 5.28611 18.5035 5.28611 18.5035L5.28552 18.5029C5.22255 18.4463 5.11369 18.5205 5.16489 18.6008C5.21785 18.6835 5.30552 18.765 5.40379 18.7796C5.40497 18.7796 5.40673 18.7802 5.40791 18.7802C5.40968 18.7802 5.4185 18.7869 5.42674 18.7912C5.43263 18.7942 5.43851 18.7972 5.44381 18.7985C6.04695 18.9426 6.66128 19.0399 7.28031 19.08C8.07235 19.1336 8.87086 19.0861 9.6523 18.9499C10.0436 18.8824 10.4302 18.7936 10.8121 18.6932C11.194 18.5935 11.5718 18.481 11.9496 18.3794C12.3267 18.2779 12.7045 18.183 13.0823 18.155C13.27 18.141 13.4583 18.1453 13.6401 18.1775C13.6743 18.1824 13.7078 18.1909 13.7407 18.1982C13.7466 18.1994 13.7508 18.1994 13.7566 18.1982C13.7649 18.1964 13.7796 18.1952 13.7908 18.1946C13.7966 18.1946 13.8037 18.1927 13.8096 18.1915C13.8396 18.1787 13.8608 18.1611 13.8802 18.1343C13.8914 18.1161 13.9002 18.096 13.9061 18.0766C13.912 18.0602 13.9108 18.0443 13.9043 18.0285C13.8955 18.003 13.8755 17.9841 13.8696 17.9805C13.8679 17.9774 13.8637 17.975 13.859 17.9738C13.8008 17.9586 13.7407 17.9446 13.6801 17.9343C13.4748 17.8978 13.2676 17.8929 13.0646 17.9087C12.8357 17.9258 12.6115 17.9659 12.3903 18.0145C12.3744 18.0188 12.3644 18.02 12.3709 18.017L12.3815 18.0133C12.7416 17.8582 13.1023 17.7038 13.4659 17.57C13.6478 17.5043 13.8314 17.4447 14.015 17.4015C14.0556 17.3924 14.0956 17.3827 14.1374 17.376C14.1415 17.3748 14.1479 17.3723 14.1521 17.3699C14.1597 17.3656 14.1715 17.3602 14.1803 17.3596C14.1844 17.3589 14.1897 17.3583 14.1938 17.3583C14.2315 17.348 14.2562 17.3255 14.275 17.2951C14.2933 17.2659 14.3062 17.2337 14.3092 17.2258C14.3098 17.2227 14.3109 17.2179 14.3121 17.2142C14.3209 17.1704 14.3003 17.1272 14.258 17.1151C14.2556 17.1139 14.255 17.1139 14.2533 17.1139Z" />
<path d="M11.1446 12.0625C11.0528 12.3361 10.9127 12.5898 10.7297 12.8075C10.5473 13.0264 10.3243 13.2101 10.0813 13.3597C9.83766 13.5075 9.57345 13.6285 9.30277 13.7088C9.03091 13.789 8.74964 13.8261 8.47072 13.8085C8.19121 13.7927 7.91641 13.7203 7.65927 13.6036C7.40212 13.4856 7.16321 13.325 6.94608 13.1353C6.72895 12.9455 6.53241 12.7278 6.35765 12.4937C6.26997 12.3775 6.18759 12.2559 6.11168 12.1306C6.07343 12.0686 6.03695 12.0041 6.00282 11.9402C5.98575 11.9086 5.96928 11.8764 5.95339 11.8448C5.94574 11.8283 5.93868 11.8131 5.93162 11.7967L5.92279 11.7748C5.92279 11.7748 5.92162 11.7724 5.92044 11.7712C5.91926 11.7681 5.91691 11.7608 5.91455 11.7566C5.91338 11.7529 5.9122 11.7493 5.91102 11.7468C5.91102 11.7468 5.90926 11.742 5.90749 11.7371C5.90514 11.731 5.89926 11.7195 5.89396 11.7116C5.89102 11.7055 5.88749 11.7012 5.88396 11.6964C5.87807 11.6891 5.87219 11.6812 5.86395 11.6708C5.85512 11.6623 5.84512 11.652 5.82864 11.6404C5.81275 11.6295 5.7851 11.6155 5.74685 11.6155C5.70742 11.6149 5.67212 11.6337 5.65623 11.6489C5.6374 11.6641 5.62857 11.6769 5.62092 11.6878C5.6068 11.7097 5.59974 11.7262 5.59268 11.7402C5.56914 11.7985 5.5562 11.8441 5.54031 11.8916C5.51089 11.9828 5.48029 12.0704 5.44204 12.1531C5.36731 12.3185 5.26433 12.4645 5.12958 12.5709C5.06309 12.6256 4.98659 12.67 4.90598 12.7096C4.82536 12.7485 4.74063 12.7819 4.65471 12.8111C4.4823 12.8671 4.30224 12.903 4.12865 12.903C4.12689 12.903 4.12512 12.903 4.12394 12.903C4.12336 12.903 4.12277 12.9036 4.12218 12.9036C4.12159 12.9048 4.11747 12.9078 4.11276 12.9103C4.10806 12.9127 4.10276 12.9145 4.10041 12.9157C4.09923 12.9169 4.09805 12.9176 4.09688 12.9188C4.08099 12.9285 4.06745 12.9407 4.05627 12.9589C4.05098 12.9674 4.04804 12.9759 4.04568 12.9851C4.04274 13.0015 4.04274 13.0161 4.04215 13.0203C4.04215 13.0228 4.04156 13.0252 4.04156 13.0258C4.03803 13.072 4.06216 13.1134 4.09629 13.1389C4.10394 13.1462 4.11394 13.1487 4.12336 13.1505C4.13983 13.1529 4.17985 13.148 4.21456 13.1468C4.39168 13.1371 4.56115 13.0994 4.7265 13.0465C4.82242 13.0149 4.91598 12.9778 5.00778 12.9328C5.09957 12.8878 5.19019 12.8354 5.27492 12.7673C5.44439 12.6329 5.5715 12.4499 5.658 12.2595C5.69389 12.1817 5.72331 12.1008 5.7492 12.0223C5.7545 12.0047 5.76568 12.0041 5.77392 12.0205C5.7798 12.0339 5.78686 12.0479 5.79451 12.06C5.831 12.1288 5.86983 12.1963 5.90985 12.262C5.99046 12.3939 6.07696 12.5222 6.16935 12.6457C6.35412 12.892 6.56124 13.1213 6.79309 13.3238C7.02493 13.5257 7.28325 13.7009 7.56394 13.828C7.84462 13.9575 8.14943 14.0366 8.45718 14.0548C8.76552 14.0737 9.07504 14.0329 9.36926 13.9459C9.66348 13.8584 9.94181 13.7301 10.2048 13.5701C10.4661 13.4108 10.7103 13.2101 10.9115 12.9686C11.1134 12.726 11.2693 12.4444 11.3711 12.1434C11.4217 11.9931 11.46 11.8375 11.4847 11.6818C11.51 11.5322 11.5341 11.3771 11.5471 11.2202C11.5588 11.0633 11.5612 10.9021 11.5447 10.7416C11.5271 10.5804 11.4906 10.4211 11.4358 10.2696C11.3817 10.1182 11.3111 9.97588 11.2352 9.84087C11.1952 9.77275 11.1563 9.70768 11.1134 9.64078C11.0669 9.57024 11.0128 9.50638 10.9563 9.44739C10.8386 9.33123 10.7074 9.24 10.5697 9.16459C10.4308 9.0904 10.2855 9.03201 10.1378 8.98823C9.98947 8.94444 9.83765 8.91403 9.68348 8.89883C9.5299 8.88362 9.37397 8.88241 9.21803 8.90187C9.0621 8.92194 8.9044 8.96025 8.75611 9.0387C8.60959 9.11594 8.48249 9.2248 8.37716 9.35008C8.27242 9.47536 8.18827 9.61767 8.12825 9.77154C8.06823 9.92419 8.03116 10.0896 8.02821 10.2593C8.02586 10.4283 8.06058 10.6059 8.14943 10.761C8.19298 10.8376 8.25064 10.907 8.31596 10.9654C8.38187 11.0231 8.45601 11.0687 8.53309 11.1034C8.57723 11.1229 8.62195 11.1241 8.65666 11.1119C8.69138 11.0992 8.71551 11.073 8.72375 11.0402C8.73198 11.0067 8.72316 10.9733 8.7055 10.9447C8.68726 10.9155 8.66078 10.8912 8.62783 10.8772C8.51191 10.8255 8.41599 10.7434 8.35421 10.6351C8.29242 10.5281 8.26477 10.3967 8.26712 10.2629C8.27183 9.99473 8.38363 9.71984 8.55781 9.51185C8.64431 9.40725 8.74846 9.31907 8.86379 9.25825C8.97736 9.19743 9.11094 9.16338 9.24569 9.14635C9.51813 9.11351 9.80352 9.14696 10.0713 9.22541C10.2048 9.26555 10.3355 9.31785 10.4585 9.38414C10.5808 9.44982 10.6944 9.52949 10.7897 9.62497C10.838 9.67362 10.881 9.7241 10.9157 9.77944C10.9551 9.83904 10.9933 9.9029 11.0298 9.96554C11.101 10.092 11.164 10.2216 11.2128 10.3554C11.2599 10.4892 11.2923 10.6266 11.3076 10.7677C11.3223 10.9094 11.3211 11.0535 11.3093 11.1995C11.2976 11.3455 11.2752 11.4914 11.2499 11.6398C11.2246 11.7852 11.1911 11.9269 11.1446 12.0625Z" />
</svg>
