<svg width="31" height="51" viewBox="0 0 31 51" fill="white" xmlns="http://www.w3.org/2000/svg">
<path d="M30.7131 27.1029C30.6998 27.0947 30.6866 27.0947 30.675 27.0914C30.5838 27.0767 30.4926 27.0539 30.4013 27.0163C30.1509 26.9184 29.9105 26.7421 29.6883 26.5364C29.2438 26.1169 28.8674 25.5929 28.5059 25.0591C27.7845 23.98 27.1328 22.8357 26.4164 21.7207C25.7017 20.6074 24.9339 19.5137 24.0516 18.5016C23.1678 17.4944 22.1578 16.572 20.9987 15.8472C19.8445 15.1192 18.5427 14.6099 17.1928 14.3715C15.8629 14.1332 14.4798 14.0352 13.1117 14.2524C12.4301 14.3617 11.7536 14.5527 11.1201 14.8449C10.4866 15.1339 9.8979 15.524 9.38713 15.9958C8.87471 16.4643 8.44023 17.0095 8.0837 17.5907C7.7255 18.1735 7.44027 18.7938 7.21308 19.4272C7.2081 19.4468 7.20313 19.4663 7.19981 19.4827C7.19484 19.5137 7.17991 19.5561 7.16333 19.5822C7.15172 19.5969 7.14509 19.6149 7.13845 19.6312C6.98091 20.1634 6.81342 20.7217 6.71558 21.2979C6.61608 21.8709 6.57628 22.4635 6.61443 23.0479C6.65091 23.6339 6.7587 24.2151 6.9295 24.7734C7.10197 25.3333 7.32584 25.8687 7.60112 26.3862C8.16827 27.4424 9.06708 28.2978 10.1135 28.8708C11.1599 29.4438 12.3671 29.7458 13.5794 29.669C14.1813 29.6282 14.785 29.4927 15.3422 29.2511C15.9043 29.0112 16.4167 28.67 16.8496 28.2537C17.289 27.8358 17.6472 27.3526 17.9374 26.8351C18.08 26.5756 18.2094 26.316 18.3188 26.032C18.425 25.7496 18.5079 25.4541 18.5527 25.157C18.6505 24.5579 18.6157 23.9343 18.4432 23.3483C18.357 23.0561 18.2376 22.772 18.0867 22.5076C17.9358 22.2415 17.7583 21.995 17.5577 21.7632C17.357 21.5314 17.1232 21.3175 16.8595 21.1412C16.5958 20.9649 16.2957 20.8245 15.9657 20.756C15.7982 20.7217 15.6274 20.7054 15.4483 20.7168C15.2708 20.7282 15.0868 20.7641 14.901 20.8588C14.8082 20.9094 14.717 20.9714 14.6291 21.0759C14.5395 21.1837 14.4848 21.3192 14.4798 21.4595C14.4765 21.5281 14.4865 21.5999 14.508 21.6652C14.5263 21.7322 14.5611 21.7991 14.5909 21.8481C14.6158 21.8872 14.644 21.9248 14.6739 21.9574C14.7037 21.9917 14.7402 22.0309 14.7518 22.0423C14.7651 22.0537 14.7833 22.0635 14.7916 22.0701C14.7949 22.075 14.7999 22.0782 14.8049 22.0815C14.8347 22.106 14.8662 22.1223 14.8994 22.1305C14.9458 22.1435 15.0204 22.155 15.0619 22.1794C15.2642 22.2937 15.4533 22.4635 15.6125 22.6577C15.8463 22.9418 16.0221 23.2813 16.1448 23.6372C16.3869 24.3489 16.4068 25.1456 16.1415 25.8296C16.0088 26.1691 15.8048 26.4809 15.5412 26.7372C15.2808 26.9984 14.9607 27.2024 14.6108 27.3575C14.2609 27.5093 13.8828 27.6138 13.4931 27.6807C13.392 27.6954 13.3074 27.7101 13.2145 27.7183C13.1217 27.7215 13.0288 27.7248 12.9359 27.7215C12.7502 27.7183 12.5612 27.6938 12.3738 27.6595C11.6275 27.5061 10.9178 27.1224 10.3357 26.6131C9.75362 26.1005 9.29261 25.4525 9.00904 24.7342C8.72215 24.0176 8.61436 23.2356 8.66576 22.4602C8.71883 21.6832 8.92778 20.9143 9.23788 20.1846C9.2412 20.1765 9.24452 20.1683 9.24452 20.1585C9.24618 20.1438 9.25447 20.121 9.26608 20.1046C9.27105 20.0948 9.27769 20.085 9.281 20.0736C9.75031 19.0093 10.5878 18.1049 11.5811 17.4536C12.5744 16.799 13.7386 16.3957 14.9309 16.2962C16.1232 16.195 17.3355 16.4055 18.4449 16.8675C19.5543 17.3279 20.5609 18.0282 21.4431 18.8574C22.3253 19.6867 23.0882 20.6433 23.7581 21.6603C23.9273 21.915 24.0881 22.1729 24.239 22.4341C24.3916 22.6953 24.5392 22.9663 24.6884 23.2373C24.9836 23.7776 25.2771 24.3277 25.5939 24.8664C25.9056 25.4084 26.239 25.9422 26.6104 26.4597C26.9819 26.9739 27.3865 27.4718 27.8625 27.9191C28.3318 28.3647 28.8757 28.7614 29.5059 29.0242C29.8209 29.1499 30.1559 29.243 30.4975 29.2887C30.5738 29.2985 30.6534 29.3034 30.7314 29.3099C30.7479 29.3115 30.7678 29.305 30.7794 29.2985C30.8027 29.2789 30.8342 29.2479 30.8557 29.2364C30.8673 29.2266 30.8823 29.2152 30.8939 29.2071C30.9552 29.1418 31 29.0683 31 28.9736C31 28.8936 30.9834 28.8234 30.9502 28.7532C30.9303 28.7124 30.8988 28.6863 30.864 28.67C30.801 28.6422 30.738 28.6455 30.733 28.6439C30.7297 28.6422 30.7264 28.6422 30.7231 28.6422C30.3964 28.6145 30.0747 28.5378 29.7662 28.4088C29.2355 28.1949 28.7563 27.844 28.3251 27.4391C27.8956 27.031 27.5109 26.5642 27.1593 26.0761C26.8061 25.5831 26.4811 25.0656 26.1726 24.5367C25.8675 24.0094 25.574 23.4674 25.2788 22.9238C25.1312 22.6512 24.982 22.377 24.8228 22.106C24.6636 21.8301 24.4944 21.564 24.3236 21.3012C23.6288 20.2483 22.8378 19.2525 21.9041 18.3791C20.9771 17.5058 19.9042 16.7565 18.7036 16.2586C17.5079 15.7591 16.1779 15.5257 14.8729 15.6383C13.5661 15.7444 12.2942 16.1868 11.2046 16.9034C10.6607 17.2609 10.1599 17.6854 9.72875 18.1735C9.29593 18.6616 8.92944 19.2101 8.66245 19.8124C8.65747 19.8255 8.65416 19.8385 8.65084 19.85C8.64587 19.8712 8.63757 19.8973 8.62928 19.9087C8.62431 19.9153 8.61933 19.9218 8.61436 19.93C8.28103 20.7119 8.05053 21.5526 7.99249 22.4161C7.93279 23.2781 8.05385 24.1628 8.37722 24.9758C8.70059 25.7887 9.21964 26.5266 9.88297 27.1061C10.5446 27.6873 11.3456 28.1248 12.2328 28.3092C12.4567 28.3517 12.6839 28.3794 12.9127 28.3859C13.0288 28.3892 13.1449 28.3859 13.261 28.3762C13.3754 28.3713 13.4981 28.3517 13.6026 28.3353C14.0337 28.2586 14.4682 28.1427 14.8811 27.9615C15.2907 27.7803 15.6854 27.5338 16.0121 27.2122C16.3405 26.8874 16.6008 26.4972 16.765 26.0695C16.9325 25.6418 17.0038 25.1896 17.0005 24.7424C16.9972 24.2951 16.9209 23.8527 16.7799 23.4299C16.6323 23.0071 16.4234 22.6039 16.1348 22.2464C15.9906 22.0684 15.8214 21.9019 15.6274 21.7599C15.508 21.6718 15.377 21.5901 15.2344 21.5281C15.1912 21.5069 15.1664 21.4791 15.183 21.4677C15.1912 21.4595 15.2029 21.4546 15.2161 21.4465C15.2825 21.4106 15.3836 21.3861 15.4881 21.3796C15.5942 21.373 15.707 21.3828 15.8197 21.4089C16.0486 21.4546 16.2725 21.5591 16.4814 21.6946C16.6887 21.8334 16.8744 22.0064 17.0452 22.2007C17.3869 22.5908 17.6489 23.0495 17.7915 23.5393C17.9358 24.029 17.9656 24.5514 17.8844 25.0591C17.8429 25.3137 17.7782 25.5635 17.6854 25.8051C17.5942 26.0434 17.4714 26.2915 17.3421 26.5233C17.0834 26.9886 16.7617 27.4195 16.3803 27.7836C15.9972 28.1443 15.5544 28.4398 15.0685 28.6488C14.5843 28.8577 14.0619 28.9785 13.5296 29.0144C11.397 29.1532 9.19311 27.9468 8.19149 26.0858C7.68736 25.1292 7.34409 24.0812 7.28273 23.0152C7.24956 22.4831 7.28273 21.9476 7.37559 21.4171C7.4668 20.8866 7.62103 20.3674 7.78354 19.8238C7.78686 19.8108 7.78851 19.7994 7.79017 19.7863C7.79183 19.7634 7.80676 19.7292 7.82334 19.7047C7.83163 19.69 7.84158 19.6737 7.84655 19.6557C8.06214 19.0582 8.32913 18.4771 8.65913 17.9417C8.98748 17.4046 9.38382 16.91 9.84483 16.4872C10.3058 16.0644 10.8332 15.715 11.4036 15.4522C11.9758 15.1894 12.5893 15.0147 13.2195 14.9151C14.4798 14.7127 15.7899 14.8009 17.0701 15.0327C18.3387 15.2563 19.551 15.7313 20.6372 16.4153C21.7267 17.0961 22.6902 17.9727 23.5392 18.944C24.3933 19.9169 25.1445 20.9829 25.8443 22.0831C26.1992 22.6333 26.5375 23.1899 26.8824 23.7515C27.2273 24.3114 27.5689 24.8746 27.9421 25.4312C28.1294 25.7055 28.3235 25.9814 28.5324 26.2507C28.7414 26.5184 28.9636 26.7813 29.2256 27.0245C29.4843 27.2661 29.7811 27.493 30.1526 27.6383C30.2571 27.6791 30.3632 27.7118 30.476 27.733C30.5688 27.7542 30.6733 27.7689 30.7048 27.7722C30.738 27.7754 30.7645 27.7689 30.7662 27.7689C30.7678 27.7689 30.8192 27.7591 30.8657 27.7232C30.9088 27.684 30.932 27.6236 30.942 27.6073C30.9469 27.5975 30.9519 27.5861 30.9552 27.5779C30.9602 27.5485 30.9668 27.5208 30.9685 27.4914C30.9718 27.4457 30.9652 27.3542 30.9453 27.2938C30.9303 27.2579 30.9121 27.2269 30.8789 27.1992C30.859 27.1828 30.8391 27.1665 30.8143 27.1584C30.7778 27.1322 30.7297 27.1159 30.7131 27.1029Z" />
<path d="M0.62458 27.542C0.659405 27.5306 0.636189 27.5387 0.639505 27.5354C0.886595 27.4212 1.09554 27.2726 1.28957 27.1241C1.48525 26.9723 1.66269 26.8074 1.83349 26.6392C2.17179 26.3013 2.48024 25.9422 2.77044 25.5733C3.3492 24.8354 3.86162 24.06 4.32761 23.2552C4.79028 22.4488 5.21149 21.6163 5.54315 20.7364C5.62441 20.5176 5.70235 20.2891 5.76868 20.0671C5.8317 19.8549 5.90467 19.6426 5.97929 19.4337C6.1302 19.0142 6.301 18.6028 6.49669 18.2028C6.88307 17.3997 7.36067 16.6422 7.92781 15.9583C8.49662 15.2759 9.15663 14.6686 9.89458 14.1773C10.6325 13.6843 11.4484 13.3039 12.3041 13.0607C13.1598 12.8191 14.0553 12.7097 14.9491 12.7309C15.8463 12.7505 16.7368 12.8974 17.6024 13.1472C18.4648 13.3937 19.3006 13.743 20.0999 14.1626C20.9008 14.5837 21.6604 15.08 22.3817 15.6252C22.7416 15.8995 23.0915 16.1868 23.4331 16.4839C23.7747 16.7745 24.0832 17.0879 24.3783 17.4258C24.967 18.0967 25.496 18.833 25.9969 19.5888C26.501 20.3462 26.9736 21.1233 27.4495 21.9068C27.9305 22.6888 28.4031 23.4772 28.9321 24.2445C29.2024 24.6265 29.4793 25.0068 29.811 25.3643C29.9801 25.5423 30.1592 25.7153 30.3698 25.8704C30.4013 25.8916 30.4329 25.9112 30.466 25.9324C30.5174 25.9683 30.5987 26.0369 30.6617 26.0499C30.6965 26.0597 30.7363 26.0597 30.7778 26.0499C30.8325 26.0352 30.8706 26.0042 30.8988 25.9602C30.9486 25.8932 30.937 25.8132 30.937 25.8116C30.937 25.8083 30.9386 25.8051 30.9386 25.8002V25.7806C30.9386 25.7594 30.9353 25.7447 30.9303 25.7251C30.9254 25.6973 30.9088 25.6582 30.9022 25.632C30.8988 25.6141 30.8955 25.601 30.8889 25.5847C30.8773 25.5651 30.869 25.5439 30.859 25.5259C30.8574 25.5227 30.8557 25.5194 30.8541 25.5161C30.8458 25.5047 30.8408 25.4884 30.8309 25.4786C30.8159 25.4541 30.7894 25.41 30.7695 25.379C30.7479 25.348 30.7181 25.3186 30.7048 25.3104C30.6916 25.3007 30.6783 25.2909 30.6733 25.2843C30.6683 25.2794 30.675 25.2876 30.6617 25.2729C30.6534 25.2582 30.6285 25.2125 30.5987 25.1815C30.5688 25.1505 30.4826 25.0901 30.4212 25.028C30.3864 24.9905 30.3499 24.9529 30.3118 24.9138C30.0183 24.5971 29.7496 24.2379 29.4926 23.869C28.9802 23.1295 28.5075 22.346 28.03 21.5657C27.554 20.7821 27.0764 19.9969 26.5657 19.2264C26.0532 18.4542 25.5093 17.6968 24.8874 16.9899C24.5773 16.6357 24.2374 16.2929 23.8792 15.986C23.5293 15.6791 23.1661 15.3836 22.7913 15.1012C22.0451 14.5348 21.2541 14.0189 20.4216 13.5798C19.5841 13.139 18.7052 12.7734 17.7898 12.5089C16.8794 12.2477 15.9259 12.0894 14.9674 12.0682C14.0089 12.0453 13.0437 12.1612 12.12 12.424C11.1947 12.6852 10.3158 13.095 9.5198 13.6271C8.72547 14.1593 8.01405 14.809 7.40876 15.5371C6.80347 16.2652 6.29935 17.0699 5.88974 17.9155C5.68411 18.3367 5.50335 18.7693 5.34747 19.2117C5.26787 19.4321 5.19491 19.6524 5.12526 19.8761C5.06224 20.0932 4.99093 20.2973 4.91299 20.5062C4.59957 21.3371 4.19328 22.1452 3.74554 22.9255C3.29281 23.7041 2.79366 24.4616 2.24144 25.1668C1.96284 25.5178 1.67098 25.8606 1.35921 26.1675C1.20333 26.3226 1.04082 26.4695 0.873328 26.6033C0.768854 26.6833 0.662722 26.7617 0.554931 26.8237C0.551614 26.827 0.548298 26.8302 0.543323 26.8335C0.536689 26.84 0.530056 26.8449 0.52674 26.8466C0.525081 26.8466 0.523423 26.8449 0.521765 26.8466C0.3493 26.9935 0.118793 27.1404 0.150301 27.462C0.153617 27.4963 0.175177 27.5257 0.196735 27.555C0.244826 27.6318 0.365882 27.6154 0.62458 27.542Z" />
<path d="M1.01097 22.2349C1.0176 22.2284 1.10383 22.2137 1.16851 22.1419C1.21162 22.0962 2.08556 19.2329 2.47526 18.4102C3.26296 16.7484 4.2281 15.1633 5.40883 13.761C6.00085 13.0607 6.64925 12.4077 7.36233 11.8347C8.07209 11.2601 8.84652 10.7671 9.67568 10.4015C10.0886 10.2186 10.5181 10.0668 10.9542 9.95581C11.1748 9.9003 11.3937 9.85296 11.6159 9.81705C11.8414 9.78277 12.0736 9.74849 12.3041 9.72074C13.2261 9.60483 14.1548 9.54607 15.0818 9.55913C16.9325 9.58198 18.7782 9.9052 20.4896 10.581C22.2059 11.252 23.7697 12.269 25.1229 13.5096C26.4811 14.7519 27.6402 16.2031 28.6419 17.7507C28.9453 18.2192 29.2355 18.6991 29.5108 19.1888C29.5606 19.2705 29.602 19.3537 29.6103 19.3766C29.6153 19.3896 29.6203 19.4027 29.6253 19.4141C29.6302 19.4402 29.6418 19.4614 29.6568 19.481C29.6783 19.5153 29.7131 19.5414 29.7198 19.5512C29.7198 19.5578 29.7513 19.561 29.7513 19.5594C29.7513 19.5578 29.8342 19.5871 29.9204 19.5463C29.9254 19.5463 29.9304 19.5431 29.932 19.5414C30.0183 19.4974 30.0846 19.3455 30.0896 19.2509C30.1128 18.8901 29.7181 18.2355 29.481 17.8666C29.4395 17.7898 29.3881 17.7131 29.335 17.6397C29.3334 17.638 27.6137 14.84 25.5823 13.0248C24.1594 11.7531 22.5409 10.6675 20.7416 9.9656C18.9457 9.25876 17.0137 8.91921 15.0934 8.89636C14.1332 8.8833 13.1731 8.9437 12.2229 9.06287C11.9824 9.09225 11.7502 9.12653 11.5098 9.16245C11.2677 9.20162 11.0256 9.25386 10.7868 9.31426C10.3125 9.4367 9.84815 9.59994 9.40206 9.79746C8.50823 10.1909 7.68404 10.7182 6.9378 11.3222C6.18824 11.9278 5.51164 12.6101 4.89641 13.3366C3.66594 14.7943 2.67592 16.4268 1.86832 18.1294C1.81525 18.2404 1.86666 18.1294 1.81525 18.2404C1.79535 18.2828 1.80696 18.2371 1.79535 18.2828C1.79535 18.2845 1.80696 18.2371 1.66103 18.6289C1.66103 18.6322 1.65771 18.6371 1.65605 18.6452C1.65605 18.6501 1.79701 18.2779 1.79535 18.2828C1.61294 18.8068 1.43218 19.2117 1.34595 19.4941C1.24479 19.8287 1.12705 20.2744 1.04248 20.6123C0.926394 21.0792 0.715787 21.5869 0.803678 22.0684C0.813628 22.1239 0.838502 22.1648 0.873327 22.1892C0.934685 22.2349 1.00433 22.2415 1.01097 22.2349Z" />
<path d="M4.85827 9.03838C5.37069 8.62538 5.9113 8.24665 6.47844 7.90711C7.82168 7.10069 9.29924 6.51464 10.8315 6.14408C12.3655 5.77189 13.9508 5.61028 15.5378 5.61681C15.9342 5.61844 16.3338 5.62987 16.7269 5.65272C17.1182 5.67394 17.5096 5.71312 17.8976 5.76862C18.6737 5.878 19.4448 6.0543 20.1961 6.28447C21.7001 6.74808 23.1346 7.4337 24.4629 8.2793C24.904 8.56008 25.3319 8.85881 25.7514 9.1755C25.826 9.23264 26.224 9.62769 26.2788 9.69462C26.4164 9.86602 26.7464 9.69625 26.6851 9.50036C26.5391 9.03838 25.9969 8.57804 25.632 8.26461C25.6254 8.25808 25.6154 8.24992 25.6038 8.24502C25.5889 8.23359 25.569 8.2238 25.5624 8.2189C25.5574 8.21564 25.5524 8.21237 25.5474 8.20747C25.312 8.04097 25.0715 7.87935 24.8277 7.72427C23.4513 6.84766 21.9638 6.13592 20.3951 5.65272C19.6107 5.41112 18.8097 5.22666 17.9938 5.11239C17.5842 5.05362 17.1763 5.01281 16.7617 4.98995C16.3537 4.96873 15.9458 4.95567 15.5378 4.95404C13.9044 4.94914 12.2643 5.11402 10.6707 5.5009C9.07703 5.88616 7.53313 6.49832 6.12854 7.34229C5.85657 7.50553 5.59124 7.67857 5.33089 7.85813C5.31596 7.86793 5.30104 7.88099 5.28611 7.89731C5.26124 7.92017 4.78696 8.24992 4.71731 8.31685C4.65264 8.37725 3.80524 9.21632 4.57635 9.22285C4.66756 9.22285 4.78364 9.09878 4.85827 9.03838Z" />
<path d="M30.6949 31.9038C30.6932 31.9038 30.6915 31.9022 30.6915 31.9022C30.6849 31.9022 30.675 31.9038 30.665 31.9038C30.6584 31.9038 30.6501 31.9038 30.6435 31.9055C30.3184 31.9577 29.9934 31.9903 29.675 31.9822C29.3583 31.9708 29.0531 31.9185 28.8011 31.7977C28.7381 31.7683 28.6784 31.7324 28.6236 31.6932C28.5954 31.6753 28.5689 31.6557 28.5407 31.6328L28.5059 31.6002C28.491 31.5904 28.4827 31.5839 28.4545 31.5561C28.3948 31.4941 28.3417 31.4239 28.292 31.3423C28.2389 31.2607 28.1858 31.1578 28.1294 31.1121C28.0747 31.0599 28.0233 31.0403 27.9835 31.0288C27.9421 31.0174 27.9122 31.0142 27.8824 31.0142C27.8674 31.0142 27.8558 31.0142 27.8227 31.0207C27.7928 31.0272 27.7812 31.0288 27.7613 31.0354C27.7265 31.0517 27.695 31.0631 27.6601 31.0958C27.6386 31.1154 27.617 31.1366 27.5988 31.166C27.5706 31.2068 27.5424 31.2672 27.5325 31.2966C27.5242 31.3162 27.5159 31.3341 27.5092 31.357L27.4777 31.4859C27.4346 31.6524 27.3567 31.8532 27.3417 31.8924C27.3136 31.9675 27.282 32.041 27.2489 32.1144C26.9852 32.6988 26.6055 33.2506 26.1826 33.7648C25.7564 34.2774 25.2821 34.7557 24.7796 35.2013C23.7664 36.0959 22.647 36.8827 21.458 37.5357C21.1612 37.7006 20.8594 37.854 20.5526 37.9961C20.2458 38.1381 19.9374 38.2654 19.6173 38.3878C18.9805 38.6311 18.3321 38.84 17.6738 39.0163C15.0387 39.7232 12.266 39.8995 9.53804 39.6562C8.17325 39.5338 6.81674 39.3118 5.48677 38.9886C4.82178 38.8253 4.16509 38.636 3.51669 38.4221C2.86828 38.2066 2.22983 37.9634 1.62289 37.6777C1.4753 37.6075 1.28957 37.6777 1.20168 37.8393C1.11544 38.0026 1.17017 38.1985 1.33102 38.2752C1.97445 38.5772 2.63446 38.8286 3.30111 39.0506C3.96775 39.2726 4.64269 39.4669 5.32591 39.6318C6.69071 39.9648 8.07872 40.1933 9.47834 40.319C12.2743 40.5688 15.1282 40.3892 17.8512 39.6546C18.5328 39.4718 19.206 39.2579 19.8627 39.0049C20.1894 38.8792 20.5194 38.747 20.8445 38.5968C21.1645 38.4482 21.4813 38.2866 21.7864 38.1185C23.0251 37.4394 24.1793 36.6297 25.2324 35.696C25.7547 35.2307 26.2555 34.7263 26.7083 34.1843C27.1577 33.6375 27.5706 33.0482 27.8691 32.3821C27.9039 32.3005 27.9387 32.2173 27.9736 32.1307C27.9736 32.1307 27.9819 32.1095 27.9918 32.0883C27.9968 32.0654 28.0167 32.0556 28.0266 32.0687C28.0399 32.0769 28.0532 32.0883 28.0532 32.0883C28.0714 32.1046 28.0896 32.1242 28.1129 32.1389C28.151 32.1732 28.1958 32.2058 28.2372 32.2352C28.3268 32.294 28.4163 32.3446 28.5092 32.3919C28.8823 32.5682 29.277 32.6286 29.6534 32.6384C29.9801 32.6499 30.2969 32.6237 30.6103 32.5764C30.6285 32.5764 30.6484 32.5666 30.6617 32.5519C30.6899 32.5323 30.7164 32.4997 30.7363 32.4866C30.7496 32.4784 30.7595 32.4687 30.7712 32.4556C30.8789 32.3446 30.9254 32.2091 30.8922 32.0556C30.8806 32.0099 30.8557 31.9773 30.8226 31.9479C30.7629 31.9087 30.6965 31.9038 30.6949 31.9038Z" />
<path d="M14.3422 37.2109C15.5096 37.0819 16.6672 36.8664 17.8031 36.5465C18.9374 36.2298 20.0451 35.8086 21.0882 35.2519C22.1297 34.6953 23.1164 33.9933 23.914 33.0988C24.3137 32.6515 24.6619 32.1569 24.9339 31.6149C25.2058 31.0746 25.3916 30.4901 25.4795 29.8894C25.501 29.7409 25.3584 29.6054 25.176 29.5939C24.9903 29.576 24.8294 29.669 24.8128 29.798C24.7365 30.3253 24.5707 30.8411 24.3286 31.3243C24.0881 31.8059 23.7764 32.2532 23.4099 32.6629C22.6769 33.4791 21.7549 34.1386 20.7665 34.6675C19.7765 35.2013 18.7119 35.6029 17.6174 35.9114C16.5229 36.2167 15.4002 36.4273 14.2659 36.553C11.999 36.806 9.69226 36.7277 7.44027 36.3587C5.18827 35.9833 2.98437 35.3091 0.933027 34.3296C0.806995 34.2692 0.639505 34.3525 0.556589 34.5174C0.472015 34.679 0.510156 34.8634 0.637846 34.9255C2.75386 35.9343 5.01581 36.6297 7.32916 37.0117C9.64252 37.3904 12.0106 37.4688 14.3422 37.2109Z" />
<path d="M30.1625 35.9931C30.1559 35.9931 30.1493 35.9931 30.1426 35.9947C29.9967 36.0159 29.8524 36.0469 29.7115 36.0861C29.3749 36.1743 29.0531 36.3016 28.7497 36.4469C28.1427 36.7407 27.5971 37.1064 27.0698 37.4688C26.5375 37.8361 26.0234 38.2132 25.5027 38.5723C24.9786 38.9298 24.4496 39.2759 23.909 39.6007C23.3684 39.9256 22.8145 40.2292 22.2507 40.51C21.9655 40.6504 21.6852 40.7843 21.3967 40.9051C21.1114 41.0275 20.8163 41.1401 20.5211 41.2462C19.337 41.6625 18.0999 41.94 16.8463 42.1196C15.5942 42.3024 14.3239 42.3889 13.052 42.4134C11.7801 42.433 10.5048 42.3873 9.23457 42.2877C7.9643 42.1865 6.69568 42.0347 5.43702 41.8323C4.80852 41.7311 4.18167 41.6152 3.5598 41.4878C3.2497 41.4225 2.93959 41.3507 2.6328 41.2789C2.38571 41.2185 2.13697 41.1532 1.89817 41.0797C1.89651 41.0797 1.89485 41.0797 1.89154 41.0781C1.88988 41.0781 1.8849 41.0765 1.88159 41.0748C1.87993 41.0748 1.87827 41.0748 1.87661 41.0748C1.8053 41.0422 1.72902 41.0324 1.65771 41.0748C1.57811 41.1189 1.52505 41.225 1.55821 41.3148C1.61128 41.4568 1.6942 41.5515 1.81525 41.6396C1.85837 41.6723 1.90646 41.6968 1.95621 41.7196C1.98274 41.7311 2.01093 41.7441 2.03913 41.7572C2.05073 41.7604 2.06234 41.7637 2.07395 41.7702C2.09385 41.78 2.13033 41.8078 2.15852 41.8274C2.17842 41.8437 2.19667 41.8502 2.21491 41.8551C2.29948 41.8796 2.38406 41.9008 2.46697 41.9188C2.78537 41.9971 3.10211 42.0673 3.41885 42.1343C4.05232 42.2665 4.68912 42.384 5.32757 42.4852C6.60282 42.6909 7.88802 42.8444 9.17819 42.9472C10.4684 43.0452 11.7635 43.0958 13.0603 43.0713C14.3555 43.0501 15.6556 42.9619 16.9408 42.7742C18.2309 42.5897 19.5079 42.3024 20.7466 41.8682C20.7582 41.8633 20.7731 41.8568 20.7848 41.8502C20.8096 41.8453 20.7914 41.8519 20.7499 41.8747C20.4299 42.02 20.1098 42.1571 19.7831 42.2877C19.2326 42.5048 18.6737 42.6877 18.0966 42.8444C17.5228 43.0027 16.9391 43.1317 16.3537 43.246C14.0022 43.6834 11.5844 43.7781 9.18814 43.6508C7.98752 43.5855 6.79021 43.4647 5.60119 43.2884C5.00752 43.2002 4.4155 43.1007 3.82679 42.9815C3.5001 42.9195 3.17342 42.8476 2.85004 42.7725C2.75552 42.7481 2.6013 42.686 2.5134 42.7268C2.40396 42.7774 2.32933 42.9211 2.40396 43.037C2.42883 43.0697 2.45536 43.1007 2.48521 43.1301C2.53662 43.1774 2.60461 43.2264 2.63115 43.2509C2.64607 43.2688 2.66265 43.2819 2.67758 43.2966C2.71738 43.3292 2.75718 43.3602 2.80029 43.3847C2.87326 43.4272 2.95783 43.4582 2.98105 43.4729C2.99763 43.4843 3.01422 43.4876 3.02914 43.4908C3.2497 43.5431 3.4686 43.5871 3.69081 43.6345C4.29112 43.7536 4.89475 43.8549 5.49838 43.9446C6.70729 44.1226 7.92616 44.2466 9.14834 44.3136C11.591 44.4409 14.057 44.3478 16.4781 43.8957C17.0817 43.783 17.682 43.6443 18.2741 43.4843C18.8694 43.3227 19.4614 43.1284 20.0319 42.8999C21.1794 42.4477 22.2673 41.8812 23.3303 41.2985C24.3949 40.7157 25.4363 40.1068 26.5109 39.6187C27.0482 39.3771 27.5988 39.1681 28.1593 39.0441C28.5722 38.9527 28.9918 38.907 29.4047 38.9314C29.4146 38.9331 29.4296 38.9298 29.4395 38.9249C29.4627 38.9216 29.5573 38.9037 29.6335 38.8547C29.6816 38.827 29.7181 38.7862 29.7513 38.7388C29.801 38.667 29.8325 38.5413 29.7977 38.4613C29.7712 38.4074 29.7496 38.3634 29.6966 38.3323C29.6883 38.3274 29.6816 38.3274 29.675 38.3242C29.6601 38.3176 29.6435 38.2997 29.6253 38.2932C29.6186 38.2866 29.607 38.2834 29.5937 38.2817C29.0581 38.2311 28.5192 38.2817 28.0101 38.396C27.3832 38.5364 26.7978 38.7633 26.2307 39.0131C26.0151 39.1143 25.7979 39.2188 25.5839 39.3232C25.5392 39.3428 25.5358 39.3412 25.5773 39.3118C25.6801 39.2465 25.7796 39.1763 25.8808 39.1045C26.4098 38.7437 26.9288 38.365 27.4495 38.0026C27.9703 37.6435 28.4943 37.2974 29.0415 37.0346C29.35 36.8827 29.6717 36.7652 29.9967 36.6885C30.0116 36.6868 30.0216 36.6836 30.0349 36.6754C30.0514 36.6624 30.0863 36.646 30.1111 36.6379C30.1277 36.633 30.141 36.6281 30.1576 36.6216C30.3848 36.4877 30.3848 36.2347 30.3848 36.2069C30.3848 36.153 30.3615 36.0943 30.3201 36.0567C30.2637 35.9914 30.1725 35.9931 30.1625 35.9931Z" />
<path d="M26.0134 44.596C25.4795 44.5797 25.1445 44.6237 24.6271 44.6939C23.5906 44.8376 22.599 45.102 21.6139 45.3632C20.6338 45.626 19.6604 45.8938 18.677 46.1223C17.697 46.3525 16.7103 46.5516 15.7186 46.6985C14.3057 46.9108 12.8779 47.0169 11.4501 47.0299C11.2644 47.0136 10.7635 47.0283 10.7154 47.0267C10.3788 47.0218 10.0422 47.012 9.70719 46.9989C8.1749 46.9287 6.64925 46.7524 5.13521 46.4978C5.04068 46.4798 4.93123 46.4504 4.88978 46.4423C4.8649 46.4374 4.83837 46.4341 4.81184 46.4341C4.74882 46.4357 4.70073 46.4553 4.66922 46.4896C4.60952 46.5516 4.59459 46.6741 4.60123 46.7247C4.60454 46.754 4.61284 46.7851 4.63274 46.8144C4.81349 47.1197 5.22476 47.2046 5.56803 47.2095C5.56969 47.2095 5.56969 47.2095 5.57135 47.2095C5.573 47.2095 5.59788 47.2242 5.63104 47.2389C5.65426 47.2454 5.67416 47.2519 5.69406 47.2552C7.01408 47.456 8.34239 47.5996 9.679 47.66C10.2677 47.6862 10.8581 47.6943 11.4468 47.6911C14.1017 47.8951 16.7617 47.7939 19.3951 47.5866C20.8179 47.4788 22.2308 47.3336 23.6354 47.234C23.7847 47.2226 23.7847 47.2209 23.9289 47.2144C23.9439 47.2144 24.1097 47.2013 24.1263 47.1932C24.1545 47.1834 24.1793 47.172 24.186 47.1736C24.1893 47.1736 24.1926 47.1752 24.1976 47.1752C24.2158 47.1768 24.239 47.1752 24.2573 47.1736C24.2904 47.1703 24.3933 47.1638 24.4878 47.1442C24.6951 47.0985 24.8692 46.9859 24.9073 46.7557C24.9173 46.7034 24.9073 46.6561 24.8874 46.6186C24.8493 46.5516 24.7813 46.5173 24.7664 46.5124C24.7531 46.5075 24.7183 46.4994 24.6818 46.4994C24.647 46.4994 24.6022 46.5076 24.584 46.5108C24.5657 46.5141 24.4729 46.5239 24.3767 46.5288C24.1147 46.5402 23.8493 46.5565 23.5906 46.5728C22.1645 46.6757 20.7566 46.8193 19.342 46.9271C18.7682 46.9744 18.1928 47.012 17.6174 47.0446C17.5709 47.0479 17.5709 47.0414 17.6157 47.0348C18.0253 46.9483 18.4299 46.8602 18.8362 46.7671C19.8312 46.5288 20.8163 46.2611 21.7914 45.9982C22.7698 45.7403 23.7449 45.4873 24.7233 45.3485C25.0665 45.3012 25.4164 45.2702 25.7581 45.2604C25.768 45.2604 25.7763 45.2587 25.7829 45.2571C25.7979 45.2538 25.8891 45.2718 25.9803 45.2424C26.0333 45.2228 26.166 45.2163 26.2224 45.1885C26.4993 45.0694 26.3982 44.8441 26.3948 44.8C26.3915 44.7608 26.3816 44.7249 26.36 44.6972C26.3252 44.6498 26.0267 44.596 26.0134 44.596Z" />
<path d="M0.2299 32.2711C0.256433 32.2809 0.284624 32.2875 0.316132 32.2875C0.316132 32.2875 0.321108 32.2875 0.326083 32.2875C0.332716 32.2875 0.344324 32.294 0.355932 32.2989C0.364224 32.3021 0.369199 32.3038 0.379149 32.3038C1.45042 32.3723 2.50511 32.5356 3.52664 32.8425C4.06393 32.9976 4.59294 33.1886 5.12691 33.3844C5.39556 33.4824 5.66255 33.5869 5.93783 33.6832C6.21145 33.7762 6.48674 33.8693 6.76202 33.9542C7.86977 34.3019 9.02396 34.5516 10.1931 34.6463C10.7751 34.6953 11.3605 34.71 11.9393 34.7051C12.5197 34.7002 13.1001 34.6773 13.6805 34.6316C14.8397 34.5353 15.9988 34.341 17.1232 34.0031C18.2442 33.662 19.3337 33.1706 20.2922 32.4768C21.2524 31.7863 22.0716 30.8917 22.647 29.8617C23.2241 28.8283 23.5707 27.6807 23.6487 26.5021C23.6603 26.3568 23.511 26.236 23.3253 26.2311C23.1379 26.2295 22.9853 26.3307 22.9754 26.4613C22.9041 27.5338 22.584 28.5965 22.0583 29.5384C21.5293 30.4852 20.7814 31.3015 19.8926 31.9414C19.0037 32.5797 17.9855 33.0465 16.9209 33.3681C15.8546 33.6897 14.7435 33.8758 13.6225 33.9689C13.062 34.0129 12.4981 34.0391 11.9343 34.0407C11.3688 34.0456 10.8067 34.0342 10.2495 33.9852C9.13673 33.8938 8.03892 33.6571 6.96599 33.324C6.69734 33.2375 6.43035 33.1477 6.16502 33.0547C5.89969 32.9649 5.63436 32.8637 5.36571 32.7625C4.82676 32.5666 4.28117 32.3691 3.72066 32.2042C3.16015 32.041 2.58471 31.9071 2.00762 31.8157C1.46535 31.7292 0.91976 31.6737 0.375831 31.6377C0.359248 31.6361 0.345982 31.6377 0.334373 31.641C0.311157 31.6475 0.287941 31.6622 0.276333 31.6639C0.264724 31.6671 0.171859 31.6802 0.0988925 31.7422C0.0342181 31.7961 -0.00723924 31.8744 0.00105235 31.9626C0.00768563 32.0426 0.0375342 32.1258 0.102209 32.1797C0.112159 32.1879 0.122109 32.1911 0.130401 32.1993C0.142009 32.2124 0.183467 32.2515 0.2299 32.2711Z" />
<path d="M0.631212 25.9977C0.659404 25.9634 0.677645 25.9291 0.68262 25.9242C0.684278 25.921 0.685937 25.9161 0.689253 25.9128C1.24479 25.1603 1.74726 24.362 2.18174 23.5311C2.61622 22.7018 2.97442 21.8383 3.31769 20.9845C3.6593 20.1291 3.99594 19.2868 4.39394 18.4738C4.79193 17.6625 5.24963 16.8806 5.76371 16.1346C6.27779 15.3869 6.84493 14.6752 7.44524 13.9879C8.01405 13.3366 8.76526 12.8338 9.56789 12.4371C10.3738 12.0437 11.2378 11.7547 12.1234 11.554C13.0089 11.3515 13.916 11.234 14.8231 11.2111C15.2758 11.1997 15.7269 11.2128 16.1796 11.2536C16.6224 11.2944 17.0784 11.3695 17.5212 11.4576C18.415 11.6356 19.284 11.9 20.1098 12.2657C20.9357 12.6297 21.7134 13.095 22.4398 13.6337C23.1678 14.1724 23.846 14.7796 24.5077 15.4163C24.6719 15.5746 24.836 15.7346 24.9969 15.8962C25.1594 16.0595 25.3269 16.2227 25.4778 16.3811C25.7796 16.7043 26.0566 17.0569 26.3252 17.4225C26.8575 18.1539 27.3467 18.9293 27.8276 19.7096C28.3085 20.4899 28.7795 21.2816 29.272 22.0652C29.5606 22.5206 29.8524 22.9744 30.1642 23.4201C30.2173 23.4968 30.2803 23.6013 30.3101 23.6486C30.3267 23.6764 30.3499 23.7041 30.3732 23.7286C30.3781 23.7335 30.3814 23.7351 30.3831 23.7384C30.3881 23.7449 30.3997 23.7596 30.4113 23.7694C30.7778 24.1775 31.1575 23.8347 30.3831 22.5761C30.3798 22.568 30.3665 22.5582 30.3599 22.5533C30.3549 22.5467 30.3416 22.5141 30.3251 22.4814C30.3201 22.4602 30.3085 22.439 30.2985 22.4194C30.2919 22.4064 30.2869 22.3933 30.277 22.3819C30.262 22.3639 30.2405 22.3411 30.2339 22.3296C30.2322 22.3215 30.2289 22.3149 30.2239 22.3068C30.0962 22.1109 29.9702 21.915 29.8442 21.7175C29.3566 20.9421 28.8873 20.152 28.4031 19.3668C27.9172 18.5783 27.423 17.7947 26.8691 17.0357C26.5938 16.6553 26.297 16.2847 25.9703 15.9321C25.8045 15.7526 25.6403 15.5959 25.4761 15.431C25.312 15.2677 25.1445 15.1045 24.977 14.9412C24.3054 14.2964 23.6022 13.668 22.8427 13.1048C22.0849 12.5416 21.2607 12.0469 20.3851 11.6617C19.5112 11.2748 18.5891 10.9957 17.6572 10.8096C17.1862 10.7182 16.7252 10.6398 16.241 10.5941C15.7601 10.55 15.2808 10.537 14.8049 10.5484C13.8497 10.5745 12.9011 10.6969 11.9708 10.9091C11.0421 11.123 10.1317 11.425 9.26774 11.8462C8.83657 12.0584 8.41868 12.3016 8.024 12.5824C7.63097 12.8648 7.25785 13.1864 6.93614 13.5569C6.31925 14.2589 5.73717 14.9935 5.20651 15.764C4.67419 16.5361 4.19826 17.3475 3.78699 18.1882C3.37407 19.0256 3.02914 19.8908 2.68919 20.7413C2.34757 21.5934 1.99933 22.4292 1.57977 23.2291C1.31776 23.7335 1.03087 24.2216 0.720762 24.695C0.71247 24.7081 0.70252 24.726 0.695887 24.7456C0.68262 24.7734 0.637846 24.8664 0.594729 24.9497C0.530055 25.0754 0.470356 25.2011 0.415632 25.3317C0.375832 25.4263 0.336032 25.5161 0.312816 25.6206C0.309499 25.6353 0.306182 25.6467 0.304523 25.6614C0.299549 25.6826 0.281308 25.7186 0.271358 25.743C0.264724 25.7561 0.25809 25.7724 0.256432 25.7887C0.254774 25.7969 0.253116 25.8051 0.251457 25.8149C0.216633 25.9879 0.397389 26.1626 0.571513 26.0548C0.594729 26.0369 0.614629 26.0206 0.631212 25.9977Z" />
<path d="M22.6056 48.3848C22.0053 48.362 21.5592 48.3424 20.9622 48.3457C19.022 48.3506 17.0967 48.5187 15.1896 48.6215C14.712 48.6477 14.2361 48.6705 13.7634 48.677C13.5263 48.6787 13.2908 48.6787 13.0553 48.6754C12.8248 48.6689 12.586 48.6526 12.3456 48.6428C11.392 48.5889 10.4435 48.5089 9.49658 48.3979C8.81999 48.3179 8.14506 48.2167 7.47509 48.0975C7.38057 48.0812 7.25454 48.042 7.19152 48.0143C7.15172 47.9963 7.11358 47.9833 7.07378 47.9686C7.04062 47.9604 7.01077 47.9588 6.98257 47.962C6.93117 47.9653 6.88805 47.9931 6.8781 47.9931C6.86649 47.998 6.82669 48.0535 6.81177 48.1286C6.79684 48.2004 6.80182 48.3228 6.82835 48.393C6.84327 48.4338 6.86981 48.4697 6.91126 48.4975C7.1683 48.6689 7.46846 48.7603 7.77359 48.8027C7.86977 48.8191 7.97756 48.8403 8.01902 48.8468C8.06048 48.8534 8.12516 48.8582 8.16661 48.8746C8.1948 48.886 8.22134 48.8893 8.24289 48.8942C8.63426 48.9529 9.02562 49.0068 9.41864 49.0558C10.3788 49.17 11.3456 49.2484 12.3108 49.3039C12.5512 49.3153 12.7917 49.3317 13.0404 49.3349C13.2842 49.3414 13.5296 49.3414 13.7734 49.3382C14.2609 49.3333 14.7452 49.3104 15.2261 49.2843C17.153 49.1798 19.0601 49.0133 20.9672 49.0052C21.4216 49.0052 21.8759 49.0101 22.3303 49.0346C22.3486 49.0346 22.3701 49.0329 22.3917 49.028C22.4282 49.0199 22.5243 49.028 22.6072 49.0166C22.6935 49.0068 22.7946 48.9872 22.8444 48.9872C22.8709 48.9872 22.8991 48.9839 22.9273 48.9774C22.9572 48.9742 22.987 48.9627 23.0169 48.948C23.0616 48.9268 23.1197 48.8909 23.1495 48.8762C23.1644 48.8648 23.1794 48.855 23.191 48.8403C23.2125 48.8158 23.2308 48.7897 23.2391 48.7619C23.2573 48.7113 23.2706 48.6232 23.259 48.5693C23.244 48.5138 23.2623 48.4093 22.6056 48.3848Z" />
<path d="M19.876 49.8312C19.7831 49.8573 19.687 49.8704 19.6621 49.8704C19.6455 49.8704 19.6322 49.8704 19.614 49.8736C18.6008 50.1103 18.2707 50.3127 16.707 50.4091C16.4715 50.4254 16.1547 50.4646 15.9176 50.4825C15.8579 50.4841 15.3455 50.4482 14.8463 50.427C14.7501 50.4221 14.5959 50.4156 14.4997 50.4025C14.1648 50.347 12.0156 50.0842 11.3572 49.8981C11.0869 49.8181 10.9725 50.2311 11.2395 50.3111C11.6905 50.4368 12.1433 50.5576 12.601 50.6327C13.7402 50.8825 14.8845 51 15.9972 51C17.3918 51 18.8097 50.729 20.1778 50.1887C20.3204 50.1462 20.4597 50.1054 20.6007 50.0532C20.861 49.9618 20.7499 49.5455 20.4813 49.6402C20.2806 49.7136 20.08 49.774 19.876 49.8312Z" />
<path d="M3.25965 13.1766C3.3094 13.095 3.39397 12.9676 3.45533 12.8942C4.03906 12.1824 4.6941 11.5278 5.40551 10.9369C6.05723 10.3933 6.75538 9.9003 7.48339 9.45465C7.84656 9.23101 8.21968 9.02042 8.59778 8.818L8.88135 8.66945C8.97421 8.62211 9.06874 8.5764 9.16326 8.53233C9.35231 8.44418 9.54633 8.36582 9.74367 8.29073C10.533 7.99036 11.3622 7.78141 12.2046 7.63939C13.0454 7.50063 13.9011 7.4288 14.7568 7.42227C16.4682 7.40921 18.1829 7.65245 19.818 8.15034C21.4531 8.6466 23.0036 9.39752 24.3999 10.3737C25.4944 11.1361 26.4877 12.0339 27.3749 13.0264C27.4379 13.0966 27.5888 13.2452 27.7182 13.428C27.9106 13.7039 28.0532 14.0173 28.0565 14.0222C28.0565 14.0271 28.0697 14.0369 28.0714 14.0401C28.1112 14.1054 28.0897 14.0597 28.151 14.063C28.2472 14.0728 28.3583 14.0042 28.3931 13.9667C28.4163 13.9438 28.4246 13.9144 28.4346 13.8834C28.5308 13.5406 28.209 13.0068 27.8442 12.5318C27.7862 12.4567 27.6751 12.3522 27.6137 12.2804C27.6038 12.2706 27.5988 12.2592 27.5872 12.2494C27.5225 12.1792 27.4495 12.1253 27.4429 12.1139C27.4363 12.1073 27.4296 12.1008 27.423 12.0943C26.6254 11.2601 25.7431 10.4978 24.7879 9.83174C23.3353 8.81637 21.7184 8.0328 20.0153 7.51695C18.3122 6.99947 16.5312 6.74482 14.7518 6.75787C13.8596 6.76604 12.9708 6.8395 12.0902 6.98478C11.2113 7.1317 10.3423 7.35208 9.4999 7.6704C9.28929 7.75203 9.082 7.83691 8.87637 7.93323C8.77356 7.97893 8.6724 8.02954 8.57124 8.08178L8.27606 8.23359C7.88636 8.44091 7.50163 8.65966 7.12519 8.88983C6.37231 9.35017 5.64763 9.86439 4.96772 10.4325C4.51665 10.8096 4.08715 11.2095 3.68086 11.6323C3.64935 11.6666 3.6079 11.7319 3.59131 11.776C3.58965 11.7792 3.58965 11.7825 3.58965 11.7858C3.58799 11.7923 3.65267 11.7025 3.59131 11.776C3.44041 11.9588 3.10211 12.2869 2.74225 12.8452C2.39235 13.3855 2.96944 13.5831 3.13362 13.3627C3.18005 13.3023 3.22151 13.2403 3.25965 13.1766Z" />
<path d="M8.46677 3.17796C8.47174 3.17796 8.48169 3.17796 8.48998 3.17469H8.49164C8.4933 3.17469 8.51818 3.17306 8.54803 3.1649C8.57788 3.1551 8.67406 3.12082 8.76692 3.09307C8.89295 3.05716 9.0223 3.02124 9.14999 2.98696C11.2063 2.45642 13.3688 2.33399 15.513 2.34052C17.6373 2.36011 19.7417 2.84657 21.6968 3.67258C21.9373 3.77379 22.0583 3.82603 22.2922 3.93704C22.3784 3.97785 22.4414 4.0007 22.4597 4.02029C22.4729 4.03172 22.6222 4.12313 22.6338 4.13456C22.6703 4.1819 22.72 4.20475 22.7648 4.20639C22.8494 4.20802 22.997 4.13783 23.0517 4.05947C23.0882 4.00397 23.0948 3.92887 23.0384 3.85378C22.7863 3.5273 22.4563 3.32977 22.1098 3.1502C22.0252 3.10613 21.8909 3.02777 21.8096 2.98043C21.7317 2.93636 21.4232 2.84494 21.3337 2.81066C20.5161 2.5005 19.6737 2.24421 18.8197 2.05648C17.7368 1.81977 16.6323 1.68918 15.5246 1.67612C14.4268 1.67286 13.3356 1.70387 12.2411 1.80345C11.3655 1.88344 10.4899 2.00424 9.62759 2.1936C9.53307 2.21319 9.44849 2.23115 9.43854 2.23278C9.43191 2.23278 9.42528 2.23441 9.41864 2.23604C9.03723 2.32256 8.53973 2.53804 8.22963 2.76332C8.12184 2.84331 8.07872 3.06369 8.12847 3.15347C8.16827 3.23672 8.4535 3.17796 8.46677 3.17796Z" />
<path d="M14.8132 0.677073C16.2426 0.792975 17.6721 0.9301 19.0584 1.27781C19.1165 1.2925 19.1745 1.29903 19.2259 1.32025C20.4133 1.841 20.5128 1.35453 20.2956 1.17823C19.6952 0.691765 18.8528 0.521992 17.9474 0.348955C17.9092 0.344057 17.4963 0.27876 17.4499 0.270598C16.5842 0.133474 15.7136 0.0469553 14.8397 0.0143067C14.4699 0.00124721 14.1001 -0.00365003 13.7319 0.00287969C13.6838 0.00287969 11.6822 0.0632792 11.0322 0.51383C10.5811 0.828889 10.8879 1.17823 11.5396 0.913775C11.5745 0.897451 13.5827 0.577495 14.8132 0.677073Z" />
<path d="M6.21643 6.13755C6.27116 6.1098 6.31593 6.07878 6.31759 6.07715C6.32091 6.07552 6.32256 6.07552 6.32588 6.07389C6.36734 6.05103 6.40714 6.02655 6.45025 6.00369C7.63429 5.35398 8.8913 4.82345 10.1914 4.44146C11.4899 4.05947 12.8348 3.82113 14.1747 3.82277C14.5329 3.82277 14.8695 3.81297 15.2078 3.8195C15.5478 3.82277 15.8828 3.83583 16.2211 3.86358C16.8943 3.91418 17.5643 4.01539 18.2243 4.15905C19.5443 4.44635 20.8312 4.90017 22.06 5.47152C23.0119 5.91064 23.9306 6.41996 24.8161 6.97825C24.8228 6.98152 24.8277 6.98315 24.8311 6.98478C24.8393 6.98968 25.0516 7.13007 25.1445 7.1317C25.3916 7.14313 25.4944 6.93255 25.234 6.66156C24.9654 6.38568 24.3684 5.94493 24.2042 5.84861C24.118 5.8029 24.0301 5.74903 24.0052 5.72944C23.9903 5.71475 23.972 5.70333 23.9588 5.69516C23.4314 5.40133 22.8958 5.12545 22.3486 4.87079C21.0799 4.28311 19.7483 3.80807 18.3669 3.51097C17.6787 3.36079 16.9773 3.25631 16.2725 3.20244C15.9226 3.17469 15.5677 3.16 15.2178 3.1551C14.8662 3.1502 14.5113 3.16 14.178 3.16C12.7519 3.15673 11.3473 3.41139 9.99906 3.80481C8.99411 4.10191 8.01571 4.48227 7.07378 4.93608C7.06715 4.93772 7.05886 4.94425 7.04891 4.95078C7.03564 4.95894 6.18161 5.37357 5.91296 5.79474C5.89803 5.8176 5.88477 5.84535 5.87813 5.85188C5.87648 5.85677 5.8715 5.86167 5.86984 5.86657C5.78195 6.02491 5.92623 6.24203 6.11527 6.18163C6.1501 6.16857 6.18492 6.15388 6.21643 6.13755Z" />
<path d="M30.7828 30.1686C30.7794 30.1686 30.7712 30.1653 30.7562 30.1653C30.7496 30.1653 30.743 30.1653 30.733 30.1653C30.4461 30.2486 30.1443 30.2649 29.8408 30.2241C29.4743 30.1751 29.1062 30.0445 28.7563 29.8682C28.0581 29.5107 27.4363 28.9802 26.8824 28.3925C26.5623 28.048 26.2622 27.684 25.9819 27.302C25.9537 27.2628 25.9123 27.1959 25.8907 27.1535C25.8725 27.1241 25.8559 27.0931 25.8393 27.0604C25.826 27.0359 25.8128 27.0196 25.7945 27.0049C25.7663 26.9755 25.7183 26.9266 25.6917 26.8874C25.5939 26.7454 25.4994 26.6017 25.4082 26.4548C25.1909 26.1103 24.9886 25.7545 24.7979 25.3953C24.7034 25.2125 24.6105 25.0313 24.5226 24.8452L24.2606 24.2788C23.8875 23.5099 23.453 22.7785 22.9688 22.0799C22.4829 21.3796 21.9472 20.7135 21.3453 20.0997C20.745 19.4876 20.08 18.9276 19.3354 18.4673C18.5974 18.007 17.7749 17.6511 16.9026 17.4715C16.0287 17.2903 15.1166 17.2968 14.2493 17.4846C13.8148 17.576 13.3936 17.7115 12.9873 17.8764L12.8348 17.9384C12.7817 17.9612 12.7303 17.9857 12.6772 18.0102C12.5744 18.0592 12.4733 18.1147 12.3738 18.1718C12.1764 18.2861 11.9907 18.4183 11.8149 18.562C11.1134 19.1399 10.6126 19.9038 10.2826 20.7135C9.95594 21.5281 9.78679 22.3966 9.80006 23.2748C9.80835 23.7156 9.86307 24.1563 9.98413 24.5889C10.1068 25.0199 10.2976 25.4492 10.5977 25.8165C10.6723 25.9096 10.7519 25.9977 10.8415 26.081C10.9327 26.1658 11.0173 26.2311 11.1118 26.3046C11.2959 26.4417 11.4998 26.5658 11.7187 26.6637C12.1549 26.858 12.6689 26.9347 13.1532 26.8417C13.6391 26.7519 14.0802 26.5135 14.4284 26.1952C14.7767 25.8736 15.047 25.4721 15.1995 25.0182C15.2742 24.793 15.3189 24.5546 15.3223 24.3081C15.3239 24.0633 15.2841 23.8119 15.1929 23.5768C15.1034 23.3417 14.9624 23.123 14.7899 22.9451C14.6175 22.7639 14.4135 22.6169 14.2029 22.5043C14.1996 22.5027 14.1963 22.4994 14.1913 22.4978C14.1847 22.4961 14.178 22.4929 14.1764 22.4912C14.1747 22.4896 14.173 22.488 14.1714 22.4863C13.926 22.3019 13.717 22.0799 13.6158 21.8399C13.513 21.6016 13.5213 21.3551 13.6407 21.1249C13.7585 20.8931 13.9807 20.689 14.2377 20.5421C14.4964 20.3919 14.7933 20.2924 15.0984 20.2466C15.4035 20.2026 15.7186 20.2075 16.0221 20.2679C16.1746 20.2973 16.3156 20.3397 16.4764 20.3968C16.634 20.4523 16.7882 20.5111 16.9408 20.5748C17.5461 20.8294 18.095 21.1869 18.478 21.675C18.8694 22.1582 19.0817 22.7671 19.1745 23.407C19.2027 23.5686 19.2176 23.7303 19.2326 23.8935C19.2409 24.0551 19.2525 24.2265 19.2525 24.3832C19.2541 24.7032 19.2243 25.0248 19.1629 25.3415C18.9175 26.6148 18.2077 27.7934 17.2525 28.6977C16.2957 29.5988 15.0652 30.2404 13.7618 30.4036C13.1117 30.4885 12.4501 30.4493 11.8182 30.2861C11.659 30.2485 11.5048 30.1996 11.3489 30.1441C11.1914 30.0886 11.0355 30.0282 10.8829 29.9629C10.5761 29.8355 10.2777 29.687 9.99076 29.5156C9.41864 29.1793 8.89461 28.7663 8.42697 28.2962C7.95932 27.826 7.54806 27.2987 7.18821 26.7356C6.82835 26.1691 6.52322 25.5733 6.24296 24.9546C6.09869 24.6444 5.96934 24.3326 5.81014 24.0061L5.77698 23.9408L5.71894 23.8347C5.67582 23.7596 5.62939 23.6862 5.58129 23.6258C5.47848 23.4968 5.36571 23.4201 5.2347 23.3972C5.17169 23.3842 5.09375 23.3891 5.02907 23.4054C4.9644 23.425 4.90802 23.4544 4.85495 23.4984C4.74716 23.5833 4.65927 23.7303 4.59459 23.887C4.57801 23.9261 4.55148 24.0829 4.55148 24.0861C4.55148 24.091 4.54816 24.1041 4.54153 24.1122C4.53655 24.1171 4.5349 24.122 4.53158 24.1269C4.43042 24.269 4.35414 24.4044 4.27951 24.5367L3.84669 25.3153C3.5598 25.823 3.2497 26.3095 2.87989 26.7372C2.51175 27.1665 2.08556 27.5403 1.60133 27.8015C1.24811 27.9925 0.861719 28.1248 0.463723 28.1933C0.462064 28.1933 0.458748 28.195 0.455432 28.1966C0.450457 28.1982 0.387441 28.1966 0.326083 28.226C0.263067 28.2554 0.208342 28.3174 0.191758 28.3386C0.18015 28.3484 0.171859 28.3647 0.161909 28.3778C0.100551 28.4774 0.100552 28.5965 0.118793 28.7059C0.135376 28.799 0.238192 28.8643 0.329399 28.8643C0.329399 28.8643 0.344324 28.8643 0.359249 28.8643C0.375832 28.8643 0.399049 28.8691 0.408999 28.8708C0.415632 28.8724 0.422265 28.8724 0.430557 28.8708C0.951269 28.7973 1.46535 28.6357 1.92802 28.381C2.50014 28.0742 2.98934 27.6416 3.39563 27.1665C3.80523 26.6898 4.1369 26.1691 4.4354 25.6386L4.86822 24.8583C4.93787 24.7326 5.01083 24.6101 5.08214 24.5089C5.11696 24.4583 5.14847 24.393 5.17832 24.393C5.34415 24.3898 5.63436 25.7871 7.94274 28.7647C8.38219 29.3311 9.01899 29.7196 9.64252 30.0869C9.95594 30.2714 10.2777 30.433 10.611 30.575C10.7768 30.6436 10.946 30.7089 11.1184 30.7693C11.2892 30.8297 11.4683 30.8836 11.6458 30.9309C12.3622 31.1137 13.1134 31.1545 13.8464 31.0599C14.576 30.9685 15.2858 30.7432 15.9375 30.4183C16.5925 30.0935 17.1895 29.669 17.7169 29.1744C18.2409 28.6749 18.6953 28.1068 19.0568 27.4816C19.4166 26.858 19.687 26.1756 19.8229 25.4623C19.8926 25.1064 19.9291 24.744 19.9274 24.3767C19.9257 24.1922 19.9141 24.0192 19.9009 23.8396C19.8893 23.6617 19.8694 23.4838 19.8412 23.3042C19.7881 22.9467 19.7019 22.5876 19.5676 22.2398C19.4349 21.8938 19.2475 21.5575 19.012 21.2604C18.7782 20.9617 18.4913 20.7037 18.1829 20.4915C17.8744 20.276 17.5461 20.1046 17.2094 19.9593C17.0436 19.8875 16.8711 19.8238 16.7003 19.7651C16.5378 19.7079 16.3421 19.6475 16.1531 19.6133C15.775 19.5382 15.3803 19.5284 14.9989 19.5871C14.6158 19.6459 14.241 19.7667 13.8978 19.9659C13.5595 20.1634 13.2411 20.4376 13.0421 20.8213C12.9426 21.0106 12.8812 21.2277 12.8729 21.4514C12.8646 21.675 12.9127 21.8987 12.9956 22.0929C13.1681 22.4896 13.4583 22.7785 13.7601 23.0104C13.7717 23.0169 13.7817 23.025 13.7916 23.0316C13.8099 23.0414 13.8364 23.0577 13.8513 23.0659C13.8613 23.0724 13.8696 23.0773 13.8812 23.0838C14.1996 23.2536 14.445 23.5033 14.5627 23.8102C14.6821 24.1171 14.6689 24.4763 14.5578 24.8109C14.3339 25.4851 13.722 26.0646 13.0271 26.1903C12.6822 26.2556 12.3224 26.2034 11.9907 26.0565C11.8249 25.9863 11.6673 25.89 11.5181 25.7773C11.3638 25.6614 11.2328 25.5439 11.1217 25.4019C10.8945 25.1227 10.7337 24.775 10.6309 24.4093C10.5281 24.042 10.4783 23.6535 10.4717 23.2617C10.4601 22.4798 10.6126 21.6864 10.9062 20.9584C11.203 20.2303 11.6491 19.5594 12.2461 19.068C12.3937 18.9472 12.5512 18.8362 12.717 18.7383C12.8 18.6909 12.8829 18.6452 12.9708 18.6044C13.0139 18.5832 13.057 18.5636 13.1018 18.544L13.2411 18.4853C13.6125 18.3351 13.9973 18.2126 14.3886 18.1294C15.1714 17.9629 15.9806 17.9563 16.76 18.1163C17.5411 18.2763 18.2906 18.5995 18.9739 19.024C19.5394 19.3749 20.0617 19.7945 20.5476 20.2548C20.5824 20.2875 20.6156 20.3397 20.6289 20.3691C20.6339 20.387 20.6438 20.405 20.6571 20.4197C21.0451 20.9584 21.3751 21.5346 21.6206 22.1419C21.866 22.7492 22.0235 23.3891 22.0816 24.0355C22.1379 24.6836 22.0899 25.3382 21.9522 25.9765C21.8113 26.6148 21.5774 27.2335 21.2723 27.8179C20.6604 28.9883 19.7732 30.02 18.7284 30.8574C18.2077 31.2753 17.6439 31.6459 17.0519 31.9528C16.4549 32.2532 15.8314 32.4931 15.1863 32.627C13.8745 32.8947 12.5015 32.88 11.1781 32.6335C9.85644 32.3805 8.57456 31.8924 7.47012 31.1497C6.9179 30.7824 6.41543 30.3449 5.98924 29.8486C5.77697 29.5988 5.58461 29.3344 5.41712 29.0601L5.38395 29.003L5.32757 28.91L5.26621 28.799C5.24631 28.763 5.22475 28.7239 5.20154 28.6961C5.17666 28.6651 5.15511 28.6308 5.12857 28.6031C5.1037 28.5786 5.07882 28.5541 5.05229 28.5378C4.99757 28.5002 4.94616 28.479 4.87982 28.4659C4.81183 28.4545 4.73721 28.4627 4.68083 28.479C4.62279 28.497 4.5664 28.5263 4.51168 28.5737C4.40223 28.6651 4.31102 28.8234 4.22147 28.9671L4.15017 29.0863L4.08549 29.1891C4.04237 29.2593 3.99926 29.3262 3.95283 29.3915C3.86162 29.5189 3.76543 29.6397 3.6593 29.7507C3.44704 29.9759 3.19995 30.1588 2.92301 30.2894C2.61456 30.4395 2.27461 30.5277 1.91973 30.5685C1.87329 30.575 1.79535 30.575 1.74726 30.5718C1.37248 30.5489 0.994385 30.5408 0.61463 30.5554C0.518448 30.5603 0.380807 30.5277 0.301208 30.5375C0.253117 30.5424 0.21 30.562 0.175176 30.5979C0.151959 30.6191 0.135377 30.6452 0.125427 30.6746C0.107185 30.7203 0.100551 30.7873 0.0906009 30.8232C0.085626 30.8411 0.0839684 30.8607 0.0823101 30.8836C0.0789935 30.9505 0.107185 31.0191 0.137035 31.0778C0.160251 31.1219 0.195076 31.166 0.238192 31.1905C0.249801 31.197 0.258091 31.2019 0.268041 31.2052C0.284624 31.2101 0.311157 31.2247 0.327741 31.2329C0.339349 31.2378 0.350958 31.2394 0.362566 31.2378C0.511815 31.2247 1.06403 31.1709 1.75555 31.2492C1.80364 31.2558 1.88159 31.246 1.92968 31.2509C2.30943 31.2835 2.68753 31.3309 3.06563 31.3929C4.03077 31.5545 4.98762 31.7994 5.94281 32.0622C6.898 32.3266 7.85153 32.6139 8.82662 32.8702C9.80006 33.12 10.7934 33.3502 11.8332 33.4155C11.8348 33.4155 11.8381 33.4155 11.8414 33.4138C11.8464 33.4122 11.8895 33.4155 11.9376 33.4171C13.0603 33.5428 14.2062 33.5052 15.3189 33.2767C16.0387 33.1282 16.7169 32.867 17.3537 32.5405C17.9921 32.214 18.5941 31.8189 19.1463 31.3733C20.2574 30.4836 21.201 29.3883 21.8643 28.1231C22.196 27.4914 22.4481 26.8188 22.6006 26.1185C22.7548 25.4231 22.8046 24.6967 22.7416 23.9816C22.7051 23.5229 22.6172 23.0675 22.4879 22.6251C22.4729 22.5794 22.4845 22.5745 22.5111 22.6153C22.9323 23.2389 23.3154 23.8902 23.6387 24.5628L23.7598 24.8223C23.778 24.8664 23.7896 24.9252 23.7896 24.9562C23.7896 24.9742 23.7913 24.9921 23.7963 25.0117C24.0848 26.2262 24.1644 27.4897 23.8958 28.6928C23.7681 29.2936 23.5492 29.8698 23.254 30.4085C22.9555 30.9472 22.5824 31.4468 22.1496 31.8924C21.2839 32.7853 20.1977 33.4661 19.0336 33.9738C17.8661 34.4814 16.624 34.8194 15.3604 35.0365C14.0951 35.2536 12.8049 35.345 11.5164 35.3352C10.2279 35.3254 8.93939 35.2144 7.6658 35.0103C5.20983 34.612 2.80527 33.8758 0.589755 32.7723C0.505181 32.7315 0.417291 32.6743 0.390757 32.6613C0.374174 32.6515 0.35759 32.6433 0.339349 32.6433C0.33769 32.6433 0.334375 32.6433 0.331058 32.6433C0.326083 32.6433 0.322766 32.6433 0.31945 32.6417C0.317791 32.6417 0.316133 32.6401 0.314475 32.6401C0.312817 32.6401 0.311157 32.6401 0.309499 32.6401C0.307841 32.6401 0.221609 32.627 0.140351 32.6743C0.0939181 32.7021 0.0574357 32.7494 0.0425108 32.8115C0.0192943 32.9078 0.0491439 32.9976 0.0889435 33.0824C0.11216 33.1331 0.143668 33.1804 0.183468 33.2261C0.246484 33.2979 0.324424 33.3583 0.345982 33.3828C0.35759 33.3959 0.372516 33.4106 0.389099 33.4187C2.64441 34.5255 5.07551 35.2666 7.55469 35.6666C8.86145 35.8755 10.1831 35.9898 11.5098 36.0012C12.8331 36.0127 14.1614 35.918 15.4732 35.6927C16.7816 35.4707 18.0751 35.1181 19.3039 34.5827C20.5277 34.0456 21.6885 33.324 22.6338 32.3511C23.1031 31.8696 23.5177 31.3243 23.8427 30.7301C24.1677 30.1375 24.4082 29.4944 24.5558 28.8365C24.7 28.177 24.7515 27.5044 24.7282 26.8351C24.7266 26.8009 24.7249 26.7633 24.7216 26.7258C24.7183 26.6801 24.7382 26.6735 24.7631 26.7127C24.7813 26.7437 24.7995 26.7747 24.8211 26.8074C24.972 27.0474 25.1312 27.2841 25.2921 27.5175C25.3186 27.5534 25.3601 27.6203 25.3816 27.6644C25.6188 28.1362 25.8012 28.6292 25.899 29.1385C26.0168 29.749 26.0101 30.3742 25.8692 30.975C25.7315 31.5725 25.4612 32.1438 25.1014 32.6662C24.7448 33.1853 24.307 33.6587 23.8228 34.0831C22.8494 34.9369 21.7084 35.6095 20.5194 36.1645C19.3221 36.7228 18.0734 37.1554 16.7866 37.4688C14.2162 38.0924 11.5297 38.2262 8.88964 37.9765C7.56796 37.8491 6.25623 37.6255 4.96772 37.3088C4.32263 37.1488 3.68418 36.9676 3.05899 36.7587C2.43215 36.5497 1.81359 36.313 1.22655 36.0388C1.08393 35.9702 0.89986 36.0437 0.813628 36.2037C0.727395 36.3669 0.778803 36.5612 0.933027 36.6346C1.55821 36.9301 2.19667 37.1717 2.84175 37.3839C3.48684 37.601 4.14187 37.7887 4.80354 37.9487C6.12356 38.2752 7.46846 38.5021 8.82331 38.6327C11.5297 38.8906 14.2924 38.7535 16.9474 38.1071C18.2724 37.7871 19.5676 37.3366 20.803 36.7603C22.0401 36.1873 23.2291 35.4838 24.2689 34.5761C24.7863 34.119 25.2639 33.6097 25.6586 33.0302C26.0532 32.4572 26.3633 31.8075 26.5225 31.1203C26.6751 30.4657 26.6917 29.78 26.5789 29.1238C26.5706 29.0797 26.5889 29.0683 26.622 29.101C27.1527 29.6282 27.7397 30.1065 28.4296 30.4608C28.8309 30.6632 29.2704 30.8215 29.7347 30.8803C30.0498 30.9244 30.3765 30.9146 30.6949 30.8509C30.6982 30.8509 30.6998 30.8493 30.6998 30.8493C30.7015 30.8493 30.7131 30.8493 30.7247 30.8493C30.7297 30.8493 30.733 30.8477 30.7413 30.8477C30.7911 30.8395 30.8458 30.8036 30.8823 30.7693C30.9005 30.753 30.9138 30.7317 30.9254 30.704C30.942 30.6665 30.9469 30.6142 30.9552 30.6012C30.9602 30.5897 30.9635 30.5816 30.9685 30.5734C30.9884 30.5146 30.9884 30.4444 30.9884 30.3824C30.9884 30.2665 30.8889 30.1669 30.7695 30.1669C30.7844 30.1669 30.7844 30.1669 30.7828 30.1686ZM6.99418 31.6622C6.70895 31.5822 6.42206 31.5006 6.13517 31.419C5.27285 31.1807 4.40057 30.9603 3.51005 30.7938C3.46196 30.7873 3.45699 30.7611 3.5001 30.7334C3.74222 30.5848 3.96443 30.4053 4.1568 30.2028C4.2878 30.0657 4.40886 29.9188 4.51499 29.767C4.56806 29.6886 4.61947 29.6135 4.66756 29.5384L4.73887 29.4225C4.73887 29.4225 4.75213 29.4013 4.76872 29.3736C4.7853 29.3458 4.80852 29.3393 4.82012 29.3605L4.84334 29.3981C5.03073 29.7098 5.243 30.0021 5.48014 30.2779C5.92457 30.797 6.44528 31.2525 7.00745 31.6394C7.04393 31.6655 7.04061 31.6769 6.99418 31.6622Z" />
<path d="M30.6617 33.6375C30.6103 33.5934 30.5406 33.5803 30.5324 33.5754C30.5241 33.5722 30.5158 33.5705 30.5075 33.5705C30.2819 33.5705 30.0531 33.5999 29.8408 33.6522C29.4826 33.7419 29.1543 33.8823 28.8458 34.0407C28.2323 34.3672 27.69 34.7655 27.161 35.1703C26.1129 35.9784 25.1179 36.824 24.0583 37.5765C23.0019 38.3323 21.8909 38.9984 20.7052 39.4963C19.5178 40.0007 18.2625 40.3451 16.9839 40.5769C15.7037 40.8087 14.4035 40.9263 13.0985 40.9589C11.7917 40.9932 10.4833 40.9426 9.17984 40.8234C7.87641 40.7043 6.57794 40.5182 5.29275 40.2684C4.65264 40.1411 4.01418 39.9991 3.38236 39.8342C3.06728 39.7526 2.75386 39.666 2.44376 39.5697C2.13697 39.4734 1.82852 39.3738 1.54163 39.2563C1.52339 39.2481 1.50515 39.2432 1.48856 39.24C1.45871 39.2351 1.40731 39.2269 1.37248 39.2171C1.35258 39.2106 1.33102 39.2073 1.30781 39.2073C1.14198 39.2041 1.04248 39.3722 1.08559 39.5191C1.11213 39.6089 1.17348 39.6922 1.25308 39.7575C1.32605 39.8179 1.41394 39.8783 1.44379 39.9109C1.46203 39.9289 1.48525 39.9436 1.50681 39.9533C1.75389 40.0464 1.99933 40.1247 2.24641 40.2031C2.56647 40.3011 2.88819 40.3892 3.21322 40.4757C3.85996 40.6422 4.51002 40.7875 5.1634 40.9165C6.47181 41.1711 7.79017 41.3605 9.11849 41.4829C10.4451 41.6037 11.7801 41.656 13.1167 41.6217C14.4516 41.5874 15.7899 41.4666 17.1066 41.2283C18.4266 40.9899 19.7284 40.6292 20.9705 40.1068C22.2142 39.5844 23.3717 38.8857 24.453 38.112C25.5408 37.3415 26.5474 36.4844 27.5756 35.6911C28.0913 35.296 28.6137 34.9173 29.1659 34.63C29.5755 34.4129 30.01 34.2562 30.4312 34.2366C30.4494 34.2349 30.4644 34.23 30.4809 34.2202C30.5042 34.2088 30.5672 34.1892 30.6186 34.1599C30.6501 34.1419 30.675 34.1174 30.6915 34.0831C30.7231 34.008 30.7347 33.9264 30.738 33.8448C30.738 33.835 30.738 33.8301 30.738 33.8187C30.738 33.8138 30.738 33.8105 30.738 33.8056C30.738 33.8007 30.7363 33.7828 30.7347 33.7681C30.733 33.7566 30.7313 33.7468 30.7297 33.7403C30.7181 33.6995 30.6949 33.6636 30.6617 33.6375Z" />
<path d="M28.8956 40.5688C28.8873 40.5688 28.8773 40.5688 28.874 40.5688C28.8724 40.5688 28.8707 40.5688 28.8691 40.5688C28.8674 40.5688 28.8624 40.5671 28.8591 40.5671C28.8541 40.5671 28.8525 40.5655 28.8475 40.5655C28.8409 40.5655 28.8376 40.5671 28.8293 40.5671C28.8243 40.5671 28.8177 40.5671 28.8127 40.5671C28.5606 40.5933 28.3152 40.6357 28.0731 40.6879C27.5126 40.8136 26.9786 40.9834 26.4496 41.163C25.3965 41.5286 24.3767 41.9465 23.3568 42.3644C22.3386 42.7823 21.327 43.2068 20.3038 43.5937C19.7947 43.7863 19.2823 43.9675 18.7666 44.1291C18.2525 44.2891 17.1149 44.5992 17.0668 44.6107C16.6522 44.6939 16.236 44.7706 15.8181 44.8408C13.6606 45.1983 11.465 45.3208 9.28432 45.1853C7.43695 45.0694 5.59954 44.7739 3.79529 44.343C3.70076 44.3217 3.62448 44.2989 3.62448 44.2989L3.62282 44.2972C3.44538 44.1454 3.13859 44.3446 3.28287 44.5601C3.43211 44.7821 3.6792 45.0008 3.95614 45.04C3.95946 45.04 3.96443 45.0416 3.96775 45.0416C3.97272 45.0416 3.9976 45.0596 4.02082 45.071C4.0374 45.0792 4.05398 45.0873 4.06891 45.0906C5.76868 45.4775 7.49997 45.7387 9.24452 45.8464C11.4766 45.9901 13.727 45.8627 15.9292 45.4971C17.032 45.3159 18.1215 45.0775 19.1977 44.8082C20.274 44.5405 21.3386 44.2385 22.4033 43.9659C23.4663 43.6932 24.5309 43.4386 25.5955 43.3635C26.1245 43.326 26.6552 43.3374 27.1676 43.4239C27.2638 43.437 27.3583 43.4598 27.4512 43.4794C27.4678 43.4827 27.4794 43.4827 27.496 43.4794C27.5192 43.4745 27.5606 43.4712 27.5922 43.4696C27.6087 43.4696 27.6286 43.4647 27.6452 43.4614C27.7298 43.4272 27.7895 43.3798 27.8442 43.308C27.8757 43.259 27.9006 43.2052 27.9172 43.1529C27.9338 43.1088 27.9305 43.0664 27.9122 43.0239C27.8873 42.9554 27.831 42.9048 27.8144 42.895C27.8094 42.8868 27.7978 42.8803 27.7845 42.877C27.6203 42.8362 27.4512 42.7987 27.2804 42.7709C26.7016 42.673 26.1179 42.6599 25.5458 42.7024C24.9007 42.7481 24.2689 42.8558 23.6454 42.9864C23.6006 42.9978 23.5724 43.0011 23.5906 42.9929L23.6205 42.9831C24.6354 42.5669 25.6519 42.1522 26.6768 41.7931C27.1892 41.6168 27.7066 41.4568 28.224 41.3409C28.3384 41.3164 28.4512 41.2903 28.5689 41.2724C28.5805 41.2691 28.5988 41.2626 28.6104 41.256C28.6319 41.2446 28.6651 41.2299 28.69 41.2283C28.7016 41.2266 28.7165 41.225 28.7281 41.225C28.8342 41.1973 28.9039 41.1369 28.9569 41.0552C29.0084 40.9769 29.0448 40.8904 29.0531 40.8691C29.0548 40.861 29.0581 40.8479 29.0614 40.8381C29.0863 40.7206 29.0283 40.6047 28.9089 40.572C28.9022 40.5688 28.9006 40.5688 28.8956 40.5688Z" />
<path d="M20.1347 27.0098C19.876 27.7444 19.4813 28.4251 18.9656 29.0095C18.4515 29.5972 17.823 30.0902 17.1381 30.4918C16.4516 30.8885 15.707 31.2133 14.9442 31.4288C14.178 31.6443 13.3853 31.7439 12.5993 31.6965C11.8116 31.6541 11.0372 31.4598 10.3125 31.1464C9.58779 30.8297 8.91451 30.3987 8.30259 29.8894C7.69067 29.3801 7.1368 28.7957 6.64427 28.1672C6.39718 27.8554 6.16502 27.5289 5.9511 27.1926C5.84331 27.0261 5.74049 26.8531 5.64431 26.6817C5.59622 26.5968 5.54978 26.5103 5.50501 26.4254C5.48345 26.3813 5.46355 26.3405 5.44365 26.2964L5.41878 26.2377C5.41878 26.2377 5.41546 26.2311 5.41214 26.2279C5.40883 26.2197 5.40219 26.2001 5.39556 26.1887C5.39224 26.1789 5.38893 26.1691 5.38561 26.1626C5.38561 26.1626 5.38064 26.1495 5.37566 26.1365C5.36903 26.1201 5.35245 26.0891 5.33752 26.0679C5.32923 26.0516 5.31928 26.0401 5.30933 26.0271C5.29275 26.0075 5.27616 25.9863 5.25294 25.9585C5.22807 25.9357 5.19988 25.9079 5.15345 25.8769C5.10867 25.8475 5.03073 25.81 4.92294 25.81C4.81183 25.8083 4.71233 25.8589 4.66756 25.8998C4.61449 25.9406 4.58962 25.9748 4.56806 26.0042C4.52826 26.063 4.50836 26.1071 4.48846 26.1446C4.42213 26.3013 4.38564 26.4238 4.34087 26.5511C4.25795 26.796 4.17172 27.031 4.06393 27.253C3.85332 27.6971 3.56312 28.0888 3.18336 28.3745C2.99597 28.5214 2.78039 28.6406 2.5532 28.7467C2.32601 28.8512 2.08722 28.941 1.8451 29.0193C1.35921 29.1695 0.851769 29.2658 0.362565 29.2658C0.357591 29.2658 0.352615 29.2658 0.349299 29.2658C0.34764 29.2658 0.345982 29.2675 0.344324 29.2675C0.342666 29.2707 0.331057 29.2789 0.31779 29.2854C0.304524 29.2919 0.289599 29.2968 0.282966 29.3001C0.279649 29.3034 0.276333 29.305 0.273016 29.3083C0.228242 29.3344 0.1901 29.367 0.158592 29.416C0.143667 29.4389 0.135375 29.4617 0.128742 29.4862C0.12045 29.5303 0.120451 29.5695 0.118792 29.5809C0.118792 29.5874 0.117134 29.5939 0.117134 29.5956C0.107184 29.7196 0.175175 29.8306 0.271357 29.8992C0.292916 29.9188 0.321107 29.9253 0.34764 29.9302C0.394073 29.9368 0.506839 29.9237 0.60468 29.9204C1.10383 29.8943 1.58143 29.7931 2.04742 29.6511C2.31772 29.5662 2.5814 29.4666 2.84009 29.3458C3.09879 29.225 3.35417 29.0846 3.59297 28.9018C4.07056 28.541 4.42876 28.0497 4.67253 27.5387C4.77369 27.3298 4.85661 27.1126 4.92957 26.9021C4.9445 26.8547 4.97601 26.8531 4.99922 26.8972C5.01581 26.9331 5.03571 26.9706 5.05726 27.0033C5.16008 27.1877 5.26953 27.3689 5.38229 27.5452C5.60948 27.8995 5.85326 28.2439 6.11361 28.5753C6.63433 29.2364 7.21805 29.8519 7.87143 30.3955C8.52481 30.9374 9.25281 31.4076 10.0438 31.7488C10.8348 32.0965 11.6939 32.3087 12.5612 32.3576C13.4301 32.4083 14.3024 32.2989 15.1315 32.0654C15.9607 31.8304 16.7451 31.4859 17.4864 31.0566C18.2227 30.6289 18.9109 30.0902 19.478 29.4421C20.0468 28.7908 20.4863 28.035 20.7731 27.2269C20.9158 26.8237 21.0236 26.4058 21.0932 25.9879C21.1645 25.5863 21.2325 25.1701 21.269 24.7489C21.3022 24.3277 21.3088 23.8951 21.2624 23.4642C21.2126 23.0316 21.1098 22.6039 20.9556 22.1974C20.803 21.7909 20.604 21.4089 20.3901 21.0465C20.2773 20.8637 20.1679 20.689 20.0468 20.5095C19.9158 20.3201 19.7632 20.1487 19.604 19.9904C19.2724 19.6786 18.9026 19.4337 18.5145 19.2313C18.1232 19.0321 17.7136 18.8754 17.2973 18.7579C16.8794 18.6403 16.4516 18.5587 16.0171 18.5179C15.5843 18.4771 15.1448 18.4738 14.7054 18.5261C14.2659 18.5799 13.8215 18.6828 13.4036 18.8934C12.9907 19.1007 12.6325 19.3929 12.3356 19.7292C12.0404 20.0654 11.8033 20.4474 11.6342 20.8604C11.465 21.2702 11.3605 21.7142 11.3522 22.1696C11.3456 22.6235 11.4435 23.1001 11.6939 23.5164C11.8166 23.7221 11.9791 23.9082 12.1632 24.0649C12.3489 24.22 12.5578 24.3424 12.7751 24.4355C12.8995 24.4877 13.0255 24.491 13.1233 24.4583C13.2212 24.424 13.2892 24.3538 13.3124 24.2657C13.3356 24.1759 13.3107 24.0861 13.261 24.0094C13.2096 23.931 13.1349 23.8657 13.0421 23.8282C12.7154 23.6894 12.4451 23.4691 12.271 23.1785C12.0968 22.8912 12.0189 22.5386 12.0255 22.1794C12.0388 21.4595 12.3539 20.7217 12.8447 20.1634C13.0885 19.8826 13.382 19.6459 13.7071 19.4827C14.0271 19.3194 14.4035 19.228 14.7833 19.1823C15.5511 19.0942 16.3554 19.1839 17.1099 19.3945C17.4864 19.5023 17.8545 19.6426 18.2011 19.8206C18.546 19.9969 18.8661 20.2107 19.1347 20.467C19.2707 20.5976 19.3918 20.7331 19.4896 20.8817C19.6007 21.0416 19.7085 21.213 19.8113 21.3812C20.012 21.7207 20.1894 22.0684 20.3271 22.4276C20.4597 22.7867 20.5509 23.1556 20.5941 23.5344C20.6355 23.9147 20.6322 24.3016 20.599 24.6934C20.5659 25.0852 20.5028 25.477 20.4315 25.8753C20.3602 26.2654 20.2657 26.6458 20.1347 27.0098Z" />
</svg>
